<svg xmlns="http://www.w3.org/2000/svg" width="292" height="407" fill="none" viewBox="0 0 292 407"><g clip-path="url(#clip0_3331_1512)"><mask id="mask0_3331_1512" width="292" height="407" x="0" y="0" maskUnits="userSpaceOnUse" style="mask-type:luminance"><path fill="#fff" d="M291.969 0H0V406.205H291.969V0Z"/></mask><g mask="url(#mask0_3331_1512)"><path fill="url(#paint0_radial_3331_1512)" d="M16.2638 390C14.6279 389.998 13.0596 389.348 11.9029 388.191C10.7462 387.034 10.0956 385.466 10.0938 383.83V16.169C10.0959 14.5334 10.7466 12.9653 11.9033 11.8088C13.06 10.6524 14.6281 10.0019 16.2638 10H269.425C271.06 10.0021 272.628 10.6527 273.785 11.8092C274.941 12.9656 275.592 14.5335 275.594 16.169V383.83C275.592 385.466 274.941 387.034 273.785 388.19C272.628 389.347 271.06 389.998 269.425 390H16.2638Z"/><path fill="url(#paint1_radial_3331_1512)" stroke="#D97474" stroke-width="2.5" d="M164.404 214.533L80.0799 238.713C73.7419 240.53 67.0649 236.828 65.2479 230.491L41.0679 146.167C39.2509 139.829 42.9529 133.151 49.2899 131.334L133.614 107.155C139.952 105.338 146.63 109.04 148.447 115.377L172.626 199.7C174.444 206.038 170.741 212.716 164.404 214.533Z"/><path fill="#414042" d="M133.269 105.953C140.27 103.946 147.64 108.032 149.647 115.032L173.826 199.356C175.834 206.357 171.748 213.727 164.748 215.734L80.4244 239.914C73.4234 241.921 66.0534 237.835 64.0464 230.835L39.8674 146.511C37.8594 139.51 41.9454 132.14 48.9464 130.133L133.269 105.953ZM132.569 103.512L48.2454 127.691C39.8804 130.09 35.0274 138.847 37.4254 147.211L61.6044 231.535C64.0034 239.9 72.7594 244.753 81.1244 242.355L165.447 218.176C173.812 215.777 178.665 207.02 176.267 198.656L152.087 114.332C149.689 105.967 140.934 101.113 132.569 103.512Z"/><path fill="#CEEDFF" d="M116.965 209.858C115.437 210.3 113.82 210.334 112.276 209.955C108.976 209.135 106.454 206.72 105.529 203.494C104.604 200.268 105.464 196.885 107.827 194.44C108.919 193.311 110.312 192.48 111.855 192.038C113.398 191.596 115.021 191.561 116.545 191.941C119.844 192.762 122.366 195.177 123.291 198.402C124.216 201.627 123.357 205.011 120.994 207.456C119.903 208.584 118.509 209.415 116.965 209.858Z"/><path fill="#414042" d="M112.128 192.994C113.476 192.607 114.923 192.562 116.304 192.906C122.586 194.469 124.777 202.111 120.278 206.765C119.288 207.789 118.038 208.517 116.69 208.903C115.342 209.289 113.895 209.335 112.514 208.992C106.231 207.429 104.04 199.787 108.54 195.132C109.529 194.109 110.779 193.381 112.128 192.994ZM111.58 191.083C109.882 191.565 108.341 192.485 107.111 193.751C104.498 196.454 103.548 200.199 104.572 203.77C105.596 207.341 108.386 210.014 112.035 210.921C113.728 211.342 115.527 211.305 117.238 210.815C118.949 210.325 120.495 209.401 121.707 208.147C124.32 205.444 125.269 201.699 124.245 198.129C123.221 194.559 120.432 191.885 116.783 190.977C115.091 190.556 113.291 190.592 111.58 191.083Z"/><path fill="#CEEDFF" d="M103.131 185.039C102.971 185.085 102.804 185.098 102.64 185.078C102.475 185.058 102.315 185.006 102.171 184.924C102.027 184.842 101.901 184.732 101.799 184.601C101.697 184.47 101.623 184.32 101.581 184.159C100.042 178.307 102.691 171.71 105.684 167.487C109.302 162.387 110.941 157.528 110.07 154.49C108.605 149.381 103.654 149.975 100.833 150.784C96.0428 152.158 93.4268 155.554 92.8348 161.168C92.8104 161.414 92.7125 161.647 92.554 161.836C92.3954 162.026 92.1835 162.163 91.9458 162.23C91.7388 162.289 91.5208 162.293 91.3128 162.241L78.9328 159.164C78.6398 159.09 78.3838 158.913 78.2118 158.666C78.0395 158.418 77.9628 158.116 77.9958 157.816C79.1458 147.398 86.3098 139.32 97.1608 136.208C102.892 134.565 108.527 134.826 113.907 136.986C119.287 139.146 122.895 143.293 124.619 149.304C126.995 157.593 123.087 164.233 119.946 169.567C117.636 173.491 115.641 176.88 116.418 179.991C116.497 180.3 116.453 180.628 116.294 180.904C116.136 181.181 115.876 181.386 115.569 181.473L103.131 185.039Z"/><path fill="#414042" d="M97.433 137.163C103.043 135.554 108.389 135.842 113.536 137.908C118.683 139.974 122.027 143.873 123.662 149.576C127.622 163.385 113.413 172.066 115.454 180.231C115.47 180.29 115.462 180.353 115.432 180.406C115.402 180.459 115.353 180.499 115.295 180.516L102.855 184.083C102.79 184.101 102.72 184.093 102.661 184.059C102.602 184.025 102.559 183.971 102.54 183.906C101.104 178.442 103.656 172.065 106.494 168.061C109.378 163.996 112.204 158.328 111.025 154.214C109.764 149.819 105.889 148.299 100.558 149.828C95.402 151.306 92.474 155.089 91.844 161.063C91.839 161.111 91.82 161.157 91.789 161.194C91.758 161.231 91.717 161.259 91.67 161.273C91.6312 161.285 91.5901 161.285 91.551 161.275L79.171 158.199C79.1122 158.183 79.0609 158.147 79.026 158.097C78.991 158.048 78.976 157.987 78.982 157.926C80.12 147.614 87.405 140.038 97.433 137.163ZM96.885 135.252C91.52 136.79 86.857 139.615 83.402 143.419C79.813 147.371 77.602 152.312 77.006 157.707C76.882 158.816 77.607 159.858 78.692 160.128L91.071 163.204C91.38 163.281 91.702 163.291 92.015 163.233C92.328 163.175 92.625 163.05 92.885 162.867C93.1456 162.684 93.3639 162.448 93.525 162.173C93.686 161.899 93.787 161.593 93.82 161.277C94.365 156.106 96.748 152.988 101.105 151.738C104.115 150.875 107.947 150.699 109.112 154.762C109.901 157.513 108.316 162.054 104.872 166.91C101.748 171.317 98.991 178.228 100.616 184.411C100.693 184.699 100.826 184.969 101.008 185.205C101.19 185.441 101.416 185.639 101.675 185.786C101.935 185.933 102.221 186.027 102.518 186.063C102.815 186.099 103.115 186.075 103.402 185.994L115.841 182.427C116.395 182.268 116.865 181.901 117.153 181.401C117.44 180.902 117.522 180.311 117.382 179.752C116.702 177.032 118.601 173.806 120.801 170.07C124.038 164.572 128.067 157.728 125.572 149.028C123.759 142.707 119.958 138.345 114.275 136.062C108.685 133.819 102.834 133.546 96.885 135.252Z"/><path fill="url(#paint2_radial_3331_1512)" d="M145.077 295.353C141.904 295.348 138.861 294.085 136.617 291.841C134.373 289.597 133.11 286.554 133.105 283.381V195.659C133.11 192.485 134.373 189.442 136.617 187.198C138.861 184.954 141.904 183.691 145.077 183.687H232.799C235.973 183.692 239.015 184.955 241.259 187.199C243.503 189.443 244.766 192.485 244.77 195.659V283.38C244.766 286.553 243.503 289.595 241.259 291.839C239.015 294.084 235.973 295.347 232.799 295.352H145.077V295.353Z"/><path fill="#9CBBD0" d="M232.8 184.956C238.701 184.956 243.501 189.757 243.501 195.657V283.379C243.501 289.28 238.7 294.081 232.8 294.081H145.077C139.176 294.081 134.375 289.28 134.375 283.379V195.657C134.375 189.756 139.177 184.956 145.077 184.956H232.8ZM232.8 182.416H145.077C137.794 182.416 131.836 188.375 131.836 195.657V283.379C131.836 290.663 137.795 296.621 145.077 296.621H232.799C240.082 296.621 246.041 290.662 246.041 283.379V195.657C246.041 188.375 240.082 182.416 232.8 182.416Z"/><path fill="#414042" d="M232.8 182.417C240.084 182.417 246.042 188.376 246.042 195.659V283.38C246.042 290.664 240.083 296.622 232.8 296.622H145.078C137.795 296.622 131.836 290.663 131.836 283.38V195.659C131.836 188.375 137.795 182.417 145.078 182.417H232.8ZM232.8 179.877H145.078C136.376 179.877 129.297 186.957 129.297 195.659V283.38C129.297 292.083 136.376 299.162 145.078 299.162H232.8C241.501 299.162 248.581 292.082 248.581 283.38V195.659C248.582 186.957 241.502 179.877 232.8 179.877Z"/><path fill="#7290A7" d="M188.489 277.803C186.899 277.807 185.335 277.394 183.954 276.605C181.008 274.906 179.25 271.889 179.25 268.534C179.25 265.179 181.008 262.163 183.954 260.465C185.315 259.68 186.883 259.266 188.489 259.266C190.095 259.266 191.663 259.68 193.024 260.465C195.969 262.163 197.727 265.179 197.727 268.534C197.727 271.889 195.969 274.907 193.024 276.605C191.643 277.394 190.079 277.807 188.489 277.803Z"/><path fill="#414042" d="M188.487 260.259C189.903 260.254 191.295 260.622 192.525 261.325C198.134 264.559 198.134 272.509 192.525 275.743C191.292 276.454 189.89 276.809 188.487 276.809C187.084 276.809 185.682 276.454 184.449 275.743C178.84 272.509 178.84 264.559 184.449 261.325C185.682 260.614 187.084 260.259 188.487 260.259ZM188.487 258.271C186.707 258.271 184.967 258.732 183.456 259.603C180.199 261.481 178.254 264.82 178.254 268.535C178.254 272.25 180.199 275.588 183.456 277.466C184.967 278.337 186.707 278.798 188.487 278.798C190.267 278.798 192.007 278.337 193.518 277.466C196.775 275.588 198.72 272.249 198.72 268.535C198.72 264.821 196.775 261.481 193.518 259.603C191.986 258.726 190.252 258.266 188.487 258.271Z"/><path fill="#7290A7" d="M182.032 250.133C181.867 250.132 181.702 250.099 181.549 250.034C181.396 249.97 181.258 249.875 181.142 249.757C181.026 249.639 180.934 249.498 180.873 249.344C180.812 249.19 180.782 249.025 180.785 248.859C180.919 242.81 185.284 237.198 189.325 233.964C194.208 230.059 197.123 225.84 197.123 222.679C197.123 217.364 192.201 216.571 189.266 216.571C184.283 216.571 180.831 219.115 178.715 224.348C178.623 224.577 178.465 224.774 178.26 224.912C178.055 225.05 177.814 225.124 177.568 225.124C177.353 225.124 177.142 225.067 176.956 224.96L165.904 218.589C165.642 218.438 165.445 218.197 165.348 217.912C165.251 217.627 165.26 217.315 165.374 217.036C169.351 207.338 178.465 201.547 189.753 201.547C195.716 201.547 201.06 203.352 205.636 206.911C210.212 210.47 212.538 215.451 212.538 221.704C212.538 230.327 206.95 235.632 202.461 239.895C199.158 243.03 196.307 245.737 196.197 248.943C196.188 249.261 196.055 249.564 195.826 249.786C195.597 250.008 195.291 250.133 194.972 250.133H182.032Z"/><path fill="#414042" d="M189.755 202.541C195.59 202.541 200.65 204.291 205.028 207.696C209.406 211.101 211.546 215.77 211.546 221.704C211.546 236.069 195.495 240.497 195.206 248.908C195.205 248.969 195.18 249.028 195.137 249.071C195.116 249.092 195.09 249.109 195.062 249.12C195.034 249.132 195.004 249.138 194.974 249.138H182.034C181.966 249.138 181.901 249.111 181.854 249.062C181.807 249.013 181.78 248.949 181.78 248.882C181.905 243.233 186.116 237.806 189.948 234.74C193.84 231.627 198.119 226.958 198.119 222.679C198.119 218.106 194.813 215.577 189.268 215.577C183.904 215.577 180.047 218.406 177.795 223.975C177.777 224.02 177.746 224.059 177.706 224.087C177.665 224.114 177.618 224.129 177.569 224.13C177.529 224.13 177.489 224.119 177.454 224.099L166.402 217.728C166.349 217.697 166.31 217.649 166.29 217.591C166.271 217.534 166.272 217.471 166.295 217.415C170.231 207.816 179.322 202.541 189.755 202.541ZM189.755 200.553C184.173 200.553 178.912 201.983 174.542 204.688C170.003 207.497 166.515 211.637 164.456 216.66C164.031 217.691 164.441 218.893 165.41 219.451L176.461 225.821C176.737 225.98 177.044 226.078 177.361 226.108C177.678 226.138 177.997 226.1 178.298 225.996C178.599 225.892 178.874 225.725 179.105 225.506C179.336 225.287 179.517 225.021 179.636 224.726C181.585 219.905 184.735 217.565 189.268 217.565C192.399 217.565 196.131 218.452 196.131 222.678C196.131 225.54 193.356 229.469 188.706 233.187C184.49 236.562 179.934 242.445 179.792 248.837C179.786 249.135 179.84 249.431 179.95 249.708C180.059 249.985 180.223 250.237 180.431 250.451C180.639 250.665 180.889 250.833 181.164 250.949C181.439 251.065 181.735 251.125 182.033 251.126H194.974C195.55 251.127 196.104 250.904 196.518 250.503C196.932 250.102 197.174 249.556 197.192 248.98C197.288 246.177 200.003 243.6 203.147 240.615C207.775 236.222 213.534 230.754 213.534 221.703C213.534 215.128 211.082 209.887 206.249 206.126C201.493 202.428 195.944 200.553 189.755 200.553Z"/><path fill="#62C15A" d="M265.594 20V380H20.0938V20H265.594ZM269.425 0H16.2638C7.33275 0 0.09375 7.239 0.09375 16.169V383.83C0.09375 392.761 7.33275 400 16.2638 400H269.425C278.355 400 285.594 392.761 285.594 383.83V16.169C285.594 7.239 278.354 0 269.425 0Z"/><path fill="#414042" d="M269.425 10C271.06 10.0021 272.628 10.6527 273.785 11.8092C274.941 12.9656 275.592 14.5335 275.594 16.169V383.83C275.592 385.466 274.941 387.034 273.785 388.19C272.628 389.347 271.06 389.998 269.425 390H16.2638C14.6279 389.998 13.0596 389.348 11.9029 388.191C10.7462 387.034 10.0956 385.466 10.0938 383.83V16.169C10.0959 14.5334 10.7466 12.9653 11.9033 11.8088C13.06 10.6524 14.6281 10.0019 16.2638 10H269.425ZM269.425 0H16.2638C7.33275 0 0.09375 7.239 0.09375 16.169V383.83C0.09375 392.761 7.33275 400 16.2638 400H269.425C278.355 400 285.594 392.761 285.594 383.83V16.169C285.594 7.239 278.354 0 269.425 0Z"/></g></g><defs><radialGradient id="paint0_radial_3331_1512" cx="0" cy="0" r="1" gradientTransform="translate(142.844 200) scale(175.249 175.25)" gradientUnits="userSpaceOnUse"><stop stop-color="#8AD147"/><stop offset=".5" stop-color="#5FB248"/><stop offset="1" stop-color="#399346"/></radialGradient><radialGradient id="paint1_radial_3331_1512" cx="0" cy="0" r="1" gradientTransform="translate(106.846 172.934) rotate(-16) scale(57.1028 57.1028)" gradientUnits="userSpaceOnUse"><stop offset=".181" stop-color="#FE404D"/><stop offset=".894" stop-color="#E52C2A"/></radialGradient><radialGradient id="paint2_radial_3331_1512" cx="0" cy="0" r="1" gradientTransform="translate(188.937 239.52) scale(55.8329 55.8329)" gradientUnits="userSpaceOnUse"><stop offset=".297" stop-color="#F6FFFF"/><stop offset="1" stop-color="#CCEFFE"/></radialGradient><clipPath id="clip0_3331_1512"><rect width="292" height="407" fill="#fff"/></clipPath></defs></svg>