<svg width="292" height="407" viewBox="0 0 292 407" fill="none" xmlns="http://www.w3.org/2000/svg">
<g clip-path="url(#clip0_930_3764)">
<path d="M16.2638 390C14.6279 389.998 13.0596 389.348 11.9029 388.191C10.7462 387.034 10.0956 385.466 10.0938 383.83V16.169C10.0959 14.5334 10.7466 12.9653 11.9033 11.8088C13.06 10.6524 14.6281 10.0019 16.2638 10H269.425C271.06 10.0021 272.628 10.6527 273.785 11.8092C274.941 12.9656 275.592 14.5335 275.594 16.169V383.83C275.592 385.466 274.941 387.034 273.785 388.19C272.628 389.347 271.06 389.998 269.425 390H16.2638Z" fill="url(#paint0_radial_930_3764)"/>
<path fill-rule="evenodd" clip-rule="evenodd" d="M142.883 164.021C134.371 164.224 125.967 162.108 118.598 157.904C112.49 154.155 108.985 149.024 108.985 143.796C108.985 129.293 123.556 118.391 142.883 118.391C152.496 118.391 161.158 120.858 167.368 125.495C170.316 127.577 172.722 130.314 174.393 133.486C176.063 136.65 176.95 140.168 176.981 143.746C176.981 153.514 163.963 164.021 142.933 164.021H142.883Z" fill="#BABABA"/>
<path fill-rule="evenodd" clip-rule="evenodd" d="M142.885 119.329C162.413 119.329 175.982 129.688 175.982 143.796C175.982 153.562 162.362 163.033 142.934 163.033C123.407 163.033 109.988 153.562 109.988 143.796C109.988 130.378 123.407 119.378 142.885 119.378V119.329ZM142.885 117.405C123.007 117.405 107.985 128.75 107.985 143.796C107.985 149.32 111.691 154.796 118.1 158.742C125.639 163.043 134.208 165.209 142.885 165.007C152.398 165.007 161.26 162.787 167.821 158.742C174.329 154.796 177.985 149.32 177.985 143.796C177.985 136.298 174.429 129.491 167.97 124.705C160.633 119.695 151.858 117.135 142.934 117.405H142.885Z" fill="#414042"/>
<path fill-rule="evenodd" clip-rule="evenodd" d="M175.432 139.553C176.132 144.831 177.634 150.997 163.564 158.791C162.813 159.235 167.871 157.212 167.371 151.391C167.12 148.334 165.267 145.769 164.366 145.966C161.362 146.558 154.352 150.8 142.886 150.652C127.614 150.504 115.247 144.239 115.247 136.347C115.247 128.503 127.614 122.091 142.886 122.091C158.208 122.091 174.03 128.356 175.432 139.553Z" fill="#7A7A7A"/>
<path fill-rule="evenodd" clip-rule="evenodd" d="M142.883 144.436C133.219 144.436 121.152 141.378 116.695 135.606C111.538 128.848 108.985 118.44 108.985 103.888C108.985 91.3089 112.991 81.0489 120.501 74.2899C126.509 68.8639 134.722 65.7559 143.033 65.7559C149.292 65.7559 158.505 66.4469 165.716 72.3169C173.225 78.3849 176.981 89.0389 176.981 103.888C176.981 119.18 173.627 131.215 167.768 136.741C162.761 141.477 153.247 144.436 142.883 144.436Z" fill="#BABABA"/>
<path fill-rule="evenodd" clip-rule="evenodd" d="M142.985 66.7445C157.856 66.7445 176.032 71.1845 176.032 103.889C176.032 118.195 173.027 130.428 167.069 136.051C162.212 140.689 152.799 143.451 142.885 143.451C133.321 143.451 121.704 140.491 117.499 135.015C112.391 128.306 109.988 117.849 109.988 103.889C109.988 76.3645 128.864 66.7445 143.035 66.7445H142.985ZM143.035 64.7715C134.473 64.7715 126.011 67.9775 119.852 73.5525C112.091 80.5075 107.985 91.0145 107.985 103.889C107.985 118.687 110.589 129.244 115.896 136.2C119.01 139.593 123.067 142.01 127.563 143.154C132.32 144.634 137.727 145.424 142.885 145.424C153.5 145.424 163.314 142.366 168.471 137.482C174.53 131.711 177.985 119.477 177.985 103.889C177.985 88.6965 174.08 77.8435 166.318 71.5295C158.857 65.4625 149.444 64.7715 142.985 64.7715H143.035Z" fill="#414042"/>
<path fill-rule="evenodd" clip-rule="evenodd" d="M175.984 103.89C176.684 126.581 167.071 136.053 167.071 136.053C167.071 136.053 171.627 119.38 171.627 109.908C171.627 98.4637 166.52 85.4897 163.115 88.0557C153.1 95.4547 141.234 93.5807 133.573 92.6927C125.112 91.7557 116.549 80.2617 117.751 78.5357C125.912 66.2037 128.866 66.7457 142.987 66.7457C157.857 66.7457 174.931 68.7677 176.033 103.89H175.984Z" fill="#7A7A7A"/>
<path fill-rule="evenodd" clip-rule="evenodd" d="M142.887 87.1676C122.008 87.1676 114.247 69.8036 114.247 58.9016C114.247 44.6946 119.254 27.7256 142.988 27.7256C151.85 27.7256 158.459 29.8466 163.216 34.2866C168.724 39.4166 171.579 47.7036 171.579 58.9016C171.579 69.4086 165.57 87.1676 142.887 87.1676Z" fill="#BABABA"/>
<path fill-rule="evenodd" clip-rule="evenodd" d="M142.981 28.7113C158.253 28.7113 170.571 35.4203 170.571 58.9003C170.571 70.3443 163.761 86.1793 142.881 86.1793C122.051 86.1793 115.242 68.6183 115.242 58.9003C115.242 35.9133 127.709 28.7113 142.981 28.7113ZM142.981 26.7383C129.412 26.7383 113.239 32.3123 113.239 58.9013C113.239 70.2473 121.251 88.1533 142.881 88.1533C152.795 88.1533 160.856 84.6513 166.114 78.0403C170.365 72.5413 172.653 65.8123 172.623 58.9003C172.623 37.5403 162.609 26.7383 142.981 26.7383Z" fill="#414042"/>
<path fill-rule="evenodd" clip-rule="evenodd" d="M170.571 58.8989C170.571 65.3119 168.418 73.1549 162.81 78.7789C158.453 83.1199 174.827 59.9349 160.407 43.6079C145.235 26.5889 122.603 35.9619 122.603 35.9619C122.603 35.9619 128.512 28.7109 142.982 28.7109C158.254 28.7109 170.571 35.4189 170.571 58.8989Z" fill="#7A7A7A"/>
<path d="M89.2378 346.742C66.2668 346.742 56.0558 343.873 55.0968 337.152C54.6938 334.334 54.8238 329.696 54.9598 324.784L55.0998 317.421C55.0998 310.048 63.8228 295.11 76.2518 293.232L77.3468 293.066L77.7838 293.655C78.3998 293.893 80.9428 294.637 89.1728 294.994C97.6458 294.628 100.175 293.848 100.743 293.624L101.203 293.078L102.223 293.232C114.652 295.11 123.375 310.048 123.375 317.421C123.375 319.746 123.446 322.307 123.515 324.782C123.652 329.695 123.781 334.333 123.378 337.152C122.417 343.873 112.208 346.742 89.2378 346.742Z" fill="#F6FAF6"/>
<path d="M101.951 295.056C113.267 296.765 121.535 310.58 121.535 317.422C121.535 324.264 122.135 332.836 121.557 336.893C120.915 341.382 114.028 344.9 89.2405 344.9C64.4535 344.9 57.5655 341.383 56.9245 336.893C56.3455 332.836 56.9455 324.26 56.9455 317.422C56.9455 310.584 65.2145 296.766 76.5295 295.056C76.5295 295.056 77.4825 296.34 89.1755 296.84C100.869 296.339 101.951 295.056 101.951 295.056ZM78.1705 291.078L75.9795 291.409C63.0155 293.369 53.2595 308.54 53.2595 317.421C53.2595 319.721 53.1885 322.27 53.1205 324.735C52.9815 329.726 52.8505 334.441 53.2745 337.414C54.4075 345.349 64.8285 348.586 89.2405 348.586C113.653 348.586 124.073 345.349 125.207 337.414C125.631 334.441 125.5 329.725 125.362 324.732L125.223 317.421C125.223 308.54 115.467 293.369 102.502 291.409L100.462 291.1L99.6765 292.032C98.7415 292.287 95.9915 292.852 89.1755 293.149C82.6475 292.864 79.9055 292.334 78.9095 292.074L78.1705 291.078Z" fill="#223948"/>
<path d="M88.9667 296.897C87.5437 296.897 84.0797 296.866 82.6587 296.582C76.2777 295.308 61.4307 289.488 61.4307 262.99C61.4307 243.704 71.1827 233.082 88.8877 233.082C106.783 233.082 117.047 243.983 117.047 262.99C117.047 287.764 104.998 294.964 94.8897 296.641C93.7587 296.829 91.0887 296.897 88.9667 296.897Z" fill="#F6FAF6"/>
<path d="M88.8879 234.926C108.535 234.926 115.204 247.954 115.204 262.989C115.204 284.167 106.381 292.864 94.5899 294.821C93.6909 294.971 91.3459 295.052 88.9679 295.052C86.4899 295.052 83.9759 294.964 83.0219 294.773C72.7489 292.724 63.2759 283.819 63.2759 262.989C63.2749 247.954 69.3269 234.926 88.8879 234.926ZM88.8879 231.238C69.9929 231.238 59.5869 242.514 59.5869 262.989C59.5869 290.851 75.4699 297.028 82.2999 298.39C83.8219 298.695 87.1299 298.74 88.9659 298.74C90.3309 298.74 93.6729 298.713 95.1959 298.458C106.002 296.665 118.889 289.055 118.889 262.988C118.889 242.811 107.954 231.238 88.8879 231.238Z" fill="#223948"/>
<path d="M196.732 346.742C173.761 346.742 163.55 343.873 162.591 337.152C162.189 334.334 162.319 329.696 162.455 324.784L162.595 317.421C162.595 310.048 171.317 295.11 183.747 293.232L184.842 293.066L185.279 293.655C185.895 293.893 188.438 294.637 196.667 294.994C205.141 294.628 207.67 293.848 208.238 293.624L208.697 293.078L209.718 293.232C222.147 295.11 230.87 310.048 230.87 317.421C230.87 319.746 230.941 322.307 231.01 324.782C231.146 329.695 231.275 334.333 230.872 337.152C229.912 343.873 219.702 346.742 196.732 346.742Z" fill="#F6FAF6"/>
<path d="M209.438 295.056C220.754 296.765 229.022 310.58 229.022 317.422C229.022 324.264 229.623 332.836 229.044 336.893C228.402 341.382 221.515 344.9 196.728 344.9C171.941 344.9 165.053 341.383 164.412 336.893C163.833 332.836 164.433 324.26 164.433 317.422C164.433 310.584 172.701 296.766 184.017 295.056C184.017 295.056 184.97 296.34 196.663 296.84C208.356 296.339 209.438 295.056 209.438 295.056ZM185.658 291.078L183.467 291.409C170.503 293.369 160.747 308.54 160.747 317.421C160.747 319.721 160.676 322.27 160.608 324.735C160.468 329.726 160.338 334.441 160.761 337.414C161.895 345.349 172.315 348.586 196.728 348.586C221.141 348.586 231.56 345.349 232.694 337.414C233.118 334.441 232.987 329.725 232.849 324.732L232.71 317.421C232.71 308.54 222.954 293.369 209.989 291.409L207.949 291.1L207.164 292.032C206.23 292.287 203.479 292.852 196.663 293.149C190.136 292.864 187.392 292.334 186.397 292.074L185.658 291.078Z" fill="#223948"/>
<path d="M196.454 296.897C195.031 296.897 191.567 296.866 190.146 296.582C183.766 295.308 168.919 289.488 168.919 262.99C168.919 243.704 178.67 233.082 196.376 233.082C214.272 233.082 224.535 243.983 224.535 262.99C224.535 287.764 212.486 294.964 202.379 296.641C201.248 296.829 198.577 296.897 196.454 296.897Z" fill="#F6FAF6"/>
<path d="M196.38 234.926C216.027 234.926 222.695 247.954 222.695 262.989C222.695 284.167 213.872 292.864 202.081 294.821C201.183 294.971 198.837 295.052 196.459 295.052C193.982 295.052 191.467 294.964 190.513 294.773C180.24 292.724 170.767 283.819 170.767 262.989C170.766 247.954 176.819 234.926 196.38 234.926ZM196.38 231.238C177.485 231.238 167.079 242.514 167.079 262.989C167.079 290.851 182.962 297.028 189.792 298.39C191.314 298.695 194.622 298.74 196.458 298.74C197.823 298.74 201.165 298.713 202.688 298.458C213.495 296.665 226.383 289.055 226.383 262.988C226.383 242.811 215.446 231.238 196.38 231.238Z" fill="#223948"/>
<path d="M143.222 371.621C120.252 371.621 110.041 368.752 109.08 362.032C108.678 359.213 108.807 354.573 108.944 349.661L109.083 342.3C109.083 334.926 117.806 319.989 130.235 318.111L131.331 317.945L131.768 318.534C132.384 318.771 134.927 319.517 143.157 319.874C151.632 319.508 154.161 318.727 154.728 318.502L155.188 317.957L156.208 318.111C168.637 319.989 177.361 334.926 177.361 342.3C177.361 344.625 177.431 347.187 177.501 349.663C177.637 354.574 177.766 359.214 177.364 362.031C176.403 368.752 166.193 371.621 143.222 371.621Z" fill="#F6FAF6"/>
<path d="M155.93 319.935C167.246 321.644 175.515 335.46 175.515 342.301C175.515 349.142 176.115 357.716 175.536 361.773C174.895 366.26 168.007 369.779 143.22 369.779C118.433 369.779 111.545 366.261 110.904 361.773C110.324 357.716 110.925 349.139 110.925 342.301C110.925 335.463 119.194 321.645 130.509 319.935C130.509 319.935 131.463 321.22 143.155 321.72C154.847 321.219 155.93 319.935 155.93 319.935ZM132.149 315.957L129.959 316.288C116.994 318.247 107.238 333.419 107.238 342.3C107.238 344.599 107.167 347.147 107.099 349.611C106.961 354.605 106.83 359.32 107.254 362.293C108.387 370.228 118.808 373.465 143.221 373.465C167.634 373.465 178.053 370.228 179.187 362.293C179.611 359.321 179.481 354.606 179.341 349.614L179.201 342.3C179.201 333.419 169.445 318.247 156.482 316.288L154.442 315.98L153.656 316.911C152.722 317.167 149.971 317.731 143.155 318.028C136.626 317.742 133.884 317.214 132.888 316.954L132.149 315.957Z" fill="#223948"/>
<path d="M142.947 321.774C141.523 321.774 138.059 321.743 136.639 321.459C130.258 320.186 115.411 314.365 115.411 287.867C115.411 268.581 125.162 257.959 142.868 257.959C160.763 257.959 171.026 268.86 171.026 287.867C171.026 312.641 158.978 319.841 148.87 321.518C147.74 321.707 145.069 321.774 142.947 321.774Z" fill="#F6FAF6"/>
<path d="M142.864 259.803C162.511 259.803 169.178 272.83 169.178 287.866C169.178 309.043 160.358 317.742 148.564 319.699C147.666 319.849 145.321 319.93 142.943 319.93C140.465 319.93 137.95 319.842 136.997 319.651C126.724 317.602 117.251 308.695 117.251 287.866C117.251 272.83 123.304 259.803 142.864 259.803ZM142.864 256.115C123.97 256.115 113.563 267.391 113.563 287.866C113.563 315.729 129.447 321.906 136.276 323.267C137.798 323.572 141.106 323.617 142.943 323.617C144.308 323.617 147.648 323.59 149.172 323.335C159.978 321.542 172.866 313.932 172.866 287.865C172.866 267.688 161.931 256.115 142.864 256.115Z" fill="#223948"/>
<path d="M164.31 198.012C164.308 200.041 162.662 201.694 160.638 201.694H154.595V219.272C154.594 220.122 154.256 220.937 153.655 221.538C153.054 222.139 152.239 222.477 151.389 222.478H134.585C133.735 222.477 132.92 222.139 132.319 221.538C131.718 220.937 131.38 220.122 131.379 219.272V201.694H125.337C124.362 201.692 123.428 201.303 122.739 200.613C122.051 199.922 121.665 198.987 121.665 198.012C121.664 197.129 121.987 196.277 122.573 195.617L140.223 175.377C140.568 174.983 140.993 174.667 141.47 174.451C141.946 174.234 142.464 174.122 142.987 174.122C143.511 174.122 144.028 174.234 144.505 174.451C144.982 174.668 145.407 174.983 145.751 175.377L163.402 195.617C163.987 196.277 164.311 197.129 164.31 198.012Z" fill="url(#paint1_linear_930_3764)"/>
<path d="M122.547 198.011C122.547 197.384 122.761 196.744 123.238 196.197L140.888 175.959C141.149 175.66 141.471 175.419 141.833 175.255C142.195 175.091 142.588 175.005 142.985 175.005C143.383 175.005 143.776 175.091 144.137 175.255C144.499 175.419 144.821 175.66 145.082 175.959L162.732 196.2C163.177 196.699 163.423 197.344 163.423 198.012C163.423 199.449 162.298 200.811 160.635 200.811H153.709V219.272C153.709 219.888 153.464 220.478 153.029 220.914C152.594 221.35 152.003 221.594 151.387 221.594H134.583C133.967 221.594 133.377 221.349 132.941 220.914C132.505 220.479 132.261 219.888 132.261 219.272V200.81H125.334C123.671 200.81 122.547 199.447 122.547 198.011ZM120.778 198.011C120.779 199.221 121.259 200.38 122.113 201.237C122.967 202.093 124.125 202.576 125.334 202.579H130.492V219.272C130.494 220.357 130.925 221.396 131.692 222.163C132.459 222.93 133.498 223.361 134.583 223.363H151.387C152.472 223.361 153.511 222.93 154.278 222.163C155.045 221.397 155.477 220.357 155.477 219.272V202.579H160.635C161.845 202.576 163.004 202.093 163.858 201.237C164.712 200.381 165.192 199.221 165.192 198.011C165.188 196.916 164.788 195.859 164.065 195.036L146.415 174.797C145.988 174.308 145.461 173.915 144.869 173.646C144.277 173.377 143.635 173.238 142.985 173.238C142.335 173.238 141.693 173.377 141.101 173.646C140.51 173.915 139.983 174.308 139.555 174.797L121.904 195.036C121.182 195.86 120.783 196.916 120.778 198.011Z" fill="#4F0C16"/>
<path d="M222.603 198.012C222.601 200.041 220.955 201.694 218.931 201.694H212.888V219.272C212.887 220.122 212.549 220.937 211.948 221.538C211.347 222.139 210.532 222.477 209.682 222.478H192.878C192.028 222.477 191.213 222.139 190.612 221.538C190.011 220.937 189.673 220.122 189.672 219.272V201.694H183.63C182.655 201.692 181.721 201.303 181.032 200.613C180.344 199.922 179.957 198.987 179.958 198.012C179.957 197.129 180.28 196.277 180.866 195.617L198.516 175.377C198.861 174.983 199.286 174.667 199.763 174.451C200.239 174.234 200.757 174.122 201.28 174.122C201.804 174.122 202.321 174.234 202.798 174.451C203.275 174.668 203.7 174.983 204.044 175.377L221.695 195.617C222.28 196.277 222.604 197.129 222.603 198.012Z" fill="url(#paint2_linear_930_3764)"/>
<path d="M180.84 198.011C180.84 197.384 181.054 196.744 181.531 196.197L199.181 175.959C199.442 175.66 199.764 175.419 200.126 175.255C200.488 175.091 200.881 175.005 201.278 175.005C201.676 175.005 202.069 175.091 202.43 175.255C202.792 175.419 203.114 175.66 203.375 175.959L221.025 196.2C221.469 196.699 221.715 197.344 221.716 198.012C221.716 199.449 220.591 200.811 218.928 200.811H212.002V219.272C212.002 219.888 211.757 220.478 211.322 220.914C210.887 221.35 210.296 221.594 209.68 221.594H192.876C192.26 221.594 191.67 221.349 191.234 220.914C190.798 220.479 190.554 219.888 190.554 219.272V200.81H183.627C181.964 200.81 180.84 199.447 180.84 198.011ZM179.071 198.011C179.072 199.221 179.552 200.38 180.406 201.237C181.26 202.093 182.418 202.576 183.627 202.579H188.785V219.272C188.787 220.357 189.218 221.396 189.985 222.163C190.752 222.93 191.791 223.361 192.876 223.363H209.68C210.765 223.361 211.804 222.93 212.571 222.163C213.338 221.397 213.77 220.357 213.77 219.272V202.579H218.928C220.138 202.576 221.296 202.093 222.151 201.237C223.005 200.381 223.485 199.221 223.485 198.011C223.481 196.916 223.081 195.859 222.358 195.036L204.708 174.797C204.281 174.308 203.754 173.915 203.162 173.646C202.57 173.377 201.928 173.238 201.278 173.238C200.628 173.238 199.986 173.377 199.394 173.646C198.803 173.915 198.276 174.308 197.848 174.797L180.197 195.036C179.475 195.86 179.076 196.916 179.071 198.011Z" fill="#4F0C16"/>
<path d="M106.017 198.012C106.015 200.041 104.369 201.694 102.345 201.694H96.3021V219.272C96.301 220.122 95.9629 220.937 95.3619 221.538C94.7609 222.139 93.946 222.477 93.0961 222.478H76.2921C75.4421 222.477 74.6273 222.139 74.0263 221.538C73.4252 220.937 73.0871 220.122 73.0861 219.272V201.694H67.0441C66.0691 201.692 65.1348 201.303 64.4464 200.613C63.7579 199.922 63.3715 198.987 63.3721 198.012C63.3709 197.129 63.694 196.277 64.2801 195.617L81.9301 175.377C82.2741 174.983 82.6991 174.667 83.1761 174.451C83.6531 174.235 84.1701 174.122 84.6941 174.122C85.2181 174.122 85.7351 174.234 86.2121 174.451C86.6891 174.668 87.1141 174.983 87.4581 175.377L105.109 195.617C105.695 196.277 106.018 197.129 106.017 198.012Z" fill="url(#paint3_linear_930_3764)"/>
<path d="M64.2544 198.011C64.2544 197.384 64.4684 196.744 64.9454 196.197L82.5954 175.959C82.8564 175.66 83.1787 175.42 83.5404 175.255C83.9024 175.09 84.2954 175.005 84.6924 175.005C85.0894 175.005 85.4824 175.09 85.8444 175.255C86.2061 175.42 86.5283 175.66 86.7894 175.959L104.439 196.2C104.884 196.699 105.13 197.344 105.13 198.012C105.13 199.449 104.005 200.811 102.342 200.811H95.4164V219.272C95.4164 219.888 95.1714 220.478 94.7364 220.914C94.3014 221.35 93.7104 221.594 93.0944 221.594H76.2904C75.6744 221.594 75.0844 221.349 74.6484 220.914C74.2124 220.479 73.9684 219.888 73.9684 219.272V200.81H67.0404C65.3774 200.81 64.2544 199.447 64.2544 198.011ZM62.4854 198.011C62.4859 199.221 62.9657 200.38 63.8196 201.237C64.6736 202.093 65.8321 202.576 67.0414 202.579H72.2004V219.272C72.2014 220.357 72.6334 221.396 73.3994 222.163C74.1664 222.93 75.2059 223.361 76.2904 223.363H93.0944C94.1788 223.361 95.2183 222.93 95.9854 222.163C96.7524 221.396 97.1834 220.357 97.1844 219.272V202.579H102.341C103.551 202.576 104.71 202.093 105.564 201.237C106.418 200.381 106.898 199.221 106.898 198.011C106.894 196.916 106.494 195.859 105.771 195.036L88.1214 174.797C87.6942 174.308 87.167 173.915 86.5753 173.646C85.9837 173.377 85.3413 173.238 84.6914 173.238C84.0415 173.238 83.3991 173.377 82.8074 173.646C82.2158 173.915 81.6886 174.308 81.2614 174.797L63.6104 195.036C62.8884 195.86 62.4894 196.916 62.4854 198.011Z" fill="#4F0C16"/>
<path d="M265.594 20V380H20.0938V20H265.594ZM269.425 0H16.2638C7.33275 0 0.09375 7.239 0.09375 16.169V383.83C0.09375 392.761 7.33275 400 16.2638 400H269.425C278.355 400 285.594 392.761 285.594 383.83V16.169C285.594 7.239 278.354 0 269.425 0Z" fill="#CDEBFF"/>
<path d="M269.425 10C271.06 10.0021 272.628 10.6527 273.785 11.8092C274.941 12.9656 275.592 14.5335 275.594 16.169V383.83C275.592 385.466 274.941 387.034 273.785 388.19C272.628 389.347 271.06 389.998 269.425 390H16.2638C14.6279 389.998 13.0596 389.348 11.9029 388.191C10.7462 387.034 10.0956 385.466 10.0938 383.83V16.169C10.0959 14.5334 10.7466 12.9653 11.9033 11.8088C13.06 10.6524 14.6281 10.0019 16.2638 10H269.425ZM269.425 0H16.2638C7.33275 0 0.09375 7.239 0.09375 16.169V383.83C0.09375 392.761 7.33275 400 16.2638 400H269.425C278.355 400 285.594 392.761 285.594 383.83V16.169C285.594 7.239 278.354 0 269.425 0Z" fill="#414042"/>
</g>
<defs>
<radialGradient id="paint0_radial_930_3764" cx="0" cy="0" r="1" gradientUnits="userSpaceOnUse" gradientTransform="translate(142.844 200) scale(177.165 177.499)">
<stop stop-color="#A4C7DC"/>
<stop offset="0.495209" stop-color="#85AEC0"/>
<stop offset="1" stop-color="#6696A4"/>
</radialGradient>
<linearGradient id="paint1_linear_930_3764" x1="149.827" y1="178.378" x2="124.723" y2="212.195" gradientUnits="userSpaceOnUse">
<stop stop-color="#EC6F66"/>
<stop offset="0.008" stop-color="#EC6D65"/>
<stop offset="0.17" stop-color="#EC504D"/>
<stop offset="0.341" stop-color="#EC393B"/>
<stop offset="0.525" stop-color="#EC292E"/>
<stop offset="0.731" stop-color="#EC1F26"/>
<stop offset="1" stop-color="#EC1C24"/>
</linearGradient>
<linearGradient id="paint2_linear_930_3764" x1="208.12" y1="178.378" x2="183.016" y2="212.195" gradientUnits="userSpaceOnUse">
<stop stop-color="#EC6F66"/>
<stop offset="0.008" stop-color="#EC6D65"/>
<stop offset="0.17" stop-color="#EC504D"/>
<stop offset="0.341" stop-color="#EC393B"/>
<stop offset="0.525" stop-color="#EC292E"/>
<stop offset="0.731" stop-color="#EC1F26"/>
<stop offset="1" stop-color="#EC1C24"/>
</linearGradient>
<linearGradient id="paint3_linear_930_3764" x1="91.5336" y1="178.378" x2="66.4297" y2="212.195" gradientUnits="userSpaceOnUse">
<stop stop-color="#EC6F66"/>
<stop offset="0.008" stop-color="#EC6D65"/>
<stop offset="0.17" stop-color="#EC504D"/>
<stop offset="0.341" stop-color="#EC393B"/>
<stop offset="0.525" stop-color="#EC292E"/>
<stop offset="0.731" stop-color="#EC1F26"/>
<stop offset="1" stop-color="#EC1C24"/>
</linearGradient>
<clipPath id="clip0_930_3764">
<rect width="291.969" height="406.205" fill="white"/>
</clipPath>
</defs>
</svg>
