<svg xmlns="http://www.w3.org/2000/svg" width="292" height="407" fill="none" viewBox="0 0 292 407"><g clip-path="url(#clip0_930_3119)"><path fill="url(#paint0_radial_930_3119)" d="M16.2642 390C14.6284 389.998 13.0601 389.348 11.9034 388.191C10.7467 387.034 10.0961 385.466 10.0942 383.83V16.169C10.0964 14.5334 10.7471 12.9653 11.9038 11.8088C13.0605 10.6524 14.6286 10.0019 16.2642 10H269.425C271.061 10.0021 272.629 10.6527 273.785 11.8092C274.941 12.9656 275.592 14.5335 275.594 16.169V383.83C275.592 385.466 274.942 387.034 273.785 388.19C272.629 389.347 271.061 389.998 269.425 390H16.2642Z"/><path fill="#E1EF74" d="M265.594 20V380H20.0942V20H265.594ZM269.425 0H16.2642C7.33324 0 0.0942383 7.239 0.0942383 16.169V383.83C0.0942383 392.761 7.33324 400 16.2642 400H269.425C278.355 400 285.594 392.761 285.594 383.83V16.169C285.594 7.239 278.354 0 269.425 0Z"/><path fill="#414042" d="M269.425 10C271.061 10.0021 272.629 10.6527 273.785 11.8092C274.941 12.9656 275.592 14.5335 275.594 16.169V383.83C275.592 385.466 274.942 387.034 273.785 388.19C272.629 389.347 271.061 389.998 269.425 390H16.2642C14.6284 389.998 13.0601 389.348 11.9034 388.191C10.7467 387.034 10.0961 385.466 10.0942 383.83V16.169C10.0964 14.5334 10.7471 12.9653 11.9038 11.8088C13.0605 10.6524 14.6286 10.0019 16.2642 10H269.425ZM269.425 0H16.2642C7.33324 0 0.0942383 7.239 0.0942383 16.169V383.83C0.0942383 392.761 7.33324 400 16.2642 400H269.425C278.355 400 285.594 392.761 285.594 383.83V16.169C285.594 7.239 278.354 0 269.425 0Z"/><path fill="url(#paint1_radial_930_3119)" d="M66.0513 371.004C65.6393 371.129 65.1953 371.086 64.8153 370.884C64.4353 370.682 64.1513 370.338 64.0243 369.926L35.7343 277.429C35.6093 277.017 35.6523 276.572 35.8543 276.193C36.0567 275.814 36.4011 275.529 36.8123 275.402L100.507 255.931C100.919 255.807 101.364 255.85 101.744 256.051C101.932 256.151 102.099 256.287 102.235 256.451C102.37 256.616 102.472 256.805 102.534 257.008L130.825 349.506C130.95 349.918 130.907 350.363 130.705 350.742C130.503 351.121 130.158 351.407 129.747 351.533L66.0513 371.004Z"/><path fill="url(#paint2_radial_930_3119)" d="M66.0513 371.004C65.6393 371.129 65.1953 371.086 64.8153 370.884C64.4353 370.682 64.1513 370.338 64.0243 369.926L35.7343 277.429C35.6093 277.017 35.6523 276.572 35.8543 276.193C36.0567 275.814 36.4011 275.529 36.8123 275.402L100.507 255.931C100.919 255.807 101.364 255.85 101.744 256.051C101.932 256.151 102.099 256.287 102.235 256.451C102.37 256.616 102.472 256.805 102.534 257.008L130.825 349.506C130.95 349.918 130.907 350.363 130.705 350.742C130.503 351.121 130.158 351.407 129.747 351.533L66.0513 371.004Z"/><path fill="#66C2E2" d="M100.313 258.742L128.014 349.312L66.2453 368.194L38.5443 277.624L100.312 258.742H100.313ZM99.7383 253.416L36.0423 272.887C33.7953 273.574 32.5313 275.951 33.2183 278.198L61.5083 370.696C62.1953 372.942 64.5733 374.207 66.8213 373.52L130.516 354.049C132.763 353.362 134.028 350.984 133.341 348.737L105.05 256.239C104.363 253.993 101.985 252.729 99.7383 253.416Z"/><path fill="#414042" d="M100.507 255.931C100.919 255.806 101.363 255.849 101.743 256.051C102.123 256.253 102.408 256.597 102.534 257.009L130.824 349.506C130.95 349.918 130.907 350.363 130.705 350.743C130.503 351.123 130.158 351.407 129.747 351.533L66.0513 371.004C65.8476 371.066 65.6336 371.088 65.4215 371.067C65.2094 371.047 65.0034 370.985 64.8153 370.885C64.4354 370.683 64.1514 370.338 64.0243 369.927L35.7343 277.429C35.6093 277.017 35.6523 276.573 35.8543 276.193C36.0567 275.813 36.4011 275.528 36.8123 275.402L100.507 255.931ZM99.7383 253.416L36.0423 272.887C33.7953 273.574 32.5313 275.951 33.2183 278.198L61.5083 370.696C62.1953 372.942 64.5733 374.207 66.8213 373.52L130.516 354.049C132.763 353.362 134.028 350.984 133.341 348.737L105.05 256.239C104.363 253.993 101.985 252.729 99.7383 253.416Z"/><path fill="url(#paint3_linear_930_3119)" d="M89.2478 335.588C88.2421 335.899 87.1724 335.94 86.1458 335.707C83.9538 335.202 82.2568 333.633 81.6078 331.511C80.9588 329.389 81.4878 327.139 83.0228 325.495C83.7431 324.728 84.6525 324.164 85.6598 323.859C86.6655 323.549 87.7352 323.508 88.7618 323.74C90.9538 324.245 92.6508 325.814 93.2998 327.937C93.9488 330.06 93.4198 332.308 91.8848 333.952C91.1639 334.719 90.2552 335.284 89.2478 335.588Z"/><path fill="#223948" d="M85.8503 324.487C86.7383 324.216 87.6943 324.169 88.6123 324.381C89.5594 324.591 90.4338 325.049 91.1462 325.707C91.8586 326.366 92.3835 327.201 92.6672 328.129C92.9509 329.057 92.9833 330.043 92.7611 330.987C92.5389 331.931 92.07 332.8 91.4023 333.503C90.7593 334.192 89.9413 334.688 89.0533 334.959C88.1653 335.23 87.2093 335.277 86.2913 335.066C85.344 334.857 84.4694 334.399 83.7568 333.741C83.0443 333.082 82.5193 332.246 82.2355 331.319C81.9518 330.391 81.9195 329.404 82.1419 328.46C82.3642 327.516 82.8334 326.647 83.5013 325.944C84.1443 325.256 84.9623 324.759 85.8503 324.487ZM85.4653 323.229C84.3383 323.574 83.3273 324.202 82.5393 325.046C80.8423 326.864 80.2573 329.353 80.9763 331.703C81.6953 334.053 83.5723 335.789 85.9963 336.347C87.1213 336.606 88.3113 336.561 89.4373 336.217C90.555 335.879 91.564 335.253 92.3633 334.401C94.0603 332.583 94.6453 330.094 93.9263 327.744C93.2073 325.394 91.3303 323.657 88.9063 323.099C87.7813 322.84 86.5913 322.885 85.4653 323.229Z"/><path fill="url(#paint4_linear_930_3119)" d="M79.8098 319.328C79.7046 319.36 79.5942 319.371 79.4848 319.36C79.3758 319.349 79.2698 319.316 79.1728 319.263C79.0758 319.21 78.9918 319.14 78.9228 319.054C78.8541 318.968 78.8031 318.869 78.7728 318.764C77.6868 314.91 79.3628 310.516 81.2938 307.688C83.6278 304.272 84.6558 301.039 84.0438 299.039C83.0148 295.676 79.7468 296.127 77.8898 296.694C74.7368 297.658 73.0448 299.935 72.7188 303.656C72.7048 303.819 72.6428 303.973 72.5398 304.1C72.4368 304.227 72.2988 304.321 72.1428 304.369C72.0068 304.41 71.8628 304.415 71.7238 304.383L63.4978 302.49C63.3038 302.445 63.1318 302.331 63.0148 302.169C62.8978 302.007 62.8438 301.808 62.8618 301.61C63.5008 294.705 68.1468 289.278 75.2898 287.094C79.0628 285.941 82.7938 286.049 86.3788 287.415C89.9638 288.781 92.3988 291.484 93.6088 295.44C95.2778 300.896 92.7688 305.334 90.7528 308.899C89.2698 311.522 87.9898 313.786 88.5408 315.835C88.597 316.038 88.5715 316.256 88.4698 316.441C88.3678 316.626 88.1988 316.764 87.9968 316.825L79.8098 319.328Z"/><path fill="#223948" d="M75.4846 287.723C79.1766 286.594 82.7176 286.722 86.1466 288.03C89.5756 289.338 91.8336 291.878 92.9826 295.632C95.7626 304.721 86.4636 310.628 87.9086 316.006C87.9196 316.044 87.9156 316.086 87.8966 316.122C87.8776 316.158 87.8456 316.184 87.8066 316.196L79.6186 318.699C79.5756 318.712 79.5292 318.707 79.4896 318.686C79.4496 318.665 79.4206 318.629 79.4076 318.586C78.3936 314.988 80.0076 310.74 81.8396 308.058C83.6996 305.336 85.5036 301.554 84.6756 298.846C83.7906 295.953 81.2086 294.992 77.7006 296.065C74.3066 297.103 72.4136 299.639 72.0666 303.598C72.0636 303.63 72.0516 303.66 72.0316 303.686C72.0116 303.712 71.9846 303.73 71.9536 303.739C71.9226 303.748 71.9006 303.748 71.8746 303.742L63.6476 301.849C63.6086 301.84 63.5736 301.817 63.5506 301.784C63.5276 301.751 63.5156 301.712 63.5196 301.672C64.1526 294.837 68.8826 289.741 75.4846 287.723ZM75.0996 286.465C71.5676 287.545 68.5156 289.467 66.2736 292.024C63.9456 294.679 62.5396 297.974 62.2086 301.55C62.1396 302.284 62.6306 302.965 63.3526 303.131L71.5786 305.024C71.7841 305.071 71.9972 305.073 72.2036 305.031C72.4101 304.989 72.6052 304.903 72.7756 304.779C72.9456 304.656 73.0876 304.497 73.1916 304.313C73.2952 304.13 73.3583 303.927 73.3766 303.717C73.6766 300.29 75.2166 298.199 78.0856 297.323C80.0666 296.717 82.6006 296.556 83.4186 299.23C83.9726 301.041 82.9766 304.064 80.7546 307.316C78.7396 310.267 76.9956 314.871 78.1436 318.942C78.1976 319.132 78.2886 319.309 78.4116 319.463C78.5346 319.617 78.6866 319.745 78.8596 319.839C79.0331 319.934 79.2239 319.993 79.4206 320.013C79.6171 320.033 79.8155 320.014 80.0046 319.957L88.1926 317.454C88.5573 317.343 88.8646 317.095 89.0496 316.761C89.2336 316.427 89.2816 316.035 89.1816 315.667C88.7006 313.875 89.9186 311.719 91.3306 309.222C93.4086 305.547 95.9946 300.974 94.2426 295.247C92.9696 291.087 90.4046 288.245 86.6176 286.8C82.8926 285.381 79.0186 285.268 75.1026 286.465H75.0996Z"/><path fill="url(#paint5_radial_930_3119)" d="M126.252 371.005C125.84 371.13 125.395 371.086 125.015 370.885C124.826 370.785 124.66 370.649 124.524 370.484C124.389 370.32 124.287 370.13 124.225 369.927L95.9335 277.43C95.8085 277.018 95.8515 276.573 96.0535 276.194C96.2559 275.814 96.6003 275.529 97.0115 275.403L160.708 255.932C161.12 255.807 161.563 255.85 161.943 256.052C162.323 256.254 162.608 256.598 162.734 257.009L191.025 349.507C191.087 349.71 191.109 349.924 191.088 350.136C191.068 350.348 191.006 350.554 190.906 350.743C190.703 351.122 190.359 351.407 189.948 351.534L126.252 371.005Z"/><path fill="url(#paint6_radial_930_3119)" d="M126.252 371.005C125.84 371.13 125.395 371.086 125.015 370.885C124.826 370.785 124.66 370.649 124.524 370.484C124.389 370.32 124.287 370.13 124.225 369.927L95.9335 277.43C95.8085 277.018 95.8515 276.573 96.0535 276.194C96.2559 275.814 96.6003 275.529 97.0115 275.403L160.708 255.932C161.12 255.807 161.563 255.85 161.943 256.052C162.323 256.254 162.608 256.598 162.734 257.009L191.025 349.507C191.087 349.71 191.109 349.924 191.088 350.136C191.068 350.348 191.006 350.554 190.906 350.743C190.703 351.122 190.359 351.407 189.948 351.534L126.252 371.005Z"/><path fill="#66C2E2" d="M160.513 258.742L188.214 349.312L126.445 368.194L98.7446 277.624L160.513 258.742ZM159.938 253.416L96.2416 272.887C93.9946 273.574 92.7306 275.951 93.4176 278.198L121.708 370.696C122.395 372.942 124.773 374.207 127.021 373.52L190.716 354.049C192.963 353.362 194.228 350.984 193.541 348.737L165.25 256.239C164.563 253.993 162.185 252.729 159.938 253.416Z"/><path fill="#414042" d="M160.707 255.931C161.119 255.806 161.563 255.849 161.944 256.051C162.132 256.15 162.298 256.287 162.434 256.451C162.57 256.615 162.671 256.805 162.734 257.009L191.025 349.506C191.149 349.918 191.106 350.362 190.905 350.743C190.703 351.123 190.358 351.407 189.947 351.533L126.251 371.004C126.047 371.066 125.833 371.088 125.621 371.067C125.409 371.047 125.203 370.985 125.015 370.885C124.635 370.683 124.35 370.338 124.224 369.927L95.9336 277.429C95.8086 277.017 95.8516 276.573 96.0536 276.193C96.256 275.813 96.6003 275.528 97.0116 275.402L160.707 255.931ZM159.938 253.416L96.2416 272.887C93.9946 273.574 92.7306 275.951 93.4176 278.198L121.708 370.696C122.395 372.942 124.773 374.207 127.021 373.52L190.716 354.049C192.963 353.362 194.228 350.984 193.541 348.737L165.25 256.239C164.563 253.993 162.185 252.729 159.938 253.416Z"/><path fill="url(#paint7_linear_930_3119)" d="M149.446 335.588C148.43 335.899 147.358 335.94 146.345 335.707C144.152 335.202 142.456 333.633 141.806 331.511C141.156 329.389 141.686 327.139 143.221 325.495C143.93 324.735 144.842 324.169 145.859 323.859C146.876 323.549 147.947 323.507 148.96 323.74C151.153 324.245 152.849 325.814 153.499 327.937C154.149 330.06 153.619 332.308 152.084 333.952C151.375 334.712 150.463 335.277 149.446 335.588Z"/><path fill="#223948" d="M146.054 324.487C146.942 324.216 147.898 324.169 148.816 324.381C149.763 324.591 150.638 325.049 151.35 325.707C152.063 326.366 152.588 327.201 152.871 328.129C153.155 329.057 153.187 330.043 152.965 330.987C152.743 331.931 152.274 332.8 151.606 333.503C150.963 334.191 150.145 334.687 149.257 334.959C148.369 335.231 147.413 335.277 146.495 335.065C145.548 334.856 144.674 334.398 143.961 333.74C143.249 333.081 142.724 332.246 142.44 331.318C142.157 330.39 142.124 329.404 142.347 328.46C142.569 327.516 143.038 326.647 143.705 325.944C144.348 325.256 145.166 324.759 146.054 324.487ZM145.669 323.229C144.542 323.574 143.531 324.202 142.743 325.046C141.046 326.864 140.461 329.353 141.18 331.703C141.899 334.053 143.776 335.789 146.201 336.347C147.325 336.606 148.515 336.561 149.642 336.217C150.76 335.879 151.768 335.253 152.567 334.401C154.265 332.583 154.849 330.094 154.13 327.744C153.411 325.394 151.535 323.657 149.11 323.099C147.986 322.84 146.796 322.885 145.669 323.229Z"/><path fill="url(#paint8_linear_930_3119)" d="M140.013 319.328C139.908 319.359 139.797 319.37 139.688 319.359C139.579 319.348 139.473 319.315 139.377 319.263C139.28 319.211 139.195 319.139 139.127 319.054C139.058 318.968 139.007 318.869 138.977 318.764C137.891 314.91 139.567 310.516 141.498 307.688C143.832 304.272 144.86 301.039 144.248 299.039C143.22 295.676 139.951 296.127 138.094 296.694C134.941 297.658 133.249 299.935 132.923 303.656C132.909 303.819 132.847 303.973 132.744 304.1C132.641 304.227 132.504 304.321 132.347 304.369C132.211 304.41 132.067 304.415 131.928 304.383L123.702 302.49C123.508 302.445 123.336 302.331 123.219 302.169C123.102 302.007 123.048 301.808 123.066 301.61C123.706 294.705 128.352 289.278 135.494 287.094C139.268 285.941 142.998 286.049 146.583 287.415C150.168 288.781 152.603 291.484 153.813 295.44C155.482 300.896 152.973 305.334 150.958 308.899C149.475 311.522 148.195 313.786 148.745 315.835C148.801 316.038 148.775 316.255 148.674 316.44C148.572 316.625 148.403 316.763 148.201 316.825L140.013 319.328Z"/><path fill="#223948" d="M135.684 287.723C139.377 286.594 142.917 286.722 146.346 288.03C149.775 289.338 152.034 291.878 153.182 295.632C155.962 304.721 146.663 310.628 148.108 316.006C148.119 316.044 148.115 316.086 148.096 316.122C148.077 316.158 148.045 316.184 148.006 316.196L139.818 318.699C139.775 318.712 139.729 318.707 139.689 318.686C139.65 318.665 139.62 318.629 139.607 318.586C138.593 314.988 140.208 310.74 142.039 308.058C143.899 305.336 145.703 301.554 144.875 298.846C143.99 295.953 141.408 294.992 137.899 296.065C134.505 297.103 132.613 299.639 132.265 303.598C132.263 303.63 132.25 303.66 132.23 303.686C132.21 303.712 132.183 303.73 132.153 303.739C132.123 303.748 132.1 303.748 132.074 303.742L123.847 301.849C123.808 301.84 123.773 301.817 123.75 301.784C123.726 301.752 123.715 301.712 123.719 301.672C124.352 294.837 129.083 289.741 135.684 287.723ZM135.3 286.465C131.768 287.545 128.716 289.467 126.474 292.024C124.146 294.679 122.74 297.974 122.409 301.55C122.34 302.284 122.831 302.965 123.553 303.131L131.779 305.024C131.984 305.071 132.197 305.073 132.403 305.031C132.609 304.989 132.804 304.903 132.975 304.779C133.145 304.656 133.287 304.497 133.39 304.313C133.494 304.13 133.557 303.927 133.575 303.717C133.876 300.29 135.416 298.199 138.284 297.323C140.265 296.717 142.799 296.556 143.617 299.23C144.171 301.041 143.175 304.064 140.952 307.316C138.938 310.267 137.194 314.871 138.341 318.942C138.395 319.132 138.486 319.309 138.609 319.463C138.732 319.617 138.885 319.745 139.057 319.839C139.229 319.933 139.422 319.993 139.618 320.013C139.814 320.033 140.013 320.014 140.202 319.957L148.39 317.454C148.755 317.343 149.063 317.094 149.247 316.761C149.431 316.428 149.479 316.034 149.379 315.667C148.897 313.875 150.116 311.719 151.528 309.222C153.606 305.547 156.191 300.974 154.44 295.247C153.167 291.087 150.601 288.245 146.815 286.8C143.09 285.381 139.216 285.268 135.3 286.465Z"/><path fill="url(#paint9_radial_930_3119)" d="M184.349 371.005C183.938 371.13 183.493 371.087 183.113 370.885C182.733 370.683 182.449 370.339 182.322 369.927L154.032 277.43C153.907 277.018 153.95 276.573 154.152 276.194C154.354 275.815 154.698 275.53 155.11 275.403L218.806 255.932C219.217 255.807 219.662 255.85 220.042 256.052C220.422 256.254 220.706 256.598 220.833 257.009L249.123 349.507C249.248 349.919 249.205 350.364 249.003 350.743C248.801 351.122 248.457 351.408 248.045 351.534L184.349 371.005Z"/><path fill="url(#paint10_radial_930_3119)" d="M184.349 371.005C183.938 371.13 183.493 371.087 183.113 370.885C182.733 370.683 182.449 370.339 182.322 369.927L154.032 277.43C153.907 277.018 153.95 276.573 154.152 276.194C154.354 275.815 154.698 275.53 155.11 275.403L218.806 255.932C219.217 255.807 219.662 255.85 220.042 256.052C220.422 256.254 220.706 256.598 220.833 257.009L249.123 349.507C249.248 349.919 249.205 350.364 249.003 350.743C248.801 351.122 248.457 351.408 248.045 351.534L184.349 371.005Z"/><path fill="#66C2E2" d="M218.611 258.742L246.312 349.312L184.543 368.194L156.842 277.624L218.611 258.742ZM218.036 253.415L154.34 272.887C152.092 273.574 150.828 275.951 151.515 278.198L179.806 370.696C180.493 372.942 182.871 374.207 185.118 373.52L248.814 354.049C251.061 353.362 252.325 350.984 251.638 348.737L223.348 256.239C222.661 253.993 220.282 252.729 218.036 253.415Z"/><path fill="#414042" d="M218.805 255.931C219.217 255.806 219.661 255.849 220.041 256.051C220.421 256.253 220.706 256.597 220.832 257.009L249.122 349.506C249.248 349.918 249.205 350.363 249.003 350.743C248.801 351.123 248.456 351.407 248.045 351.533L184.349 371.004C183.937 371.13 183.492 371.087 183.112 370.885C182.732 370.683 182.448 370.338 182.322 369.927L154.031 277.429C153.906 277.017 153.949 276.573 154.151 276.193C154.354 275.813 154.698 275.529 155.109 275.402L218.805 255.931ZM218.036 253.415L154.34 272.887C152.092 273.574 150.828 275.951 151.515 278.198L179.806 370.696C180.493 372.942 182.871 374.207 185.118 373.52L248.814 354.049C251.061 353.362 252.325 350.984 251.638 348.737L223.348 256.239C222.661 253.993 220.282 252.729 218.036 253.415Z"/><path fill="url(#paint11_linear_930_3119)" d="M207.549 335.589C206.543 335.899 205.474 335.94 204.448 335.708C202.255 335.203 200.558 333.634 199.909 331.512C199.26 329.39 199.789 327.14 201.324 325.496C202.044 324.729 202.953 324.164 203.961 323.86C204.978 323.549 206.05 323.508 207.063 323.741C209.255 324.246 210.952 325.815 211.601 327.938C212.25 330.061 211.722 332.309 210.187 333.953C209.478 334.713 208.565 335.278 207.549 335.589Z"/><path fill="#223948" d="M204.152 324.487C205.047 324.211 205.999 324.174 206.913 324.381C207.86 324.591 208.735 325.049 209.447 325.707C210.16 326.365 210.685 327.201 210.969 328.129C211.253 329.056 211.285 330.043 211.063 330.987C210.841 331.931 210.372 332.8 209.704 333.503C209.061 334.192 208.242 334.687 207.355 334.959C206.468 335.231 205.511 335.277 204.593 335.066C203.646 334.857 202.771 334.399 202.059 333.741C201.346 333.082 200.821 332.246 200.537 331.319C200.254 330.391 200.221 329.404 200.444 328.46C200.666 327.516 201.135 326.647 201.803 325.944C202.445 325.261 203.255 324.759 204.152 324.487ZM203.767 323.229C202.64 323.574 201.629 324.202 200.841 325.046C199.143 326.864 198.559 329.353 199.278 331.703C199.997 334.053 201.874 335.789 204.298 336.347C205.423 336.606 206.613 336.561 207.739 336.217C208.865 335.873 209.878 335.245 210.665 334.401C212.363 332.583 212.947 330.094 212.228 327.744C211.509 325.394 209.632 323.657 207.208 323.099C206.083 322.84 204.893 322.885 203.767 323.229Z"/><path fill="url(#paint12_linear_930_3119)" d="M198.11 319.328C198.005 319.36 197.895 319.371 197.785 319.36C197.676 319.349 197.57 319.316 197.473 319.263C197.376 319.21 197.292 319.14 197.223 319.054C197.154 318.968 197.104 318.87 197.074 318.764C195.988 314.911 197.664 310.516 199.595 307.688C201.929 304.272 202.957 301.039 202.345 299.039C201.316 295.676 198.048 296.127 196.191 296.694C193.038 297.658 191.346 299.935 191.02 303.656C191.006 303.819 190.944 303.973 190.841 304.1C190.739 304.227 190.601 304.321 190.444 304.369C190.308 304.41 190.164 304.415 190.025 304.383L181.799 302.49C181.604 302.445 181.433 302.331 181.316 302.169C181.2 302.007 181.146 301.808 181.163 301.61C181.802 294.705 186.448 289.278 193.591 287.094C197.364 285.941 201.095 286.049 204.68 287.415C208.265 288.781 210.7 291.484 211.91 295.44C213.579 300.896 211.07 305.334 209.054 308.899C207.572 311.522 206.291 313.786 206.842 315.835C206.898 316.038 206.873 316.256 206.77 316.441C206.669 316.626 206.499 316.764 206.297 316.825L198.11 319.328Z"/><path fill="#223948" d="M193.786 287.723C197.478 286.594 201.019 286.722 204.448 288.03C207.877 289.338 210.135 291.878 211.284 295.632C214.064 304.721 204.765 310.628 206.21 316.006C206.221 316.044 206.217 316.086 206.198 316.122C206.179 316.158 206.146 316.184 206.108 316.196L197.92 318.699C197.877 318.712 197.83 318.707 197.791 318.686C197.751 318.665 197.722 318.629 197.709 318.586C196.695 314.988 198.309 310.74 200.14 308.058C202.001 305.336 203.805 301.554 202.977 298.846C202.092 295.953 199.51 294.992 196.001 296.065C192.607 297.103 190.714 299.639 190.367 303.598C190.363 303.63 190.351 303.661 190.332 303.686C190.312 303.711 190.285 303.73 190.254 303.739C190.229 303.747 190.201 303.748 190.175 303.742L181.949 301.849C181.91 301.84 181.875 301.817 181.852 301.784C181.828 301.752 181.816 301.712 181.821 301.672C182.453 294.837 187.185 289.741 193.786 287.723ZM193.401 286.465C189.869 287.545 186.817 289.467 184.576 292.024C182.247 294.679 180.842 297.974 180.511 301.55C180.441 302.284 180.933 302.965 181.655 303.131L189.88 305.024C190.085 305.071 190.298 305.073 190.505 305.031C190.711 304.989 190.906 304.903 191.076 304.779C191.246 304.655 191.388 304.497 191.492 304.313C191.595 304.13 191.659 303.927 191.677 303.717C191.977 300.29 193.518 298.199 196.386 297.323C198.367 296.717 200.9 296.556 201.718 299.23C202.272 301.041 201.277 304.064 199.054 307.316C197.039 310.267 195.295 314.871 196.443 318.942C196.497 319.132 196.588 319.309 196.711 319.463C196.834 319.617 196.986 319.745 197.159 319.839C197.332 319.934 197.523 319.993 197.72 320.013C197.916 320.033 198.114 320.014 198.304 319.957L206.492 317.454C206.856 317.343 207.164 317.095 207.349 316.761C207.533 316.427 207.581 316.034 207.48 315.667C206.999 313.875 208.218 311.719 209.63 309.222C211.707 305.547 214.293 300.974 212.541 295.247C211.269 291.087 208.703 288.245 204.917 286.8C201.192 285.381 197.317 285.268 193.401 286.465Z"/><path fill="url(#paint13_linear_930_3119)" d="M128.559 203C128.557 205.85 126.245 208.171 123.402 208.171H114.916V232.853C114.915 234.047 114.44 235.191 113.596 236.035C112.752 236.879 111.607 237.354 110.414 237.355H86.814C85.62 237.354 84.476 236.879 83.632 236.035C82.788 235.191 82.313 234.047 82.312 232.853V208.171H73.826C72.4567 208.168 71.1446 207.622 70.1776 206.652C69.2106 205.683 68.6677 204.369 68.668 203C68.668 201.758 69.109 200.594 69.944 199.638L94.732 171.218C95.2158 170.664 95.8125 170.221 96.482 169.917C97.151 169.613 97.878 169.455 98.614 169.455C99.3491 169.455 100.076 169.613 100.745 169.917C101.415 170.221 102.011 170.664 102.495 171.218L127.284 199.638C128.107 200.564 128.56 201.761 128.559 203Z"/><path fill="#4F0C16" d="M69.5153 203.061C69.5153 202.18 69.8163 201.281 70.4853 200.514L95.2733 172.096C95.6397 171.676 96.0923 171.338 96.6003 171.107C97.1083 170.876 97.66 170.757 98.2183 170.756C98.7763 170.756 99.3283 170.876 99.8353 171.107C100.342 171.338 100.795 171.675 101.162 172.096L125.95 200.517C126.574 201.218 126.919 202.124 126.92 203.062C126.92 205.079 125.34 206.992 123.005 206.992H113.277V232.914C113.277 233.779 112.934 234.608 112.322 235.219C111.711 235.831 110.882 236.174 110.017 236.174H86.4193C85.9911 236.175 85.567 236.09 85.1714 235.927C84.7758 235.763 84.4163 235.523 84.1134 235.22C83.8106 234.917 83.5704 234.558 83.4065 234.162C83.2426 233.767 83.1582 233.343 83.1582 232.914V206.99H73.4293C71.0943 206.99 69.5153 205.076 69.5153 203.061ZM67.0312 203.061C67.0312 206.596 69.9033 209.474 73.4293 209.474H80.6742V232.914C80.6758 234.437 81.2814 235.897 82.3583 236.974C83.4353 238.05 84.8953 238.656 86.4183 238.658H110.017C111.54 238.656 113 238.05 114.077 236.974C115.154 235.898 115.76 234.437 115.762 232.914V209.474H123.005C126.534 209.474 129.405 206.597 129.405 203.061C129.399 201.523 128.837 200.039 127.822 198.883L103.034 170.464C102.434 169.776 101.694 169.225 100.863 168.848C100.032 168.471 99.1303 168.275 98.2183 168.275C97.3063 168.275 96.4032 168.47 95.5732 168.848C94.7423 169.226 94.002 169.777 93.4023 170.464L68.6123 198.883C67.5982 200.04 67.0366 201.524 67.0312 203.061Z"/><path fill="url(#paint14_linear_930_3119)" d="M217.558 203.81C217.556 200.96 215.244 198.638 212.401 198.638H203.915V173.956C203.914 172.763 203.439 171.618 202.595 170.775C201.751 169.932 200.606 169.456 199.413 169.455H175.813C174.619 169.456 173.475 169.931 172.631 170.775C171.787 171.619 171.312 172.763 171.311 173.956V198.638H162.825C161.455 198.642 160.143 199.188 159.176 200.158C158.21 201.128 157.667 202.441 157.668 203.81C157.668 205.052 158.108 206.215 158.943 207.171L183.731 235.592C184.215 236.145 184.812 236.589 185.481 236.893C186.151 237.197 186.878 237.354 187.613 237.354C188.348 237.354 189.075 237.197 189.744 236.893C190.413 236.589 191.01 236.145 191.494 235.592L216.282 207.171C217.105 206.245 217.559 205.049 217.558 203.81Z"/><path fill="url(#paint15_linear_930_3119)" d="M217.558 203.81C217.556 200.96 215.244 198.638 212.401 198.638H203.915V173.956C203.914 172.763 203.439 171.618 202.595 170.775C201.751 169.932 200.606 169.456 199.413 169.455H175.813C174.619 169.456 173.475 169.931 172.631 170.775C171.787 171.619 171.312 172.763 171.311 173.956V198.638H162.825C161.455 198.642 160.143 199.188 159.176 200.158C158.21 201.128 157.667 202.441 157.668 203.81C157.668 205.052 158.108 206.215 158.943 207.171L183.731 235.592C184.215 236.145 184.812 236.589 185.481 236.893C186.151 237.197 186.878 237.354 187.613 237.354C188.348 237.354 189.075 237.197 189.744 236.893C190.413 236.589 191.01 236.145 191.494 235.592L216.282 207.171C217.105 206.245 217.559 205.049 217.558 203.81Z"/><path fill="#162F0D" d="M158.515 203.872C158.515 204.752 158.816 205.651 159.485 206.419L184.273 234.837C184.64 235.257 185.092 235.595 185.6 235.826C186.108 236.057 186.66 236.177 187.218 236.177C187.776 236.177 188.328 236.057 188.836 235.826C189.344 235.595 189.796 235.257 190.163 234.837L214.951 206.415C215.575 205.715 215.92 204.81 215.921 203.871C215.921 201.854 214.341 199.94 212.006 199.94H202.278V174.018C202.278 173.154 201.934 172.325 201.323 171.714C200.712 171.103 199.883 170.759 199.018 170.759H175.418C174.554 170.759 173.725 171.103 173.113 171.714C172.502 172.325 172.159 173.154 172.158 174.018V199.943H162.429C160.094 199.943 158.515 201.856 158.515 203.872ZM156.031 203.872C156.031 200.336 158.902 197.459 162.429 197.459H169.674V174.018C169.675 172.496 170.281 171.036 171.358 169.959C172.435 168.882 173.895 168.276 175.418 168.275H199.018C200.541 168.276 202.001 168.882 203.078 169.959C204.155 171.036 204.761 172.496 204.763 174.018V197.459H212.006C215.535 197.459 218.406 200.335 218.406 203.872C218.4 205.41 217.838 206.894 216.823 208.049L192.035 236.468C191.435 237.156 190.695 237.708 189.864 238.085C189.033 238.462 188.131 238.658 187.218 238.658C186.306 238.658 185.404 238.463 184.573 238.085C183.742 237.707 183.001 237.156 182.401 236.468L157.612 208.049C156.598 206.893 156.036 205.41 156.031 203.872Z"/><path fill="url(#paint16_radial_930_3119)" d="M65.7388 150.946C65.3058 151.078 64.8378 151.033 64.4388 150.82C64.0398 150.607 63.7398 150.246 63.6068 149.813L33.8748 52.5611C33.7431 52.1282 33.7884 51.6607 34.0008 51.2611C34.2138 50.8611 34.5758 50.5621 35.0088 50.4301L102.009 29.9451C102.442 29.8134 102.909 29.8587 103.309 30.0711C103.507 30.1759 103.682 30.3188 103.825 30.4916C103.967 30.6644 104.074 30.8637 104.14 31.0781L133.873 128.331C134.004 128.764 133.959 129.231 133.746 129.631C133.533 130.03 133.171 130.329 132.739 130.462L65.7388 150.946Z"/><path fill="#58C566" d="M101.804 32.9005L130.917 128.127L65.9436 147.991L36.8306 52.7654L101.804 32.9005ZM101.2 27.3005L34.1996 47.7845C31.8366 48.5075 30.5056 51.0085 31.2276 53.3705L60.9606 150.623C61.6826 152.985 64.1836 154.314 66.5476 153.591L133.548 133.107C135.911 132.384 137.242 129.884 136.519 127.521L106.787 30.2695C106.065 27.9075 103.564 26.5775 101.2 27.3005Z"/><path fill="#414042" d="M102.009 29.9455C102.442 29.8138 102.909 29.8591 103.309 30.0715C103.709 30.2835 104.008 30.6455 104.141 31.0785L133.873 128.331C134.004 128.764 133.958 129.232 133.746 129.631C133.533 130.031 133.171 130.33 132.739 130.462L65.7386 150.946C65.3057 151.078 64.8382 151.033 64.4385 150.821C64.0389 150.608 63.7397 150.246 63.6066 149.813L33.8746 52.5615C33.743 52.1285 33.7883 51.661 34.0006 51.2615C34.2136 50.8615 34.5756 50.5625 35.0086 50.4305L102.009 29.9455ZM101.2 27.3005L34.1996 47.7845C31.8366 48.5075 30.5056 51.0085 31.2276 53.3705L60.9606 150.623C61.6826 152.985 64.1836 154.314 66.5476 153.591L133.548 133.107C135.911 132.384 137.242 129.884 136.519 127.521L106.787 30.2695C106.065 27.9075 103.564 26.5775 101.2 27.3005Z"/><path stroke="#E5E5E5" stroke-miterlimit="10" d="M37.875 53.3136L101.127 33.9746L129.755 127.615L66.503 146.953L37.875 53.3136Z"/><path fill="#E5DCC7" d="M69.247 70.4045L96.327 62.3945C96.327 62.3945 99.994 61.2725 101.274 63.1905C102.754 65.4085 101.43 66.8675 101.43 66.8675L94.504 69.1595C94.504 69.1595 94.271 74.4205 99.969 84.5585C102.425 88.9275 103.587 96.5515 102.914 100.714C102.027 106.211 98.647 107.967 98.647 107.967C98.647 107.967 97.596 108.913 94.29 109.402C90.984 109.891 68.228 113.84 68.228 113.84C68.228 113.84 62.878 114.426 63.894 108.002C64.573 103.71 69.425 103.142 69.425 103.142L72.056 102.492C72.056 102.492 71.507 96.0065 68.763 90.9465C66.316 86.4375 60.635 76.5105 69.247 70.4045Z"/><path stroke="#605745" stroke-miterlimit="10" d="M69.247 70.4045L96.327 62.3945C96.327 62.3945 99.994 61.2725 101.274 63.1905C102.754 65.4085 101.43 66.8675 101.43 66.8675L94.504 69.1595C94.504 69.1595 94.271 74.4205 99.969 84.5585C102.425 88.9275 103.587 96.5515 102.914 100.714C102.027 106.211 98.647 107.967 98.647 107.967C98.647 107.967 97.596 108.913 94.29 109.402C90.984 109.891 68.228 113.84 68.228 113.84C68.228 113.84 62.878 114.426 63.894 108.002C64.573 103.71 69.425 103.142 69.425 103.142L72.056 102.492C72.056 102.492 71.507 96.0065 68.763 90.9465C66.316 86.4375 60.635 76.5105 69.247 70.4045V70.4045Z"/><path fill="#E5DCC7" d="M68.9756 103.738L95.6316 97.7021C95.6316 97.7021 91.0706 99.2841 90.8356 103.008C90.6256 106.332 93.1216 107.331 93.1216 107.331L65.2576 112.303C65.2576 112.303 63.6677 111.01 64.5457 107.472C65.3767 104.126 68.9386 103.963 68.9756 103.738Z"/><path fill="#A09680" d="M72.6818 102.834L96.8738 97.9496C96.8738 97.9496 96.5218 97.7356 95.6408 97.6736C95.0478 97.7666 72.6688 102.344 72.6688 102.344L72.6818 102.834ZM93.8368 68.7576C93.8368 68.7576 94.0788 63.5346 96.5848 62.8626C97.8018 62.5366 99.8778 62.0676 101.017 63.7756C101.918 65.1266 101.218 66.4176 101.218 66.4176L93.8368 68.7576ZM65.2578 112.303L93.1218 107.331C93.1218 107.331 94.1028 107.957 95.1908 107.952C96.8098 107.944 98.1028 107.72 98.1028 107.72C98.1028 107.72 97.0148 108.631 92.7898 109.2C88.5648 109.769 67.7938 113.439 67.7938 113.439C67.7938 113.439 65.6508 113.269 65.2578 112.303Z"/><path fill="#A09680" d="M91.0159 104.489L99.2868 102.756C99.2868 102.756 98.5728 97.041 95.4608 97.832C92.3488 98.623 90.4699 101.614 91.0159 104.489Z"/><path fill="#A09680" d="M93.1206 107.33C93.1206 107.33 92.5566 107.237 91.8196 106.218C91.0826 105.199 91.0156 104.487 91.0156 104.487L92.0556 104.193C92.0556 104.193 93.3416 106.825 95.2336 106.975C96.1406 107.048 97.4786 107.232 98.8086 106.054C100.717 104.365 101.803 101.445 101.823 98.9573C101.513 93.8113 101.534 93.2513 100.696 90.1533C99.6036 86.1153 92.5636 75.1313 93.1076 68.4293C93.4986 63.6263 95.8046 63.2363 95.8046 63.2363C95.8046 63.2363 91.6636 67.1913 95.7796 77.2573C95.7796 77.2573 97.8156 82.3843 98.9816 84.1923C99.8486 85.5383 102.513 90.8933 102.483 98.1283C102.45 105.94 98.1896 107.648 98.1896 107.648C96.2736 108.191 95.3586 108.642 93.1206 107.33Z"/><path fill="#9E7B44" d="M143.805 99.7803C143.805 99.7803 151 104.344 152.738 107.13C153.807 108.846 153.403 94.0703 153.403 94.0703L143.805 99.7803Z"/><path fill="url(#paint17_radial_930_3119)" d="M192.689 128.266C192.754 128.48 192.777 128.706 192.756 128.929C192.734 129.152 192.669 129.368 192.564 129.566C192.458 129.764 192.315 129.94 192.142 130.082C191.969 130.224 191.77 130.332 191.555 130.397L124.423 150.922C124.208 150.988 123.983 151.011 123.76 150.989C123.537 150.968 123.32 150.902 123.122 150.797C122.924 150.692 122.748 150.549 122.606 150.376C122.463 150.203 122.356 150.003 122.291 149.789L92.5587 52.5368C92.4267 52.1038 92.4717 51.6358 92.6837 51.2368C92.8957 50.8378 93.2587 50.5378 93.6927 50.4058L160.825 29.8808C161.039 29.8149 161.264 29.792 161.487 29.8135C161.71 29.8349 161.927 29.9003 162.125 30.0058C162.525 30.2178 162.824 30.5808 162.956 31.0138L192.689 128.266Z"/><path fill="#E1EF74" d="M160.356 32.9169L189.469 128.143L124.629 147.967L95.5158 52.7409L160.356 32.9169ZM159.868 27.2809L92.8678 47.7659C90.5038 48.4879 89.1908 50.9839 89.9128 53.3459L119.645 150.599C119.815 151.16 120.094 151.683 120.466 152.136C120.838 152.589 121.296 152.965 121.813 153.241C122.33 153.518 122.897 153.689 123.481 153.746C124.065 153.803 124.654 153.744 125.215 153.573L192.215 133.088C194.578 132.366 195.793 129.901 195.071 127.538L165.338 30.2849C164.616 27.9229 162.172 26.5759 159.809 27.2989L159.868 27.2809Z"/><path fill="#414042" d="M160.584 29.9549C161.484 29.6799 162.418 30.1949 162.693 31.0939L192.425 128.347C192.7 129.247 192.308 130.168 191.408 130.443L124.407 150.927C123.507 151.203 122.567 150.689 122.292 149.79L92.5598 52.5369C92.2848 51.6369 92.7768 50.6859 93.6768 50.4109L160.606 29.9479L160.584 29.9549ZM159.868 27.2809L92.8678 47.7659C90.5038 48.4879 89.1908 50.9839 89.9128 53.3459L119.645 150.599C119.815 151.16 120.094 151.683 120.466 152.136C120.838 152.589 121.296 152.965 121.813 153.241C122.33 153.518 122.897 153.689 123.481 153.746C124.065 153.803 124.654 153.744 125.215 153.573L192.215 133.088C194.578 132.366 195.793 129.901 195.071 127.538L165.338 30.2849C164.616 27.9229 162.172 26.5759 159.809 27.2989L159.868 27.2809Z"/><path stroke="#E5E5E5" stroke-miterlimit="10" d="M96.5557 53.2921L159.808 33.9531L188.436 127.592L125.183 146.931L96.5557 53.2921Z"/><path fill="#F2DE9C" d="M144.678 112.299C141.311 113.328 138.02 114.045 136.939 114.166C135.267 114.354 131.699 113.892 129.24 111.853C127.725 110.597 126.883 108.963 126.737 106.994C126.712 106.693 126.713 106.391 126.739 106.091L126.87 72.725C126.87 72.5926 126.909 72.4631 126.981 72.352C127.079 72.201 129.415 68.638 132.989 66.821C134.295 66.157 135.38 65.697 136.308 65.413C137.654 65.001 138.714 64.93 139.964 65.166C141.356 65.429 142.963 65.287 144.743 64.743L145.133 64.618L145.421 64.525C147.532 63.88 152.637 62.939 153.81 63.329C154.655 63.611 154.642 64.492 154.628 65.425C154.61 66.665 154.579 68.742 155.825 71.723C157.605 75.98 157.546 80.354 157.52 82.221V82.88C157.556 82.983 157.692 83.302 157.824 83.612C158.582 85.396 160.16 89.108 160.209 91.647C160.267 94.581 160.784 96.93 160.789 96.953C160.81 97.043 160.811 97.136 160.795 97.227C160.778 97.3175 160.744 97.4039 160.694 97.481C160.644 97.5583 160.578 97.6247 160.502 97.676C160.426 97.728 160.34 97.764 160.249 97.782C158.225 98.1815 156.197 98.5629 154.167 98.926C154.2 106.001 153.849 107.023 153.694 107.37C153.625 107.578 153.529 107.776 153.408 107.96C152.486 109.35 149.548 110.81 144.676 112.299H144.678Z"/><path fill="#77491B" d="M136.51 66.0754C137.916 65.6454 138.869 65.6644 139.836 65.8464C141.294 66.1224 143.022 65.9934 144.945 65.4044L145.352 65.2744L145.623 65.1884C147.86 64.5044 152.702 63.6904 153.592 63.9864C154.519 64.2964 153.043 66.8594 155.188 71.9914C157.333 77.1234 156.719 82.5384 156.845 83.0324C156.971 83.5264 159.459 88.6214 159.518 91.6614C159.577 94.7014 160.115 97.1044 160.115 97.1044L153.473 98.3484C153.499 101.811 153.449 106.251 153.05 107.118C152.999 107.281 152.926 107.436 152.833 107.578C151.864 109.037 148.129 110.521 144.475 111.638C141.168 112.649 137.927 113.36 136.861 113.48C134.642 113.729 127.848 112.64 127.426 106.944C127.403 106.671 127.404 106.398 127.43 106.126L127.561 72.7284C127.561 72.7284 129.852 69.1924 133.302 67.4384C134.614 66.7714 135.647 66.3394 136.51 66.0754ZM136.106 64.7524C135.14 65.0484 134.018 65.5234 132.676 66.2054C128.937 68.1064 126.502 71.8194 126.401 71.9764C126.257 72.199 126.18 72.4582 126.178 72.7234L126.047 106.06C126.021 106.39 126.021 106.721 126.047 107.05C126.205 109.178 127.156 111.025 128.797 112.387C131.421 114.562 135.23 115.055 137.015 114.854C138.286 114.712 141.654 113.947 144.879 112.961C152.458 110.644 153.608 108.912 153.986 108.342C154.134 108.119 154.252 107.878 154.339 107.624C154.535 107.18 154.874 106.083 154.862 99.5044L160.385 98.4614C160.566 98.4252 160.737 98.3535 160.89 98.2504C161.043 98.1466 161.173 98.0137 161.274 97.8594C161.374 97.7044 161.443 97.5314 161.476 97.3504C161.509 97.1691 161.505 96.983 161.464 96.8034C161.459 96.7814 160.956 94.4824 160.9 91.6334C160.848 88.9614 159.236 85.1664 158.461 83.3424L158.209 82.7404C158.209 82.5707 158.21 82.401 158.213 82.2314C158.239 80.3204 158.299 75.8464 156.464 71.4574C155.273 68.6084 155.302 66.6984 155.32 65.4354C155.334 64.4564 155.354 63.1164 154.03 62.6744C152.51 62.1684 146.825 63.3734 145.218 63.8654L144.912 63.9624L144.54 64.0824C142.893 64.5854 141.355 64.7264 140.092 64.4874C138.74 64.2324 137.549 64.3114 136.106 64.7524Z"/><path fill="#BC995B" d="M127.426 106.943C127.19 103.77 129.571 102.895 136.314 101.014C143.057 99.1327 143.687 99.3167 145.723 99.6007C147.759 99.8847 154.68 104.798 152.833 107.577C150.986 110.356 139.104 113.227 136.861 113.479C134.642 113.729 127.848 112.639 127.426 106.943Z"/><path fill="#9E7B44" d="M141.879 99.6891L142.165 99.6301L142.795 99.4951L141.205 99.7701L141.488 99.7391L141.879 99.6891ZM137.926 112.555C134.69 113.187 131.726 112.038 128.738 110.36C130.921 113.092 135.189 113.667 136.861 113.479C138.974 113.242 149.642 110.68 152.412 108.06C148.417 110.287 143.831 111.4 137.926 112.555Z"/><path fill="#F2DE9C" d="M127.395 106.923L127.53 72.7077C127.53 72.7077 129.821 69.1717 133.271 67.4177C136.721 65.6637 138.244 65.5317 139.805 65.8257C141.366 66.1197 143.234 65.9527 145.321 65.2537C147.408 64.5547 152.633 63.6577 153.56 63.9657C154.487 64.2737 153.011 66.8397 155.156 71.9707C157.301 77.1017 156.687 82.5177 156.813 83.0117C156.939 83.5057 159.428 88.6007 159.486 91.6407C159.544 94.6807 160.083 97.0837 160.083 97.0837C160.083 97.0837 145.8 99.9367 140.735 100.057C137.701 100.129 129.016 102.974 127.395 106.923Z"/><path fill="#BC995B" d="M143.235 80.5622C144.171 86.2012 146.08 98.0942 146.083 99.5482C146.332 99.5282 151.696 98.6862 152.384 98.5772C152.392 98.4922 147.837 97.2482 145.198 86.8442C144.941 85.8352 143.823 82.6072 143.235 80.5622ZM153.592 63.9842C152.664 63.6762 147.441 64.5732 145.353 65.2722C143.265 65.9712 141.397 66.1392 139.837 65.8442L139.641 65.8102C139.702 65.9212 141.925 71.0322 142.894 74.1662C143.912 76.9112 146.528 83.7732 147.064 84.3132C146.637 81.9012 144.576 77.0572 143.815 71.6532C143.414 68.8032 142.058 66.7252 143.271 66.6242C144.45 66.1762 146.108 65.6002 147.249 65.4242C148.884 65.1732 151.751 64.0482 153.154 64.7732C153.256 64.8262 153.377 65.0552 153.682 67.1472C154.01 69.3922 154.783 71.6442 155.297 72.2692L155.187 71.9892C153.043 66.8572 154.519 64.2942 153.592 63.9842ZM156.124 82.6302C156.531 85.0752 158.227 86.8922 157.919 92.7182C157.82 94.5952 156.872 93.1882 155.303 88.6622C155.403 89.3022 156.095 92.6592 156.534 94.5092C157.025 95.5562 157.217 96.5952 157.297 97.6232L160.115 97.1022C160.115 97.1022 159.499 94.6782 159.518 91.6592C159.533 89.1262 157.369 84.3082 157.369 84.3082C157.369 84.3082 156.831 83.2152 156.838 82.7262C156.852 81.8522 156.876 79.7962 156.644 77.7902C156.354 80.6372 155.995 81.8582 156.124 82.6302Z" opacity=".5"/><path fill="#9E7B44" d="M130.093 109.888C130.093 109.888 132.963 111.939 136.686 111.813C140.409 111.687 147.601 109.416 150.004 108.283C152.407 107.15 138.347 113.222 130.093 109.888ZM128.871 108.02C128.871 108.02 129.852 103.889 136.935 101.976C146.091 99.5023 147.742 101.708 147.742 101.708C147.742 101.708 134.914 100.099 128.871 108.02ZM130.664 107.459C130.664 107.459 133.297 104.28 139.042 102.957C144.787 101.634 147.69 102.34 148.311 102.51C149.811 102.919 152.025 105.229 151.437 106.109C150.891 106.927 146.23 108.805 141.7 109.52C135.833 110.446 134.014 109.701 134.014 109.701C134.014 109.701 138.701 109.497 142.391 108.586C144.689 108.018 149.576 107.004 149.59 105.156C149.601 103.659 146.133 102.959 142.294 103.301C139.344 103.564 133.682 105.502 130.664 107.459ZM131.017 108.052C130.771 109.139 134.185 109.316 139.719 108.356C146.28 107.218 148.666 105.91 148.629 105.198C148.592 104.486 148.225 104.275 144.806 104.053C140.709 103.787 131.264 106.964 131.017 108.052ZM151.041 107.69C151.041 107.69 152.216 106.801 152.148 106.026C152.08 105.251 153.263 107.228 151.041 107.69Z"/><path fill="url(#paint18_radial_930_3119)" d="M251.506 128.267C251.638 128.7 251.593 129.168 251.379 129.568C251.165 129.968 250.801 130.267 250.367 130.4L182.998 150.997C182.783 151.063 182.557 151.086 182.334 151.065C182.11 151.043 181.892 150.978 181.694 150.873C181.496 150.768 181.32 150.625 181.177 150.452C181.034 150.28 180.926 150.08 180.861 149.866L151.129 52.6137C150.997 52.1807 151.042 51.7127 151.256 51.3127C151.47 50.9127 151.834 50.6137 152.268 50.4807L219.636 29.8837C220.071 29.7507 220.54 29.7957 220.941 30.0077C221.139 30.1124 221.315 30.2553 221.458 30.4281C221.6 30.6009 221.707 30.8003 221.773 31.0147L251.506 128.267Z"/><path fill="#B5D9E5" d="M219.163 32.9209L248.275 128.148L183.208 148.041L154.095 52.8149L219.163 32.9209ZM218.695 27.2789L151.46 47.8358C149.088 48.5608 147.751 51.0629 148.473 53.4259L178.206 150.678C178.928 153.041 181.436 154.368 183.808 153.643L251.043 133.086C253.415 132.361 254.619 129.899 253.897 127.537L224.164 30.2838C223.442 27.9218 221.001 26.5749 218.629 27.2999L218.695 27.2789Z"/><path fill="#414042" d="M219.394 29.9579C220.297 29.6819 221.234 30.1959 221.509 31.0959L251.241 128.349C251.516 129.249 251.138 130.165 250.234 130.441L182.999 150.997C182.565 151.13 182.095 151.085 181.695 150.873C181.497 150.768 181.321 150.625 181.178 150.453C181.035 150.28 180.928 150.08 180.862 149.866L151.129 52.6138C150.997 52.1808 151.043 51.7129 151.257 51.3129C151.472 50.9129 151.835 50.6138 152.269 50.4809L219.417 29.9509L219.395 29.9579H219.394ZM218.695 27.2789L151.46 47.8358C149.088 48.5608 147.751 51.0629 148.473 53.4259L178.206 150.678C178.928 153.041 181.436 154.368 183.808 153.643L251.043 133.086C253.415 132.361 254.619 129.899 253.897 127.537L224.164 30.2838C223.442 27.9218 221.001 26.5749 218.629 27.2999L218.695 27.2789Z"/><path stroke="#E5E5E5" stroke-miterlimit="10" d="M155.133 53.365L218.607 33.958L247.235 127.598L183.76 147.004L155.133 53.365Z"/><path fill="#C9C9C9" d="M198.206 110.4L196.779 110.765C195.775 110.973 194.753 111.082 193.727 111.09C193.665 111.108 193.601 111.118 193.537 111.119C193.499 111.12 192.606 111.131 191.299 110.916L191.195 110.899L190.863 110.838C189.951 110.67 189.057 110.417 188.193 110.084L187.649 109.864L187.619 109.85L187.398 109.754C185.132 108.728 183.161 107.263 182.611 106.838C179.424 104.45 177.312 100.9 176.673 96.8468C175.376 88.6128 180.364 80.5808 188.276 78.1618C188.745 78.0178 189.226 77.8948 189.707 77.7958C191.039 77.5178 192.401 77.4169 193.759 77.4958C194.025 77.4678 194.495 77.4868 195.66 77.7188L195.864 77.7628L195.996 77.7928C196.185 77.8338 196.352 77.8738 196.517 77.9148L196.879 78.0098L197.224 78.1108L197.515 78.1988C198.271 78.4415 199.01 78.7331 199.728 79.0718L199.929 78.9678C201.815 77.9118 203.863 77.0428 206.014 76.3848C208.571 75.6028 211.115 75.1668 213.573 75.0888C219.212 74.9078 223.342 76.6758 224.644 79.8208C224.962 80.3258 225.361 81.5738 225.482 81.9678C225.739 82.7978 226.119 84.2568 226.135 84.3178C226.151 84.3789 226.158 84.4418 226.157 84.5048C226.357 85.7038 226.16 86.9808 225.57 88.3038C225.761 88.9656 225.943 89.6296 226.116 90.2958C226.132 90.3578 226.139 90.4208 226.138 90.4828C226.371 91.8828 226.069 93.3758 225.239 94.9228C223.157 98.8008 218.011 102.387 211.809 104.284C209.781 104.904 207.745 105.309 205.753 105.489C203.707 107.819 201.103 109.514 198.206 110.4Z"/><path fill="#444" d="M188.48 78.8226L189.848 78.4726C191.142 78.2027 192.465 78.1076 193.783 78.1896C194.03 78.1486 194.584 78.2096 195.524 78.3966L195.811 78.4596L195.866 78.4716L196.695 78.6766L196.954 78.7516L197.301 78.8566C198.14 79.1256 198.958 79.4576 199.746 79.8496L200.257 79.5776C202.081 78.5556 204.107 77.6916 206.218 77.0466C208.626 76.3106 211.144 75.8586 213.596 75.7796C219.121 75.6026 222.923 77.3676 224.029 80.1466C224.216 80.3836 224.581 81.3966 224.821 82.1726C225.076 82.9976 225.465 84.4936 225.465 84.4936L225.451 84.4906C225.672 85.6266 225.483 86.8966 224.832 88.2516C225.086 89.0926 225.446 90.4716 225.446 90.4716L225.432 90.4696C225.673 91.7066 225.43 93.1046 224.629 94.5986C222.573 98.4266 217.411 101.849 211.609 103.623C209.588 104.241 207.488 104.659 205.415 104.824C203.488 107.093 200.946 108.84 198.005 109.739C197.556 109.876 197.101 109.992 196.64 110.088C195.576 110.309 194.49 110.412 193.402 110.397L193.529 110.428C193.529 110.428 192.676 110.442 191.415 110.234L191.311 110.217L190.996 110.159C190.126 109.999 189.272 109.758 188.447 109.439C188.272 109.372 188.098 109.302 187.926 109.228L187.896 109.215L187.688 109.124C185.482 108.126 183.566 106.698 183.039 106.291C180.107 104.094 177.995 100.76 177.361 96.7376C176.115 88.8286 181.021 81.1026 188.48 78.8226ZM188.076 77.4996C184.132 78.7056 180.723 81.3476 178.478 84.9396C176.222 88.5506 175.338 92.8176 175.99 96.9546C176.656 101.183 178.86 104.889 182.195 107.391C182.771 107.835 184.787 109.332 187.112 110.383L187.343 110.485L187.372 110.498C187.559 110.578 187.752 110.656 187.948 110.731C188.853 111.079 189.787 111.343 190.74 111.519L191.071 111.58L191.115 111.587L191.199 111.601C192.554 111.824 193.508 111.812 193.548 111.811C193.64 111.81 193.73 111.799 193.816 111.781C194.859 111.767 195.899 111.654 196.92 111.443C197.421 111.339 197.922 111.211 198.41 111.061C201.344 110.164 203.989 108.472 206.092 106.152C208.043 105.956 210.032 105.551 212.013 104.945C218.384 102.997 223.687 99.2816 225.852 95.2486C226.748 93.5796 227.078 91.9546 226.832 90.4146C226.829 90.3166 226.815 90.2186 226.789 90.1206C226.777 90.0736 226.536 89.1506 226.307 88.3476C226.866 86.9996 227.049 85.6886 226.852 84.4406C226.849 84.3406 226.834 84.2416 226.809 84.1436C226.793 84.0806 226.408 82.6076 226.147 81.7626C225.913 81.0046 225.584 80.0506 225.27 79.5136C223.835 76.1176 219.47 74.2076 213.555 74.3966C211.035 74.4776 208.431 74.9236 205.814 75.7236C203.695 76.3673 201.649 77.2307 199.709 78.2996C199.063 78.0086 198.402 77.7546 197.728 77.5396C197.631 77.5076 197.527 77.4776 197.424 77.4466L197.353 77.4256L197.286 77.4056L197.072 77.3436L196.686 77.2426C196.515 77.1996 196.343 77.1596 196.17 77.1216L196.153 77.1176L196.112 77.1086L196.021 77.0886L195.8 77.0396C194.673 76.8156 194.123 76.7716 193.75 76.8016C192.349 76.7255 190.944 76.8317 189.569 77.1176C189.066 77.2223 188.568 77.3498 188.076 77.4996Z"/><path fill="#6D6D6D" d="M224.626 94.5999C221.717 100.019 212.58 104.628 204.218 104.896C198.717 105.071 194.922 103.324 193.796 100.566C193.211 99.1309 193.348 97.4219 194.344 95.5669C197.253 90.1479 206.39 85.5389 214.753 85.2719C223.116 85.0049 227.535 89.1809 224.626 94.5999Z"/><path fill="#6D6D6D" d="M192.612 97.0352C192.547 97.2492 192.951 98.2772 193.201 99.1042C193.451 99.9312 193.947 100.91 193.947 100.91C193.947 100.91 194.355 101.076 194.415 99.8952C194.475 98.7142 192.721 96.6742 192.612 97.0352ZM223.973 86.0912C224.146 86.2312 224.543 87.3272 224.798 88.1522L225.443 90.4742C225.443 90.4742 225.004 90.4142 224.294 89.4692C223.584 88.5242 223.681 85.8522 223.973 86.0912Z"/><path fill="#C9C9C9" d="M223.447 91.0862C220.537 96.5052 211.4 101.115 203.038 101.382C194.676 101.649 190.255 97.4732 193.164 92.0542C196.073 86.6352 205.21 82.0252 213.573 81.7582C221.936 81.4912 226.356 85.6682 223.447 91.0862Z"/><path fill="#C9C9C9" stroke="#6D6D6D" stroke-miterlimit="10" stroke-width="3.066" d="M220.883 90.6076C218.373 94.8516 210.668 98.5596 203.676 98.8906C196.684 99.2216 193.049 96.0487 195.561 91.8047C198.073 87.5607 205.776 83.8516 212.769 83.5216C219.762 83.1916 223.395 86.3636 220.883 90.6076Z"/><path fill="#6D6D6D" d="M223.473 91.0867C220.559 96.5147 211.406 101.132 203.029 101.4C194.652 101.668 190.224 97.4837 193.138 92.0547C196.052 86.6257 205.205 82.0097 213.583 81.7417C221.961 81.4737 226.387 85.6577 223.473 91.0867Z" opacity=".8"/><path fill="#6D6D6D" d="M224.646 88.6214C221.736 94.0404 212.599 98.6494 204.237 98.9164C198.736 99.0924 194.941 97.3454 193.816 94.5874C193.23 93.1524 193.368 91.4434 194.363 89.5884C197.272 84.1694 206.409 79.5604 214.772 79.2934C223.135 79.0264 227.555 83.2024 224.646 88.6214Z"/><path fill="#6D6D6D" d="M192.632 91.0567C192.568 91.2707 192.971 92.2987 193.221 93.1257C193.471 93.9527 193.968 94.9317 193.968 94.9317C193.968 94.9317 194.375 95.0977 194.436 93.9177C194.497 92.7377 192.741 90.6957 192.632 91.0567ZM223.993 80.1127C224.166 80.2537 224.563 81.3487 224.818 82.1737L225.463 84.4957C225.463 84.4957 225.024 84.4357 224.314 83.4907C223.604 82.5457 223.701 79.8737 223.993 80.1127Z"/><path fill="#A8A8A8" d="M223.466 85.1087C220.557 90.5267 211.42 95.1367 203.057 95.4037C194.694 95.6707 190.274 91.4947 193.184 86.0757C196.094 80.6567 205.23 76.0467 213.593 75.7797C221.956 75.5127 226.375 79.6897 223.466 85.1087Z"/><path fill="#A8A8A8" stroke="#6D6D6D" stroke-miterlimit="10" stroke-width="1.1" d="M220.903 84.6292C218.392 88.8732 210.688 92.5813 203.695 92.9123C196.702 93.2433 193.069 90.0703 195.58 85.8263C198.091 81.5823 205.796 77.8742 212.789 77.5432C219.782 77.2122 223.414 80.3852 220.903 84.6292Z"/><path fill="#444" d="M207.433 104.553C207.434 104.553 208.401 103.033 208.769 100.675C208.877 99.9799 210.405 98.0059 210.405 98.0059L210.489 94.3039C210.024 83.9409 200.495 79.4609 200.495 79.4609C200.495 79.4609 196.433 81.3189 193.89 84.9219C193.89 84.9219 192.71 86.5159 192.394 88.4619C192.261 89.2769 192.435 90.0709 192.634 91.0559C192.729 91.5269 193.411 93.6469 193.411 93.6469C193.411 93.6469 194.109 101.327 194.528 101.798C194.528 101.799 202.036 105.793 207.433 104.553Z" opacity=".8"/><path fill="#6D6D6D" d="M209.126 91.8241C210.447 100.205 204.857 108.383 196.639 110.088C188.421 111.793 180.689 106.381 179.369 97.9991C178.049 89.6171 183.638 81.4401 191.856 79.7341C200.074 78.0281 207.805 83.4411 209.126 91.8241Z"/><path fill="#6D6D6D" d="M182.887 106.175C182.887 106.175 185.089 107.949 187.685 109.124C190.673 110.476 193.526 110.428 193.526 110.428C193.526 110.428 186.958 108.897 182.887 106.175ZM206.342 85.1307C206.342 85.1307 202.33 79.7517 195.52 78.3967C188.71 77.0417 202.11 82.2747 206.342 85.1307Z"/><path fill="#C9C9C9" d="M207.119 90.5624C208.44 98.9434 202.849 107.12 194.632 108.826C186.415 110.532 178.682 105.119 177.361 96.7374C176.04 88.3554 181.631 80.1784 189.848 78.4724C198.065 76.7664 205.798 82.1794 207.119 90.5624Z"/><path fill="#C9C9C9" stroke="#6D6D6D" stroke-miterlimit="10" stroke-width="1.1" d="M204.349 91.1365C205.424 97.9585 200.874 104.614 194.186 106.002C187.498 107.39 181.205 102.985 180.13 96.1625C179.055 89.3405 183.605 82.6865 190.293 81.2985C196.981 79.9105 203.273 84.3155 204.349 91.1365Z"/><path fill="#EFEFEF" d="M185.913 89.5894C191.353 86.4304 197.379 84.2554 203.663 83.0704C200.361 79.2764 195.208 77.3594 189.848 78.4724C181.965 80.1084 176.504 87.6994 177.238 95.7144C179.931 93.4014 182.891 91.3444 185.913 89.5894Z" opacity=".4"/></g><defs><radialGradient id="paint0_radial_930_3119" cx="0" cy="0" r="1" gradientTransform="translate(142.845 200) scale(177.165 177.5)" gradientUnits="userSpaceOnUse"><stop stop-color="#E5ECAC"/><stop offset=".5" stop-color="#BDD26F"/><stop offset="1" stop-color="#98C52F"/></radialGradient><radialGradient id="paint1_radial_930_3119" cx="0" cy="0" r="1" gradientTransform="matrix(-1200.96 -3926.72 4900.38 -1498.77 9694.67 -6949.88)" gradientUnits="userSpaceOnUse"><stop stop-color="#32B4BA"/><stop offset=".163" stop-color="#30ABBA"/><stop offset=".429" stop-color="#2B93BA"/><stop offset=".762" stop-color="#236BBA"/><stop offset="1" stop-color="#1D4BBA"/></radialGradient><radialGradient id="paint2_radial_930_3119" cx="0" cy="0" r="1" gradientTransform="matrix(-0.00943704 -49.6911 60.6254 -0.00823054 83.2777 313.468)" gradientUnits="userSpaceOnUse"><stop stop-color="#32B4BA"/><stop offset=".163" stop-color="#30ABBA"/><stop offset=".429" stop-color="#2B93BA"/><stop offset=".762" stop-color="#236BBA"/><stop offset="1" stop-color="#1D4BBA"/></radialGradient><linearGradient id="paint3_linear_930_3119" x1="1173.68" x2="1129.62" y1="4421.51" y2="4277.71" gradientUnits="userSpaceOnUse"><stop stop-color="#70AEFE"/><stop offset=".16" stop-color="#83BCFE"/><stop offset=".527" stop-color="#ABD7FE"/><stop offset=".82" stop-color="#C3E9FE"/><stop offset="1" stop-color="#CCEFFE"/></linearGradient><linearGradient id="paint4_linear_930_3119" x1="2697.62" x2="2372.57" y1="10751.6" y2="9745.18" gradientUnits="userSpaceOnUse"><stop stop-color="#70AEFE"/><stop offset=".16" stop-color="#83BCFE"/><stop offset=".527" stop-color="#ABD7FE"/><stop offset=".82" stop-color="#C3E9FE"/><stop offset="1" stop-color="#CCEFFE"/></linearGradient><radialGradient id="paint5_radial_930_3119" cx="0" cy="0" r="1" gradientTransform="translate(9754.96 -6949.88) rotate(-107.006) scale(4106.27 5124.49)" gradientUnits="userSpaceOnUse"><stop stop-color="#32B4BA"/><stop offset=".163" stop-color="#30ABBA"/><stop offset=".429" stop-color="#2B93BA"/><stop offset=".762" stop-color="#236BBA"/><stop offset="1" stop-color="#1D4BBA"/></radialGradient><radialGradient id="paint6_radial_930_3119" cx="0" cy="0" r="1" gradientTransform="matrix(-0.00943712 -49.6911 60.6259 -0.00823054 143.477 313.468)" gradientUnits="userSpaceOnUse"><stop stop-color="#32B4BA"/><stop offset=".163" stop-color="#30ABBA"/><stop offset=".429" stop-color="#2B93BA"/><stop offset=".762" stop-color="#236BBA"/><stop offset="1" stop-color="#1D4BBA"/></radialGradient><linearGradient id="paint7_linear_930_3119" x1="1970.74" x2="1926.68" y1="4421.58" y2="4277.77" gradientUnits="userSpaceOnUse"><stop stop-color="#70AEFE"/><stop offset=".16" stop-color="#83BCFE"/><stop offset=".527" stop-color="#ABD7FE"/><stop offset=".82" stop-color="#C3E9FE"/><stop offset="1" stop-color="#CCEFFE"/></linearGradient><linearGradient id="paint8_linear_930_3119" x1="4641.92" x2="4316.91" y1="10751.4" y2="9744.99" gradientUnits="userSpaceOnUse"><stop stop-color="#70AEFE"/><stop offset=".16" stop-color="#83BCFE"/><stop offset=".527" stop-color="#ABD7FE"/><stop offset=".82" stop-color="#C3E9FE"/><stop offset="1" stop-color="#CCEFFE"/></linearGradient><radialGradient id="paint9_radial_930_3119" cx="0" cy="0" r="1" gradientTransform="matrix(-1200.96 -3926.73 4900.38 -1498.77 9812.97 -6949.89)" gradientUnits="userSpaceOnUse"><stop stop-color="#32B4BA"/><stop offset=".163" stop-color="#30ABBA"/><stop offset=".429" stop-color="#2B93BA"/><stop offset=".762" stop-color="#236BBA"/><stop offset="1" stop-color="#1D4BBA"/></radialGradient><radialGradient id="paint10_radial_930_3119" cx="0" cy="0" r="1" gradientTransform="matrix(-0.00943704 -49.6911 60.6254 -0.00823054 201.576 313.468)" gradientUnits="userSpaceOnUse"><stop stop-color="#32B4BA"/><stop offset=".163" stop-color="#30ABBA"/><stop offset=".429" stop-color="#2B93BA"/><stop offset=".762" stop-color="#236BBA"/><stop offset="1" stop-color="#1D4BBA"/></radialGradient><linearGradient id="paint11_linear_930_3119" x1="2739.53" x2="2695.46" y1="4421.55" y2="4277.75" gradientUnits="userSpaceOnUse"><stop stop-color="#70AEFE"/><stop offset=".16" stop-color="#83BCFE"/><stop offset=".527" stop-color="#ABD7FE"/><stop offset=".82" stop-color="#C3E9FE"/><stop offset="1" stop-color="#CCEFFE"/></linearGradient><linearGradient id="paint12_linear_930_3119" x1="6518.2" x2="6193.19" y1="10751.6" y2="9745.18" gradientUnits="userSpaceOnUse"><stop stop-color="#70AEFE"/><stop offset=".16" stop-color="#83BCFE"/><stop offset=".527" stop-color="#ABD7FE"/><stop offset=".82" stop-color="#C3E9FE"/><stop offset="1" stop-color="#CCEFFE"/></linearGradient><linearGradient id="paint13_linear_930_3119" x1="108.219" x2="72.971" y1="175.431" y2="222.922" gradientUnits="userSpaceOnUse"><stop stop-color="#EC6F66"/><stop offset=".008" stop-color="#EC6D65"/><stop offset=".17" stop-color="#EC504D"/><stop offset=".341" stop-color="#EC393B"/><stop offset=".525" stop-color="#EC292E"/><stop offset=".731" stop-color="#EC1F26"/><stop offset="1" stop-color="#EC1C24"/></linearGradient><linearGradient id="paint14_linear_930_3119" x1="6214.16" x2="4034.94" y1="12058.5" y2="13168.5" gradientUnits="userSpaceOnUse"><stop stop-color="#4CE02D"/><stop offset=".094" stop-color="#52E733"/><stop offset=".17" stop-color="#44D626"/><stop offset=".341" stop-color="#3AC91D"/><stop offset=".525" stop-color="#37C41A"/><stop offset=".731" stop-color="#32BD15"/><stop offset="1" stop-color="#30BB13"/></linearGradient><linearGradient id="paint15_linear_930_3119" x1="178.215" x2="213.416" y1="175.493" y2="222.68" gradientUnits="userSpaceOnUse"><stop stop-color="#55EC36"/><stop offset=".195" stop-color="#45D727"/><stop offset=".419" stop-color="#39C71C"/><stop offset=".671" stop-color="#32BD15"/><stop offset="1" stop-color="#30BA13"/></linearGradient><radialGradient id="paint16_radial_930_3119" cx="0" cy="0" r="1" gradientTransform="translate(83.8736 90.4457) scale(71.4668 60.4052)" gradientUnits="userSpaceOnUse"><stop stop-color="#8AD147"/><stop offset=".25" stop-color="#7FCB43"/><stop offset=".5" stop-color="#64B941"/><stop offset=".75" stop-color="#4EA94C"/><stop offset="1" stop-color="#399346"/></radialGradient><radialGradient id="paint17_radial_930_3119" cx="0" cy="0" r="1" gradientTransform="translate(142.624 90.4013) scale(66.9152 56.6089)" gradientUnits="userSpaceOnUse"><stop stop-color="#E5ECAC"/><stop offset=".5" stop-color="#BDD26F"/><stop offset="1" stop-color="#98C52F"/></radialGradient><radialGradient id="paint18_radial_930_3119" cx="0" cy="0" r="1" gradientTransform="translate(201.317 90.4404) scale(61.9762 52.3332)" gradientUnits="userSpaceOnUse"><stop stop-color="#C5E2F9"/><stop offset=".25" stop-color="#BCDBF1"/><stop offset=".5" stop-color="#A4C7DB"/><stop offset=".75" stop-color="#7CA8B8"/><stop offset="1" stop-color="#6696A4"/></radialGradient><clipPath id="clip0_930_3119"><rect width="291.969" height="406.205" fill="#fff"/></clipPath></defs></svg>