<svg xmlns="http://www.w3.org/2000/svg" width="292" height="407" fill="none" viewBox="0 0 292 407"><g clip-path="url(#clip0_930_3727)"><path fill="url(#paint0_radial_930_3727)" d="M16.2638 390C14.6279 389.998 13.0596 389.348 11.9029 388.191C10.7462 387.034 10.0956 385.466 10.0938 383.83V16.169C10.0959 14.5334 10.7466 12.9653 11.9033 11.8088C13.06 10.6524 14.6281 10.0019 16.2638 10H269.425C271.06 10.0021 272.628 10.6527 273.785 11.8092C274.941 12.9656 275.592 14.5335 275.594 16.169V383.83C275.592 385.466 274.941 387.034 273.785 388.19C272.628 389.347 271.06 389.998 269.425 390H16.2638Z"/><path fill="#EFFAFF" d="M110.68 315.029C109.813 315.029 108.982 314.684 108.369 314.072C107.756 313.459 107.411 312.628 107.41 311.762V305.361C107.411 304.494 107.756 303.664 108.369 303.052C108.982 302.439 109.813 302.095 110.68 302.094H177.931C179.734 302.094 181.201 303.56 181.201 305.361V311.762C181.2 312.628 180.855 313.459 180.242 314.072C179.629 314.684 178.798 315.029 177.931 315.029H110.68Z"/><path fill="#223948" d="M177.93 304.023C178.106 304.023 178.281 304.057 178.443 304.125C178.606 304.192 178.754 304.29 178.878 304.415C179.003 304.539 179.102 304.687 179.169 304.849C179.237 305.012 179.271 305.186 179.271 305.362V311.762C179.271 311.938 179.237 312.112 179.169 312.275C179.102 312.437 179.003 312.585 178.878 312.709C178.754 312.834 178.606 312.932 178.443 312.999C178.281 313.067 178.106 313.101 177.93 313.101H110.679C110.503 313.101 110.329 313.067 110.167 312.999C110.004 312.932 109.856 312.834 109.732 312.709C109.607 312.585 109.508 312.437 109.441 312.275C109.373 312.112 109.339 311.938 109.338 311.762V305.362C109.339 305.186 109.373 305.012 109.441 304.849C109.508 304.687 109.607 304.539 109.732 304.415C109.856 304.29 110.004 304.192 110.167 304.125C110.329 304.057 110.503 304.023 110.679 304.023H177.93ZM177.93 300.166H110.679C109.301 300.166 107.979 300.714 107.005 301.688C106.03 302.662 105.482 303.984 105.48 305.362V311.762C105.482 313.14 106.03 314.462 107.005 315.436C107.98 316.41 109.301 316.958 110.679 316.959H177.93C179.308 316.958 180.629 316.41 181.604 315.436C182.579 314.461 183.127 313.14 183.129 311.762V305.362C183.127 303.984 182.578 302.663 181.604 301.689C180.63 300.715 179.308 300.167 177.93 300.166Z"/><path fill="#EFFAFF" d="M106.922 330.826C105.597 330.824 104.327 330.297 103.391 329.361C102.454 328.424 101.927 327.154 101.926 325.83V317.805C101.927 316.48 102.454 315.21 103.39 314.273C104.327 313.336 105.597 312.81 106.922 312.809H181.69C183.014 312.811 184.284 313.338 185.22 314.274C186.156 315.21 186.683 316.481 186.684 317.805V325.83C186.683 327.154 186.156 328.424 185.22 329.361C184.284 330.298 183.014 330.824 181.69 330.826H106.922Z"/><path fill="#223948" d="M181.689 314.738C182.502 314.739 183.282 315.062 183.856 315.637C184.43 316.212 184.754 316.992 184.754 317.805V325.83C184.754 326.643 184.431 327.423 183.856 327.998C183.281 328.573 182.502 328.896 181.689 328.897H106.921C106.518 328.897 106.119 328.818 105.747 328.663C104.997 328.351 104.4 327.754 104.087 327.004C103.933 326.631 103.854 326.233 103.854 325.83V317.805C103.855 316.992 104.177 316.212 104.752 315.637C105.037 315.352 105.375 315.126 105.747 314.972C106.119 314.818 106.518 314.738 106.921 314.738H181.689ZM181.689 310.88H106.921C103.103 310.88 99.9961 313.987 99.9961 317.805V325.83C99.9961 329.648 103.103 332.755 106.921 332.755H181.689C185.506 332.755 188.612 329.648 188.612 325.83V317.805C188.611 313.987 185.506 310.88 181.689 310.88Z"/><path fill="#EFFAFF" d="M100.094 347.737C98.6399 347.735 97.2454 347.157 96.217 346.128C95.1886 345.1 94.6104 343.705 94.6094 342.251V341.884L98.2974 332.544C98.4053 331.762 98.7923 331.045 99.387 330.527C99.9818 330.008 100.744 329.722 101.533 329.721H187.072C187.862 329.721 188.624 330.007 189.219 330.526C189.814 331.045 190.201 331.762 190.309 332.544L193.998 341.884V342.251C193.997 343.705 193.419 345.099 192.39 346.128C191.361 347.157 189.967 347.735 188.512 347.737H100.094Z"/><path fill="#223948" d="M187.076 331.65C187.43 331.651 187.77 331.792 188.021 332.042C188.272 332.293 188.413 332.632 188.414 332.987L192.074 342.251C192.073 343.194 191.698 344.098 191.031 344.765C190.364 345.432 189.46 345.807 188.517 345.808H100.096C99.1516 345.808 98.2476 345.433 97.5806 344.766C96.9138 344.099 96.539 343.194 96.5386 342.251L100.197 332.987C100.197 332.248 100.795 331.65 101.535 331.65H187.075H187.076ZM187.076 327.792H101.537C100.325 327.794 99.1523 328.218 98.2196 328.991C97.2876 329.764 96.6546 330.838 96.4286 332.028L92.9516 340.835L92.6826 341.518V342.252C92.6826 346.34 96.0086 349.667 100.097 349.667H188.518C192.606 349.667 195.933 346.341 195.933 342.252V341.517L195.663 340.834L192.185 332.028C191.958 330.838 191.324 329.765 190.392 328.992C189.459 328.219 188.286 327.795 187.075 327.792H187.076Z"/><path fill="#F6FAF6" d="M102.174 274.018C100.712 274.018 99.3187 273.262 98.0277 272.431L41.5777 242.468C37.3587 240.059 34.7007 235.599 34.5887 230.8L33.9297 202.525L33.9287 196.671C33.9324 194.145 34.9375 191.724 36.7236 189.938C38.5097 188.152 40.931 187.148 43.4567 187.145H101.388C103.913 187.148 106.334 188.153 108.12 189.938C109.906 191.724 110.911 194.145 110.915 196.671V199.757C110.915 202.889 109.308 204.278 107.961 204.891C106.46 205.573 104.668 205.629 102.649 205.629L55.0337 205.626C54.3387 205.626 53.6717 205.902 53.1797 206.393C52.6877 206.884 52.4107 207.551 52.4087 208.246V226.456C52.4086 226.55 52.4293 226.643 52.4694 226.729C52.5095 226.814 52.568 226.889 52.6407 226.95L100.249 250.552L100.341 250.612C101.092 251.096 101.74 251.724 102.246 252.459C102.752 253.194 103.108 254.023 103.292 254.898C103.606 256.337 103.44 257.84 102.822 259.177L106.509 270.909L106.015 271.67C105.006 273.228 103.713 274.018 102.172 274.018H102.174Z"/><path fill="#223948" d="M101.389 189.073C105.568 189.073 108.987 192.491 108.987 196.67V199.755C108.987 203.506 106.234 203.699 102.65 203.699C102.239 203.699 101.819 203.696 101.389 203.696H55.035C53.828 203.696 52.67 204.175 51.816 205.028C51.3931 205.45 51.0576 205.952 50.8285 206.504C50.5994 207.056 50.4813 207.647 50.481 208.245V226.455C50.4811 226.883 50.5884 227.305 50.793 227.682C50.9977 228.058 51.2934 228.378 51.653 228.611L99.296 252.229C101.549 253.685 102.196 256.72 100.737 258.97L104.398 270.618C103.718 271.668 102.988 272.087 102.173 272.087C101.243 272.087 100.204 271.541 99.005 270.765L42.482 240.762C40.71 239.749 39.229 238.295 38.184 236.541C37.139 234.787 36.564 232.794 36.517 230.753L35.858 202.478V196.67C35.858 192.491 39.277 189.073 43.457 189.073H101.389ZM101.389 185.215H43.457C37.14 185.215 32 190.354 32 196.67V202.523L32.001 202.568L32.66 230.843C32.7313 233.547 33.496 236.187 34.8807 238.51C36.2654 240.834 38.2238 242.763 40.568 244.112L40.62 244.142L40.674 244.17L97.054 274.097C98.574 275.069 100.246 275.945 102.175 275.945C103.713 275.945 105.908 275.384 107.638 272.714L108.623 271.191L108.08 269.461L104.874 259.257C105.42 257.729 105.527 256.078 105.182 254.492C104.946 253.369 104.489 252.304 103.838 251.36C103.187 250.415 102.356 249.609 101.391 248.988L101.208 248.87L101.011 248.771L54.34 225.635V208.245C54.341 208.061 54.415 207.885 54.545 207.756C54.675 207.627 54.852 207.554 55.036 207.554H101.39L102.022 207.555L102.65 207.557C104.815 207.557 106.91 207.488 108.76 206.646C110.286 205.951 112.845 204.134 112.845 199.755V196.67C112.845 190.354 107.706 185.215 101.389 185.215Z"/><path fill="#F6FAF6" d="M184.214 274.018C182.673 274.018 181.38 273.227 180.371 271.667L179.879 270.906L183.564 259.175C182.945 257.839 182.78 256.337 183.093 254.899C183.277 254.024 183.632 253.195 184.139 252.459C184.646 251.723 185.293 251.094 186.044 250.61L186.137 250.55L233.745 226.948C233.818 226.888 233.876 226.813 233.916 226.727C233.956 226.641 233.977 226.549 233.977 226.455V208.246C233.976 207.901 233.908 207.561 233.776 207.243C233.644 206.925 233.45 206.637 233.207 206.394C232.715 205.903 232.049 205.627 231.354 205.626L183.739 205.629C180.647 205.629 175.473 205.629 175.473 199.757V196.671C175.476 194.145 176.481 191.724 178.268 189.938C180.054 188.152 182.475 187.148 185.001 187.145H242.931C248.185 187.145 252.46 191.419 252.46 196.671V202.479L251.798 230.8C251.737 233.171 251.067 235.488 249.852 237.526C248.638 239.564 246.919 241.255 244.862 242.438L188.36 272.432C187.07 273.262 185.675 274.018 184.214 274.018Z"/><path fill="#223948" d="M242.931 189.073C247.111 189.073 250.531 192.491 250.531 196.67V202.478L249.871 230.753C249.823 232.794 249.249 234.788 248.204 236.542C247.159 238.296 245.678 239.75 243.905 240.762L187.383 270.765C186.183 271.541 185.143 272.087 184.214 272.087C183.4 272.087 182.669 271.667 181.99 270.618L185.649 258.97C184.95 257.884 184.71 256.565 184.98 255.302C185.25 254.039 186.009 252.934 187.091 252.229L234.732 228.611C235.092 228.378 235.388 228.059 235.593 227.682C235.798 227.305 235.905 226.884 235.905 226.455V208.245C235.905 207.647 235.787 207.056 235.558 206.504C235.329 205.952 234.994 205.45 234.571 205.028C234.148 204.605 233.646 204.27 233.094 204.042C232.542 203.813 231.95 203.696 231.353 203.696H184.999L183.737 203.699C180.152 203.699 177.399 203.506 177.399 199.755V196.67C177.399 192.491 180.819 189.073 184.999 189.073H242.931ZM242.931 185.215H185.001C178.683 185.215 173.543 190.354 173.543 196.67V199.755C173.543 204.133 176.102 205.951 177.628 206.646C179.478 207.488 181.575 207.557 183.739 207.557L184.367 207.555L185 207.554H231.354C231.537 207.554 231.713 207.627 231.843 207.756C231.973 207.885 232.047 208.061 232.048 208.245V225.636L185.378 248.772L185.18 248.871L184.996 248.99C184.031 249.612 183.2 250.418 182.55 251.363C181.899 252.308 181.443 253.373 181.207 254.496C180.863 256.081 180.97 257.731 181.515 259.258L178.31 269.463L177.767 271.192L178.752 272.713C180.479 275.385 182.675 275.946 184.214 275.946C186.142 275.946 187.814 275.07 189.335 274.098L245.714 244.171L245.767 244.143L245.82 244.114C250.571 241.4 253.601 236.315 253.728 230.844L254.388 202.57L254.389 202.524V196.671C254.389 190.354 249.25 185.215 242.931 185.215Z"/><path fill="#F6FAF6" d="M112.845 305.953L113.498 303.523L115.604 296.775C116.328 294.751 116.328 294.751 115.535 291.081L114.844 287.825C90.075 275.061 74.125 246.71 74.125 215.296V194.599C74.125 190.488 77.469 187.145 81.579 187.145H204.031C208.125 187.177 211.444 190.522 211.444 194.599V215.296C211.444 246.71 195.494 275.061 170.726 287.825L170.035 291.086C169.241 294.754 169.241 294.754 169.966 296.778C170.432 298.079 171.136 300.042 172.073 303.522L172.726 305.953H112.845Z"/><path fill="#223948" d="M81.5803 189.073H204.031C205.489 189.084 206.884 189.671 207.911 190.706C208.938 191.741 209.515 193.14 209.515 194.598V215.295C209.515 247.262 192.829 274.691 169.024 286.525C166.61 298.456 167.002 292.095 170.209 304.024H115.361C118.566 292.094 118.96 298.456 116.546 286.525C92.7403 274.691 76.0543 247.262 76.0543 215.295V194.598C76.055 193.132 76.6373 191.727 77.6733 190.691C78.7093 189.655 80.1143 189.073 81.5803 189.073ZM81.5803 185.215C80.3478 185.212 79.1269 185.453 77.9883 185.925C76.8494 186.396 75.8154 187.089 74.9463 187.963C74.0713 188.832 73.3783 189.866 72.9063 191.005C72.4343 192.144 72.1923 193.366 72.1963 194.599V215.296C72.1963 247.079 88.2063 275.82 113.141 289.111L113.648 291.489C113.994 293.088 114.244 294.243 114.244 294.675C114.244 294.841 114.079 295.31 113.787 296.126C113.31 297.455 112.591 299.464 111.634 303.023L110.328 307.882H175.241L173.934 303.022C172.978 299.466 172.259 297.457 171.782 296.129C171.517 295.386 171.324 294.852 171.324 294.677C171.324 294.247 171.574 293.091 171.919 291.494L172.428 289.111C197.363 275.82 213.372 247.079 213.372 215.296V194.599C213.372 189.466 209.196 185.256 204.062 185.216L81.5803 185.215Z"/><path fill="#F6FAF6" d="M109.9 314.065C109.496 314.065 109.108 313.904 108.822 313.618C108.536 313.331 108.376 312.944 108.375 312.54V304.584C108.375 303.743 109.059 303.059 109.9 303.059H178.71C179.114 303.06 179.502 303.221 179.788 303.506C180.073 303.792 180.235 304.179 180.236 304.584V312.54C180.235 312.944 180.073 313.331 179.788 313.617C179.502 313.903 179.114 314.064 178.71 314.065H109.9Z"/><path fill="#223948" d="M178.71 304.025C179.018 304.025 179.271 304.277 179.271 304.585V312.541C179.271 312.614 179.257 312.687 179.228 312.755C179.2 312.823 179.159 312.885 179.107 312.937C179.055 312.989 178.993 313.03 178.925 313.058C178.857 313.086 178.784 313.101 178.71 313.101H109.899C109.751 313.101 109.608 313.042 109.503 312.937C109.398 312.832 109.339 312.689 109.339 312.541V304.585C109.339 304.436 109.398 304.294 109.503 304.189C109.608 304.084 109.751 304.025 109.899 304.025H178.71ZM178.71 302.096H109.899C109.239 302.096 108.606 302.358 108.139 302.825C107.673 303.292 107.41 303.925 107.41 304.585V312.541C107.411 313.201 107.673 313.833 108.14 314.3C108.607 314.767 109.239 315.03 109.899 315.03H178.71C179.37 315.03 180.003 314.767 180.47 314.301C180.936 313.833 181.199 313.201 181.2 312.541V304.585C181.199 303.925 180.936 303.292 180.47 302.825C180.003 302.359 179.37 302.096 178.71 302.096Z"/><path fill="#F6FAF6" d="M105.138 329.861C104.542 329.861 103.971 329.624 103.55 329.203C103.129 328.782 102.891 328.21 102.891 327.615V316.021C102.891 315.426 103.128 314.854 103.549 314.432C103.971 314.011 104.542 313.774 105.138 313.773H183.472C184.067 313.774 184.639 314.011 185.06 314.433C185.481 314.854 185.718 315.426 185.719 316.021V327.615C185.718 328.211 185.48 328.782 185.059 329.203C184.638 329.624 184.067 329.861 183.472 329.861H105.138Z"/><path fill="#223948" d="M183.472 314.738C184.178 314.738 184.754 315.313 184.754 316.021V327.615C184.753 327.955 184.618 328.281 184.378 328.521C184.138 328.761 183.812 328.896 183.472 328.897H105.137C104.968 328.897 104.802 328.864 104.646 328.8C104.49 328.735 104.349 328.641 104.23 328.522C104.111 328.403 104.016 328.261 103.952 328.105C103.887 327.95 103.855 327.783 103.855 327.615V316.021C103.855 315.313 104.43 314.738 105.137 314.738H183.472ZM183.472 312.809H105.137C104.286 312.81 103.47 313.149 102.868 313.751C102.569 314.049 102.333 314.402 102.171 314.792C102.009 315.181 101.926 315.599 101.926 316.021V327.615C101.927 328.466 102.266 329.282 102.868 329.884C103.47 330.486 104.286 330.825 105.137 330.826H183.472C184.323 330.825 185.139 330.486 185.741 329.884C186.343 329.282 186.682 328.466 186.683 327.615V316.021C186.682 315.169 186.343 314.353 185.741 313.751C185.139 313.149 184.323 312.81 183.472 312.809Z"/><path fill="#F6FAF6" d="M100.095 346.772C98.8962 346.771 97.7472 346.294 96.9002 345.446C96.0532 344.598 95.5762 343.449 95.5752 342.251V342.067L99.2432 332.779C99.2962 332.207 99.5602 331.676 99.9842 331.288C100.408 330.9 100.962 330.686 101.536 330.686H187.075C187.65 330.686 188.203 330.901 188.628 331.288C189.052 331.675 189.316 332.207 189.369 332.779L193.038 342.067V342.251C193.036 343.449 192.56 344.599 191.712 345.446C190.864 346.293 189.715 346.771 188.516 346.772H100.095Z"/><path fill="#223948" d="M187.073 331.652C187.814 331.652 188.412 332.25 188.412 332.988L192.071 342.252C192.071 343.196 191.697 344.1 191.03 344.767C190.363 345.434 189.458 345.809 188.514 345.809H100.093C99.1504 345.809 98.2464 345.434 97.5794 344.767C96.9124 344.1 96.5384 343.196 96.5384 342.252L100.197 332.988C100.197 332.25 100.795 331.652 101.534 331.652H187.074H187.073ZM187.073 329.723H101.534C100.745 329.723 99.9834 330.01 99.3884 330.529C98.7934 331.048 98.4064 331.764 98.2984 332.546L94.7444 341.544L94.6094 341.886V342.253C94.6104 343.707 95.1886 345.102 96.217 346.13C97.2454 347.159 98.6399 347.737 100.094 347.739H188.515C189.97 347.737 191.364 347.159 192.393 346.13C193.422 345.101 194 343.707 194.001 342.253V341.886L193.866 341.544L190.311 332.546C190.203 331.763 189.816 331.047 189.221 330.528C188.626 330.009 187.863 329.723 187.073 329.723Z"/><path fill="#fff" d="M167.008 274.429C166.563 274.428 166.125 274.319 165.732 274.11L143.116 260.527C143.003 260.479 142.88 260.456 142.756 260.461C142.632 260.465 142.511 260.497 142.402 260.554L119.882 274.083C119.476 274.307 119.02 274.426 118.557 274.429C118.155 274.428 117.758 274.339 117.393 274.169C117.028 273.999 116.707 273.75 116.449 273.442C116.191 273.134 116.006 272.779 115.902 272.394C115.798 272.009 115.781 271.607 115.85 271.214L120.161 246.083C120.182 245.953 120.173 245.819 120.132 245.693C120.091 245.567 120.02 245.452 119.925 245.36L102.535 226.059C101.826 225.37 101.559 224.292 101.883 223.292C102.039 222.803 102.33 222.368 102.721 222.037C103.112 221.706 103.59 221.492 104.098 221.42L104.167 221.409H128.477C128.597 221.383 128.71 221.33 128.806 221.254C128.902 221.178 128.981 221.082 129.036 220.972L140.306 195.934C140.528 195.466 140.879 195.072 141.318 194.795C141.756 194.519 142.263 194.373 142.782 194.373C143.294 194.371 143.797 194.513 144.233 194.784C144.669 195.055 145.019 195.442 145.245 195.903L156.545 221.005C156.6 221.108 156.677 221.197 156.771 221.267C156.865 221.337 156.973 221.385 157.088 221.409H183.219L183.289 221.42C183.796 221.492 184.273 221.706 184.665 222.037C185.056 222.368 185.347 222.803 185.503 223.291C185.659 223.779 185.683 224.299 185.56 224.797C185.437 225.295 185.178 225.747 184.81 226.104L165.651 245.349C165.553 245.443 165.479 245.559 165.436 245.687C165.394 245.816 165.383 245.953 165.405 246.086L169.715 271.215C169.781 271.609 169.762 272.013 169.657 272.399C169.552 272.785 169.365 273.144 169.108 273.45C168.85 273.756 168.528 274.002 168.166 274.171C167.804 274.34 167.408 274.428 167.008 274.429Z"/><path fill="#223948" d="M142.783 195.337C143.116 195.335 143.443 195.426 143.726 195.602C144.009 195.777 144.236 196.03 144.381 196.329L155.665 221.4C155.793 221.659 155.982 221.883 156.215 222.052C156.449 222.222 156.72 222.332 157.006 222.373H183.149C184.608 222.588 185.192 224.382 184.136 225.413L164.967 244.669C164.761 244.871 164.606 245.12 164.517 245.394C164.428 245.668 164.406 245.961 164.454 246.246L168.765 271.378C168.963 272.529 168.046 273.464 167.008 273.464C166.719 273.463 166.435 273.392 166.181 273.255L143.613 259.7C143.358 259.565 143.073 259.494 142.784 259.494C142.495 259.494 142.211 259.565 141.956 259.7L119.388 273.255C119.133 273.391 118.848 273.463 118.559 273.464C117.521 273.464 116.605 272.529 116.804 271.378L121.114 246.246C121.163 245.961 121.142 245.669 121.053 245.394C120.964 245.119 120.809 244.871 120.602 244.669L103.255 225.413C102.197 224.382 102.782 222.587 104.242 222.373H128.564C128.85 222.331 129.121 222.221 129.354 222.052C129.588 221.883 129.777 221.659 129.905 221.4L141.189 196.329C141.334 196.03 141.56 195.778 141.842 195.602C142.124 195.426 142.451 195.334 142.783 195.337ZM142.783 193.408C142.09 193.405 141.41 193.597 140.822 193.963C140.234 194.329 139.761 194.853 139.457 195.476L139.441 195.506L139.426 195.537L128.216 220.444H104.098L103.958 220.464C103.272 220.563 102.628 220.852 102.099 221.299C101.57 221.747 101.177 222.334 100.965 222.993C100.753 223.639 100.724 224.331 100.88 224.993C101.036 225.655 101.373 226.26 101.853 226.742L119.165 245.961L119.197 245.995L114.899 271.052C114.808 271.585 114.835 272.131 114.977 272.652C115.118 273.173 115.372 273.658 115.72 274.071C116.068 274.484 116.503 274.817 116.993 275.045C117.483 275.273 118.017 275.392 118.557 275.393C119.15 275.393 119.746 275.245 120.281 274.965L120.33 274.938L120.379 274.91L142.783 261.453L165.187 274.91L165.236 274.938L165.285 274.964C165.817 275.244 166.408 275.391 167.009 275.393C167.552 275.392 168.088 275.273 168.58 275.043C169.071 274.813 169.506 274.478 169.855 274.062C170.202 273.65 170.455 273.167 170.595 272.646C170.735 272.126 170.76 271.581 170.667 271.051L166.37 245.995L185.504 226.774C185.995 226.293 186.342 225.683 186.504 225.014C186.666 224.346 186.637 223.645 186.421 222.992C186.21 222.333 185.818 221.746 185.289 221.299C184.76 220.853 184.116 220.563 183.431 220.464L183.291 220.444H157.351L146.141 195.537L146.126 195.506L146.111 195.477C145.807 194.855 145.333 194.33 144.744 193.964C144.156 193.599 143.476 193.406 142.783 193.408Z"/><g opacity=".3"><path fill="#000" d="M176.794 147.667C176.538 147.667 176.293 147.566 176.112 147.385C175.931 147.204 175.829 146.959 175.829 146.703V71.1736L158.287 76.1486C158.041 76.2186 157.778 76.1876 157.555 76.0626C157.332 75.9376 157.167 75.7306 157.097 75.4846L153.369 62.4386C153.303 62.2024 153.328 61.9498 153.44 61.7316C153.553 61.5136 153.744 61.3466 153.976 61.2646L178.469 52.6146C178.572 52.5786 178.681 52.5596 178.79 52.5596H192.102C192.358 52.5596 192.603 52.6616 192.784 52.8416C192.965 53.0216 193.066 53.2676 193.066 53.5236V146.702C193.066 146.958 192.965 147.203 192.784 147.384C192.603 147.565 192.358 147.666 192.102 147.666H176.794V147.667Z" opacity=".3"/><path fill="#000" d="M192.102 53.5247V146.702H176.793V69.8977L158.024 75.2217L154.297 62.1757L178.79 53.5257L192.102 53.5247ZM192.102 51.5957H178.79C178.571 51.5957 178.354 51.6337 178.147 51.7057L153.654 60.3557C153.191 60.5196 152.808 60.8537 152.583 61.2902C152.358 61.7266 152.307 62.2324 152.442 62.7047L156.17 75.7507C156.311 76.2417 156.641 76.6568 157.087 76.9052C157.533 77.1535 158.06 77.2148 158.551 77.0757L174.864 72.4487V146.701C174.865 147.212 175.068 147.703 175.43 148.064C175.791 148.426 176.282 148.629 176.793 148.63H192.101C192.613 148.629 193.103 148.426 193.465 148.064C193.827 147.703 194.03 147.212 194.03 146.701V53.5247C194.03 53.0134 193.827 52.523 193.465 52.1613C193.104 51.7997 192.614 51.5962 192.102 51.5957Z" opacity=".3"/></g><path fill="#F6FAF6" d="M174.867 145.739C174.611 145.739 174.366 145.637 174.185 145.456C174.004 145.275 173.902 145.03 173.902 144.774V69.2449L156.36 74.2199C156.115 74.2899 155.851 74.2589 155.628 74.1339C155.405 74.0089 155.24 73.8019 155.17 73.5559L151.443 60.5099C151.376 60.2738 151.401 60.0208 151.514 59.8029C151.626 59.5849 151.818 59.4179 152.049 59.3359L176.542 50.6849C176.645 50.6489 176.754 50.6299 176.863 50.6299H190.175C190.431 50.6299 190.676 50.7319 190.857 50.9119C191.038 51.0919 191.14 51.3379 191.14 51.5939V144.772C191.14 145.028 191.038 145.273 190.857 145.454C190.676 145.635 190.431 145.737 190.175 145.737H174.867V145.739Z"/><path fill="#223948" d="M190.176 51.596V144.774H174.868V67.969L156.099 73.293L152.371 60.247L176.864 51.597L190.176 51.596ZM190.176 49.667H176.864C176.646 49.6672 176.429 49.7044 176.222 49.777L151.729 58.427C151.265 58.591 150.882 58.925 150.657 59.361C150.432 59.797 150.381 60.304 150.516 60.776L154.244 73.822C154.385 74.3129 154.715 74.7281 155.161 74.9764C155.607 75.2248 156.134 75.2861 156.625 75.147L172.939 70.52V144.773C172.94 145.285 173.143 145.775 173.504 146.137C173.865 146.499 174.356 146.702 174.868 146.702H190.175C190.687 146.702 191.177 146.498 191.539 146.137C191.901 145.775 192.104 145.285 192.104 144.773V51.596C192.104 51.084 191.901 50.594 191.539 50.232C191.178 49.8706 190.688 49.6674 190.176 49.667Z"/><g opacity=".3"><path fill="#000" d="M109.171 130.361C108.915 130.361 108.67 130.259 108.489 130.078C108.308 129.897 108.207 129.652 108.207 129.396V107.866H86.6749C86.4189 107.866 86.1739 107.764 85.9929 107.583C85.8119 107.402 85.7109 107.157 85.7109 106.901V93.3253C85.7109 93.0693 85.8129 92.8243 85.9929 92.6433C86.1729 92.4623 86.4189 92.3613 86.6749 92.3613H108.207V70.8283C108.207 70.5723 108.308 70.3273 108.489 70.1463C108.67 69.9653 108.915 69.8643 109.171 69.8643H122.749C123.005 69.8643 123.25 69.9663 123.431 70.1463C123.612 70.3263 123.713 70.5723 123.713 70.8283V92.3613H145.245C145.5 92.3613 145.746 92.4633 145.927 92.6433C146.107 92.8246 146.208 93.0696 146.209 93.3253V106.901C146.208 107.157 146.107 107.402 145.927 107.583C145.746 107.764 145.5 107.866 145.245 107.866H123.713V129.396C123.713 129.652 123.612 129.897 123.431 130.078C123.25 130.259 123.005 130.361 122.749 130.361H109.171Z" opacity=".3"/><path fill="#000" d="M122.749 70.8274V93.3254H145.244V106.902H122.749V129.396H109.171V106.902H86.6751V93.3254H109.171V70.8274H122.749ZM122.749 68.8984H109.171C108.659 68.8984 108.168 69.1014 107.807 69.4634C107.445 69.8252 107.242 70.3159 107.242 70.8274V91.3964H86.6751C86.1636 91.3967 85.6731 91.6 85.3114 91.9617C84.9497 92.3234 84.7464 92.8139 84.7461 93.3254V106.902C84.7461 107.413 84.9491 107.904 85.3111 108.265C85.6729 108.627 86.1635 108.83 86.6751 108.83H107.242V129.396C107.242 129.908 107.445 130.399 107.807 130.76C108.168 131.122 108.659 131.325 109.171 131.325H122.749C123.261 131.325 123.751 131.122 124.113 130.76C124.475 130.398 124.678 129.908 124.678 129.396V108.83H145.244C145.756 108.83 146.246 108.627 146.608 108.265C146.97 107.904 147.173 107.413 147.173 106.902V93.3254C147.173 92.8139 146.97 92.3234 146.608 91.9617C146.246 91.6 145.756 91.3967 145.244 91.3964H124.678V70.8274C124.678 70.3159 124.475 69.8254 124.113 69.4637C123.751 69.102 123.261 68.8987 122.749 68.8984Z" opacity=".3"/></g><path fill="#F6FAF6" d="M107.245 128.433C106.989 128.433 106.744 128.331 106.563 128.15C106.382 127.969 106.28 127.724 106.28 127.468V105.938H84.7501C84.4941 105.938 84.2491 105.837 84.0681 105.656C83.8871 105.475 83.7861 105.229 83.7861 104.974V91.3976C83.7861 91.1416 83.8881 90.8966 84.0681 90.7156C84.2481 90.5346 84.4941 90.4335 84.7501 90.4335H106.28V68.8996C106.28 68.6436 106.382 68.3986 106.563 68.2176C106.744 68.0366 106.989 67.9355 107.245 67.9355H120.823C121.079 67.9355 121.324 68.0376 121.505 68.2176C121.686 68.3976 121.787 68.6436 121.787 68.8996V90.4325H143.318C143.574 90.4325 143.82 90.5345 144 90.7145C144.18 90.8945 144.283 91.1406 144.283 91.3966V104.973C144.283 105.228 144.181 105.474 144 105.655C143.911 105.744 143.804 105.815 143.687 105.864C143.57 105.912 143.445 105.937 143.318 105.937H121.787V127.467C121.787 127.723 121.686 127.968 121.505 128.149C121.324 128.33 121.079 128.432 120.823 128.432H107.245V128.433Z"/><path fill="#223948" d="M120.823 68.8997V91.3967H143.319V104.973H120.823V127.468H107.245V104.973H84.7493V91.3967H107.245V68.8997H120.823ZM120.823 66.9707H107.245C106.734 66.971 106.243 67.1743 105.882 67.536C105.52 67.8977 105.317 68.3882 105.316 68.8997V89.4687H84.7493C84.2378 89.469 83.7473 89.6723 83.3856 90.034C83.0239 90.3957 82.8206 90.8862 82.8203 91.3977V104.974C82.8203 105.486 83.0233 105.977 83.3853 106.338C83.7471 106.699 84.2377 106.903 84.7493 106.903H105.316V127.469C105.317 127.98 105.52 128.471 105.882 128.832C106.243 129.194 106.734 129.397 107.245 129.398H120.823C121.335 129.397 121.825 129.194 122.187 128.832C122.549 128.471 122.752 127.98 122.752 127.469V106.903H143.319C143.831 106.902 144.321 106.699 144.683 106.337C145.045 105.976 145.248 105.485 145.248 104.974V91.3967C145.248 90.8852 145.045 90.3947 144.683 90.033C144.321 89.6713 143.831 89.468 143.319 89.4677H122.752V68.8997C122.752 68.3882 122.549 67.8977 122.187 67.536C121.825 67.1743 121.335 66.971 120.823 66.9707Z"/><path fill="#CDEBFF" d="M265.594 20V380H20.0938V20H265.594ZM269.425 0H16.2638C7.33275 0 0.09375 7.239 0.09375 16.169V383.83C0.09375 392.761 7.33275 400 16.2638 400H269.425C278.355 400 285.594 392.761 285.594 383.83V16.169C285.594 7.239 278.354 0 269.425 0Z"/><path fill="#414042" d="M269.425 10C271.06 10.0021 272.628 10.6527 273.785 11.8092C274.941 12.9656 275.592 14.5335 275.594 16.169V383.83C275.592 385.466 274.941 387.034 273.785 388.19C272.628 389.347 271.06 389.998 269.425 390H16.2638C14.6279 389.998 13.0596 389.348 11.9029 388.191C10.7462 387.034 10.0956 385.466 10.0938 383.83V16.169C10.0959 14.5334 10.7466 12.9653 11.9033 11.8088C13.06 10.6524 14.6281 10.0019 16.2638 10H269.425ZM269.425 0H16.2638C7.33275 0 0.09375 7.239 0.09375 16.169V383.83C0.09375 392.761 7.33275 400 16.2638 400H269.425C278.355 400 285.594 392.761 285.594 383.83V16.169C285.594 7.239 278.354 0 269.425 0Z"/></g><defs><radialGradient id="paint0_radial_930_3727" cx="0" cy="0" r="1" gradientTransform="translate(142.844 200) scale(177.165 177.499)" gradientUnits="userSpaceOnUse"><stop stop-color="#A4C7DC"/><stop offset=".495" stop-color="#85AEC0"/><stop offset="1" stop-color="#6696A4"/></radialGradient><clipPath id="clip0_930_3727"><rect width="291.969" height="406.205" fill="#fff"/></clipPath></defs></svg>