<svg width="292" height="407" viewBox="0 0 292 407" fill="none" xmlns="http://www.w3.org/2000/svg">
<g clip-path="url(#clip0_3331_1616)">
<mask id="mask0_3331_1616" style="mask-type:luminance" maskUnits="userSpaceOnUse" x="0" y="0" width="292" height="407">
<path d="M291.969 0H0V406.205H291.969V0Z" fill="white"/>
</mask>
<g mask="url(#mask0_3331_1616)">
<path d="M16.2638 390C14.6279 389.998 13.0596 389.348 11.9029 388.191C10.7462 387.034 10.0956 385.466 10.0938 383.83V16.169C10.0959 14.5334 10.7466 12.9653 11.9033 11.8088C13.06 10.6524 14.6281 10.0019 16.2638 10H269.425C271.06 10.0021 272.628 10.6527 273.785 11.8092C274.941 12.9656 275.592 14.5335 275.594 16.169V383.83C275.592 385.466 274.941 387.034 273.785 388.19C272.628 389.347 271.06 389.998 269.425 390H16.2638Z" fill="url(#paint0_radial_3331_1616)"/>
<path d="M172.585 41.8984H114.584C114.372 41.8983 114.163 41.9399 113.967 42.0208C113.771 42.1017 113.594 42.2204 113.444 42.37C113.295 42.5196 113.176 42.6973 113.095 42.8928C113.014 43.0883 112.973 43.2978 112.973 43.5094V98.2874C112.973 98.499 113.014 98.7086 113.095 98.9041C113.176 99.0996 113.295 99.2773 113.444 99.4269C113.594 99.5765 113.771 99.6952 113.967 99.7761C114.163 99.857 114.372 99.8986 114.584 99.8984H172.585C172.796 99.8984 173.006 99.8568 173.201 99.7758C173.396 99.6948 173.574 99.5761 173.723 99.4265C173.873 99.2769 173.992 99.0993 174.072 98.9039C174.153 98.7084 174.195 98.499 174.195 98.2874V43.5094C174.195 43.2979 174.153 43.0885 174.072 42.893C173.992 42.6976 173.873 42.52 173.723 42.3704C173.574 42.2207 173.396 42.1021 173.201 42.0211C173.006 41.9401 172.796 41.8984 172.585 41.8984Z" fill="url(#paint1_radial_3331_1616)" stroke="#414042" stroke-width="3.5"/>
<path d="M243.805 41.8984H185.805C185.594 41.8982 185.384 41.9397 185.188 42.0205C184.993 42.1014 184.815 42.22 184.665 42.3696C184.516 42.5193 184.397 42.697 184.316 42.8925C184.235 43.0881 184.193 43.2978 184.193 43.5094L184.194 98.2874C184.194 98.499 184.236 98.7086 184.317 98.9041C184.398 99.0996 184.516 99.2773 184.666 99.4269C184.816 99.5765 184.993 99.6952 185.189 99.7761C185.384 99.857 185.594 99.8986 185.805 99.8984H243.805C244.017 99.8984 244.226 99.8568 244.422 99.7758C244.617 99.6948 244.795 99.5761 244.944 99.4265C245.094 99.2769 245.212 99.0993 245.293 98.9039C245.374 98.7084 245.415 98.499 245.415 98.2874V43.5094C245.415 43.2979 245.374 43.0885 245.293 42.893C245.212 42.6976 245.094 42.52 244.944 42.3704C244.795 42.2207 244.617 42.1021 244.422 42.0211C244.226 41.9401 244.017 41.8984 243.805 41.8984Z" fill="url(#paint2_radial_3331_1616)" stroke="#414042" stroke-width="3.5"/>
<path d="M101.36 41.8984H43.361C43.1495 41.8984 42.94 41.9401 42.7446 42.0211C42.5492 42.1021 42.3717 42.2207 42.2222 42.3704C42.0727 42.52 41.9541 42.6976 41.8733 42.893C41.7924 43.0885 41.7509 43.2979 41.751 43.5094L41.75 98.2864C41.7499 98.498 41.7914 98.7074 41.8723 98.9029C41.9531 99.0983 42.0717 99.2759 42.2212 99.4255C42.3707 99.5751 42.5482 99.6938 42.7436 99.7748C42.939 99.8558 43.1485 99.8974 43.36 99.8974H101.36C101.572 99.8976 101.781 99.856 101.977 99.7751C102.172 99.6942 102.35 99.5755 102.499 99.4259C102.649 99.2763 102.768 99.0986 102.849 98.9031C102.93 98.7076 102.971 98.498 102.971 98.2864L102.972 43.5084C102.972 43.2968 102.93 43.0873 102.849 42.8919C102.768 42.6964 102.649 42.5188 102.5 42.3693C102.35 42.2198 102.172 42.1012 101.977 42.0204C101.781 41.9396 101.572 41.8982 101.36 41.8984Z" fill="url(#paint3_radial_3331_1616)" stroke="#414042" stroke-width="3.5"/>
<g opacity="0.3">
<path opacity="0.3" d="M172.727 214.899C172.471 214.899 172.226 214.798 172.045 214.617C171.864 214.436 171.762 214.191 171.762 213.935V138.406L154.22 143.381C153.974 143.45 153.711 143.42 153.488 143.295C153.265 143.17 153.1 142.963 153.03 142.717L149.302 129.672C149.236 129.436 149.262 129.183 149.374 128.965C149.487 128.747 149.678 128.58 149.909 128.497L174.402 119.847C174.505 119.811 174.614 119.792 174.723 119.792H188.035C188.291 119.792 188.536 119.893 188.717 120.074C188.898 120.255 189 120.5 189 120.756V213.934C189 214.19 188.898 214.435 188.717 214.616C188.536 214.797 188.291 214.898 188.035 214.898H172.727V214.899Z" fill="black"/>
<path opacity="0.3" d="M188.035 120.757V213.934H172.726V137.13L153.958 142.454L150.23 129.408L174.723 120.758L188.035 120.757ZM188.035 118.828H174.723C174.504 118.828 174.287 118.865 174.081 118.938L149.588 127.588C149.125 127.752 148.741 128.086 148.516 128.523C148.29 128.959 148.24 129.466 148.375 129.938L152.103 142.983C152.244 143.474 152.574 143.889 153.02 144.138C153.466 144.386 153.993 144.447 154.484 144.308L170.798 139.682V213.934C170.798 214.446 171.001 214.937 171.363 215.298C171.725 215.659 172.215 215.863 172.726 215.863H188.034C188.546 215.863 189.036 215.66 189.398 215.298C189.76 214.937 189.963 214.446 189.963 213.934V120.757C189.963 120.246 189.76 119.755 189.398 119.393C189.037 119.031 188.546 118.828 188.035 118.828Z" fill="black"/>
</g>
<path d="M170.797 212.97C170.541 212.97 170.296 212.868 170.115 212.687C169.934 212.506 169.833 212.261 169.833 212.005V136.476L152.291 141.451C152.045 141.521 151.781 141.49 151.558 141.366C151.335 141.241 151.17 141.034 151.1 140.788L147.373 127.742C147.306 127.506 147.331 127.253 147.444 127.035C147.556 126.817 147.747 126.649 147.979 126.567L172.472 117.917C172.576 117.881 172.685 117.862 172.794 117.862H186.105C186.231 117.862 186.357 117.887 186.474 117.935C186.591 117.984 186.697 118.055 186.787 118.144C186.968 118.325 187.07 118.571 187.07 118.826V212.004C187.07 212.26 186.968 212.505 186.787 212.686C186.606 212.867 186.361 212.969 186.105 212.969H170.797V212.97Z" fill="#F2FFF2"/>
<path d="M186.105 118.827V212.005H170.797V135.2L152.028 140.524L148.3 127.478L172.793 118.828L186.105 118.827ZM186.105 116.898H172.793C172.574 116.898 172.357 116.936 172.151 117.008L147.658 125.658C147.195 125.822 146.811 126.156 146.586 126.593C146.361 127.03 146.31 127.536 146.445 128.008L150.173 141.053C150.314 141.545 150.644 141.96 151.09 142.208C151.537 142.456 152.063 142.518 152.555 142.379L168.868 137.752V212.005C168.869 212.517 169.072 213.007 169.434 213.369C169.795 213.731 170.286 213.934 170.797 213.934H186.104C186.616 213.934 187.106 213.731 187.468 213.369C187.83 213.007 188.033 212.517 188.033 212.005V118.827C188.033 118.316 187.83 117.826 187.468 117.464C187.107 117.102 186.617 116.899 186.105 116.898Z" fill="#283B28"/>
<path d="M97.4766 159.898C97.4766 159.346 97.8016 158.898 98.2016 158.898H140.299C140.7 158.898 141.025 159.346 141.025 159.898V172.898C141.025 173.45 140.7 173.898 140.299 173.898H98.2016C97.8016 173.898 97.4766 173.45 97.4766 172.898V159.898Z" stroke="black" stroke-opacity="0.1" stroke-width="2"/>
<path d="M98.2026 160.898C98.2026 160.346 98.5276 159.898 98.9286 159.898H141.026C141.426 159.898 141.752 160.346 141.752 160.898V173.898C141.752 174.45 141.426 174.898 141.026 174.898H98.9286C98.5276 174.898 98.2026 174.45 98.2026 173.898V160.898Z" stroke="black" stroke-opacity="0.1" stroke-width="2"/>
<path d="M96.75 158.898C96.75 158.346 97.075 157.898 97.476 157.898H139.573C139.973 157.898 140.298 158.346 140.298 158.898V171.898C140.298 172.45 139.973 172.898 139.573 172.898H97.476C97.075 172.898 96.75 172.45 96.75 171.898V158.898Z" fill="#F2FFF2" stroke="#283B28" stroke-width="2"/>
<path d="M66.4575 356.741C66.0245 356.873 65.5565 356.828 65.1575 356.615C64.7585 356.402 64.4585 356.041 64.3255 355.608L34.5935 258.356C34.4619 257.923 34.5072 257.456 34.7195 257.056C34.9325 256.656 35.2945 256.357 35.7275 256.225L102.728 235.74C103.16 235.608 103.628 235.654 104.028 235.866C104.226 235.971 104.401 236.114 104.544 236.287C104.686 236.459 104.793 236.659 104.859 236.873L134.592 334.126C134.723 334.559 134.677 335.026 134.465 335.426C134.252 335.825 133.89 336.124 133.458 336.257L66.4575 356.741Z" fill="url(#paint4_radial_3331_1616)"/>
<path d="M102.522 238.695L131.635 333.922L66.6624 353.786L37.5494 258.56L102.522 238.695ZM101.918 233.095L34.9184 253.579C32.5554 254.302 31.2244 256.803 31.9464 259.165L61.6794 356.418C62.4014 358.78 64.9024 360.109 67.2664 359.386L134.266 338.902C136.629 338.179 137.96 335.679 137.237 333.316L107.505 236.064C106.783 233.702 104.282 232.372 101.918 233.095Z" fill="#62C15A"/>
<path d="M102.727 235.74C103.16 235.609 103.628 235.654 104.027 235.866C104.427 236.078 104.726 236.44 104.859 236.873L134.591 334.126C134.723 334.559 134.677 335.027 134.465 335.426C134.252 335.826 133.89 336.124 133.457 336.257L66.4574 356.741C66.0244 356.873 65.5569 356.828 65.1573 356.615C64.7576 356.403 64.4585 356.041 64.3254 355.608L34.5934 258.356C34.4617 257.923 34.507 257.456 34.7194 257.056C34.9324 256.656 35.2944 256.357 35.7274 256.225L102.727 235.74ZM101.918 233.095L34.9184 253.579C32.5554 254.302 31.2244 256.803 31.9464 259.165L61.6794 356.418C62.4014 358.78 64.9024 360.109 67.2664 359.386L134.266 338.902C136.629 338.179 137.96 335.679 137.237 333.316L107.505 236.064C106.783 233.702 104.282 232.372 101.918 233.095Z" fill="#414042"/>
<path d="M38.5938 259.109L101.846 239.77L130.474 333.41L67.2218 352.748L38.5938 259.109Z" stroke="#E5E5E5" stroke-miterlimit="10"/>
<path d="M69.9657 276.199L97.0457 268.189C97.0457 268.189 100.713 267.067 101.993 268.985C103.473 271.203 102.149 272.662 102.149 272.662L95.2227 274.954C95.2227 274.954 94.9897 280.215 100.688 290.353C103.144 294.722 104.306 302.346 103.633 306.508C102.746 312.005 99.3657 313.761 99.3657 313.761C99.3657 313.761 98.3147 314.707 95.0087 315.196C91.7027 315.685 68.9467 319.634 68.9467 319.634C68.9467 319.634 63.5967 320.22 64.6127 313.796C65.2917 309.504 70.1437 308.936 70.1437 308.936L72.7747 308.286C72.7747 308.286 72.2257 301.801 69.4817 296.741C67.0347 292.232 61.3537 282.305 69.9657 276.199Z" fill="#E5DCC7"/>
<path d="M69.9657 276.199L97.0457 268.189C97.0457 268.189 100.713 267.067 101.993 268.985C103.473 271.203 102.149 272.662 102.149 272.662L95.2227 274.954C95.2227 274.954 94.9897 280.215 100.688 290.353C103.144 294.722 104.306 302.346 103.633 306.508C102.746 312.005 99.3657 313.761 99.3657 313.761C99.3657 313.761 98.3147 314.707 95.0087 315.196C91.7027 315.685 68.9467 319.634 68.9467 319.634C68.9467 319.634 63.5967 320.22 64.6127 313.796C65.2917 309.504 70.1437 308.936 70.1437 308.936L72.7747 308.286C72.7747 308.286 72.2257 301.801 69.4817 296.741C67.0347 292.232 61.3537 282.305 69.9657 276.199Z" stroke="#605745" stroke-miterlimit="10"/>
<path d="M69.6944 309.533L96.3504 303.497C96.3504 303.497 91.7894 305.079 91.5544 308.803C91.3444 312.127 93.8404 313.126 93.8404 313.126L65.9764 318.098C65.9764 318.098 64.3864 316.805 65.2644 313.267C66.0954 309.921 69.6574 309.758 69.6944 309.533Z" fill="#E5DCC7"/>
<path d="M73.4006 308.629L97.5926 303.745C97.5926 303.745 97.2406 303.531 96.3596 303.469C95.7666 303.562 73.3876 308.139 73.3876 308.139L73.4006 308.629ZM94.5556 274.553C94.5556 274.553 94.7976 269.33 97.3036 268.658C98.5206 268.332 100.597 267.863 101.736 269.571C102.637 270.922 101.937 272.213 101.937 272.213L94.5556 274.553ZM65.9766 318.098L93.8406 313.126C93.8406 313.126 94.8216 313.752 95.9096 313.747C97.5286 313.739 98.8216 313.515 98.8216 313.515C98.8216 313.515 97.7336 314.426 93.5086 314.995C89.2836 315.564 68.5126 319.234 68.5126 319.234C68.5126 319.234 66.3696 319.064 65.9766 318.098Z" fill="#A09680"/>
<path d="M91.7346 310.284L100.006 308.551C100.006 308.551 99.2916 302.836 96.1796 303.627C93.0676 304.418 91.1886 307.409 91.7346 310.284Z" fill="#A09680"/>
<path d="M93.8396 313.125C93.8396 313.125 93.2756 313.032 92.5386 312.013C91.8016 310.994 91.7346 310.282 91.7346 310.282L92.7746 309.988C92.7746 309.988 94.0606 312.62 95.9526 312.77C96.8596 312.843 98.1976 313.027 99.5276 311.849C101.436 310.16 102.522 307.24 102.542 304.752C102.232 299.606 102.253 299.046 101.415 295.948C100.323 291.91 93.2826 280.926 93.8266 274.224C94.2176 269.421 96.5236 269.031 96.5236 269.031C96.5236 269.031 92.3826 272.986 96.4986 283.052C96.4986 283.052 98.5346 288.179 99.7006 289.987C100.568 291.333 103.232 296.688 103.202 303.923C103.169 311.735 98.9086 313.443 98.9086 313.443C96.9926 313.986 96.0776 314.437 93.8396 313.125Z" fill="#A09680"/>
<path d="M144.523 305.575C144.523 305.575 151.718 310.139 153.456 312.925C154.525 314.641 154.121 299.865 154.121 299.865L144.523 305.575Z" fill="#9E7B44"/>
<path d="M193.407 334.061C193.473 334.275 193.496 334.5 193.474 334.724C193.453 334.947 193.387 335.163 193.282 335.361C193.176 335.559 193.033 335.735 192.86 335.877C192.687 336.019 192.488 336.127 192.273 336.192L125.141 356.717C124.927 356.783 124.702 356.806 124.478 356.784C124.255 356.763 124.038 356.697 123.84 356.592C123.642 356.487 123.467 356.344 123.324 356.171C123.182 355.998 123.075 355.798 123.009 355.584L93.2775 258.332C93.1455 257.899 93.1905 257.431 93.4025 257.032C93.6145 256.633 93.9775 256.333 94.4115 256.201L161.543 235.676C161.758 235.61 161.983 235.587 162.206 235.608C162.429 235.63 162.646 235.695 162.843 235.801C163.243 236.013 163.542 236.376 163.674 236.809L193.407 334.061Z" fill="url(#paint5_radial_3331_1616)"/>
<path d="M161.075 238.712L190.188 333.938L125.348 353.762L96.2346 258.536L161.075 238.712ZM160.587 233.076L93.5866 253.561C91.2226 254.283 89.9096 256.779 90.6316 259.141L120.364 356.394C120.533 356.955 120.812 357.478 121.184 357.931C121.557 358.384 122.014 358.76 122.532 359.036C123.049 359.312 123.616 359.484 124.2 359.541C124.783 359.598 125.373 359.539 125.934 359.368L192.934 338.883C195.297 338.161 196.512 335.696 195.79 333.333L166.057 236.08C165.335 233.718 162.891 232.371 160.528 233.094L160.587 233.076Z" fill="#BEDB6E"/>
<path d="M161.303 235.75C162.203 235.475 163.137 235.99 163.412 236.889L193.144 334.142C193.419 335.042 193.027 335.963 192.127 336.238L125.126 356.722C124.226 356.998 123.286 356.484 123.011 355.585L93.2786 258.332C93.0036 257.432 93.4956 256.481 94.3956 256.206L161.325 235.743L161.303 235.75ZM160.587 233.076L93.5866 253.561C91.2226 254.283 89.9096 256.779 90.6316 259.141L120.364 356.394C120.533 356.955 120.812 357.478 121.184 357.931C121.557 358.384 122.014 358.76 122.532 359.036C123.049 359.312 123.616 359.484 124.2 359.541C124.783 359.598 125.373 359.539 125.934 359.368L192.934 338.883C195.297 338.161 196.512 335.696 195.79 333.333L166.057 236.08C165.335 233.718 162.891 232.371 160.528 233.094L160.587 233.076Z" fill="#414042"/>
<path d="M97.2744 259.087L160.526 239.748L189.154 333.387L125.901 352.726L97.2744 259.087Z" stroke="#E5E5E5" stroke-miterlimit="10"/>
<path d="M145.396 318.094C142.029 319.123 138.738 319.84 137.657 319.961C135.985 320.149 132.417 319.687 129.958 317.648C128.443 316.392 127.601 314.758 127.455 312.789C127.431 312.488 127.432 312.186 127.457 311.886L127.588 278.52C127.589 278.387 127.627 278.258 127.699 278.147C127.797 277.996 130.133 274.433 133.707 272.616C135.013 271.952 136.098 271.492 137.026 271.208C138.372 270.796 139.432 270.725 140.682 270.961C142.074 271.224 143.681 271.082 145.461 270.538L145.851 270.413L146.139 270.32C148.25 269.675 153.355 268.734 154.528 269.124C155.373 269.406 155.36 270.287 155.346 271.22C155.328 272.46 155.297 274.537 156.543 277.518C158.323 281.775 158.264 286.149 158.238 288.016V288.675C158.274 288.778 158.41 289.097 158.542 289.407C159.3 291.191 160.878 294.903 160.927 297.442C160.985 300.376 161.502 302.725 161.507 302.748C161.528 302.838 161.529 302.931 161.513 303.022C161.497 303.112 161.463 303.199 161.412 303.276C161.362 303.353 161.297 303.42 161.22 303.471C161.144 303.523 161.058 303.559 160.967 303.577C158.944 303.976 156.916 304.358 154.885 304.721C154.918 311.796 154.567 312.818 154.412 313.165C154.343 313.373 154.247 313.571 154.126 313.755C153.204 315.145 150.266 316.605 145.394 318.094H145.396Z" fill="#F2DE9C"/>
<path d="M137.229 271.87C138.635 271.44 139.588 271.459 140.555 271.641C142.013 271.917 143.741 271.788 145.664 271.199L146.071 271.069L146.342 270.983C148.579 270.299 153.421 269.485 154.311 269.781C155.238 270.091 153.762 272.654 155.907 277.786C158.052 282.918 157.438 288.333 157.564 288.827C157.69 289.321 160.178 294.416 160.237 297.456C160.296 300.496 160.834 302.899 160.834 302.899L154.192 304.143C154.218 307.606 154.168 312.046 153.769 312.913C153.718 313.076 153.645 313.231 153.552 313.373C152.583 314.832 148.848 316.316 145.194 317.433C141.887 318.444 138.646 319.155 137.58 319.275C135.361 319.524 128.567 318.435 128.145 312.739C128.122 312.466 128.123 312.193 128.149 311.921L128.28 278.523C128.28 278.523 130.571 274.987 134.021 273.233C135.333 272.566 136.366 272.134 137.229 271.87ZM136.825 270.547C135.859 270.843 134.737 271.318 133.395 272C129.656 273.901 127.221 277.614 127.12 277.771C126.976 277.994 126.898 278.253 126.897 278.518L126.766 311.855C126.74 312.185 126.74 312.516 126.766 312.845C126.924 314.973 127.875 316.82 129.516 318.182C132.14 320.357 135.949 320.85 137.734 320.649C139.005 320.507 142.373 319.742 145.598 318.756C153.177 316.439 154.327 314.707 154.705 314.137C154.853 313.914 154.971 313.673 155.058 313.419C155.254 312.975 155.593 311.878 155.581 305.299L161.104 304.256C161.285 304.22 161.456 304.148 161.609 304.045C161.761 303.942 161.892 303.809 161.993 303.654C162.093 303.499 162.162 303.326 162.195 303.145C162.228 302.964 162.224 302.778 162.183 302.598C162.178 302.576 161.675 300.277 161.619 297.428C161.567 294.756 159.955 290.961 159.18 289.137L158.928 288.535C158.928 288.366 158.929 288.196 158.932 288.026C158.958 286.115 159.018 281.641 157.183 277.252C155.992 274.403 156.021 272.493 156.039 271.23C156.053 270.251 156.073 268.911 154.749 268.469C153.229 267.963 147.544 269.168 145.937 269.66L145.631 269.757L145.259 269.877C143.612 270.38 142.074 270.521 140.811 270.282C139.459 270.027 138.268 270.106 136.825 270.547Z" fill="#77491B"/>
<path d="M128.145 312.738C127.909 309.565 130.29 308.69 137.033 306.809C143.776 304.928 144.406 305.112 146.442 305.396C148.478 305.68 155.399 310.593 153.552 313.372C151.705 316.151 139.823 319.022 137.58 319.274C135.361 319.524 128.567 318.434 128.145 312.738Z" fill="#BC995B"/>
<path d="M142.598 305.484L142.884 305.425L143.514 305.29L141.924 305.565L142.207 305.534L142.598 305.484ZM138.645 318.35C135.409 318.982 132.445 317.833 129.457 316.155C131.64 318.887 135.908 319.462 137.58 319.274C139.693 319.037 150.361 316.475 153.131 313.855C149.136 316.082 144.55 317.195 138.645 318.35Z" fill="#9E7B44"/>
<path d="M128.113 312.718L128.248 278.503C128.248 278.503 130.539 274.967 133.989 273.213C137.439 271.459 138.962 271.327 140.523 271.621C142.084 271.915 143.952 271.748 146.039 271.049C148.126 270.35 153.351 269.453 154.278 269.761C155.205 270.069 153.729 272.635 155.874 277.766C158.019 282.897 157.405 288.313 157.531 288.807C157.657 289.301 160.146 294.396 160.204 297.436C160.262 300.476 160.801 302.879 160.801 302.879C160.801 302.879 146.518 305.732 141.453 305.852C138.419 305.924 129.734 308.769 128.113 312.718Z" fill="#F2DE9C"/>
<path opacity="0.5" d="M143.953 286.357C144.889 291.996 146.798 303.889 146.801 305.343C147.05 305.323 152.414 304.481 153.102 304.372C153.11 304.287 148.555 303.043 145.916 292.639C145.659 291.63 144.541 288.402 143.953 286.357ZM154.31 269.779C153.382 269.471 148.159 270.368 146.071 271.067C143.983 271.766 142.115 271.934 140.555 271.639L140.359 271.605C140.42 271.716 142.643 276.827 143.612 279.961C144.63 282.706 147.246 289.568 147.782 290.108C147.355 287.696 145.294 282.852 144.533 277.448C144.132 274.598 142.776 272.52 143.989 272.419C145.168 271.971 146.826 271.395 147.967 271.219C149.602 270.968 152.469 269.843 153.872 270.568C153.974 270.621 154.095 270.85 154.4 272.942C154.728 275.187 155.501 277.439 156.015 278.064L155.905 277.784C153.761 272.652 155.237 270.089 154.31 269.779ZM156.842 288.425C157.249 290.87 158.945 292.687 158.637 298.513C158.538 300.39 157.59 298.983 156.021 294.457C156.121 295.097 156.813 298.454 157.252 300.304C157.743 301.351 157.935 302.39 158.015 303.418L160.833 302.897C160.833 302.897 160.217 300.473 160.236 297.454C160.251 294.921 158.087 290.103 158.087 290.103C158.087 290.103 157.549 289.01 157.556 288.521C157.57 287.647 157.594 285.591 157.362 283.585C157.072 286.432 156.713 287.653 156.842 288.425Z" fill="#BC995B"/>
<path d="M130.812 315.683C130.812 315.683 133.682 317.734 137.405 317.608C141.128 317.482 148.32 315.211 150.723 314.078C153.126 312.945 139.066 319.017 130.812 315.683ZM129.59 313.815C129.59 313.815 130.571 309.684 137.654 307.771C146.81 305.297 148.461 307.503 148.461 307.503C148.461 307.503 135.633 305.894 129.59 313.815ZM131.383 313.254C131.383 313.254 134.016 310.075 139.761 308.752C145.506 307.429 148.409 308.135 149.03 308.305C150.53 308.714 152.744 311.024 152.156 311.904C151.61 312.722 146.949 314.6 142.419 315.315C136.552 316.241 134.733 315.496 134.733 315.496C134.733 315.496 139.42 315.292 143.11 314.381C145.408 313.813 150.295 312.799 150.309 310.951C150.32 309.454 146.852 308.754 143.013 309.096C140.063 309.359 134.401 311.297 131.383 313.254ZM131.736 313.847C131.49 314.934 134.904 315.111 140.438 314.151C146.999 313.013 149.385 311.705 149.348 310.993C149.311 310.281 148.944 310.07 145.525 309.848C141.428 309.582 131.983 312.759 131.736 313.847ZM151.76 313.485C151.76 313.485 152.935 312.596 152.867 311.821C152.799 311.046 153.982 313.023 151.76 313.485Z" fill="#9E7B44"/>
<path d="M252.225 334.062C252.357 334.495 252.312 334.963 252.098 335.363C251.883 335.763 251.52 336.062 251.086 336.195L183.717 356.792C183.502 356.858 183.276 356.881 183.052 356.859C182.829 356.838 182.611 356.773 182.413 356.668C182.214 356.563 182.039 356.42 181.896 356.247C181.753 356.075 181.645 355.875 181.58 355.661L151.848 258.409C151.716 257.976 151.761 257.508 151.975 257.108C152.189 256.708 152.553 256.409 152.987 256.276L220.355 235.679C220.79 235.546 221.259 235.591 221.66 235.803C221.858 235.907 222.033 236.05 222.176 236.223C222.319 236.396 222.426 236.595 222.492 236.81L252.225 334.062Z" fill="url(#paint6_radial_3331_1616)"/>
<path d="M219.882 238.716L248.994 333.943L183.927 353.836L154.814 258.61L219.882 238.716ZM219.414 233.074L152.179 253.631C149.807 254.356 148.47 256.858 149.192 259.221L178.925 356.473C179.647 358.836 182.155 360.163 184.527 359.438L251.762 338.881C254.134 338.156 255.338 335.694 254.616 333.332L224.883 236.079C224.161 233.717 221.72 232.37 219.348 233.095L219.414 233.074Z" fill="#B5D9E5"/>
<path d="M220.113 235.753C221.016 235.477 221.953 235.991 222.228 236.891L251.96 334.144C252.235 335.044 251.857 335.96 250.953 336.236L183.718 356.792C183.284 356.925 182.814 356.88 182.414 356.668C182.215 356.563 182.04 356.42 181.897 356.248C181.754 356.075 181.646 355.875 181.581 355.661L151.848 258.409C151.716 257.976 151.762 257.508 151.976 257.108C152.19 256.708 152.554 256.409 152.988 256.276L220.136 235.746L220.113 235.753ZM219.414 233.074L152.179 253.631C149.807 254.356 148.47 256.858 149.192 259.221L178.925 356.473C179.647 358.836 182.155 360.163 184.527 359.438L251.762 338.881C254.134 338.156 255.338 335.694 254.616 333.332L224.883 236.079C224.161 233.717 221.72 232.37 219.348 233.095L219.414 233.074Z" fill="#414042"/>
<path d="M155.852 259.16L219.326 239.753L247.954 333.393L184.479 352.799L155.852 259.16Z" stroke="#E5E5E5" stroke-miterlimit="10"/>
<path d="M198.925 316.195L197.498 316.56C196.494 316.768 195.472 316.877 194.446 316.885C194.384 316.903 194.32 316.913 194.256 316.914C194.218 316.915 193.325 316.926 192.018 316.711L191.914 316.694L191.582 316.633C190.67 316.465 189.776 316.212 188.912 315.879L188.368 315.659L188.338 315.645L188.117 315.549C185.851 314.523 183.88 313.058 183.33 312.633C180.143 310.245 178.031 306.695 177.392 302.642C176.095 294.408 181.083 286.376 188.995 283.957C189.464 283.813 189.945 283.69 190.426 283.591C191.758 283.313 193.12 283.212 194.478 283.291C194.744 283.263 195.214 283.282 196.379 283.514L196.583 283.558L196.715 283.588C196.904 283.629 197.071 283.669 197.236 283.71L197.598 283.805L197.943 283.906L198.234 283.994C198.99 284.236 199.729 284.528 200.447 284.867L200.648 284.763C202.534 283.707 204.582 282.838 206.733 282.18C209.29 281.398 211.834 280.962 214.292 280.884C219.931 280.703 224.061 282.471 225.363 285.616C225.681 286.121 226.08 287.369 226.201 287.763C226.458 288.593 226.838 290.052 226.854 290.113C226.87 290.174 226.877 290.237 226.876 290.3C227.076 291.499 226.879 292.776 226.289 294.099C226.479 294.76 226.661 295.425 226.835 296.091C226.851 296.153 226.858 296.216 226.857 296.278C227.09 297.678 226.788 299.171 225.958 300.718C223.876 304.596 218.73 308.182 212.528 310.079C210.5 310.699 208.464 311.104 206.472 311.284C204.426 313.614 201.822 315.309 198.925 316.195Z" fill="#C9C9C9"/>
<path d="M189.199 284.618L190.567 284.268C191.86 283.998 193.184 283.902 194.502 283.985C194.749 283.944 195.303 284.005 196.243 284.192L196.53 284.255L196.585 284.267L197.414 284.472L197.673 284.547L198.02 284.652C198.859 284.921 199.676 285.252 200.465 285.645L200.976 285.373C202.8 284.351 204.826 283.487 206.937 282.842C209.345 282.106 211.863 281.654 214.315 281.575C219.84 281.398 223.642 283.163 224.748 285.942C224.935 286.179 225.3 287.192 225.54 287.968C225.795 288.793 226.184 290.289 226.184 290.289L226.17 290.286C226.391 291.422 226.202 292.692 225.551 294.047C225.805 294.888 226.165 296.267 226.165 296.267L226.151 296.265C226.392 297.502 226.149 298.9 225.348 300.394C223.292 304.222 218.13 307.644 212.328 309.418C210.307 310.036 208.207 310.454 206.134 310.619C204.207 312.888 201.665 314.635 198.724 315.534C198.275 315.671 197.819 315.787 197.359 315.883C196.294 316.104 195.209 316.207 194.121 316.192L194.248 316.223C194.248 316.223 193.395 316.237 192.134 316.029L192.03 316.012L191.715 315.954C190.845 315.794 189.991 315.553 189.166 315.234C188.991 315.167 188.817 315.097 188.645 315.023L188.615 315.01L188.407 314.919C186.201 313.921 184.285 312.493 183.758 312.086C180.826 309.889 178.714 306.555 178.08 302.533C176.834 294.624 181.74 286.898 189.199 284.618ZM188.795 283.295C184.851 284.501 181.442 287.143 179.197 290.735C176.941 294.346 176.057 298.613 176.709 302.75C177.375 306.978 179.579 310.684 182.914 313.186C183.49 313.63 185.506 315.127 187.831 316.178L188.062 316.28L188.091 316.293C188.278 316.373 188.471 316.451 188.667 316.526C189.572 316.874 190.506 317.137 191.459 317.314L191.79 317.375L191.834 317.382L191.918 317.396C193.273 317.619 194.227 317.607 194.267 317.606C194.359 317.605 194.449 317.594 194.535 317.576C195.578 317.562 196.618 317.449 197.639 317.238C198.14 317.134 198.641 317.006 199.129 316.856C202.063 315.959 204.708 314.267 206.811 311.947C208.762 311.751 210.751 311.346 212.732 310.74C219.103 308.792 224.406 305.077 226.571 301.044C227.467 299.375 227.797 297.75 227.551 296.21C227.548 296.112 227.534 296.014 227.508 295.916C227.496 295.869 227.255 294.946 227.026 294.143C227.585 292.795 227.768 291.484 227.571 290.236C227.568 290.136 227.553 290.037 227.528 289.939C227.512 289.876 227.127 288.403 226.866 287.558C226.632 286.8 226.303 285.846 225.989 285.309C224.554 281.913 220.189 280.003 214.274 280.192C211.754 280.273 209.15 280.719 206.533 281.519C204.414 282.162 202.368 283.026 200.428 284.095C199.782 283.804 199.121 283.55 198.447 283.335C198.35 283.303 198.246 283.273 198.143 283.242L198.072 283.221L198.005 283.201L197.791 283.139L197.405 283.038C197.234 282.995 197.062 282.955 196.889 282.917L196.872 282.913L196.831 282.904L196.74 282.884L196.519 282.835C195.392 282.611 194.842 282.567 194.469 282.597C193.068 282.52 191.662 282.627 190.288 282.913C189.785 283.017 189.287 283.145 188.795 283.295Z" fill="#444444"/>
<path d="M225.345 300.395C222.436 305.814 213.299 310.423 204.937 310.691C199.436 310.866 195.641 309.119 194.515 306.361C193.93 304.926 194.067 303.217 195.063 301.362C197.972 295.943 207.109 291.334 215.472 291.067C223.835 290.8 228.254 294.976 225.345 300.395Z" fill="#6D6D6D"/>
<path d="M193.331 302.83C193.266 303.044 193.67 304.072 193.92 304.899C194.17 305.726 194.666 306.705 194.666 306.705C194.666 306.705 195.074 306.871 195.134 305.69C195.194 304.509 193.44 302.469 193.331 302.83ZM224.692 291.886C224.865 292.026 225.262 293.122 225.517 293.947L226.162 296.269C226.162 296.269 225.723 296.209 225.013 295.264C224.303 294.319 224.4 291.647 224.692 291.886Z" fill="#6D6D6D"/>
<path d="M224.166 296.881C221.256 302.3 212.119 306.91 203.757 307.177C195.395 307.444 190.974 303.268 193.883 297.849C196.792 292.43 205.929 287.82 214.292 287.553C222.655 287.286 227.075 291.463 224.166 296.881Z" fill="#C9C9C9"/>
<path d="M221.602 296.403C219.092 300.647 211.387 304.355 204.395 304.686C197.403 305.017 193.768 301.844 196.28 297.6C198.792 293.356 206.495 289.647 213.488 289.317C220.481 288.987 224.114 292.159 221.602 296.403Z" fill="#C9C9C9" stroke="#6D6D6D" stroke-width="3.066" stroke-miterlimit="10"/>
<path opacity="0.8" d="M224.192 296.882C221.278 302.31 212.125 306.927 203.748 307.195C195.371 307.463 190.943 303.279 193.857 297.85C196.771 292.421 205.924 287.805 214.302 287.537C222.68 287.269 227.106 291.453 224.192 296.882Z" fill="#6D6D6D"/>
<path d="M225.365 294.416C222.455 299.835 213.318 304.444 204.956 304.711C199.455 304.887 195.66 303.14 194.535 300.382C193.949 298.947 194.087 297.238 195.082 295.383C197.991 289.964 207.128 285.355 215.491 285.088C223.854 284.821 228.274 288.997 225.365 294.416Z" fill="#6D6D6D"/>
<path d="M193.351 296.852C193.287 297.066 193.69 298.094 193.94 298.921C194.19 299.748 194.687 300.727 194.687 300.727C194.687 300.727 195.094 300.893 195.155 299.713C195.216 298.533 193.46 296.491 193.351 296.852ZM224.712 285.908C224.885 286.049 225.282 287.144 225.537 287.969L226.182 290.291C226.182 290.291 225.743 290.231 225.033 289.286C224.323 288.341 224.42 285.669 224.712 285.908Z" fill="#6D6D6D"/>
<path d="M224.185 290.904C221.276 296.322 212.139 300.932 203.776 301.199C195.413 301.466 190.993 297.29 193.903 291.871C196.813 286.452 205.949 281.842 214.312 281.575C222.675 281.308 227.094 285.485 224.185 290.904Z" fill="#A8A8A8"/>
<path d="M221.622 290.424C219.111 294.668 211.407 298.376 204.414 298.707C197.421 299.038 193.788 295.865 196.299 291.621C198.81 287.377 206.515 283.669 213.508 283.338C220.501 283.007 224.133 286.18 221.622 290.424Z" fill="#A8A8A8" stroke="#6D6D6D" stroke-width="1.1" stroke-miterlimit="10"/>
<path opacity="0.8" d="M208.152 310.348C208.152 310.348 209.12 308.828 209.488 306.47C209.596 305.775 211.124 303.801 211.124 303.801L211.208 300.099C210.743 289.736 201.214 285.256 201.214 285.256C201.214 285.256 197.152 287.114 194.609 290.717C194.609 290.717 193.429 292.311 193.113 294.257C192.98 295.072 193.154 295.866 193.353 296.851C193.448 297.322 194.13 299.442 194.13 299.442C194.13 299.442 194.828 307.122 195.247 307.593C195.247 307.593 202.755 311.588 208.152 310.348Z" fill="#444444"/>
<path d="M209.845 297.619C211.166 306 205.576 314.178 197.358 315.883C189.14 317.588 181.408 312.176 180.088 303.794C178.768 295.412 184.357 287.235 192.575 285.529C200.793 283.823 208.524 289.236 209.845 297.619Z" fill="#6D6D6D"/>
<path d="M183.605 311.97C183.605 311.97 185.807 313.744 188.403 314.919C191.391 316.271 194.244 316.223 194.244 316.223C194.244 316.223 187.676 314.692 183.605 311.97ZM207.06 290.926C207.06 290.926 203.048 285.547 196.238 284.192C189.428 282.837 202.828 288.07 207.06 290.926Z" fill="#6D6D6D"/>
<path d="M207.838 296.357C209.159 304.738 203.568 312.915 195.351 314.621C187.134 316.327 179.401 310.914 178.08 302.532C176.759 294.15 182.35 285.973 190.567 284.267C198.784 282.561 206.517 287.974 207.838 296.357Z" fill="#C9C9C9"/>
<path d="M205.068 296.931C206.143 303.753 201.593 310.408 194.905 311.796C188.217 313.184 181.924 308.779 180.849 301.957C179.774 295.135 184.324 288.481 191.012 287.093C197.7 285.705 203.992 290.11 205.068 296.931Z" fill="#C9C9C9" stroke="#6D6D6D" stroke-width="1.1" stroke-miterlimit="10"/>
<path opacity="0.4" d="M186.632 295.384C192.072 292.225 198.098 290.05 204.382 288.865C201.08 285.071 195.927 283.154 190.567 284.267C182.684 285.903 177.223 293.494 177.957 301.509C180.65 299.196 183.61 297.139 186.632 295.384Z" fill="#EFEFEF"/>
<path d="M265.594 20V380H20.0938V20H265.594ZM269.425 0H16.2638C7.33275 0 0.09375 7.239 0.09375 16.169V383.83C0.09375 392.761 7.33275 400 16.2638 400H269.425C278.355 400 285.594 392.761 285.594 383.83V16.169C285.594 7.239 278.354 0 269.425 0Z" fill="#62C15A"/>
<path d="M269.425 10C271.06 10.0021 272.628 10.6527 273.785 11.8092C274.941 12.9656 275.592 14.5335 275.594 16.169V383.83C275.592 385.466 274.941 387.034 273.785 388.19C272.628 389.347 271.06 389.998 269.425 390H16.2638C14.6279 389.998 13.0596 389.348 11.9029 388.191C10.7462 387.034 10.0956 385.466 10.0938 383.83V16.169C10.0959 14.5334 10.7466 12.9653 11.9033 11.8088C13.06 10.6524 14.6281 10.0019 16.2638 10H269.425ZM269.425 0H16.2638C7.33275 0 0.09375 7.239 0.09375 16.169V383.83C0.09375 392.761 7.33275 400 16.2638 400H269.425C278.355 400 285.594 392.761 285.594 383.83V16.169C285.594 7.239 278.354 0 269.425 0Z" fill="#414042"/>
</g>
</g>
<defs>
<radialGradient id="paint0_radial_3331_1616" cx="0" cy="0" r="1" gradientUnits="userSpaceOnUse" gradientTransform="translate(142.844 200) scale(175.249 175.25)">
<stop stop-color="#8AD147"/>
<stop offset="0.5" stop-color="#5FB248"/>
<stop offset="1" stop-color="#399346"/>
</radialGradient>
<radialGradient id="paint1_radial_3331_1616" cx="0" cy="0" r="1" gradientUnits="userSpaceOnUse" gradientTransform="translate(143.584 70.8984) scale(30.6109 28.9999)">
<stop stop-color="#CDDB60"/>
<stop offset="0.24" stop-color="#C3D65A"/>
<stop offset="0.631" stop-color="#ABC948"/>
<stop offset="1" stop-color="#91B934"/>
</radialGradient>
<radialGradient id="paint2_radial_3331_1616" cx="0" cy="0" r="1" gradientUnits="userSpaceOnUse" gradientTransform="translate(214.804 70.8984) scale(33.6538 31.8827)">
<stop stop-color="#C5E2F9"/>
<stop offset="0.25" stop-color="#BCDBF1"/>
<stop offset="0.5" stop-color="#A4C7DB"/>
<stop offset="0.75" stop-color="#7CA8B8"/>
<stop offset="1" stop-color="#6696A4"/>
</radialGradient>
<radialGradient id="paint3_radial_3331_1616" cx="0" cy="0" r="1" gradientUnits="userSpaceOnUse" gradientTransform="translate(72.361 70.8979) scale(30.611 28.9995)">
<stop stop-color="#8AD147"/>
<stop offset="0.25" stop-color="#7FCB43"/>
<stop offset="0.5" stop-color="#64B941"/>
<stop offset="0.75" stop-color="#4EA94C"/>
<stop offset="1" stop-color="#399346"/>
</radialGradient>
<radialGradient id="paint4_radial_3331_1616" cx="0" cy="0" r="1" gradientUnits="userSpaceOnUse" gradientTransform="translate(84.5924 296.241) scale(66.1035 55.872)">
<stop stop-color="#8AD147"/>
<stop offset="0.5" stop-color="#5FB248"/>
<stop offset="1" stop-color="#399346"/>
</radialGradient>
<radialGradient id="paint5_radial_3331_1616" cx="0" cy="0" r="1" gradientUnits="userSpaceOnUse" gradientTransform="translate(143.343 296.196) scale(61.8241 52.302)">
<stop stop-color="#CDDB60"/>
<stop offset="0.24" stop-color="#C3D65A"/>
<stop offset="0.631" stop-color="#ABC948"/>
<stop offset="1" stop-color="#91B934"/>
</radialGradient>
<radialGradient id="paint6_radial_3331_1616" cx="0" cy="0" r="1" gradientUnits="userSpaceOnUse" gradientTransform="translate(202.036 296.235) scale(61.9762 52.3332)">
<stop stop-color="#C5E2F9"/>
<stop offset="0.25" stop-color="#BCDBF1"/>
<stop offset="0.5" stop-color="#A4C7DB"/>
<stop offset="0.75" stop-color="#7CA8B8"/>
<stop offset="1" stop-color="#6696A4"/>
</radialGradient>
<clipPath id="clip0_3331_1616">
<rect width="292" height="407" fill="white"/>
</clipPath>
</defs>
</svg>
