<svg xmlns="http://www.w3.org/2000/svg" width="292" height="407" fill="none" viewBox="0 0 292 407"><g clip-path="url(#clip0_930_3700)"><path fill="url(#paint0_radial_930_3700)" d="M16.2638 390C14.6279 389.998 13.0596 389.348 11.9029 388.191C10.7462 387.034 10.0956 385.466 10.0938 383.83V16.169C10.0959 14.5334 10.7466 12.9653 11.9033 11.8088C13.06 10.6524 14.6281 10.0019 16.2638 10H269.425C271.06 10.0021 272.628 10.6527 273.785 11.8092C274.941 12.9656 275.592 14.5335 275.594 16.169V383.83C275.592 385.466 274.941 387.034 273.785 388.19C272.628 389.347 271.06 389.998 269.425 390H16.2638Z"/><path fill="url(#paint1_linear_930_3700)" d="M197.793 242.73C193.966 242.726 190.85 239.624 190.85 235.807V224.416H157.712C156.11 224.414 154.573 223.777 153.44 222.644C152.307 221.511 151.67 219.974 151.668 218.372V186.693C151.67 185.09 152.307 183.554 153.44 182.421C154.573 181.288 156.11 180.65 157.712 180.648H190.85V169.257C190.854 167.419 191.588 165.658 192.89 164.36C194.191 163.062 195.955 162.333 197.793 162.334C199.46 162.334 201.023 162.926 202.306 164.047L240.463 197.322C241.207 197.971 241.802 198.772 242.21 199.671C242.619 200.57 242.83 201.545 242.83 202.532C242.83 203.519 242.619 204.495 242.21 205.393C241.801 206.291 241.207 207.093 240.463 207.743L202.306 241.017C201.063 242.122 199.456 242.731 197.793 242.73Z"/><path fill="#4F0C16" d="M197.792 164.002C198.974 164.002 200.182 164.405 201.212 165.304L239.366 198.579C239.93 199.071 240.383 199.678 240.693 200.36C241.003 201.042 241.164 201.783 241.164 202.532C241.164 203.281 241.004 204.022 240.693 204.704C240.382 205.386 239.93 205.993 239.366 206.485L201.207 239.76C200.266 240.597 199.051 241.06 197.791 241.062C195.083 241.062 192.514 238.942 192.514 235.807V222.748H157.711C156.551 222.748 155.437 222.287 154.617 221.466C153.797 220.645 153.335 219.532 153.335 218.372V186.692C153.335 185.532 153.796 184.418 154.617 183.598C155.438 182.778 156.551 182.316 157.711 182.316H192.517V169.255C192.517 166.121 195.086 164.002 197.792 164.002ZM197.792 160.667C193.045 160.667 189.182 164.522 189.182 169.255V178.981H157.711C155.667 178.983 153.707 179.797 152.261 181.242C150.816 182.688 150.002 184.648 150 186.692V218.372C150.002 220.416 150.816 222.376 152.261 223.822C153.707 225.267 155.667 226.081 157.711 226.083H189.182V235.807C189.182 240.544 193.044 244.397 197.792 244.397C199.857 244.39 201.85 243.635 203.401 242.273L241.556 208.998C242.479 208.193 243.219 207.199 243.727 206.084C244.234 204.968 244.496 203.757 244.496 202.532C244.496 201.307 244.234 200.096 243.727 198.98C243.219 197.865 242.479 196.871 241.556 196.066L203.401 162.79C201.849 161.428 199.857 160.674 197.792 160.667Z"/><path fill="#919191" d="M104.406 82.773C103.804 83.381 103.085 83.864 102.293 84.192C101.501 84.52 100.653 84.688 99.7956 84.686L76.7526 84.691C75.0236 84.69 73.3656 84.004 72.1426 82.781C70.9196 81.558 70.2326 79.901 70.2306 78.172L70.2256 64.07C70.2243 63.2127 70.3929 62.3636 70.7216 61.5719C71.0502 60.7801 71.5325 60.0613 72.1406 59.457C72.7436 58.849 73.4606 58.367 74.2516 58.039C75.0423 57.7105 75.8904 57.5422 76.7466 57.544H99.7896C101.52 57.544 103.178 58.23 104.402 59.453C105.625 60.6755 106.313 62.3335 106.316 64.063L106.321 78.168C106.321 79.904 105.64 81.539 104.405 82.774L104.406 82.773Z"/><path fill="#515151" d="M73.5581 60.984C73.941 60.6005 74.3957 60.296 74.8961 60.088C75.3971 59.88 75.9331 59.773 76.4751 59.772L100.071 59.765C102.339 59.765 104.197 61.624 104.197 63.896L104.203 78.338C104.197 79.4318 103.76 80.479 102.986 81.252C102.213 82.025 101.165 82.461 100.071 82.464L76.4801 82.467C75.386 82.4633 74.3377 82.0278 73.5631 81.2551C72.7885 80.4824 72.3504 79.4351 72.3441 78.341V63.901C72.3449 63.3589 72.4525 62.8223 72.661 62.3219C72.8695 61.8216 73.1747 61.3672 73.5591 60.985L73.5581 60.984ZM69.9511 57.379C69.0901 58.232 68.4081 59.249 67.9441 60.368C67.4801 61.487 67.2431 62.688 67.2461 63.9L67.2511 78.339C67.2548 80.7848 68.228 83.1293 69.9574 84.8587C71.6868 86.5881 74.0314 87.5613 76.4771 87.565L100.069 87.563C102.528 87.563 104.847 86.597 106.59 84.848C107.451 83.9957 108.133 82.9806 108.597 81.862C109.061 80.744 109.298 79.544 109.295 78.334L109.29 63.892C109.288 61.446 108.315 59.1 106.586 57.37C104.857 55.64 102.51 54.668 100.064 54.666L76.4721 54.671C75.2601 54.6684 74.0597 54.9063 72.9403 55.371C71.821 55.8356 70.8049 56.5178 69.9511 57.378V57.379Z"/><path fill="#919191" d="M129.969 154.146C129.424 154.694 128.776 155.129 128.062 155.425C127.349 155.721 126.583 155.873 125.811 155.872L50.762 155.882C49.989 155.885 49.223 155.735 48.509 155.439C47.795 155.143 47.145 154.71 46.599 154.163C46.053 153.616 45.619 152.969 45.324 152.256C45.0289 151.542 44.878 150.777 44.88 150.005L44.875 133.119C44.88 131.44 45.561 130.402 46.139 129.826C47.932 128.037 51.192 128.167 54.079 130.136L60.246 134.351C60.394 134.454 60.57 134.509 60.75 134.509L115.815 134.498C115.996 134.5 116.173 134.446 116.323 134.344L122.486 130.125C124.37 128.84 127.178 127.886 129.43 129.08C130.866 129.834 131.692 131.299 131.692 133.104V149.985C131.692 150.758 131.541 151.523 131.245 152.237C130.949 152.952 130.516 153.6 129.969 154.146Z"/><path fill="#515151" d="M46.678 131.275C47.681 130.274 49.867 130.719 51.596 131.902L57.945 136.25C58.525 136.642 59.219 136.859 59.919 136.859L116.648 136.847C117.355 136.847 118.04 136.631 118.623 136.234L124.972 131.889C127.286 130.301 130.439 130.033 130.439 132.843L130.444 150.234C130.444 150.693 130.353 151.148 130.177 151.572C130.001 151.996 129.742 152.381 129.416 152.705C129.092 153.03 128.708 153.288 128.284 153.464C127.86 153.639 127.405 153.729 126.946 153.727L49.629 153.745C48.703 153.745 47.815 153.377 47.16 152.723C46.505 152.069 46.137 151.18 46.137 150.254L46.132 132.854C46.13 132.136 46.336 131.624 46.678 131.275ZM43.051 127.648C42.109 128.59 41 130.25 41 132.856V150.254C41.003 152.54 41.914 154.733 43.532 156.35C45.15 157.967 47.344 158.874 49.631 158.875L126.95 158.862C128.082 158.864 129.203 158.642 130.249 158.208C131.295 157.774 132.246 157.139 133.046 156.337C133.847 155.536 134.483 154.585 134.917 153.539C135.35 152.492 135.573 151.369 135.571 150.236L135.566 132.846C135.566 130.045 134.186 127.648 131.867 126.426C128.538 124.669 124.625 125.911 122.075 127.66L116.145 131.718L60.424 131.723L54.493 127.672C50.421 124.884 45.823 124.877 43.051 127.648Z"/><path fill="#A4A4A4" d="M75.1885 72.7734H101.371V141.837H75.1885V72.7734Z"/><path fill="#676767" d="M77.6179 74.9569L98.9269 74.9549L98.9419 139.651L77.6279 139.654L77.6179 74.9569ZM72.4219 69.7639V74.9569L72.4369 139.655V144.853H77.6279L98.9419 144.851L104.138 144.849V139.65L104.123 74.9519V69.7559H98.9269L77.6179 69.7629L72.4219 69.7639Z"/><path fill="#898989" d="M91.6273 338.892C90.6243 339.905 89.1343 340.377 87.6463 340.166C86.9583 340.074 86.3003 339.824 85.7273 339.432C85.1531 339.042 84.6784 338.523 84.3413 337.916L67.4753 306.731L67.4463 146.131L109.198 146.124L109.227 306.726L92.3663 337.913C92.1713 338.274 91.9213 338.605 91.6273 338.892Z"/><path fill="#676767" d="M69.6101 147.121L107.039 147.114L107.069 307.398L90.2071 338.578C90.1281 338.731 90.0261 338.87 89.9041 338.992C88.9871 339.911 87.1571 339.771 86.5081 338.581L69.6421 307.405L69.6101 147.121ZM64.5401 142.053V147.126L64.5691 307.405L64.5741 308.69L65.1841 309.821L82.0501 340.994C83.1071 342.943 85.0131 344.252 87.2751 344.583C88.3956 344.754 89.5405 344.662 90.6191 344.313C91.6971 343.965 92.6801 343.371 93.4891 342.577C93.9541 342.107 94.3551 341.576 94.6691 340.991L111.524 309.81L112.133 308.679V307.396L112.109 147.114V142.046H107.036L69.6071 142.053H64.5401Z"/><path fill="#E4E4E4" d="M77.75 83.6465H93.618V139.266H77.75V83.6465Z"/><path fill="#E4E4E4" d="M103.908 82.2719C103.369 82.8139 102.728 83.2429 102.023 83.5359C101.318 83.8289 100.56 83.9789 99.7965 83.9779L76.7535 83.9829C75.2125 83.9809 73.7355 83.3679 72.6465 82.2779C71.5575 81.1879 70.9445 79.7109 70.9435 78.1699L70.9385 64.0699C70.9385 62.5179 71.5435 61.0629 72.6425 59.9629C73.1795 59.4199 73.8195 58.9899 74.5245 58.6979C75.2296 58.4053 75.986 58.2561 76.7495 58.2589L99.7925 58.2539C100.556 58.2519 101.313 58.4006 102.019 58.6917C102.725 58.9827 103.366 59.4103 103.906 59.9499C104.447 60.4893 104.876 61.1303 105.167 61.8359C105.46 62.5416 105.609 63.2981 105.608 64.0619L105.613 78.1669C105.615 78.9297 105.465 79.6851 105.172 80.3895C104.88 81.094 104.451 81.7334 103.909 82.2709L103.908 82.2719Z"/><path fill="#515151" d="M73.8992 61.2176C74.2722 60.8426 74.7162 60.5446 75.2052 60.3416C75.6938 60.1381 76.2179 60.0331 76.7472 60.0326L99.7952 60.0276C100.863 60.0326 101.886 60.4595 102.641 61.2152C103.396 61.971 103.822 62.9944 103.826 64.0626L103.831 78.1676C103.827 79.2359 103.401 80.2592 102.645 81.0146C101.889 81.7696 100.866 82.1956 99.7982 82.1986L76.7552 82.2006C75.6857 82.198 74.6607 81.7725 73.9039 81.0169C73.147 80.2613 72.7197 79.2371 72.7152 78.1676V64.0656C72.7152 62.9546 73.1722 61.9486 73.9002 61.2186L73.8992 61.2176ZM71.3832 58.7046C70.6762 59.4066 70.1152 60.2426 69.7332 61.1646C69.3512 62.0866 69.1572 63.0736 69.1602 64.0706V78.1726C69.1602 80.1966 69.9522 82.0996 71.3882 83.5356C72.0911 84.2429 72.9272 84.8037 73.8483 85.1856C74.7694 85.5676 75.7571 85.763 76.7542 85.7606L99.7972 85.7556C100.794 85.7584 101.782 85.5632 102.703 85.1812C103.624 84.7993 104.46 84.2382 105.162 83.5306C105.869 82.828 106.429 81.9922 106.811 81.0716C107.192 80.1506 107.388 79.1636 107.386 78.1676V64.0626C107.388 63.0656 107.192 62.0776 106.811 61.1566C106.43 60.2356 105.869 59.3986 105.162 58.6946C104.455 57.9906 103.621 57.4296 102.699 57.0486C101.777 56.6677 100.79 56.4726 99.7922 56.4746L76.7492 56.4766C75.7522 56.4756 74.7642 56.6716 73.8442 57.0536C72.9232 57.4361 72.0861 57.9972 71.3832 58.7046Z"/><path fill="#E4E4E4" d="M129.47 153.641C128.992 154.123 128.422 154.505 127.795 154.765C127.168 155.025 126.496 155.158 125.816 155.157L50.7648 155.17C49.3848 155.17 48.0848 154.631 47.1108 153.656C46.6301 153.177 46.2488 152.608 45.9888 151.981C45.7288 151.354 45.5968 150.682 45.5978 150.004L45.5928 133.117C45.5928 131.687 46.1678 130.809 46.6498 130.327C48.4498 128.527 51.5578 129.272 53.6798 130.721L59.8468 134.937C60.1158 135.122 60.4338 135.22 60.7588 135.22L115.823 135.208C116.147 135.21 116.464 135.112 116.731 134.928L122.892 130.71C124.526 129.599 127.13 128.665 129.102 129.707C129.803 130.076 130.98 131.011 130.98 133.103V149.984C130.982 150.663 130.85 151.336 130.591 151.964C130.331 152.592 129.949 153.162 129.468 153.641H129.47Z"/><path fill="#515151" d="M47.9035 131.581C48.8745 130.608 50.9965 131.043 52.6715 132.191L58.8385 136.406C59.4015 136.792 60.0685 137.001 60.7495 137.001L115.819 136.987C116.501 136.987 117.167 136.78 117.73 136.393L123.897 132.179C126.144 130.637 129.199 130.377 129.199 133.104L129.204 149.982C129.204 150.921 128.825 151.772 128.211 152.382C127.896 152.698 127.523 152.949 127.111 153.119C126.699 153.29 126.258 153.377 125.813 153.376L50.7615 153.392C49.8625 153.392 49.0002 153.035 48.3645 152.399C47.7285 151.763 47.3715 150.9 47.3705 150.001L47.3655 133.116C47.3655 132.417 47.5665 131.921 47.9035 131.581ZM45.3875 129.066C44.6665 129.786 43.8115 131.075 43.8115 133.116L43.8165 150.001C43.8175 151.844 44.5505 153.61 45.8535 154.913C47.1567 156.215 48.9235 156.946 50.7655 156.946L125.814 156.933C126.726 156.936 127.63 156.758 128.474 156.409C129.317 156.06 130.083 155.547 130.727 154.9C131.374 154.256 131.888 153.489 132.238 152.645C132.587 151.801 132.766 150.896 132.764 149.982L132.758 133.104C132.758 130.89 131.726 129.081 129.931 128.129C127.255 126.723 124.024 127.78 121.888 129.243L115.769 133.428L60.8055 133.438L54.6825 129.255C51.3605 126.983 47.5445 126.909 45.3875 129.066Z"/><path fill="#676767" d="M99.9107 126.81V124.294C99.9107 124.294 95.3047 122.858 88.2817 122.86C81.2587 122.862 76.7267 124.299 76.7267 124.299L76.7317 126.815C76.7317 126.815 83.1247 125.373 88.2817 125.373C93.4307 125.373 99.9107 126.81 99.9107 126.81ZM99.9107 111.825V109.306C99.9107 109.306 95.2997 107.871 88.2797 107.873C81.2547 107.873 76.7297 109.311 76.7297 109.311L76.7247 111.827C76.7247 111.827 83.1277 110.386 88.2797 110.386C93.4317 110.386 99.9107 111.825 99.9107 111.825ZM99.9057 98.2098V95.6938C99.9057 95.6938 95.2997 94.2598 88.2767 94.2598C81.2537 94.2598 76.7217 95.7008 76.7217 95.7008V98.2138C76.7217 98.2138 83.1247 96.7778 88.2767 96.7748C93.4287 96.7718 99.9057 98.2098 99.9057 98.2098Z"/><path fill="#BBB" d="M86.5404 337.998L69.9664 307.369L69.9414 169.488L106.716 169.482L106.74 307.359L90.1764 337.998C89.4604 339.324 87.2564 339.318 86.5404 337.998Z"/><path fill="#E4E4E4" d="M88.3544 338.988C87.6244 338.988 86.8984 338.656 86.5394 337.997L69.9654 307.368L69.9404 169.486L88.3314 169.484L88.3544 338.988Z"/><path stroke="#676767" stroke-miterlimit="10" stroke-width="3" d="M68.1797 168.229L108.163 168.125"/><path fill="#E4E4E4" d="M123.662 133.608C123.674 133.227 123.593 132.848 123.426 132.504L117.732 136.396C117.169 136.783 116.502 136.99 115.821 136.99L112.046 136.994C111.516 137.32 110.906 137.493 110.283 137.496L55.2142 137.506C54.5322 137.505 53.8662 137.299 53.3032 136.913L47.3922 132.871C47.3872 132.952 47.3672 133.03 47.3672 133.119L47.3722 150.005C47.3725 150.451 47.4606 150.892 47.6315 151.303C47.8024 151.715 48.0527 152.089 48.3682 152.403C48.6839 152.718 49.0583 152.968 49.4702 153.139C49.8822 153.309 50.3232 153.397 50.7692 153.396L122.035 153.379C123.01 152.783 123.669 151.719 123.669 150.491L123.663 133.608H123.662ZM74.8422 60.5372C74.2023 60.8799 73.6669 61.3891 73.2926 62.011C72.9182 62.6329 72.7187 63.3443 72.7152 64.0702L72.7202 78.1732C72.7234 79.2417 73.1497 80.2655 73.9059 81.0204C74.6622 81.7753 75.6867 82.1999 76.7552 82.2012H96.1692C97.4332 81.5182 98.2962 80.1992 98.2962 78.6722L98.2922 64.5672C98.2922 62.3492 96.4772 60.5322 94.2562 60.5342L74.8422 60.5372Z"/><path fill="#F7F7F7" d="M76.1224 62.5997L88.0384 62.5977C89.1104 62.5977 89.9934 63.4757 89.9934 64.5527C89.9914 65.0707 89.7844 65.5667 89.4184 65.9327C89.0524 66.2987 88.5564 66.5057 88.0384 66.5077L76.1224 66.5097C75.6039 66.5083 75.1071 66.3017 74.7407 65.9349C74.3743 65.5681 74.1682 65.0711 74.1674 64.5527C74.1695 64.0351 74.3762 63.5394 74.7425 63.1737C75.1088 62.808 75.6048 62.601 76.1224 62.5997ZM60.6894 143.275L91.0434 143.27C91.5624 143.269 92.0594 143.062 92.4264 142.694C92.7908 142.326 92.9951 141.829 92.9945 141.312C92.994 140.794 92.7886 140.297 92.4234 139.931C92.0571 139.565 91.561 139.359 91.0434 139.358L60.6894 139.36C59.6124 139.36 58.7344 140.243 58.7344 141.318C58.7344 142.393 59.6144 143.275 60.6894 143.275Z"/><path fill="#CDEBFF" d="M265.594 20V380H20.0938V20H265.594ZM269.425 0H16.2638C7.33275 0 0.09375 7.239 0.09375 16.169V383.83C0.09375 392.761 7.33275 400 16.2638 400H269.425C278.355 400 285.594 392.761 285.594 383.83V16.169C285.594 7.239 278.354 0 269.425 0Z"/><path fill="#414042" d="M269.425 10C271.06 10.0021 272.628 10.6527 273.785 11.8092C274.941 12.9656 275.592 14.5335 275.594 16.169V383.83C275.592 385.466 274.941 387.034 273.785 388.19C272.628 389.347 271.06 389.998 269.425 390H16.2638C14.6279 389.998 13.0596 389.348 11.9029 388.191C10.7462 387.034 10.0956 385.466 10.0938 383.83V16.169C10.0959 14.5334 10.7466 12.9653 11.9033 11.8088C13.06 10.6524 14.6281 10.0019 16.2638 10H269.425ZM269.425 0H16.2638C7.33275 0 0.09375 7.239 0.09375 16.169V383.83C0.09375 392.761 7.33275 400 16.2638 400H269.425C278.355 400 285.594 392.761 285.594 383.83V16.169C285.594 7.239 278.354 0 269.425 0Z"/></g><defs><radialGradient id="paint0_radial_930_3700" cx="0" cy="0" r="1" gradientTransform="translate(142.844 200) scale(177.165 177.499)" gradientUnits="userSpaceOnUse"><stop stop-color="#A4C7DC"/><stop offset=".495" stop-color="#85AEC0"/><stop offset="1" stop-color="#6696A4"/></radialGradient><linearGradient id="paint1_linear_930_3700" x1="211.869" x2="174.107" y1="169.41" y2="234.815" gradientUnits="userSpaceOnUse"><stop stop-color="#EC6F66"/><stop offset=".008" stop-color="#EC6D65"/><stop offset=".17" stop-color="#EC504D"/><stop offset=".341" stop-color="#EC393B"/><stop offset=".525" stop-color="#EC292E"/><stop offset=".731" stop-color="#EC1F26"/><stop offset="1" stop-color="#EC1C24"/></linearGradient><clipPath id="clip0_930_3700"><rect width="291.969" height="406.205" fill="#fff"/></clipPath></defs></svg>