<svg width="292" height="407" viewBox="0 0 292 407" fill="none" xmlns="http://www.w3.org/2000/svg">
<g clip-path="url(#clip0_930_3689)">
<path d="M16.2638 390C14.6279 389.998 13.0596 389.348 11.9029 388.191C10.7462 387.034 10.0956 385.466 10.0938 383.83V16.169C10.0959 14.5334 10.7466 12.9653 11.9033 11.8088C13.06 10.6524 14.6281 10.0019 16.2638 10H269.425C271.06 10.0021 272.628 10.6527 273.785 11.8092C274.941 12.9656 275.592 14.5335 275.594 16.169V383.83C275.592 385.466 274.941 387.034 273.785 388.19C272.628 389.347 271.06 389.998 269.425 390H16.2638Z" fill="url(#paint0_radial_930_3689)"/>
<path d="M188.793 243.73C184.966 243.726 181.85 240.624 181.85 236.807V225.416H148.712C147.11 225.414 145.573 224.777 144.44 223.644C143.307 222.511 142.67 220.974 142.668 219.372V187.693C142.67 186.09 143.307 184.554 144.44 183.421C145.573 182.288 147.11 181.65 148.712 181.648H181.85V170.257C181.854 168.419 182.588 166.658 183.89 165.36C185.191 164.062 186.955 163.333 188.793 163.334C190.46 163.334 192.023 163.926 193.306 165.047L231.463 198.322C232.207 198.971 232.802 199.772 233.21 200.671C233.619 201.57 233.83 202.545 233.83 203.532C233.83 204.519 233.619 205.495 233.21 206.393C232.801 207.291 232.207 208.093 231.463 208.743L193.306 242.017C192.063 243.122 190.456 243.731 188.793 243.73Z" fill="url(#paint1_linear_930_3689)"/>
<path d="M188.792 165.002C189.974 165.002 191.182 165.405 192.212 166.304L230.366 199.579C230.93 200.071 231.383 200.678 231.693 201.36C232.003 202.042 232.164 202.783 232.164 203.532C232.164 204.281 232.004 205.022 231.693 205.704C231.382 206.386 230.93 206.993 230.366 207.485L192.207 240.76C191.266 241.597 190.051 242.06 188.791 242.062C186.083 242.062 183.514 239.942 183.514 236.807V223.748H148.711C147.551 223.748 146.437 223.287 145.617 222.466C144.797 221.645 144.335 220.532 144.335 219.372V187.692C144.335 186.532 144.796 185.418 145.617 184.598C146.438 183.778 147.551 183.316 148.711 183.316H183.517V170.255C183.517 167.121 186.086 165.002 188.792 165.002ZM188.792 161.667C184.045 161.667 180.182 165.522 180.182 170.255V179.981H148.711C146.667 179.983 144.707 180.797 143.261 182.242C141.816 183.688 141.002 185.648 141 187.692V219.372C141.002 221.416 141.816 223.376 143.261 224.822C144.707 226.267 146.667 227.081 148.711 227.083H180.182V236.807C180.182 241.544 184.044 245.397 188.792 245.397C190.857 245.39 192.85 244.635 194.401 243.273L232.556 209.998C233.479 209.193 234.219 208.199 234.727 207.084C235.234 205.968 235.496 204.757 235.496 203.532C235.496 202.307 235.234 201.096 234.727 199.98C234.219 198.865 233.479 197.871 232.556 197.066L194.401 163.79C192.849 162.428 190.857 161.674 188.792 161.667Z" fill="#4F0C16"/>
<path d="M51.9131 306.952V94.3692L78.6581 80.4922L105.472 94.4192V306.952L78.6581 320.854L51.9131 306.952Z" fill="url(#paint2_linear_930_3689)"/>
<path d="M78.6626 81.292L104.7 94.819V306.54L78.6626 320.042L52.6946 306.54V94.794L78.6626 81.292ZM78.6626 79.667L77.8856 80.067L51.9176 93.569L51.1406 93.982V307.34L51.9176 307.752L77.8856 321.254L78.6626 321.667L79.4396 321.254L105.477 307.752L106.254 307.34V94.019L105.477 93.607L79.4396 80.067L78.6626 79.667Z" fill="black"/>
<path d="M78.6623 86.1443L100.036 97.2463V304.103L78.6623 315.193L57.3583 304.116V97.2203L78.6623 86.1443ZM78.6623 81.2813L52.6943 94.7953V306.54L78.6623 320.042L104.699 306.54V94.8203L78.6623 81.2933V81.2813Z" fill="#4F4F4F"/>
<path d="M265.594 20V380H20.0938V20H265.594ZM269.425 0H16.2638C7.33275 0 0.09375 7.239 0.09375 16.169V383.83C0.09375 392.761 7.33275 400 16.2638 400H269.425C278.355 400 285.594 392.761 285.594 383.83V16.169C285.594 7.239 278.354 0 269.425 0Z" fill="#CDEBFF"/>
<path d="M269.425 10C271.06 10.0021 272.628 10.6527 273.785 11.8092C274.941 12.9656 275.592 14.5335 275.594 16.169V383.83C275.592 385.466 274.941 387.034 273.785 388.19C272.628 389.347 271.06 389.998 269.425 390H16.2638C14.6279 389.998 13.0596 389.348 11.9029 388.191C10.7462 387.034 10.0956 385.466 10.0938 383.83V16.169C10.0959 14.5334 10.7466 12.9653 11.9033 11.8088C13.06 10.6524 14.6281 10.0019 16.2638 10H269.425ZM269.425 0H16.2638C7.33275 0 0.09375 7.239 0.09375 16.169V383.83C0.09375 392.761 7.33275 400 16.2638 400H269.425C278.355 400 285.594 392.761 285.594 383.83V16.169C285.594 7.239 278.354 0 269.425 0Z" fill="#414042"/>
</g>
<defs>
<radialGradient id="paint0_radial_930_3689" cx="0" cy="0" r="1" gradientUnits="userSpaceOnUse" gradientTransform="translate(142.844 200) scale(177.165 177.499)">
<stop stop-color="#A4C7DC"/>
<stop offset="0.495209" stop-color="#85AEC0"/>
<stop offset="1" stop-color="#6696A4"/>
</radialGradient>
<linearGradient id="paint1_linear_930_3689" x1="202.869" y1="170.41" x2="165.107" y2="235.815" gradientUnits="userSpaceOnUse">
<stop stop-color="#EC6F66"/>
<stop offset="0.008" stop-color="#EC6D65"/>
<stop offset="0.17" stop-color="#EC504D"/>
<stop offset="0.341" stop-color="#EC393B"/>
<stop offset="0.525" stop-color="#EC292E"/>
<stop offset="0.731" stop-color="#EC1F26"/>
<stop offset="1" stop-color="#EC1C24"/>
</linearGradient>
<linearGradient id="paint2_linear_930_3689" x1="51.9131" y1="200.661" x2="105.472" y2="200.661" gradientUnits="userSpaceOnUse">
<stop offset="0.15" stop-color="#D5D5D5"/>
<stop offset="0.5" stop-color="#5E5E5E"/>
<stop offset="0.85" stop-color="#D5D5D5"/>
</linearGradient>
<clipPath id="clip0_930_3689">
<rect width="291.969" height="406.205" fill="white"/>
</clipPath>
</defs>
</svg>
