<svg xmlns="http://www.w3.org/2000/svg" width="292" height="407" fill="none" viewBox="0 0 292 407"><g clip-path="url(#clip0_3331_1678)"><mask id="mask0_3331_1678" width="292" height="407" x="0" y="0" maskUnits="userSpaceOnUse" style="mask-type:luminance"><path fill="#fff" d="M291.969 0H0V406.205H291.969V0Z"/></mask><g mask="url(#mask0_3331_1678)"><path fill="url(#paint0_radial_3331_1678)" d="M16.2638 390C14.6279 389.998 13.0596 389.348 11.9029 388.191C10.7462 387.034 10.0956 385.466 10.0938 383.83V16.169C10.0959 14.5334 10.7466 12.9653 11.9033 11.8088C13.06 10.6524 14.6281 10.0019 16.2638 10H269.425C271.06 10.0021 272.628 10.6527 273.785 11.8092C274.941 12.9656 275.592 14.5335 275.594 16.169V383.83C275.592 385.466 274.941 387.034 273.785 388.19C272.628 389.347 271.06 389.998 269.425 390H16.2638Z"/><path fill="#000" d="M176.64 178.898C176.384 178.898 176.139 178.797 175.958 178.616C175.777 178.435 175.676 178.19 175.676 177.934V102.405L158.134 107.38C157.888 107.45 157.624 107.419 157.401 107.294C157.179 107.169 157.014 106.961 156.943 106.716L153.216 93.67C153.149 93.434 153.174 93.181 153.287 92.963C153.4 92.745 153.591 92.578 153.822 92.496L178.315 83.846C178.419 83.81 178.528 83.791 178.637 83.791H191.948C192.204 83.791 192.45 83.893 192.63 84.073C192.81 84.253 192.913 84.499 192.913 84.755V177.933C192.913 178.189 192.811 178.434 192.63 178.615C192.541 178.705 192.435 178.776 192.318 178.824C192.201 178.873 192.075 178.897 191.948 178.897L176.64 178.898Z" opacity=".3"/><path fill="#000" d="M191.949 84.7571V177.934H176.641V101.13L157.872 106.454L154.144 93.4081L178.637 84.7581L191.949 84.7571ZM191.949 82.8281H178.637C178.418 82.8281 178.201 82.8661 177.995 82.9381L153.502 91.5881C153.038 91.7517 152.655 92.0857 152.43 92.5221C152.205 92.9591 152.154 93.4651 152.29 93.9371L156.017 106.983C156.157 107.474 156.487 107.89 156.934 108.138C157.38 108.386 157.907 108.448 158.399 108.308L174.712 103.681V177.933C174.712 178.445 174.915 178.936 175.277 179.297C175.638 179.659 176.129 179.862 176.641 179.862H191.948C192.459 179.862 192.95 179.659 193.312 179.297C193.674 178.936 193.877 178.445 193.877 177.933V84.7571C193.877 84.2455 193.673 83.7549 193.312 83.3931C192.951 83.0311 192.461 82.8281 191.949 82.8281Z" opacity=".3"/><path fill="#F2FFF2" d="M174.707 176.97C174.452 176.97 174.206 176.868 174.025 176.687C173.845 176.506 173.743 176.261 173.743 176.005V100.476L156.201 105.451C155.955 105.521 155.692 105.49 155.469 105.365C155.358 105.304 155.261 105.221 155.182 105.122C155.104 105.023 155.045 104.909 155.011 104.787L151.283 91.7413C151.216 91.5053 151.241 91.2523 151.354 91.0343C151.467 90.8163 151.658 90.6493 151.89 90.5673L176.383 81.9163C176.486 81.8803 176.595 81.8613 176.704 81.8613H190.016C190.272 81.8613 190.517 81.9633 190.698 82.1433C190.879 82.3233 190.98 82.5693 190.98 82.8253V176.003C190.98 176.259 190.879 176.504 190.698 176.685C190.517 176.866 190.272 176.968 190.016 176.968H174.707V176.97Z"/><path fill="#283B28" d="M190.018 82.8274V176.005H174.71V99.2004L155.942 104.524L152.214 91.4784L176.707 82.8284L190.018 82.8274ZM190.018 80.8984H176.707C176.489 80.8987 176.271 80.9359 176.064 81.0084L151.571 89.6584C151.108 89.8223 150.725 90.1566 150.5 90.5933C150.275 91.0299 150.224 91.5361 150.359 92.0084L154.087 105.054C154.228 105.545 154.558 105.961 155.004 106.209C155.451 106.457 155.977 106.519 156.468 106.379L172.781 101.752V176.005C172.782 176.517 172.985 177.007 173.347 177.369C173.708 177.731 174.199 177.934 174.71 177.934H190.017C190.529 177.934 191.02 177.731 191.381 177.369C191.743 177.008 191.946 176.517 191.946 176.005V82.8274C191.946 82.3161 191.743 81.8257 191.382 81.4641C191.02 81.1024 190.53 80.899 190.018 80.8984Z"/><path fill="#000" d="M109.015 161.594C108.759 161.594 108.514 161.492 108.333 161.311C108.152 161.13 108.051 160.885 108.051 160.629V139.099H86.5187C86.2627 139.099 86.0177 138.997 85.8367 138.816C85.6557 138.635 85.5547 138.39 85.5547 138.134V124.558C85.5547 124.302 85.6567 124.057 85.8367 123.876C86.0167 123.695 86.2627 123.594 86.5187 123.594H108.051V102.061C108.051 101.805 108.152 101.56 108.333 101.379C108.514 101.198 108.759 101.097 109.015 101.097H122.593C122.849 101.097 123.094 101.199 123.275 101.379C123.456 101.559 123.557 101.805 123.557 102.061V123.594H145.089C145.344 123.594 145.59 123.696 145.771 123.876C145.951 124.057 146.052 124.302 146.053 124.558V138.134C146.052 138.389 145.951 138.634 145.771 138.816C145.59 138.997 145.344 139.099 145.089 139.099H123.557V160.629C123.557 160.885 123.456 161.13 123.275 161.311C123.094 161.492 122.849 161.594 122.593 161.594H109.015Z" opacity=".3"/><path fill="#000" d="M122.593 102.06V124.558H145.088V138.135H122.593V160.629H109.015V138.135H86.5188V124.558H109.015V102.06H122.593ZM122.593 100.131H109.015C108.503 100.131 108.012 100.334 107.651 100.696C107.289 101.058 107.086 101.548 107.086 102.06V122.629H86.5188C86.0073 122.629 85.5168 122.832 85.1551 123.194C84.7934 123.556 84.5901 124.046 84.5898 124.558V138.135C84.5898 138.646 84.7928 139.137 85.1548 139.498C85.5167 139.86 86.0073 140.063 86.5188 140.063H107.086V160.629C107.086 161.14 107.289 161.631 107.651 161.993C108.012 162.355 108.503 162.558 109.015 162.558H122.593C123.104 162.558 123.595 162.354 123.957 161.993C124.318 161.631 124.522 161.14 124.522 160.629V140.063H145.088C145.599 140.063 146.09 139.86 146.452 139.498C146.814 139.137 147.017 138.646 147.017 138.135V124.558C147.017 124.046 146.813 123.556 146.452 123.194C146.09 122.832 145.599 122.629 145.088 122.629H124.522V102.06C124.522 101.548 124.318 101.058 123.957 100.696C123.595 100.334 123.104 100.131 122.593 100.131Z" opacity=".3"/><path fill="#F2FFF2" d="M107.084 159.665C106.829 159.665 106.583 159.563 106.402 159.382C106.221 159.201 106.12 158.956 106.12 158.7V137.17H84.589C84.333 137.17 84.088 137.069 83.907 136.888C83.726 136.707 83.625 136.461 83.625 136.206V122.63C83.625 122.374 83.727 122.129 83.907 121.948C84.087 121.767 84.333 121.666 84.589 121.666H106.12V100.132C106.12 99.876 106.221 99.631 106.402 99.45C106.583 99.269 106.829 99.168 107.084 99.168H120.662C120.918 99.168 121.163 99.27 121.344 99.45C121.525 99.63 121.627 99.876 121.627 100.132V121.665H143.158C143.414 121.665 143.659 121.767 143.84 121.947C144.021 122.127 144.122 122.373 144.122 122.629V136.205C144.122 136.46 144.021 136.706 143.84 136.887C143.659 137.068 143.414 137.169 143.158 137.169H121.627V158.699C121.627 158.955 121.525 159.2 121.344 159.381C121.163 159.562 120.918 159.664 120.662 159.664L107.084 159.665Z"/><path fill="#283B28" d="M120.667 100.132V122.629H143.163V136.205H120.667V158.7H107.089V136.205H84.5931V122.629H107.089V100.132H120.667ZM120.667 98.2031H107.089C106.578 98.2034 106.087 98.4067 105.725 98.7684C105.364 99.1301 105.16 99.6206 105.16 100.132V120.701H84.5931C84.0815 120.701 83.591 120.905 83.2293 121.266C82.8676 121.628 82.6643 122.119 82.6641 122.63V136.206C82.6641 136.718 82.8671 137.209 83.2291 137.57C83.5909 137.932 84.0815 138.135 84.5931 138.135H105.16V158.701C105.16 159.213 105.364 159.703 105.725 160.065C106.087 160.427 106.578 160.63 107.089 160.63H120.667C121.179 160.63 121.669 160.427 122.031 160.065C122.392 159.703 122.596 159.213 122.596 158.701V138.135H143.163C143.675 138.135 144.165 137.932 144.527 137.57C144.888 137.208 145.092 136.718 145.092 136.206V122.629C145.092 122.118 144.888 121.627 144.527 121.265C144.165 120.904 143.675 120.7 143.163 120.7H122.596V100.132C122.596 99.6206 122.392 99.1301 122.031 98.7684C121.669 98.4067 121.179 98.2034 120.667 98.2031Z"/><path fill="url(#paint1_linear_3331_1678)" stroke="#344E33" stroke-linejoin="round" stroke-miterlimit="10" stroke-width="2.5" d="M65.7662 231.005C56.6232 231.426 55.0482 238.782 55.0482 238.782L42.8592 297.942C42.6492 301.41 44.6462 306.138 44.6462 306.138C46.7089 310.309 48.8463 314.443 51.0572 318.537C54.2092 324.316 60.3042 323.582 60.3042 323.582L226.856 323.476C231.689 323.37 234.212 319.586 234.212 319.586L240.516 307.081C241.881 304.349 242.724 301.617 243.038 300.146C243.352 298.675 230.639 238.673 230.639 238.673C230.639 238.673 228.379 231.108 219.815 230.898L65.7662 231.005Z"/><path fill="url(#paint2_linear_3331_1678)" d="M61.7735 321.092L61.0205 321.1C58.3325 321.1 55.3095 320.853 53.4175 317.898C52.7415 316.84 46.9685 306.184 46.1545 302.762C45.6825 300.78 46.3045 299.451 46.9095 298.686C48.4995 296.67 51.4945 296.501 54.4215 296.501L127.188 296.445C127.301 296.429 127.415 296.42 127.53 296.42L142.859 296.432L158.186 296.42C158.302 296.42 158.42 296.429 158.534 296.445L231.296 296.501C234.222 296.501 237.216 296.67 238.806 298.686C239.412 299.452 240.033 300.782 239.561 302.762C238.747 306.186 232.974 316.84 232.298 317.898C230.407 320.853 227.382 321.1 224.698 321.1L223.89 321.092L144.02 321.162L61.7735 321.092Z"/><path fill="#414042" d="M158.199 298.94V298.964L231.307 299.021C234.616 299.021 237.822 299.234 237.121 302.177C236.42 305.12 230.847 315.505 230.186 316.538C229.151 318.156 227.637 318.577 224.706 318.577C224.465 318.577 224.212 318.576 223.952 318.57L144.03 318.64L61.7894 318.568L61.0344 318.576C58.1054 318.576 56.5914 318.154 55.5554 316.537C54.8944 315.504 49.3214 305.117 48.6204 302.175C47.9194 299.233 51.1254 299.019 54.4344 299.019L127.542 298.962V298.938L142.87 298.95L158.199 298.94ZM127.541 293.897C127.377 293.898 127.212 293.905 127.048 293.92L54.4304 293.977C51.8114 293.977 47.4244 293.977 44.9414 297.121C43.5984 298.822 43.1604 301.033 43.7144 303.347C44.6594 307.314 50.7754 318.427 51.3074 319.257C54.1014 323.623 58.7844 323.623 61.0354 323.623L61.8394 323.614L144.028 323.685L223.908 323.614L224.712 323.623C226.963 323.623 231.646 323.623 234.438 319.258C234.97 318.428 241.088 307.315 242.033 303.349C242.584 301.036 242.147 298.826 240.806 297.123C238.322 293.979 233.935 293.979 231.312 293.979L158.692 293.922C158.53 293.907 158.367 293.898 158.205 293.898H158.201L142.873 293.91L127.552 293.898L127.543 293.897H127.541Z"/><path fill="url(#paint3_linear_3331_1678)" d="M52.0769 305.992C47.4499 305.992 45.3789 302.495 45.3789 299.029C45.3789 298.86 45.3959 298.692 45.4289 298.527L57.4379 239.461C58.2329 235.873 61.7689 233.492 66.2439 233.492H219.411C223.626 233.492 226.542 235.34 228.076 238.984C228.141 239.137 228.189 239.296 228.223 239.459L240.032 297.278C240.674 298.902 240.418 301.012 239.335 302.777C238.742 303.769 237.9 304.587 236.892 305.151C235.883 305.715 234.745 306.004 233.59 305.99H52.0769V305.992Z"/><path fill="#414042" d="M219.428 236.013C222.954 236.013 224.753 237.548 225.768 239.962L237.633 298.043C238.469 299.684 237.13 303.468 233.607 303.468H52.0931C48.5691 303.468 47.9171 300.681 47.9171 299.028L59.9261 239.962C60.4121 237.771 62.7371 236.013 66.2631 236.013H219.428ZM219.428 230.969H66.2611C60.5751 230.969 56.0511 234.143 55.0021 238.869L54.9831 238.957L42.9741 298.023C42.9063 298.353 42.8717 298.69 42.8711 299.028C42.8711 304.612 46.6621 308.512 52.0911 308.512H233.605C236.902 308.512 239.78 306.902 241.5 304.096C242.935 301.748 243.289 298.9 242.482 296.592L230.707 238.953C230.641 238.629 230.542 238.312 230.413 238.007C228.478 233.402 224.678 230.969 219.428 230.969Z"/><path fill="#62C15A" d="M265.594 20V380H20.0938V20H265.594ZM269.425 0H16.2638C7.33275 0 0.09375 7.239 0.09375 16.169V383.83C0.09375 392.761 7.33275 400 16.2638 400H269.425C278.355 400 285.594 392.761 285.594 383.83V16.169C285.594 7.239 278.354 0 269.425 0Z"/><path fill="#414042" d="M269.425 10C271.06 10.0021 272.628 10.6527 273.785 11.8092C274.941 12.9656 275.592 14.5335 275.594 16.169V383.83C275.592 385.466 274.941 387.034 273.785 388.19C272.628 389.347 271.06 389.998 269.425 390H16.2638C14.6279 389.998 13.0596 389.348 11.9029 388.191C10.7462 387.034 10.0956 385.466 10.0938 383.83V16.169C10.0959 14.5334 10.7466 12.9653 11.9033 11.8088C13.06 10.6524 14.6281 10.0019 16.2638 10H269.425ZM269.425 0H16.2638C7.33275 0 0.09375 7.239 0.09375 16.169V383.83C0.09375 392.761 7.33275 400 16.2638 400H269.425C278.355 400 285.594 392.761 285.594 383.83V16.169C285.594 7.239 278.354 0 269.425 0Z"/></g></g><defs><radialGradient id="paint0_radial_3331_1678" cx="0" cy="0" r="1" gradientTransform="translate(142.844 200) scale(175.249 175.25)" gradientUnits="userSpaceOnUse"><stop stop-color="#8AD147"/><stop offset=".5" stop-color="#5FB248"/><stop offset="1" stop-color="#399346"/></radialGradient><linearGradient id="paint1_linear_3331_1678" x1="142.943" x2="142.943" y1="323.611" y2="230.901" gradientUnits="userSpaceOnUse"><stop stop-color="#FCEE21"/><stop offset=".148" stop-color="#FCE921"/><stop offset=".315" stop-color="#FBDC21"/><stop offset=".491" stop-color="#F9C522"/><stop offset=".674" stop-color="#F7A622"/><stop offset=".86" stop-color="#F47D23"/><stop offset="1" stop-color="#F15A24"/></linearGradient><linearGradient id="paint2_linear_3331_1678" x1="142.858" x2="142.858" y1="296.42" y2="321.162" gradientUnits="userSpaceOnUse"><stop stop-color="#D5D5D5"/><stop offset=".167" stop-color="#D0D0D0"/><stop offset=".355" stop-color="#C3C3C3"/><stop offset=".554" stop-color="#ACACAC"/><stop offset=".76" stop-color="#8D8D8D"/><stop offset=".97" stop-color="#646464"/><stop offset="1" stop-color="#5E5E5E"/></linearGradient><linearGradient id="paint3_linear_3331_1678" x1="142.88" x2="142.88" y1="305.99" y2="233.492" gradientUnits="userSpaceOnUse"><stop stop-color="#D5D5D5"/><stop offset=".167" stop-color="#D0D0D0"/><stop offset=".355" stop-color="#C3C3C3"/><stop offset=".554" stop-color="#ACACAC"/><stop offset=".76" stop-color="#8D8D8D"/><stop offset=".97" stop-color="#646464"/><stop offset="1" stop-color="#5E5E5E"/></linearGradient><clipPath id="clip0_3331_1678"><rect width="292" height="407" fill="#fff"/></clipPath></defs></svg>