<svg width="292" height="407" viewBox="0 0 292 407" fill="none" xmlns="http://www.w3.org/2000/svg">
<g clip-path="url(#clip0_930_3660)">
<path d="M16.2638 390C14.6279 389.998 13.0596 389.348 11.9029 388.191C10.7462 387.034 10.0956 385.466 10.0938 383.83V16.169C10.0959 14.5334 10.7466 12.9653 11.9033 11.8088C13.06 10.6524 14.6281 10.0019 16.2638 10H269.425C271.06 10.0021 272.628 10.6527 273.785 11.8092C274.941 12.9656 275.592 14.5335 275.594 16.169V383.83C275.592 385.466 274.941 387.034 273.785 388.19C272.628 389.347 271.06 389.998 269.425 390H16.2638Z" fill="url(#paint0_radial_930_3660)"/>
<path d="M203.031 166.021C202.572 166.483 202.025 166.85 201.423 167.099C200.821 167.348 200.176 167.476 199.525 167.474L182.018 167.478C180.704 167.476 179.444 166.953 178.516 166.025C177.587 165.097 177.065 163.838 177.062 162.524V151.811C177.062 150.489 177.577 149.246 178.514 148.307C178.972 147.845 179.517 147.479 180.118 147.23C180.719 146.98 181.363 146.853 182.014 146.854H199.521C200.835 146.854 202.095 147.375 203.025 148.304C203.955 149.233 204.478 150.492 204.48 151.805V162.521C204.483 163.171 204.356 163.816 204.107 164.417C203.858 165.017 203.492 165.562 203.031 166.021Z" fill="#916136"/>
<path d="M179.594 149.463C180.183 148.876 180.98 148.545 181.812 148.543L199.739 148.537C200.57 148.54 201.366 148.872 201.954 149.46C202.542 150.048 202.873 150.845 202.876 151.676L202.88 162.647C202.88 163.059 202.798 163.467 202.639 163.848C202.48 164.228 202.247 164.573 201.954 164.863C201.366 165.45 200.57 165.781 199.739 165.783L181.815 165.785C180.094 165.785 178.679 164.376 178.675 162.649V151.68C178.675 150.815 179.028 150.033 179.594 149.463ZM176.858 146.726C176.204 147.375 175.686 148.147 175.333 148.998C174.98 149.849 174.799 150.761 174.801 151.682L174.805 162.651C174.807 164.509 175.546 166.29 176.86 167.604C178.174 168.918 179.955 169.657 181.814 169.659L199.737 169.658C200.658 169.659 201.57 169.477 202.421 169.123C203.272 168.77 204.044 168.251 204.692 167.596C205.345 166.949 205.864 166.178 206.216 165.328C206.569 164.478 206.749 163.567 206.746 162.647V151.676C206.743 149.817 206.003 148.036 204.689 146.722C203.374 145.408 201.592 144.669 199.734 144.667L181.81 144.671C180.89 144.669 179.978 144.85 179.128 145.203C178.278 145.555 177.506 146.073 176.858 146.726Z" fill="#42250D"/>
<path d="M222.45 220.242C222.035 220.658 221.542 220.988 221 221.213C220.458 221.438 219.876 221.553 219.289 221.553L162.274 221.56C161.687 221.562 161.105 221.448 160.563 221.224C160.02 220.999 159.527 220.669 159.113 220.253C158.697 219.839 158.367 219.347 158.143 218.805C157.918 218.262 157.803 217.681 157.804 217.094L157.801 204.267C157.804 202.99 158.325 202.202 158.764 201.764C160.125 200.404 162.601 200.503 164.793 202.001L169.479 205.203C169.593 205.281 169.728 205.323 169.866 205.322L211.695 205.313C211.833 205.314 211.968 205.273 212.082 205.195L216.764 201.99C218.195 201.013 220.327 200.291 222.041 201.194C223.131 201.767 223.758 202.882 223.758 204.252V217.079C223.758 217.666 223.643 218.248 223.419 218.791C223.194 219.333 222.865 219.827 222.45 220.242Z" fill="#916136"/>
<path d="M159.172 202.866C159.934 202.106 161.598 202.444 162.91 203.344L167.731 206.645C168.175 206.946 168.698 207.108 169.23 207.108L212.333 207.099C212.867 207.098 213.388 206.937 213.829 206.636L218.653 203.335C220.414 202.129 222.804 201.923 222.804 204.057L222.807 217.271C222.808 217.62 222.74 217.965 222.607 218.287C222.474 218.609 222.278 218.901 222.031 219.147C221.786 219.394 221.493 219.59 221.171 219.723C220.85 219.857 220.505 219.926 220.156 219.926L161.413 219.937C160.71 219.936 160.035 219.656 159.537 219.158C159.04 218.66 158.76 217.986 158.758 217.282V204.063C158.758 203.52 158.911 203.13 159.172 202.866ZM156.417 200.111C155.705 200.824 154.859 202.084 154.859 204.065V217.282C154.862 219.02 155.553 220.686 156.782 221.914C158.012 223.143 159.679 223.833 161.416 223.833L220.156 223.824C221.017 223.826 221.869 223.657 222.663 223.327C223.458 222.998 224.179 222.514 224.786 221.905C225.393 221.296 225.88 220.575 226.209 219.779C226.538 218.984 226.706 218.132 226.704 217.271L226.7 204.057C226.7 201.931 225.653 200.111 223.892 199.181C221.364 197.846 218.39 198.789 216.45 200.118L211.947 203.201L169.613 203.206L165.106 200.127C162.014 198.01 158.521 198.004 156.417 200.111Z" fill="#42250D"/>
<path d="M180.828 158.424H200.72V210.892H180.828V158.424Z" fill="#9B7753"/>
<path d="M182.676 160.081L198.867 160.079L198.878 209.23L182.687 209.231L182.676 160.081ZM178.73 156.134V160.081L178.742 209.233V213.18H182.687L198.878 213.178L202.827 213.176V209.23L202.816 160.077V156.128H198.867L182.676 156.134H178.73Z" fill="#603913"/>
<path d="M193.329 360.595C192.563 361.364 191.432 361.723 190.302 361.562C189.779 361.493 189.279 361.303 188.843 361.006C188.406 360.71 188.045 360.314 187.789 359.852L174.976 336.163L174.953 214.154L206.671 214.148L206.697 336.159L193.887 359.85C193.734 360.125 193.551 360.378 193.329 360.595Z" fill="#636362"/>
<path d="M176.592 214.904L205.027 214.898L205.05 336.668L192.24 360.355C192.18 360.472 192.101 360.578 192.007 360.669C191.314 361.369 189.925 361.263 189.432 360.357L176.614 336.674L176.592 214.904ZM172.742 211.056V214.908L172.765 336.674V337.65L173.231 338.507L186.045 362.191C186.848 363.673 188.295 364.666 190.016 364.918C191.76 365.174 193.528 364.603 194.734 363.393C195.09 363.037 195.392 362.632 195.63 362.189L208.437 338.5L208.896 337.641V336.666L208.877 214.898V211.048H205.026L176.592 211.056H172.742Z" fill="#414042"/>
<path d="M182.777 166.682H194.833V208.939H182.777V166.682Z" fill="#C49A6C"/>
<path d="M202.649 165.637C202.24 166.048 201.754 166.374 201.218 166.597C200.682 166.82 200.108 166.932 199.528 166.931L182.02 166.935C180.85 166.933 179.727 166.468 178.9 165.64C178.072 164.812 177.607 163.689 177.605 162.519V151.808C177.605 150.63 178.064 149.523 178.898 148.688C179.306 148.276 179.792 147.95 180.327 147.728C180.862 147.506 181.437 147.392 182.016 147.394L199.524 147.391C200.104 147.389 200.679 147.503 201.214 147.724C201.751 147.946 202.238 148.27 202.648 148.68C203.059 149.09 203.385 149.576 203.607 150.112C203.829 150.648 203.944 151.222 203.943 151.803L203.947 162.518C203.948 163.098 203.834 163.672 203.611 164.208C203.389 164.743 203.062 165.229 202.649 165.637Z" fill="#633B1A"/>
<path d="M179.852 149.643C180.425 149.068 181.203 148.745 182.014 148.743L199.525 148.739C201.209 148.739 202.589 150.119 202.589 151.805L202.592 162.52C202.591 162.922 202.511 163.321 202.356 163.692C202.201 164.063 201.974 164.4 201.689 164.684C201.116 165.259 200.338 165.582 199.527 165.584L182.019 165.586C181.207 165.583 180.428 165.26 179.854 164.685C179.28 164.11 178.955 163.333 178.952 162.52V151.807C178.952 150.963 179.299 150.199 179.852 149.643ZM177.942 147.735C177.404 148.268 176.977 148.903 176.687 149.603C176.397 150.303 176.248 151.053 176.25 151.811L176.254 162.524C176.254 164.062 176.851 165.507 177.945 166.6C178.479 167.137 179.113 167.563 179.813 167.853C180.513 168.143 181.262 168.291 182.019 168.289L199.527 168.286C200.285 168.288 201.035 168.139 201.735 167.849C202.435 167.559 203.07 167.133 203.604 166.596C204.141 166.062 204.566 165.426 204.856 164.727C205.146 164.028 205.294 163.277 205.292 162.52V151.805C205.292 150.267 204.695 148.821 203.601 147.727C203.066 147.191 202.43 146.766 201.73 146.476C201.03 146.186 200.28 146.038 199.523 146.04L182.015 146.041C180.479 146.041 179.032 146.644 177.942 147.735Z" fill="#42250D"/>
<path d="M222.072 219.86C221.709 220.225 221.276 220.515 220.8 220.713C220.324 220.911 219.813 221.013 219.298 221.012L162.274 221.021C161.227 221.021 160.239 220.614 159.5 219.873C159.133 219.51 158.843 219.077 158.645 218.6C158.447 218.123 158.346 217.613 158.348 217.097V204.27C158.348 203.182 158.781 202.515 159.151 202.147C160.517 200.78 162.877 201.348 164.492 202.448L169.175 205.652C169.379 205.792 169.62 205.866 169.867 205.866L211.701 205.857C211.949 205.857 212.186 205.786 212.39 205.644L217.072 202.44C218.312 201.596 220.289 200.885 221.79 201.679C222.323 201.957 223.217 202.668 223.217 204.257V217.084C223.22 217.599 223.12 218.11 222.924 218.587C222.728 219.064 222.438 219.496 222.072 219.86Z" fill="#633B1A"/>
<path d="M160.099 203.099C160.838 202.36 162.451 202.69 163.727 203.562L168.409 206.766C168.837 207.059 169.343 207.216 169.864 207.216L211.697 207.206C212.216 207.205 212.723 207.049 213.152 206.757L217.834 203.553C219.541 202.382 221.863 202.184 221.863 204.255L221.867 217.079C221.868 217.418 221.802 217.754 221.672 218.067C221.542 218.38 221.35 218.664 221.109 218.902C220.871 219.142 220.587 219.333 220.275 219.462C219.962 219.591 219.627 219.657 219.289 219.656L162.272 219.671C161.934 219.671 161.599 219.604 161.286 219.474C160.974 219.344 160.69 219.154 160.451 218.915C160.212 218.676 160.022 218.391 159.893 218.079C159.764 217.767 159.698 217.432 159.698 217.093L159.694 204.266C159.696 203.734 159.849 203.357 160.099 203.099ZM158.193 201.187C157.646 201.734 156.992 202.712 156.992 204.264L156.996 217.091C156.998 218.491 157.554 219.832 158.544 220.821C159.534 221.811 160.876 222.367 162.276 222.367L219.29 222.358C219.984 222.361 220.671 222.225 221.312 221.96C221.953 221.695 222.535 221.306 223.025 220.814C223.516 220.324 223.906 219.742 224.171 219.1C224.436 218.458 224.572 217.772 224.57 217.078L224.567 204.253C224.567 202.572 223.783 201.196 222.42 200.476C220.384 199.406 217.931 200.209 216.309 201.32L211.66 204.499L169.903 204.509L165.254 201.329C162.733 199.608 159.83 199.548 158.193 201.187Z" fill="#42250D"/>
<path d="M199.612 199.473V197.563C199.612 197.563 196.111 196.471 190.781 196.473C185.443 196.475 182 197.567 182 197.567L182.004 199.479C182.004 199.479 186.862 198.383 190.781 198.383C194.694 198.383 199.612 199.473 199.612 199.473ZM199.612 188.09V186.178C199.612 186.178 196.111 185.088 190.773 185.09C185.435 185.092 182 186.182 182 186.182L181.996 188.092C181.996 188.092 186.86 186.998 190.777 186.998C194.694 186.998 199.612 188.09 199.612 188.09ZM199.61 177.746V175.836C199.61 175.836 196.109 174.746 190.775 174.746C185.441 174.746 181.998 175.842 181.998 175.842V177.752C181.998 177.752 186.862 176.66 190.775 176.658C194.688 176.656 199.61 177.746 199.61 177.746Z" fill="#603913"/>
<path d="M189.454 359.915L176.862 336.646L176.844 231.896L204.784 231.895L204.799 336.64L192.219 359.917C191.676 360.922 189.997 360.92 189.454 359.915Z" fill="#939598"/>
<path d="M190.835 360.667C190.281 360.667 189.73 360.415 189.458 359.915L176.862 336.646L176.844 231.896L190.813 231.893C190.815 231.894 191.39 360.667 190.835 360.667Z" fill="#BCBEC0"/>
<path d="M175.508 230.939L205.885 230.861" stroke="#414042" stroke-width="3" stroke-miterlimit="10"/>
<path d="M217.66 204.638C217.667 204.348 217.605 204.06 217.477 203.798L213.153 206.757C212.726 207.05 212.22 207.207 211.702 207.207L208.833 207.209C208.43 207.457 207.967 207.589 207.494 207.59L165.661 207.598C165.142 207.598 164.635 207.441 164.206 207.148L159.714 204.078L159.699 204.267L159.703 217.093C159.703 217.432 159.769 217.768 159.899 218.08C160.029 218.392 160.218 218.678 160.458 218.917C160.697 219.157 160.981 219.347 161.294 219.476C161.607 219.606 161.943 219.672 162.281 219.672L216.422 219.657C216.801 219.43 217.113 219.108 217.331 218.724C217.548 218.34 217.662 217.906 217.662 217.465V204.638H217.66ZM180.569 149.127C180.083 149.387 179.676 149.773 179.392 150.246C179.108 150.718 178.956 151.259 178.954 151.81L178.958 162.523C178.96 163.335 179.284 164.113 179.858 164.687C180.432 165.26 181.21 165.583 182.022 165.585H196.772C197.728 165.064 198.387 164.063 198.387 162.902L198.383 152.187C198.381 151.375 198.058 150.597 197.483 150.023C196.909 149.45 196.131 149.127 195.319 149.125L180.569 149.127Z" fill="#916136"/>
<path d="M181.536 150.693L190.587 150.691C190.972 150.706 191.336 150.869 191.603 151.146C191.871 151.423 192.02 151.792 192.021 152.177C192.02 152.562 191.87 152.932 191.603 153.208C191.336 153.485 190.972 153.648 190.587 153.662L181.539 153.664C181.145 153.664 180.766 153.507 180.488 153.228C180.209 152.949 180.052 152.571 180.051 152.176C180.053 151.783 180.21 151.407 180.488 151.129C180.766 150.851 181.143 150.695 181.536 150.693ZM169.814 211.983L192.872 211.98C193.254 211.96 193.613 211.795 193.876 211.519C194.139 211.243 194.285 210.876 194.285 210.494C194.285 210.112 194.139 209.745 193.876 209.468C193.613 209.191 193.254 209.026 192.872 209.007L169.812 209.009C169.419 209.012 169.042 209.169 168.764 209.448C168.486 209.727 168.33 210.104 168.328 210.497C168.33 210.891 168.487 211.268 168.766 211.546C169.044 211.824 169.421 211.981 169.814 211.983Z" fill="#B78358"/>
<path d="M137.793 121.73C133.966 121.726 130.85 118.624 130.85 114.807V103.416H97.712C96.1095 103.414 94.5731 102.777 93.44 101.644C92.3068 100.511 91.6696 98.9744 91.668 97.372V65.693C91.6696 64.0905 92.3068 62.5541 93.44 61.421C94.5731 60.2878 96.1095 59.6505 97.712 59.649H130.85V48.258C130.854 46.4198 131.588 44.6585 132.89 43.3606C134.191 42.0627 135.955 41.3342 137.793 41.335C139.46 41.335 141.023 41.927 142.306 43.047L180.463 76.322C181.206 76.9712 181.802 77.7722 182.21 78.671C182.619 79.57 182.83 80.545 182.83 81.532C182.83 82.519 182.619 83.495 182.21 84.393C181.802 85.2917 181.206 86.0927 180.463 86.742L142.306 120.016C141.063 121.121 139.456 121.73 137.793 121.729V121.73Z" fill="url(#paint1_linear_930_3660)"/>
<path d="M137.792 43.002C138.974 43.002 140.182 43.406 141.212 44.304L179.366 77.579C179.93 78.0715 180.383 78.6791 180.693 79.361C181.004 80.0426 181.165 80.7832 181.165 81.5325C181.165 82.2818 181.004 83.0223 180.693 83.704C180.383 84.3859 179.93 84.9935 179.366 85.486L141.207 118.761C140.266 119.598 139.051 120.061 137.791 120.063C135.083 120.063 132.514 117.943 132.514 114.808V101.748H97.711C96.551 101.748 95.437 101.287 94.617 100.466C93.797 99.645 93.335 98.532 93.335 97.371V65.692C93.335 64.531 93.796 63.418 94.617 62.597C95.438 61.776 96.551 61.315 97.711 61.315H132.517V48.255C132.517 45.12 135.086 43.002 137.792 43.002ZM137.792 39.667C133.045 39.667 129.182 43.522 129.182 48.255V57.981H97.711C95.6666 57.9834 93.7067 58.7965 92.2611 60.2421C90.8156 61.6877 90.0024 63.6476 90 65.692V97.371C90.0024 99.4153 90.8156 101.375 92.2611 102.821C93.7067 104.266 95.6666 105.08 97.711 105.082H129.182V114.806C129.182 119.543 133.044 123.396 137.792 123.396C139.857 123.389 141.85 122.634 143.401 121.272L181.556 87.997C182.479 87.192 183.219 86.198 183.726 85.082C184.233 83.9667 184.496 82.7557 184.496 81.5305C184.496 80.3053 184.233 79.0943 183.726 77.979C183.219 76.864 182.479 75.87 181.556 75.064L143.401 41.787C141.849 40.4264 139.856 39.6734 137.792 39.667Z" fill="#4F0C16"/>
<path d="M59.2686 346.384V168.939L82.7046 157.355L106.202 168.981V346.384L82.7046 357.988L59.2686 346.384Z" fill="url(#paint2_linear_930_3660)"/>
<path d="M82.7068 158.024L105.523 169.315V346.04L82.7068 357.31L59.9519 346.04V169.294L82.7068 158.024ZM82.7068 156.667L82.0258 157.001L59.2709 168.271L58.5898 168.616V346.708L59.2709 347.052L82.0258 358.323L82.7068 358.667L83.3878 358.323L106.204 347.052L106.885 346.708V168.647L106.204 168.303L83.3878 157.001L82.7068 156.667Z" fill="black"/>
<path d="M82.7081 162.073L101.438 171.34V344.006L82.7081 353.262L64.0391 344.016V171.319L82.7081 162.073ZM82.7081 158.014L59.9531 169.294V346.041L82.7081 357.311L105.524 346.041V169.315L82.7081 158.024V158.014Z" fill="#4F4F4F"/>
<path d="M265.594 20V380H20.0938V20H265.594ZM269.425 0H16.2638C7.33275 0 0.09375 7.239 0.09375 16.169V383.83C0.09375 392.761 7.33275 400 16.2638 400H269.425C278.355 400 285.594 392.761 285.594 383.83V16.169C285.594 7.239 278.354 0 269.425 0Z" fill="#CDEBFF"/>
<path d="M269.425 10C271.06 10.0021 272.628 10.6527 273.785 11.8092C274.941 12.9656 275.592 14.5335 275.594 16.169V383.83C275.592 385.466 274.941 387.034 273.785 388.19C272.628 389.347 271.06 389.998 269.425 390H16.2638C14.6279 389.998 13.0596 389.348 11.9029 388.191C10.7462 387.034 10.0956 385.466 10.0938 383.83V16.169C10.0959 14.5334 10.7466 12.9653 11.9033 11.8088C13.06 10.6524 14.6281 10.0019 16.2638 10H269.425ZM269.425 0H16.2638C7.33275 0 0.09375 7.239 0.09375 16.169V383.83C0.09375 392.761 7.33275 400 16.2638 400H269.425C278.355 400 285.594 392.761 285.594 383.83V16.169C285.594 7.239 278.354 0 269.425 0Z" fill="#414042"/>
</g>
<defs>
<radialGradient id="paint0_radial_930_3660" cx="0" cy="0" r="1" gradientUnits="userSpaceOnUse" gradientTransform="translate(142.844 200) scale(177.165 177.499)">
<stop stop-color="#A4C7DC"/>
<stop offset="0.495209" stop-color="#85AEC0"/>
<stop offset="1" stop-color="#6696A4"/>
</radialGradient>
<linearGradient id="paint1_linear_930_3660" x1="151.869" y1="48.4111" x2="114.107" y2="113.815" gradientUnits="userSpaceOnUse">
<stop stop-color="#EC6F66"/>
<stop offset="0.008" stop-color="#EC6D65"/>
<stop offset="0.17" stop-color="#EC504D"/>
<stop offset="0.341" stop-color="#EC393B"/>
<stop offset="0.525" stop-color="#EC292E"/>
<stop offset="0.731" stop-color="#EC1F26"/>
<stop offset="1" stop-color="#EC1C24"/>
</linearGradient>
<linearGradient id="paint2_linear_930_3660" x1="59.2686" y1="257.662" x2="106.203" y2="257.662" gradientUnits="userSpaceOnUse">
<stop offset="0.15" stop-color="#D5D5D5"/>
<stop offset="0.5" stop-color="#5E5E5E"/>
<stop offset="0.85" stop-color="#D5D5D5"/>
</linearGradient>
<clipPath id="clip0_930_3660">
<rect width="291.969" height="406.205" fill="white"/>
</clipPath>
</defs>
</svg>
