<svg width="292" height="407" viewBox="0 0 292 407" fill="none" xmlns="http://www.w3.org/2000/svg">
<g clip-path="url(#clip0_3331_1832)">
<mask id="mask0_3331_1832" style="mask-type:luminance" maskUnits="userSpaceOnUse" x="0" y="0" width="292" height="407">
<path d="M291.969 0H0V406.205H291.969V0Z" fill="white"/>
</mask>
<g mask="url(#mask0_3331_1832)">
<path d="M16.2638 390C14.6279 389.998 13.0596 389.348 11.9029 388.191C10.7462 387.034 10.0956 385.466 10.0938 383.83V16.169C10.0959 14.5334 10.7466 12.9653 11.9033 11.8088C13.06 10.6524 14.6281 10.0019 16.2638 10H269.425C271.06 10.0021 272.628 10.6527 273.785 11.8092C274.941 12.9656 275.592 14.5335 275.594 16.169V383.83C275.592 385.466 274.941 387.034 273.785 388.19C272.628 389.347 271.06 389.998 269.425 390H16.2638Z" fill="url(#paint0_radial_3331_1832)"/>
<path opacity="0.5" d="M179.77 129.814H113.056C109.841 129.814 106.757 128.542 104.477 126.275C102.197 124.008 100.906 120.932 100.887 117.717V50.931C100.906 47.7285 102.186 44.6626 104.451 42.398C106.715 40.133 109.781 38.853 112.984 38.834H179.77C182.973 38.853 186.039 40.133 188.303 42.398C190.567 44.663 191.849 47.729 191.867 50.931V117.717C191.867 120.932 190.594 124.016 188.328 126.296C186.061 128.576 182.985 129.867 179.77 129.886V129.814Z" fill="black"/>
<path d="M176.262 126.879H109.476C106.261 126.86 103.184 125.57 100.918 123.29C98.6514 121.01 97.3791 117.925 97.3789 114.71V47.9244C97.4166 44.7344 98.7054 41.6867 100.968 39.4374C103.23 37.1882 106.286 35.9174 109.476 35.8984H176.262C179.465 35.8981 182.539 37.1603 184.817 39.4114C187.095 41.6624 188.394 44.7214 188.431 47.9234V114.781C188.412 117.996 187.121 121.073 184.841 123.339C182.561 125.606 179.477 126.879 176.262 126.879Z" fill="#EAE9E4"/>
<path d="M136.676 105.047C139.754 104.904 141.687 109.198 139.253 111.346C137.106 113.708 132.668 111.919 132.883 108.769C132.862 108.275 132.945 107.782 133.125 107.321C133.305 106.86 133.578 106.442 133.928 106.092C134.278 105.742 134.696 105.469 135.157 105.289C135.617 105.109 136.11 105.026 136.605 105.047H136.676ZM149.203 105.047C152.281 104.904 154.214 109.198 151.852 111.346C149.704 113.708 145.266 111.919 145.481 108.769C145.46 108.274 145.543 107.781 145.723 107.321C145.903 106.86 146.176 106.442 146.526 106.092C146.876 105.742 147.294 105.469 147.755 105.289C148.215 105.109 148.708 105.026 149.203 105.047ZM159.082 83.1417C159.082 85.9337 158.581 88.3677 157.65 90.3717C156.791 92.4477 155.574 94.1657 153.999 95.4537C152.328 96.8722 150.377 97.9211 148.273 98.5317C144.647 99.5898 140.83 99.824 137.103 99.2173C133.375 98.6105 129.83 97.178 126.727 95.0247L127.943 82.3547C129.708 83.5732 131.636 84.537 133.67 85.2177C135.701 85.9325 137.82 86.3658 139.969 86.5057C140.542 86.5057 141.186 86.5057 141.83 86.3627C142.403 86.3627 142.976 86.1477 143.477 85.8617C143.978 85.5757 144.407 85.2887 144.694 84.7877C145.052 84.3587 145.195 83.7857 145.195 82.9987C145.195 82.5687 144.98 82.1397 144.55 81.7107C144.193 81.3527 143.691 80.9947 143.119 80.7087C142.043 80.1835 140.877 79.8675 139.683 79.7777C138.473 79.7847 137.269 79.9527 136.104 80.2787C135.746 80.3507 135.46 80.4937 135.245 80.7087L135.46 71.6897C136.125 71.7715 136.794 71.8193 137.464 71.8327L139.898 71.6177C140.828 71.4747 141.544 71.2597 142.26 70.9017C142.966 70.5483 143.598 70.0621 144.121 69.4697C144.622 68.8257 144.837 68.0377 144.837 67.1077C144.837 66.3917 144.622 65.8187 144.264 65.3897C143.906 64.9607 143.405 64.6737 142.833 64.4587C142.26 64.2149 141.658 64.0465 141.043 63.9577C139.066 63.6767 137.051 63.8247 135.136 64.3927C133.221 64.961 131.451 65.9355 129.948 67.2497L127.299 55.7967C129.232 54.2217 131.379 52.9337 133.885 52.2177C136.391 51.5017 138.824 50.9297 141.329 50.9297C143.62 50.9297 145.767 51.2157 147.843 51.9317C149.991 52.5757 151.78 53.5777 153.355 54.7947C155.362 56.3637 156.894 58.4597 157.778 60.8487C158.663 63.2377 158.866 65.8257 158.366 68.3237C157.715 70.5367 156.419 72.5057 154.644 73.9787C155.503 74.3367 156.218 74.9097 156.791 75.5537C157.364 76.2697 157.865 76.9857 158.223 77.7727C158.581 78.5597 158.724 79.4907 158.867 80.3497L159.082 83.0697V83.1417Z" fill="#414042"/>
<path opacity="0.5" d="M181.77 365.814H115.056C111.841 365.814 108.757 364.541 106.477 362.275C104.197 360.008 102.906 356.932 102.887 353.717V286.931C102.906 283.728 104.186 280.662 106.451 278.398C108.716 276.134 111.781 274.853 114.984 274.834H181.77C184.973 274.853 188.039 276.133 190.303 278.398C192.568 280.662 193.849 283.728 193.867 286.931V353.717C193.867 356.932 192.594 360.016 190.328 362.296C188.061 364.576 184.985 365.867 181.77 365.886V365.814Z" fill="black"/>
<path d="M178.262 362.879H111.476C108.261 362.86 105.184 361.57 102.918 359.29C100.651 357.01 99.3789 353.926 99.3789 350.71V283.924C99.4166 280.734 100.705 277.687 102.968 275.437C105.23 273.188 108.286 271.917 111.476 271.899H178.262C181.465 271.898 184.539 273.161 186.817 275.412C189.095 277.663 190.394 280.722 190.431 283.924V350.782C190.412 353.997 189.121 357.074 186.841 359.34C184.561 361.607 181.477 362.879 178.262 362.879Z" fill="#EAE9E4"/>
<path d="M126.007 341.048C129.157 340.905 131.018 345.199 128.656 347.347C126.508 349.709 122.07 347.92 122.285 344.77C122.265 344.276 122.347 343.782 122.527 343.322C122.707 342.861 122.98 342.443 123.33 342.093C123.68 341.743 124.098 341.47 124.559 341.29C125.02 341.11 125.513 341.027 126.007 341.048ZM138.677 341.048C141.755 340.905 143.688 345.199 141.254 347.347C139.107 349.709 134.669 347.92 134.883 344.77C134.863 344.276 134.946 343.783 135.125 343.322C135.305 342.861 135.579 342.442 135.929 342.093C136.278 341.743 136.697 341.47 137.158 341.29C137.619 341.11 138.112 341.027 138.606 341.048H138.677ZM151.204 341.048C154.282 340.905 156.215 345.199 153.853 347.347C151.705 349.709 147.267 347.92 147.482 344.77C147.462 344.276 147.544 343.782 147.724 343.322C147.904 342.861 148.177 342.443 148.527 342.093C148.877 341.743 149.295 341.47 149.756 341.29C150.217 341.11 150.71 341.027 151.204 341.048ZM163.802 341.048C166.88 340.905 168.813 345.199 166.451 347.347C164.304 349.709 159.865 347.92 160.08 344.77C160.06 344.276 160.142 343.782 160.322 343.322C160.502 342.861 160.775 342.443 161.125 342.093C161.475 341.743 161.894 341.47 162.354 341.29C162.815 341.11 163.308 341.027 163.802 341.048ZM161.225 319.144C161.225 321.864 160.724 324.155 159.793 326.23C158.862 328.305 157.502 329.881 155.784 331.241C154.037 332.591 152.043 333.588 149.915 334.177C145.19 335.533 140.18 335.533 135.455 334.177C133.08 333.582 130.757 332.792 128.512 331.815L129.729 319.287C132.983 321.067 136.614 322.05 140.323 322.151L142.184 322.079C142.9 321.936 143.687 321.792 144.331 321.506C145.047 321.22 145.691 320.862 146.121 320.432C146.622 320.003 146.837 319.43 146.837 318.643C146.873 318.007 146.697 317.378 146.336 316.854C145.928 316.344 145.415 315.928 144.832 315.636C142.136 314.618 139.267 314.132 136.386 314.205C134.462 314.255 132.546 314.471 130.659 314.849L131.948 289.437L157.431 288.721L158.147 301.893L142.255 300.962L141.898 306.617C143.772 306.155 145.694 305.915 147.624 305.901C149.485 305.901 151.203 306.187 152.921 306.832C154.505 307.435 155.953 308.347 157.182 309.515C158.41 310.682 159.395 312.081 160.079 313.632C160.816 315.374 161.182 317.252 161.153 319.144H161.225Z" fill="#414042"/>
<path d="M134.032 199.594C134.028 204.049 130.415 207.676 125.972 207.676H112.709V246.252C112.707 248.117 111.965 249.905 110.646 251.224C109.327 252.543 107.538 253.285 105.672 253.287H68.7887C66.9227 253.285 65.1347 252.543 63.8147 251.224C62.4955 249.905 61.7536 248.117 61.7517 246.252V207.676H48.4897C46.3496 207.671 44.299 206.817 42.7877 205.302C41.2767 203.787 40.4287 201.734 40.4297 199.594C40.4297 197.653 41.1187 195.835 42.4237 194.34L81.1647 149.923C81.9207 149.058 82.8537 148.364 83.8997 147.889C84.9461 147.414 86.082 147.168 87.2312 147.168C88.3804 147.168 89.5163 147.414 90.5627 147.889C91.6087 148.364 92.5417 149.058 93.2977 149.923L132.039 194.34C133.325 195.788 134.034 197.658 134.033 199.594H134.032Z" fill="#F2FFF2"/>
<path d="M41.757 199.69C41.757 198.314 42.227 196.909 43.273 195.709L82.014 151.296C82.587 150.638 83.294 150.111 84.088 149.75C84.8821 149.389 85.7442 149.202 86.6165 149.202C87.4888 149.202 88.3509 149.389 89.145 149.75C89.939 150.111 90.646 150.638 91.219 151.296L129.96 195.715C130.935 196.811 131.474 198.226 131.476 199.692C131.476 202.844 129.007 205.835 125.357 205.835H110.155V246.347C110.155 247.699 109.618 248.994 108.662 249.95C107.706 250.905 106.41 251.442 105.059 251.442H68.176C66.8248 251.442 65.5289 250.905 64.573 249.95C63.617 248.994 63.081 247.699 63.081 246.347V205.831H47.874C44.224 205.831 41.757 202.84 41.757 199.69ZM37.875 199.69C37.875 205.216 42.363 209.713 47.874 209.713H59.197V246.347C59.2 248.727 60.146 251.009 61.83 252.692C63.5135 254.375 65.7956 255.322 68.176 255.324H105.059C107.439 255.321 109.721 254.375 111.404 252.692C113.088 251.009 114.034 248.727 114.037 246.347V209.713H125.358C130.873 209.713 135.359 205.218 135.359 199.69C135.351 197.286 134.473 194.967 132.886 193.161L94.145 148.745C93.2068 147.671 92.05 146.81 90.752 146.219C89.453 145.629 88.044 145.324 86.617 145.324C85.19 145.324 83.781 145.629 82.482 146.219C81.184 146.81 80.0271 147.671 79.089 148.745L40.346 193.161C38.761 194.968 37.883 197.287 37.875 199.69Z" fill="#283B28"/>
<path d="M246.731 201.055C246.727 196.6 243.114 192.973 238.671 192.973H225.408V154.397C225.406 152.532 224.664 150.744 223.345 149.425C222.026 148.106 220.237 147.364 218.371 147.362H181.488C179.623 147.364 177.834 148.106 176.515 149.425C175.195 150.744 174.453 152.532 174.451 154.397V192.973H161.189C159.049 192.979 156.999 193.833 155.488 195.348C153.977 196.863 153.128 198.915 153.129 201.055C153.129 202.996 153.818 204.814 155.123 206.309L193.864 250.726C194.62 251.592 195.553 252.285 196.599 252.76C197.645 253.235 198.781 253.481 199.93 253.481C201.079 253.481 202.215 253.235 203.261 252.76C204.307 252.285 205.24 251.592 205.996 250.726L244.737 206.309C246.023 204.862 246.733 202.992 246.731 201.055Z" fill="#F2FFF2"/>
<path d="M154.453 200.958C154.453 202.334 154.922 203.739 155.969 204.939L194.71 249.352C195.283 250.01 195.99 250.537 196.784 250.898C197.578 251.259 198.441 251.446 199.313 251.446C200.185 251.446 201.047 251.259 201.841 250.898C202.635 250.537 203.342 250.01 203.915 249.352L242.656 204.933C243.631 203.837 244.17 202.422 244.172 200.956C244.172 197.804 241.703 194.813 238.053 194.813H222.85V154.301C222.85 152.949 222.313 151.654 221.357 150.698C220.401 149.742 219.106 149.206 217.754 149.206H180.871C179.519 149.206 178.223 149.743 177.268 150.698C176.313 151.653 175.775 152.949 175.775 154.301V194.817H160.57C156.92 194.817 154.453 197.808 154.453 200.958ZM150.57 200.958C150.57 195.432 155.058 190.935 160.57 190.935H171.893V154.301C171.895 151.921 172.842 149.639 174.525 147.956C176.209 146.273 178.491 145.327 180.871 145.324H217.754C220.135 145.327 222.417 146.273 224.1 147.956C225.783 149.639 226.73 151.921 226.732 154.301V190.935H238.053C243.568 190.935 248.055 195.43 248.055 200.958C248.047 203.362 247.168 205.681 245.582 207.487L206.841 251.903C205.903 252.977 204.746 253.839 203.447 254.429C202.149 255.019 200.739 255.324 199.312 255.324C197.886 255.324 196.477 255.019 195.178 254.429C193.88 253.839 192.723 252.977 191.784 251.903L153.041 207.487C151.456 205.68 150.579 203.361 150.57 200.958Z" fill="#283B28"/>
<path d="M265.594 20V380H20.0938V20H265.594ZM269.425 0H16.2638C7.33275 0 0.09375 7.239 0.09375 16.169V383.83C0.09375 392.761 7.33275 400 16.2638 400H269.425C278.355 400 285.594 392.761 285.594 383.83V16.169C285.594 7.239 278.354 0 269.425 0Z" fill="#62C15A"/>
<path d="M269.425 10C271.06 10.0021 272.628 10.6527 273.785 11.8092C274.941 12.9656 275.592 14.5335 275.594 16.169V383.83C275.592 385.466 274.941 387.034 273.785 388.19C272.628 389.347 271.06 389.998 269.425 390H16.2638C14.6279 389.998 13.0596 389.348 11.9029 388.191C10.7462 387.034 10.0956 385.466 10.0938 383.83V16.169C10.0959 14.5334 10.7466 12.9653 11.9033 11.8088C13.06 10.6524 14.6281 10.0019 16.2638 10H269.425ZM269.425 0H16.2638C7.33275 0 0.09375 7.239 0.09375 16.169V383.83C0.09375 392.761 7.33275 400 16.2638 400H269.425C278.355 400 285.594 392.761 285.594 383.83V16.169C285.594 7.239 278.354 0 269.425 0Z" fill="#414042"/>
</g>
</g>
<defs>
<radialGradient id="paint0_radial_3331_1832" cx="0" cy="0" r="1" gradientUnits="userSpaceOnUse" gradientTransform="translate(142.844 200) scale(175.249 175.25)">
<stop stop-color="#8AD147"/>
<stop offset="0.5" stop-color="#5FB248"/>
<stop offset="1" stop-color="#399346"/>
</radialGradient>
<clipPath id="clip0_3331_1832">
<rect width="292" height="407" fill="white"/>
</clipPath>
</defs>
</svg>
