<svg xmlns="http://www.w3.org/2000/svg" width="292" height="407" fill="none" viewBox="0 0 292 407"><g clip-path="url(#clip0_930_3238)"><path fill="url(#paint0_radial_930_3238)" d="M16.2642 390C14.6284 389.998 13.0601 389.348 11.9034 388.191C10.7467 387.034 10.0961 385.466 10.0942 383.83V16.169C10.0964 14.5334 10.7471 12.9653 11.9038 11.8088C13.0605 10.6524 14.6286 10.0019 16.2642 10H269.425C271.061 10.0021 272.629 10.6527 273.785 11.8092C274.941 12.9656 275.592 14.5335 275.594 16.169V383.83C275.592 385.466 274.942 387.034 273.785 388.19C272.629 389.347 271.061 389.998 269.425 390H16.2642Z"/><path fill="#E1EF74" d="M265.594 20V380H20.0942V20H265.594ZM269.425 0H16.2642C7.33324 0 0.0942383 7.239 0.0942383 16.169V383.83C0.0942383 392.761 7.33324 400 16.2642 400H269.425C278.355 400 285.594 392.761 285.594 383.83V16.169C285.594 7.239 278.354 0 269.425 0Z"/><path fill="#414042" d="M269.425 10C271.061 10.0021 272.629 10.6527 273.785 11.8092C274.941 12.9656 275.592 14.5335 275.594 16.169V383.83C275.592 385.466 274.942 387.034 273.785 388.19C272.629 389.347 271.061 389.998 269.425 390H16.2642C14.6284 389.998 13.0601 389.348 11.9034 388.191C10.7467 387.034 10.0961 385.466 10.0942 383.83V16.169C10.0964 14.5334 10.7471 12.9653 11.9038 11.8088C13.0605 10.6524 14.6286 10.0019 16.2642 10H269.425ZM269.425 0H16.2642C7.33324 0 0.0942383 7.239 0.0942383 16.169V383.83C0.0942383 392.761 7.33324 400 16.2642 400H269.425C278.355 400 285.594 392.761 285.594 383.83V16.169C285.594 7.239 278.354 0 269.425 0Z"/><path fill="url(#paint1_radial_930_3238)" d="M69.6886 257.037C69.2836 257.161 68.8456 257.118 68.4716 256.919C68.0973 256.72 67.8171 256.381 67.6926 255.976L39.8446 164.89C39.7214 164.485 39.7639 164.047 39.9627 163.673C40.1616 163.299 40.5007 163.019 40.9056 162.895L103.624 143.72C104.029 143.596 104.467 143.639 104.841 143.838C105.215 144.036 105.495 144.376 105.62 144.781L133.467 235.866C133.59 236.271 133.548 236.709 133.349 237.083C133.15 237.458 132.811 237.738 132.406 237.862L69.6876 257.037H69.6886Z"/><path fill="url(#paint2_radial_930_3238)" d="M69.6886 257.037C69.2836 257.161 68.8456 257.118 68.4716 256.919C68.0973 256.72 67.8171 256.381 67.6926 255.976L39.8446 164.89C39.7214 164.485 39.7639 164.047 39.9627 163.673C40.1616 163.299 40.5007 163.019 40.9056 162.895L103.624 143.72C104.029 143.596 104.467 143.639 104.841 143.838C105.215 144.036 105.495 144.376 105.62 144.781L133.467 235.866C133.59 236.271 133.548 236.709 133.349 237.083C133.15 237.458 132.811 237.738 132.406 237.862L69.6876 257.037H69.6886Z"/><path fill="#66C2E2" d="M103.431 146.486L130.699 235.674L69.8785 254.268L42.6115 165.081L103.431 146.486ZM102.865 141.241L40.1475 160.416C39.0852 160.742 38.1954 161.475 37.6739 162.456C37.1524 163.437 37.0418 164.585 37.3665 165.647L65.2145 256.732C65.5396 257.795 66.2733 258.685 67.2542 259.206C68.2351 259.728 69.383 259.838 70.4455 259.513L133.163 240.338C134.226 240.014 135.116 239.28 135.637 238.299C136.159 237.319 136.27 236.171 135.945 235.108L108.096 144.022C107.771 142.96 107.038 142.07 106.057 141.549C105.076 141.027 103.928 140.917 102.865 141.241Z"/><path fill="#414042" d="M103.622 143.719C104.027 143.595 104.465 143.638 104.839 143.837C105.213 144.036 105.493 144.375 105.618 144.78L133.466 235.865C133.59 236.271 133.548 236.709 133.349 237.083C133.15 237.457 132.811 237.737 132.405 237.861L69.6865 257.036C69.2811 257.16 68.8433 257.118 68.4691 256.919C68.0949 256.72 67.8148 256.381 67.6905 255.975L39.8425 164.889C39.7193 164.484 39.7617 164.047 39.9606 163.673C40.1595 163.299 40.4986 163.019 40.9035 162.894L103.621 143.719H103.622ZM102.865 141.241L40.1475 160.416C39.0852 160.742 38.1954 161.475 37.6739 162.456C37.1524 163.437 37.0418 164.585 37.3665 165.647L65.2145 256.732C65.5396 257.795 66.2733 258.685 67.2542 259.206C68.2351 259.728 69.383 259.838 70.4455 259.513L133.163 240.338C134.226 240.014 135.116 239.28 135.637 238.299C136.159 237.319 136.27 236.171 135.945 235.108L108.096 144.022C107.771 142.96 107.038 142.07 106.057 141.549C105.076 141.027 103.928 140.917 102.865 141.241Z"/><path fill="url(#paint3_linear_930_3238)" d="M92.5348 222.162C91.5338 222.468 90.4778 222.508 89.4808 222.279C87.3218 221.782 85.6518 220.237 85.0128 218.146C84.3738 216.055 84.8948 213.841 86.4068 212.222C87.1165 211.467 88.012 210.911 89.0038 210.611C90.0048 210.305 91.0608 210.265 92.0578 210.495C94.2168 210.992 95.8868 212.536 96.5258 214.627C97.1648 216.718 96.6438 218.932 95.1318 220.551C94.422 221.306 93.5265 221.861 92.5348 222.162Z"/><path fill="#223948" d="M89.192 211.229C90.066 210.962 91.008 210.916 91.911 211.124C92.843 211.332 93.7033 211.783 94.4042 212.432C95.105 213.08 95.6213 213.903 95.9005 214.817C96.1796 215.73 96.2116 216.701 95.9931 217.63C95.7747 218.56 95.3136 219.415 94.657 220.108C94.0247 220.78 93.2271 221.274 92.344 221.541C91.47 221.808 90.528 221.854 89.625 221.646C85.514 220.7 84 215.746 86.879 212.663C87.5111 211.991 88.3087 211.497 89.192 211.229ZM88.813 209.991C87.704 210.33 86.708 210.948 85.932 211.779C84.261 213.57 83.685 216.02 84.392 218.335C85.099 220.65 86.948 222.359 89.335 222.909C90.4561 223.163 91.6244 223.119 92.723 222.78C93.832 222.441 94.829 221.823 95.604 220.992C97.275 219.201 97.851 216.751 97.144 214.436C96.437 212.121 94.589 210.412 92.202 209.862C91.0805 209.607 89.9118 209.652 88.813 209.991Z"/><path fill="url(#paint4_linear_930_3238)" d="M83.2402 206.149C83.1372 206.181 83.0282 206.191 82.9202 206.18C82.8125 206.17 82.7081 206.137 82.6132 206.085C82.5182 206.034 82.4342 205.964 82.3672 205.879C82.2997 205.795 82.2497 205.698 82.2202 205.594C81.1512 201.799 82.8022 197.471 84.7042 194.686C87.0032 191.323 88.0152 188.138 87.4132 186.169C86.4012 182.858 83.1822 183.301 81.3542 183.86C78.2492 184.81 76.5832 187.052 76.2612 190.716C76.2472 190.876 76.1862 191.029 76.0852 191.154C75.9842 191.279 75.8482 191.371 75.6942 191.418C75.5601 191.459 75.4177 191.464 75.2812 191.432L67.1812 189.568C66.9902 189.524 66.8212 189.411 66.7062 189.252C66.5912 189.093 66.5382 188.897 66.5562 188.701C67.1862 181.901 71.7622 176.557 78.7952 174.407C82.5102 173.271 86.1842 173.377 89.7132 174.723C93.2422 176.069 95.6402 178.729 96.8312 182.625C98.4742 187.998 96.0032 192.368 94.0172 195.879C92.5572 198.462 91.2962 200.692 91.8382 202.71C91.8928 202.911 91.8674 203.124 91.7674 203.306C91.6674 203.488 91.5006 203.624 91.3022 203.685L83.2402 206.149Z"/><path fill="#223948" d="M78.9847 175.026C82.6207 173.914 86.1067 174.041 89.4827 175.328C92.8587 176.615 95.0817 179.117 96.2127 182.814C98.9497 191.765 89.7917 197.582 91.2137 202.877C91.2247 202.916 91.2207 202.957 91.2017 202.992C91.1827 203.027 91.1517 203.053 91.1137 203.065L83.0507 205.53C83.0087 205.543 82.9627 205.538 82.9237 205.517C82.8847 205.496 82.8557 205.461 82.8427 205.418C81.8447 201.875 83.4347 197.692 85.2377 195.051C87.0697 192.37 88.8467 188.646 88.0317 185.98C87.1607 183.131 84.6187 182.185 81.1637 183.241C77.8217 184.263 75.9577 186.76 75.6147 190.659C75.6117 190.69 75.6007 190.721 75.5807 190.745C75.5607 190.769 75.5347 190.789 75.5037 190.798C75.4727 190.807 75.4517 190.807 75.4257 190.801L67.3257 188.937C67.2877 188.928 67.2537 188.905 67.2297 188.873C67.2057 188.841 67.1957 188.801 67.1987 188.762C67.8227 182.031 72.4827 177.013 78.9827 175.026H78.9847ZM78.6057 173.787C75.1277 174.85 72.1227 176.743 69.9147 179.261C67.6217 181.876 66.2367 185.12 65.9107 188.642C65.8427 189.365 66.3267 190.036 67.0367 190.199L75.1357 192.063C75.3378 192.109 75.5475 192.112 75.7507 192.07C75.954 192.029 76.146 191.944 76.3137 191.822C76.4817 191.7 76.6207 191.544 76.7227 191.363C76.8249 191.183 76.8869 190.982 76.9047 190.776C77.2007 187.401 78.7177 185.343 81.5417 184.479C83.4927 183.883 85.9867 183.725 86.7927 186.358C87.3377 188.141 86.3567 191.118 84.1677 194.32C82.1837 197.226 80.4657 201.76 81.5947 205.769C81.648 205.956 81.7378 206.13 81.8588 206.281C81.9798 206.433 82.1296 206.559 82.2997 206.653C82.4705 206.746 82.6581 206.804 82.8515 206.824C83.045 206.844 83.2405 206.825 83.4267 206.769L91.4897 204.304C91.8487 204.194 92.1517 203.95 92.3337 203.621C92.5157 203.292 92.5617 202.906 92.4637 202.544C91.9897 200.779 93.1907 198.656 94.5807 196.197C96.6267 192.579 99.1737 188.075 97.4497 182.436C96.1967 178.338 93.6717 175.54 89.9427 174.117C86.2757 172.719 82.4617 172.608 78.6057 173.787Z"/><path fill="url(#paint5_radial_930_3238)" d="M106.647 257.037C106.242 257.161 105.804 257.118 105.43 256.919C105.055 256.72 104.775 256.381 104.651 255.976L76.8026 164.89C76.6794 164.485 76.7219 164.047 76.9208 163.673C77.1196 163.299 77.4587 163.019 77.8636 162.895L140.582 143.72C140.987 143.596 141.425 143.639 141.799 143.838C142.173 144.036 142.453 144.376 142.578 144.781L170.425 235.866C170.548 236.271 170.506 236.709 170.307 237.083C170.108 237.458 169.769 237.738 169.364 237.862L106.646 257.037H106.647Z"/><path fill="url(#paint6_radial_930_3238)" d="M106.647 257.037C106.242 257.161 105.804 257.118 105.43 256.919C105.055 256.72 104.775 256.381 104.651 255.976L76.8026 164.89C76.6794 164.485 76.7219 164.047 76.9208 163.673C77.1196 163.299 77.4587 163.019 77.8636 162.895L140.582 143.72C140.987 143.596 141.425 143.639 141.799 143.838C142.173 144.036 142.453 144.376 142.578 144.781L170.425 235.866C170.548 236.271 170.506 236.709 170.307 237.083C170.108 237.458 169.769 237.738 169.364 237.862L106.646 257.037H106.647Z"/><path fill="#66C2E2" d="M140.39 146.486L167.658 235.674L106.836 254.268L79.5695 165.081L140.39 146.486ZM139.824 141.241L77.1055 160.416C76.0432 160.742 75.1535 161.475 74.6319 162.456C74.1104 163.437 73.9999 164.585 74.3245 165.647L102.172 256.732C102.498 257.795 103.231 258.685 104.212 259.206C105.193 259.728 106.341 259.838 107.403 259.513L170.122 240.338C171.184 240.014 172.074 239.28 172.595 238.299C173.117 237.319 173.228 236.171 172.904 235.108L145.055 144.022C144.729 142.96 143.996 142.07 143.015 141.549C142.034 141.027 140.886 140.917 139.824 141.241Z"/><path fill="#414042" d="M140.581 143.719C140.986 143.595 141.424 143.638 141.798 143.837C142.172 144.036 142.451 144.375 142.576 144.78L170.424 235.865C170.548 236.271 170.506 236.709 170.307 237.083C170.108 237.457 169.769 237.737 169.364 237.861L106.644 257.036C106.239 257.16 105.801 257.118 105.427 256.919C105.053 256.72 104.773 256.381 104.648 255.975L76.8005 164.889C76.6773 164.484 76.7197 164.047 76.9186 163.673C77.1175 163.299 77.4566 163.019 77.8615 162.894L140.579 143.719H140.581ZM139.824 141.241L77.1055 160.416C76.0432 160.742 75.1535 161.475 74.6319 162.456C74.1104 163.437 73.9999 164.585 74.3245 165.647L102.172 256.732C102.498 257.795 103.231 258.685 104.212 259.206C105.193 259.728 106.341 259.838 107.403 259.513L170.122 240.338C171.184 240.014 172.074 239.28 172.595 238.299C173.117 237.319 173.228 236.171 172.904 235.108L145.055 144.022C144.729 142.96 143.996 142.07 143.015 141.549C142.034 141.027 140.886 140.917 139.824 141.241Z"/><path fill="url(#paint7_linear_930_3238)" d="M129.493 222.162C128.492 222.468 127.436 222.508 126.439 222.279C124.28 221.782 122.61 220.237 121.971 218.146C121.332 216.055 121.853 213.841 123.365 212.222C124.075 211.467 124.97 210.911 125.962 210.611C126.963 210.305 128.019 210.265 129.016 210.495C131.175 210.992 132.845 212.536 133.484 214.627C134.123 216.718 133.602 218.932 132.09 220.551C131.38 221.306 130.485 221.861 129.493 222.162Z"/><path fill="#223948" d="M126.15 211.229C127.024 210.962 127.966 210.916 128.869 211.124C129.801 211.332 130.661 211.783 131.362 212.432C132.063 213.08 132.579 213.903 132.858 214.817C133.138 215.73 133.17 216.701 132.951 217.63C132.733 218.56 132.272 219.415 131.615 220.108C130.983 220.78 130.185 221.274 129.302 221.541C128.428 221.808 127.486 221.854 126.583 221.646C122.472 220.7 120.958 215.746 123.837 212.663C124.469 211.991 125.267 211.497 126.15 211.229ZM125.771 209.991C124.662 210.33 123.666 210.948 122.89 211.779C121.219 213.57 120.643 216.02 121.35 218.335C122.057 220.65 123.906 222.359 126.293 222.909C127.414 223.163 128.582 223.119 129.681 222.78C130.79 222.441 131.787 221.823 132.562 220.992C134.233 219.201 134.809 216.751 134.102 214.436C133.395 212.121 131.547 210.412 129.16 209.862C128.039 209.607 126.87 209.652 125.771 209.991Z"/><path fill="url(#paint8_linear_930_3238)" d="M120.198 206.149C120.095 206.181 119.986 206.191 119.878 206.18C119.771 206.17 119.666 206.137 119.571 206.085C119.476 206.034 119.392 205.964 119.325 205.879C119.258 205.795 119.208 205.698 119.178 205.594C118.109 201.799 119.76 197.471 121.662 194.686C123.961 191.323 124.973 188.138 124.371 186.169C123.359 182.858 120.14 183.301 118.312 183.86C115.207 184.81 113.541 187.052 113.219 190.716C113.205 190.876 113.144 191.029 113.043 191.154C112.942 191.279 112.806 191.371 112.652 191.418C112.518 191.459 112.376 191.464 112.239 191.432L104.139 189.568C103.948 189.524 103.779 189.411 103.664 189.252C103.549 189.093 103.496 188.897 103.514 188.701C104.144 181.901 108.72 176.557 115.753 174.407C119.468 173.271 123.142 173.377 126.671 174.723C130.2 176.069 132.598 178.729 133.789 182.625C135.432 187.998 132.961 192.368 130.975 195.879C129.515 198.462 128.254 200.692 128.796 202.71C128.851 202.911 128.825 203.124 128.725 203.306C128.625 203.488 128.459 203.624 128.26 203.685L120.198 206.149Z"/><path fill="#223948" d="M115.943 175.026C119.579 173.914 123.065 174.041 126.441 175.328C129.817 176.615 132.04 179.117 133.171 182.814C135.908 191.765 126.75 197.582 128.172 202.877C128.183 202.916 128.179 202.957 128.16 202.992C128.141 203.027 128.11 203.053 128.072 203.065L120.009 205.53C119.967 205.543 119.921 205.538 119.882 205.517C119.843 205.496 119.814 205.461 119.801 205.418C118.803 201.875 120.393 197.692 122.196 195.051C124.028 192.37 125.805 188.646 124.99 185.98C124.119 183.131 121.577 182.185 118.122 183.241C114.78 184.263 112.916 186.76 112.573 190.659C112.57 190.69 112.559 190.721 112.539 190.745C112.519 190.769 112.493 190.789 112.462 190.798C112.431 190.807 112.41 190.807 112.384 190.801L104.284 188.937C104.246 188.928 104.212 188.905 104.188 188.873C104.164 188.841 104.154 188.801 104.157 188.762C104.781 182.031 109.441 177.013 115.941 175.026H115.943ZM115.564 173.787C112.086 174.85 109.081 176.743 106.873 179.261C104.58 181.876 103.195 185.12 102.869 188.642C102.801 189.365 103.285 190.036 103.995 190.199L112.094 192.063C112.296 192.109 112.506 192.112 112.709 192.07C112.912 192.029 113.104 191.944 113.272 191.822C113.44 191.7 113.579 191.544 113.681 191.363C113.783 191.183 113.845 190.982 113.863 190.776C114.159 187.401 115.676 185.343 118.5 184.479C120.451 183.883 122.945 183.725 123.751 186.358C124.296 188.141 123.315 191.118 121.126 194.32C119.142 197.226 117.424 201.76 118.553 205.769C118.606 205.956 118.696 206.13 118.817 206.281C118.938 206.433 119.088 206.559 119.258 206.653C119.429 206.746 119.616 206.804 119.81 206.824C120.003 206.844 120.198 206.825 120.385 206.769L128.448 204.304C128.807 204.194 129.11 203.95 129.292 203.621C129.474 203.292 129.52 202.906 129.422 202.544C128.948 200.779 130.149 198.656 131.539 196.197C133.585 192.579 136.132 188.075 134.408 182.436C133.155 178.338 130.63 175.54 126.901 174.117C123.234 172.719 119.42 172.608 115.564 173.787Z"/><path fill="url(#paint9_radial_930_3238)" d="M143.605 257.037C143.2 257.161 142.762 257.118 142.388 256.919C142.013 256.72 141.733 256.381 141.609 255.976L113.761 164.89C113.637 164.485 113.68 164.047 113.879 163.673C114.078 163.299 114.417 163.019 114.822 162.895L177.54 143.72C177.945 143.596 178.383 143.639 178.757 143.838C179.131 144.036 179.411 144.376 179.536 144.781L207.383 235.866C207.506 236.271 207.464 236.709 207.265 237.083C207.066 237.458 206.727 237.738 206.322 237.862L143.604 257.037H143.605Z"/><path fill="url(#paint10_radial_930_3238)" d="M143.605 257.037C143.2 257.161 142.762 257.118 142.388 256.919C142.013 256.72 141.733 256.381 141.609 255.976L113.761 164.89C113.637 164.485 113.68 164.047 113.879 163.673C114.078 163.299 114.417 163.019 114.822 162.895L177.54 143.72C177.945 143.596 178.383 143.639 178.757 143.838C179.131 144.036 179.411 144.376 179.536 144.781L207.383 235.866C207.506 236.271 207.464 236.709 207.265 237.083C207.066 237.458 206.727 237.738 206.322 237.862L143.604 257.037H143.605Z"/><path fill="#66C2E2" d="M177.348 146.486L204.616 235.674L143.795 254.268L116.528 165.081L177.348 146.486ZM176.782 141.241L114.064 160.416C113.001 160.742 112.111 161.475 111.59 162.456C111.068 163.437 110.958 164.585 111.283 165.647L139.131 256.732C139.456 257.795 140.189 258.685 141.17 259.206C142.151 259.728 143.299 259.838 144.362 259.513L207.08 240.338C208.142 240.014 209.032 239.28 209.553 238.299C210.075 237.319 210.186 236.171 209.862 235.108L182.013 144.022C181.687 142.96 180.954 142.07 179.973 141.549C178.992 141.027 177.844 140.917 176.782 141.241Z"/><path fill="#414042" d="M177.539 143.719C177.944 143.595 178.382 143.638 178.756 143.837C179.13 144.036 179.41 144.375 179.535 144.78L207.383 235.865C207.506 236.271 207.464 236.709 207.265 237.083C207.066 237.457 206.727 237.737 206.322 237.861L143.603 257.036C143.197 257.16 142.759 257.118 142.385 256.919C142.011 256.72 141.731 256.381 141.607 255.975L113.759 164.889C113.635 164.484 113.678 164.047 113.877 163.673C114.076 163.299 114.415 163.019 114.82 162.894L177.538 143.719H177.539ZM176.782 141.241L114.064 160.416C113.001 160.742 112.111 161.475 111.59 162.456C111.068 163.437 110.958 164.585 111.283 165.647L139.131 256.732C139.456 257.795 140.189 258.685 141.17 259.206C142.151 259.728 143.299 259.838 144.362 259.513L207.08 240.338C208.142 240.014 209.032 239.28 209.553 238.299C210.075 237.319 210.186 236.171 209.862 235.108L182.013 144.022C181.687 142.96 180.954 142.07 179.973 141.549C178.992 141.027 177.844 140.917 176.782 141.241Z"/><path fill="url(#paint11_linear_930_3238)" d="M166.451 222.162C165.45 222.468 164.394 222.508 163.397 222.279C161.238 221.782 159.568 220.237 158.929 218.146C158.29 216.055 158.811 213.841 160.323 212.222C161.033 211.467 161.928 210.911 162.92 210.611C163.921 210.305 164.977 210.265 165.974 210.495C168.133 210.992 169.803 212.536 170.442 214.627C171.081 216.718 170.56 218.932 169.048 220.551C168.338 221.306 167.443 221.861 166.451 222.162Z"/><path fill="#223948" d="M163.108 211.229C163.982 210.962 164.924 210.916 165.827 211.124C166.759 211.332 167.619 211.783 168.32 212.432C169.021 213.08 169.537 213.903 169.816 214.817C170.096 215.73 170.128 216.701 169.909 217.63C169.691 218.56 169.23 219.415 168.573 220.108C167.941 220.78 167.143 221.274 166.26 221.541C165.386 221.808 164.444 221.854 163.541 221.646C159.43 220.7 157.916 215.746 160.795 212.663C161.427 211.991 162.225 211.497 163.108 211.229ZM162.729 209.991C161.62 210.33 160.624 210.948 159.848 211.779C158.177 213.57 157.601 216.02 158.308 218.335C159.015 220.65 160.864 222.359 163.251 222.909C164.372 223.163 165.54 223.119 166.639 222.78C167.748 222.441 168.745 221.823 169.52 220.992C171.191 219.201 171.767 216.751 171.06 214.436C170.353 212.121 168.505 210.412 166.118 209.862C164.997 209.607 163.828 209.652 162.729 209.991Z"/><path fill="url(#paint12_linear_930_3238)" d="M157.156 206.149C157.053 206.181 156.944 206.191 156.836 206.18C156.729 206.17 156.624 206.137 156.529 206.085C156.434 206.034 156.35 205.964 156.283 205.879C156.216 205.795 156.166 205.698 156.136 205.594C155.067 201.799 156.718 197.471 158.62 194.686C160.919 191.323 161.931 188.138 161.329 186.169C160.317 182.858 157.098 183.301 155.27 183.86C152.165 184.81 150.499 187.052 150.177 190.716C150.163 190.876 150.102 191.029 150.001 191.154C149.9 191.279 149.764 191.371 149.61 191.418C149.476 191.459 149.334 191.464 149.197 191.432L141.097 189.568C140.906 189.524 140.737 189.411 140.622 189.252C140.507 189.093 140.454 188.897 140.472 188.701C141.102 181.901 145.678 176.557 152.711 174.407C156.426 173.271 160.1 173.377 163.629 174.723C167.158 176.069 169.556 178.729 170.747 182.625C172.39 187.998 169.919 192.368 167.933 195.879C166.473 198.462 165.212 200.692 165.754 202.71C165.809 202.911 165.783 203.124 165.683 203.306C165.583 203.488 165.417 203.624 165.218 203.685L157.156 206.149Z"/><path fill="#223948" d="M152.901 175.026C156.537 173.914 160.023 174.041 163.399 175.328C166.775 176.615 168.998 179.117 170.129 182.814C172.866 191.765 163.708 197.582 165.13 202.877C165.141 202.916 165.137 202.957 165.118 202.992C165.099 203.027 165.068 203.053 165.03 203.065L156.967 205.53C156.925 205.543 156.879 205.538 156.84 205.517C156.801 205.496 156.772 205.461 156.759 205.418C155.761 201.875 157.351 197.692 159.154 195.051C160.986 192.37 162.763 188.646 161.948 185.98C161.077 183.131 158.535 182.185 155.08 183.241C151.738 184.263 149.874 186.76 149.531 190.659C149.528 190.69 149.517 190.721 149.497 190.745C149.477 190.769 149.451 190.789 149.42 190.798C149.389 190.807 149.368 190.807 149.342 190.801L141.242 188.937C141.204 188.928 141.17 188.905 141.146 188.873C141.122 188.841 141.112 188.801 141.115 188.762C141.739 182.031 146.399 177.013 152.899 175.026H152.901ZM152.522 173.787C149.044 174.85 146.039 176.743 143.831 179.261C141.538 181.876 140.153 185.12 139.827 188.642C139.759 189.365 140.243 190.036 140.953 190.199L149.052 192.063C149.254 192.109 149.464 192.112 149.667 192.07C149.87 192.029 150.062 191.944 150.23 191.822C150.398 191.7 150.537 191.544 150.639 191.363C150.741 191.183 150.803 190.982 150.821 190.776C151.117 187.401 152.634 185.343 155.458 184.479C157.409 183.883 159.903 183.725 160.709 186.358C161.254 188.141 160.273 191.118 158.084 194.32C156.1 197.226 154.382 201.76 155.511 205.769C155.564 205.956 155.654 206.13 155.775 206.281C155.896 206.433 156.046 206.559 156.216 206.653C156.387 206.746 156.574 206.804 156.768 206.824C156.961 206.844 157.156 206.825 157.343 206.769L165.406 204.304C165.765 204.194 166.068 203.95 166.25 203.621C166.432 203.292 166.478 202.906 166.38 202.544C165.906 200.779 167.107 198.656 168.497 196.197C170.543 192.579 173.09 188.075 171.366 182.436C170.113 178.338 167.588 175.54 163.859 174.117C160.192 172.719 156.378 172.608 152.522 173.787Z"/><path fill="url(#paint13_radial_930_3238)" d="M180.563 257.037C180.158 257.161 179.72 257.118 179.346 256.919C178.971 256.72 178.691 256.381 178.567 255.976L150.719 164.89C150.595 164.485 150.638 164.047 150.837 163.673C151.036 163.299 151.375 163.019 151.78 162.895L214.498 143.72C214.903 143.596 215.341 143.639 215.715 143.838C216.089 144.036 216.369 144.376 216.494 144.781L244.341 235.866C244.464 236.271 244.422 236.709 244.223 237.083C244.024 237.458 243.685 237.738 243.28 237.862L180.562 257.037H180.563Z"/><path fill="#66C2E2" d="M214.306 146.486L241.574 235.674L180.753 254.268L153.486 165.081L214.306 146.486ZM213.74 141.241L151.022 160.416C149.959 160.742 149.069 161.475 148.548 162.456C148.026 163.437 147.916 164.585 148.241 165.647L176.089 256.732C176.414 257.795 177.147 258.685 178.128 259.206C179.109 259.728 180.257 259.838 181.32 259.513L244.038 240.338C245.1 240.014 245.99 239.28 246.511 238.299C247.033 237.319 247.144 236.171 246.82 235.108L218.971 144.022C218.645 142.96 217.912 142.07 216.931 141.549C215.95 141.027 214.802 140.917 213.74 141.241Z"/><path fill="#414042" d="M214.497 143.719C214.902 143.595 215.34 143.638 215.714 143.837C216.088 144.036 216.368 144.375 216.493 144.78L244.341 235.865C244.464 236.271 244.422 236.709 244.223 237.083C244.024 237.457 243.685 237.737 243.28 237.861L180.561 257.036C180.155 257.16 179.717 257.118 179.343 256.919C178.969 256.72 178.689 256.381 178.565 255.975L150.717 164.889C150.593 164.484 150.636 164.047 150.835 163.673C151.034 163.299 151.373 163.019 151.778 162.894L214.496 143.719H214.497ZM213.74 141.241L151.022 160.416C149.959 160.742 149.069 161.475 148.548 162.456C148.026 163.437 147.916 164.585 148.241 165.647L176.089 256.732C176.414 257.795 177.147 258.685 178.128 259.206C179.109 259.728 180.257 259.838 181.32 259.513L244.038 240.338C245.1 240.014 245.99 239.28 246.511 238.299C247.033 237.319 247.144 236.171 246.82 235.108L218.971 144.022C218.645 142.96 217.912 142.07 216.931 141.549C215.95 141.027 214.802 140.917 213.74 141.241Z"/><path fill="url(#paint14_linear_930_3238)" d="M203.409 222.162C202.408 222.468 201.352 222.508 200.355 222.279C198.196 221.782 196.526 220.237 195.887 218.146C195.248 216.055 195.769 213.841 197.281 212.222C197.991 211.467 198.886 210.911 199.878 210.611C200.879 210.305 201.935 210.265 202.932 210.495C205.091 210.992 206.761 212.536 207.4 214.627C208.039 216.718 207.518 218.932 206.006 220.551C205.296 221.306 204.401 221.861 203.409 222.162Z"/><path fill="#223948" d="M200.066 211.229C200.94 210.962 201.882 210.916 202.785 211.124C203.717 211.332 204.577 211.783 205.278 212.432C205.979 213.08 206.495 213.903 206.774 214.817C207.054 215.73 207.086 216.701 206.867 217.63C206.649 218.56 206.188 219.415 205.531 220.108C204.899 220.78 204.101 221.274 203.218 221.541C202.344 221.808 201.402 221.854 200.499 221.646C196.388 220.7 194.874 215.746 197.753 212.663C198.385 211.991 199.183 211.497 200.066 211.229ZM199.687 209.991C198.578 210.33 197.582 210.948 196.806 211.779C195.135 213.57 194.559 216.02 195.266 218.335C195.973 220.65 197.822 222.359 200.209 222.909C201.33 223.163 202.498 223.119 203.597 222.78C204.706 222.441 205.703 221.823 206.478 220.992C208.149 219.201 208.725 216.751 208.018 214.436C207.311 212.121 205.463 210.412 203.076 209.862C201.955 209.607 200.786 209.652 199.687 209.991Z"/><path fill="url(#paint15_linear_930_3238)" d="M194.114 206.149C194.011 206.181 193.902 206.191 193.794 206.18C193.687 206.17 193.582 206.137 193.487 206.085C193.392 206.034 193.308 205.964 193.241 205.879C193.174 205.795 193.124 205.698 193.094 205.594C192.025 201.799 193.676 197.471 195.578 194.686C197.877 191.323 198.889 188.138 198.287 186.169C197.275 182.858 194.056 183.301 192.228 183.86C189.123 184.81 187.457 187.052 187.135 190.716C187.121 190.876 187.06 191.029 186.959 191.154C186.858 191.279 186.722 191.371 186.568 191.418C186.434 191.459 186.292 191.464 186.155 191.432L178.055 189.568C177.864 189.524 177.695 189.411 177.58 189.252C177.465 189.093 177.412 188.897 177.43 188.701C178.06 181.901 182.636 176.557 189.669 174.407C193.384 173.271 197.058 173.377 200.587 174.723C204.116 176.069 206.514 178.729 207.705 182.625C209.348 187.998 206.877 192.368 204.891 195.879C203.431 198.462 202.17 200.692 202.712 202.71C202.767 202.911 202.741 203.124 202.641 203.306C202.541 203.488 202.375 203.624 202.176 203.685L194.114 206.149Z"/><path fill="#223948" d="M189.859 175.026C193.495 173.914 196.981 174.041 200.357 175.328C203.733 176.615 205.956 179.117 207.087 182.814C209.824 191.765 200.666 197.582 202.088 202.877C202.099 202.916 202.095 202.957 202.076 202.992C202.057 203.027 202.026 203.053 201.988 203.065L193.925 205.53C193.883 205.543 193.837 205.538 193.798 205.517C193.759 205.496 193.73 205.461 193.717 205.418C192.719 201.875 194.309 197.692 196.112 195.051C197.944 192.37 199.721 188.646 198.906 185.98C198.035 183.131 195.493 182.185 192.038 183.241C188.696 184.263 186.832 186.76 186.489 190.659C186.486 190.69 186.475 190.721 186.455 190.745C186.435 190.769 186.409 190.789 186.378 190.798C186.347 190.807 186.326 190.807 186.3 190.801L178.2 188.937C178.162 188.928 178.128 188.905 178.104 188.873C178.08 188.841 178.07 188.801 178.073 188.762C178.697 182.031 183.357 177.013 189.857 175.026H189.859ZM189.48 173.787C186.002 174.85 182.997 176.743 180.789 179.261C178.496 181.876 177.111 185.12 176.785 188.642C176.717 189.365 177.201 190.036 177.911 190.199L186.01 192.063C186.212 192.109 186.422 192.112 186.625 192.07C186.828 192.029 187.02 191.944 187.188 191.822C187.356 191.7 187.495 191.544 187.597 191.363C187.699 191.183 187.761 190.982 187.779 190.776C188.075 187.401 189.592 185.343 192.416 184.479C194.367 183.883 196.861 183.725 197.667 186.358C198.212 188.141 197.231 191.118 195.042 194.32C193.058 197.226 191.34 201.76 192.469 205.769C192.522 205.956 192.612 206.13 192.733 206.281C192.854 206.433 193.004 206.559 193.174 206.653C193.345 206.746 193.532 206.804 193.726 206.824C193.919 206.844 194.114 206.825 194.301 206.769L202.364 204.304C202.723 204.194 203.026 203.95 203.208 203.621C203.39 203.292 203.436 202.906 203.338 202.544C202.864 200.779 204.065 198.656 205.455 196.197C207.501 192.579 210.048 188.075 208.324 182.436C207.071 178.338 204.546 175.54 200.817 174.117C197.15 172.719 193.336 172.608 189.48 173.787Z"/><path fill="#FBFBF9" d="M191.093 373.031C171.518 373.031 162.817 370.587 161.999 364.86C161.656 362.458 161.766 358.505 161.882 354.319L162.001 348.046C162.001 341.762 169.434 329.032 180.026 327.432L180.959 327.291L181.332 327.793C181.857 327.995 184.025 328.63 191.038 328.934C198.259 328.622 200.415 327.958 200.898 327.766L201.29 327.301L202.159 327.432C212.751 329.032 220.185 341.762 220.185 348.046C220.185 350.027 220.245 352.21 220.304 354.32C220.42 358.506 220.53 362.459 220.188 364.86C219.368 370.587 210.668 373.031 191.093 373.031Z"/><path fill="#47412A" d="M201.924 328.986C211.567 330.442 218.613 342.216 218.613 348.047C218.613 353.873 219.125 361.182 218.631 364.639C218.085 368.463 212.215 371.462 191.093 371.462C169.971 371.462 164.1 368.464 163.554 364.639C163.06 361.182 163.572 353.873 163.572 348.047C163.572 342.216 170.619 330.443 180.261 328.986C180.261 328.986 181.074 330.081 191.038 330.508C201.001 330.08 201.924 328.986 201.924 328.986ZM181.658 325.597L179.792 325.879C168.744 327.548 160.43 340.477 160.43 348.046C160.43 350.005 160.37 352.176 160.312 354.276C160.194 358.531 160.082 362.549 160.444 365.083C161.41 371.844 170.29 374.603 191.093 374.603C211.896 374.603 220.777 371.844 221.743 365.083C222.104 362.549 221.993 358.532 221.874 354.278L221.755 348.046C221.755 340.477 213.441 327.548 202.394 325.879L200.655 325.616L199.986 326.41C199.19 326.627 196.846 327.108 191.038 327.362C185.474 327.117 183.137 326.667 182.288 326.446L181.658 325.597Z"/><path fill="#FBFBF9" d="M190.663 330.984C189.45 330.984 186.498 330.958 185.288 330.715C179.85 329.63 167.198 324.67 167.198 302.09C167.198 285.654 175.508 276.603 190.596 276.603C205.846 276.603 214.592 285.892 214.592 302.09C214.592 323.201 204.324 329.337 195.711 330.765C194.748 330.927 192.471 330.984 190.663 330.984Z"/><path fill="#47412A" d="M190.793 277.745C207.536 277.745 213.217 288.847 213.217 301.661C213.217 319.707 205.7 327.119 195.651 328.787C194.885 328.915 192.886 328.984 190.86 328.984C188.748 328.984 186.605 328.908 185.793 328.746C177.038 327 168.966 319.41 168.966 301.661C168.966 288.847 174.124 277.745 190.793 277.745ZM190.793 274.603C174.691 274.603 165.823 284.212 165.823 301.661C165.823 325.404 179.359 330.667 185.179 331.827C186.476 332.087 189.295 332.126 190.86 332.126C192.023 332.126 194.87 332.103 196.168 331.886C205.377 330.358 216.359 323.873 216.359 301.66C216.359 284.465 207.041 274.603 190.793 274.603Z"/><path fill="url(#paint16_linear_930_3238)" d="M144.79 326.47C144.787 322.645 141.684 319.529 137.868 319.529H126.476V286.396C126.475 284.794 125.837 283.258 124.704 282.125C123.57 280.991 122.034 280.354 120.432 280.353H88.7516C87.1492 280.354 85.613 280.991 84.4799 282.124C83.3468 283.257 82.7094 284.793 82.7076 286.396V319.529H71.3166C69.4787 319.533 67.7177 320.266 66.4199 321.568C65.122 322.869 64.3933 324.632 64.3936 326.47C64.3936 328.137 64.9856 329.7 66.1056 330.983L99.3806 369.134C100.03 369.877 100.831 370.472 101.73 370.881C102.628 371.289 103.604 371.5 104.591 371.5C105.578 371.5 106.554 371.289 107.453 370.881C108.352 370.472 109.153 369.877 109.802 369.134L143.077 330.983C144.182 329.739 144.791 328.133 144.789 326.47H144.79Z"/><path fill="url(#paint17_linear_930_3238)" d="M144.79 326.47C144.787 322.645 141.684 319.529 137.868 319.529H126.476V286.396C126.475 284.794 125.837 283.258 124.704 282.125C123.57 280.991 122.034 280.354 120.432 280.353H88.7516C87.1492 280.354 85.613 280.991 84.4799 282.124C83.3468 283.257 82.7094 284.793 82.7076 286.396V319.529H71.3166C69.4787 319.533 67.7177 320.266 66.4199 321.568C65.122 322.869 64.3933 324.632 64.3936 326.47C64.3936 328.137 64.9856 329.7 66.1056 330.983L99.3806 369.134C100.03 369.877 100.831 370.472 101.73 370.881C102.628 371.289 103.604 371.5 104.591 371.5C105.578 371.5 106.554 371.289 107.453 370.881C108.352 370.472 109.153 369.877 109.802 369.134L143.077 330.983C144.182 329.739 144.791 328.133 144.789 326.47H144.79Z"/><path fill="#162F0D" d="M65.5333 326.387C65.5333 327.569 65.9373 328.776 66.8353 329.807L100.11 367.954C100.603 368.518 101.21 368.97 101.892 369.281C102.574 369.591 103.315 369.752 104.064 369.752C104.813 369.752 105.554 369.592 106.236 369.281C106.918 368.97 107.525 368.518 108.017 367.954L141.292 329.802C142.13 328.861 142.593 327.645 142.595 326.386C142.595 323.678 140.474 321.11 137.339 321.11H124.281V286.313C124.281 285.152 123.82 284.039 122.999 283.219C122.178 282.398 121.065 281.937 119.904 281.937H88.2243C87.0633 281.937 85.9503 282.398 85.1293 283.219C84.3083 284.04 83.8473 285.153 83.8473 286.313V321.113H70.7873C67.6533 321.113 65.5333 323.682 65.5333 326.387ZM62.1983 326.387C62.1983 321.641 66.0533 317.779 70.7863 317.779H80.5123V286.313C80.5143 284.269 81.3273 282.309 82.7733 280.864C84.2193 279.419 86.1793 278.605 88.2233 278.603H119.903C121.948 278.605 123.908 279.418 125.353 280.864C126.799 282.309 127.612 284.269 127.614 286.313V317.779H137.338C142.075 317.779 145.928 321.64 145.928 326.387C145.921 328.451 145.167 330.443 143.804 331.995L110.529 370.144C109.724 371.067 108.73 371.807 107.614 372.314C106.499 372.821 105.288 373.083 104.063 373.083C102.838 373.083 101.627 372.821 100.512 372.314C99.3973 371.807 98.4033 371.067 97.5973 370.144L64.3203 331.995C62.9593 330.444 62.2063 328.452 62.1983 326.387Z"/><g opacity=".3"><path fill="#413C25" d="M151.537 128.248C151.286 128.248 151.044 128.148 150.866 127.97C150.687 127.792 150.587 127.55 150.587 127.299V115.569C150.587 115.32 150.685 115.081 150.859 114.904L182.658 82.4529C190.176 74.9338 193.984 68.4069 193.984 63.0459C193.984 54.9499 188.956 49.9209 180.86 49.9209C173.543 49.9209 168.281 53.4549 164.772 60.7229C164.715 60.8409 164.634 60.9459 164.534 61.0319C164.434 61.1179 164.318 61.1809 164.193 61.2189C164.068 61.2569 163.936 61.2684 163.805 61.2529C163.674 61.2369 163.549 61.1949 163.436 61.1279L150.793 53.6989C150.589 53.5788 150.436 53.3865 150.366 53.1599C150.297 52.9329 150.314 52.6889 150.415 52.4739C156.146 40.3668 167.195 33.4229 180.731 33.4229C189.109 33.4229 196.251 36.0489 201.959 41.2279C207.872 46.4669 210.875 53.6349 210.875 62.5249C210.875 71.9469 205.565 82.1668 195.093 92.9008L176.118 111.879H211.619C211.871 111.879 212.113 111.979 212.29 112.157C212.468 112.336 212.568 112.577 212.568 112.829V127.297C212.568 127.548 212.468 127.79 212.29 127.968C212.112 128.146 211.871 128.246 211.619 128.246H151.537V128.248Z" opacity=".3"/><path fill="#413C25" d="M180.806 35.3228C188.884 35.3228 195.793 37.7978 201.395 42.8808C207.132 47.9648 210 54.8728 210 63.4748C210 72.7288 204.785 82.6328 194.488 93.1878L173.899 113.78H211.692V128.247H151.612V116.518L183.412 84.0658C191.1 76.3758 195.009 69.5998 195.009 63.9948C195.009 55.1338 189.276 49.9198 180.936 49.9198C173.245 49.9198 167.64 53.7008 163.991 61.2578L151.348 53.8298C157.084 41.7108 168.162 35.3238 180.806 35.3238V35.3228ZM180.806 33.4238C166.888 33.4238 155.525 40.5658 149.632 53.0178C149.429 53.4469 149.394 53.9363 149.534 54.3898C149.673 54.8428 149.978 55.2278 150.387 55.4678L163.03 62.8968C163.257 63.0298 163.508 63.1138 163.769 63.1448C164.03 63.1758 164.294 63.1518 164.545 63.0758C164.796 62.9998 165.028 62.8718 165.228 62.7008C165.428 62.5298 165.589 62.3198 165.703 62.0838C169.038 55.1768 174.021 51.8188 180.937 51.8188C188.446 51.8188 193.111 56.4848 193.111 63.9948C193.111 69.0238 189.292 75.4998 182.07 82.7238L150.256 115.19C149.909 115.545 149.714 116.022 149.714 116.519V128.248C149.714 128.751 149.914 129.235 150.27 129.591C150.626 129.948 151.11 130.148 151.613 130.148H211.693C212.197 130.148 212.68 129.948 213.036 129.591C213.392 129.235 213.592 128.751 213.592 128.248V113.781C213.592 113.277 213.392 112.794 213.036 112.438C212.68 112.081 212.197 111.881 211.693 111.881H178.485L195.832 94.5318C206.499 83.5968 211.9 73.1548 211.9 63.4758C211.9 54.3028 208.79 46.8958 202.656 41.4608C196.783 36.1348 189.427 33.4258 180.806 33.4258V33.4238ZM95.2612 112.255C95.0092 112.255 94.7682 112.155 94.5902 111.976C94.4123 111.798 94.3123 111.556 94.3122 111.305V90.2288H73.2352C72.9832 90.2288 72.7416 90.1287 72.5634 89.9506C72.3852 89.7724 72.2852 89.5308 72.2852 89.2788V75.9858C72.2852 75.7339 72.3852 75.4922 72.5634 75.3141C72.7416 75.1359 72.9832 75.0358 73.2352 75.0358H94.3112V53.9608C94.3112 53.7089 94.4112 53.4672 94.5894 53.2891C94.7676 53.1109 95.0092 53.0108 95.2612 53.0108H108.556C108.808 53.0111 109.049 53.1113 109.227 53.2894C109.405 53.4676 109.505 53.709 109.505 53.9608V75.0348H130.581C130.833 75.0351 131.074 75.1353 131.252 75.3134C131.43 75.4916 131.53 75.7331 131.53 75.9848V89.2778C131.53 89.5296 131.43 89.7711 131.252 89.9492C131.074 90.1274 130.833 90.2276 130.581 90.2278H109.505V111.303C109.505 111.555 109.405 111.796 109.227 111.974C109.049 112.152 108.808 112.253 108.556 112.253H95.2612V112.254V112.255Z" opacity=".3"/><path fill="#413C25" d="M180.806 35.3228C188.884 35.3228 195.793 37.7978 201.395 42.8808C207.132 47.9648 210 54.8728 210 63.4748C210 72.7288 204.785 82.6328 194.488 93.1878L173.899 113.78H211.692V128.247H151.612V116.518L183.412 84.0658C191.1 76.3758 195.009 69.5998 195.009 63.9948C195.009 55.1338 189.276 49.9198 180.936 49.9198C173.245 49.9198 167.64 53.7008 163.991 61.2578L151.348 53.8298C157.084 41.7108 168.162 35.3238 180.806 35.3238V35.3228ZM180.806 33.4238C166.888 33.4238 155.525 40.5658 149.632 53.0178C149.429 53.4469 149.394 53.9363 149.534 54.3898C149.673 54.8428 149.978 55.2278 150.387 55.4678L163.03 62.8968C163.257 63.0298 163.508 63.1138 163.769 63.1448C164.03 63.1758 164.294 63.1518 164.545 63.0758C164.796 62.9998 165.028 62.8718 165.228 62.7008C165.428 62.5298 165.589 62.3198 165.703 62.0838C169.038 55.1768 174.021 51.8188 180.937 51.8188C188.446 51.8188 193.111 56.4848 193.111 63.9948C193.111 69.0238 189.292 75.4998 182.07 82.7238L150.256 115.19C149.909 115.545 149.714 116.022 149.714 116.519V128.248C149.714 128.751 149.914 129.235 150.27 129.591C150.626 129.948 151.11 130.148 151.613 130.148H211.693C212.197 130.148 212.68 129.948 213.036 129.591C213.392 129.235 213.592 128.751 213.592 128.248V113.781C213.592 113.277 213.392 112.794 213.036 112.438C212.68 112.081 212.197 111.881 211.693 111.881H178.485L195.832 94.5318C206.499 83.5968 211.9 73.1548 211.9 63.4758C211.9 54.3028 208.79 46.8958 202.656 41.4608C196.783 36.1348 189.427 33.4258 180.806 33.4258V33.4238ZM95.2612 112.255C95.0092 112.255 94.7682 112.155 94.5902 111.976C94.4123 111.798 94.3123 111.556 94.3122 111.305V90.2288H73.2352C72.9832 90.2288 72.7416 90.1287 72.5634 89.9506C72.3852 89.7724 72.2852 89.5308 72.2852 89.2788V75.9858C72.2852 75.7339 72.3852 75.4922 72.5634 75.3141C72.7416 75.1359 72.9832 75.0358 73.2352 75.0358H94.3112V53.9608C94.3112 53.7089 94.4112 53.4672 94.5894 53.2891C94.7676 53.1109 95.0092 53.0108 95.2612 53.0108H108.556C108.808 53.0111 109.049 53.1113 109.227 53.2894C109.405 53.4676 109.505 53.709 109.505 53.9608V75.0348H130.581C130.833 75.0351 131.074 75.1353 131.252 75.3134C131.43 75.4916 131.53 75.7331 131.53 75.9848V89.2778C131.53 89.5296 131.43 89.7711 131.252 89.9492C131.074 90.1274 130.833 90.2276 130.581 90.2278H109.505V111.303C109.505 111.555 109.405 111.796 109.227 111.974C109.049 112.152 108.808 112.253 108.556 112.253H95.2612V112.254V112.255Z" opacity=".3"/><path fill="#413C25" d="M109.713 54.0406V76.0646H131.738V89.3576H109.713V111.383H96.4182V89.3576H74.3922V76.0656H96.4182V54.0406H109.713ZM109.713 52.1416H96.4182C95.9146 52.1419 95.4317 52.342 95.0757 52.6981C94.7196 53.0542 94.5194 53.537 94.5192 54.0406V74.1656H74.3922C73.8886 74.1659 73.4057 74.366 73.0497 74.7221C72.6936 75.0782 72.4934 75.561 72.4932 76.0646V89.3576C72.4934 89.8612 72.6936 90.344 73.0497 90.7001C73.4057 91.0562 73.8886 91.2563 74.3922 91.2566H94.5192V111.382C94.5194 111.885 94.7196 112.368 95.0757 112.724C95.4317 113.08 95.9146 113.28 96.4182 113.281H109.713C110.217 113.28 110.7 113.08 111.056 112.724C111.412 112.368 111.612 111.885 111.612 111.382V91.2566H131.738C132.242 91.2563 132.725 91.0562 133.081 90.7001C133.437 90.344 133.637 89.8612 133.637 89.3576V76.0656C133.637 75.562 133.437 75.0792 133.081 74.7231C132.725 74.367 132.242 74.1669 131.738 74.1666H111.612V54.0406C111.612 53.537 111.412 53.0542 111.056 52.6981C110.7 52.342 110.217 52.1419 109.713 52.1416Z" opacity=".3"/><path fill="#413C25" d="M109.713 54.0406V76.0646H131.738V89.3576H109.713V111.383H96.4182V89.3576H74.3922V76.0656H96.4182V54.0406H109.713ZM109.713 52.1416H96.4182C95.9146 52.1419 95.4317 52.342 95.0757 52.6981C94.7196 53.0542 94.5194 53.537 94.5192 54.0406V74.1656H74.3922C73.8886 74.1659 73.4057 74.366 73.0497 74.7221C72.6936 75.0782 72.4934 75.561 72.4932 76.0646V89.3576C72.4934 89.8612 72.6936 90.344 73.0497 90.7001C73.4057 91.0562 73.8886 91.2563 74.3922 91.2566H94.5192V111.382C94.5194 111.885 94.7196 112.368 95.0757 112.724C95.4317 113.08 95.9146 113.28 96.4182 113.281H109.713C110.217 113.28 110.7 113.08 111.056 112.724C111.412 112.368 111.612 111.885 111.612 111.382V91.2566H131.738C132.242 91.2563 132.725 91.0562 133.081 90.7001C133.437 90.344 133.637 89.8612 133.637 89.3576V76.0656C133.637 75.562 133.437 75.0792 133.081 74.7231C132.725 74.367 132.242 74.1669 131.738 74.1666H111.612V54.0406C111.612 53.537 111.412 53.0542 111.056 52.6981C110.7 52.342 110.217 52.1419 109.713 52.1416Z" opacity=".3"/></g><path fill="#FBFBF9" d="M150.869 127.377C150.617 127.377 150.375 127.277 150.197 127.098C150.02 126.92 149.92 126.678 149.919 126.427V114.697C149.92 114.448 150.017 114.21 150.191 114.033L181.99 81.5808C189.507 74.0618 193.316 67.5348 193.316 62.1738C193.316 54.0778 188.287 49.0478 180.192 49.0478C172.875 49.0478 167.613 52.5818 164.103 59.8498C164.046 59.9678 163.966 60.0728 163.866 60.1588C163.767 60.2441 163.65 60.3078 163.524 60.3458C163.399 60.3838 163.267 60.3958 163.136 60.3798C163.006 60.3641 162.88 60.3215 162.767 60.2548L150.124 52.8268C149.92 52.7068 149.768 52.5138 149.698 52.2878C149.629 52.061 149.646 51.8163 149.747 51.6018C155.477 39.4948 166.527 32.5508 180.063 32.5508C188.441 32.5508 195.583 35.1768 201.29 40.3568C207.204 45.5958 210.207 52.7638 210.207 61.6538C210.207 71.0758 204.897 81.2958 194.425 92.0298L175.449 111.009H210.95C211.202 111.009 211.444 111.109 211.622 111.287C211.8 111.465 211.9 111.707 211.9 111.959V126.426C211.9 126.678 211.8 126.919 211.622 127.098C211.444 127.276 211.202 127.376 210.95 127.376L150.869 127.377Z"/><path fill="#47412A" d="M180.063 33.5015C188.141 33.5015 195.05 35.9765 200.653 41.0605C206.39 46.1445 209.258 53.0525 209.258 61.6545C209.258 70.9085 204.043 80.8125 193.745 91.3675L173.156 111.959H210.95V126.427H150.87V114.697L182.669 82.2455C190.358 74.5555 194.267 67.7795 194.267 62.1735C194.267 53.3135 188.534 48.0985 180.193 48.0985C172.503 48.0985 166.898 51.8795 163.249 59.4365L150.606 52.0085C156.342 39.8895 167.419 33.5025 180.063 33.5025V33.5015ZM180.063 31.6025C166.146 31.6025 154.783 38.7445 148.89 51.1965C148.687 51.6255 148.652 52.1145 148.791 52.5685C148.931 53.0219 149.235 53.4065 149.645 53.6465L162.288 61.0755C162.515 61.2085 162.766 61.2925 163.027 61.3235C163.287 61.3544 163.552 61.3309 163.803 61.2545C164.054 61.1787 164.287 61.0513 164.486 60.8805C164.686 60.7097 164.847 60.4992 164.961 60.2625C168.296 53.3555 173.279 49.9975 180.194 49.9975C187.704 49.9975 192.368 54.6635 192.368 62.1735C192.368 67.2025 188.55 73.6775 181.327 80.9025L149.514 113.369C149.166 113.724 148.972 114.201 148.972 114.697V126.427C148.972 126.93 149.172 127.413 149.528 127.769C149.884 128.125 150.367 128.325 150.871 128.326H210.951C211.454 128.325 211.937 128.125 212.293 127.769C212.649 127.413 212.849 126.93 212.85 126.427V111.96C212.85 111.456 212.65 110.973 212.294 110.616C211.937 110.26 211.454 110.06 210.951 110.06H177.742L195.089 92.7095C205.757 81.7745 211.158 71.3325 211.158 61.6535C211.158 52.4805 208.048 45.0735 201.914 39.6375C196.041 34.3115 188.685 31.6025 180.063 31.6025Z"/><path fill="#FBFBF9" d="M94.519 110.432C94.267 110.432 94.0254 110.332 93.8472 110.154C93.6691 109.976 93.569 109.734 93.569 109.482V88.4074H72.493C72.241 88.4074 71.9994 88.3073 71.8212 88.1292C71.6431 87.951 71.543 87.7094 71.543 87.4574V74.1654C71.543 74.0407 71.5675 73.9171 71.6153 73.8019C71.663 73.6866 71.733 73.5819 71.8212 73.4937C71.9094 73.4055 72.0142 73.3355 72.1294 73.2877C72.2447 73.24 72.3682 73.2154 72.493 73.2154H93.569V52.1404C93.569 51.8885 93.6691 51.6468 93.8472 51.4687C94.0254 51.2905 94.267 51.1904 94.519 51.1904H107.814C107.939 51.1904 108.062 51.215 108.178 51.2627C108.293 51.3105 108.398 51.3805 108.486 51.4687C108.574 51.5569 108.644 51.6616 108.692 51.7769C108.739 51.8921 108.764 52.0157 108.764 52.1404V73.2144H129.839C130.091 73.2144 130.333 73.3145 130.511 73.4927C130.689 73.6708 130.789 73.9125 130.789 74.1644V87.4574C130.789 87.5822 130.764 87.7057 130.717 87.821C130.669 87.9362 130.599 88.041 130.511 88.1292C130.423 88.2174 130.318 88.2874 130.203 88.3351C130.087 88.3829 129.964 88.4074 129.839 88.4074H108.764V109.482C108.764 109.607 108.739 109.731 108.692 109.846C108.644 109.961 108.574 110.066 108.486 110.154C108.398 110.242 108.293 110.312 108.178 110.36C108.062 110.408 107.939 110.432 107.814 110.432H94.519Z"/><path fill="#47412A" d="M107.814 52.1402V74.1642H129.839V87.4572H107.814V109.481H94.5188V87.4582H72.4928V74.1652H94.5188V52.1402H107.814ZM107.814 50.2412H94.5188C94.0152 50.2415 93.5323 50.4416 93.1762 50.7977C92.8202 51.1538 92.62 51.6366 92.6198 52.1402V72.2652H72.4928C71.9892 72.2655 71.5063 72.4656 71.1502 72.8217C70.7942 73.1778 70.594 73.6606 70.5938 74.1642V87.4572C70.594 87.9608 70.7942 88.4436 71.1502 88.7997C71.5063 89.1558 71.9892 89.3559 72.4928 89.3562H92.6198V109.481C92.6198 109.985 92.8197 110.468 93.1758 110.824C93.5318 111.181 94.0148 111.381 94.5188 111.381H107.814C108.318 111.381 108.801 111.181 109.157 110.824C109.513 110.468 109.713 109.985 109.713 109.481V89.3572H129.839C130.342 89.3569 130.825 89.1568 131.181 88.8007C131.537 88.4446 131.737 87.9618 131.738 87.4582V74.1652C131.737 73.6616 131.537 73.1788 131.181 72.8227C130.825 72.4666 130.342 72.2665 129.839 72.2662H109.713V52.1402C109.712 51.6366 109.512 51.1538 109.156 50.7977C108.8 50.4416 108.317 50.2415 107.814 50.2412Z"/></g><defs><radialGradient id="paint0_radial_930_3238" cx="0" cy="0" r="1" gradientTransform="translate(142.845 200) scale(177.165 177.5)" gradientUnits="userSpaceOnUse"><stop stop-color="#E5ECAC"/><stop offset=".5" stop-color="#BDD26F"/><stop offset="1" stop-color="#98C52F"/></radialGradient><radialGradient id="paint1_radial_930_3238" cx="0" cy="0" r="1" gradientTransform="translate(5784.47 -2590.89) rotate(-107) scale(3980.97 4968.95)" gradientUnits="userSpaceOnUse"><stop stop-color="#32B4BA"/><stop offset=".163" stop-color="#30ABBA"/><stop offset=".429" stop-color="#2B93BA"/><stop offset=".762" stop-color="#236BBA"/><stop offset="1" stop-color="#1D4BBA"/></radialGradient><radialGradient id="paint2_radial_930_3238" cx="0" cy="0" r="1" gradientTransform="matrix(-0.00929129 -48.9332 59.6891 -0.008105 86.6537 200.378)" gradientUnits="userSpaceOnUse"><stop stop-color="#32B4BA"/><stop offset=".163" stop-color="#30ABBA"/><stop offset=".429" stop-color="#2B93BA"/><stop offset=".762" stop-color="#236BBA"/><stop offset="1" stop-color="#1D4BBA"/></radialGradient><linearGradient id="paint3_linear_930_3238" x1="1005.13" x2="962.393" y1="2886.27" y2="2746.82" gradientUnits="userSpaceOnUse"><stop stop-color="#70AEFE"/><stop offset=".16" stop-color="#83BCFE"/><stop offset=".527" stop-color="#ABD7FE"/><stop offset=".82" stop-color="#C3E9FE"/><stop offset="1" stop-color="#CCEFFE"/></linearGradient><linearGradient id="paint4_linear_930_3238" x1="2266.23" x2="1951.02" y1="6822.93" y2="5847.06" gradientUnits="userSpaceOnUse"><stop stop-color="#70AEFE"/><stop offset=".16" stop-color="#83BCFE"/><stop offset=".527" stop-color="#ABD7FE"/><stop offset=".82" stop-color="#C3E9FE"/><stop offset="1" stop-color="#CCEFFE"/></linearGradient><radialGradient id="paint5_radial_930_3238" cx="0" cy="0" r="1" gradientTransform="translate(5821.43 -2590.89) rotate(-107) scale(3980.97 4968.95)" gradientUnits="userSpaceOnUse"><stop stop-color="#32B4BA"/><stop offset=".163" stop-color="#30ABBA"/><stop offset=".429" stop-color="#2B93BA"/><stop offset=".762" stop-color="#236BBA"/><stop offset="1" stop-color="#1D4BBA"/></radialGradient><radialGradient id="paint6_radial_930_3238" cx="0" cy="0" r="1" gradientTransform="matrix(-0.00929129 -48.9332 59.6891 -0.008105 123.612 200.378)" gradientUnits="userSpaceOnUse"><stop stop-color="#32B4BA"/><stop offset=".163" stop-color="#30ABBA"/><stop offset=".429" stop-color="#2B93BA"/><stop offset=".762" stop-color="#236BBA"/><stop offset="1" stop-color="#1D4BBA"/></radialGradient><linearGradient id="paint7_linear_930_3238" x1="1042.08" x2="999.351" y1="2886.27" y2="2746.82" gradientUnits="userSpaceOnUse"><stop stop-color="#70AEFE"/><stop offset=".16" stop-color="#83BCFE"/><stop offset=".527" stop-color="#ABD7FE"/><stop offset=".82" stop-color="#C3E9FE"/><stop offset="1" stop-color="#CCEFFE"/></linearGradient><linearGradient id="paint8_linear_930_3238" x1="2303.19" x2="1987.98" y1="6822.93" y2="5847.06" gradientUnits="userSpaceOnUse"><stop stop-color="#70AEFE"/><stop offset=".16" stop-color="#83BCFE"/><stop offset=".527" stop-color="#ABD7FE"/><stop offset=".82" stop-color="#C3E9FE"/><stop offset="1" stop-color="#CCEFFE"/></linearGradient><radialGradient id="paint9_radial_930_3238" cx="0" cy="0" r="1" gradientTransform="translate(5858.39 -2590.89) rotate(-107) scale(3980.97 4968.95)" gradientUnits="userSpaceOnUse"><stop stop-color="#32B4BA"/><stop offset=".163" stop-color="#30ABBA"/><stop offset=".429" stop-color="#2B93BA"/><stop offset=".762" stop-color="#236BBA"/><stop offset="1" stop-color="#1D4BBA"/></radialGradient><radialGradient id="paint10_radial_930_3238" cx="0" cy="0" r="1" gradientTransform="matrix(-0.00929129 -48.9332 59.6891 -0.008105 160.57 200.378)" gradientUnits="userSpaceOnUse"><stop stop-color="#32B4BA"/><stop offset=".163" stop-color="#30ABBA"/><stop offset=".429" stop-color="#2B93BA"/><stop offset=".762" stop-color="#236BBA"/><stop offset="1" stop-color="#1D4BBA"/></radialGradient><linearGradient id="paint11_linear_930_3238" x1="1079.04" x2="1036.31" y1="2886.27" y2="2746.82" gradientUnits="userSpaceOnUse"><stop stop-color="#70AEFE"/><stop offset=".16" stop-color="#83BCFE"/><stop offset=".527" stop-color="#ABD7FE"/><stop offset=".82" stop-color="#C3E9FE"/><stop offset="1" stop-color="#CCEFFE"/></linearGradient><linearGradient id="paint12_linear_930_3238" x1="2340.15" x2="2024.94" y1="6822.93" y2="5847.06" gradientUnits="userSpaceOnUse"><stop stop-color="#70AEFE"/><stop offset=".16" stop-color="#83BCFE"/><stop offset=".527" stop-color="#ABD7FE"/><stop offset=".82" stop-color="#C3E9FE"/><stop offset="1" stop-color="#CCEFFE"/></linearGradient><radialGradient id="paint13_radial_930_3238" cx="0" cy="0" r="1" gradientTransform="matrix(-0.00929129 -48.9332 59.6891 -0.008105 197.528 200.378)" gradientUnits="userSpaceOnUse"><stop stop-color="#32B4BA"/><stop offset=".163" stop-color="#30ABBA"/><stop offset=".429" stop-color="#2B93BA"/><stop offset=".762" stop-color="#236BBA"/><stop offset="1" stop-color="#1D4BBA"/></radialGradient><linearGradient id="paint14_linear_930_3238" x1="1116" x2="1073.27" y1="2886.27" y2="2746.82" gradientUnits="userSpaceOnUse"><stop stop-color="#70AEFE"/><stop offset=".16" stop-color="#83BCFE"/><stop offset=".527" stop-color="#ABD7FE"/><stop offset=".82" stop-color="#C3E9FE"/><stop offset="1" stop-color="#CCEFFE"/></linearGradient><linearGradient id="paint15_linear_930_3238" x1="2377.11" x2="2061.9" y1="6822.93" y2="5847.06" gradientUnits="userSpaceOnUse"><stop stop-color="#70AEFE"/><stop offset=".16" stop-color="#83BCFE"/><stop offset=".527" stop-color="#ABD7FE"/><stop offset=".82" stop-color="#C3E9FE"/><stop offset="1" stop-color="#CCEFFE"/></linearGradient><linearGradient id="paint16_linear_930_3238" x1="8194.6" x2="5269.22" y1="16240.2" y2="17730.2" gradientUnits="userSpaceOnUse"><stop stop-color="#4CE02D"/><stop offset=".094" stop-color="#52E733"/><stop offset=".17" stop-color="#44D626"/><stop offset=".341" stop-color="#3AC91D"/><stop offset=".525" stop-color="#37C41A"/><stop offset=".731" stop-color="#32BD15"/><stop offset="1" stop-color="#30BB13"/></linearGradient><linearGradient id="paint17_linear_930_3238" x1="91.975" x2="139.229" y1="288.458" y2="351.801" gradientUnits="userSpaceOnUse"><stop stop-color="#55EC36"/><stop offset=".195" stop-color="#45D727"/><stop offset=".419" stop-color="#39C71C"/><stop offset=".671" stop-color="#32BD15"/><stop offset="1" stop-color="#30BA13"/></linearGradient><clipPath id="clip0_930_3238"><rect width="291.969" height="406.205" fill="#fff"/></clipPath></defs></svg>