<svg width="292" height="407" viewBox="0 0 292 407" fill="none" xmlns="http://www.w3.org/2000/svg">
<g clip-path="url(#clip0_3331_1850)">
<mask id="mask0_3331_1850" style="mask-type:luminance" maskUnits="userSpaceOnUse" x="0" y="0" width="292" height="407">
<path d="M291.969 0H0V406.205H291.969V0Z" fill="white"/>
</mask>
<g mask="url(#mask0_3331_1850)">
<path d="M16.2638 390C14.6279 389.998 13.0596 389.348 11.9029 388.191C10.7462 387.034 10.0956 385.466 10.0938 383.83V16.169C10.0959 14.5334 10.7466 12.9653 11.9033 11.8088C13.06 10.6524 14.6281 10.0019 16.2638 10H269.425C271.06 10.0021 272.628 10.6527 273.785 11.8092C274.941 12.9656 275.592 14.5335 275.594 16.169V383.83C275.592 385.466 274.941 387.034 273.785 388.19C272.628 389.347 271.06 389.998 269.425 390H16.2638Z" fill="url(#paint0_radial_3331_1850)"/>
<path d="M63.8061 355.242C63.4091 355.362 62.9791 355.321 62.6131 355.126C62.2464 354.931 61.972 354.598 61.8501 354.201L34.5461 264.895C34.4256 264.498 34.4674 264.069 34.6623 263.702C34.8572 263.336 35.1893 263.061 35.5861 262.939L97.0791 244.139C97.4765 244.018 97.9056 244.06 98.2724 244.255C98.6392 244.45 98.9138 244.782 99.0361 245.179L126.34 334.484C126.461 334.882 126.419 335.311 126.224 335.677C126.029 336.044 125.697 336.319 125.3 336.441L63.8061 355.242Z" fill="url(#paint1_radial_3331_1850)"/>
<path d="M96.8911 246.852L123.625 334.297L63.9931 352.528L37.2591 265.083L96.8911 246.852ZM96.3361 241.71L34.8431 260.51C33.802 260.829 32.93 261.549 32.4187 262.51C31.9074 263.471 31.7986 264.597 32.1161 265.638L59.4191 354.943C60.0821 357.113 62.3781 358.334 64.5471 357.67L126.04 338.87C128.209 338.207 129.43 335.911 128.766 333.742L101.463 244.436C100.8 242.267 98.5051 241.046 96.3361 241.71Z" fill="#C2E1D8"/>
<path d="M97.0791 244.139C97.4765 244.018 97.9056 244.06 98.2724 244.255C98.6392 244.45 98.9138 244.782 99.0361 245.179L126.339 334.484C126.46 334.882 126.418 335.311 126.223 335.678C126.028 336.044 125.696 336.319 125.299 336.441L63.8061 355.241C63.4087 355.362 62.9796 355.32 62.6128 355.125C62.246 354.931 61.9714 354.598 61.8491 354.201L34.5461 264.895C34.4255 264.498 34.4672 264.069 34.6621 263.702C34.8571 263.335 35.1891 263.061 35.5871 262.939L97.0791 244.139ZM96.3361 241.71L34.8431 260.51C33.802 260.829 32.93 261.549 32.4187 262.51C31.9074 263.471 31.7986 264.597 32.1161 265.638L59.4191 354.943C60.0821 357.113 62.3781 358.334 64.5471 357.67L126.04 338.87C128.209 338.207 129.43 335.911 128.766 333.742L101.463 244.436C100.8 242.267 98.5051 241.046 96.3361 241.71Z" fill="#414042"/>
<path d="M76.5757 307.081C75.7717 307.327 75.0347 307.427 74.3227 307.388C73.3077 307.331 72.3427 306.973 71.6147 306.668C69.4805 305.772 67.5108 304.526 65.7867 302.982C64.5387 301.865 61.8097 297.722 62.1667 295.363C62.5337 292.944 63.9907 290.909 65.2187 289.406C65.8767 288.601 66.9017 287.484 68.1907 287.09C68.5997 286.965 69.0137 286.92 69.4217 286.955C70.3457 287.035 71.1557 287.536 71.8067 287.938L78.5577 292.115C79.9307 292.965 81.3507 293.844 82.6187 294.924C83.0747 295.313 83.5847 295.793 83.9117 296.41C84.3827 297.299 84.4577 298.446 84.1307 299.728C83.4107 302.553 81.0897 305.107 77.9207 306.561C77.4427 306.78 77.0027 306.95 76.5737 307.081H76.5757Z" fill="#E7FFF1"/>
<path d="M68.3397 287.575C68.6717 287.474 69.0186 287.429 69.3786 287.461C70.1656 287.529 70.8686 287.955 71.5396 288.37L78.2906 292.547C79.6696 293.401 81.0556 294.258 82.2896 295.311C82.7436 295.698 83.1836 296.12 83.4636 296.648C83.9356 297.54 83.8896 298.624 83.6396 299.602C82.8906 302.54 80.4656 304.835 77.7106 306.099C77.2946 306.289 76.8656 306.461 76.4266 306.595C75.7506 306.802 75.0536 306.919 74.3496 306.88C73.4706 306.831 72.6226 306.54 71.8106 306.199C69.7296 305.324 67.8076 304.109 66.1246 302.603C64.9716 301.571 62.3426 297.582 62.6686 295.439C62.9946 293.296 64.2396 291.406 65.6116 289.727C66.3496 288.825 67.2687 287.903 68.3397 287.575ZM68.0426 286.604C66.6206 287.038 65.5257 288.227 64.8257 289.084C63.5567 290.637 62.0496 292.746 61.6646 295.286C61.2536 297.993 64.3146 302.345 65.4476 303.36C67.2137 304.943 69.2314 306.219 71.4176 307.136C72.1826 307.457 73.2006 307.834 74.2936 307.894C75.0666 307.938 75.8616 307.83 76.7236 307.567C77.1736 307.429 77.6346 307.251 78.1336 307.022C81.4396 305.505 83.8666 302.825 84.6236 299.853C84.9826 298.447 84.8916 297.174 84.3606 296.172C83.9936 295.48 83.4406 294.957 82.9476 294.537C81.6506 293.432 80.2136 292.543 78.8246 291.683L72.0736 287.506C71.3766 287.075 70.5097 286.539 69.4657 286.448C68.9857 286.408 68.5026 286.461 68.0426 286.604Z" fill="#5B7776"/>
<path d="M67.9224 313.939C67.3024 314.128 66.6664 314.222 66.0684 314.302C64.8854 314.46 63.5114 314.609 62.1774 314.373C60.6824 314.108 59.4154 313.352 58.7024 312.298C58.2354 311.609 58.0034 310.815 57.7874 309.995C57.4824 308.831 57.1834 307.587 57.1684 306.294C57.1574 305.272 57.3344 303.792 58.2424 302.549C58.3014 302.473 58.7514 301.919 59.4614 301.702C59.6234 301.653 59.7884 301.624 59.9514 301.618C60.8794 301.581 61.7024 302.032 62.3994 302.458L65.7444 304.692L67.2764 305.764C68.1994 306.409 69.2464 307.14 69.9654 308.167C70.8104 309.372 71.0114 310.814 70.4904 311.93C70.1334 312.695 69.4264 313.334 68.5004 313.728C68.3184 313.806 68.1234 313.877 67.9204 313.939H67.9224Z" fill="#E7FFF1"/>
<path d="M59.6126 302.189C59.73 302.152 59.8517 302.131 59.9746 302.126C60.7506 302.096 61.4756 302.488 62.1386 302.892L65.4566 305.11L66.9886 306.181C67.9316 306.839 68.8936 307.518 69.5526 308.459C70.2116 309.4 70.5196 310.674 70.0336 311.716C69.6986 312.432 69.0326 312.952 68.3046 313.262C68.1314 313.335 67.9545 313.399 67.7746 313.454C67.2006 313.629 66.5986 313.72 66.0016 313.8C64.7626 313.965 63.4976 314.092 62.2666 313.873C61.0356 313.654 59.8246 313.05 59.1236 312.015C58.6906 311.374 58.4766 310.614 58.2796 309.867C57.9716 308.694 57.6906 307.501 57.6776 306.289C57.6646 305.077 57.9386 303.829 58.6536 302.849C58.6536 302.849 59.0326 302.366 59.6106 302.189H59.6126ZM59.3156 301.217C58.4746 301.475 57.9516 302.1 57.8556 302.223L57.8446 302.236L57.8346 302.25C57.0506 303.324 56.6456 304.724 56.6626 306.3C56.6776 307.651 56.9846 308.931 57.2976 310.125C57.5246 310.99 57.7716 311.828 58.2826 312.584C59.0716 313.751 60.4596 314.585 62.0896 314.874C63.4956 315.123 64.9156 314.97 66.1366 314.807C66.7556 314.724 67.4146 314.627 68.0716 314.426L68.7026 314.197C69.7436 313.753 70.5436 313.025 70.9536 312.146C71.5516 310.866 71.3336 309.23 70.3846 307.876C69.6136 306.776 68.5276 306.018 67.5696 305.348L66.0376 304.277L62.6656 302.025C61.9036 301.561 61.0016 301.069 59.9326 301.112C59.7226 301.12 59.5146 301.156 59.3136 301.217H59.3156Z" fill="#5B7776"/>
<path d="M93.8671 312.294C93.4711 312.415 93.0521 312.487 92.6221 312.51C91.4681 312.569 90.3511 312.28 89.5071 312.021C88.2467 311.635 87.0249 311.132 85.8571 310.52C83.7141 309.396 82.4981 308.035 82.2421 306.475C82.0411 305.249 82.4681 303.877 83.4121 302.71C84.2191 301.713 85.2521 300.988 86.2541 300.289C86.4391 300.122 87.7571 298.917 88.3021 298.047L88.6201 297.497C88.8161 297.145 89.0181 296.782 89.2841 296.445C89.8261 295.76 90.6011 295.249 91.5261 294.966C92.3971 294.7 93.3551 294.643 94.2971 294.804C96.1041 295.111 97.6691 296.075 98.9941 296.954C100.03 297.642 101.21 298.47 102.097 299.599C103.322 301.166 103.876 303.154 103.639 305.128C103.567 305.714 103.434 306.164 103.219 306.545C102.827 307.238 102.173 307.683 101.585 308.026C100.695 308.545 99.7509 308.964 98.7691 309.275L98.1481 309.465C97.4911 309.666 96.8641 309.881 96.4221 310.311C96.2871 310.442 96.1631 310.599 96.0321 310.765L95.6561 311.215C95.1981 311.703 94.5791 312.076 93.8671 312.294Z" fill="#E7FFF1"/>
<path d="M91.6737 295.452C92.4837 295.205 93.3747 295.163 94.2107 295.305C95.8517 295.583 97.3247 296.457 98.7117 297.378C99.8047 298.103 100.886 298.883 101.697 299.913C102.834 301.376 103.35 303.227 103.133 305.066C103.081 305.493 102.986 305.921 102.775 306.296C102.453 306.866 101.892 307.257 101.327 307.587C100.47 308.087 99.5597 308.491 98.6137 308.791L98.4197 308.851L97.9967 308.979C97.2897 309.195 96.5887 309.438 96.0657 309.946C95.7767 310.226 95.5597 310.573 95.2837 310.866C94.8607 311.317 94.3107 311.626 93.7167 311.807C93.3517 311.918 92.9746 311.983 92.5937 312.002C91.5977 312.053 90.6077 311.827 89.6537 311.534C88.4237 311.158 87.2307 310.667 86.0907 310.07C84.5667 309.27 83.0197 308.09 82.7417 306.392C82.5457 305.196 83.0427 303.971 83.8057 303.029C84.5687 302.087 85.5757 301.381 86.5687 300.687C86.5687 300.687 88.1007 299.322 88.7307 298.316C89.0537 297.8 89.3027 297.237 89.6797 296.76C90.1867 296.12 90.8917 295.691 91.6717 295.452H91.6737ZM91.3767 294.481C90.3537 294.793 89.4917 295.364 88.8857 296.13C88.5937 296.499 88.3807 296.881 88.1757 297.251L87.8717 297.778C87.4337 298.476 86.3677 299.502 85.9387 299.89C84.9607 300.573 83.8627 301.347 83.0177 302.39C81.9817 303.669 81.5167 305.188 81.7407 306.557C82.0237 308.283 83.3287 309.768 85.6207 310.97C86.816 311.597 88.0671 312.111 89.3577 312.506C90.2417 312.777 91.4147 313.08 92.6477 313.017C93.1197 312.992 93.5797 312.912 94.0157 312.779C94.8117 312.536 95.5067 312.115 96.0257 311.562C96.1797 311.399 96.3127 311.229 96.4307 311.079L96.7747 310.675C97.1357 310.325 97.6997 310.132 98.2947 309.95L98.5037 309.887L98.7177 309.822C99.8077 309.494 100.856 309.039 101.84 308.465C102.486 308.087 103.209 307.594 103.66 306.795C103.909 306.354 104.062 305.844 104.142 305.19C104.394 303.082 103.803 300.959 102.496 299.285C101.561 298.097 100.342 297.241 99.2737 296.531C97.8047 295.556 96.1957 294.611 94.3817 294.303C93.3798 294.129 92.351 294.19 91.3767 294.481Z" fill="#5B7776"/>
<path d="M100.214 294.836C99.4934 295.057 98.6764 295.026 97.6424 294.74L96.8824 294.509C96.3524 294.341 95.8514 294.182 95.3394 294.116L94.8614 294.07C94.3104 294.027 93.6864 293.978 93.1464 293.628C92.4574 293.183 92.0434 292.311 92.0104 291.238C91.9554 289.469 92.7924 287.829 93.4274 286.749L94.0934 285.586L94.1334 285.543C94.4714 285.181 94.9164 284.899 95.5344 284.656L96.0304 284.482C97.7584 283.954 99.6354 284.15 101.053 285.006C102.782 286.051 103.782 288.092 103.484 289.971C103.393 290.54 103.192 291.082 103.011 291.546C102.53 292.779 101.796 294.26 100.374 294.783L100.216 294.836H100.214Z" fill="#E7FFF1"/>
<path d="M96.1779 284.969C97.7049 284.502 99.4259 284.618 100.789 285.442C102.291 286.349 103.256 288.159 102.981 289.892C102.9 290.398 102.724 290.884 102.537 291.362C102.067 292.567 101.412 293.86 100.198 294.307L100.067 294.351C99.3319 294.576 98.5239 294.458 97.7779 294.251C96.9869 294.033 96.2179 293.718 95.4039 293.613C94.7279 293.526 93.9939 293.573 93.4219 293.203C92.7879 292.792 92.5409 291.977 92.5179 291.223C92.4719 289.728 93.1069 288.296 93.8649 287.007L94.5039 285.89C94.8329 285.538 95.2719 285.306 95.7199 285.129L96.1779 284.969ZM95.8809 283.997L95.3469 284.184C94.6559 284.456 94.1519 284.778 93.7609 285.196L93.6799 285.283L93.6209 285.385L92.9819 286.502C92.3209 287.627 91.4419 289.355 91.5009 291.255C91.5399 292.497 92.0379 293.518 92.8689 294.055C93.5169 294.475 94.2399 294.532 94.8199 294.578L95.2729 294.62C95.7409 294.681 96.2199 294.833 96.7279 294.994L97.5059 295.231C98.6369 295.543 99.5449 295.572 100.363 295.322L100.547 295.26C102.159 294.668 102.962 293.063 103.482 291.731C103.673 291.243 103.885 290.67 103.983 290.052C104.313 287.974 103.215 285.721 101.313 284.572C99.7519 283.629 97.7729 283.419 95.8809 283.997Z" fill="#5B7776"/>
<path d="M87.4958 296.067C86.1328 296.484 85.1558 295.986 84.6308 295.719C84.2428 295.521 83.9108 295.268 83.5898 295.023L80.0798 292.349C79.2448 291.713 78.3818 291.056 77.6688 290.224C76.8378 289.256 76.3568 288.192 76.2768 287.147C76.1878 285.986 76.7748 284.79 76.7998 284.739L76.8278 284.683L76.8688 284.635C77.4818 283.92 78.3798 283.366 79.4658 283.034L79.5588 283.006C80.4978 282.732 81.4548 282.639 82.5188 282.553C84.1208 282.424 85.5618 282.354 86.9688 282.791C87.6778 283.011 88.3438 283.358 88.9328 283.664C89.3358 283.874 89.8378 284.135 90.1938 284.578C90.5598 285.033 90.7028 285.583 90.8168 286.025L91.4208 288.506C91.5668 289.146 91.6868 289.727 91.6748 290.345C91.6658 290.831 91.5738 291.346 91.3928 291.92C90.9218 293.413 90.0458 294.639 88.9248 295.371C88.4238 295.699 87.9558 295.926 87.4958 296.067Z" fill="#E7FFF1"/>
<path d="M79.6145 283.519L79.7015 283.493C80.6285 283.222 81.5975 283.136 82.5595 283.059C83.9855 282.944 85.4525 282.851 86.8185 283.275C87.4745 283.478 88.0885 283.796 88.6975 284.113C89.0995 284.323 89.5135 284.542 89.7975 284.896C90.0815 285.25 90.2105 285.709 90.3245 286.152L90.9245 288.618C91.0535 289.183 91.1765 289.755 91.1665 290.335C91.1575 290.821 91.0545 291.302 90.9075 291.766C90.5085 293.031 89.7565 294.22 88.6465 294.945C88.1645 295.26 87.7345 295.462 87.3465 295.58C86.2645 295.911 85.5065 295.595 84.8605 295.266C84.5145 295.09 84.2045 294.854 83.8965 294.618L80.3865 291.944C79.5605 291.316 78.7285 290.68 78.0525 289.892C77.3765 289.104 76.8605 288.142 76.7815 287.107C76.7025 286.072 77.2525 284.965 77.2525 284.965C77.8615 284.255 78.7185 283.793 79.6145 283.519ZM79.3175 282.547C78.1395 282.907 77.1585 283.515 76.4825 284.304L76.4005 284.4L76.3445 284.513C76.2755 284.652 75.6725 285.908 75.7705 287.185C75.8595 288.338 76.3825 289.503 77.2835 290.554C78.0315 291.427 78.9165 292.101 79.7725 292.753L83.2825 295.427C83.6055 295.673 83.9725 295.952 84.4005 296.171C85.2755 296.617 86.2735 296.971 87.6445 296.552C88.1515 296.397 88.6615 296.15 89.2025 295.796C90.4205 295 91.3705 293.677 91.8775 292.072C92.0735 291.451 92.1735 290.889 92.1835 290.353C92.1965 289.623 92.0345 288.911 91.9165 288.392L91.3085 285.897C91.1885 285.434 91.0245 284.799 90.5885 284.258C90.1665 283.733 89.6115 283.444 89.1665 283.212C88.5595 282.896 87.8715 282.538 87.1185 282.305C85.6255 281.841 84.1335 281.913 82.4775 282.046C81.3855 282.134 80.4015 282.23 79.4165 282.517L79.3175 282.547Z" fill="#5B7776"/>
<path d="M83.6337 299.593C83.8827 298.615 83.9297 297.531 83.4577 296.639C83.1787 296.111 82.7387 295.688 82.2837 295.301C81.0497 294.249 79.6647 293.391 78.2857 292.538C76.0347 291.145 78.9847 293.94 78.5897 294.623C78.0787 295.51 77.3297 295.791 76.3497 296.508C74.5997 297.788 71.5137 298.091 69.3397 299.173C67.3987 300.139 64.9667 301.561 66.1197 302.594C67.8029 304.099 69.7244 305.314 71.8057 306.19C72.6177 306.531 73.4657 306.822 74.3447 306.871C75.5047 306.935 76.6497 306.574 77.7047 306.09C80.4597 304.825 82.8847 302.53 83.6337 299.593ZM66.9837 306.17L65.4517 305.099L62.1337 302.881C61.4707 302.476 65.7987 305.732 66.4557 307.826C67.1127 309.92 67.2537 310.837 66.3917 311.88C65.4827 312.978 63.8917 312.575 61.7497 312.395C59.6077 312.215 58.1117 309.362 58.3037 310.11C58.7637 311.9 59.7647 313.496 62.2627 313.863C64.0517 314.126 64.7587 313.955 65.9977 313.789C66.7817 313.684 67.5727 313.561 68.2997 313.251C69.0267 312.941 69.6937 312.422 70.0287 311.705C70.5157 310.664 70.2077 309.39 69.5477 308.449C68.8877 307.508 67.9267 306.828 66.9837 306.17ZM98.8837 297.383C97.4877 296.465 96.9697 296.271 96.2357 295.94C94.7117 295.249 101.442 300.314 100.396 301.623L98.7987 303.746C98.1617 304.754 93.4777 306.659 93.4777 306.659C92.4737 307.356 89.9457 307.391 87.3427 306.796C86.1537 306.524 82.5627 305.251 82.7577 306.446C83.0337 308.145 84.5917 309.322 86.1257 310.119C87.2747 310.714 88.4757 311.201 89.7147 311.575C90.6757 311.865 91.6737 312.089 92.6777 312.035C93.6817 311.981 94.7027 311.621 95.3927 310.892C95.6717 310.597 95.8907 310.25 96.1837 309.968C96.8677 309.31 97.8497 309.092 98.7567 308.805C99.7111 308.503 100.629 308.097 101.495 307.594C102.066 307.263 102.633 306.869 102.958 306.298C103.172 305.923 103.269 305.493 103.323 305.067C103.433 304.156 103.364 303.231 103.117 302.347C102.871 301.463 102.453 300.636 101.887 299.913C101.073 298.883 99.9837 298.106 98.8837 297.383ZM101.044 285.489C99.4177 284.857 101.26 286.429 100.976 287.377C100.838 287.839 100.254 289.11 99.3237 289.055L96.1957 289.829C95.1027 290.606 92.6057 289.82 92.6527 291.314C92.6757 292.069 92.7137 292.752 93.3477 293.162C93.9197 293.533 95.0027 293.536 95.6797 293.623C96.4937 293.728 97.2697 294.111 98.0607 294.33C98.8517 294.549 99.5607 294.499 100.332 294.217C101.546 293.771 102.2 292.477 102.67 291.272C102.857 290.794 103.034 290.308 103.114 289.802C103.39 288.069 102.679 286.125 101.044 285.489ZM80.3817 291.935L83.8917 294.609C84.1997 294.844 84.5107 295.08 84.8557 295.256C85.7327 295.703 86.8167 296.127 88.6407 294.935C89.7517 294.21 90.5027 293.022 90.9017 291.757C91.0477 291.293 91.1517 290.812 91.1607 290.325C91.1707 289.746 91.0477 289.173 90.9187 288.608L90.3187 286.142C90.2037 285.699 90.0787 285.243 89.7907 284.886C89.5027 284.529 89.0927 284.313 88.6907 284.104C88.0817 283.787 88.0687 283.602 88.2047 284.276C88.4657 285.57 88.7327 285.236 88.1457 285.789C87.4427 286.451 86.9797 286.126 86.3517 286.859L85.0217 288.309C84.2937 289.048 82.7597 290.67 81.7677 290.973C81.2267 291.139 79.5557 291.306 80.3817 291.935Z" fill="#94BFAC"/>
<path d="M126.005 355.243C125.608 355.363 125.178 355.322 124.812 355.127C124.446 354.932 124.17 354.599 124.049 354.202L96.7453 264.896C96.6248 264.499 96.6666 264.07 96.8615 263.703C97.0564 263.337 97.3886 263.062 97.7853 262.94L159.279 244.14C159.677 244.019 160.105 244.061 160.472 244.256C160.839 244.451 161.113 244.783 161.235 245.18L188.539 334.485C188.66 334.882 188.618 335.312 188.423 335.678C188.228 336.045 187.895 336.32 187.498 336.442L126.005 355.243Z" fill="url(#paint2_radial_3331_1850)"/>
<path d="M159.089 246.852L185.824 334.297L126.192 352.528L99.4583 265.083L159.089 246.852ZM158.535 241.71L97.0423 260.51C96.0012 260.829 95.1292 261.549 94.6179 262.51C94.1066 263.471 93.9978 264.597 94.3153 265.638L121.618 354.943C122.282 357.113 124.577 358.334 126.746 357.67L188.24 338.87C190.409 338.207 191.63 335.911 190.966 333.742L163.663 244.436C163 242.267 160.704 241.046 158.535 241.71Z" fill="#C2E1D8"/>
<path d="M159.277 244.139C159.675 244.018 160.104 244.06 160.471 244.255C160.837 244.45 161.112 244.782 161.234 245.179L188.537 334.484C188.658 334.882 188.617 335.311 188.422 335.678C188.227 336.044 187.894 336.319 187.497 336.441L126.004 355.241C125.607 355.362 125.178 355.32 124.811 355.125C124.444 354.931 124.17 354.598 124.047 354.201L96.7443 264.895C96.6238 264.498 96.6656 264.069 96.8605 263.703C97.0554 263.336 97.3876 263.061 97.7843 262.939L159.277 244.139ZM158.535 241.71L97.0423 260.51C96.0012 260.829 95.1292 261.549 94.6179 262.51C94.1066 263.471 93.9978 264.597 94.3153 265.638L121.618 354.943C122.282 357.113 124.577 358.334 126.746 357.67L188.24 338.87C190.409 338.207 191.63 335.911 190.966 333.742L163.663 244.436C163 242.267 160.704 241.046 158.535 241.71Z" fill="#414042"/>
<path d="M138.775 307.081C137.971 307.327 137.234 307.427 136.521 307.388C135.506 307.331 134.541 306.973 133.814 306.668C131.68 305.772 129.71 304.526 127.986 302.982C126.738 301.865 124.008 297.722 124.366 295.363C124.733 292.944 126.19 290.909 127.419 289.406C128.077 288.601 129.102 287.484 130.391 287.09C130.799 286.965 131.214 286.92 131.622 286.955C132.546 287.035 133.356 287.536 134.007 287.938L140.758 292.115C142.131 292.965 143.551 293.844 144.819 294.924C145.275 295.313 145.785 295.793 146.112 296.41C146.583 297.299 146.658 298.446 146.331 299.728C145.611 302.553 143.29 305.107 140.122 306.561C139.644 306.78 139.203 306.95 138.775 307.081Z" fill="#E7FFF1"/>
<path d="M130.539 287.575C130.875 287.471 131.227 287.432 131.578 287.461C132.365 287.529 133.068 287.955 133.739 288.37L140.49 292.547C141.87 293.401 143.255 294.258 144.489 295.311C144.943 295.698 145.383 296.12 145.663 296.648C146.135 297.54 146.089 298.624 145.839 299.602C145.09 302.54 142.665 304.835 139.91 306.099C139.494 306.289 139.065 306.461 138.626 306.595C137.951 306.802 137.253 306.919 136.55 306.88C135.67 306.831 134.822 306.54 134.011 306.199C131.929 305.325 130.008 304.109 128.325 302.603C127.172 301.571 124.543 297.582 124.868 295.439C125.193 293.296 126.44 291.406 127.812 289.727C128.55 288.825 129.469 287.903 130.539 287.575ZM130.242 286.604C128.821 287.038 127.726 288.227 127.025 289.084C125.756 290.637 124.25 292.746 123.864 295.286C123.453 297.993 126.514 302.345 127.647 303.36C129.413 304.942 131.431 306.218 133.617 307.136C134.382 307.457 135.4 307.834 136.494 307.894C137.267 307.938 138.062 307.83 138.924 307.567C139.374 307.429 139.835 307.251 140.334 307.022C143.64 305.505 146.066 302.825 146.824 299.853C147.183 298.447 147.092 297.174 146.561 296.172C146.194 295.48 145.641 294.957 145.148 294.537C143.852 293.432 142.415 292.543 141.025 291.683L134.274 287.506C133.577 287.075 132.71 286.539 131.666 286.448C131.186 286.408 130.703 286.461 130.242 286.604Z" fill="#5B7776"/>
<path d="M130.126 313.939C129.506 314.129 128.871 314.223 128.272 314.303C127.089 314.461 125.716 314.61 124.381 314.373C122.886 314.108 121.62 313.352 120.907 312.299C120.44 311.609 120.208 310.816 119.992 309.996C119.687 308.832 119.388 307.588 119.374 306.294C119.362 305.272 119.54 303.793 120.448 302.55C120.765 302.157 121.188 301.863 121.667 301.703C121.826 301.654 121.99 301.626 122.157 301.619C123.085 301.582 123.907 302.033 124.605 302.458L127.95 304.693L129.482 305.764C130.405 306.409 131.452 307.14 132.172 308.167C133.016 309.373 133.218 310.815 132.696 311.93C132.339 312.695 131.632 313.334 130.706 313.729C130.525 313.806 130.33 313.877 130.126 313.939Z" fill="#E7FFF1"/>
<path d="M121.815 302.189C121.932 302.152 122.054 302.131 122.177 302.126C122.954 302.096 123.678 302.488 124.342 302.892L127.66 305.11L129.192 306.181C130.134 306.839 131.097 307.518 131.756 308.459C132.415 309.4 132.723 310.674 132.237 311.716C131.902 312.432 131.236 312.952 130.508 313.262C130.334 313.335 130.158 313.399 129.978 313.454C129.404 313.629 128.803 313.72 128.206 313.8C126.966 313.965 125.702 314.092 124.471 313.873C123.24 313.654 122.029 313.05 121.328 312.015C120.895 311.374 120.681 310.614 120.484 309.867C120.176 308.694 119.895 307.501 119.882 306.289C119.869 305.077 120.143 303.829 120.859 302.849C120.859 302.849 121.238 302.366 121.815 302.189ZM121.518 301.217C120.677 301.475 120.155 302.1 120.059 302.223L120.048 302.236L120.038 302.25C119.254 303.324 118.849 304.724 118.866 306.3C118.881 307.651 119.188 308.931 119.502 310.125C119.729 310.99 119.975 311.828 120.487 312.584C121.276 313.751 122.664 314.585 124.293 314.874C125.699 315.123 127.12 314.97 128.34 314.807C128.96 314.724 129.619 314.627 130.276 314.426L130.907 314.197C131.948 313.753 132.747 313.025 133.158 312.146C133.755 310.866 133.537 309.23 132.588 307.876C131.817 306.776 130.731 306.018 129.774 305.348L128.242 304.277L124.87 302.025C124.109 301.561 123.206 301.069 122.137 301.112C121.927 301.12 121.719 301.156 121.518 301.217Z" fill="#5B7776"/>
<path d="M156.067 312.294C155.671 312.415 155.252 312.487 154.821 312.51C153.668 312.569 152.551 312.28 151.706 312.021C150.446 311.634 149.224 311.132 148.056 310.52C145.914 309.396 144.697 308.035 144.441 306.475C144.241 305.249 144.667 303.877 145.612 302.71C146.418 301.713 147.452 300.988 148.453 300.289C148.638 300.122 149.957 298.917 150.501 298.047L150.819 297.497C151.014 297.145 151.217 296.782 151.483 296.445C152.025 295.76 152.801 295.249 153.725 294.966C154.596 294.7 155.554 294.643 156.496 294.804C158.303 295.111 159.867 296.075 161.192 296.954C162.228 297.642 163.408 298.47 164.296 299.599C165.52 301.166 166.075 303.154 165.837 305.128C165.765 305.714 165.632 306.164 165.417 306.545C165.026 307.238 164.371 307.683 163.783 308.026C162.893 308.545 161.949 308.964 160.968 309.275L160.346 309.465C159.689 309.666 159.063 309.881 158.62 310.311C158.485 310.442 158.361 310.599 158.231 310.765L157.855 311.215C157.397 311.703 156.779 312.076 156.067 312.294Z" fill="#E7FFF1"/>
<path d="M153.877 295.452C154.687 295.205 155.578 295.163 156.414 295.305C158.055 295.583 159.528 296.457 160.915 297.378C162.007 298.103 163.089 298.883 163.9 299.913C165.031 301.352 165.56 303.25 165.336 305.066C165.284 305.493 165.189 305.921 164.978 306.296C164.656 306.866 164.095 307.257 163.53 307.587C162.673 308.087 161.763 308.491 160.818 308.791L160.624 308.851L160.201 308.979C159.494 309.195 158.793 309.438 158.27 309.946C157.981 310.226 157.764 310.573 157.488 310.866C157.065 311.317 156.515 311.626 155.921 311.807C155.557 311.919 155.177 311.982 154.798 312.002C153.802 312.053 152.812 311.827 151.858 311.534C150.628 311.158 149.435 310.668 148.296 310.07C146.772 309.27 145.225 308.09 144.946 306.392C144.75 305.196 145.247 303.971 146.01 303.029C146.773 302.087 147.78 301.381 148.773 300.687C148.773 300.687 150.306 299.322 150.935 298.316C151.258 297.8 151.507 297.237 151.885 296.76C152.392 296.12 153.097 295.691 153.877 295.452ZM153.58 294.481C152.556 294.793 151.695 295.364 151.088 296.13C150.796 296.499 150.584 296.881 150.378 297.251L150.074 297.778C149.637 298.476 148.571 299.502 148.141 299.89C147.164 300.573 146.065 301.347 145.221 302.39C144.185 303.669 143.72 305.188 143.944 306.557C144.227 308.283 145.532 309.768 147.824 310.97C149.019 311.597 150.271 312.111 151.561 312.506C152.445 312.777 153.618 313.08 154.851 313.017C155.315 312.994 155.774 312.914 156.219 312.779C157.015 312.536 157.71 312.115 158.229 311.562C158.383 311.399 158.517 311.229 158.634 311.079L158.978 310.675C159.339 310.325 159.903 310.132 160.499 309.95L160.707 309.887L160.922 309.822C162.012 309.494 163.059 309.039 164.043 308.465C164.69 308.087 165.412 307.594 165.863 306.795C166.112 306.354 166.265 305.844 166.345 305.19C166.597 303.082 166.006 300.959 164.699 299.285C163.764 298.097 162.546 297.241 161.477 296.531C160.008 295.556 158.399 294.611 156.585 294.303C155.583 294.129 154.554 294.19 153.58 294.481Z" fill="#5B7776"/>
<path d="M162.414 294.836C161.693 295.057 160.875 295.026 159.842 294.74L159.081 294.509C158.551 294.341 158.051 294.182 157.538 294.116L157.06 294.07C156.509 294.027 155.885 293.978 155.345 293.628C154.656 293.183 154.242 292.311 154.208 291.238C154.154 289.469 154.991 287.829 155.625 286.749L156.291 285.586L156.331 285.543C156.669 285.181 157.114 284.899 157.732 284.656L158.229 284.482C159.956 283.954 161.834 284.15 163.251 285.006C164.981 286.051 165.98 288.092 165.682 289.971C165.591 290.54 165.391 291.082 165.209 291.546C164.728 292.779 163.994 294.26 162.573 294.783L162.414 294.836Z" fill="#E7FFF1"/>
<path d="M158.376 284.969C159.903 284.502 161.624 284.618 162.987 285.441C164.489 286.349 165.454 288.159 165.179 289.891C165.098 290.398 164.922 290.884 164.735 291.361C164.265 292.567 163.611 293.86 162.397 294.306L162.265 294.35C161.53 294.575 160.722 294.457 159.976 294.251C159.186 294.032 158.416 293.717 157.602 293.612C156.926 293.525 156.193 293.572 155.62 293.202C154.987 292.792 154.74 291.977 154.716 291.223C154.669 289.728 155.305 288.296 156.063 287.006L156.702 285.89C157.031 285.538 157.469 285.306 157.918 285.129L158.376 284.969ZM158.079 283.997L157.545 284.183C156.854 284.456 156.35 284.777 155.959 285.196L155.878 285.282L155.82 285.385L155.181 286.501C154.52 287.626 153.641 289.354 153.7 291.254C153.739 292.497 154.237 293.517 155.068 294.055C155.716 294.475 156.439 294.532 157.019 294.577L157.472 294.62C157.939 294.68 158.419 294.833 158.926 294.994L159.705 295.23C160.836 295.543 161.744 295.572 162.562 295.322L162.747 295.26C164.358 294.667 165.162 293.063 165.681 291.731C165.872 291.243 166.084 290.67 166.182 290.051C166.512 287.974 165.414 285.721 163.513 284.572C161.951 283.628 159.971 283.419 158.079 283.997Z" fill="#5B7776"/>
<path d="M149.695 296.067C148.332 296.484 147.356 295.987 146.831 295.72C146.443 295.522 146.111 295.269 145.789 295.024L142.28 292.35C141.445 291.714 140.582 291.056 139.868 290.224C139.038 289.256 138.556 288.192 138.476 287.147C138.387 285.986 138.974 284.79 138.999 284.74L139.027 284.684L139.068 284.636C139.681 283.92 140.579 283.366 141.665 283.034L141.759 283.006C142.698 282.732 143.655 282.639 144.718 282.554C146.321 282.425 147.761 282.354 149.169 282.791C149.878 283.011 150.544 283.358 151.132 283.664C151.535 283.874 152.037 284.135 152.393 284.578C152.76 285.033 152.902 285.584 153.017 286.026L153.621 288.506C153.766 289.147 153.886 289.727 153.875 290.345C153.866 290.831 153.773 291.346 153.593 291.92C153.121 293.414 152.245 294.64 151.125 295.372C150.623 295.699 150.156 295.927 149.695 296.067Z" fill="#E7FFF1"/>
<path d="M141.814 283.52L141.901 283.494C142.828 283.224 143.797 283.138 144.76 283.06C146.186 282.946 147.652 282.852 149.019 283.277C149.675 283.48 150.289 283.798 150.898 284.115C151.3 284.324 151.714 284.544 151.998 284.897C152.282 285.25 152.411 285.71 152.525 286.153L153.126 288.619C153.254 289.184 153.378 289.757 153.368 290.336C153.359 290.823 153.255 291.304 153.109 291.768C152.71 293.033 151.958 294.221 150.848 294.947C150.366 295.261 149.936 295.463 149.548 295.582C148.466 295.913 147.708 295.596 147.062 295.267C146.717 295.091 146.406 294.855 146.098 294.62L142.588 291.946C141.762 291.317 140.93 290.682 140.254 289.894C139.578 289.106 139.062 288.144 138.983 287.109C138.904 286.074 139.454 284.967 139.454 284.967C140.063 284.256 140.919 283.794 141.814 283.52ZM141.517 282.549C140.339 282.909 139.359 283.516 138.683 284.305L138.601 284.401L138.544 284.514C138.475 284.653 137.872 285.909 137.97 287.186C138.059 288.34 138.582 289.505 139.483 290.555C140.232 291.428 141.117 292.102 141.972 292.754L145.482 295.428C145.805 295.674 146.172 295.954 146.6 296.172C147.476 296.618 148.474 296.973 149.844 296.553C150.351 296.399 150.861 296.151 151.403 295.797C152.621 295.001 153.571 293.679 154.078 292.073C154.273 291.452 154.374 290.89 154.383 290.355C154.397 289.624 154.235 288.913 154.116 288.393L153.509 285.898C153.389 285.435 153.225 284.8 152.789 284.26C152.367 283.735 151.812 283.446 151.367 283.214C150.76 282.898 150.072 282.539 149.319 282.306C147.826 281.843 146.334 281.915 144.678 282.047C143.586 282.135 142.602 282.231 141.617 282.519L141.517 282.549Z" fill="#5B7776"/>
<path d="M145.833 299.593C146.082 298.615 146.129 297.531 145.657 296.639C145.378 296.111 144.938 295.688 144.483 295.301C143.249 294.249 141.864 293.391 140.484 292.538C138.234 291.145 141.183 293.94 140.789 294.623C140.278 295.51 139.529 295.791 138.548 296.508C136.798 297.788 133.712 298.091 131.539 299.173C129.598 300.139 127.166 301.561 128.319 302.594C130.002 304.099 131.923 305.315 134.005 306.19C134.816 306.531 135.664 306.822 136.544 306.871C137.703 306.935 138.848 306.574 139.904 306.09C142.659 304.825 145.084 302.53 145.833 299.593ZM129.183 306.17L127.651 305.099L124.333 302.881C123.67 302.476 127.998 305.732 128.655 307.826C129.312 309.92 129.454 310.837 128.591 311.88C127.682 312.978 126.091 312.575 123.949 312.395C121.807 312.215 120.311 309.362 120.503 310.11C120.963 311.9 121.965 313.496 124.463 313.863C126.252 314.126 126.958 313.955 128.197 313.789C128.981 313.684 129.772 313.561 130.5 313.251C131.228 312.941 131.894 312.422 132.229 311.705C132.715 310.664 132.408 309.39 131.748 308.449C131.088 307.508 130.126 306.828 129.183 306.17ZM161.084 297.383C159.688 296.465 159.169 296.271 158.436 295.94C156.912 295.249 163.641 300.314 162.595 301.623L160.998 303.746C160.361 304.754 155.677 306.659 155.677 306.659C154.673 307.356 152.145 307.391 149.542 306.796C148.353 306.524 144.762 305.251 144.957 306.446C145.234 308.145 146.791 309.322 148.325 310.119C149.474 310.714 150.676 311.201 151.914 311.575C152.875 311.865 153.873 312.089 154.878 312.035C155.883 311.981 156.903 311.621 157.593 310.892C157.872 310.597 158.091 310.25 158.384 309.968C159.067 309.31 160.05 309.092 160.956 308.805C161.911 308.503 162.829 308.097 163.695 307.594C164.265 307.263 164.832 306.869 165.158 306.298C165.372 305.923 165.469 305.493 165.522 305.067C165.752 303.248 165.223 301.35 164.087 299.913C163.272 298.883 162.183 298.106 161.084 297.383ZM163.243 285.489C161.617 284.857 163.459 286.429 163.175 287.377C163.037 287.839 162.453 289.11 161.524 289.055L158.396 289.829C157.303 290.606 154.806 289.82 154.853 291.314C154.876 292.069 154.914 292.752 155.548 293.162C156.12 293.533 157.203 293.536 157.879 293.623C158.693 293.728 159.47 294.111 160.26 294.33C161.05 294.549 161.76 294.499 162.53 294.217C163.744 293.771 164.398 292.477 164.869 291.272C165.055 290.794 165.232 290.308 165.312 289.802C165.588 288.069 164.878 286.125 163.243 285.489ZM142.582 291.935L146.092 294.609C146.401 294.844 146.711 295.08 147.056 295.256C147.934 295.703 149.017 296.127 150.842 294.935C151.952 294.21 152.704 293.022 153.103 291.757C153.249 291.293 153.353 290.812 153.362 290.325C153.372 289.746 153.249 289.173 153.12 288.608L152.52 286.142C152.405 285.699 152.279 285.243 151.992 284.886C151.705 284.529 151.294 284.313 150.892 284.104C150.283 283.787 150.27 283.602 150.406 284.276C150.666 285.57 150.934 285.236 150.347 285.789C149.644 286.451 149.181 286.126 148.553 286.859L147.222 288.309C146.494 289.048 144.961 290.67 143.968 290.973C143.427 291.139 141.756 291.306 142.582 291.935Z" fill="#94BFAC"/>
<path d="M188.205 355.243C187.808 355.363 187.379 355.322 187.012 355.127C186.645 354.932 186.37 354.599 186.249 354.202L158.945 264.896C158.824 264.499 158.866 264.07 159.061 263.703C159.256 263.337 159.588 263.062 159.985 262.94L221.479 244.14C221.876 244.019 222.305 244.061 222.671 244.256C223.038 244.451 223.312 244.783 223.435 245.18L250.739 334.485C250.859 334.883 250.818 335.312 250.623 335.679C250.428 336.046 250.096 336.32 249.698 336.442L188.205 355.243Z" fill="url(#paint3_radial_3331_1850)"/>
<path d="M221.293 246.852L248.027 334.297L188.395 352.528L161.661 265.083L221.293 246.852ZM220.738 241.71L159.245 260.51C158.204 260.829 157.332 261.549 156.821 262.51C156.31 263.471 156.201 264.597 156.518 265.638L183.822 354.943C184.485 357.113 186.78 358.334 188.95 357.67L250.443 338.87C251.485 338.551 252.357 337.832 252.868 336.87C253.379 335.909 253.488 334.784 253.17 333.742L225.866 244.436C225.203 242.267 222.907 241.046 220.738 241.71Z" fill="#F9E141"/>
<path d="M221.48 244.139C221.878 244.018 222.307 244.06 222.674 244.255C223.041 244.45 223.315 244.782 223.437 245.179L250.741 334.484C250.862 334.882 250.82 335.311 250.625 335.678C250.43 336.045 250.098 336.319 249.7 336.441L188.207 355.241C187.81 355.362 187.381 355.321 187.014 355.126C186.647 354.931 186.372 354.598 186.251 354.201L158.947 264.895C158.827 264.498 158.869 264.069 159.063 263.702C159.258 263.335 159.59 263.061 159.987 262.939L221.48 244.139ZM220.738 241.71L159.245 260.51C158.204 260.829 157.332 261.549 156.821 262.51C156.31 263.471 156.201 264.597 156.518 265.638L183.822 354.943C184.485 357.113 186.78 358.334 188.95 357.67L250.443 338.87C251.485 338.551 252.357 337.832 252.868 336.87C253.379 335.909 253.488 334.784 253.17 333.742L225.866 244.436C225.203 242.267 222.907 241.046 220.738 241.71Z" fill="#414042"/>
<path d="M214.693 324.462C214.452 324.537 214.198 324.569 213.945 324.555C213.125 324.507 212.381 323.931 212.05 323.09C211.784 322.412 211.8 321.71 211.842 320.991C211.863 320.627 211.907 320.154 212.056 319.695C212.758 316.525 214.613 313.674 216.514 311.066L219.961 306.752C221.508 305.043 229.201 300.402 230.749 299.928C230.888 299.886 231.258 299.773 231.517 300.045C231.95 300.502 231.432 301.07 230.648 301.93C230.035 302.602 229.145 303.517 228.202 304.485C225.924 306.826 223.09 309.74 222.102 311.322C220.82 313.373 219.843 315.62 218.897 317.793C218.241 319.299 217.564 320.856 216.786 322.35C216.528 322.847 216.239 323.367 215.799 323.794C215.488 324.101 215.109 324.33 214.693 324.462Z" fill="#FFC55E"/>
<path d="M230.896 300.415C231.032 300.373 231.119 300.365 231.148 300.396C231.501 300.768 223.531 308.074 221.67 311.053C219.48 314.56 218.231 318.473 216.335 322.116C216.092 322.583 215.832 323.054 215.445 323.43C215.195 323.673 214.881 323.874 214.545 323.977C214.361 324.034 214.168 324.059 213.975 324.049C213.295 324.008 212.754 323.494 212.523 322.905C212.292 322.316 212.311 321.659 212.349 321.021C212.372 320.623 212.419 320.212 212.546 319.83C213.214 316.787 215.015 313.985 216.924 311.366C217.994 309.897 219.107 308.452 220.337 307.093C221.772 305.508 229.381 300.878 230.896 300.415ZM230.599 299.443C228.936 299.951 221.193 304.633 219.584 306.412C218.494 307.616 217.42 308.959 216.103 310.768C214.174 313.414 212.291 316.311 211.564 319.563C211.404 320.068 211.357 320.574 211.334 320.961C211.291 321.709 211.273 322.503 211.577 323.277C211.98 324.301 212.897 325.003 213.915 325.063C214.229 325.081 214.542 325.042 214.841 324.948C215.318 324.803 215.771 324.53 216.153 324.159C216.646 323.68 216.958 323.119 217.236 322.586C218.022 321.075 218.703 319.51 219.362 317.997C220.3 315.84 221.271 313.611 222.532 311.592C223.491 310.056 226.305 307.164 228.566 304.841L231.023 302.273C231.368 301.894 231.617 301.603 231.781 301.383C232.403 300.554 232.181 300.009 231.886 299.697C231.668 299.468 231.269 299.238 230.599 299.443Z" fill="#965F0F"/>
<path d="M208.274 325.636C207.803 325.78 207.309 325.746 206.977 325.693C205.523 325.461 204.275 324.764 203.068 324.09L202.864 323.977C200.167 322.477 197.387 321.133 194.536 319.951C193.129 319.368 191.608 318.781 190.015 318.443C189.153 318.26 187.669 318.572 186.687 318.779C185.566 319.016 185.004 319.134 184.87 318.535C184.797 318.208 184.707 317.803 187.521 316.942C188.398 316.674 190.055 316.23 191.297 316.266C193.131 316.32 195.09 316.634 197.465 317.253L200.143 318.064C202.041 318.746 203.821 319.673 205.543 320.57L206.764 321.206C207.611 321.647 209.187 322.468 209.358 323.958C209.404 324.363 209.326 324.733 209.13 325.027C208.934 325.321 208.649 325.521 208.274 325.636Z" fill="#FFC55E"/>
<path d="M187.671 317.427C188.871 317.06 190.292 316.744 191.284 316.773C193.348 316.834 195.37 317.23 197.338 317.743L199.972 318.541C201.834 319.209 203.575 320.116 205.309 321.019L206.53 321.655C207.572 322.198 208.726 322.892 208.854 324.014C208.883 324.262 208.852 324.527 208.708 324.745C208.572 324.949 208.365 325.077 208.126 325.15C207.794 325.251 207.401 325.246 207.058 325.191C205.614 324.96 204.355 324.224 203.112 323.532C200.398 322.023 197.599 320.67 194.731 319.481C193.242 318.864 191.723 318.285 190.122 317.945C188.521 317.605 185.428 318.7 185.366 318.423C185.335 318.279 186.374 317.824 187.671 317.427ZM187.374 316.456L185.616 317.088C185.111 317.307 184.169 317.716 184.375 318.643C184.427 318.877 184.688 319.624 185.868 319.454L186.793 319.276C187.676 319.09 189.154 318.778 189.911 318.939C191.463 319.269 192.958 319.845 194.342 320.42C197.175 321.594 199.938 322.93 202.618 324.42L202.821 324.533C204.067 325.228 205.355 325.948 206.898 326.194C207.283 326.255 207.86 326.293 208.423 326.121C208.907 325.973 209.298 325.692 209.554 325.307C209.817 324.911 209.924 324.424 209.864 323.898C209.662 322.14 207.93 321.238 207 320.754L205.778 320.117L200.315 317.585C199.515 317.297 198.65 317.035 197.594 316.76C195.182 316.131 193.186 315.812 191.314 315.757C189.998 315.719 188.28 316.179 187.374 316.456Z" fill="#965F0F"/>
<path d="M204.946 316.527L204.86 316.532C204.329 316.553 203.671 316.062 202.553 315.192L201.433 314.357L199.532 313.184C198.721 312.764 197.859 312.456 196.946 312.129L194.87 311.326C192.885 310.438 191.581 309.208 191.099 307.77C190.832 306.973 190.964 306.235 191.452 305.795C191.619 305.644 191.823 305.531 192.059 305.459C192.384 305.367 192.724 305.339 193.06 305.374C194.897 305.518 196.423 306.569 197.411 307.347C197.833 307.679 198.317 308.086 198.704 308.581C198.939 308.881 199.128 309.199 199.311 309.507L199.487 309.8C200.279 311.09 202.338 312.916 203.701 314.124C205.199 315.453 205.469 315.692 205.378 316.108C205.357 316.201 205.311 316.288 205.246 316.358C205.181 316.428 205.099 316.479 205.008 316.507L204.946 316.526V316.527Z" fill="#FFC55E"/>
<path d="M192.208 305.945C192.464 305.866 192.753 305.859 193.02 305.88C194.575 306.002 195.928 306.825 197.098 307.746C197.538 308.093 197.965 308.459 198.305 308.894C198.592 309.261 198.812 309.67 199.055 310.066C200.449 312.336 205.258 315.899 204.86 316.021C204.854 316.023 204.847 316.024 204.84 316.024C204.284 316.046 202.757 314.63 201.716 313.934L199.767 312.732C198.284 311.964 196.609 311.547 195.078 310.862C193.547 310.177 192.091 309.128 191.582 307.608C191.422 307.13 191.393 306.533 191.793 306.172C191.912 306.064 192.054 305.992 192.208 305.945ZM191.911 304.973C191.603 305.067 191.334 305.217 191.112 305.418C190.47 305.998 190.285 306.937 190.618 307.932C191.146 309.508 192.544 310.842 194.663 311.79C195.361 312.102 196.08 312.359 196.776 312.608L199.299 313.635C199.933 313.964 200.552 314.378 201.15 314.778C201.468 314.991 201.861 315.297 202.241 315.593C203.453 316.535 204.173 317.067 204.88 317.039C204.975 317.036 205.068 317.02 205.158 316.993C205.335 316.938 205.496 316.838 205.622 316.701C205.748 316.564 205.836 316.397 205.876 316.215C206.015 315.574 205.566 315.145 205.17 314.766L204.039 313.743C202.699 312.555 200.674 310.759 199.921 309.534L199.749 309.247L199.105 308.267C198.685 307.73 198.172 307.299 197.727 306.948C196.686 306.129 195.075 305.022 193.101 304.867C192.649 304.832 192.26 304.866 191.911 304.973Z" fill="#965F0F"/>
<path d="M196.206 306.245L196.139 306.182C195.241 305.351 194.052 304.766 192.791 304.533L192.128 304.432L190.997 304.231C190.422 304.084 189.899 303.847 189.464 303.634C188.949 303.383 188.285 303.034 187.716 302.559C186.892 301.873 186.289 300.937 186.016 299.923C185.778 299.033 185.875 298.256 186.298 297.675C186.586 297.279 187.007 296.994 187.547 296.828C188.063 296.67 188.69 296.631 189.312 296.716C190.965 296.943 192.568 297.771 194.212 299.247C194.699 299.684 195.065 300.064 195.366 300.443C196.641 302.056 197.068 304.095 197.446 305.895L197.642 306.831L196.206 306.245Z" fill="#FFC55E"/>
<path d="M187.697 297.313C188.186 297.164 188.743 297.149 189.245 297.218C191.042 297.465 192.586 298.468 193.875 299.624C194.268 299.977 194.645 300.348 194.969 300.758C196.149 302.249 196.564 304.154 196.95 305.998L196.485 305.808C195.513 304.907 194.249 304.284 192.885 304.033L191.124 303.737C190.621 303.609 190.148 303.401 189.688 303.177C189.104 302.892 188.532 302.576 188.043 302.168C187.299 301.552 186.764 300.722 186.509 299.79C186.348 299.19 186.325 298.502 186.71 297.973C186.948 297.645 187.3 297.434 187.697 297.313ZM187.4 296.341C186.761 296.537 186.238 296.894 185.888 297.376C185.372 298.084 185.247 299.011 185.527 300.054C185.827 301.168 186.489 302.196 187.392 302.948C188.003 303.458 188.702 303.826 189.242 304.09C189.701 304.314 190.253 304.564 190.872 304.722C191.279 304.826 191.676 304.881 192.06 304.934L192.7 305.032C193.868 305.247 194.967 305.787 195.795 306.554L195.93 306.679L196.101 306.749L196.566 306.939L198.337 307.662L197.944 305.79C197.556 303.935 197.116 301.834 195.766 300.128C195.447 299.724 195.061 299.325 194.553 298.868C192.831 297.322 191.14 296.454 189.383 296.212C188.892 296.144 188.15 296.112 187.4 296.341Z" fill="#965F0F"/>
<path d="M195.351 298.971C194.677 297.939 193.624 297.148 192.387 296.746C191.944 296.601 191.474 296.502 190.977 296.397C189.897 296.17 188.78 295.934 187.924 295.197C187.44 294.78 187.112 294.25 186.88 293.835C186.571 293.28 186.269 292.614 186.382 291.873C186.504 291.058 187.155 290.336 188.001 290.078C188.095 290.049 188.191 290.026 188.286 290.01C189.211 289.856 190.073 290.268 190.72 290.645C191.68 291.203 192.375 291.748 192.907 292.359C193.439 292.97 193.811 293.653 194.175 294.317L196.482 298.534L195.781 299.628L195.351 298.971Z" fill="#FFC55E"/>
<path d="M188.15 290.564C188.222 290.542 188.296 290.525 188.371 290.512C189.119 290.387 189.838 290.72 190.465 291.084C191.229 291.529 191.957 292.042 192.524 292.693C193.015 293.257 193.374 293.912 193.73 294.562L195.892 298.513L195.777 298.693C195.042 297.568 193.886 296.699 192.545 296.263C191.094 295.791 189.375 295.776 188.256 294.812C187.86 294.471 187.574 294.034 187.324 293.587C187.043 293.084 186.797 292.525 186.884 291.949C186.979 291.324 187.505 290.761 188.15 290.564ZM187.853 289.592C186.824 289.907 186.031 290.793 185.879 291.798C185.744 292.695 186.106 293.49 186.437 294.082C186.689 294.534 187.048 295.113 187.593 295.582C188.548 296.405 189.783 296.665 190.873 296.895L192.23 297.229C193.358 297.596 194.315 298.313 194.926 299.249L195.785 300.563L196.632 299.242L196.747 299.062L197.073 298.554L196.784 298.026L194.621 294.074C194.244 293.386 193.855 292.674 193.291 292.026C192.721 291.372 191.985 290.793 190.976 290.206C190.255 289.786 189.288 289.328 188.204 289.509C188.085 289.53 187.968 289.557 187.853 289.592Z" fill="#965F0F"/>
<path d="M195.025 288.927L195.55 288.659L195.632 288.612L196.48 288.164L196.357 289.27L196.208 290.591L195.025 288.927Z" fill="#FFC55E"/>
<path d="M195.869 289.06L195.852 289.212L195.781 289.111C195.811 289.096 195.839 289.076 195.869 289.06ZM197.091 287.266L195.395 288.161L195.301 288.215L194.271 288.74L194.952 289.699L195.024 289.801L196.563 291.966L196.862 289.326L196.879 289.172L197.091 287.266Z" fill="#965F0F"/>
<path d="M194.538 285.895C194.426 285.506 194.115 285.135 193.587 284.76L192.924 284.332L191.99 283.708C191.461 283.296 191.019 282.784 190.689 282.201C190.284 281.481 190.209 280.802 190.472 280.239C190.681 279.792 191.095 279.455 191.636 279.29C192.082 279.153 192.564 279.149 192.993 279.277C193.688 279.484 194.299 279.982 194.86 280.801C195.984 282.44 196.297 284.258 195.72 285.79L195.661 285.944L194.728 286.561L194.538 285.895Z" fill="#FFC55E"/>
<path d="M191.786 279.774C192.132 279.668 192.502 279.664 192.85 279.763C193.547 279.97 194.052 280.516 194.443 281.087C195.344 282.401 195.821 284.084 195.246 285.61L195.028 285.754C194.86 285.168 194.394 284.707 193.882 284.344L192.305 283.306C191.829 282.936 191.431 282.475 191.133 281.951C190.878 281.496 190.706 280.941 190.934 280.453C191.091 280.117 191.414 279.888 191.786 279.774ZM191.489 278.803C190.809 279.011 190.285 279.444 190.014 280.023C189.78 280.524 189.63 281.351 190.248 282.449C190.61 283.091 191.097 283.655 191.679 284.107C192.003 284.36 192.336 284.565 192.659 284.764L193.294 285.173C193.719 285.474 193.974 285.764 194.051 286.034L194.432 287.365L195.588 286.602L195.805 286.458L196.08 286.277L196.196 285.968C196.833 284.279 196.499 282.29 195.281 280.513C194.651 279.594 193.951 279.03 193.139 278.789C192.599 278.633 192.026 278.638 191.489 278.803Z" fill="#965F0F"/>
<path d="M195.747 281.562L195.711 281.437C195.494 280.716 195.062 280.069 194.604 279.384L194.221 278.801C193.672 277.937 193.063 276.78 193.224 275.494C193.291 274.959 193.487 274.53 193.806 274.218C193.988 274.042 194.209 273.912 194.452 273.838C194.788 273.735 195.13 273.753 195.416 273.887C195.726 274.033 195.921 274.288 196.041 274.468C196.644 275.371 196.79 276.442 196.857 277.464C196.944 278.786 196.923 280.113 196.795 281.432L196.692 282.493L195.747 281.562Z" fill="#FFC55E"/>
<path d="M194.601 274.325C194.802 274.263 195.018 274.262 195.2 274.348C195.382 274.434 195.511 274.59 195.618 274.751C196.153 275.552 196.287 276.54 196.35 277.499C196.435 278.794 196.415 280.093 196.289 281.384L196.196 281.292C195.892 280.281 195.219 279.424 194.649 278.528C194.079 277.632 193.594 276.619 193.727 275.558C193.771 275.206 193.893 274.844 194.16 274.583C194.285 274.464 194.436 274.375 194.601 274.325ZM194.304 273.353C193.984 273.45 193.692 273.622 193.452 273.855C193.053 274.243 192.8 274.789 192.719 275.431C192.535 276.895 193.244 278.211 193.792 279.074L194.182 279.667C194.617 280.319 195.029 280.936 195.223 281.584L195.298 281.833L195.483 282.015L195.576 282.108L197.095 283.605L197.301 281.482C197.431 280.136 197.452 278.782 197.364 277.432C197.292 276.339 197.133 275.19 196.463 274.187C196.31 273.957 196.057 273.628 195.632 273.428C195.214 273.239 194.741 273.212 194.304 273.353Z" fill="#965F0F"/>
<path d="M197.08 276.904L197.073 276.877C196.801 275.855 196.712 274.794 196.81 273.742C196.84 273.411 196.898 273.06 197.111 272.743C197.278 272.496 197.524 272.312 197.808 272.222C197.994 272.165 198.188 272.157 198.367 272.2C198.776 272.296 199.072 272.611 199.25 273.136C199.508 273.888 199.544 274.699 199.352 275.471C199.145 276.282 198.684 277.004 198.037 277.534L197.496 277.973L197.08 276.904Z" fill="#FFC55E"/>
<path d="M197.957 272.708C198.053 272.678 198.154 272.671 198.251 272.694C198.534 272.76 198.681 273.039 198.769 273.298C198.988 273.95 199.033 274.664 198.86 275.346C198.679 276.05 198.279 276.678 197.717 277.139L197.564 276.746C197.309 275.782 197.225 274.781 197.316 273.788C197.341 273.526 197.381 273.253 197.533 273.026C197.635 272.876 197.784 272.764 197.957 272.708ZM197.66 271.736C197.272 271.854 196.919 272.118 196.69 272.459C196.412 272.872 196.339 273.316 196.305 273.695C196.201 274.807 196.295 275.928 196.582 277.007L196.596 277.061L196.617 277.114L196.77 277.507L197.275 278.807L198.357 277.927C199.089 277.329 199.61 276.512 199.844 275.596C200.061 274.744 200.022 273.838 199.732 272.974C199.436 272.098 198.89 271.802 198.485 271.706C198.212 271.643 197.927 271.653 197.66 271.736Z" fill="#965F0F"/>
<path d="M197.978 280.911L197.547 280.774L197.47 280.518C197.217 279.676 197.397 278.737 197.953 278.007C198.089 277.828 198.239 277.672 198.384 277.521L198.718 277.151C198.933 276.877 199.086 276.556 199.262 276.165C199.393 275.877 199.541 275.551 199.811 275.275C199.993 275.089 200.218 274.951 200.466 274.872C200.678 274.808 200.895 274.797 201.096 274.841C201.538 274.939 201.897 275.3 202.057 275.806C202.302 276.58 202.084 277.523 201.473 278.326C200.966 278.992 200.296 279.48 199.649 279.952L198.229 280.984L197.978 280.911Z" fill="#FFC55E"/>
<path d="M200.614 275.358C200.736 275.321 200.863 275.31 200.986 275.337C201.29 275.404 201.484 275.679 201.572 275.959C201.788 276.643 201.526 277.416 201.068 278.019C200.61 278.622 199.973 279.086 199.349 279.541L198.131 280.427L197.956 280.371C197.751 279.691 197.903 278.911 198.357 278.315C198.585 278.014 198.882 277.762 199.116 277.465C199.378 277.133 199.554 276.752 199.724 276.375C199.843 276.112 199.965 275.843 200.173 275.631C200.296 275.505 200.447 275.412 200.614 275.358ZM200.317 274.386C199.988 274.489 199.69 274.672 199.448 274.918C199.114 275.259 198.939 275.645 198.799 275.954C198.637 276.314 198.498 276.607 198.318 276.836C198.236 276.94 198.13 277.052 198.017 277.169L197.548 277.699C196.894 278.559 196.683 279.667 196.983 280.664L197.138 281.177L197.648 281.34L197.824 281.395L198.313 281.551L198.729 281.248L199.946 280.362C200.593 279.892 201.325 279.359 201.876 278.634C202.598 277.685 202.84 276.598 202.541 275.652C202.326 274.971 201.827 274.483 201.206 274.345C200.912 274.282 200.605 274.296 200.317 274.386Z" fill="#965F0F"/>
<path d="M209.875 317.644L209.615 317.688L209.418 317.538C208.891 317.113 208.312 312.81 208.262 311.756C208.178 309.983 208.011 308.134 207.001 306.725C206.663 306.253 206.235 305.836 205.783 305.395C205.147 304.776 204.49 304.135 204.072 303.308C203.691 302.554 203.541 301.704 203.642 300.866C203.717 300.225 203.938 299.714 204.297 299.347C204.549 299.094 204.86 298.909 205.202 298.808C205.747 298.646 206.329 298.662 206.865 298.854C207.553 299.105 208.154 299.623 208.652 300.394C209.351 301.476 209.673 302.706 209.919 303.773C210.241 305.168 210.508 306.668 210.282 308.185L210.079 309.207L209.871 310.296C209.81 310.789 209.819 311.303 209.827 311.801C209.84 312.673 209.995 313.985 210.12 315.04C210.375 317.201 210.408 317.481 209.907 317.634L209.875 317.644Z" fill="#FFC55E"/>
<path d="M205.351 299.295C205.791 299.165 206.26 299.178 206.691 299.333C207.359 299.577 207.857 300.101 208.225 300.671C208.852 301.642 209.165 302.769 209.424 303.889C209.742 305.268 209.991 306.692 209.78 308.112L209.367 310.235C209.302 310.76 209.31 311.286 209.319 311.811C209.347 313.628 209.946 317.092 209.758 317.15L209.756 317.151C209.561 317.183 208.857 313.587 208.769 311.733C208.681 309.879 208.499 307.943 207.413 306.431C206.556 305.234 205.186 304.386 204.525 303.08C204.191 302.415 204.059 301.666 204.146 300.927C204.198 300.488 204.336 300.036 204.661 299.704C204.85 299.51 205.09 299.375 205.351 299.295ZM205.054 298.324C204.631 298.449 204.246 298.68 203.934 298.993C203.494 299.442 203.226 300.053 203.137 300.807C203.025 301.745 203.192 302.695 203.618 303.538C204.075 304.441 204.763 305.112 205.428 305.761C205.864 306.186 206.275 306.587 206.587 307.022C207.517 308.318 207.673 310.084 207.754 311.781C207.794 312.634 207.963 313.923 208.204 315.231C208.634 317.56 208.839 317.725 209.1 317.935C209.214 318.027 209.346 318.094 209.489 318.132C209.632 318.17 209.779 318.176 209.924 318.152L209.99 318.141L210.055 318.121C210.904 317.862 210.829 316.977 210.784 316.448L210.624 314.982L210.335 311.795L210.375 310.359C210.416 310.027 210.493 309.683 210.575 309.32L210.785 308.261C211.023 306.66 210.747 305.103 210.414 303.66C210.158 302.551 209.823 301.271 209.079 300.12C208.519 299.254 207.833 298.668 207.04 298.379C206.401 298.149 205.705 298.13 205.054 298.324Z" fill="#965F0F"/>
<path d="M210.662 307.887L210.674 307.815C210.933 306.318 211.256 304.455 212.172 302.84C212.399 302.439 212.727 301.935 213.252 301.586C213.438 301.462 213.64 301.367 213.854 301.302C214.959 300.964 216.203 301.423 216.687 302.345C217.032 303.002 217.018 303.831 216.651 304.62C216.31 305.353 215.72 305.937 215.307 306.313C214.185 307.331 212.833 308.162 211.396 308.717L210.783 308.954L210.662 307.887Z" fill="#FFC55E"/>
<path d="M214.003 301.789C214.841 301.532 215.857 301.854 216.239 302.582C216.528 303.135 216.464 303.821 216.192 304.406C215.92 304.991 215.46 305.489 214.967 305.937C213.884 306.92 212.601 307.708 211.215 308.243L211.176 307.902C211.461 306.258 211.77 304.581 212.616 303.09C212.848 302.681 213.13 302.279 213.535 302.009C213.68 301.913 213.837 301.839 214.003 301.789ZM213.706 300.817C213.442 300.898 213.195 301.014 212.971 301.164C212.351 301.577 211.967 302.175 211.732 302.589C210.772 304.282 210.441 306.193 210.175 307.729L210.15 307.873L210.166 308.017L210.205 308.359L210.354 309.665L211.581 309.191C213.075 308.614 214.482 307.749 215.65 306.689C216.096 306.285 216.733 305.652 217.113 304.834C217.548 303.901 217.557 302.908 217.138 302.11C216.545 300.978 215.037 300.41 213.706 300.817Z" fill="#965F0F"/>
<path d="M210.139 303C209.973 302.089 209.446 301.281 208.889 300.426L208.254 299.412C207.218 297.618 206.938 295.782 207.464 294.241C207.527 294.054 207.72 293.487 208.276 293.28L208.339 293.258C208.647 293.164 208.998 293.205 209.353 293.375C210.481 293.915 210.878 295.118 211.161 296.203C211.441 297.281 211.731 298.396 211.809 299.552C211.899 300.897 211.68 302.09 211.158 303.1L211.093 303.226L210.273 303.728L210.139 303Z" fill="#FFC55E"/>
<path d="M208.488 293.744C208.703 293.678 208.938 293.739 209.134 293.833C210.079 294.285 210.416 295.361 210.67 296.332C210.948 297.402 211.228 298.479 211.302 299.586C211.376 300.693 211.235 301.845 210.707 302.867L210.639 302.908C210.385 301.517 209.403 300.386 208.694 299.158C207.868 297.727 207.399 296.005 207.944 294.405C208.034 294.142 208.178 293.858 208.454 293.756C208.465 293.751 208.477 293.747 208.488 293.744ZM208.191 292.772L208.098 292.804C207.58 292.997 207.205 293.425 206.983 294.077C206.409 295.758 206.705 297.744 207.815 299.666L208.464 300.703C208.992 301.514 209.492 302.281 209.64 303.091L209.907 304.548L211.17 303.775L211.238 303.733L211.48 303.585L211.61 303.333C212.175 302.24 212.412 300.957 212.316 299.518C212.235 298.314 211.939 297.176 211.653 296.076C211.428 295.211 211.008 293.604 209.573 292.917C209.101 292.69 208.623 292.64 208.191 292.772Z" fill="#965F0F"/>
<path d="M212.417 298.978L212.391 298.83C212.256 297.954 211.909 297.138 211.542 296.275L211.156 295.341C210.755 294.314 210.278 292.774 210.769 291.266C210.929 290.774 211.169 290.372 211.484 290.074C211.717 289.852 212 289.687 212.307 289.591C212.515 289.527 212.733 289.501 212.95 289.516C213.514 289.557 214.048 289.895 214.378 290.423C214.648 290.853 214.751 291.325 214.833 291.77C214.991 292.621 215.119 293.623 214.881 294.611C214.725 295.259 214.425 295.863 214.133 296.447C213.72 297.277 213.328 298.061 213.42 298.831L212.417 298.978Z" fill="#FFC55E"/>
<path d="M212.453 290.077C212.601 290.032 212.756 290.011 212.91 290.022C213.352 290.054 213.724 290.341 213.944 290.692C214.164 291.043 214.255 291.455 214.33 291.861C214.49 292.725 214.595 293.621 214.385 294.492C214.02 296.002 212.732 297.377 212.914 298.892L212.888 298.743C212.695 297.486 212.087 296.341 211.626 295.157C211.165 293.973 210.846 292.662 211.249 291.423C211.366 291.064 211.546 290.713 211.831 290.443C212.008 290.275 212.22 290.15 212.453 290.077ZM212.155 289.106C211.773 289.224 211.423 289.429 211.133 289.705C210.756 290.063 210.47 290.534 210.283 291.108C209.742 292.771 210.25 294.426 210.679 295.526L211.071 296.474C211.426 297.307 211.76 298.094 211.884 298.897L211.885 298.907L211.887 298.917L211.912 299.065L213.922 298.771C213.848 298.151 214.205 297.434 214.584 296.674C214.888 296.065 215.203 295.434 215.372 294.731C215.633 293.65 215.496 292.58 215.329 291.676C215.242 291.205 215.123 290.66 214.805 290.153C214.389 289.489 213.708 289.061 212.982 289.009C212.703 288.99 212.422 289.023 212.155 289.106Z" fill="#965F0F"/>
<path d="M201.18 311.149L201.194 310.82C201.209 310.475 200.948 310.118 200.671 309.741L200.608 309.655C200.044 308.883 199.572 308.049 199.199 307.169C198.968 306.623 198.704 305.893 198.709 305.101C198.715 304.246 199.051 303.457 199.63 302.937C199.978 302.626 200.433 302.387 201.022 302.206L201.06 302.195C201.312 302.12 201.647 302.034 202.007 302.042C202.962 302.062 203.813 302.715 204.403 303.878C204.669 304.402 204.83 304.857 204.908 305.31C205.084 306.329 204.843 307.471 204.211 308.611C203.672 309.584 202.936 310.429 202.223 311.246L201.964 311.543L201.18 311.149Z" fill="#FFC55E"/>
<path d="M201.17 302.694L201.205 302.683C201.463 302.606 201.729 302.546 201.996 302.551C202.915 302.571 203.563 303.346 203.95 304.109C204.158 304.517 204.329 304.946 204.407 305.398C204.579 306.395 204.277 307.444 203.766 308.366C203.255 309.288 202.545 310.105 201.84 310.913L201.702 310.843C201.725 310.285 201.347 309.809 201.018 309.357C200.477 308.617 200.024 307.816 199.667 306.972C199.416 306.379 199.212 305.753 199.216 305.105C199.22 304.457 199.456 303.777 199.969 303.317C200.304 303.017 200.733 302.827 201.17 302.694ZM200.873 301.722C200.212 301.924 199.695 302.198 199.291 302.561C198.605 303.176 198.207 304.101 198.201 305.099C198.195 305.984 198.481 306.777 198.731 307.368C199.119 308.284 199.611 309.153 200.198 309.956L200.261 310.043C200.454 310.306 200.694 310.633 200.687 310.801L200.659 311.456L201.245 311.751L201.384 311.821L202.088 312.175L202.606 311.581C203.336 310.744 204.09 309.879 204.655 308.859C205.344 307.616 205.604 306.36 205.408 305.225C205.322 304.728 205.142 304.212 204.856 303.649C204.178 302.311 203.17 301.56 202.018 301.536C201.587 301.527 201.202 301.624 200.915 301.71L200.873 301.722Z" fill="#965F0F"/>
<path d="M197.671 303.843L197.637 303.597C197.571 303.121 197.367 302.66 197.151 302.172L196.917 301.626C196.507 300.61 196.365 299.701 196.484 298.847C196.634 297.769 197.241 296.809 198.107 296.278C198.321 296.147 198.551 296.045 198.791 295.972C199.696 295.695 200.649 295.849 201.278 296.372C201.758 296.772 202.005 297.317 202.202 297.846C202.282 298.062 202.37 298.316 202.4 298.597C202.492 299.459 202.018 300.212 201.604 300.692C201.325 301.016 201.011 301.298 200.707 301.57L200.168 302.071C199.632 302.601 199.192 303.22 198.867 303.901L198.63 304.399L197.671 303.843Z" fill="#FFC55E"/>
<path d="M198.94 296.459C199.638 296.245 200.429 296.326 200.953 296.763C201.343 297.088 201.554 297.559 201.726 298.024C201.802 298.227 201.873 298.435 201.896 298.652C201.961 299.26 201.643 299.871 201.221 300.361C200.799 300.851 200.272 301.253 199.81 301.712C199.228 302.291 198.751 302.962 198.409 303.684L198.141 303.529C198.039 302.792 197.667 302.127 197.389 301.437C197.068 300.642 196.868 299.779 196.988 298.918C197.108 298.057 197.583 297.197 198.374 296.713C198.551 296.604 198.742 296.519 198.94 296.459ZM198.643 295.487C198.359 295.574 198.089 295.695 197.842 295.846C196.849 296.455 196.153 297.551 195.981 298.778C195.85 299.723 196.003 300.716 196.447 301.817L196.687 302.378C196.888 302.833 197.078 303.262 197.134 303.668L197.202 304.16L197.631 304.408L197.899 304.564L198.854 305.116L199.327 304.12C199.626 303.492 200.032 302.921 200.527 302.432L201.047 301.949L201.99 301.025C202.678 300.227 202.995 299.369 202.906 298.544C202.871 298.22 202.776 297.933 202.678 297.67C202.469 297.104 202.177 296.461 201.604 295.983C200.845 295.351 199.711 295.161 198.643 295.487Z" fill="#965F0F"/>
<path d="M196.883 296.74C196.537 296.845 196.139 296.729 195.892 296.451C195.667 296.197 195.61 295.897 195.574 295.636C195.466 294.845 195.434 294.045 195.479 293.247C195.54 292.188 195.73 291.355 196.078 290.624C196.53 289.678 197.256 288.941 198.122 288.548C198.235 288.497 198.345 288.455 198.45 288.423C198.706 288.338 198.98 288.316 199.247 288.359C199.525 288.41 199.791 288.544 200.057 288.771C201.092 289.656 201.388 291.28 200.776 292.721C200.319 293.797 199.426 294.786 198.047 295.745L197.926 295.829L197.546 296.101L197.687 296.206L197.135 296.613C197.058 296.669 196.973 296.712 196.883 296.74Z" fill="#FFC55E"/>
<path d="M198.595 288.91C198.779 288.854 198.97 288.827 199.153 288.861C199.373 288.9 199.562 289.021 199.725 289.16C200.663 289.962 200.792 291.376 200.305 292.524C199.818 293.672 198.822 294.587 197.754 295.33C197.397 295.578 197.022 295.817 196.757 296.151L196.83 296.205C196.8 296.227 196.766 296.244 196.731 296.255C196.57 296.304 196.377 296.237 196.269 296.115C196.137 295.967 196.101 295.763 196.074 295.568C195.969 294.809 195.939 294.042 195.983 293.278C196.03 292.451 196.167 291.613 196.533 290.845C196.899 290.077 197.517 289.38 198.328 289.013C198.414 288.973 198.504 288.938 198.595 288.91ZM198.298 287.938C198.172 287.977 198.041 288.027 197.909 288.087C196.934 288.529 196.12 289.352 195.617 290.407C195.239 291.199 195.033 292.093 194.969 293.22C194.921 294.05 194.954 294.883 195.067 295.707C195.098 295.931 195.162 296.398 195.507 296.788C195.693 296.997 195.935 297.148 196.204 297.226C196.473 297.304 196.758 297.304 197.028 297.227C197.174 297.182 197.31 297.113 197.433 297.023L198.538 296.209L198.408 296.112C199.826 295.113 200.753 294.068 201.24 292.921C201.949 291.252 201.605 289.43 200.385 288.387C200.046 288.099 199.703 287.927 199.333 287.861C199.008 287.802 198.66 287.828 198.298 287.938Z" fill="#965F0F"/>
<path d="M194.338 291.979C193.966 291.348 193.135 291.051 192.255 290.736L191.703 290.534C189.844 289.819 188.57 288.598 188.206 287.184C188.022 286.468 188.12 285.806 188.481 285.318C188.722 284.992 189.078 284.751 189.511 284.618C189.921 284.493 190.381 284.474 190.804 284.567C191.581 284.737 192.187 285.201 192.677 285.633C193.633 286.474 194.319 287.329 194.776 288.245C195.329 289.353 195.517 290.519 195.321 291.619L194.98 293.07L194.338 291.979Z" fill="#FFC55E"/>
<path d="M189.66 285.103C189.992 285.002 190.362 284.99 190.696 285.063C191.337 285.203 191.869 285.597 192.342 286.014C193.145 286.721 193.855 287.533 194.323 288.472C194.791 289.411 195.008 290.482 194.822 291.53L194.776 291.721C194.22 290.776 192.959 290.472 191.886 290.06C190.431 289.5 189.068 288.493 188.699 287.057C188.576 286.581 188.581 286.037 188.89 285.62C189.076 285.368 189.352 285.198 189.66 285.103ZM189.363 284.132C188.825 284.296 188.38 284.601 188.073 285.015C187.619 285.628 187.492 286.443 187.715 287.309C188.27 289.466 190.338 290.552 191.521 291.008L192.085 291.214C192.876 291.497 193.623 291.764 193.901 292.236L195.185 294.418L195.765 291.954L195.811 291.762L195.817 291.735L195.822 291.707C196.037 290.499 195.833 289.223 195.232 288.018C194.745 287.041 194.019 286.136 193.014 285.251C192.506 284.804 191.809 284.266 190.913 284.07C190.406 283.959 189.856 283.981 189.363 284.132Z" fill="#965F0F"/>
<path d="M215.043 292.486C215.056 292.389 215.076 292.294 215.097 292.199L215.625 289.748L216.195 292.575L215.932 292.883L214.83 294.158L215.043 292.486Z" fill="#FFC55E"/>
<path d="M215.608 292.239L215.647 292.433L215.546 292.55C215.56 292.445 215.586 292.342 215.608 292.239ZM215.641 287.258L214.615 292.025L214.601 292.088L214.539 292.421L214.111 295.765L216.315 293.215L216.416 293.098L216.742 292.721L216.643 292.232L216.604 292.038L215.641 287.258Z" fill="#965F0F"/>
<path d="M215.752 294.282L215.822 293.962C215.98 293.233 216.433 292.628 216.885 292.07L218.421 290.286C218.622 290.067 218.897 289.767 219.275 289.579C219.353 289.541 219.434 289.509 219.517 289.483C220.158 289.287 221.002 289.485 221.304 290.156C221.458 290.499 221.52 291.075 220.942 291.87C220.193 292.901 219.093 293.694 217.845 294.103L217.704 294.147L217.432 294.228L217.174 294.303C216.989 294.36 216.775 294.432 216.582 294.535L216.298 294.687L215.752 294.282Z" fill="#FFC55E"/>
<path d="M219.669 289.969C220.119 289.831 220.666 289.97 220.843 290.364C221.017 290.751 220.797 291.209 220.534 291.571C219.85 292.512 218.832 293.246 217.69 293.62L217.558 293.661L217.029 293.817C216.793 293.889 216.561 293.971 216.345 294.087L216.321 294.069C216.456 293.448 216.867 292.902 217.283 292.389L218.798 290.628C219.006 290.403 219.223 290.173 219.504 290.034C219.557 290.008 219.612 289.986 219.669 289.969ZM219.372 288.997C219.262 289.031 219.155 289.073 219.052 289.124C218.589 289.354 218.265 289.708 218.05 289.942L216.493 291.75C216.003 292.355 215.51 293.016 215.328 293.854L215.189 294.494L215.715 294.885L215.739 294.903L216.256 295.287L216.825 294.982C216.986 294.903 217.153 294.838 217.325 294.789L217.575 294.715L217.855 294.633L218.005 294.586C219.354 294.144 220.544 293.285 221.356 292.168C222.076 291.176 221.978 290.414 221.769 289.948C221.39 289.104 220.359 288.695 219.372 288.997Z" fill="#965F0F"/>
<path d="M218.131 288.867L218.362 288.459C218.929 287.456 219.715 286.604 220.48 285.832C221.094 285.213 221.829 284.528 222.776 284.238L223.023 284.173C223.723 284.018 224.579 284.168 224.911 284.853C225.188 285.423 224.956 286.145 224.308 286.736C223.732 287.261 223.048 287.619 222.396 287.94L219.23 289.342L218.98 289.44L218.131 288.867Z" fill="#FFC55E"/>
<path d="M222.923 284.725L223.131 284.67C223.631 284.559 224.246 284.651 224.452 285.076C224.658 285.501 224.339 286.019 223.964 286.362C223.446 286.834 222.807 287.171 222.169 287.485L219.041 288.87L218.802 288.709C219.328 287.779 220.07 286.966 220.839 286.191C221.437 285.588 222.103 284.976 222.923 284.725ZM222.626 283.753C221.565 284.077 220.775 284.812 220.117 285.475C219.328 286.272 218.515 287.154 217.918 288.209L217.455 289.026L218.233 289.551L218.472 289.712L218.916 290.012L219.414 289.815L222.618 288.397C223.272 288.074 224.023 287.682 224.648 287.112C225.469 286.363 225.744 285.413 225.366 284.633C224.912 283.698 223.806 283.48 222.911 283.678L222.626 283.753Z" fill="#965F0F"/>
<path d="M196.181 285.996C196.291 285.021 196.405 284.013 196.742 283.033C196.901 282.572 197.183 281.913 197.798 281.51C197.955 281.408 198.125 281.329 198.303 281.275C198.686 281.162 199.092 281.152 199.48 281.243C199.869 281.335 200.228 281.525 200.521 281.797C201.135 282.388 201.386 283.305 201.193 284.252C201.051 284.952 200.695 285.64 200.073 286.417C199.156 287.563 197.959 288.54 196.611 289.241L195.764 289.682L196.181 285.996Z" fill="#FFC55E"/>
<path d="M198.449 281.761C199.041 281.58 199.739 281.752 200.166 282.163C200.688 282.665 200.837 283.441 200.693 284.151C200.549 284.861 200.143 285.513 199.674 286.1C198.793 287.2 197.656 288.124 196.374 288.791L196.683 286.053C196.791 285.093 196.901 284.126 197.22 283.199C197.385 282.719 197.628 282.227 198.074 281.936C198.19 281.86 198.317 281.801 198.449 281.761ZM198.152 280.789C197.928 280.858 197.715 280.957 197.518 281.085C196.772 281.573 196.443 282.336 196.26 282.868C195.904 283.901 195.787 284.937 195.673 285.938L195.364 288.677L195.15 290.574L196.843 289.692C198.253 288.958 199.506 287.935 200.467 286.735C201.132 285.903 201.532 285.125 201.689 284.353C201.917 283.235 201.611 282.143 200.871 281.431C200.176 280.762 199.083 280.505 198.152 280.789Z" fill="#965F0F"/>
<path d="M217.58 287.637C217.283 285.89 217.447 284.062 218.054 282.35C218.119 282.167 218.317 281.609 218.856 281.444L218.907 281.43C219.333 281.324 219.8 281.527 220.044 281.924C220.229 282.227 220.252 282.565 220.268 282.788C220.317 283.49 220.323 284.082 220.193 284.689C219.947 285.839 219.231 286.834 218.6 287.712L217.771 288.764L217.58 287.637Z" fill="#FFC55E"/>
<path d="M219.004 281.93L219.03 281.923C219.26 281.866 219.496 282.003 219.611 282.19C219.726 282.377 219.746 282.604 219.761 282.823C219.802 283.408 219.821 284.001 219.697 284.583C219.476 285.614 218.825 286.531 218.188 287.416L218.081 287.552C217.801 285.863 217.957 284.132 218.533 282.521C218.618 282.28 218.75 282.008 219.004 281.93ZM218.707 280.959C218.187 281.118 217.806 281.529 217.575 282.181C216.939 283.974 216.768 285.891 217.079 287.722L217.463 289.977L218.879 288.181L218.986 288.045L219 288.027L219.013 288.009C219.673 287.091 220.422 286.05 220.69 284.795C220.841 284.092 220.82 283.398 220.775 282.752C220.757 282.497 220.728 282.068 220.477 281.659C220.119 281.076 219.423 280.779 218.785 280.937L218.707 280.959Z" fill="#965F0F"/>
<path d="M221.377 284.549C221.377 284.539 221.377 284.524 221.375 284.509L220.365 284.608L220.326 284.283L220.531 284.089L220.539 284.082L221.334 283.326L221.379 284.446C221.381 284.481 221.379 284.515 221.377 284.549Z" fill="#FFC55E"/>
<path d="M220.872 284.467C220.873 284.495 220.867 284.521 220.869 284.549L220.861 284.477L220.872 284.467ZM221.796 282.186L220.21 283.694L220.206 283.697L220.16 283.74L219.791 284.091L219.851 284.596L219.86 284.668L221.882 284.469C221.885 284.512 221.885 284.554 221.882 284.596C221.886 284.549 221.89 284.494 221.887 284.426L221.796 282.186Z" fill="#965F0F"/>
<path d="M214.3 288.336C214.22 287.94 214.12 287.446 214.218 286.941C214.326 286.389 214.68 285.947 215.141 285.785L215.19 285.769C215.785 285.587 216.359 285.88 216.698 286.215C217.265 286.777 217.523 287.638 217.405 288.577C217.307 289.356 216.979 290.091 216.69 290.74C216.446 291.285 216.218 291.819 216.105 292.345L215.595 294.735L214.3 288.336Z" fill="#FFC55E"/>
<path d="M215.339 286.254C215.7 286.144 216.088 286.325 216.341 286.576C216.843 287.072 216.99 287.816 216.903 288.513C216.816 289.21 216.52 289.877 216.227 290.532C215.979 291.089 215.735 291.654 215.61 292.239L214.8 288.235C214.72 287.842 214.64 287.438 214.718 287.037C214.781 286.714 214.979 286.379 215.311 286.263L215.339 286.254ZM215.042 285.282L214.974 285.305C214.334 285.529 213.866 286.104 213.722 286.843C213.603 287.448 213.715 287.996 213.804 288.437L214.209 290.438L214.615 292.44L215.584 297.229L216.605 292.451C216.707 291.972 216.914 291.486 217.156 290.947C217.46 290.266 217.804 289.494 217.912 288.641C218.049 287.543 217.737 286.528 217.057 285.854C216.492 285.294 215.72 285.075 215.042 285.282Z" fill="#965F0F"/>
<path d="M214.339 301.127L213.531 301.337L212.639 301.528L213.129 300.156C213.353 298.94 213.842 297.737 214.545 296.676C214.816 296.266 215.199 295.747 215.765 295.371C215.989 295.222 216.235 295.105 216.493 295.026C216.915 294.897 217.34 294.883 217.72 294.986C218.511 295.199 219.102 295.94 219.158 296.789C219.204 297.485 218.922 298.215 218.364 298.844C217.855 299.419 217.201 299.822 216.689 300.108C215.901 300.548 215.11 300.891 214.339 301.127Z" fill="#FFC55E"/>
<path d="M216.642 295.512C216.954 295.416 217.283 295.393 217.588 295.476C218.203 295.642 218.611 296.221 218.65 296.822C218.689 297.423 218.406 298.03 217.984 298.507C217.562 298.984 217.009 299.347 216.441 299.664C215.728 300.063 214.975 300.401 214.191 300.641L213.424 300.84L213.622 300.288C213.832 299.119 214.292 297.978 214.969 296.956C215.258 296.518 215.596 296.093 216.046 295.794C216.23 295.672 216.43 295.577 216.642 295.512ZM216.344 294.54C216.041 294.633 215.753 294.77 215.484 294.948C214.836 295.379 214.396 295.98 214.122 296.395C213.39 297.501 212.877 298.754 212.637 300.023L212.467 300.498L211.854 302.216L213.637 301.834L214.488 301.613C215.294 301.366 216.118 301.009 216.937 300.552C217.485 300.246 218.185 299.814 218.745 299.181C219.393 298.449 219.72 297.588 219.665 296.756C219.595 295.694 218.85 294.764 217.853 294.495C217.355 294.368 216.832 294.384 216.344 294.54Z" fill="#965F0F"/>
<path d="M220.367 284.485C220.345 283.859 220.591 283.271 220.86 282.729C221.297 281.846 221.885 280.889 222.925 280.482L223.071 280.431C223.239 280.376 223.417 280.357 223.593 280.376C223.973 280.424 224.311 280.687 224.474 281.064C224.738 281.676 224.52 282.436 223.918 283.001C223.577 283.322 223.18 283.538 222.796 283.747L222.475 283.924C222.024 284.184 221.602 284.493 221.216 284.843L220.404 285.583L220.367 284.485Z" fill="#FFC55E"/>
<path d="M223.216 280.916C223.318 280.885 223.424 280.867 223.527 280.88C223.749 280.907 223.922 281.074 224.005 281.265C224.201 281.719 223.952 282.268 223.567 282.63C223.182 282.992 222.682 283.217 222.219 283.484C221.735 283.762 221.283 284.092 220.871 284.467C220.853 283.949 221.072 283.436 221.311 282.954C221.711 282.148 222.23 281.298 223.106 280.954L223.216 280.916ZM222.919 279.944L222.737 280.008C221.535 280.478 220.882 281.533 220.401 282.503C220.103 283.105 219.83 283.764 219.855 284.502L219.931 286.698L221.555 285.218C221.913 284.892 222.306 284.606 222.726 284.364L223.036 284.192C223.428 283.978 223.873 283.736 224.263 283.37C225.023 282.656 225.288 281.672 224.937 280.861C224.702 280.32 224.21 279.94 223.652 279.871C223.415 279.842 223.175 279.866 222.919 279.944Z" fill="#965F0F"/>
<path d="M190.677 303.622C191.886 303.951 193.078 304.054 194.253 304.466C195.238 304.81 196.398 305.854 196.994 306.019C196.649 304.566 196.639 303.464 195.862 302.18C195.536 301.641 194.946 300.308 194.334 300.064C193.473 301.102 191.632 302.254 190.259 302.234C188.886 302.214 187.437 301.525 186.717 300.464L187.124 301.246C187.96 302.635 189.026 303.173 190.677 303.622ZM187.729 294.128L187.636 294.15C187.676 294.146 187.713 294.155 187.752 294.157C187.745 294.147 187.736 294.138 187.729 294.128Z" fill="#BF812E"/>
<path d="M193.38 296.854C193.825 297.05 194.239 297.299 194.643 297.558C195.287 297.972 195.426 298.182 195.915 298.751C195.797 298.092 195.452 297.697 195.073 296.998C194.613 296.152 194.293 295.22 193.656 294.486C193.612 294.436 193.565 294.386 193.502 294.358C193.404 294.315 193.286 294.334 193.176 294.353L191.2 294.635C190.28 294.75 189.292 294.855 188.494 294.455C188.255 294.335 188.017 294.177 187.75 294.157C188.139 294.712 188.65 295.169 189.245 295.492C190.503 296.179 192.059 296.273 193.38 296.854ZM193.239 290.805C193.936 291.108 194.61 291.556 194.875 292.231L194.968 292.313C195.087 291.024 195.018 289.562 194.264 288.516C193.632 288.986 192.541 289.406 191.753 289.394C190.965 289.382 190.197 289.1 189.63 288.612C190.082 289.097 190.556 289.576 191.139 289.92C191.787 290.302 192.543 290.502 193.239 290.805ZM195.197 285.969C195.333 285.509 195.436 285.039 195.507 284.564C195.602 283.909 195.595 283.157 195.08 282.73C194.801 283.282 194.094 283.582 193.455 283.541C192.816 283.5 192.246 283.178 191.788 282.777C192.166 283.47 192.928 283.881 193.626 284.302C194.309 284.714 195.003 285.229 195.197 285.969ZM195.213 286.016C195.209 286 195.201 285.985 195.197 285.969L195.171 286.067L195.213 286.016ZM196.2 281.263L196.229 281.376C196.529 279.898 196.511 278.379 196.178 276.936C196.092 277.257 195.951 277.561 195.759 277.833C195.615 278.038 195.436 278.231 195.2 278.334C194.964 278.437 194.662 278.427 194.487 278.261C194.851 279.359 196.04 280.115 196.2 281.263ZM198.691 275.839C198.899 275.342 198.983 274.794 198.851 274.29C198.837 274.237 198.793 274.173 198.739 274.197C198.708 274.211 198.698 274.248 198.692 274.28C198.554 274.96 197.984 275.5 197.443 275.99L197.76 277.111L197.803 277.21C198.159 276.787 198.484 276.336 198.691 275.839ZM200.071 278.389C199.461 278.732 198.757 278.952 198.063 278.914C197.927 279.376 197.922 279.866 198.048 280.331L198.07 280.518C199.638 279.83 200.709 278.434 201.702 277.102C201.208 277.583 200.682 278.045 200.071 278.389ZM196.338 288.843L196.509 289.015L198.349 287.413C198.895 286.929 199.441 286.438 199.875 285.865C200.309 285.292 200.627 284.626 200.66 283.94C200.682 283.483 200.578 283.035 200.557 282.581C200.472 283.489 199.96 284.325 199.461 285.126C199.294 285.392 199.125 285.662 198.899 285.888C198.377 286.407 197.618 286.632 196.915 286.896C196.815 286.934 196.706 286.98 196.656 287.07C196.634 287.111 196.626 287.156 196.618 287.2L196.338 288.843ZM200.534 290.815C200.466 290.815 200.414 290.874 200.373 290.927C199.357 292.245 197.925 293.236 196.775 294.457C196.508 294.741 196.249 295.051 196.153 295.413C196.057 295.775 196.168 296.201 196.508 296.375L196.843 296.404C197.126 296.286 197.076 296.23 197.316 296.044C198.159 295.39 198.977 294.69 199.607 293.854C200.237 293.018 200.671 292.03 200.669 291.032C200.668 290.938 200.635 290.815 200.534 290.815ZM199.291 302.238C199.732 301.76 200.245 301.344 200.732 300.906C201.276 300.419 201.83 299.81 201.779 299.127C201.383 299.98 200.736 300.771 199.851 301.201C198.966 301.631 197.828 301.636 197.086 301.072C197.602 301.959 197.99 302.914 198.236 303.909L198.324 303.872C198.476 303.266 198.849 302.716 199.291 302.238ZM199.478 310.825C199.371 310.78 199.246 310.798 199.127 310.814C196.852 311.134 194.496 310.642 192.652 309.46L192.704 309.493C193.324 310.173 194.246 310.536 195.134 310.883C197.245 311.71 199.356 312.575 201.22 313.797C202.356 314.543 203.395 315.419 204.605 316.059C204.746 316.134 204.907 316.207 205.069 316.171L202.776 314.027C201.697 313.088 200.606 312.044 199.667 310.982C199.613 310.921 199.556 310.858 199.478 310.825ZM202.861 307.244C201.943 307.781 200.686 307.767 199.89 307.147C200.195 308.571 201.6 309.6 201.814 311.042L201.752 311.183C202.794 310.43 203.608 309.398 204.061 308.254C204.514 307.11 204.605 305.857 204.32 304.698C204.317 305.212 204.181 305.716 203.925 306.163C203.67 306.609 203.303 306.981 202.861 307.244ZM215.83 303.583C214.871 304.813 213.207 305.33 211.876 306.206C211.741 306.295 211.605 306.393 211.524 306.528C211.455 306.644 211.434 306.777 211.415 306.907L211.21 308.254L211.486 308.093C212.245 307.816 212.864 307.408 213.518 307.041C214.172 306.674 214.793 306.07 215.331 305.561C215.869 305.052 216.283 304.542 216.274 303.846C216.272 303.742 216.06 303.465 215.95 303.487C215.898 303.497 215.862 303.542 215.83 303.583ZM209.793 307.755L209.784 306.215C209.617 304.855 209.251 303.755 208.959 302.418C207.918 303.228 206.152 303.73 204.924 303.32C205.153 303.596 205.325 303.913 205.431 304.251C205.478 304.4 205.513 304.556 205.603 304.685C205.686 304.803 205.81 304.89 205.926 304.98C206.706 305.579 207.265 306.389 207.756 307.216C208.072 307.747 208.221 308.596 208.423 309.176C208.905 310.56 208.77 311.686 208.761 313.161C208.752 314.636 209.162 316.12 209.852 317.417L209.683 316.041C209.654 315.125 209.673 314.772 209.372 313.514C209.05 312.166 209.357 310.651 209.54 309.259L209.793 307.755ZM210.73 303.183C211.148 302.382 211.346 301.484 211.305 300.582C211.257 299.572 211.171 298.537 210.94 297.558C210.997 298.213 210.659 298.924 210.365 299.537C210.246 299.786 210.087 300.038 209.832 300.172C209.577 300.306 209.273 300.101 209.143 299.868L209.366 300.275C210.126 301.113 210.536 302.083 210.73 303.183ZM213.993 299.239C213.937 299.788 213.772 300.321 213.509 300.807L213.647 300.9C214.444 300.508 215.353 300.265 216.15 299.873C216.859 299.524 217.478 299.009 217.988 298.428C218.498 297.847 218.726 296.988 218.316 296.381C218.127 297.06 217.534 297.592 216.914 298.003C216.023 298.589 215.033 299.007 213.993 299.239ZM212.903 298.333C212.921 298.22 212.921 298.108 212.917 297.997L212.77 298.391L212.903 298.333ZM213.295 296.982C213.504 296.422 213.856 296.151 213.954 295.569L214.107 294.288C214.192 293.662 214.172 293.21 214.22 292.582C214.268 291.954 214.18 291.295 213.792 290.799C214.115 292.246 213.45 293.885 212.159 294.823C212.069 294.888 211.972 294.957 211.938 295.056C211.913 295.126 211.924 295.2 211.939 295.271C212.048 295.802 212.33 296.277 212.564 296.766C212.75 297.154 212.902 297.571 212.917 297.997L213.295 296.982ZM219.518 291.204C219.108 291.897 218.398 292.396 217.672 292.81C217.414 292.958 217.146 293.1 216.934 293.304C216.722 293.508 216.569 293.786 216.604 294.059L216.615 294.013C216.897 293.832 217.244 293.783 217.569 293.692C218.515 293.427 219.302 292.788 219.984 292.106C220.218 291.873 220.45 291.619 220.542 291.315C220.586 291.166 220.594 291.004 220.53 290.866C220.466 290.728 220.322 290.621 220.159 290.621C219.85 290.621 219.669 290.947 219.518 291.204ZM216.54 289.952C216.776 289.261 216.985 288.521 216.787 287.838C216.622 288.581 216.146 289.273 215.484 289.732C215.446 289.759 215.406 289.786 215.386 289.826C215.366 289.866 215.372 289.912 215.377 289.955L215.632 291.959L215.692 291.937C216.05 291.304 216.309 290.63 216.54 289.952ZM219.263 285.77C219.389 285.556 219.471 285.198 219.517 284.96C219.563 284.722 219.509 284.459 219.32 284.306C219.051 284.783 218.72 285.221 218.334 285.61C218.293 285.651 218.25 285.693 218.225 285.744C218.2 285.795 218.193 285.847 218.186 285.9C218.121 286.412 218.09 286.927 218.094 287.443L218.138 287.476C218.498 286.861 218.903 286.385 219.263 285.77ZM224.221 285.868C224.319 285.641 224.345 285.351 224.156 285.194C223.917 285.791 223.329 286.209 222.751 286.555C221.938 287.042 221.085 287.46 220.203 287.805C219.942 287.908 219.673 288.007 219.454 288.178C219.235 288.349 219.076 288.614 219.121 288.869L218.994 288.943C220.336 288.173 221.903 287.8 223.192 286.951C223.62 286.669 224.026 286.319 224.221 285.868ZM221.733 283.763L222.737 283.191C223.18 282.888 223.79 282.519 223.998 282.048C224.122 281.766 224.109 281.254 223.898 281.037C223.844 281.587 223.318 282.212 222.862 282.581C222.406 282.95 221.843 283.186 221.27 283.344C221.217 283.359 221.161 283.374 221.123 283.412C221.085 283.45 221.073 283.493 221.06 283.537C220.988 283.787 220.938 284.043 220.911 284.302L220.956 284.563C221.096 284.224 221.406 283.963 221.733 283.763ZM212.643 322.988C212.643 322.95 212.649 322.915 212.65 322.878L212.62 322.742L212.643 322.988ZM221.512 309.134C219.651 311.135 217.905 313.24 216.281 315.438C215.307 316.753 214.673 318.321 213.879 319.746C213.273 320.833 212.695 321.698 212.65 322.878C212.733 323.282 212.894 323.682 213.242 323.918C213.708 324.233 214.395 324.161 214.909 323.869C215.423 323.577 215.791 323.105 216.1 322.625C216.787 321.558 217.198 320.555 217.689 319.404C218.928 316.499 219.943 313.943 221.674 311.219C222.769 309.495 229.433 303.486 230.889 300.791C228.548 303.049 224.468 305.958 221.512 309.134ZM194.444 318.407C193.416 318.134 192.378 317.864 191.302 317.799C190.226 317.734 189.749 317.611 188.583 317.685C188.583 317.685 187.509 318.013 187.479 318.099C187.449 318.185 190.017 318.079 190.987 318.303C194.402 319.094 197.808 320.735 200.794 322.41C202.637 323.444 204.254 324.262 206.276 324.975C206.834 325.171 207.431 325.332 208.034 325.251C208.156 325.234 208.289 325.201 208.361 325.107C208.4 325.051 208.422 324.986 208.426 324.919C208.474 324.41 208.027 324.012 207.604 323.709C203.81 320.995 199.089 319.637 194.444 318.407Z" fill="#BF812E"/>
<path d="M233.022 127.83L232.902 127.68L232.752 127.515L223.797 117.27C223.293 116.64 222.654 116.131 221.927 115.781C221.2 115.431 220.404 115.247 219.597 115.245H170.892L164.457 77.4151V77.3701L164.442 77.3251C164.187 75.9837 163.471 74.7739 162.417 73.9051L162.252 73.7701L162.057 73.6501L117.702 44.0701C116.383 43.2357 114.837 42.8321 113.277 42.9151H111.747C110.569 42.8321 109.39 43.0597 108.327 43.5751C107.967 43.7101 107.607 43.8751 107.277 44.1001L62.9674 73.6501L62.7874 73.7701L62.6374 73.9201C61.5824 74.7835 60.861 75.9875 60.5974 77.3251V77.3701L60.5824 77.4151L51.0424 133.47C50.8259 134.595 50.9461 135.759 51.3881 136.816C51.8302 137.873 52.5743 138.776 53.5273 139.412C54.4802 140.047 55.5997 140.388 56.7453 140.39C57.891 140.393 59.0118 140.057 59.9674 139.425L78.5224 192.33L79.5424 195.255H120.192L201.972 195.855L204.012 195.87L205.332 194.31L224.322 171.915C224.517 171.675 224.697 171.42 224.847 171.165L228.267 171.12C229.544 171.113 230.774 170.637 231.723 169.782C232.671 168.928 233.273 167.754 233.412 166.485L233.427 166.29V166.095L234.147 131.7C234.237 130.335 233.847 128.97 233.037 127.83H233.022Z" stroke="black" stroke-width="3" stroke-miterlimit="10"/>
<path d="M120.49 192.884H81.3702L61.2852 135.644L110.155 105.614C110.797 105.22 111.533 105.007 112.286 104.999C113.039 104.991 113.78 105.188 114.43 105.569L165.73 135.659L154.09 164.099L220.585 164.969C221.845 164.984 222.955 165.719 223.48 166.859C224.005 168.014 223.825 169.319 223.015 170.294L203.35 193.499L120.49 192.899V192.884Z" fill="url(#paint4_linear_3331_1850)"/>
<path d="M112.332 107.249C112.662 107.249 112.992 107.324 113.292 107.504L162.912 136.604L150.762 166.304L220.557 167.204C221.397 167.234 221.832 168.209 221.307 168.839L202.302 191.249L120.507 190.649H82.9623L64.0173 136.619L111.342 107.519C111.642 107.339 111.987 107.249 112.332 107.249ZM112.332 102.749C111.147 102.749 109.992 103.064 108.987 103.694L61.6623 132.779L58.5723 134.684L59.7723 138.104L78.7173 192.134L79.7673 195.134H120.507L202.272 195.734L204.372 195.764L205.737 194.159L224.727 171.749C225.391 170.953 225.817 169.986 225.956 168.959C226.094 167.932 225.94 166.886 225.51 165.943C225.081 164.999 224.394 164.196 223.528 163.626C222.663 163.056 221.654 162.741 220.617 162.719L157.422 161.894L167.082 138.314L168.552 134.714L165.192 132.734L115.572 103.634C114.591 103.052 113.473 102.741 112.332 102.734V102.749Z" fill="#4F4F4F"/>
<path d="M181.286 179.835H171.236L179.546 167.205H189.596L181.286 179.835ZM195.371 179.835H185.321L193.646 167.205H203.696L195.371 179.835Z" fill="black"/>
<path d="M155.115 169.469C154.666 169.471 154.222 169.364 153.824 169.157C153.425 168.949 153.082 168.648 152.825 168.279C152.569 167.911 152.405 167.485 152.35 167.039C152.294 166.593 152.347 166.14 152.505 165.719L171.255 117.119H219.915C220.935 117.119 221.88 117.569 222.495 118.364L231.57 128.714L231.63 128.819C232.155 129.554 232.41 130.454 232.335 131.354L231.63 165.899V166.004C231.542 166.761 231.178 167.459 230.608 167.965C230.038 168.472 229.302 168.751 228.54 168.749L155.13 169.454L155.115 169.469Z" fill="url(#paint5_linear_3331_1850)"/>
<path d="M219.914 119.369C220.259 119.369 220.559 119.519 220.754 119.789L229.814 130.139C230.039 130.439 230.129 130.829 230.084 131.219L229.379 165.749C229.357 165.956 229.258 166.148 229.103 166.286C228.948 166.425 228.747 166.501 228.539 166.499L155.114 167.219C155.027 167.221 154.942 167.201 154.865 167.161C154.788 167.121 154.723 167.063 154.674 166.992C154.625 166.921 154.594 166.839 154.584 166.753C154.575 166.667 154.587 166.58 154.619 166.499L172.799 119.354H219.914V119.369ZM219.914 114.854H169.709L168.614 117.734L150.419 164.879V164.909L150.389 164.954C150.115 165.714 150.027 166.529 150.134 167.329C150.24 168.13 150.538 168.893 151.001 169.555C151.464 170.216 152.079 170.757 152.795 171.131C153.511 171.505 154.306 171.702 155.114 171.704L228.584 170.999C231.254 170.999 233.534 168.959 233.849 166.259L233.879 166.049V165.839L234.584 131.459C234.689 130.049 234.284 128.639 233.459 127.499L233.339 127.319L233.189 127.169L224.234 116.924C223.714 116.279 223.056 115.758 222.309 115.399C221.561 115.041 220.743 114.855 219.914 114.854Z" fill="#4F4F4F"/>
<path d="M57.1316 138.001C56.5816 137.999 56.0387 137.877 55.5414 137.642C55.044 137.407 54.6045 137.066 54.2538 136.642C53.9031 136.218 53.6499 135.723 53.5121 135.19C53.3744 134.658 53.3554 134.102 53.4566 133.561L62.9816 77.521C63.1466 76.621 63.6116 75.841 64.2866 75.286L64.3766 75.211L109.377 45.196L110.187 45.166C111.537 45.166 112.647 46.261 112.647 47.611V103.681C112.647 104.806 112.137 105.871 111.267 106.576L111.132 106.681L59.3216 137.281C58.6766 137.761 57.9266 138.001 57.1316 138.001Z" fill="url(#paint6_linear_3331_1850)"/>
<path d="M110.186 47.416C110.291 47.416 110.396 47.491 110.396 47.611V103.681C110.394 103.903 110.344 104.121 110.248 104.321C110.152 104.52 110.013 104.696 109.841 104.836L58.0607 135.421C57.8228 135.606 57.5348 135.714 57.2343 135.733C56.9337 135.751 56.6345 135.679 56.3756 135.525C56.1167 135.372 55.9101 135.144 55.7826 134.871C55.655 134.598 55.6126 134.293 55.6607 133.996L65.2007 77.896C65.2628 77.555 65.4434 77.2468 65.7107 77.026L110.066 47.446C110.102 47.4242 110.144 47.4137 110.186 47.416ZM110.186 42.916C109.241 42.916 108.326 43.186 107.531 43.726L63.2207 73.276L63.0407 73.411L62.8607 73.561C61.7788 74.4467 61.0411 75.6832 60.7757 77.056V77.146L51.2207 133.201C51.0592 134.064 51.0906 134.953 51.3128 135.802C51.535 136.652 51.9424 137.442 52.5058 138.116C53.0692 138.79 53.7747 139.331 54.5716 139.7C55.3686 140.069 56.2374 140.257 57.1157 140.251C58.3307 140.251 59.5157 139.876 60.5207 139.171L112.121 108.721L112.406 108.541L112.661 108.331C113.355 107.771 113.914 107.063 114.298 106.258C114.682 105.453 114.881 104.573 114.881 103.681V47.611C114.881 45.031 112.781 42.916 110.171 42.916H110.186Z" fill="#4F4F4F"/>
<path d="M168.55 138.001C167.755 138.001 167.005 137.761 166.36 137.281L114.55 106.681L114.415 106.576C113.984 106.227 113.636 105.786 113.397 105.285C113.158 104.784 113.035 104.236 113.035 103.681V47.611C113.035 46.261 114.145 45.166 115.495 45.166H116.185L116.875 45.586L161.305 75.226L161.395 75.286C162.07 75.841 162.535 76.636 162.685 77.476L172.24 133.621C172.334 134.16 172.309 134.712 172.167 135.24C172.025 135.768 171.77 136.259 171.418 136.677C171.066 137.096 170.628 137.433 170.132 137.664C169.637 137.895 169.097 138.015 168.55 138.016V138.001Z" fill="url(#paint7_linear_3331_1850)"/>
<path d="M115.495 47.416C115.54 47.416 115.57 47.416 115.615 47.446L159.97 77.026C160.225 77.251 160.42 77.551 160.48 77.896L170.02 133.996C170.068 134.293 170.026 134.598 169.898 134.871C169.771 135.144 169.564 135.372 169.305 135.526C169.046 135.679 168.747 135.751 168.447 135.733C168.146 135.714 167.858 135.606 167.62 135.421L115.84 104.821C115.669 104.684 115.531 104.51 115.435 104.313C115.339 104.116 115.288 103.9 115.285 103.681V47.611C115.285 47.491 115.39 47.416 115.495 47.416ZM115.495 42.916C114.249 42.916 113.053 43.4102 112.17 44.2902C111.287 45.1703 110.789 46.3645 110.785 47.611V103.681C110.785 105.496 111.595 107.191 113.005 108.331L113.26 108.541L113.56 108.706L165.13 139.171C166.102 139.844 167.251 140.214 168.433 140.235C169.615 140.256 170.776 139.926 171.771 139.288C172.766 138.649 173.549 137.73 174.022 136.647C174.496 135.564 174.638 134.365 174.43 133.201L164.905 77.146V77.101L164.89 77.056C164.624 75.6837 163.886 74.4475 162.805 73.561L162.64 73.411L162.445 73.291L118.09 43.711C117.319 43.191 116.41 42.9141 115.48 42.916H115.495Z" fill="#4F4F4F"/>
<path d="M118.994 195.299H104.669L102.254 178.409C102.254 176.817 102.694 175.256 103.525 173.898C104.356 172.54 105.546 171.438 106.964 170.714C109.829 169.244 113.219 169.214 116.114 170.609L116.444 170.759C117.906 171.467 119.139 172.573 120.002 173.95C120.864 175.327 121.32 176.92 121.319 178.544L118.994 195.299ZM117.344 143.654H106.289L104.429 130.829C104.429 128.369 105.839 126.119 108.059 124.994C109.153 124.445 110.358 124.152 111.583 124.139C112.807 124.126 114.018 124.393 115.124 124.919L115.379 125.024C116.499 125.554 117.445 126.391 118.109 127.437C118.772 128.483 119.126 129.695 119.129 130.934L117.329 143.654H117.344Z" fill="black"/>
<path d="M265.594 20V380H20.0938V20H265.594ZM269.425 0H16.2638C7.33275 0 0.09375 7.239 0.09375 16.169V383.83C0.09375 392.761 7.33275 400 16.2638 400H269.425C278.355 400 285.594 392.761 285.594 383.83V16.169C285.594 7.239 278.354 0 269.425 0Z" fill="#62C15A"/>
<path d="M269.425 10C271.06 10.0021 272.628 10.6527 273.785 11.8092C274.941 12.9656 275.592 14.5335 275.594 16.169V383.83C275.592 385.466 274.941 387.034 273.785 388.19C272.628 389.347 271.06 389.998 269.425 390H16.2638C14.6279 389.998 13.0596 389.348 11.9029 388.191C10.7462 387.034 10.0956 385.466 10.0938 383.83V16.169C10.0959 14.5334 10.7466 12.9653 11.9033 11.8088C13.06 10.6524 14.6281 10.0019 16.2638 10H269.425ZM269.425 0H16.2638C7.33275 0 0.09375 7.239 0.09375 16.169V383.83C0.09375 392.761 7.33275 400 16.2638 400H269.425C278.355 400 285.594 392.761 285.594 383.83V16.169C285.594 7.239 278.354 0 269.425 0Z" fill="#414042"/>
</g>
</g>
<defs>
<radialGradient id="paint0_radial_3331_1850" cx="0" cy="0" r="1" gradientUnits="userSpaceOnUse" gradientTransform="translate(142.844 200) scale(175.249 175.25)">
<stop stop-color="#8AD147"/>
<stop offset="0.5" stop-color="#5FB248"/>
<stop offset="1" stop-color="#399346"/>
</radialGradient>
<radialGradient id="paint1_radial_3331_1850" cx="0" cy="0" r="1" gradientUnits="userSpaceOnUse" gradientTransform="translate(80.4418 299.691) rotate(-90) scale(47.9771 58.5361)">
<stop stop-color="#C2E1D8"/>
<stop offset="0.213" stop-color="#B9DAD0"/>
<stop offset="0.56" stop-color="#A1C8BB"/>
<stop offset="0.997" stop-color="#79AA98"/>
<stop offset="1" stop-color="#79AA98"/>
</radialGradient>
<radialGradient id="paint2_radial_3331_1850" cx="0" cy="0" r="1" gradientUnits="userSpaceOnUse" gradientTransform="translate(142.641 299.692) rotate(-90) scale(47.977 58.5361)">
<stop stop-color="#C2E1D8"/>
<stop offset="0.213" stop-color="#B9DAD0"/>
<stop offset="0.56" stop-color="#A1C8BB"/>
<stop offset="0.997" stop-color="#79AA98"/>
<stop offset="1" stop-color="#79AA98"/>
</radialGradient>
<radialGradient id="paint3_radial_3331_1850" cx="0" cy="0" r="1" gradientUnits="userSpaceOnUse" gradientTransform="translate(204.84 299.691) rotate(-90) scale(47.977 58.5361)">
<stop stop-color="#F9E141"/>
<stop offset="0.201" stop-color="#F6D83F"/>
<stop offset="0.529" stop-color="#EDC03B"/>
<stop offset="0.94" stop-color="#DE9834"/>
<stop offset="1" stop-color="#DC9233"/>
</radialGradient>
<linearGradient id="paint4_linear_3331_1850" x1="142.54" y1="104.999" x2="142.54" y2="193.499" gradientUnits="userSpaceOnUse">
<stop offset="0.11" stop-color="#D5D5D5"/>
<stop offset="0.27" stop-color="#D1D1D1"/>
<stop offset="0.43" stop-color="#C4C4C4"/>
<stop offset="0.6" stop-color="#AEAEAE"/>
<stop offset="0.78" stop-color="#909090"/>
<stop offset="0.95" stop-color="#6A6A6A"/>
<stop offset="1" stop-color="#5E5E5E"/>
</linearGradient>
<linearGradient id="paint5_linear_3331_1850" x1="192.345" y1="117.104" x2="192.345" y2="169.454" gradientUnits="userSpaceOnUse">
<stop offset="0.2" stop-color="#5E5E5E"/>
<stop offset="0.21" stop-color="#6A6A6A"/>
<stop offset="0.23" stop-color="#909090"/>
<stop offset="0.24" stop-color="#AEAEAE"/>
<stop offset="0.26" stop-color="#C4C4C4"/>
<stop offset="0.28" stop-color="#D1D1D1"/>
<stop offset="0.3" stop-color="#D5D5D5"/>
</linearGradient>
<linearGradient id="paint6_linear_3331_1850" x1="111.027" y1="107.491" x2="61.8266" y2="79.081" gradientUnits="userSpaceOnUse">
<stop offset="0.11" stop-color="#D5D5D5"/>
<stop offset="0.27" stop-color="#D1D1D1"/>
<stop offset="0.43" stop-color="#C4C4C4"/>
<stop offset="0.6" stop-color="#AEAEAE"/>
<stop offset="0.78" stop-color="#909090"/>
<stop offset="0.95" stop-color="#6A6A6A"/>
<stop offset="1" stop-color="#5E5E5E"/>
</linearGradient>
<linearGradient id="paint7_linear_3331_1850" x1="163.855" y1="79.081" x2="114.655" y2="107.491" gradientUnits="userSpaceOnUse">
<stop stop-color="#5E5E5E"/>
<stop offset="0.05" stop-color="#6A6A6A"/>
<stop offset="0.22" stop-color="#909090"/>
<stop offset="0.4" stop-color="#AEAEAE"/>
<stop offset="0.57" stop-color="#C4C4C4"/>
<stop offset="0.73" stop-color="#D1D1D1"/>
<stop offset="0.89" stop-color="#D5D5D5"/>
</linearGradient>
<clipPath id="clip0_3331_1850">
<rect width="292" height="407" fill="white"/>
</clipPath>
</defs>
</svg>
