<svg width="292" height="407" viewBox="0 0 292 407" fill="none" xmlns="http://www.w3.org/2000/svg">
<g clip-path="url(#clip0_930_3217)">
<path d="M16.2642 390C14.6284 389.998 13.0601 389.348 11.9034 388.191C10.7467 387.034 10.0961 385.466 10.0942 383.83V16.169C10.0964 14.5334 10.7471 12.9653 11.9038 11.8088C13.0605 10.6524 14.6286 10.0019 16.2642 10H269.425C271.061 10.0021 272.629 10.6527 273.785 11.8092C274.941 12.9656 275.592 14.5335 275.594 16.169V383.83C275.592 385.466 274.942 387.034 273.785 388.19C272.629 389.347 271.061 389.998 269.425 390H16.2642Z" fill="url(#paint0_radial_930_3217)"/>
<path d="M265.594 20V380H20.0942V20H265.594ZM269.425 0H16.2642C7.33324 0 0.0942383 7.239 0.0942383 16.169V383.83C0.0942383 392.761 7.33324 400 16.2642 400H269.425C278.355 400 285.594 392.761 285.594 383.83V16.169C285.594 7.239 278.354 0 269.425 0Z" fill="#E1EF74"/>
<path d="M269.425 10C271.061 10.0021 272.629 10.6527 273.785 11.8092C274.941 12.9656 275.592 14.5335 275.594 16.169V383.83C275.592 385.466 274.942 387.034 273.785 388.19C272.629 389.347 271.061 389.998 269.425 390H16.2642C14.6284 389.998 13.0601 389.348 11.9034 388.191C10.7467 387.034 10.0961 385.466 10.0942 383.83V16.169C10.0964 14.5334 10.7471 12.9653 11.9038 11.8088C13.0605 10.6524 14.6286 10.0019 16.2642 10H269.425ZM269.425 0H16.2642C7.33324 0 0.0942383 7.239 0.0942383 16.169V383.83C0.0942383 392.761 7.33324 400 16.2642 400H269.425C278.355 400 285.594 392.761 285.594 383.83V16.169C285.594 7.239 278.354 0 269.425 0Z" fill="#414042"/>
<path d="M75.7525 367.668C74.8933 367.667 74.0696 367.325 73.4615 366.718C72.8535 366.11 72.5115 365.286 72.5105 364.427L72.4795 171.28C72.4805 170.421 72.8225 169.597 73.4295 168.99C74.0365 168.383 74.8605 168.041 75.7205 168.04L208.718 168.038C209.577 168.039 210.401 168.38 211.009 168.988C211.618 169.595 211.96 170.419 211.96 171.278L211.991 364.425C211.99 365.284 211.648 366.108 211.042 366.715C210.435 367.322 209.609 367.665 208.75 367.666L75.7525 367.668Z" fill="url(#paint1_radial_930_3217)"/>
<path d="M206.704 173.29L206.735 362.412L77.7597 362.414L77.7297 173.292L206.705 173.29H206.704ZM208.715 162.783L75.7157 162.785C71.0237 162.785 67.2217 166.588 67.2217 171.279L67.2527 364.426C67.254 366.679 68.1496 368.839 69.7426 370.432C71.3357 372.025 73.4959 372.92 75.7487 372.921L208.749 372.918C213.44 372.918 217.243 369.115 217.242 364.424L217.211 171.277C217.209 169.025 216.313 166.865 214.72 165.272C213.127 163.679 210.967 162.784 208.715 162.783Z" fill="#66C2E2"/>
<path d="M208.716 168.037C209.141 168.037 209.563 168.121 209.956 168.284C210.349 168.447 210.706 168.686 211.007 168.987C211.614 169.595 211.956 170.418 211.958 171.277L211.989 364.424C211.988 365.283 211.646 366.107 211.038 366.715C210.43 367.323 209.607 367.664 208.748 367.665L75.7487 367.667C74.8895 367.666 74.0657 367.324 73.4577 366.717C72.8497 366.109 72.5077 365.285 72.5067 364.426L72.4757 171.279C72.4767 170.42 72.8187 169.596 73.4257 168.989C73.7265 168.688 74.0836 168.449 74.4767 168.286C74.8698 168.123 75.2911 168.039 75.7167 168.039L208.716 168.037ZM208.715 162.783L75.7157 162.785C71.0237 162.785 67.2217 166.588 67.2217 171.279L67.2527 364.426C67.254 366.679 68.1496 368.839 69.7426 370.432C71.3357 372.025 73.4959 372.92 75.7487 372.921L208.749 372.918C213.44 372.918 217.243 369.115 217.242 364.424L217.211 171.277C217.209 169.025 216.313 166.865 214.72 165.272C213.127 163.679 210.967 162.784 208.715 162.783Z" fill="#414042"/>
<path d="M140.717 313.578C138.615 313.584 136.549 313.038 134.725 311.994C130.833 309.751 128.508 305.765 128.507 301.333C128.506 296.901 130.83 292.914 134.721 290.67C136.518 289.634 138.59 289.086 140.712 289.086C142.834 289.086 144.906 289.634 146.704 290.671C150.596 292.914 152.92 296.9 152.921 301.332C152.922 305.764 150.599 309.751 146.708 311.995C144.911 313.031 142.839 313.578 140.717 313.578Z" fill="url(#paint2_linear_930_3217)"/>
<path d="M140.713 290.399C142.566 290.399 144.42 290.869 146.048 291.808C153.459 296.08 153.461 306.584 146.052 310.857C144.423 311.796 142.57 312.266 140.717 312.266C138.864 312.266 137.01 311.796 135.381 310.857C127.969 306.585 127.967 296.081 135.377 291.809C137.002 290.881 138.842 290.395 140.713 290.399ZM140.712 287.773C138.36 287.773 136.061 288.382 134.065 289.533C129.762 292.015 127.193 296.426 127.194 301.334C127.195 306.242 129.766 310.652 134.07 313.133C136.094 314.292 138.386 314.899 140.717 314.893C143.069 314.893 145.368 314.284 147.364 313.133C151.667 310.652 154.235 306.24 154.235 301.333C154.235 296.426 151.663 292.014 147.36 289.533C145.363 288.382 143.065 287.773 140.712 287.773Z" fill="#223948"/>
<path d="M132.188 277.019C131.969 277.018 131.752 276.974 131.55 276.889C131.348 276.804 131.165 276.679 131.011 276.523C130.858 276.366 130.737 276.181 130.656 275.977C130.575 275.773 130.535 275.556 130.539 275.336C130.714 267.344 136.48 259.929 141.819 255.656C148.269 250.496 152.12 244.922 152.119 240.746C152.117 233.724 145.613 232.676 141.735 232.677C135.151 232.677 130.592 236.037 127.797 242.952C127.676 243.255 127.467 243.514 127.197 243.697C126.927 243.879 126.608 243.977 126.282 243.977C125.998 243.977 125.719 243.902 125.473 243.76L110.869 235.344C110.524 235.144 110.263 234.826 110.134 234.449C110.005 234.072 110.018 233.66 110.169 233.291C115.421 220.479 127.46 212.827 142.375 212.827C150.253 212.827 157.314 215.211 163.362 219.913C169.41 224.615 172.483 231.196 172.484 239.457C172.487 250.85 165.106 257.86 159.175 263.491C154.813 267.634 151.046 271.211 150.902 275.446C150.89 275.867 150.714 276.267 150.412 276.56C150.11 276.853 149.705 277.018 149.284 277.018L132.188 277.019Z" fill="url(#paint3_linear_930_3217)"/>
<path d="M142.375 214.141C150.085 214.14 156.77 216.452 162.555 220.95C168.34 225.448 171.17 231.618 171.171 239.457C171.175 258.437 149.969 264.288 149.59 275.401C149.589 275.481 149.556 275.559 149.499 275.615C149.442 275.671 149.365 275.704 149.284 275.705L132.187 275.706C132.097 275.705 132.012 275.669 131.949 275.605C131.886 275.541 131.851 275.456 131.851 275.366C132.014 267.903 137.577 260.733 142.639 256.682C147.781 252.569 153.433 246.4 153.432 240.746C153.431 234.705 149.061 231.363 141.735 231.364C134.648 231.364 129.553 235.102 126.579 242.46C126.555 242.519 126.514 242.571 126.461 242.607C126.408 242.643 126.345 242.663 126.281 242.664C126.228 242.664 126.175 242.65 126.129 242.623L111.524 234.207C111.455 234.166 111.403 234.102 111.377 234.026C111.351 233.95 111.353 233.867 111.383 233.793C116.581 221.11 128.591 214.141 142.375 214.141ZM142.374 211.514C134.999 211.514 128.049 213.403 122.276 216.977C116.28 220.69 111.673 226.16 108.953 232.795C108.683 233.458 108.662 234.197 108.894 234.874C109.126 235.552 109.595 236.123 110.214 236.483L124.817 244.898C125.182 245.108 125.587 245.237 126.006 245.277C126.425 245.317 126.847 245.267 127.244 245.13C127.642 244.993 128.006 244.772 128.31 244.482C128.615 244.193 128.854 243.841 129.011 243.451C131.585 237.082 135.746 233.99 141.735 233.99C145.872 233.99 150.804 235.161 150.805 240.746C150.806 244.527 147.14 249.717 140.998 254.63C135.428 259.089 129.41 266.863 129.225 275.307C129.217 275.7 129.288 276.092 129.433 276.458C129.578 276.824 129.794 277.157 130.069 277.439C130.345 277.721 130.675 277.945 131.038 278.098C131.402 278.251 131.792 278.331 132.187 278.332L149.284 278.331C150.045 278.332 150.777 278.037 151.324 277.508C151.871 276.978 152.191 276.256 152.214 275.495C152.341 271.793 155.927 268.387 160.08 264.444C166.193 258.639 173.8 251.414 173.797 239.457C173.796 230.769 170.555 223.845 164.168 218.876C157.884 213.991 150.551 211.514 142.374 211.514Z" fill="#223948"/>
<path opacity="0.3" d="M71.2417 129.99C71.13 129.98 71.0261 129.928 70.9504 129.845C70.8747 129.762 70.8328 129.654 70.8327 129.542V117.808C70.8328 117.69 70.8791 117.577 70.9617 117.493L102.769 85.0329C110.303 77.4969 114.245 70.8419 114.245 65.2659C114.245 61.1119 112.953 57.6919 110.571 55.3099C108.189 52.9279 104.771 51.6349 100.617 51.6349C96.8727 51.6349 93.6257 52.5409 90.8617 54.3959C88.0977 56.2509 85.8547 59.0289 84.0717 62.7229C84.0448 62.7788 84.0065 62.8286 83.9593 62.869C83.9122 62.9095 83.8571 62.9397 83.7977 62.9579C83.7383 62.9758 83.6758 62.9812 83.6142 62.9738C83.5526 62.9664 83.4932 62.9463 83.4397 62.9149L70.7917 55.4839C70.6946 55.4269 70.6224 55.3357 70.5893 55.2282C70.5561 55.1206 70.5645 55.0045 70.6127 54.9029C76.2617 42.9689 87.1377 36.1309 100.488 36.1309C108.756 36.1309 115.777 38.7189 121.387 43.8099L121.391 43.8139C127.186 48.9479 130.143 55.9739 130.143 64.7439C130.143 73.9789 124.934 84.0829 114.499 94.7789L95.5187 113.763L94.6657 114.616H95.8727H131.386C131.506 114.616 131.62 114.664 131.705 114.748C131.789 114.832 131.837 114.947 131.837 115.066V129.539C131.837 129.598 131.825 129.657 131.802 129.711C131.78 129.766 131.746 129.816 131.705 129.857C131.663 129.899 131.613 129.932 131.558 129.955C131.504 129.977 131.445 129.989 131.386 129.989H71.2827H71.2417V129.99Z" fill="black" stroke="#413C25"/>
<path d="M129.487 112.669H92.8863L112.629 92.9232L112.634 92.9192C122.972 82.3222 128.294 72.2942 128.294 62.8462C128.294 54.1192 125.379 47.0662 119.519 41.8722C113.814 36.6962 106.779 34.1832 98.5893 34.1832C85.7583 34.1832 74.4943 40.6752 68.6693 52.9822L68.4733 53.3952L68.8673 53.6272L81.5153 61.0582L81.9833 61.3332L82.2193 60.8442C84.0153 57.1242 86.2763 54.3662 89.0063 52.5352C91.7363 50.7042 94.9583 49.7842 98.7193 49.7842C102.786 49.7842 106.172 51.0542 108.538 53.3582C110.904 55.6622 112.297 59.0432 112.297 63.3642C112.297 68.7592 108.517 75.4142 100.842 83.0892L100.838 83.0932L69.0273 115.557L68.8843 115.703V115.907V127.641V128.141H69.3843H129.486H129.986V127.641V113.168V112.668H129.486L129.487 112.669ZM67.8563 52.5982C73.6673 40.3182 84.8573 33.2832 98.5893 33.2832C107.1 33.2832 114.336 35.9552 120.111 41.1922L120.115 41.1962C126.131 46.5262 129.195 53.7932 129.195 62.8452C129.195 72.3382 123.894 82.6642 113.264 93.5612L95.9133 110.914L95.0603 111.768H96.2673H129.488C129.859 111.768 130.215 111.916 130.478 112.178C130.741 112.44 130.888 112.797 130.888 113.168V127.641C130.888 128.012 130.74 128.368 130.478 128.631C130.216 128.894 129.859 129.041 129.488 129.041H69.3863C69.0153 129.041 68.6593 128.893 68.3963 128.631C68.2663 128.501 68.1632 128.347 68.0928 128.177C68.0225 128.007 67.9863 127.825 67.9863 127.641V115.907C67.9863 115.541 68.1293 115.189 68.3863 114.928L100.208 82.4542C103.841 78.8202 106.631 75.3612 108.517 72.1632C110.403 68.9652 111.399 66.0022 111.399 63.3652C111.399 59.5042 110.198 56.3222 107.981 54.1042C105.764 51.8862 102.581 50.6852 98.7213 50.6852C95.1773 50.6852 92.1013 51.5472 89.4793 53.3142C86.8573 55.0812 84.7283 57.7232 83.0313 61.2372C82.9472 61.4114 82.8279 61.5664 82.6809 61.6922C82.5339 61.818 82.3624 61.912 82.1773 61.9682C81.9922 62.0245 81.7975 62.0418 81.6055 62.0191C81.4134 61.9964 81.2281 61.9341 81.0613 61.8362L68.4133 54.4052C68.1118 54.228 67.8875 53.9444 67.7846 53.6102C67.6817 53.2759 67.7077 52.9153 67.8573 52.5992L67.8563 52.5982Z" fill="#47412A"/>
<path d="M68.3863 114.928C68.1293 115.189 67.9863 115.541 67.9863 115.907V127.641C67.9863 127.825 68.0225 128.007 68.0928 128.177C68.1632 128.347 68.2663 128.501 68.3963 128.631C68.6593 128.893 69.0153 129.041 69.3863 129.041H129.488C129.859 129.041 130.216 128.894 130.478 128.631C130.74 128.368 130.888 128.012 130.888 127.641V113.168C130.888 112.797 130.741 112.44 130.478 112.178C130.215 111.916 129.859 111.768 129.488 111.768H96.2673H95.0603L95.9133 110.914L113.264 93.5612C123.894 82.6642 129.195 72.3382 129.195 62.8452C129.195 53.7932 126.131 46.5262 120.115 41.1962L120.111 41.1922C114.336 35.9552 107.1 33.2832 98.5893 33.2832C84.8573 33.2832 73.6673 40.3182 67.8563 52.5982L67.8573 52.5992C67.7077 52.9153 67.6817 53.2759 67.7846 53.6102C67.8875 53.9444 68.1118 54.228 68.4133 54.4052L81.0613 61.8362C81.2281 61.9341 81.4134 61.9964 81.6055 62.0191C81.7975 62.0418 81.9922 62.0245 82.1773 61.9682C82.3624 61.912 82.5339 61.818 82.6809 61.6922C82.8279 61.5664 82.9472 61.4114 83.0313 61.2372C84.7283 57.7232 86.8573 55.0812 89.4793 53.3142C92.1013 51.5472 95.1773 50.6852 98.7213 50.6852C102.581 50.6852 105.764 51.8862 107.981 54.1042C110.198 56.3222 111.399 59.5042 111.399 63.3652C111.399 66.0022 110.403 68.9652 108.517 72.1632C106.631 75.3612 103.841 78.8202 100.208 82.4542L68.3863 114.928ZM68.3863 114.928L68.0293 114.578M129.487 112.669H92.8863L112.629 92.9232L112.634 92.9192C122.972 82.3222 128.294 72.2942 128.294 62.8462C128.294 54.1192 125.379 47.0662 119.519 41.8722C113.814 36.6962 106.779 34.1832 98.5893 34.1832C85.7583 34.1832 74.4943 40.6752 68.6693 52.9822L68.4733 53.3952L68.8673 53.6272L81.5153 61.0582L81.9833 61.3332L82.2193 60.8442C84.0153 57.1242 86.2763 54.3662 89.0063 52.5352C91.7363 50.7042 94.9583 49.7842 98.7193 49.7842C102.786 49.7842 106.172 51.0542 108.538 53.3582C110.904 55.6622 112.297 59.0432 112.297 63.3642C112.297 68.7592 108.517 75.4142 100.842 83.0892L100.838 83.0932L69.0273 115.557L68.8843 115.703V115.907V127.641V128.141H69.3843H129.486H129.986V127.641V113.168V112.668H129.486L129.487 112.669Z" stroke="#47412A"/>
<path d="M69.3423 128.09C69.2305 128.08 69.1266 128.029 69.051 127.946C68.9753 127.863 68.9333 127.755 68.9333 127.642V115.908C68.9334 115.791 68.9797 115.678 69.0623 115.593L100.87 83.1334C108.404 75.5974 112.346 68.9424 112.346 63.3664C112.346 59.2124 111.054 55.7924 108.673 53.4104C106.292 51.0284 102.872 49.7354 98.7173 49.7354C94.9733 49.7354 91.7263 50.6414 88.9633 52.4964C86.2003 54.3514 83.9563 57.1294 82.1733 60.8234C82.1463 60.8794 82.1081 60.9292 82.0609 60.9696C82.0137 61.0101 81.9587 61.0403 81.8993 61.0584C81.8399 61.0763 81.7774 61.0818 81.7158 61.0744C81.6542 61.067 81.5948 61.0469 81.5413 61.0154L68.8933 53.5844C68.7962 53.5275 68.724 53.4363 68.6908 53.3287C68.6577 53.2212 68.6661 53.1051 68.7143 53.0034C74.3633 41.0694 85.2393 34.2314 98.5893 34.2314C106.858 34.2314 113.88 36.8194 119.489 41.9104L119.493 41.9144C125.288 47.0484 128.245 54.0744 128.245 62.8444C128.245 72.0794 123.037 82.1834 112.601 92.8794L93.6203 111.863L92.7673 112.716H93.9743H129.489C129.608 112.716 129.722 112.764 129.807 112.848C129.892 112.933 129.939 113.047 129.939 113.166V127.639C129.939 127.699 129.928 127.757 129.905 127.812C129.882 127.866 129.849 127.916 129.807 127.958C129.766 127.999 129.716 128.033 129.661 128.055C129.607 128.078 129.548 128.089 129.489 128.089H69.3833L69.3423 128.09Z" fill="#FBFBF9" stroke="#413C25"/>
<g opacity="0.3">
<path opacity="0.3" d="M201.739 130.372C201.487 130.372 201.245 130.271 201.066 130.093C200.887 129.915 200.788 129.672 200.788 129.42V54.905L183.481 59.813C183.361 59.8472 183.235 59.8573 183.111 59.8429C182.987 59.8285 182.867 59.7897 182.758 59.7289C182.649 59.668 182.553 59.5863 182.476 59.4884C182.398 59.3904 182.341 59.2782 182.307 59.158L178.629 46.288C178.563 46.055 178.588 45.805 178.699 45.59C178.81 45.3745 178.999 45.2095 179.228 45.129L203.392 36.595C203.494 36.5595 203.601 36.5413 203.709 36.541H216.842C216.967 36.541 217.091 36.5656 217.206 36.6134C217.322 36.6613 217.427 36.7315 217.515 36.82C217.693 36.998 217.794 37.241 217.794 37.493V129.421C217.794 129.673 217.693 129.916 217.515 130.094C217.427 130.183 217.322 130.253 217.206 130.301C217.091 130.348 216.967 130.373 216.842 130.373L201.739 130.372Z" fill="black"/>
<path opacity="0.3" d="M216.845 37.4928V129.42H201.742V53.6458L183.225 58.8978L179.547 46.0278L203.711 37.4938L216.845 37.4928ZM216.845 35.5898H203.711C203.495 35.5899 203.281 35.6264 203.078 35.6978L178.913 44.2318C178.455 44.3926 178.076 44.7222 177.854 45.1532C177.632 45.5842 177.583 46.0838 177.717 46.5498L181.395 59.4208C181.534 59.9048 181.859 60.3148 182.3 60.5598C182.74 60.8054 183.259 60.8662 183.744 60.7288L199.839 56.1638V129.42C199.839 129.925 200.039 130.409 200.396 130.766C200.753 131.123 201.237 131.324 201.742 131.324H216.844C217.348 131.324 217.832 131.123 218.189 130.766C218.546 130.409 218.747 129.925 218.747 129.42V37.4928C218.747 36.9878 218.546 36.5048 218.19 36.1478C217.834 35.7908 217.349 35.5898 216.845 35.5898Z" fill="black"/>
</g>
<path d="M199.84 128.47C199.588 128.47 199.346 128.37 199.168 128.191C199.08 128.102 199.01 127.997 198.962 127.882C198.914 127.766 198.889 127.643 198.889 127.518V53.0027L181.582 57.9107C181.462 57.9448 181.337 57.955 181.213 57.9405C181.089 57.9261 180.969 57.8874 180.86 57.8265C180.751 57.7657 180.655 57.684 180.577 57.586C180.5 57.4881 180.442 57.3758 180.408 57.2557L176.73 44.3857C176.664 44.1527 176.689 43.9027 176.8 43.6877C176.912 43.4728 177.101 43.3081 177.329 43.2267L201.493 34.6927C201.595 34.6577 201.703 34.6387 201.81 34.6387H214.943C215.068 34.6384 215.192 34.6628 215.308 34.7105C215.423 34.7582 215.528 34.8282 215.617 34.9166C215.705 35.0049 215.775 35.1098 215.823 35.2254C215.871 35.3409 215.896 35.4647 215.895 35.5897V127.517C215.896 127.642 215.871 127.766 215.824 127.881C215.776 127.997 215.706 128.102 215.617 128.19C215.529 128.279 215.424 128.349 215.308 128.397C215.192 128.444 215.069 128.469 214.943 128.469L199.84 128.47Z" fill="#FBFBF9"/>
<path d="M214.942 35.5895V127.518H199.839V51.7435L181.322 56.9955L177.645 44.1255L201.809 35.5915H214.942V35.5895ZM214.942 33.6865H201.809C201.593 33.6866 201.379 33.7231 201.175 33.7945L177.011 42.3285C176.554 42.4895 176.176 42.8195 175.953 43.2505C175.73 43.6815 175.682 44.1805 175.815 44.6465L179.493 57.5175C179.632 58.0015 179.957 58.4115 180.397 58.6565C180.837 58.9015 181.357 58.9625 181.842 58.8255L197.936 54.2605V127.517C197.936 128.022 198.137 128.506 198.494 128.863C198.67 129.039 198.88 129.179 199.111 129.275C199.342 129.371 199.589 129.42 199.839 129.42H214.941C215.446 129.42 215.93 129.22 216.287 128.863C216.644 128.506 216.844 128.022 216.844 127.517V35.5895C216.844 35.3396 216.795 35.092 216.7 34.861C216.604 34.63 216.464 34.4202 216.288 34.2434C216.111 34.0666 215.901 33.9264 215.67 33.8309C215.439 33.7353 215.192 33.6863 214.942 33.6865Z" fill="#47412A"/>
<path d="M162.316 45.373H146.558V61.131H162.316V45.373ZM162.316 106.541H146.558V122.299H162.316V106.541Z" fill="#FBFBF9" stroke="#47412A" stroke-width="2"/>
</g>
<defs>
<radialGradient id="paint0_radial_930_3217" cx="0" cy="0" r="1" gradientUnits="userSpaceOnUse" gradientTransform="translate(142.845 200) scale(177.165 177.5)">
<stop stop-color="#E5ECAC"/>
<stop offset="0.5" stop-color="#BDD26F"/>
<stop offset="1" stop-color="#98C52F"/>
</radialGradient>
<radialGradient id="paint1_radial_930_3217" cx="0" cy="0" r="1" gradientUnits="userSpaceOnUse" gradientTransform="translate(142.232 267.853) rotate(-90.0092) scale(86.0997 88.8149)">
<stop stop-color="#32B4BA"/>
<stop offset="0.163" stop-color="#30ABBA"/>
<stop offset="0.429" stop-color="#2B93BA"/>
<stop offset="0.762" stop-color="#236BBA"/>
<stop offset="1" stop-color="#1D4BBA"/>
</radialGradient>
<linearGradient id="paint2_linear_930_3217" x1="140.716" y1="313.578" x2="140.716" y2="289.085" gradientUnits="userSpaceOnUse">
<stop stop-color="#70AEFE"/>
<stop offset="0.16" stop-color="#83BCFE"/>
<stop offset="0.527" stop-color="#ABD7FE"/>
<stop offset="0.82" stop-color="#C3E9FE"/>
<stop offset="1" stop-color="#CCEFFE"/>
</linearGradient>
<linearGradient id="paint3_linear_930_3217" x1="141.275" y1="277.018" x2="141.273" y2="212.827" gradientUnits="userSpaceOnUse">
<stop stop-color="#70AEFE"/>
<stop offset="0.16" stop-color="#83BCFE"/>
<stop offset="0.527" stop-color="#ABD7FE"/>
<stop offset="0.82" stop-color="#C3E9FE"/>
<stop offset="1" stop-color="#CCEFFE"/>
</linearGradient>
<clipPath id="clip0_930_3217">
<rect width="291.969" height="406.205" fill="white"/>
</clipPath>
</defs>
</svg>
