<svg width="292" height="407" viewBox="0 0 292 407" fill="none" xmlns="http://www.w3.org/2000/svg">
<g clip-path="url(#clip0_930_3205)">
<path d="M16.2642 390C14.6284 389.998 13.0601 389.348 11.9034 388.191C10.7467 387.034 10.0961 385.466 10.0942 383.83V16.169C10.0964 14.5334 10.7471 12.9653 11.9038 11.8088C13.0605 10.6524 14.6286 10.0019 16.2642 10H269.425C271.061 10.0021 272.629 10.6527 273.785 11.8092C274.941 12.9656 275.592 14.5335 275.594 16.169V383.83C275.592 385.466 274.942 387.034 273.785 388.19C272.629 389.347 271.061 389.998 269.425 390H16.2642Z" fill="url(#paint0_radial_930_3205)"/>
<mask id="mask0_930_3205" style="mask-type:luminance" maskUnits="userSpaceOnUse" x="42" y="100" width="201" height="201">
<path d="M42.9844 100.104H242.984V300.1H42.9844V100.104Z" fill="white"/>
</mask>
<g mask="url(#mask0_930_3205)">
<path d="M139.323 108.012C156.434 108.01 173.644 112.513 178.588 119.705C182.536 125.45 221.531 253.462 222.133 260.291C222.935 269.392 202.669 292.194 141.849 292.194C140.933 292.194 140.01 292.189 139.077 292.178C72.7083 291.435 63.5133 264.18 63.8113 255.838C64.0753 248.409 94.3713 129.758 103.168 119.283C109.811 111.38 124.531 108.012 139.323 108.012ZM139.194 100.885V108.012V100.996H139.323C130.302 100.996 108.187 102.287 97.7133 114.756C96.0223 116.771 90.8823 122.864 73.4163 186.858C66.5313 212.08 56.8913 249.993 56.6893 255.601C56.5953 258.247 57.0123 267.635 66.3393 277.41C79.8373 291.554 104.282 298.92 138.998 299.31L141.851 299.325C194.846 299.325 215.909 282.571 222.507 275.368C227.278 270.154 229.668 264.579 229.233 259.666C228.695 253.577 210.5 194.243 208.428 187.498C187.887 120.65 185.243 116.901 184.396 115.668C176.892 104.757 155.23 100.885 139.194 100.885Z" fill="black"/>
<path d="M139.048 294.852C97.3583 294.385 78.2493 283.433 69.5613 274.327C63.1043 267.56 60.9793 260.293 61.1413 255.744C61.3803 249.05 91.5833 128.924 101.122 117.565C110.394 106.53 130.927 105.339 139.322 105.339C155.039 105.339 174.718 109.361 180.79 118.191C185.622 125.22 224.27 254.119 224.796 260.056C225.118 263.71 223.137 268.077 219.221 272.355C213.022 279.123 193.074 294.867 141.85 294.867C140.916 294.868 139.982 294.863 139.048 294.852Z" fill="#CCC6C6"/>
<path d="M139.322 108.012C156.434 108.01 173.643 112.512 178.588 119.705C182.536 125.449 221.53 253.461 222.132 260.29C222.934 269.391 202.669 292.194 141.849 292.194C140.933 292.194 140.01 292.188 139.076 292.178C72.7083 291.435 63.5133 264.18 63.8103 255.838C64.0743 248.408 94.3703 129.757 103.168 119.283C109.81 111.379 124.531 108.012 139.322 108.012ZM139.194 102.667V108.012V102.777H139.258C130.487 102.777 109.039 104.005 99.0433 115.903C94.6783 121.102 86.6393 145.114 75.1163 187.324C67.3743 215.685 58.6353 250.719 58.4613 255.663C58.3743 258.133 58.7763 266.908 67.6223 276.178C76.6663 285.655 96.3933 297.051 139.015 297.526L141.848 297.541C194.136 297.541 214.752 281.19 221.189 274.161C225.618 269.324 227.845 264.23 227.457 259.82C226.926 253.812 207.548 190.702 206.723 188.019C197.389 157.643 185.628 120.607 182.927 116.676C176.27 106.998 157.01 102.667 139.193 102.667H139.194Z" fill="#4F4F4F"/>
<path opacity="0.6" d="M103.717 118.552C101.462 121.59 102.896 134.573 133.192 136.581C163.996 138.619 165.715 133.329 166.606 133.933L201.613 281.443C201.613 281.443 219.868 273.446 222.096 262.011C222.607 259.376 219.719 251.49 214.669 233.501C209.415 214.778 200.015 186.196 192.697 161.644C183.49 130.767 178.44 119.68 178.44 119.68C178.44 119.68 171.133 108.724 142.065 108.104C115.309 107.53 105.973 115.509 103.717 118.552Z" fill="#5A5959"/>
</g>
<path d="M265.594 20V380H20.0942V20H265.594ZM269.425 0H16.2642C7.33324 0 0.0942383 7.239 0.0942383 16.169V383.83C0.0942383 392.761 7.33324 400 16.2642 400H269.425C278.355 400 285.594 392.761 285.594 383.83V16.169C285.594 7.239 278.354 0 269.425 0Z" fill="#E1EF74"/>
<path d="M269.425 10C271.061 10.0021 272.629 10.6527 273.785 11.8092C274.941 12.9656 275.592 14.5335 275.594 16.169V383.83C275.592 385.466 274.942 387.034 273.785 388.19C272.629 389.347 271.061 389.998 269.425 390H16.2642C14.6284 389.998 13.0601 389.348 11.9034 388.191C10.7467 387.034 10.0961 385.466 10.0942 383.83V16.169C10.0964 14.5334 10.7471 12.9653 11.9038 11.8088C13.0605 10.6524 14.6286 10.0019 16.2642 10H269.425ZM269.425 0H16.2642C7.33324 0 0.0942383 7.239 0.0942383 16.169V383.83C0.0942383 392.761 7.33324 400 16.2642 400H269.425C278.355 400 285.594 392.761 285.594 383.83V16.169C285.594 7.239 278.354 0 269.425 0Z" fill="#414042"/>
</g>
<defs>
<radialGradient id="paint0_radial_930_3205" cx="0" cy="0" r="1" gradientUnits="userSpaceOnUse" gradientTransform="translate(142.845 200) scale(177.165 177.5)">
<stop stop-color="#E5ECAC"/>
<stop offset="0.5" stop-color="#BDD26F"/>
<stop offset="1" stop-color="#98C52F"/>
</radialGradient>
<clipPath id="clip0_930_3205">
<rect width="291.969" height="406.205" fill="white"/>
</clipPath>
</defs>
</svg>
