<svg width="129" height="129" viewBox="0 0 129 129" fill="none" xmlns="http://www.w3.org/2000/svg">
<mask id="mask0_1071_25910" style="mask-type:alpha" maskUnits="userSpaceOnUse" x="38" y="0" width="65" height="81">
<path d="M44.0793 32.7644L39.8898 29.9596L38.6743 0.632812L87.9652 4.2227L102.876 80.2986H62.0076L52.1429 73.0382L45.6898 35.1852C45.4641 33.9325 44.5227 33.0506 44.0793 32.7644Z" fill="#C4C4C4"/>
</mask>
<g mask="url(#mask0_1071_25910)">
<path d="M79.098 36.7013L81.5067 35.9625C81.3509 35.4551 81.0388 35.0097 80.6149 34.6901C80.1911 34.3705 79.6771 34.193 79.1463 34.1828C78.6156 34.1727 78.0951 34.3304 77.6593 34.6335C77.2235 34.9367 76.8946 35.3697 76.7195 35.8708L79.098 36.7013ZM71.9061 57.2963L69.5276 56.4658L69.4984 56.5565L71.9071 57.2973L71.9061 57.2963ZM50.3023 57.269L52.7372 56.62L52.714 56.5384L50.3023 57.269ZM44.0689 36.6741L46.4806 35.9444C46.3099 35.3812 45.9475 34.8954 45.4561 34.5715C44.9647 34.2476 44.3755 34.1059 43.7905 34.171C43.2056 34.2361 42.6619 34.504 42.2538 34.928C41.8458 35.3521 41.599 35.9057 41.5564 36.4927L44.0689 36.6741ZM59.9059 12.4691L58.499 10.3788L58.4909 10.3839L59.9059 12.4691ZM44.8409 22.6945L43.4259 20.6103L43.3765 20.6436L43.3292 20.6788L44.8409 22.6945ZM44.7794 22.7398L43.2677 20.7242L43.1729 20.7957L43.0853 20.8754L44.7794 22.7398ZM44.724 22.7912L46.3123 24.7464L46.3667 24.7021L46.4181 24.6547L44.723 22.7902L44.724 22.7912ZM44.0125 23.9764L41.5403 23.4917L41.4929 23.7315V23.9754H44.0125V23.9764ZM44.0125 24.0067L46.4524 24.6356L46.532 24.3262V24.0067H44.0125ZM40.7733 36.5733L38.3333 35.9444L38.3122 36.027L38.2961 36.1107L40.7723 36.5743L40.7733 36.5733ZM42.7718 38.9628V36.4433H42.7628H42.7537L42.7718 38.9628ZM43.9308 38.597L45.3781 40.66L46.3577 39.9727L46.4433 38.7784L43.9308 38.597ZM63.6792 12.468L62.2723 14.5583L62.2814 14.5643L63.6792 12.468ZM78.7059 22.4859L80.2177 20.4702L80.1623 20.4279L80.1038 20.3896L78.7059 22.4859ZM78.7674 22.5312L80.4626 20.6667L80.3749 20.5871L80.2802 20.5156L78.7674 22.5312ZM78.8239 22.5816L77.1287 24.4461L77.1811 24.4935L77.2355 24.5378L78.8239 22.5816ZM79.5354 23.7668H82.055V23.5219L82.0076 23.282L79.5354 23.7668ZM79.5354 23.797H77.0158V24.1165L77.0954 24.4259L79.5354 23.797ZM82.7745 36.3637L85.2508 35.9001L85.2347 35.8164L85.2135 35.7348L82.7735 36.3637H82.7745ZM80.776 38.7532L80.7932 36.2336H80.7841H80.775L80.776 38.7532ZM79.617 38.3874L77.2083 39.1261L77.4623 39.9535L78.1708 40.4504L79.617 38.3874ZM74.2856 58.1247L81.4775 37.5297L76.7205 35.8688L69.5287 56.4638L74.2856 58.1247ZM71.1775 60.352C72.6187 60.352 73.8915 59.4117 74.3148 58.034L69.4984 56.5535C69.7252 55.8158 70.4065 55.3128 71.1775 55.3128V60.352ZM51.04 60.352H71.1775V55.3128H51.039L51.04 60.352ZM47.8684 57.9151C48.2514 59.3522 49.5525 60.352 51.04 60.352L51.039 55.3128C51.8352 55.3128 52.5326 55.848 52.7372 56.617L47.8684 57.9141V57.9151ZM41.6582 37.4007L47.8916 57.9957L52.7151 56.5364L46.4816 35.9414L41.6582 37.4007ZM60.8654 9.67435C60.0252 9.67348 59.2031 9.91798 58.5 10.3778L61.3139 14.5583C61.1828 14.647 61.0841 14.6792 61.0417 14.6903C60.9843 14.7059 60.9249 14.7134 60.8654 14.7125V9.67435ZM58.4909 10.3839L43.4259 20.6093L46.2559 24.7787L61.3219 14.5532L58.4909 10.3839ZM43.3292 20.6788L43.2677 20.7242L46.2912 24.7555L46.3526 24.7101L43.3292 20.6788ZM43.0853 20.8764L43.0288 20.9268L46.4181 24.6557L46.4746 24.6053L43.0853 20.8764ZM43.1356 20.836C42.3092 21.5073 41.7448 22.4476 41.5403 23.4917L46.4847 24.4602C46.4625 24.5731 46.402 24.6739 46.3123 24.7464L43.1356 20.836ZM41.4929 23.9764V24.0067H46.532V23.9764H41.4929ZM41.5725 23.3778L38.3333 35.9444L43.2122 37.2022L46.4524 24.6356L41.5725 23.3778ZM38.2961 36.1107C38.173 36.7686 38.1971 37.4446 38.3666 38.0921L43.2415 36.8172C43.2606 36.8887 43.2626 36.9633 43.2495 37.0359L38.2961 36.1107ZM38.3666 38.0921C38.5359 38.7401 38.8463 39.3418 39.2757 39.8558L43.1417 36.6237C43.1891 36.6801 43.2233 36.7466 43.2425 36.8182L38.3676 38.0931L38.3666 38.0921ZM39.2757 39.8558C39.705 40.3688 40.2432 40.781 40.8499 41.0632L42.9673 36.4906C43.0339 36.5219 43.0943 36.5672 43.1417 36.6237L39.2757 39.8558ZM40.8499 41.0632C41.4576 41.3443 42.1198 41.4875 42.789 41.4834L42.7537 36.4433C42.8273 36.4423 42.9008 36.4594 42.9673 36.4906L40.8499 41.0632ZM42.7708 41.4834C43.698 41.4834 44.6111 41.1982 45.3781 40.66L42.4836 36.535C42.5692 36.4755 42.668 36.4443 42.7708 36.4443V41.4834ZM62.7782 14.7145C62.5977 14.7138 62.4213 14.6598 62.2713 14.5593L65.0851 10.3788C64.4089 9.92328 63.6097 9.67536 62.7782 9.67536V14.7145ZM62.2804 14.5663L77.3071 24.5842L80.1018 20.3916L65.0751 10.3738L62.2804 14.5663ZM77.1932 24.5035L77.2537 24.5489L80.2771 20.5176L80.2157 20.4722L77.1932 24.5035ZM77.0712 24.3977L77.1267 24.4481L80.516 20.7191L80.4606 20.6687L77.0712 24.3977ZM77.2335 24.5398C77.1448 24.4673 77.0833 24.3665 77.0612 24.2536L82.0066 23.2851C81.802 22.24 81.2366 21.3007 80.4102 20.6284L77.2335 24.5398ZM77.0148 23.7688V23.7991H82.0539V23.7688H77.0148ZM77.0944 24.4279L80.3336 36.9946L85.2135 35.7368L81.9743 23.1702L77.0944 24.4279ZM80.2973 36.8293C80.2839 36.7567 80.2867 36.682 80.3054 36.6106L85.1802 37.8855C85.3495 37.2385 85.3737 36.5612 85.2508 35.9031L80.2973 36.8293ZM80.3054 36.6106C80.3245 36.539 80.3578 36.4725 80.4061 36.4161L84.2722 39.6482C84.7017 39.1346 85.0121 38.5323 85.1812 37.8845L80.3064 36.6096L80.3054 36.6106ZM80.4061 36.4161C80.4535 36.3596 80.513 36.3143 80.5795 36.283L82.6969 40.8555C83.3047 40.5744 83.8428 40.1622 84.2722 39.6482L80.4061 36.4161ZM80.5795 36.283C80.646 36.2518 80.7196 36.2357 80.7932 36.2367L80.7579 41.2758C81.4271 41.2809 82.0892 41.1367 82.6969 40.8555L80.5795 36.283ZM80.776 36.2367C80.8788 36.2367 80.9786 36.2679 81.0633 36.3274L78.1698 40.4524C78.9367 40.9906 79.8488 41.2758 80.776 41.2758V36.2367ZM62.7833 9.67435H62.7782V14.7135H62.7833V9.67435ZM60.8644 14.7135H62.7833V9.67435H60.8644V14.7135ZM46.4433 38.7784L46.5824 36.8545L41.5564 36.4927L41.4173 38.4156L46.4433 38.7784ZM82.0247 37.6507L81.5067 35.9625L76.6893 37.44L77.2073 39.1281L82.0247 37.6507Z" fill="black"/>
<path d="M51.0357 57.0734H71.1731L78.3649 36.4785L61.5836 26.8164L44.8022 36.4785L51.0357 57.0734Z" fill="url(#paint0_radial_1071_25910)"/>
<path d="M76.0127 45.3696L81.0519 73.5888M46.7857 45.3696L41.7466 73.5888" stroke="black" stroke-width="5.03914"/>
<path d="M46.7857 45.3696H76.0127L81.0519 73.5888H41.7466L46.7857 45.3696Z" fill="url(#paint1_linear_1071_25910)"/>
<path fill-rule="evenodd" clip-rule="evenodd" d="M61.2047 26.1523C61.4405 26.0163 61.7298 26.0163 61.9656 26.1523L78.7469 35.8144C79.0553 35.9918 79.2005 36.3596 79.0956 36.6993L76.0097 45.3666L78.5292 59.4762C78.4305 59.7967 78.1352 60.0144 77.7996 60.0144L44.767 60.484C44.4213 60.484 44.119 60.2512 44.0303 59.9176L46.7827 45.3666L44.0666 36.671C43.9779 36.3374 44.124 35.9857 44.4233 35.8134L61.2047 26.1513V26.1523ZM45.6912 36.8444L48.2944 45.3666L45.7748 58.4684L76.5136 57.9644L74.4979 45.3666L77.4579 36.8323L61.5846 27.6933L45.6912 36.8444Z" fill="#557D00"/>
<path d="M64.2031 58.0586H59.3514L58.5381 52.3332C58.5378 51.7948 58.6863 51.2668 58.9671 50.8074C59.2479 50.3481 59.6502 49.9752 60.1294 49.7299C61.101 49.2311 62.2499 49.221 63.2315 49.6947L63.3434 49.7451C63.8383 49.9849 64.2555 50.3588 64.5478 50.8244C64.84 51.2901 64.9952 51.8292 64.9962 52.3795L64.2081 58.0596L64.2031 58.0586ZM63.6437 40.5506H59.9007L59.2748 36.2079C59.2759 35.7964 59.391 35.3932 59.6073 35.043C59.8236 34.6929 60.1328 34.4096 60.5003 34.2245C60.872 34.0379 61.2814 33.9386 61.6972 33.9342C62.1131 33.9299 62.5245 34.0205 62.9 34.1993L62.9816 34.2396C63.3615 34.419 63.682 34.7032 63.9068 35.057C64.1315 35.4107 64.2515 35.8229 64.2525 36.2432L63.6437 40.5506Z" fill="black"/>
<path d="M42.7707 38.1988C42.5843 38.1984 42.4002 38.1569 42.2316 38.0773C42.063 37.9977 41.914 37.882 41.7951 37.7383C41.6762 37.5941 41.5906 37.4268 41.5432 37.2464C41.4963 37.066 41.4898 36.8774 41.524 36.6942L44.7582 24.438C44.8085 24.1326 44.9718 23.8685 45.2006 23.6801L45.2258 23.6549L60.4883 13.4839L60.7574 13.4688C61.215 13.4688 61.5919 13.8396 61.5919 14.2972V26.5685C61.5929 26.7568 61.5514 26.9429 61.4705 27.1128C61.3895 27.2828 61.2711 27.4323 61.1243 27.5501L61.084 27.5854L43.5145 37.959C43.2958 38.1222 43.0418 38.2029 42.7717 38.2029V38.1978L42.7707 38.1988Z" fill="url(#paint2_radial_1071_25910)"/>
<path d="M60.767 13.9277C60.8022 13.9277 60.8335 13.9529 60.8335 13.9993V26.5659C60.8335 26.6405 60.8173 26.714 60.7861 26.7826C60.7549 26.8511 60.7085 26.9106 60.651 26.9579L43.0907 37.3255C43.0017 37.3983 42.8902 37.4379 42.7752 37.4373C42.7006 37.4373 42.627 37.4202 42.5605 37.3889C42.494 37.3577 42.4335 37.3113 42.3862 37.2539C42.3388 37.1965 42.3045 37.1299 42.2854 37.0574C42.2662 36.9848 42.2642 36.9102 42.2773 36.8367L45.5115 24.26C45.5336 24.1441 45.5971 24.0393 45.6898 23.9647L60.7266 13.9368C60.7387 13.9297 60.7528 13.9257 60.767 13.9267V13.9277ZM60.767 12.4019C60.4462 12.4014 60.1327 12.4973 59.867 12.677L44.8402 22.6948L44.7788 22.7402L44.7233 22.7906C44.3545 23.0899 44.1025 23.5091 44.0118 23.9758V24.006L40.7726 36.5726C40.7182 36.8649 40.7283 37.1662 40.8039 37.4545C40.8795 37.7427 41.0175 38.0108 41.208 38.2385C41.3985 38.4663 41.6384 38.6507 41.9085 38.7757C42.1787 38.9008 42.4734 38.9645 42.7712 38.9622C43.1834 38.9622 43.5895 38.8352 43.9302 38.5963L61.423 28.2731L61.5198 28.2117L61.6065 28.1401C61.8413 27.9496 62.0298 27.7098 62.1588 27.4366C62.2878 27.1635 62.3543 26.8652 62.3533 26.5639V13.9993C62.3533 13.1194 61.6417 12.4029 60.7619 12.4029H60.767V12.4019Z" fill="#557D00"/>
<path d="M80.7558 38.1988C80.9422 38.1984 81.1263 38.1569 81.2949 38.0773C81.4635 37.9977 81.6125 37.882 81.7313 37.7383C81.8504 37.5946 81.9363 37.4265 81.983 37.2458C82.0296 37.0652 82.036 36.8765 82.0014 36.6931L78.7673 24.4369C78.7169 24.1316 78.5536 23.8675 78.3249 23.6791L78.2997 23.6539L63.0391 13.4839L62.7701 13.4688C62.3125 13.4688 61.9356 13.8396 61.9356 14.2972V26.5685C61.9345 26.7568 61.9761 26.9429 62.057 27.1128C62.138 27.2828 62.2563 27.4323 62.4032 27.5501L62.4435 27.5854L80.013 37.959C80.2317 38.1222 80.4857 38.2029 80.7558 38.2029V38.1978V38.1988Z" fill="url(#paint3_radial_1071_25910)"/>
<path d="M62.7753 13.9258C62.7401 13.9258 62.7088 13.951 62.7088 13.9973V26.5639C62.7088 26.6385 62.7249 26.7121 62.7562 26.7806C62.7874 26.8491 62.8338 26.9086 62.8912 26.956L80.4506 37.3245C80.5395 37.3974 80.6511 37.4369 80.7661 37.4364C80.8407 37.4364 80.9142 37.4192 80.9807 37.388C81.0473 37.3568 81.1077 37.3104 81.1551 37.253C81.2025 37.1955 81.2367 37.129 81.2559 37.0564C81.275 36.9839 81.278 36.9093 81.2639 36.8357L78.0298 24.259C78.0076 24.1431 77.9442 24.0383 77.8514 23.9637L62.8146 13.9358C62.8025 13.9288 62.7884 13.9247 62.7743 13.9258H62.7753ZM62.7753 12.3999C63.0961 12.3995 63.4096 12.4953 63.6753 12.675L78.702 22.6929L78.7635 22.7382L78.82 22.7886C79.1888 23.0879 79.4408 23.5072 79.5315 23.9738V24.004L82.7706 36.5707C82.8255 36.8633 82.8148 37.1645 82.7394 37.4525C82.6638 37.7407 82.5257 38.0088 82.3353 38.2366C82.1448 38.4644 81.9049 38.6488 81.6348 38.7738C81.3646 38.8989 81.0699 38.9626 80.7721 38.9602C80.3599 38.9602 79.9538 38.8332 79.6131 38.5944L62.1192 28.2722L62.0225 28.2107L61.9358 28.1392C61.701 27.9487 61.5125 27.7088 61.3825 27.4357C61.2525 27.1626 61.187 26.8643 61.188 26.5629V13.9973C61.188 13.1175 61.8995 12.4009 62.7794 12.4009H62.7743L62.7753 12.3999Z" fill="#557D00"/>
<path d="M60.2856 12.4947C60.2856 12.4947 60.8873 12.1943 61.7893 12.1943C62.6913 12.1943 63.293 12.4947 63.293 12.4947L63.1287 13.2112H60.586L60.2856 12.4947Z" fill="#557D00"/>
<path d="M75.0048 45.3696H47.7935" stroke="#557D00" stroke-width="1.51174"/>
</g>
<path d="M89.1502 88.0523L91.559 87.3135C91.4032 86.806 91.0911 86.3607 90.6672 86.0411C90.2433 85.7215 89.7293 85.544 89.1986 85.5338C88.6678 85.5236 88.1474 85.6814 87.7116 85.9845C87.2758 86.2876 86.9469 86.7207 86.7718 87.2218L89.1502 88.0523ZM77.8061 120.538L75.4277 119.706L75.3984 119.797L77.8071 120.538H77.8061ZM43.7304 120.493L46.1654 119.844L46.1422 119.764L43.7304 120.493ZM33.8991 88.0079L36.3108 87.2783C36.1401 86.715 35.7777 86.2293 35.2863 85.9054C34.7949 85.5814 34.2056 85.4397 33.6207 85.5049C33.0358 85.57 32.4921 85.8378 32.084 86.2619C31.6759 86.686 31.4292 87.2395 31.3866 87.8265L33.9001 88.0079H33.8991ZM58.8801 49.8304L57.4732 47.7401L57.4651 47.7452L58.8801 49.8304ZM35.1165 65.9597L33.7015 63.8755L33.6522 63.9087L33.6048 63.944L35.1165 65.9597ZM35.0198 66.0322L33.508 64.0166L33.4123 64.0881L33.3246 64.1677L35.0198 66.0322ZM34.9321 66.1118L36.5204 68.068L36.5749 68.0237L36.6263 67.9763L34.9321 66.1118ZM33.8084 67.9814L31.3362 67.4966L31.2888 67.7365V67.9814H33.8084ZM33.8084 68.0297L36.2483 68.6586L36.3279 68.3492V68.0297H33.8084ZM28.6987 87.8517L26.2587 87.2228L26.2376 87.3055L26.2224 87.3891L28.6987 87.8517ZM31.8512 91.622V89.1024H31.8421H31.833L31.8512 91.622ZM33.6804 91.0445L35.1276 93.1075L36.1072 92.4202L36.1929 91.2259L33.6804 91.0445ZM64.8293 49.8304L63.4224 51.9206L63.4315 51.9267L64.8293 49.8304ZM88.5314 65.6321L90.0432 63.6165L89.9878 63.5741L89.9293 63.5358L88.5314 65.6321ZM88.6282 65.7047L90.3234 63.8402L90.2357 63.7606L90.1409 63.689L88.6282 65.7047ZM88.7169 65.7853L87.0217 67.6498L87.0741 67.6972L87.1285 67.7415L88.7169 65.7853ZM89.8396 67.6538H92.3592V67.4089L92.3118 67.1691L89.8396 67.6538ZM89.8396 67.7022H87.32V68.0217L87.3996 68.3311L89.8396 67.7022ZM94.9493 87.5242L97.4255 87.0606L97.4094 86.9769L97.3882 86.8943L94.9483 87.5232L94.9493 87.5242ZM91.7968 91.2945L91.8139 88.7749H91.8049H91.7958L91.7968 91.2945ZM89.9676 90.717L87.5589 91.4557L87.8129 92.2821L88.5214 92.779L89.9686 90.716L89.9676 90.717ZM80.1856 121.37L91.5297 88.8847L86.7718 87.2238L75.4277 119.708L80.1856 121.37ZM76.6572 123.909C78.2919 123.909 79.7351 122.841 80.2159 121.279L75.3994 119.799C75.5688 119.247 76.0797 118.87 76.6572 118.87V123.909ZM44.8945 123.909H76.6572V118.87H44.8935L44.8945 123.909ZM41.2975 121.144C41.7319 122.774 43.2074 123.909 44.8945 123.909L44.8935 118.87C45.4901 118.87 46.0132 119.27 46.1664 119.846L41.2975 121.144ZM31.4894 88.7406L41.3207 121.225L46.1442 119.766L36.3128 87.2803L31.4894 88.7406ZM60.3919 46.8774C59.4626 46.8774 58.3722 47.1354 57.4732 47.7401L60.287 51.9206C60.2558 51.9418 60.2387 51.9488 60.2417 51.9468C60.2447 51.9448 60.2568 51.9408 60.278 51.9347C60.3005 51.9285 60.3234 51.9238 60.3465 51.9206C60.3697 51.9176 60.3858 51.9166 60.3909 51.9166L60.3919 46.8774ZM57.4651 47.7452L33.7015 63.8755L36.5315 68.0439L60.2951 51.9146L57.4651 47.7452ZM33.6048 63.944L33.508 64.0166L36.5325 68.0479L36.6293 67.9753L33.6058 63.944H33.6048ZM33.3256 64.1677L33.2379 64.2484L36.6273 67.9773L36.715 67.8967L33.3256 64.1677ZM33.3438 64.1567C32.3047 65.0012 31.5932 66.1834 31.3362 67.4966L36.2826 68.4651C36.3128 68.3089 36.3965 68.1678 36.5204 68.068L33.3438 64.1567ZM31.2888 67.9814V68.0297H36.3279V67.9814H31.2888ZM31.3684 67.4009L26.2587 87.2228L31.1386 88.4806L36.2483 68.6586L31.3684 67.4009ZM26.2224 87.3891C26.0676 88.2159 26.0976 89.0656 26.3101 89.8795L31.185 88.6046C31.1603 88.5097 31.1569 88.4106 31.1749 88.3143L26.2214 87.3881L26.2224 87.3891ZM26.3101 89.8795C26.523 90.6934 26.9133 91.4503 27.453 92.0957L31.319 88.8636C31.2562 88.7884 31.2108 88.7003 31.186 88.6056L26.3111 89.8805L26.3101 89.8795ZM27.453 92.0957C27.9926 92.7409 28.6682 93.2589 29.4314 93.6125L31.5488 89.0399C31.4598 88.9989 31.382 88.9386 31.319 88.8636L27.453 92.0957ZM29.4314 93.6125C30.1948 93.9661 31.027 94.1464 31.8683 94.1406L31.833 89.1024C31.7349 89.1031 31.6379 89.0811 31.5488 89.0399L29.4314 93.6125ZM31.8502 94.1406C33.0152 94.1406 34.1621 93.7818 35.1256 93.1065L32.2321 88.9815C32.1213 89.0591 31.9862 89.1024 31.8512 89.1024L31.8502 94.1406ZM63.4103 51.9166L66.2373 47.7401C65.4021 47.177 64.4176 46.8766 63.4103 46.8774V51.9166ZM63.4315 51.9267L87.1346 67.7284L89.9293 63.5358L66.2272 47.7341L63.4315 51.9267ZM87.0207 67.6478L87.1175 67.7203L90.1409 63.689L90.0432 63.6165L87.0207 67.6478ZM86.934 67.5682L87.0217 67.6498L90.412 63.9198L90.3234 63.8402L86.934 67.5682ZM87.1285 67.7395C87.2525 67.8403 87.3372 67.9804 87.3674 68.1366L92.3128 67.1681C92.0558 65.8538 91.3453 64.6717 90.3062 63.8281L87.1285 67.7395ZM87.32 67.6528V67.7022L92.3592 67.7012V67.6538L87.32 67.6528ZM87.3996 68.3311L92.5093 88.152L97.3892 86.8943L92.2795 67.0723L87.3996 68.3311ZM92.472 87.9868C92.4901 88.0831 92.4867 88.1822 92.462 88.277L97.3368 89.5519C97.5497 88.7382 97.58 87.8874 97.4255 87.0606L92.472 87.9868ZM92.462 88.277C92.4371 88.3718 92.3917 88.4599 92.3289 88.535L96.195 91.7671C96.7347 91.1217 97.125 90.3649 97.3378 89.5509L92.463 88.276L92.462 88.277ZM92.3289 88.535C92.2659 88.6101 92.1871 88.6703 92.0981 88.7114L94.2156 93.2839C94.9788 92.9304 95.6554 92.4124 96.195 91.7671L92.3289 88.535ZM92.0981 88.7114C92.0091 88.7526 91.912 88.7736 91.8139 88.7729L91.7787 93.812C92.62 93.8178 93.4522 93.6375 94.2156 93.2839L92.0981 88.7114ZM91.7968 88.7729C91.6618 88.7729 91.5267 88.7305 91.4148 88.6519L88.5214 92.777C89.4848 93.4532 90.6318 93.811 91.7968 93.811V88.7729ZM63.4184 46.8774H63.4103V51.9166H63.4184V46.8774ZM60.3909 51.9166H63.4184V46.8774H60.3919L60.3909 51.9166ZM36.1939 91.2249L36.4126 88.1903L31.3866 87.8275L31.1679 90.8621L36.1939 91.2249ZM92.3763 89.9762L91.559 87.3135L86.7415 88.791L87.5589 91.4557L92.3763 89.9762Z" fill="black"/>
<path d="M44.8895 120.184H76.6522L87.9963 87.6983L61.5267 72.459L35.0571 87.6983L44.8895 120.184Z" fill="url(#paint4_radial_1071_25910)"/>
<path fill-rule="evenodd" clip-rule="evenodd" d="M60.9271 71.4161C61.299 71.2024 61.7565 71.2024 62.1274 71.4161L88.597 86.6555C89.0838 86.9357 89.3116 87.5152 89.1463 88.0513L77.8021 120.537C77.6469 121.042 77.1803 121.386 76.6522 121.386H44.8895C44.3443 121.386 43.8676 121.019 43.7265 120.492L33.8951 88.008C33.755 87.4819 33.9858 86.9276 34.4575 86.6555L60.9271 71.4161ZM36.458 88.2801L45.8137 118.981H75.7633L86.5642 88.262L61.5267 73.847L36.458 88.2801Z" fill="#557D00"/>
<path d="M64.743 121.741H57.0906L55.8076 112.71C55.8076 111.861 56.0414 111.027 56.4849 110.302C56.9283 109.578 57.5622 108.99 58.3181 108.603C59.85 107.817 61.6631 107.801 63.2111 108.547L63.3875 108.627C64.1684 109.005 64.8272 109.595 65.2883 110.33C65.7488 111.064 65.9937 111.915 65.9947 112.782L64.7511 121.741H64.743ZM63.8602 94.1248H57.9563L56.9696 87.2746C56.9696 85.9594 57.7154 84.748 58.9027 84.1463C59.4892 83.852 60.1352 83.6948 60.7913 83.6877C61.4474 83.6807 62.0965 83.8238 62.6891 84.106L62.8171 84.1705C63.4157 84.4541 63.9218 84.9015 64.2767 85.4608C64.6317 86.0202 64.8209 86.6686 64.8226 87.331L63.8602 94.1248Z" fill="black"/>
<path d="M31.8633 90.4196C31.5692 90.4187 31.2789 90.3532 31.0129 90.2276C30.747 90.102 30.5119 89.9195 30.3243 89.6929C30.1368 89.4663 30.0014 89.2013 29.9277 88.9165C29.854 88.6317 29.8439 88.3343 29.898 88.0451L34.9996 68.714C35.0795 68.2442 35.3274 67.8194 35.6971 67.5187L35.7374 67.4784L59.8083 51.4368L60.2336 51.4126C60.9553 51.4126 61.5489 51.9981 61.5489 52.7198V72.0751C61.5489 72.6768 61.2838 73.2462 60.8111 73.6231L60.7466 73.6796L33.0344 90.0427C32.6964 90.2952 32.2852 90.4304 31.8633 90.4276V90.4196Z" fill="url(#paint5_radial_1071_25910)"/>
<path d="M60.2368 52.1308C60.2932 52.1308 60.3406 52.1711 60.3406 52.2437V72.0657C60.3406 72.1836 60.3154 72.2995 60.265 72.4063C60.2146 72.5131 60.142 72.6079 60.0513 72.6835L32.3562 89.0375C32.2163 89.1525 32.0405 89.2149 31.8594 89.2139C31.7424 89.2139 31.6265 89.1877 31.5197 89.1373C31.4129 89.0869 31.3202 89.0143 31.2446 88.9246C31.169 88.8349 31.1156 88.7291 31.0853 88.6152C31.0551 88.5013 31.0511 88.3834 31.0722 88.2675L36.1739 68.4294C36.2089 68.2458 36.3083 68.0808 36.454 67.9638L60.1723 52.1459C60.1919 52.1346 60.2142 52.129 60.2368 52.1298V52.1308ZM60.2368 49.7241C59.7238 49.7241 59.234 49.8763 58.8168 50.1575L35.1156 65.9592L35.0189 66.0318L34.9312 66.1124C34.3497 66.5851 33.9526 67.2462 33.8085 67.9809V68.0293L28.6988 87.8513C28.6125 88.313 28.6293 88.788 28.7481 89.2425C28.867 89.6969 29.0848 90.1194 29.3861 90.4797C29.6874 90.84 30.0647 91.1293 30.4909 91.3267C30.917 91.5241 31.3816 91.6248 31.8513 91.6216C32.5013 91.6216 33.1423 91.421 33.6805 91.0441L61.2728 74.7616L61.425 74.6648L61.5611 74.552C61.931 74.2521 62.229 73.873 62.433 73.4427C62.6371 73.0125 62.7421 72.5419 62.7402 72.0657V52.2427C62.7402 50.8549 61.6175 49.7241 60.2297 49.7241H60.2368Z" fill="#557D00"/>
<path d="M91.7754 90.4152C92.0695 90.4143 92.3598 90.3488 92.6258 90.2232C92.8917 90.0976 93.1268 89.9151 93.3144 89.6885C93.5019 89.4619 93.6373 89.1969 93.711 88.9121C93.7847 88.6273 93.7948 88.3299 93.7407 88.0407L88.6391 68.7096C88.5592 68.2398 88.3113 67.815 87.9416 67.5143L87.9013 67.474L63.8304 51.4324L63.4051 51.4082C62.6835 51.4082 62.0898 51.9938 62.0898 52.7154V72.0707C62.0898 72.6724 62.3549 73.2418 62.8276 73.6187L62.8921 73.6752L90.6043 90.0383C90.9423 90.2908 91.3535 90.426 91.7754 90.4233V90.4152Z" fill="url(#paint6_radial_1071_25910)"/>
<path d="M63.3975 52.1308C63.341 52.1308 63.2937 52.1711 63.2937 52.2437V72.0657C63.2937 72.1836 63.3189 72.2995 63.3693 72.4063C63.4193 72.5132 63.4923 72.6078 63.5829 72.6835L91.2791 89.0385C91.419 89.1535 91.5948 89.2159 91.7759 89.2149C91.8928 89.2149 92.0087 89.1887 92.1156 89.1383C92.2224 89.0879 92.3151 89.0153 92.3907 88.9256C92.4663 88.8359 92.5197 88.7301 92.5499 88.6162C92.5802 88.5023 92.5842 88.3844 92.563 88.2685L87.4614 68.4304C87.4261 68.2467 87.3264 68.0816 87.1802 67.9648L63.462 52.1469C63.4424 52.1356 63.4201 52.1301 63.3975 52.1308ZM63.3975 49.7241C63.9035 49.7233 64.3982 49.8743 64.8175 50.1575L88.5196 65.9592L88.6164 66.0318L88.7051 66.1124C89.2866 66.5851 89.6837 67.2462 89.8278 67.9809V68.0293L94.9375 87.8513C95.0238 88.313 95.007 88.788 94.8881 89.2425C94.7693 89.6969 94.5514 90.1194 94.2501 90.4797C93.9489 90.84 93.5716 91.1293 93.1454 91.3267C92.7192 91.5241 92.2547 91.6248 91.785 91.6216C91.1349 91.6216 90.494 91.421 89.9558 91.0441L62.3624 74.7596L62.2103 74.6628L62.0742 74.55C61.7043 74.2501 61.4063 73.871 61.2022 73.4407C60.9982 73.0104 60.8932 72.5399 60.895 72.0636V52.2427C60.895 50.8549 62.0178 49.7241 63.4055 49.7241H63.3975Z" fill="#557D00"/>
<path d="M59.481 49.8717C59.481 49.8717 60.4293 49.397 61.8524 49.397C63.2754 49.397 64.2248 49.8717 64.2248 49.8717L63.9658 51.0014H59.9556L59.481 49.8717Z" fill="#557D00"/>
<defs>
<radialGradient id="paint0_radial_1071_25910" cx="0" cy="0" r="1" gradientUnits="userSpaceOnUse" gradientTransform="translate(61.7289 28.2819) rotate(90) scale(17.0068 17.0068)">
<stop stop-color="#DFE89B"/>
<stop offset="0.5" stop-color="#B6CD60"/>
<stop offset="1" stop-color="#8CB52B"/>
</radialGradient>
<linearGradient id="paint1_linear_1071_25910" x1="61.3992" y1="46.4566" x2="61.3992" y2="63.2116" gradientUnits="userSpaceOnUse">
<stop stop-color="#87AF2A"/>
<stop offset="0.34" stop-color="#A3C241"/>
<stop offset="0.67" stop-color="#BDD456"/>
<stop offset="1" stop-color="#CDDB60"/>
</linearGradient>
<radialGradient id="paint2_radial_1071_25910" cx="0" cy="0" r="1" gradientUnits="userSpaceOnUse" gradientTransform="translate(61.729 27.6519) rotate(-165.466) scale(17.5691 15.1418)">
<stop stop-color="#DFE89B"/>
<stop offset="0.5" stop-color="#B6CD60"/>
<stop offset="1" stop-color="#8CB52B"/>
</radialGradient>
<radialGradient id="paint3_radial_1071_25910" cx="0" cy="0" r="1" gradientTransform="matrix(16.6919 -3.14941 2.71508 14.3867 62.6739 27.3369)" gradientUnits="userSpaceOnUse">
<stop stop-color="#DFE89B"/>
<stop offset="0.5" stop-color="#B6CD60"/>
<stop offset="1" stop-color="#8CB52B"/>
</radialGradient>
<radialGradient id="paint4_radial_1071_25910" cx="0" cy="0" r="1" gradientUnits="userSpaceOnUse" gradientTransform="translate(61.7559 74.7706) rotate(90) scale(26.825 26.8253)">
<stop stop-color="#DFE89B"/>
<stop offset="0.5" stop-color="#B6CD60"/>
<stop offset="1" stop-color="#8CB52B"/>
</radialGradient>
<radialGradient id="paint5_radial_1071_25910" cx="0" cy="0" r="1" gradientTransform="matrix(-26.8231 -6.95495 5.99337 -23.1199 61.7651 73.7848)" gradientUnits="userSpaceOnUse">
<stop stop-color="#DFE89B"/>
<stop offset="0.5" stop-color="#B6CD60"/>
<stop offset="1" stop-color="#8CB52B"/>
</radialGradient>
<radialGradient id="paint6_radial_1071_25910" cx="0" cy="0" r="1" gradientTransform="matrix(26.3286 -4.96782 4.28257 22.6933 63.2545 73.2836)" gradientUnits="userSpaceOnUse">
<stop stop-color="#DFE89B"/>
<stop offset="0.5" stop-color="#B6CD60"/>
<stop offset="1" stop-color="#8CB52B"/>
</radialGradient>
</defs>
</svg>
