<svg width="129" height="129" viewBox="0 0 129 129" fill="none" xmlns="http://www.w3.org/2000/svg">
<mask id="mask0_985_33683" style="mask-type:alpha" maskUnits="userSpaceOnUse" x="38" y="0" width="65" height="81">
<path d="M44.0786 33.0163L39.8891 30.2116L38.6736 0.884766L87.9645 4.47465L102.875 80.5506H62.0069L52.1423 73.2902L45.6891 35.4372C45.4634 34.1844 44.5221 33.3026 44.0786 33.0163Z" fill="#C4C4C4"/>
</mask>
<g mask="url(#mask0_985_33683)">
<path d="M79.0977 36.9532L81.5064 36.2145C81.3506 35.707 81.0385 35.2617 80.6146 34.9421C80.1908 34.6225 79.6768 34.445 79.146 34.4348C78.6153 34.4246 78.0948 34.5823 77.659 34.8855C77.2232 35.1886 76.8943 35.6216 76.7192 36.1228L79.0977 36.9532ZM71.9058 57.5482L69.5273 56.7178L69.4981 56.8085L71.9068 57.5492L71.9058 57.5482ZM50.302 57.521L52.7369 56.872L52.7137 56.7903L50.302 57.521ZM44.0686 36.926L46.4803 36.1964C46.3096 35.6331 45.9472 35.1474 45.4558 34.8234C44.9644 34.4995 44.3752 34.3578 43.7902 34.4229C43.2053 34.4881 42.6616 34.7559 42.2535 35.18C41.8454 35.6041 41.5987 36.1576 41.5561 36.7446L44.0686 36.926ZM59.9056 12.721L58.4987 10.6308L58.4906 10.6358L59.9056 12.721ZM44.8406 22.9464L43.4256 20.8622L43.3762 20.8955L43.3288 20.9308L44.8406 22.9464ZM44.7791 22.9918L43.2674 20.9761L43.1726 21.0477L43.0849 21.1273L44.7791 22.9918ZM44.7237 23.0432L46.312 24.9984L46.3664 24.954L46.4178 24.9067L44.7227 23.0422L44.7237 23.0432ZM44.0122 24.2284L41.5399 23.7436L41.4926 23.9835V24.2274H44.0122V24.2284ZM44.0122 24.2586L46.4521 24.8875L46.5317 24.5781V24.2586H44.0122ZM40.773 36.8252L38.333 36.1964L38.3119 36.279L38.2957 36.3626L40.772 36.8262L40.773 36.8252ZM42.7715 39.2148V36.6952H42.7624H42.7534L42.7715 39.2148ZM43.9305 38.849L45.3778 40.912L46.3574 40.2246L46.443 39.0304L43.9305 38.849ZM63.6789 12.72L62.272 14.8102L62.2811 14.8163L63.6789 12.72ZM78.7056 22.7378L80.2174 20.7222L80.1619 20.6798L80.1035 20.6415L78.7056 22.7378ZM78.7671 22.7832L80.4623 20.9187L80.3746 20.8391L80.2799 20.7675L78.7671 22.7832ZM78.8235 22.8336L77.1284 24.698L77.1808 24.7454L77.2352 24.7898L78.8235 22.8336ZM79.5351 24.0188H82.0546V23.7739L82.0073 23.534L79.5351 24.0188ZM79.5351 24.049H77.0155V24.3685L77.0951 24.6779L79.5351 24.049ZM82.7742 36.6156L85.2505 36.152L85.2343 36.0684L85.2132 35.9867L82.7732 36.6156H82.7742ZM80.7757 39.0052L80.7928 36.4856H80.7838H80.7747L80.7757 39.0052ZM79.6167 38.6393L77.208 39.3781L77.462 40.2055L78.1705 40.7024L79.6167 38.6393ZM74.2853 58.3766L81.4772 37.7817L76.7202 36.1208L69.5283 56.7157L74.2853 58.3766ZM71.1772 60.6039C72.6184 60.6039 73.8912 59.6636 74.3145 58.2859L69.4981 56.8054C69.7249 56.0677 70.4062 55.5648 71.1772 55.5648V60.6039ZM51.0397 60.6039H71.1772V55.5648H51.0387L51.0397 60.6039ZM47.8681 58.167C48.2511 59.6042 49.5522 60.6039 51.0397 60.6039L51.0387 55.5648C51.8349 55.5648 52.5323 56.1 52.7369 56.8689L47.8681 58.166V58.167ZM41.6579 37.6527L47.8913 58.2476L52.7147 56.7883L46.4813 36.1933L41.6579 37.6527ZM60.8651 9.9263C60.0249 9.92543 59.2028 10.1699 58.4997 10.6298L61.3135 14.8102C61.1825 14.8989 61.0838 14.9312 61.0414 14.9423C60.984 14.9579 60.9246 14.9654 60.8651 14.9644V9.9263ZM58.4906 10.6358L43.4256 20.8612L46.2556 25.0306L61.3216 14.8052L58.4906 10.6358ZM43.3288 20.9308L43.2674 20.9761L46.2908 25.0074L46.3523 24.9621L43.3288 20.9308ZM43.0849 21.1283L43.0285 21.1787L46.4178 24.9077L46.4743 24.8573L43.0849 21.1283ZM43.1353 21.088C42.3089 21.7592 41.7445 22.6995 41.5399 23.7436L46.4844 24.7122C46.4622 24.825 46.4017 24.9258 46.312 24.9984L43.1353 21.088ZM41.4926 24.2284V24.2586H46.5317V24.2284H41.4926ZM41.5722 23.6297L38.333 36.1964L43.2119 37.4541L46.4521 24.8875L41.5722 23.6297ZM38.2957 36.3626C38.1727 37.0206 38.1968 37.6965 38.3663 38.344L43.2412 37.0691C43.2603 37.1407 43.2623 37.2153 43.2492 37.2878L38.2957 36.3626ZM38.3663 38.344C38.5356 38.9921 38.846 39.5937 39.2754 40.1077L43.1414 36.8756C43.1888 36.9321 43.223 36.9986 43.2422 37.0701L38.3673 38.345L38.3663 38.344ZM39.2754 40.1077C39.7047 40.6207 40.2429 41.0329 40.8496 41.3151L42.967 36.7426C43.0335 36.7738 43.094 36.8192 43.1414 36.8756L39.2754 40.1077ZM40.8496 41.3151C41.4573 41.5963 42.1194 41.7394 42.7886 41.7354L42.7534 36.6952C42.8269 36.6942 42.9005 36.7114 42.967 36.7426L40.8496 41.3151ZM42.7705 41.7354C43.6977 41.7354 44.6108 41.4502 45.3778 40.912L42.4833 36.7869C42.5689 36.7275 42.6677 36.6962 42.7705 36.6962V41.7354ZM62.7779 14.9665C62.5973 14.9657 62.421 14.9118 62.271 14.8112L65.0848 10.6308C64.4086 10.1752 63.6094 9.92731 62.7779 9.92731V14.9665ZM62.28 14.8183L77.3068 24.8361L80.1015 20.6435L65.0748 10.6257L62.28 14.8183ZM77.1929 24.7555L77.2534 24.8008L80.2768 20.7695L80.2154 20.7242L77.1929 24.7555ZM77.0709 24.6497L77.1264 24.7001L80.5157 20.9711L80.4603 20.9207L77.0709 24.6497ZM77.2332 24.7918C77.1445 24.7192 77.083 24.6184 77.0609 24.5055L82.0063 23.537C81.8017 22.4919 81.2363 21.5526 80.4099 20.8804L77.2332 24.7918ZM77.0145 24.0208V24.051H82.0536V24.0208H77.0145ZM77.0941 24.6799L80.3333 37.2465L85.2132 35.9887L81.974 23.4221L77.0941 24.6799ZM80.297 37.0812C80.2836 37.0086 80.2864 36.934 80.3051 36.8625L85.1799 38.1374C85.3492 37.4904 85.3734 36.8131 85.2505 36.155L80.297 37.0812ZM80.3051 36.8625C80.3242 36.791 80.3575 36.7245 80.4058 36.668L84.2719 39.9001C84.7014 39.3865 85.0118 38.7842 85.1809 38.1364L80.3061 36.8615L80.3051 36.8625ZM80.4058 36.668C80.4532 36.6116 80.5127 36.5662 80.5792 36.535L82.6966 41.1075C83.3044 40.8263 83.8425 40.4141 84.2719 39.9001L80.4058 36.668ZM80.5792 36.535C80.6457 36.5037 80.7193 36.4876 80.7928 36.4886L80.7576 41.5278C81.4268 41.5328 82.0889 41.3887 82.6966 41.1075L80.5792 36.535ZM80.7757 36.4886C80.8785 36.4886 80.9783 36.5199 81.0629 36.5793L78.1695 40.7044C78.9364 41.2425 79.8485 41.5278 80.7757 41.5278V36.4886ZM62.783 9.9263H62.7779V14.9654H62.783V9.9263ZM60.864 14.9654H62.783V9.9263H60.864V14.9654ZM46.443 39.0304L46.5821 37.1064L41.5561 36.7446L41.417 38.6675L46.443 39.0304ZM82.0244 37.9026L81.5064 36.2145L76.689 37.692L77.207 39.3801L82.0244 37.9026Z" fill="black"/>
<path d="M51.0435 57.3254H71.1809L78.3728 36.7304L61.5914 27.0684L44.8101 36.7304L51.0435 57.3254Z" fill="url(#paint0_radial_985_33683)"/>
<path d="M76.012 45.6216L81.0511 73.8408M46.785 45.6216L41.7458 73.8408" stroke="black" stroke-width="5.03914"/>
<path d="M46.785 45.6216H76.012L81.0511 73.8408H41.7458L46.785 45.6216Z" fill="url(#paint1_radial_985_33683)"/>
<path fill-rule="evenodd" clip-rule="evenodd" d="M61.2122 26.4043C61.448 26.2682 61.7372 26.2682 61.9731 26.4043L78.7544 36.0663C79.0628 36.2437 79.2079 36.6116 79.1031 36.9512L76.0171 45.6185L78.5367 59.7281C78.438 60.0486 78.1427 60.2663 77.8071 60.2663L44.7745 60.736C44.4288 60.736 44.1264 60.5032 44.0378 60.1696L46.7901 45.6185L44.074 36.923C43.9853 36.5894 44.1315 36.2377 44.4308 36.0653L61.2122 26.4033V26.4043ZM45.6987 37.0963L48.3019 45.6185L45.7823 58.7203L76.5211 58.2164L74.5054 45.6185L77.4654 37.0842L61.5921 27.9453L45.6987 37.0963Z" fill="#076114"/>
<path d="M64.2026 58.3106H59.3509L58.5376 52.5851C58.5374 52.0467 58.6858 51.5187 58.9666 51.0594C59.2474 50.6 59.6497 50.2271 60.129 49.9819C61.1005 49.483 62.2494 49.4729 63.2311 49.9466L63.3429 49.997C63.8378 50.2369 64.255 50.6108 64.5473 51.0764C64.8396 51.542 64.9948 52.0812 64.9958 52.6315L64.2076 58.3116L64.2026 58.3106ZM63.6433 40.8026H59.9002L59.2743 36.4599C59.2754 36.0483 59.3905 35.6451 59.6068 35.295C59.8232 34.9449 60.1323 34.6616 60.4998 34.4765C60.8715 34.2898 61.2809 34.1906 61.6968 34.1862C62.1126 34.1818 62.524 34.2725 62.8995 34.4513L62.9811 34.4916C63.3611 34.671 63.6816 34.9552 63.9063 35.3089C64.131 35.6627 64.251 36.0749 64.252 36.4951L63.6433 40.8026Z" fill="black"/>
<path d="M42.7784 38.4508C42.5919 38.4504 42.4079 38.4089 42.2392 38.3293C42.0706 38.2497 41.9216 38.1339 41.8028 37.9902C41.6839 37.8461 41.5982 37.6788 41.5508 37.4984C41.504 37.3179 41.4975 37.1294 41.5317 36.9461L44.7658 24.6899C44.8162 24.3845 44.9795 24.1205 45.2083 23.932L45.2334 23.9068L60.496 13.7358L60.7651 13.7207C61.2226 13.7207 61.5996 14.0916 61.5996 14.5491V26.8205C61.6006 27.0087 61.5591 27.1948 61.4781 27.3648C61.3971 27.5348 61.2788 27.6843 61.1319 27.8021L61.0916 27.8374L43.5222 38.2109C43.3035 38.3742 43.0495 38.4548 42.7794 38.4548V38.4498L42.7784 38.4508Z" fill="url(#paint2_radial_985_33683)"/>
<path d="M60.7667 14.1797C60.8019 14.1797 60.8332 14.2049 60.8332 14.2512V26.8178C60.8332 26.8924 60.8171 26.966 60.7858 27.0345C60.7546 27.103 60.7082 27.1625 60.6508 27.2099L43.0904 37.5774C43.0014 37.6503 42.8899 37.6898 42.7749 37.6893C42.7003 37.6893 42.6268 37.6721 42.5603 37.6409C42.4937 37.6097 42.4333 37.5633 42.3859 37.5059C42.3385 37.4484 42.3043 37.3819 42.2851 37.3093C42.266 37.2368 42.264 37.1622 42.2771 37.0886L45.5112 24.5119C45.5333 24.396 45.5968 24.2912 45.6896 24.2166L60.7264 14.1887C60.7385 14.1817 60.7526 14.1776 60.7667 14.1787V14.1797ZM60.7667 12.6538C60.4459 12.6534 60.1324 12.7492 59.8667 12.9289L44.84 22.9468L44.7785 22.9921L44.7231 23.0425C44.3542 23.3418 44.1022 23.7611 44.0115 24.2277V24.2579L40.7724 36.8246C40.7179 37.1168 40.728 37.4182 40.8036 37.7064C40.8792 37.9946 41.0173 38.2627 41.2077 38.4905C41.3982 38.7183 41.6381 38.9027 41.9082 39.0277C42.1784 39.1528 42.4731 39.2165 42.7709 39.2141C43.1831 39.2141 43.5892 39.0871 43.9299 38.8483L61.4228 28.5251L61.5195 28.4636L61.6062 28.3921C61.841 28.2016 62.0295 27.9617 62.1585 27.6886C62.2875 27.4155 62.354 27.1172 62.353 26.8158V14.2512C62.353 13.3714 61.6415 12.6548 60.7616 12.6548H60.7667V12.6538Z" fill="#076114"/>
<path d="M80.7634 38.4508C80.9498 38.4504 81.1339 38.4089 81.3025 38.3293C81.4711 38.2497 81.6201 38.1339 81.7389 37.9902C81.858 37.8466 81.9439 37.6784 81.9906 37.4978C82.0373 37.3172 82.0436 37.1284 82.009 36.9451L78.7749 24.6889C78.7245 24.3835 78.5613 24.1195 78.3325 23.931L78.3073 23.9058L63.0467 13.7358L62.7777 13.7207C62.3201 13.7207 61.9432 14.0916 61.9432 14.5491V26.8205C61.9421 27.0087 61.9837 27.1948 62.0646 27.3648C62.1456 27.5348 62.264 27.6843 62.4108 27.8021L62.4511 27.8374L80.0206 38.2109C80.2393 38.3742 80.4933 38.4548 80.7634 38.4548V38.4498V38.4508Z" fill="url(#paint3_radial_985_33683)"/>
<path d="M62.7746 14.1797C62.7394 14.1797 62.7081 14.2049 62.7081 14.2512V26.8178C62.7081 26.8924 62.7242 26.966 62.7555 27.0345C62.7867 27.103 62.8331 27.1625 62.8905 27.2099L80.4499 37.5784C80.5388 37.6513 80.6504 37.6908 80.7654 37.6903C80.84 37.6903 80.9135 37.6731 80.98 37.6419C81.0466 37.6107 81.107 37.5643 81.1544 37.5069C81.2018 37.4494 81.236 37.3829 81.2552 37.3103C81.2743 37.2378 81.2774 37.1632 81.2632 37.0896L78.0291 24.5129C78.007 24.397 77.9435 24.2922 77.8507 24.2176L62.8139 14.1897C62.8018 14.1827 62.7877 14.1787 62.7736 14.1797H62.7746ZM62.7746 12.6538C63.0954 12.6534 63.4089 12.7492 63.6746 12.9289L78.7013 22.9468L78.7628 22.9921L78.8193 23.0425C79.1881 23.3418 79.4401 23.7611 79.5308 24.2277V24.2579L82.7699 36.8246C82.8248 37.1172 82.8141 37.4184 82.7387 37.7064C82.6631 37.9946 82.525 38.2627 82.3346 38.4905C82.1441 38.7183 81.9042 38.9027 81.6341 39.0277C81.3639 39.1528 81.0692 39.2165 80.7714 39.2141C80.3592 39.2141 79.9531 39.0871 79.6124 38.8483L62.1185 28.5261L62.0218 28.4646L61.9351 28.3931C61.7003 28.2026 61.5118 27.9627 61.3818 27.6896C61.2518 27.4165 61.1863 27.1182 61.1873 26.8168V14.2512C61.1873 13.3714 61.8988 12.6548 62.7787 12.6548H62.7736L62.7746 12.6538Z" fill="#076114"/>
<path d="M60.285 12.7466C60.285 12.7466 60.8867 12.4463 61.7887 12.4463C62.6907 12.4463 63.2924 12.7466 63.2924 12.7466L63.1281 13.4632H60.5854L60.285 12.7466Z" fill="#076114"/>
<path d="M75.0043 45.6216H47.7929" stroke="#076114" stroke-width="1.51174"/>
</g>
<path d="M89.1497 88.3042L91.5584 87.5655C91.4026 87.058 91.0905 86.6127 90.6667 86.2931C90.2428 85.9735 89.7288 85.7959 89.198 85.7858C88.6673 85.7756 88.1469 85.9333 87.7111 86.2365C87.2753 86.5396 86.9463 86.9726 86.7712 87.4738L89.1497 88.3042ZM77.8056 120.79L75.4271 119.958L75.3979 120.049L77.8066 120.79H77.8056ZM43.7299 120.745L46.1648 120.096L46.1416 120.016L43.7299 120.745ZM33.8985 88.2599L36.3103 87.5302C36.1396 86.967 35.7771 86.4812 35.2857 86.1573C34.7944 85.8334 34.2051 85.6917 33.6202 85.7568C33.0353 85.8219 32.4916 86.0898 32.0835 86.5138C31.6754 86.9379 31.4286 87.4915 31.386 88.0785L33.8995 88.2599H33.8985ZM58.8796 50.0823L57.4727 47.9921L57.4646 47.9971L58.8796 50.0823ZM35.116 66.2116L33.701 64.1274L33.6516 64.1607L33.6042 64.196L35.116 66.2116ZM35.0192 66.2842L33.5075 64.2685L33.4118 64.3401L33.3241 64.4197L35.0192 66.2842ZM34.9316 66.3638L36.5199 68.32L36.5743 68.2757L36.6257 68.2283L34.9316 66.3638ZM33.8078 68.2333L31.3356 67.7486L31.2883 67.9884V68.2333H33.8078ZM33.8078 68.2817L36.2478 68.9106L36.3274 68.6012V68.2817H33.8078ZM28.6981 88.1037L26.2582 87.4748L26.237 87.5574L26.2219 87.6411L28.6981 88.1037ZM31.8506 91.874V89.3544H31.8416H31.8325L31.8506 91.874ZM33.6798 91.2965L35.1271 93.3595L36.1067 92.6722L36.1924 91.4779L33.6798 91.2965ZM64.8288 50.0823L63.4219 52.1726L63.4309 52.1786L64.8288 50.0823ZM88.5309 65.8841L90.0426 63.8684L89.9872 63.8261L89.9288 63.7878L88.5309 65.8841ZM88.6277 65.9566L90.3228 64.0922L90.2351 64.0125L90.1404 63.941L88.6277 65.9566ZM88.7163 66.0373L87.0212 67.9017L87.0736 67.9491L87.128 67.9935L88.7163 66.0373ZM89.8391 67.9058H92.3586V67.6609L92.3113 67.421L89.8391 67.9058ZM89.8391 67.9542H87.3195V68.2736L87.3991 68.583L89.8391 67.9542ZM94.9487 87.7761L97.425 87.3125L97.4089 87.2289L97.3877 87.1462L94.9477 87.7751L94.9487 87.7761ZM91.7963 91.5464L91.8134 89.0268H91.8043H91.7952L91.7963 91.5464ZM89.967 90.9689L87.5583 91.7077L87.8123 92.5341L88.5208 93.0309L89.9681 90.9679L89.967 90.9689ZM80.1851 121.622L91.5292 89.1367L86.7712 87.4758L75.4271 119.96L80.1851 121.622ZM76.6567 124.161C78.2914 124.161 79.7346 123.093 80.2153 121.531L75.3989 120.051C75.5682 119.499 76.0792 119.122 76.6567 119.122V124.161ZM44.8939 124.161H76.6567V119.122H44.8929L44.8939 124.161ZM41.297 121.396C41.7314 123.026 43.2068 124.161 44.8939 124.161L44.8929 119.122C45.4896 119.122 46.0126 119.522 46.1658 120.098L41.297 121.396ZM31.4888 88.9926L41.3202 121.477L46.1437 120.018L36.3123 87.5322L31.4888 88.9926ZM60.3913 47.1294C59.4621 47.1294 58.3716 47.3874 57.4727 47.9921L60.2865 52.1726C60.2553 52.1937 60.2381 52.2008 60.2412 52.1988C60.2442 52.1968 60.2563 52.1927 60.2774 52.1867C60.2999 52.1805 60.3228 52.1758 60.346 52.1726C60.3691 52.1695 60.3853 52.1685 60.3903 52.1685L60.3913 47.1294ZM57.4646 47.9971L33.701 64.1274L36.531 68.2958L60.2946 52.1665L57.4646 47.9971ZM33.6042 64.196L33.5075 64.2685L36.532 68.2998L36.6287 68.2273L33.6053 64.196H33.6042ZM33.3251 64.4197L33.2374 64.5003L36.6267 68.2293L36.7144 68.1487L33.3251 64.4197ZM33.3432 64.4086C32.3042 65.2532 31.5926 66.4354 31.3356 67.7486L36.2821 68.7171C36.3123 68.5609 36.3959 68.4198 36.5199 68.32L33.3432 64.4086ZM31.2883 68.2333V68.2817H36.3274V68.2333H31.2883ZM31.3679 67.6528L26.2582 87.4748L31.1381 88.7325L36.2478 68.9106L31.3679 67.6528ZM26.2219 87.6411C26.0671 88.4678 26.097 89.3176 26.3096 90.1314L31.1845 88.8565C31.1598 88.7617 31.1563 88.6626 31.1744 88.5663L26.2209 87.6401L26.2219 87.6411ZM26.3096 90.1314C26.5224 90.9454 26.9127 91.7022 27.4525 92.3476L31.3185 89.1155C31.2557 89.0404 31.2103 88.9523 31.1855 88.8575L26.3106 90.1324L26.3096 90.1314ZM27.4525 92.3476C27.992 92.9929 28.6676 93.5109 29.4308 93.8644L31.5483 89.2919C31.4593 89.2508 31.3815 89.1906 31.3185 89.1155L27.4525 92.3476ZM29.4308 93.8644C30.1943 94.218 31.0264 94.3983 31.8678 94.3925L31.8325 89.3544C31.7344 89.3551 31.6373 89.3331 31.5483 89.2919L29.4308 93.8644ZM31.8496 94.3925C33.0147 94.3925 34.1616 94.0337 35.1251 93.3585L32.2316 89.2334C32.1207 89.311 31.9857 89.3544 31.8506 89.3544L31.8496 94.3925ZM63.4098 52.1685L66.2367 47.9921C65.4016 47.429 64.417 47.1285 63.4098 47.1294V52.1685ZM63.4309 52.1786L87.134 67.9804L89.9288 63.7878L66.2266 47.986L63.4309 52.1786ZM87.0202 67.8997L87.1169 67.9723L90.1404 63.941L90.0426 63.8684L87.0202 67.8997ZM86.9335 67.8201L87.0212 67.9017L90.4115 64.1718L90.3228 64.0922L86.9335 67.8201ZM87.128 67.9914C87.252 68.0922 87.3366 68.2323 87.3669 68.3885L92.3123 67.42C92.0553 66.1058 91.3447 64.9236 90.3057 64.0801L87.128 67.9914ZM87.3195 67.9048V67.9542L92.3586 67.9531V67.9058L87.3195 67.9048ZM87.3991 68.583L92.5088 88.404L97.3887 87.1462L92.279 67.3243L87.3991 68.583ZM92.4715 88.2387C92.4896 88.335 92.4861 88.4341 92.4614 88.529L97.3363 89.8039C97.5492 88.9901 97.5795 88.1394 97.425 87.3125L92.4715 88.2387ZM92.4614 88.529C92.4366 88.6237 92.3912 88.7118 92.3284 88.787L96.1944 92.0191C96.7342 91.3737 97.1244 90.6168 97.3373 89.8029L92.4624 88.528L92.4614 88.529ZM92.3284 88.787C92.2654 88.862 92.1866 88.9223 92.0976 88.9633L94.215 93.5359C94.9783 93.1823 95.6549 92.6643 96.1944 92.0191L92.3284 88.787ZM92.0976 88.9633C92.0086 89.0045 91.9115 89.0255 91.8134 89.0248L91.7781 94.064C92.6194 94.0698 93.4516 93.8895 94.215 93.5359L92.0976 88.9633ZM91.7963 89.0248C91.6612 89.0248 91.5262 88.9825 91.4143 88.9039L88.5208 93.0289C89.4843 93.7052 90.6312 94.063 91.7963 94.063V89.0248ZM63.4178 47.1294H63.4098V52.1685H63.4178V47.1294ZM60.3903 52.1685H63.4178V47.1294H60.3913L60.3903 52.1685ZM36.1934 91.4769L36.4121 88.4423L31.386 88.0795L31.1673 91.114L36.1934 91.4769ZM92.3758 90.2282L91.5584 87.5655L86.741 89.043L87.5583 91.7077L92.3758 90.2282Z" fill="black"/>
<path d="M44.8972 120.436H76.66L88.0041 87.9503L61.5345 72.7109L35.0649 87.9503L44.8972 120.436Z" fill="url(#paint4_radial_985_33683)"/>
<path fill-rule="evenodd" clip-rule="evenodd" d="M60.9345 71.6681C61.3064 71.4544 61.764 71.4544 62.1348 71.6681L88.6044 86.9074C89.0912 87.1876 89.319 87.7671 89.1537 88.3033L77.8096 120.789C77.6544 121.294 77.1878 121.638 76.6597 121.638H44.8969C44.3517 121.638 43.875 121.271 43.7339 120.744L33.9025 88.2599C33.7625 87.7338 33.9932 87.1795 34.4649 86.9074L60.9345 71.6681ZM36.4654 88.5321L45.8211 119.233H75.7708L86.5716 88.5139L61.5342 74.0989L36.4654 88.5321Z" fill="#076114"/>
<path d="M64.7421 121.991H57.0897L55.8067 112.96C55.8067 112.11 56.0405 111.277 56.484 110.552C56.9274 109.827 57.5613 109.24 58.3172 108.853C59.8491 108.067 61.6622 108.051 63.2102 108.796L63.3866 108.877C64.1675 109.255 64.8263 109.844 65.2873 110.579C65.7479 111.314 65.9928 112.165 65.9938 113.031L64.7502 121.991H64.7421ZM63.8592 94.3743H57.9554L56.9687 87.5241C56.9687 86.2089 57.7145 84.9975 58.9017 84.3958C59.4883 84.1015 60.1343 83.9443 60.7904 83.9373C61.4465 83.9302 62.0956 84.0733 62.6882 84.3555L62.8161 84.42C63.4148 84.7036 63.9209 85.151 64.2758 85.7104C64.6308 86.2697 64.82 86.9181 64.8217 87.5806L63.8592 94.3743Z" fill="black"/>
<path d="M31.8627 90.6715C31.5686 90.6707 31.2782 90.6051 31.0123 90.4795C30.7463 90.354 30.5113 90.1714 30.3237 89.9449C30.1362 89.7183 30.0008 89.4532 29.9271 89.1685C29.8534 88.8837 29.8433 88.5862 29.8974 88.2971L34.999 68.9659C35.0789 68.4961 35.3267 68.0714 35.6964 67.7707L35.7368 67.7303L59.8077 51.6887L60.233 51.6646C60.9546 51.6646 61.5483 52.2501 61.5483 52.9717V72.327C61.5483 72.9287 61.2832 73.4981 60.8105 73.8751L60.746 73.9315L33.0338 90.2946C32.6958 90.5472 32.2846 90.6824 31.8627 90.6796V90.6715Z" fill="url(#paint5_radial_985_33683)"/>
<path d="M60.2362 52.3823C60.2927 52.3823 60.34 52.4226 60.34 52.4952V72.3171C60.34 72.435 60.3149 72.5509 60.2645 72.6578C60.2141 72.7646 60.1415 72.8593 60.0508 72.9349L32.3557 89.289C32.2157 89.4039 32.0399 89.4663 31.8588 89.4653C31.7419 89.4653 31.626 89.4391 31.5192 89.3887C31.4123 89.3383 31.3196 89.2658 31.244 89.1761C31.1685 89.0864 31.115 88.9806 31.0848 88.8667C31.0546 88.7528 31.0505 88.6349 31.0717 88.519L36.1733 68.6809C36.2084 68.4973 36.3077 68.3322 36.4535 68.2153L60.1717 52.3974C60.1913 52.3861 60.2137 52.3805 60.2362 52.3813V52.3823ZM60.2362 49.9756C59.7233 49.9756 59.2335 50.1278 58.8162 50.409L35.1151 66.2107L35.0184 66.2833L34.9307 66.3639C34.3492 66.8366 33.9521 67.4977 33.808 68.2324V68.2808L28.6983 88.1027C28.6119 88.5644 28.6288 89.0395 28.7476 89.4939C28.8664 89.9483 29.0843 90.3708 29.3856 90.7312C29.6869 91.0915 30.0641 91.3807 30.4903 91.5781C30.9165 91.7756 31.3811 91.8763 31.8508 91.873C32.5008 91.873 33.1418 91.6725 33.68 91.2955L61.2723 75.0131L61.4245 74.9163L61.5605 74.8034C61.9305 74.5035 62.2284 74.1245 62.4325 73.6942C62.6366 73.2639 62.7415 72.7933 62.7397 72.3171V52.4941C62.7397 51.1064 61.617 49.9756 60.2292 49.9756H60.2362Z" fill="#076114"/>
<path d="M91.783 90.6715C92.0771 90.6707 92.3674 90.6051 92.6334 90.4795C92.8993 90.354 93.1344 90.1714 93.3219 89.9449C93.5095 89.7183 93.6449 89.4532 93.7186 89.1685C93.7922 88.8837 93.8024 88.5862 93.7483 88.2971L88.6466 68.9659C88.5668 68.4961 88.3189 68.0713 87.9492 67.7707L87.9089 67.7303L63.8379 51.6887L63.4126 51.6646C62.691 51.6646 62.0974 52.2501 62.0974 52.9717V72.327C62.0974 72.9287 62.3625 73.4981 62.8351 73.8751L62.8996 73.9315L90.6119 90.2946C90.9498 90.5472 91.3611 90.6824 91.783 90.6796V90.6715Z" fill="url(#paint6_radial_985_33683)"/>
<path d="M63.3972 52.3803C63.3408 52.3803 63.2934 52.4206 63.2934 52.4932V72.3152C63.2934 72.4331 63.3186 72.549 63.369 72.6558C63.419 72.7627 63.492 72.8573 63.5826 72.933L91.2788 89.288C91.4187 89.403 91.5945 89.4654 91.7756 89.4644C91.8925 89.4644 92.0084 89.4382 92.1153 89.3878C92.2221 89.3374 92.3148 89.2648 92.3904 89.1751C92.466 89.0854 92.5194 88.9796 92.5496 88.8657C92.5799 88.7519 92.5839 88.6339 92.5627 88.518L87.4611 68.6799C87.4258 68.4962 87.3261 68.3311 87.1799 68.2143L63.4617 52.3965C63.4421 52.3852 63.4198 52.3796 63.3972 52.3803ZM63.3972 49.9736C63.9032 49.9728 64.3979 50.1238 64.8172 50.407L88.5193 66.2087L88.6161 66.2813L88.7048 66.3619C89.2863 66.8346 89.6834 67.4957 89.8275 68.2304V68.2788L94.9372 88.1008C95.0235 88.5625 95.0067 89.0376 94.8878 89.492C94.769 89.9464 94.5511 90.3689 94.2498 90.7292C93.9486 91.0895 93.5713 91.3788 93.1451 91.5762C92.719 91.7736 92.2544 91.8743 91.7847 91.8711C91.1346 91.8711 90.4937 91.6705 89.9555 91.2936L62.3622 75.0091L62.21 74.9123L62.0739 74.7995C61.704 74.4996 61.406 74.1205 61.2019 73.6902C60.9979 73.26 60.8929 72.7894 60.8948 72.3132V52.4922C60.8948 51.1044 62.0175 49.9736 63.4053 49.9736H63.3972Z" fill="#076114"/>
<path d="M59.4804 50.1212C59.4804 50.1212 60.4288 49.6465 61.8518 49.6465C63.2749 49.6465 64.2242 50.1212 64.2242 50.1212L63.9652 51.2509H59.9551L59.4804 50.1212Z" fill="#076114"/>
<defs>
<radialGradient id="paint0_radial_985_33683" cx="0" cy="0" r="1" gradientUnits="userSpaceOnUse" gradientTransform="translate(62.3582 27.904) rotate(90) scale(17.0068)">
<stop stop-color="#76D56E"/>
<stop offset="0.5" stop-color="#54B55D"/>
<stop offset="1" stop-color="#35974D"/>
</radialGradient>
<radialGradient id="paint1_radial_985_33683" cx="0" cy="0" r="1" gradientUnits="userSpaceOnUse" gradientTransform="translate(62.2965 46.4009) rotate(90) scale(12.1151 15.2126)">
<stop stop-color="#76D56E"/>
<stop offset="0.5" stop-color="#54B55D"/>
<stop offset="1" stop-color="#35974D"/>
</radialGradient>
<radialGradient id="paint2_radial_985_33683" cx="0" cy="0" r="1" gradientTransform="matrix(-16.062 -3.14941 3.14857 -16.0609 61.0984 27.2739)" gradientUnits="userSpaceOnUse">
<stop stop-color="#76D56E"/>
<stop offset="0.5" stop-color="#54B55D"/>
<stop offset="1" stop-color="#35974D"/>
</radialGradient>
<radialGradient id="paint3_radial_985_33683" cx="0" cy="0" r="1" gradientUnits="userSpaceOnUse" gradientTransform="translate(62.3582 27.9038) rotate(-13.5359) scale(17.4927 17.4927)">
<stop stop-color="#76D56E"/>
<stop offset="0.5" stop-color="#54B55D"/>
<stop offset="1" stop-color="#35974D"/>
</radialGradient>
<radialGradient id="paint4_radial_985_33683" cx="0" cy="0" r="1" gradientUnits="userSpaceOnUse" gradientTransform="translate(62.7439 74.029) rotate(90) scale(26.825 26.8253)">
<stop stop-color="#76D56E"/>
<stop offset="0.5" stop-color="#54B55D"/>
<stop offset="1" stop-color="#35974D"/>
</radialGradient>
<radialGradient id="paint5_radial_985_33683" cx="0" cy="0" r="1" gradientTransform="matrix(-25.333 -4.96782 4.96591 -25.3342 60.7578 73.0432)" gradientUnits="userSpaceOnUse">
<stop stop-color="#76D56E"/>
<stop offset="0.5" stop-color="#54B55D"/>
<stop offset="1" stop-color="#35974D"/>
</radialGradient>
<radialGradient id="paint6_radial_985_33683" cx="0" cy="0" r="1" gradientTransform="matrix(26.8254 -6.45817 6.45796 26.8262 62.7521 74.0367)" gradientUnits="userSpaceOnUse">
<stop stop-color="#76D56E"/>
<stop offset="0.5" stop-color="#54B55D"/>
<stop offset="1" stop-color="#35974D"/>
</radialGradient>
</defs>
</svg>
