<svg width="129" height="129" viewBox="0 0 129 129" fill="none" xmlns="http://www.w3.org/2000/svg">
<mask id="mask0_1071_26024" style="mask-type:alpha" maskUnits="userSpaceOnUse" x="38" y="0" width="65" height="81">
<path d="M44.0827 32.7644L39.8932 29.9596L38.6777 0.632812L87.9686 4.2227L102.879 80.2986H62.011L52.1463 73.0382L45.6932 35.1852C45.4675 33.9325 44.5262 33.0506 44.0827 32.7644Z" fill="#C4C4C4"/>
</mask>
<g mask="url(#mask0_1071_26024)">
<path d="M79.0941 36.7013L81.5028 35.9625C81.347 35.4551 81.0349 35.0097 80.611 34.6901C80.1872 34.3705 79.6732 34.193 79.1424 34.1828C78.6117 34.1727 78.0912 34.3304 77.6554 34.6335C77.2196 34.9367 76.8907 35.3697 76.7156 35.8708L79.0941 36.7013ZM71.9022 57.2963L69.5237 56.4658L69.4945 56.5565L71.9032 57.2973L71.9022 57.2963ZM50.2984 57.269L52.7333 56.62L52.7101 56.5384L50.2984 57.269ZM44.065 36.6741L46.4767 35.9444C46.306 35.3812 45.9436 34.8954 45.4522 34.5715C44.9608 34.2476 44.3716 34.1059 43.7866 34.171C43.2017 34.2361 42.658 34.504 42.2499 34.928C41.8419 35.3521 41.5951 35.9057 41.5525 36.4927L44.065 36.6741ZM59.902 12.4691L58.4951 10.3788L58.487 10.3839L59.902 12.4691ZM44.837 22.6945L43.422 20.6103L43.3726 20.6436L43.3252 20.6788L44.837 22.6945ZM44.7755 22.7398L43.2638 20.7242L43.169 20.7957L43.0814 20.8754L44.7755 22.7398ZM44.7201 22.7912L46.3084 24.7464L46.3628 24.7021L46.4142 24.6547L44.7191 22.7902L44.7201 22.7912ZM44.0086 23.9764L41.5363 23.4917L41.489 23.7315V23.9754H44.0086V23.9764ZM44.0086 24.0067L46.4485 24.6356L46.5281 24.3262V24.0067H44.0086ZM40.7694 36.5733L38.3294 35.9444L38.3083 36.027L38.2922 36.1107L40.7684 36.5743L40.7694 36.5733ZM42.7679 38.9628V36.4433H42.7588H42.7498L42.7679 38.9628ZM43.9269 38.597L45.3742 40.66L46.3538 39.9727L46.4394 38.7784L43.9269 38.597ZM63.6753 12.468L62.2684 14.5583L62.2775 14.5643L63.6753 12.468ZM78.702 22.4859L80.2138 20.4702L80.1583 20.4279L80.0999 20.3896L78.702 22.4859ZM78.7635 22.5312L80.4587 20.6667L80.371 20.5871L80.2763 20.5156L78.7635 22.5312ZM78.82 22.5816L77.1248 24.4461L77.1772 24.4935L77.2316 24.5378L78.82 22.5816ZM79.5315 23.7668H82.051V23.5219L82.0037 23.282L79.5315 23.7668ZM79.5315 23.797H77.0119V24.1165L77.0915 24.4259L79.5315 23.797ZM82.7706 36.3637L85.2469 35.9001L85.2307 35.8164L85.2096 35.7348L82.7696 36.3637H82.7706ZM80.7721 38.7532L80.7892 36.2336H80.7802H80.7711L80.7721 38.7532ZM79.6131 38.3874L77.2044 39.1261L77.4584 39.9535L78.1669 40.4504L79.6131 38.3874ZM74.2817 58.1247L81.4736 37.5297L76.7166 35.8688L69.5247 56.4638L74.2817 58.1247ZM71.1736 60.352C72.6148 60.352 73.8876 59.4117 74.3109 58.034L69.4945 56.5535C69.7213 55.8158 70.4026 55.3128 71.1736 55.3128V60.352ZM51.0361 60.352H71.1736V55.3128H51.0351L51.0361 60.352ZM47.8645 57.9151C48.2475 59.3522 49.5486 60.352 51.0361 60.352L51.0351 55.3128C51.8313 55.3128 52.5287 55.848 52.7333 56.617L47.8645 57.9141V57.9151ZM41.6543 37.4007L47.8877 57.9957L52.7112 56.5364L46.4777 35.9414L41.6543 37.4007ZM60.8615 9.67435C60.0213 9.67348 59.1992 9.91798 58.4961 10.3778L61.3099 14.5583C61.1789 14.647 61.0802 14.6792 61.0378 14.6903C60.9804 14.7059 60.921 14.7134 60.8615 14.7125V9.67435ZM58.487 10.3839L43.422 20.6093L46.252 24.7787L61.318 14.5532L58.487 10.3839ZM43.3252 20.6788L43.2638 20.7242L46.2873 24.7555L46.3487 24.7101L43.3252 20.6788ZM43.0814 20.8764L43.0249 20.9268L46.4142 24.6557L46.4707 24.6053L43.0814 20.8764ZM43.1317 20.836C42.3053 21.5073 41.7409 22.4476 41.5363 23.4917L46.4808 24.4602C46.4586 24.5731 46.3981 24.6739 46.3084 24.7464L43.1317 20.836ZM41.489 23.9764V24.0067H46.5281V23.9764H41.489ZM41.5686 23.3778L38.3294 35.9444L43.2083 37.2022L46.4485 24.6356L41.5686 23.3778ZM38.2922 36.1107C38.1691 36.7686 38.1932 37.4446 38.3627 38.0921L43.2376 36.8172C43.2567 36.8887 43.2587 36.9633 43.2456 37.0359L38.2922 36.1107ZM38.3627 38.0921C38.532 38.7401 38.8424 39.3418 39.2718 39.8558L43.1378 36.6237C43.1852 36.6801 43.2194 36.7466 43.2386 36.8182L38.3637 38.0931L38.3627 38.0921ZM39.2718 39.8558C39.7011 40.3688 40.2393 40.781 40.846 41.0632L42.9634 36.4906C43.03 36.5219 43.0904 36.5672 43.1378 36.6237L39.2718 39.8558ZM40.846 41.0632C41.4537 41.3443 42.1159 41.4875 42.7851 41.4834L42.7498 36.4433C42.8233 36.4423 42.8969 36.4594 42.9634 36.4906L40.846 41.0632ZM42.7669 41.4834C43.6941 41.4834 44.6072 41.1982 45.3742 40.66L42.4797 36.535C42.5653 36.4755 42.6641 36.4443 42.7669 36.4443V41.4834ZM62.7743 14.7145C62.5937 14.7138 62.4174 14.6598 62.2674 14.5593L65.0812 10.3788C64.405 9.92328 63.6058 9.67536 62.7743 9.67536V14.7145ZM62.2764 14.5663L77.3032 24.5842L80.0979 20.3916L65.0712 10.3738L62.2764 14.5663ZM77.1893 24.5035L77.2498 24.5489L80.2732 20.5176L80.2118 20.4722L77.1893 24.5035ZM77.0673 24.3977L77.1228 24.4481L80.5121 20.7191L80.4567 20.6687L77.0673 24.3977ZM77.2296 24.5398C77.1409 24.4673 77.0794 24.3665 77.0573 24.2536L82.0027 23.2851C81.7981 22.24 81.2327 21.3007 80.4063 20.6284L77.2296 24.5398ZM77.0109 23.7688V23.7991H82.05V23.7688H77.0109ZM77.0905 24.4279L80.3297 36.9946L85.2096 35.7368L81.9704 23.1702L77.0905 24.4279ZM80.2934 36.8293C80.28 36.7567 80.2828 36.682 80.3015 36.6106L85.1763 37.8855C85.3456 37.2385 85.3698 36.5612 85.2469 35.9031L80.2934 36.8293ZM80.3015 36.6106C80.3206 36.539 80.3539 36.4725 80.4022 36.4161L84.2683 39.6482C84.6978 39.1346 85.0082 38.5323 85.1773 37.8845L80.3025 36.6096L80.3015 36.6106ZM80.4022 36.4161C80.4496 36.3596 80.5091 36.3143 80.5756 36.283L82.693 40.8555C83.3008 40.5744 83.8389 40.1622 84.2683 39.6482L80.4022 36.4161ZM80.5756 36.283C80.6421 36.2518 80.7157 36.2357 80.7892 36.2367L80.754 41.2758C81.4232 41.2809 82.0853 41.1367 82.693 40.8555L80.5756 36.283ZM80.7721 36.2367C80.8749 36.2367 80.9747 36.2679 81.0593 36.3274L78.1659 40.4524C78.9328 40.9906 79.8449 41.2758 80.7721 41.2758V36.2367ZM62.7794 9.67435H62.7743V14.7135H62.7794V9.67435ZM60.8605 14.7135H62.7794V9.67435H60.8605V14.7135ZM46.4394 38.7784L46.5785 36.8545L41.5525 36.4927L41.4134 38.4156L46.4394 38.7784ZM82.0208 37.6507L81.5028 35.9625L76.6854 37.44L77.2034 39.1281L82.0208 37.6507Z" fill="black"/>
<path d="M51.0313 57.0734H71.1687L78.3605 36.4785L61.5792 26.8164L44.7979 36.4785L51.0313 57.0734Z" fill="url(#paint0_radial_1071_26024)"/>
<path d="M76.0083 45.3696L81.0475 73.5888M46.7813 45.3696L41.7422 73.5888" stroke="black" stroke-width="5.03914"/>
<path d="M46.7813 45.3696H76.0083L81.0475 73.5888H41.7422L46.7813 45.3696Z" fill="url(#paint1_radial_1071_26024)"/>
<path d="M61.46 26.5884C61.5399 26.5423 61.6378 26.5423 61.7178 26.5884V26.5894L78.499 36.2515H78.5C78.603 36.311 78.6513 36.4329 78.6191 36.5454L75.5391 45.1978L75.4941 45.3237L75.5176 45.4556L78.0088 59.4067C77.961 59.4699 77.8872 59.5102 77.8037 59.5103H77.7959L44.7695 59.979C44.6823 59.9785 44.6034 59.9352 44.5566 59.8657L47.2812 45.4604L47.3047 45.3364L47.2676 45.2163L44.5566 36.5386C44.5281 36.4261 44.578 36.3085 44.6787 36.2505L60.7051 27.0229V27.0249L61.46 26.5884ZM61.3369 27.2563L45.4434 36.4077L45.0957 36.6079L45.2129 36.9917L47.7793 45.394L45.2842 58.3735L45.167 58.9819L45.7871 58.9722L76.5254 58.4683L77.1064 58.4585L77.0146 57.8853L75.0186 45.4116L77.9375 36.9976L78.0742 36.604L77.7129 36.396L61.8398 27.2563L61.5889 27.1118L61.3369 27.2563Z" fill="#2F525C" stroke="#2F525C" stroke-width="1.00783"/>
<path d="M64.1992 58.0586H59.3475L58.5342 52.3332C58.5339 51.7948 58.6824 51.2668 58.9632 50.8074C59.244 50.3481 59.6463 49.9752 60.1255 49.7299C61.0971 49.2311 62.246 49.221 63.2276 49.6947L63.3395 49.7451C63.8343 49.9849 64.2516 50.3588 64.5439 50.8244C64.8361 51.2901 64.9913 51.8292 64.9923 52.3795L64.2042 58.0596L64.1992 58.0586ZM63.6398 40.5506H59.8968L59.2709 36.2079C59.272 35.7964 59.3871 35.3932 59.6034 35.043C59.8197 34.6929 60.1288 34.4096 60.4964 34.2245C60.8681 34.0379 61.2775 33.9386 61.6933 33.9342C62.1092 33.9299 62.5206 34.0205 62.8961 34.1993L62.9777 34.2396C63.3576 34.419 63.6781 34.7032 63.9029 35.057C64.1276 35.4107 64.2476 35.8229 64.2486 36.2432L63.6398 40.5506Z" fill="black"/>
<path d="M42.7746 38.1988C42.5882 38.1984 42.4041 38.1569 42.2355 38.0773C42.0669 37.9977 41.9179 37.882 41.799 37.7383C41.6801 37.5941 41.5945 37.4268 41.5471 37.2464C41.5002 37.066 41.4937 36.8774 41.5279 36.6942L44.7621 24.438C44.8125 24.1326 44.9757 23.8685 45.2045 23.6801L45.2297 23.6549L60.4923 13.4839L60.7613 13.4688C61.2189 13.4688 61.5958 13.8396 61.5958 14.2972V26.5685C61.5969 26.7568 61.5553 26.9429 61.4744 27.1128C61.3934 27.2828 61.275 27.4323 61.1282 27.5501L61.0879 27.5854L43.5184 37.959C43.2997 38.1222 43.0457 38.2029 42.7756 38.2029V38.1978L42.7746 38.1988Z" fill="url(#paint2_radial_1071_26024)"/>
<path d="M60.7578 12.9048C61.3573 12.9048 61.8457 13.394 61.8457 13.9976V26.564C61.8464 26.7899 61.7962 27.0139 61.6992 27.2192C61.6026 27.4237 61.4614 27.6035 61.2852 27.7466L61.2822 27.7495L61.2168 27.8022L61.1514 27.8433L43.6699 38.1606L43.6533 38.1704L43.6367 38.1821C43.3814 38.3611 43.0765 38.4565 42.7676 38.4565H42.7637C42.5962 38.4579 42.4296 38.4313 42.2715 38.3784L42.1162 38.3169L41.9688 38.2378C41.8262 38.1514 41.698 38.0417 41.5908 37.9136C41.4482 37.7431 41.344 37.5416 41.2871 37.3247C41.2318 37.1139 41.2228 36.8927 41.2607 36.6772L44.4961 24.1294L44.5117 24.0679V24.0327C44.5857 23.6975 44.7699 23.397 45.0371 23.1802L45.0479 23.1714L45.0586 23.1616L45.0938 23.1284L45.127 23.104L60.1426 13.0942L60.1455 13.0923C60.3264 12.97 60.5396 12.9044 60.7578 12.9038V12.9048ZM60.7627 13.4224C60.6458 13.4215 60.5447 13.4552 60.4688 13.4995L60.4434 13.5151L45.4062 23.5435L45.3877 23.5562L45.3701 23.5698C45.2086 23.6997 45.0903 23.8769 45.0332 24.0767L45.0195 24.1323L41.7852 36.7095L41.7803 36.728L41.7773 36.7466C41.7523 36.8875 41.755 37.0364 41.7939 37.1841C41.8318 37.3273 41.8997 37.4594 41.9932 37.5728C42.089 37.689 42.2103 37.781 42.3428 37.8433C42.473 37.9043 42.6184 37.9376 42.7686 37.938V37.939L42.7695 37.938L42.7715 37.939V37.938C42.9855 37.9385 43.1926 37.87 43.3643 37.7437L60.9033 27.3901L60.9375 27.3696L60.9678 27.3452C61.0824 27.2507 61.1763 27.1298 61.2402 26.9897C61.301 26.8565 61.333 26.7117 61.333 26.564V13.9976C61.333 13.9088 61.3108 13.817 61.2666 13.731V13.4556L60.7988 13.4224C60.791 13.4218 60.7831 13.4226 60.7754 13.4224C60.7713 13.4223 60.7668 13.4214 60.7627 13.4214V13.4224Z" fill="#2F525C" stroke="#2F525C" stroke-width="1.00783"/>
<path d="M80.7597 38.1988C80.9461 38.1984 81.1302 38.1569 81.2988 38.0773C81.4674 37.9977 81.6164 37.882 81.7352 37.7383C81.8543 37.5946 81.9402 37.4265 81.9869 37.2458C82.0336 37.0652 82.0399 36.8765 82.0053 36.6931L78.7712 24.4369C78.7208 24.1316 78.5576 23.8675 78.3288 23.6791L78.3036 23.6539L63.043 13.4839L62.774 13.4688C62.3164 13.4688 61.9395 13.8396 61.9395 14.2972V26.5685C61.9384 26.7568 61.98 26.9429 62.0609 27.1128C62.1419 27.2828 62.2603 27.4323 62.4071 27.5501L62.4474 27.5854L80.0169 37.959C80.2356 38.1222 80.4896 38.2029 80.7597 38.2029V38.1978V38.1988Z" fill="url(#paint3_radial_1071_26024)"/>
<path d="M62.7749 12.9038C62.9935 12.9043 63.2071 12.9698 63.3882 13.0923L78.4058 23.104L78.4429 23.1313L78.479 23.1646L78.4888 23.1724L78.4976 23.1802C78.7647 23.397 78.949 23.6975 79.0229 24.0327V24.0679L79.0386 24.1294L82.27 36.6694C82.31 36.8871 82.3026 37.1106 82.2466 37.3247C82.1897 37.5415 82.0864 37.7431 81.9438 37.9136C81.8008 38.0846 81.6206 38.2234 81.4185 38.3169C81.2158 38.4107 80.9943 38.4583 80.771 38.4565H80.7671C80.4581 38.4565 80.1533 38.361 79.8979 38.1821L79.8813 38.1704L79.8647 38.1606L62.3706 27.8384L62.3169 27.8042L62.2515 27.7505L62.2485 27.7476L62.1226 27.6333C62.004 27.5128 61.9058 27.3733 61.8325 27.2192C61.7356 27.0156 61.6863 26.792 61.687 26.5649V13.9976C61.687 13.394 62.1754 12.9048 62.7749 12.9048V12.9038ZM62.7476 13.4233C62.743 13.4236 62.7385 13.423 62.7339 13.4233V13.4243C62.607 13.4325 62.4747 13.4824 62.3696 13.5864C62.2509 13.704 62.1997 13.8562 62.1997 13.9976V26.564C62.1997 26.7117 62.2318 26.8565 62.2925 26.9897C62.3564 27.1299 62.4512 27.2506 62.5659 27.3452L62.5962 27.3696L62.6304 27.3901L80.1675 37.7446C80.3393 37.8713 80.5469 37.9395 80.7612 37.939V37.9399L80.7622 37.939L80.7642 37.9399L80.7632 37.939C80.9137 37.9387 81.0595 37.9055 81.1899 37.8442C81.3223 37.7821 81.4427 37.6899 81.5386 37.5737C81.632 37.4605 81.7 37.3283 81.7378 37.1851C81.7756 37.0417 81.7831 36.8906 81.7544 36.7407L81.7515 36.7251L81.7476 36.7104L78.5132 24.1333H78.5122C78.4622 23.9109 78.3388 23.7126 78.1626 23.5708L78.145 23.5571L78.1265 23.5444L63.0894 13.5161L63.064 13.5005L62.9956 13.4663C62.9311 13.4392 62.8547 13.4227 62.77 13.4233V13.4214C62.7625 13.4214 62.7551 13.423 62.7476 13.4233Z" fill="#2F525C" stroke="#2F525C" stroke-width="1.00783"/>
<path d="M61.7852 12.6982C61.8585 12.6982 61.9295 12.7029 61.998 12.707H61.5723C61.6408 12.7029 61.7119 12.6982 61.7852 12.6982Z" fill="#2F525C" stroke="#2F525C" stroke-width="1.00783"/>
<path d="M75.0004 45.3696H47.7891H75.0004Z" fill="#2F525C"/>
<path d="M75.0004 45.3696H47.7891" stroke="#2F525C" stroke-width="1.51174"/>
</g>
<path d="M89.1454 88.0523L91.5541 87.3135C91.3983 86.806 91.0862 86.3607 90.6623 86.0411C90.2384 85.7215 89.7245 85.544 89.1937 85.5338C88.6629 85.5236 88.1425 85.6814 87.7067 85.9845C87.2709 86.2876 86.942 86.7207 86.7669 87.2218L89.1454 88.0523ZM77.8012 120.538L75.4228 119.706L75.3935 119.797L77.8023 120.538H77.8012ZM43.7256 120.493L46.1605 119.844L46.1373 119.764L43.7256 120.493ZM33.8942 88.0079L36.3059 87.2783C36.1352 86.715 35.7728 86.2293 35.2814 85.9054C34.79 85.5814 34.2008 85.4397 33.6158 85.5049C33.0309 85.57 32.4872 85.8378 32.0791 86.2619C31.6711 86.686 31.4243 87.2395 31.3817 87.8265L33.8952 88.0079H33.8942ZM58.8752 49.8304L57.4683 47.7401L57.4602 47.7452L58.8752 49.8304ZM35.1117 65.9597L33.6967 63.8755L33.6473 63.9087L33.5999 63.944L35.1117 65.9597ZM35.0149 66.0322L33.5032 64.0166L33.4074 64.0881L33.3197 64.1677L35.0149 66.0322ZM34.9272 66.1118L36.5156 68.068L36.57 68.0237L36.6214 67.9763L34.9272 66.1118ZM33.8035 67.9814L31.3313 67.4966L31.2839 67.7365V67.9814H33.8035ZM33.8035 68.0297L36.2434 68.6586L36.3231 68.3492V68.0297H33.8035ZM28.6938 87.8517L26.2539 87.2228L26.2327 87.3055L26.2176 87.3891L28.6938 87.8517ZM31.8463 91.622V89.1024H31.8372H31.8281L31.8463 91.622ZM33.6755 91.0445L35.1227 93.1075L36.1023 92.4202L36.188 91.2259L33.6755 91.0445ZM64.8244 49.8304L63.4175 51.9206L63.4266 51.9267L64.8244 49.8304ZM88.5266 65.6321L90.0383 63.6165L89.9829 63.5741L89.9244 63.5358L88.5266 65.6321ZM88.6233 65.7047L90.3185 63.8402L90.2308 63.7606L90.1361 63.689L88.6233 65.7047ZM88.712 65.7853L87.0168 67.6498L87.0692 67.6972L87.1237 67.7415L88.712 65.7853ZM89.8347 67.6538H92.3543V67.4089L92.3069 67.1691L89.8347 67.6538ZM89.8347 67.7022H87.3151V68.0217L87.3948 68.3311L89.8347 67.7022ZM94.9444 87.5242L97.4206 87.0606L97.4045 86.9769L97.3833 86.8943L94.9434 87.5232L94.9444 87.5242ZM91.7919 91.2945L91.809 88.7749H91.8H91.7909L91.7919 91.2945ZM89.9627 90.717L87.554 91.4557L87.808 92.2821L88.5165 92.779L89.9637 90.716L89.9627 90.717ZM80.1807 121.37L91.5248 88.8847L86.7669 87.2238L75.4228 119.708L80.1807 121.37ZM76.6523 123.909C78.287 123.909 79.7302 122.841 80.211 121.279L75.3946 119.799C75.5639 119.247 76.0748 118.87 76.6523 118.87V123.909ZM44.8896 123.909H76.6523V118.87H44.8886L44.8896 123.909ZM41.2927 121.144C41.727 122.774 43.2025 123.909 44.8896 123.909L44.8886 118.87C45.4852 118.87 46.0083 119.27 46.1615 119.846L41.2927 121.144ZM31.4845 88.7406L41.3158 121.225L46.1393 119.766L36.3079 87.2803L31.4845 88.7406ZM60.387 46.8774C59.4578 46.8774 58.3673 47.1354 57.4683 47.7401L60.2822 51.9206C60.2509 51.9418 60.2338 51.9488 60.2368 51.9468C60.2398 51.9448 60.2519 51.9408 60.2731 51.9347C60.2956 51.9285 60.3185 51.9238 60.3416 51.9206C60.3648 51.9176 60.3809 51.9166 60.386 51.9166L60.387 46.8774ZM57.4602 47.7452L33.6967 63.8755L36.5266 68.0439L60.2902 51.9146L57.4602 47.7452ZM33.5999 63.944L33.5032 64.0166L36.5277 68.0479L36.6244 67.9753L33.6009 63.944H33.5999ZM33.3207 64.1677L33.2331 64.2484L36.6224 67.9773L36.7101 67.8967L33.3207 64.1677ZM33.3389 64.1567C32.2998 65.0012 31.5883 66.1834 31.3313 67.4966L36.2777 68.4651C36.3079 68.3089 36.3916 68.1678 36.5156 68.068L33.3389 64.1567ZM31.2839 67.9814V68.0297H36.3231V67.9814H31.2839ZM31.3635 67.4009L26.2539 87.2228L31.1338 88.4806L36.2434 68.6586L31.3635 67.4009ZM26.2176 87.3891C26.0628 88.2159 26.0927 89.0656 26.3052 89.8795L31.1801 88.6046C31.1554 88.5097 31.152 88.4106 31.17 88.3143L26.2166 87.3881L26.2176 87.3891ZM26.3052 89.8795C26.5181 90.6934 26.9084 91.4503 27.4481 92.0957L31.3142 88.8636C31.2514 88.7884 31.2059 88.7003 31.1811 88.6056L26.3063 89.8805L26.3052 89.8795ZM27.4481 92.0957C27.9877 92.7409 28.6633 93.2589 29.4265 93.6125L31.5439 89.0399C31.455 88.9989 31.3772 88.9386 31.3142 88.8636L27.4481 92.0957ZM29.4265 93.6125C30.1899 93.9661 31.0221 94.1464 31.8634 94.1406L31.8281 89.1024C31.73 89.1031 31.633 89.0811 31.5439 89.0399L29.4265 93.6125ZM31.8453 94.1406C33.0103 94.1406 34.1572 93.7818 35.1207 93.1065L32.2272 88.9815C32.1164 89.0591 31.9813 89.1024 31.8463 89.1024L31.8453 94.1406ZM63.4054 51.9166L66.2324 47.7401C65.3972 47.177 64.4127 46.8766 63.4054 46.8774V51.9166ZM63.4266 51.9267L87.1297 67.7284L89.9244 63.5358L66.2223 47.7341L63.4266 51.9267ZM87.0158 67.6478L87.1126 67.7203L90.1361 63.689L90.0383 63.6165L87.0158 67.6478ZM86.9291 67.5682L87.0168 67.6498L90.4072 63.9198L90.3185 63.8402L86.9291 67.5682ZM87.1237 67.7395C87.2476 67.8403 87.3323 67.9804 87.3625 68.1366L92.3079 67.1681C92.0509 65.8538 91.3404 64.6717 90.3013 63.8281L87.1237 67.7395ZM87.3151 67.6528V67.7022L92.3543 67.7012V67.6538L87.3151 67.6528ZM87.3948 68.3311L92.5044 88.152L97.3844 86.8943L92.2747 67.0723L87.3948 68.3311ZM92.4672 87.9868C92.4852 88.0831 92.4818 88.1822 92.4571 88.277L97.3319 89.5519C97.5448 88.7382 97.5751 87.8874 97.4206 87.0606L92.4672 87.9868ZM92.4571 88.277C92.4323 88.3718 92.3868 88.4599 92.3241 88.535L96.1901 91.7671C96.7298 91.1217 97.1201 90.3649 97.333 89.5509L92.4581 88.276L92.4571 88.277ZM92.3241 88.535C92.261 88.6101 92.1822 88.6703 92.0933 88.7114L94.2107 93.2839C94.9739 92.9304 95.6505 92.4124 96.1901 91.7671L92.3241 88.535ZM92.0933 88.7114C92.0042 88.7526 91.9072 88.7736 91.809 88.7729L91.7738 93.812C92.6151 93.8178 93.4473 93.6375 94.2107 93.2839L92.0933 88.7114ZM91.7919 88.7729C91.6569 88.7729 91.5218 88.7305 91.41 88.6519L88.5165 92.777C89.48 93.4532 90.6269 93.811 91.7919 93.811V88.7729ZM63.4135 46.8774H63.4054V51.9166H63.4135V46.8774ZM60.386 51.9166H63.4135V46.8774H60.387L60.386 51.9166ZM36.189 91.2249L36.4077 88.1903L31.3817 87.8275L31.163 90.8621L36.189 91.2249ZM92.3714 89.9762L91.5541 87.3135L86.7367 88.791L87.554 91.4557L92.3714 89.9762Z" fill="black"/>
<path d="M44.8934 120.184H76.6561L88.0002 87.6983L61.5306 72.459L35.061 87.6983L44.8934 120.184Z" fill="url(#paint4_radial_1071_26024)"/>
<path d="M44.8934 120.184H76.6561L88.0002 87.6983L61.5306 72.459L35.061 87.6983L44.8934 120.184Z" fill="url(#paint5_radial_1071_26024)"/>
<path d="M44.8934 120.184H76.6561L88.0002 87.6983L61.5306 72.459L35.061 87.6983L44.8934 120.184Z" fill="url(#paint6_radial_1071_26024)"/>
<path d="M61.1812 71.8535C61.3978 71.729 61.6644 71.7287 61.8794 71.8525L88.3491 87.0918C88.6306 87.2538 88.7628 87.5884 88.6694 87.8984L77.3296 120.37L77.3267 120.38L77.3237 120.389C77.2335 120.682 76.9625 120.883 76.6558 120.883H44.8931C44.5768 120.883 44.2987 120.67 44.2163 120.362L44.2124 120.347L34.3853 87.8779C34.3143 87.6108 34.4083 87.3312 34.6167 87.1592L34.7124 87.0918L61.1802 71.8525L61.1812 71.8535ZM61.2788 73.4102L36.2104 87.8438L35.8628 88.043L35.979 88.4268L45.3354 119.128L45.4438 119.484H76.1235L76.2417 119.147L87.0435 88.4287L87.1821 88.0342L86.8188 87.8252L61.7817 73.4102L61.5298 73.2656L61.2788 73.4102Z" fill="#2F525C" stroke="#2F525C" stroke-width="1.00783"/>
<path d="M64.7381 121.739H57.0857L55.8027 112.708C55.8027 111.859 56.0366 111.025 56.48 110.301C56.9234 109.576 57.5574 108.988 58.3132 108.601C59.8451 107.815 61.6582 107.799 63.2062 108.545L63.3826 108.626C64.1636 109.003 64.8223 109.593 65.2834 110.328C65.744 111.062 65.9889 111.913 65.9899 112.78L64.7462 121.739H64.7381ZM63.8553 94.1229H57.9514L56.9648 87.2727C56.9648 85.9574 57.7106 84.746 58.8978 84.1444C59.4843 83.8501 60.1303 83.6929 60.7864 83.6858C61.4425 83.6787 62.0916 83.8219 62.6842 84.104L62.8122 84.1685C63.4108 84.4522 63.9169 84.8996 64.2719 85.4589C64.6268 86.0182 64.8161 86.6666 64.8178 87.3291L63.8553 94.1229Z" fill="black"/>
<path d="M31.8589 90.4196C31.5648 90.4187 31.2745 90.3532 31.0085 90.2276C30.7426 90.102 30.5075 89.9195 30.3199 89.6929C30.1324 89.4663 29.997 89.2013 29.9233 88.9165C29.8496 88.6317 29.8395 88.3343 29.8936 88.0451L34.9952 68.714C35.0751 68.2442 35.323 67.8194 35.6927 67.5187L35.733 67.4784L59.8039 51.4368L60.2293 51.4126C60.9509 51.4126 61.5445 51.9981 61.5445 52.7198V72.0751C61.5445 72.6768 61.2794 73.2462 60.8067 73.6231L60.7422 73.6796L33.03 90.0427C32.692 90.2952 32.2808 90.4304 31.8589 90.4276V90.4196Z" fill="url(#paint7_radial_1071_26024)"/>
<path d="M60.2271 50.228C61.3336 50.229 62.2319 51.1317 62.2319 52.2427V72.0679C62.2335 72.4687 62.1449 72.8649 61.9731 73.2271C61.8014 73.5891 61.551 73.9083 61.2397 74.1606L61.2349 74.1646L61.1235 74.2563L61.0122 74.3276L33.4204 90.6099L33.4028 90.6196L33.3872 90.6313C32.934 90.9487 32.3939 91.1176 31.8472 91.1177H31.8433C31.4481 91.1204 31.0573 91.0356 30.6987 90.8696C30.34 90.7035 30.0217 90.46 29.7681 90.1567C29.5144 89.8534 29.331 89.4973 29.231 89.1147C29.1316 88.7346 29.1168 88.3371 29.188 87.9507L34.2925 68.1548L34.3081 68.0933V68.0366C34.4361 67.4342 34.7655 66.8928 35.2446 66.5034L35.2563 66.4937L35.2681 66.4829L35.3374 66.4194L35.4048 66.3687L59.0923 50.5767L59.0942 50.5757C59.4274 50.3512 59.8171 50.2291 60.2271 50.228ZM60.2495 51.6265C60.1328 51.6226 60.0166 51.6511 59.9155 51.7095L59.9019 51.7173L59.8882 51.7271L36.1704 67.5444L36.1519 67.5571L36.1343 67.5708C35.9032 67.7562 35.7437 68.0153 35.6812 68.3042L30.5796 88.1421L30.5718 88.1772C30.5377 88.3643 30.5445 88.5573 30.5942 88.7446C30.6424 88.9259 30.7287 89.0996 30.855 89.2495C30.9755 89.3925 31.1256 89.5109 31.3003 89.5933C31.4733 89.6749 31.6627 89.7183 31.855 89.7183V89.7163C32.1353 89.7172 32.4064 89.6259 32.6294 89.4575L60.3032 73.1177L60.3384 73.0962L60.3696 73.0708C60.5179 72.9472 60.6353 72.7932 60.7163 72.6216C60.7993 72.4457 60.8403 72.2559 60.8403 72.0659V52.2437C60.8403 52.1272 60.8085 52.0038 60.7358 51.895V51.6421L60.2495 51.6265Z" fill="#2F525C" stroke="#2F525C" stroke-width="1.00783"/>
<path d="M91.771 90.4152C92.0651 90.4143 92.3554 90.3488 92.6214 90.2232C92.8874 90.0976 93.1224 89.9151 93.31 89.6885C93.4975 89.4619 93.6329 89.1969 93.7066 88.9121C93.7803 88.6273 93.7904 88.3299 93.7363 88.0407L88.6347 68.7096C88.5548 68.2398 88.307 67.815 87.9373 67.5143L87.8969 67.474L63.826 51.4324L63.4007 51.4082C62.6791 51.4082 62.0854 51.9938 62.0854 52.7154V72.0707C62.0854 72.6724 62.3505 73.2418 62.8232 73.6187L62.8877 73.6752L90.5999 90.0383C90.9379 90.2908 91.3491 90.426 91.771 90.4233V90.4152Z" fill="url(#paint8_radial_1071_26024)"/>
<path d="M63.3979 50.228C63.8019 50.2281 64.1969 50.3486 64.5317 50.5747L64.5337 50.5767L88.2212 66.3687L88.2935 66.4224L88.3618 66.4849L88.3726 66.4946L88.3833 66.5034C88.8624 66.8928 89.1918 67.4342 89.3198 68.0366V68.0933L89.3354 68.1548L94.439 87.9507C94.5102 88.3371 94.4964 88.7345 94.397 89.1147C94.3094 89.4495 94.1581 89.764 93.9517 90.0405L93.8599 90.1567C93.6063 90.46 93.2888 90.7035 92.9302 90.8696C92.5715 91.0358 92.18 91.1204 91.7847 91.1177H91.7808C91.234 91.1176 90.6939 90.9487 90.2407 90.6313L90.2251 90.6196L90.2075 90.6099L62.6147 74.3257L62.5024 74.2544L62.3921 74.1626L62.3872 74.1587L62.2739 74.061C62.0149 73.8259 61.8042 73.542 61.6538 73.2251C61.4821 72.863 61.3935 72.4667 61.395 72.0659V52.2427C61.395 51.1323 62.2923 50.23 63.3979 50.228ZM63.394 51.6265C63.2445 51.6265 63.0841 51.6819 62.9614 51.8062C62.8369 51.9324 62.7857 52.0942 62.7856 52.2437V72.0659C62.7857 72.255 62.8265 72.4434 62.9087 72.6187V72.6196C62.9901 72.7934 63.109 72.9479 63.2563 73.0708L63.2876 73.0962L63.3228 73.1177L90.9966 89.4585C91.2197 89.6272 91.4914 89.7192 91.772 89.7183V89.7192L91.7729 89.7183H91.7739C91.9656 89.718 92.1542 89.6756 92.3267 89.5942C92.5014 89.5118 92.6514 89.3935 92.772 89.2505C92.8983 89.1006 92.9846 88.9269 93.0327 88.7456C93.0824 88.5583 93.0893 88.3652 93.0552 88.1782L93.0474 88.1431L87.9458 68.3052H87.9448C87.8819 68.0159 87.7225 67.756 87.4907 67.5708L87.4741 67.5571L87.4556 67.5454L63.7378 51.728L63.7241 51.7183L63.7104 51.7104L63.6313 51.6724C63.5561 51.642 63.4756 51.627 63.394 51.6274V51.6265Z" fill="#2F525C" stroke="#2F525C" stroke-width="1.00783"/>
<path d="M61.8481 49.9009C62.5041 49.9009 63.0507 50.0102 63.4302 50.1187C63.5043 50.1399 63.5717 50.162 63.6323 50.1821L63.561 50.4976H60.2866L60.144 50.1567C60.183 50.1445 60.2245 50.1311 60.2681 50.1187C60.6471 50.0103 61.1926 49.9009 61.8481 49.9009Z" fill="#2F525C" stroke="#2F525C" stroke-width="1.00783"/>
<defs>
<radialGradient id="paint0_radial_1071_26024" cx="0" cy="0" r="1" gradientTransform="matrix(0 18.5815 -13.9314 1.9342 61.7284 27.652)" gradientUnits="userSpaceOnUse">
<stop stop-color="#ABC5D5"/>
<stop offset="0.495209" stop-color="#8EAAB7"/>
<stop offset="1" stop-color="#738F97"/>
</radialGradient>
<radialGradient id="paint1_radial_1071_26024" cx="0" cy="0" r="1" gradientUnits="userSpaceOnUse" gradientTransform="translate(61.5696 46.149) rotate(90) scale(15.8313)">
<stop stop-color="#ABC5D5"/>
<stop offset="0.495209" stop-color="#8EAAB7"/>
<stop offset="1" stop-color="#738F97"/>
</radialGradient>
<radialGradient id="paint2_radial_1071_26024" cx="0" cy="0" r="1" gradientTransform="matrix(-16.062 -3.7793 3.77842 -16.0609 61.7287 27.6519)" gradientUnits="userSpaceOnUse">
<stop stop-color="#ABC5D5"/>
<stop offset="0.495209" stop-color="#8EAAB7"/>
<stop offset="1" stop-color="#738F97"/>
</radialGradient>
<radialGradient id="paint3_radial_1071_26024" cx="0" cy="0" r="1" gradientUnits="userSpaceOnUse" gradientTransform="translate(62.9885 27.3369) rotate(-12.9946) scale(16.8074 16.8074)">
<stop stop-color="#ABC5D5"/>
<stop offset="0.495209" stop-color="#8EAAB7"/>
<stop offset="1" stop-color="#738F97"/>
</radialGradient>
<radialGradient id="paint4_radial_1071_26024" cx="0" cy="0" r="1" gradientUnits="userSpaceOnUse" gradientTransform="translate(61.5306 74.1244) rotate(90) scale(47.7673 47.7673)">
<stop stop-color="#B9C9D3"/>
<stop offset="0.33" stop-color="#A5B7C2"/>
<stop offset="0.66" stop-color="#839BA6"/>
<stop offset="1" stop-color="#63818A"/>
</radialGradient>
<radialGradient id="paint5_radial_1071_26024" cx="0" cy="0" r="1" gradientTransform="matrix(0 29.3088 -21.9744 3.05083 61.766 73.777)" gradientUnits="userSpaceOnUse">
<stop stop-color="#A4C7DC"/>
<stop offset="0.495209" stop-color="#85AEC0"/>
<stop offset="1" stop-color="#6696A4"/>
</radialGradient>
<radialGradient id="paint6_radial_1071_26024" cx="0" cy="0" r="1" gradientTransform="matrix(0 29.3088 -21.9744 3.05083 61.766 73.777)" gradientUnits="userSpaceOnUse">
<stop stop-color="#ABC5D5"/>
<stop offset="0.495209" stop-color="#8EAAB7"/>
<stop offset="1" stop-color="#738F97"/>
</radialGradient>
<radialGradient id="paint7_radial_1071_26024" cx="0" cy="0" r="1" gradientTransform="matrix(-25.333 -5.96138 5.95932 -25.3342 61.7541 73.7848)" gradientUnits="userSpaceOnUse">
<stop stop-color="#ABC5D5"/>
<stop offset="0.495209" stop-color="#8EAAB7"/>
<stop offset="1" stop-color="#738F97"/>
</radialGradient>
<radialGradient id="paint8_radial_1071_26024" cx="0" cy="0" r="1" gradientTransform="matrix(25.8318 -5.96138 5.9612 25.8327 63.7402 73.2836)" gradientUnits="userSpaceOnUse">
<stop stop-color="#ABC5D5"/>
<stop offset="0.495209" stop-color="#8EAAB7"/>
<stop offset="1" stop-color="#738F97"/>
</radialGradient>
</defs>
</svg>
