<svg width="292" height="407" viewBox="0 0 292 407" fill="none" xmlns="http://www.w3.org/2000/svg">
<g clip-path="url(#clip0_3331_1956)">
<mask id="mask0_3331_1956" style="mask-type:luminance" maskUnits="userSpaceOnUse" x="0" y="0" width="292" height="407">
<path d="M291.969 0H0V406.205H291.969V0Z" fill="white"/>
</mask>
<g mask="url(#mask0_3331_1956)">
<path d="M16.2638 390C14.6279 389.998 13.0596 389.348 11.9029 388.191C10.7462 387.034 10.0956 385.466 10.0938 383.83V16.169C10.0959 14.5334 10.7466 12.9653 11.9033 11.8088C13.06 10.6524 14.6281 10.0019 16.2638 10H269.425C271.06 10.0021 272.628 10.6527 273.785 11.8092C274.941 12.9656 275.592 14.5335 275.594 16.169V383.83C275.592 385.466 274.941 387.034 273.785 388.19C272.628 389.347 271.06 389.998 269.425 390H16.2638Z" fill="url(#paint0_radial_3331_1956)"/>
<path opacity="0.3" d="M150.398 144.106C150.286 144.096 150.183 144.044 150.107 143.961C150.032 143.878 149.99 143.77 149.99 143.658V131.924C149.99 131.806 150.036 131.693 150.118 131.609H150.119L181.926 99.1491C189.46 91.6131 193.402 84.9581 193.402 79.3811C193.402 75.2271 192.11 71.8071 189.728 69.4251C187.346 67.0431 183.928 65.7501 179.774 65.7501C176.03 65.7501 172.783 66.6561 170.019 68.5111C167.255 70.3661 165.013 73.1441 163.229 76.8381C163.202 76.8942 163.164 76.944 163.116 76.9841C163.069 77.0244 163.014 77.0546 162.954 77.0727C162.895 77.0907 162.833 77.0963 162.771 77.0891C162.709 77.0817 162.65 77.0616 162.596 77.0301L149.949 69.5991C149.852 69.5422 149.78 69.4509 149.747 69.3434C149.713 69.2358 149.722 69.1198 149.77 69.0181C155.418 57.0841 166.294 50.2461 179.645 50.2461C187.913 50.2461 194.934 52.8341 200.544 57.9251L200.548 57.9291C206.343 63.0631 209.3 70.0891 209.3 78.8591C209.3 88.0941 204.091 98.1991 193.656 108.895L174.676 127.879L173.822 128.732H175.029H210.543C210.663 128.732 210.777 128.78 210.862 128.864C210.946 128.948 210.994 129.063 210.994 129.182V143.655C210.994 143.714 210.982 143.773 210.96 143.828C210.937 143.882 210.904 143.932 210.862 143.974C210.82 144.015 210.77 144.049 210.715 144.071C210.661 144.094 210.602 144.105 210.543 144.105H150.44H150.398V144.106Z" fill="black" stroke="#413C25"/>
<path d="M177.743 48.7984C185.824 48.7984 192.735 51.2744 198.339 56.3594C204.078 61.4444 206.948 68.3554 206.948 76.9604C206.948 86.2174 201.731 96.1254 191.43 106.683L170.833 127.283H208.641V141.756H148.539V130.022L180.35 97.5584C188.041 89.8664 191.951 83.0874 191.951 77.4794C191.951 68.6154 186.216 63.3994 177.873 63.3994C170.179 63.3994 164.572 67.1814 160.922 74.7414L148.275 67.3114C154.013 55.1884 165.094 48.7984 177.743 48.7984ZM177.743 46.8984C163.82 46.8984 152.453 54.0424 146.558 66.4994C146.355 66.9285 146.319 67.4179 146.459 67.8715C146.599 68.3251 146.903 68.71 147.313 68.9504L159.961 76.3814C160.187 76.5144 160.439 76.5994 160.7 76.6294C160.96 76.6602 161.225 76.6367 161.476 76.5602C161.727 76.4838 161.959 76.3562 162.159 76.1854C162.358 76.0144 162.52 75.8044 162.634 75.5674C165.971 68.6574 170.956 65.2984 177.874 65.2984C185.386 65.2984 190.052 69.9664 190.052 77.4784C190.052 82.5084 186.232 88.9874 179.007 96.2144L147.182 128.692C146.834 129.047 146.639 129.524 146.64 130.021V141.755C146.64 142.259 146.84 142.743 147.196 143.099C147.552 143.455 148.036 143.655 148.54 143.655H208.642C209.145 143.655 209.629 143.455 209.985 143.098C210.341 142.742 210.541 142.259 210.542 141.755V127.282C210.541 126.779 210.341 126.296 209.985 125.939C209.629 125.582 209.145 125.382 208.642 125.382H175.421L192.774 108.026C203.446 97.0874 208.849 86.6414 208.849 76.9594C208.849 67.7834 205.737 60.3724 199.601 54.9354C193.726 49.6084 186.367 46.8984 177.743 46.8984Z" fill="#344E33"/>
<path d="M148.497 142.206C148.385 142.195 148.281 142.144 148.205 142.061C148.13 141.978 148.088 141.87 148.088 141.758V130.024C148.088 129.906 148.134 129.793 148.217 129.709L180.024 97.2487C187.559 89.7127 191.501 83.0577 191.501 77.4817C191.501 73.3277 190.209 69.9077 187.827 67.5257C185.445 65.1437 182.026 63.8507 177.872 63.8507C174.128 63.8507 170.882 64.7567 168.118 66.6117C165.354 68.4667 163.111 71.2447 161.328 74.9387C161.301 74.9947 161.262 75.0447 161.215 75.0847C161.168 75.1247 161.113 75.1557 161.053 75.1737C160.993 75.1917 160.931 75.1967 160.87 75.1897C160.808 75.1823 160.748 75.1622 160.695 75.1307L148.047 67.6997C147.95 67.6428 147.877 67.5515 147.844 67.444C147.811 67.3364 147.819 67.2204 147.868 67.1187C153.517 55.1847 164.393 48.3467 177.743 48.3467C186.012 48.3467 193.033 50.9347 198.642 56.0257L198.647 56.0297C204.442 61.1637 207.398 68.1897 207.398 76.9597C207.398 86.1947 202.19 96.2987 191.755 106.995L172.774 125.979L171.921 126.832H173.128H208.642C208.761 126.832 208.875 126.879 208.96 126.964C209.045 127.048 209.092 127.163 209.092 127.282V141.755C209.092 141.874 209.045 141.989 208.96 142.073C208.875 142.157 208.761 142.205 208.642 142.205H148.538L148.497 142.206Z" fill="#F2FFF2" stroke="#283B28"/>
<path opacity="0.3" d="M120.157 125.283C119.845 125.283 119.552 125.134 119.368 124.881L106.635 107.321L93.7952 124.884C93.7052 125.008 93.5862 125.109 93.4492 125.178C93.3122 125.247 93.1612 125.284 93.0082 125.283H79.2712C79.0912 125.283 78.9152 125.234 78.7612 125.14C78.6072 125.046 78.4832 124.911 78.4022 124.75C78.3212 124.589 78.2852 124.41 78.3002 124.23C78.3152 124.05 78.3792 123.879 78.4852 123.734L98.5622 96.2893L79.5762 70.3713C79.4702 70.2263 79.4052 70.0543 79.3912 69.8753C79.3772 69.6963 79.4122 69.5163 79.4932 69.3553C79.5742 69.1943 79.6992 69.0603 79.8522 68.9663C80.0052 68.8723 80.1822 68.8223 80.3622 68.8223H93.9912C94.1447 68.8226 94.296 68.8589 94.4328 68.9284C94.5697 68.9979 94.6884 69.0985 94.7792 69.2223L106.529 85.3663L118.28 69.2223C118.463 68.9713 118.756 68.8223 119.068 68.8223H132.806C132.986 68.8222 133.162 68.872 133.315 68.9663C133.468 69.0605 133.592 69.1951 133.674 69.3553C133.756 69.5153 133.792 69.695 133.778 69.8742C133.763 70.0535 133.699 70.2252 133.593 70.3703L114.606 96.3983L134.575 123.736C134.681 123.881 134.745 124.053 134.759 124.232C134.774 124.411 134.738 124.591 134.657 124.752C134.576 124.913 134.451 125.047 134.297 125.141C134.144 125.236 133.968 125.285 133.788 125.284L120.157 125.283Z" fill="black"/>
<path opacity="0.3" d="M133.542 70.6404L114.136 97.2414L134.524 125.153H120.895L107.376 106.508L93.7478 125.153H80.0098L100.508 97.1334L81.0998 70.6404H94.7288L107.267 87.8664L119.804 70.6404H133.542ZM133.542 68.6924H119.804C119.497 68.6924 119.194 68.7651 118.92 68.9044C118.647 69.0434 118.41 69.2454 118.229 69.4944L107.268 84.5564L96.3048 69.4944C96.124 69.2461 95.887 69.0441 95.6133 68.9047C95.3396 68.7653 95.0369 68.6926 94.7298 68.6924H81.0998C80.74 68.6927 80.3873 68.7925 80.0807 68.9809C79.7742 69.1692 79.5257 69.4386 79.3628 69.7594C79.2003 70.0804 79.1298 70.4402 79.1591 70.7988C79.1884 71.1575 79.3163 71.501 79.5288 71.7914L98.0948 97.1354L78.4378 124.004C78.2258 124.294 78.0978 124.638 78.0688 124.996C78.0399 125.355 78.1109 125.715 78.2738 126.035C78.4368 126.356 78.6848 126.625 78.9918 126.814C79.2984 127.003 79.651 127.102 80.0108 127.102H93.7488C94.0548 127.102 94.3568 127.03 94.6308 126.891C94.9048 126.752 95.1408 126.552 95.3218 126.304L107.371 109.82L119.32 126.298C119.501 126.547 119.738 126.749 120.012 126.889C120.286 127.029 120.589 127.102 120.897 127.102H134.526C134.886 127.103 135.238 127.003 135.545 126.814C135.852 126.626 136.1 126.357 136.263 126.036C136.426 125.715 136.497 125.356 136.468 124.997C136.439 124.639 136.311 124.296 136.099 124.005L116.551 97.2404L135.118 71.7884C135.33 71.4978 135.458 71.1541 135.487 70.7954C135.515 70.4364 135.444 70.0774 135.281 69.7564C135.118 69.4354 134.87 69.1664 134.563 68.9784C134.256 68.7904 133.904 68.6914 133.544 68.6914L133.542 68.6924Z" fill="black"/>
<path d="M118.207 123.334C117.896 123.334 117.602 123.185 117.418 122.931L104.685 105.371L91.8461 122.934C91.756 123.058 91.6376 123.159 91.5008 123.229C91.364 123.298 91.2126 123.334 91.0591 123.334H77.3221C77.1421 123.334 76.9661 123.284 76.8121 123.19C76.6584 123.096 76.5338 122.961 76.4524 122.801C76.3709 122.64 76.3359 122.46 76.3511 122.28C76.3661 122.101 76.4301 121.929 76.5361 121.784L96.6121 94.3391L77.6271 68.4211C77.5211 68.2761 77.4571 68.1041 77.4421 67.9251C77.4271 67.7461 77.4631 67.5661 77.5441 67.4051C77.6251 67.2441 77.7501 67.1101 77.9031 67.0151C78.0561 66.9201 78.2331 66.8711 78.4131 66.8711H92.0421C92.1956 66.8714 92.3469 66.9078 92.4838 66.9772C92.6207 67.0467 92.7393 67.1474 92.8301 67.2711L104.58 83.4151L116.33 67.2711C116.513 67.0201 116.807 66.8711 117.118 66.8711H130.857C131.036 66.8711 131.213 66.9211 131.366 67.0151C131.519 67.1091 131.643 67.2438 131.724 67.4041C131.806 67.5641 131.841 67.7441 131.827 67.9231C131.813 68.1021 131.749 68.2737 131.644 68.4191L112.657 94.4461L132.625 121.784C132.732 121.929 132.796 122.101 132.81 122.28C132.824 122.46 132.789 122.64 132.707 122.8C132.626 122.961 132.502 123.095 132.348 123.189C132.195 123.283 132.018 123.333 131.838 123.333L118.207 123.334Z" fill="#F2FFF2"/>
<path d="M130.855 67.8464L111.448 94.4484L131.837 122.36H118.207L104.688 103.715L91.06 122.36H77.322L97.82 94.3404L78.412 67.8464H92.041L104.579 85.0724L117.116 67.8464H130.855ZM130.855 65.8984H117.116C116.809 65.8984 116.507 65.9714 116.233 66.1104C115.959 66.2498 115.722 66.452 115.541 66.7004L104.58 81.7624L93.617 66.7004C93.4362 66.4522 93.1993 66.2501 92.9256 66.1108C92.6519 65.9714 92.3491 65.8986 92.042 65.8984H78.412C78.0522 65.8987 77.6995 65.9986 77.393 66.1869C77.0864 66.3752 76.8379 66.6447 76.675 66.9654C76.5125 67.2865 76.442 67.6462 76.4713 68.0049C76.5006 68.3635 76.6286 68.707 76.841 68.9974L95.407 94.3414L75.75 121.209C75.5379 121.5 75.4103 121.844 75.3813 122.202C75.3524 122.561 75.4232 122.921 75.586 123.241C75.749 123.562 75.9975 123.831 76.304 124.019C76.6107 124.207 76.9632 124.307 77.323 124.308H91.061C91.367 124.308 91.669 124.235 91.943 124.097C92.217 123.959 92.453 123.757 92.634 123.51L104.684 107.026L116.632 123.503C116.813 123.752 117.05 123.955 117.324 124.095C117.598 124.235 117.902 124.308 118.209 124.308H131.839C132.198 124.308 132.551 124.208 132.858 124.02C133.165 123.832 133.413 123.562 133.576 123.242C133.738 122.921 133.809 122.562 133.781 122.203C133.752 121.844 133.624 121.501 133.412 121.21L113.863 94.4464L132.431 68.9944C132.643 68.7037 132.77 68.36 132.799 68.0014C132.828 67.6424 132.757 67.2834 132.594 66.9624C132.431 66.6414 132.182 66.3724 131.876 66.1844C131.569 65.9966 131.215 65.8976 130.855 65.8984Z" fill="#3D283B"/>
<path d="M91.8592 341.208C91.2555 341.399 90.6011 341.342 90.0395 341.05C89.4778 340.758 89.0548 340.256 88.8632 339.652L45.9502 204.019C45.7601 203.416 45.8173 202.761 46.1092 202.199C46.4012 201.638 46.9032 201.215 47.5062 201.023L140.899 171.475C141.503 171.284 142.157 171.341 142.719 171.633C143.281 171.925 143.703 172.427 143.895 173.03L186.808 308.663C186.998 309.267 186.941 309.922 186.649 310.483C186.358 311.044 185.855 311.468 185.252 311.659L91.8592 341.208Z" fill="url(#paint1_radial_3331_1956)"/>
<path d="M140.654 175.612L182.672 308.418L92.1062 337.073L50.0872 204.266L140.654 175.612ZM139.733 167.786L46.3392 197.335C43.0452 198.377 41.2192 201.892 42.2622 205.187L85.1752 340.82C86.2182 344.115 89.7322 345.94 93.0272 344.898L186.42 315.349C188.002 314.847 189.319 313.739 190.084 312.266C190.849 310.794 190.998 309.079 190.498 307.497L147.585 171.864C147.084 170.282 145.975 168.964 144.503 168.2C143.031 167.435 141.315 167.286 139.733 167.786Z" fill="#C2E1D8"/>
<path d="M140.9 171.476C141.503 171.285 142.158 171.342 142.719 171.634C143.281 171.925 143.704 172.427 143.896 173.031L186.809 308.664C186.999 309.267 186.942 309.922 186.651 310.483C186.359 311.045 185.856 311.468 185.253 311.66L91.8602 341.209C91.2565 341.399 90.6021 341.342 90.0404 341.05C89.4788 340.758 89.0558 340.256 88.8642 339.653L45.9512 204.02C45.7607 203.416 45.8176 202.761 46.1092 202.2C46.4012 201.639 46.9032 201.216 47.5062 201.024L140.9 171.476ZM139.733 167.786L46.3392 197.335C43.0452 198.377 41.2192 201.892 42.2622 205.187L85.1752 340.82C86.2182 344.115 89.7322 345.94 93.0272 344.898L186.42 315.349C188.002 314.847 189.319 313.739 190.084 312.266C190.849 310.794 190.998 309.079 190.498 307.497L147.585 171.864C147.084 170.282 145.975 168.964 144.503 168.2C143.031 167.435 141.315 167.286 139.733 167.786Z" fill="#414042"/>
<path d="M110.597 267.657C109.376 268.043 108.255 268.207 107.169 268.157C105.622 268.086 104.146 267.555 103.034 267.1C99.7697 265.768 96.7508 263.9 94.1022 261.572C92.1842 259.888 87.9652 253.618 88.4762 250.019C88.9992 246.33 91.1882 243.208 93.0372 240.901C94.0282 239.664 95.5722 237.948 97.5302 237.329C98.1345 237.134 98.7709 237.058 99.4042 237.105C100.812 237.213 102.053 237.964 103.051 238.568L113.396 244.83C115.501 246.104 117.677 247.422 119.624 249.049C120.324 249.634 121.108 250.358 121.616 251.293C122.346 252.64 122.478 254.386 121.999 256.344C120.944 260.658 117.446 264.583 112.641 266.844C111.917 267.185 111.248 267.451 110.597 267.657Z" fill="#E7FFF1"/>
<path d="M97.7641 238.067C98.274 237.902 98.8108 237.838 99.3451 237.877C100.544 237.969 101.622 238.608 102.651 239.231L112.996 245.493C115.11 246.773 117.232 248.059 119.128 249.644C119.826 250.227 120.502 250.864 120.936 251.664C121.669 253.015 121.614 254.667 121.248 256.161C120.151 260.647 116.491 264.178 112.312 266.145C111.681 266.446 111.03 266.705 110.365 266.92C109.338 267.245 108.277 267.434 107.205 267.385C105.865 267.324 104.569 266.892 103.328 266.385C100.144 265.083 97.1988 263.26 94.6131 260.991C92.8421 259.436 88.7781 253.399 89.2421 250.129C89.7061 246.859 91.5761 243.963 93.6411 241.386C94.7521 240 96.1381 238.581 97.7641 238.067ZM97.2971 236.591C95.1381 237.275 93.4871 239.102 92.4331 240.418C90.5231 242.802 88.2591 246.036 87.7101 249.912C87.1241 254.042 91.8511 260.625 93.5921 262.154C96.3055 264.538 99.398 266.452 102.742 267.817C103.912 268.295 105.469 268.854 107.135 268.931C108.313 268.985 109.523 268.81 110.832 268.395C111.516 268.179 112.216 267.901 112.972 267.545C117.985 265.186 121.642 261.067 122.752 256.528C123.278 254.382 123.12 252.444 122.297 250.926C121.727 249.876 120.878 249.088 120.121 248.456C118.129 246.791 115.927 245.458 113.798 244.169L103.452 237.906C102.385 237.26 101.056 236.456 99.4631 236.334C98.7321 236.28 97.9961 236.367 97.2971 236.591Z" fill="#5B7776"/>
<path d="M97.523 278.231C96.581 278.529 95.614 278.681 94.704 278.811C92.904 279.07 90.8139 279.317 88.7779 278.977C86.4959 278.595 84.556 277.462 83.454 275.868C82.732 274.824 82.3669 273.619 82.0269 272.373C81.5449 270.605 81.0699 268.714 81.0299 266.744C80.9979 265.187 81.2459 262.931 82.6109 261.024C82.6999 260.907 83.377 260.058 84.455 259.716C84.6967 259.639 84.9475 259.594 85.2009 259.581C86.6139 259.511 87.874 260.185 88.9429 260.823L94.0709 264.178L96.4209 265.787C97.8369 266.756 99.441 267.854 100.553 269.408C101.857 271.231 102.185 273.425 101.408 275.132C100.875 276.303 99.8079 277.286 98.4029 277.901C98.1157 278.027 97.8219 278.137 97.523 278.231Z" fill="#E7FFF1"/>
<path d="M84.6888 260.455C84.8669 260.397 85.0518 260.363 85.2388 260.354C86.4208 260.295 87.5298 260.882 88.5468 261.488L93.6338 264.817L95.9838 266.426C97.4298 267.415 98.9048 268.434 99.9238 269.858C100.943 271.282 101.43 273.218 100.704 274.812C100.205 275.908 99.1968 276.71 98.0938 277.193C97.8318 277.307 97.5628 277.408 97.2898 277.493C96.4178 277.769 95.5028 277.915 94.5948 278.046C92.7098 278.317 90.7848 278.528 88.9068 278.214C87.0288 277.9 85.1748 276.996 84.0918 275.429C83.4218 274.46 83.0848 273.306 82.7748 272.17C82.2888 270.388 81.8428 268.575 81.8048 266.728C81.7668 264.881 82.1658 262.977 83.2408 261.474C83.2408 261.474 83.8108 260.732 84.6888 260.455ZM84.2218 258.979C83.3518 259.274 82.585 259.813 82.0128 260.532L81.9968 260.553L81.9818 260.574C80.8038 262.221 80.2068 264.36 80.2568 266.761C80.2988 268.819 80.7868 270.763 81.2818 272.577C81.6408 273.891 82.0278 275.165 82.8188 276.309C84.0388 278.074 86.1648 279.325 88.6508 279.741C90.7968 280.1 92.9578 279.845 94.8148 279.578C95.7568 279.443 96.7588 279.285 97.7568 278.969C98.0822 278.866 98.402 278.747 98.7148 278.611C100.294 277.919 101.501 276.798 102.113 275.454C103.005 273.496 102.648 271.006 101.183 268.958C99.9918 267.294 98.3268 266.154 96.8578 265.149L94.5088 263.541L89.3398 260.16C88.1728 259.464 86.7908 258.728 85.1628 258.809C84.8428 258.825 84.5268 258.882 84.2218 258.979Z" fill="#5B7776"/>
<path d="M137.015 275.342C136.414 275.532 135.777 275.649 135.121 275.689C133.365 275.797 131.659 275.373 130.369 274.99C128.443 274.421 126.575 273.674 124.787 272.759C121.506 271.078 119.633 269.022 119.22 266.65C118.896 264.785 119.526 262.689 120.947 260.897C122.161 259.367 123.725 258.248 125.24 257.168C125.519 256.911 127.51 255.055 128.327 253.722L128.802 252.881C129.095 252.342 129.397 251.785 129.798 251.267C130.614 250.216 131.787 249.426 133.191 248.982C134.514 248.563 135.972 248.463 137.409 248.693C140.167 249.134 142.564 250.58 144.596 251.9C146.184 252.932 147.993 254.176 149.362 255.883C151.245 258.231 152.13 261.292 151.792 264.282C151.691 265.175 151.495 265.863 151.173 266.446C150.587 267.508 149.597 268.195 148.706 268.727C147.359 269.53 145.927 270.182 144.436 270.671L143.492 270.969C142.494 271.285 141.543 271.623 140.876 272.283C140.671 272.485 140.485 272.726 140.289 272.982L139.723 273.672C139.033 274.422 138.096 275 137.015 275.342Z" fill="#E7FFF1"/>
<path d="M133.424 249.72C134.654 249.331 136.012 249.254 137.287 249.458C139.79 249.858 142.048 251.168 144.173 252.549C145.848 253.637 147.508 254.809 148.758 256.367C150.502 258.542 151.336 261.425 151.022 264.195C150.949 264.846 150.811 265.5 150.495 266.073C150.013 266.946 149.165 267.551 148.308 268.062C147.01 268.837 145.631 269.465 144.194 269.935L143.9 270.029L143.258 270.231C142.185 270.571 141.12 270.952 140.331 271.733C139.894 272.165 139.569 272.695 139.153 273.147C138.515 273.84 137.683 274.318 136.781 274.603C136.227 274.777 135.653 274.882 135.073 274.916C133.556 275.009 132.044 274.679 130.588 274.248C128.708 273.692 126.884 272.963 125.139 272.07C122.806 270.874 120.431 269.099 119.982 266.517C119.666 264.698 120.405 262.824 121.553 261.378C122.701 259.932 124.224 258.841 125.728 257.77C125.728 257.77 128.042 255.667 128.986 254.126C129.47 253.336 129.841 252.474 130.409 251.741C131.172 250.759 132.239 250.095 133.424 249.72ZM132.957 248.244C131.403 248.736 130.099 249.617 129.187 250.793C128.747 251.36 128.429 251.946 128.122 252.512L127.666 253.319C127.01 254.39 125.402 255.968 124.753 256.566C123.274 257.62 121.612 258.816 120.341 260.417C118.782 262.381 118.096 264.701 118.458 266.782C118.914 269.407 120.925 271.65 124.433 273.448C126.264 274.384 128.177 275.149 130.149 275.732C131.5 276.132 133.291 276.576 135.168 276.461C135.887 276.417 136.587 276.288 137.249 276.079C138.458 275.696 139.51 275.045 140.293 274.196C140.525 273.944 140.725 273.684 140.902 273.454L141.42 272.834C141.965 272.294 142.821 271.993 143.726 271.707L144.042 271.607L144.368 271.505C146.024 270.989 147.613 270.28 149.102 269.391C150.082 268.807 151.175 268.044 151.85 266.821C152.223 266.145 152.448 265.366 152.561 264.368C152.915 261.153 151.982 257.928 149.966 255.399C148.524 253.602 146.656 252.316 145.017 251.251C142.766 249.787 140.3 248.372 137.532 247.929C135.976 247.68 134.394 247.79 132.957 248.244Z" fill="#5B7776"/>
<path d="M146.428 248.655C145.332 249.002 144.086 248.968 142.507 248.547L141.346 248.207C140.536 247.959 139.771 247.724 138.989 247.631L138.26 247.568C137.42 247.51 136.469 247.445 135.641 246.92C134.585 246.251 133.941 244.93 133.874 243.296C133.765 240.602 135.015 238.091 135.966 236.436L136.963 234.655L137.024 234.589C137.533 234.033 138.207 233.597 139.145 233.217L139.898 232.946C142.522 232.115 145.385 232.386 147.557 233.669C150.207 235.235 151.759 238.33 151.333 241.196C151.203 242.064 150.906 242.893 150.636 243.602C149.922 245.487 148.825 247.755 146.668 248.572L146.428 248.655Z" fill="#E7FFF1"/>
<path d="M140.127 233.684C142.446 232.95 145.07 233.101 147.159 234.336C149.459 235.696 150.956 238.438 150.563 241.082C150.447 241.854 150.186 242.597 149.909 243.328C149.21 245.17 148.233 247.15 146.39 247.848L146.19 247.917C145.073 248.271 143.842 248.103 142.702 247.8C141.495 247.478 140.318 247.01 139.077 246.862C138.046 246.739 136.929 246.822 136.051 246.266C135.08 245.651 134.692 244.413 134.644 243.264C134.551 240.988 135.499 238.797 136.633 236.822L137.59 235.112C138.087 234.57 138.751 234.21 139.432 233.934L140.127 233.684ZM139.661 232.208L138.85 232.5C137.801 232.925 137.039 233.422 136.449 234.066L136.327 234.199L136.239 234.356L135.282 236.066C134.293 237.789 132.979 240.434 133.097 243.327C133.175 245.22 133.949 246.767 135.222 247.574C136.216 248.203 137.317 248.279 138.202 248.34L138.892 248.399C139.606 248.484 140.338 248.709 141.114 248.947L142.303 249.295C144.031 249.755 145.414 249.786 146.656 249.393L146.937 249.295C149.383 248.369 150.583 245.913 151.355 243.876C151.639 243.13 151.953 242.254 152.093 241.31C152.565 238.141 150.859 234.725 147.946 233.003C145.553 231.589 142.533 231.299 139.661 232.208Z" fill="#5B7776"/>
<path d="M127.072 250.717C125.001 251.372 123.507 250.629 122.703 250.23C122.109 249.934 121.6 249.553 121.107 249.185L115.721 245.163C114.44 244.208 113.116 243.219 112.016 241.961C110.737 240.499 109.988 238.886 109.85 237.295C109.697 235.528 110.573 233.698 110.61 233.62L110.652 233.534L110.714 233.46C111.638 232.362 112.997 231.504 114.647 230.982L114.789 230.938C116.215 230.507 117.672 230.351 119.29 230.205C121.729 229.986 123.923 229.856 126.073 230.501C127.156 230.826 128.177 231.345 129.077 231.802C129.694 232.116 130.463 232.506 131.012 233.176C131.577 233.864 131.802 234.7 131.983 235.372L132.939 239.141C133.171 240.114 133.362 240.997 133.354 241.939C133.347 242.679 133.214 243.465 132.947 244.342C132.252 246.624 130.935 248.504 129.239 249.636C128.48 250.142 127.771 250.496 127.072 250.717Z" fill="#E7FFF1"/>
<path d="M114.878 231.721L115.01 231.68C116.418 231.254 117.893 231.109 119.357 230.976C121.528 230.781 123.761 230.617 125.848 231.243C126.851 231.543 127.791 232.018 128.724 232.492C129.339 232.805 129.973 233.133 130.411 233.667C130.854 234.206 131.051 234.9 131.233 235.573L132.184 239.321C132.388 240.179 132.585 241.049 132.578 241.932C132.571 242.674 132.421 243.408 132.205 244.117C131.616 246.05 130.488 247.871 128.807 248.993C128.078 249.479 127.426 249.793 126.836 249.979C125.193 250.499 124.035 250.029 123.046 249.537C122.517 249.274 122.041 248.919 121.567 248.565L116.181 244.544C114.914 243.598 113.637 242.643 112.596 241.453C111.555 240.263 110.754 238.804 110.618 237.229C110.482 235.654 111.304 233.959 111.304 233.959C112.221 232.868 113.518 232.151 114.878 231.721ZM114.411 230.245C112.621 230.811 111.137 231.751 110.119 232.963L109.995 233.11L109.911 233.283C109.808 233.496 108.908 235.419 109.076 237.362C109.228 239.118 110.043 240.885 111.431 242.472C112.584 243.79 113.942 244.804 115.255 245.784L120.641 249.806C121.137 250.176 121.7 250.596 122.356 250.923C123.696 251.589 125.221 252.114 127.303 251.455C128.073 251.212 128.845 250.827 129.666 250.28C131.51 249.049 132.938 247.021 133.685 244.567C133.974 243.619 134.118 242.761 134.125 241.946C134.135 240.833 133.877 239.751 133.689 238.962L132.727 235.17C132.538 234.466 132.278 233.502 131.606 232.685C130.955 231.891 130.107 231.459 129.425 231.112C128.496 230.64 127.442 230.104 126.292 229.76C124.01 229.076 121.738 229.208 119.218 229.435C117.556 229.584 116.059 229.745 114.562 230.198L114.411 230.245Z" fill="#5B7776"/>
<path d="M121.236 256.145C121.602 254.651 121.657 253 120.924 251.647C120.491 250.848 119.814 250.211 119.116 249.628C117.221 248.043 115.098 246.757 112.984 245.477C109.536 243.39 114.07 247.602 113.479 248.649C112.714 250.007 111.577 250.447 110.094 251.554C107.447 253.53 102.75 254.037 99.456 255.717C96.514 257.217 92.83 259.42 94.602 260.975C97.188 263.244 100.132 265.067 103.316 266.369C104.558 266.877 105.853 267.308 107.194 267.369C108.961 267.45 110.7 266.883 112.301 266.129C116.479 264.162 120.139 260.631 121.236 256.145ZM95.972 266.41L93.623 264.801C91.95 263.656 90.276 262.51 88.535 261.472C87.519 260.866 94.16 265.761 95.192 268.941C96.224 272.121 96.453 273.516 95.154 275.117C93.786 276.803 91.356 276.213 88.091 275.97C84.826 275.727 82.504 271.403 82.808 272.541C83.535 275.26 85.084 277.677 88.894 278.199C91.624 278.572 92.697 278.302 94.582 278.031C95.774 277.86 96.977 277.661 98.081 277.178C99.185 276.695 100.192 275.893 100.691 274.797C101.417 273.203 100.93 271.267 99.911 269.844C98.892 268.421 97.417 267.399 95.972 266.41ZM144.434 252.553C142.295 251.176 141.502 250.888 140.38 250.393C138.049 249.364 148.373 256.98 146.8 258.99C146.225 259.724 144.889 261.455 144.399 262.247C143.443 263.792 136.336 266.764 136.336 266.764C134.817 267.839 130.967 267.931 126.993 267.063C125.177 266.666 119.689 264.779 120.003 266.598C120.45 269.182 122.839 270.951 125.188 272.142C126.947 273.032 128.784 273.756 130.677 274.307C132.145 274.735 133.669 275.061 135.198 274.964C136.727 274.867 138.277 274.304 139.317 273.183C139.738 272.73 140.067 272.197 140.508 271.764C141.54 270.751 143.033 270.405 144.41 269.955C145.859 269.48 147.252 268.847 148.563 268.069C149.427 267.555 150.284 266.948 150.772 266.073C151.093 265.498 151.234 264.843 151.309 264.192C151.633 261.418 150.799 258.535 149.046 256.363C147.791 254.806 146.12 253.638 144.434 252.553ZM147.548 234.403C145.062 233.464 147.891 235.832 147.472 237.28C147.268 237.985 146.398 239.931 144.981 239.861L140.229 241.086C138.576 242.286 134.76 241.125 134.853 243.401C134.9 244.55 134.968 245.59 135.939 246.206C136.817 246.762 138.467 246.75 139.498 246.873C140.739 247.021 141.928 247.593 143.135 247.914C144.342 248.235 145.422 248.151 146.591 247.709C148.434 247.011 149.411 245.031 150.11 243.188C150.387 242.458 150.649 241.715 150.764 240.942C151.158 238.299 150.048 235.348 147.548 234.403ZM116.17 244.528L121.557 248.549C122.031 248.903 122.507 249.258 123.036 249.521C124.379 250.189 126.035 250.819 128.797 248.976C130.478 247.855 131.606 246.033 132.195 244.101C132.41 243.392 132.561 242.657 132.567 241.916C132.575 241.034 132.378 240.163 132.174 239.304L131.223 235.557C131.041 234.883 130.843 234.19 130.401 233.651C129.963 233.117 129.329 232.789 128.713 232.476C127.78 232.002 127.758 231.721 127.975 232.745C128.391 234.713 128.794 234.199 127.907 235.051C126.847 236.07 126.136 235.582 125.19 236.708C125.19 236.708 124.146 237.942 123.185 238.936C122.087 240.073 119.775 242.566 118.268 243.042C117.446 243.303 114.904 243.582 116.17 244.528Z" fill="#94BFAC"/>
<path d="M139.004 352.029C138.371 352.028 137.764 351.777 137.317 351.329C136.87 350.882 136.618 350.275 136.617 349.642V207.382C136.618 206.75 136.87 206.143 137.317 205.696C137.764 205.248 138.371 204.996 139.004 204.996H236.96C237.593 204.997 238.2 205.248 238.647 205.695C239.094 206.143 239.346 206.749 239.347 207.382V349.642C239.346 350.275 239.095 350.882 238.647 351.329C238.2 351.777 237.593 352.029 236.96 352.029H139.004Z" fill="url(#paint2_radial_3331_1956)"/>
<path d="M235.48 208.865V348.16H140.489V208.865H235.48ZM236.962 201.127H139.006C135.551 201.127 132.75 203.927 132.75 207.382V349.642C132.751 351.301 133.41 352.892 134.583 354.065C135.756 355.238 137.347 355.898 139.006 355.899H236.962C238.621 355.898 240.212 355.238 241.385 354.065C242.558 352.892 243.217 351.301 243.218 349.642V207.382C243.218 203.928 240.417 201.127 236.962 201.127Z" fill="#C2E1D8"/>
<path d="M236.962 204.996C237.595 204.997 238.202 205.248 238.649 205.696C239.096 206.144 239.348 206.75 239.349 207.382V349.642C239.348 350.275 239.097 350.882 238.649 351.329C238.202 351.777 237.595 352.029 236.962 352.03H139.006C138.373 352.029 137.766 351.777 137.319 351.33C136.871 350.882 136.62 350.275 136.619 349.642V207.382C136.62 206.749 136.872 206.143 137.319 205.696C137.767 205.248 138.373 204.997 139.006 204.996H236.962ZM236.962 201.127H139.006C135.551 201.127 132.75 203.927 132.75 207.382V349.642C132.751 351.301 133.41 352.892 134.583 354.065C135.756 355.238 137.347 355.898 139.006 355.899H236.962C238.621 355.898 240.212 355.238 241.385 354.065C242.558 352.892 243.217 351.301 243.218 349.642V207.382C243.218 203.928 240.417 201.127 236.962 201.127Z" fill="#414042"/>
<path d="M179.057 287.557C177.776 287.557 176.657 287.375 175.637 287C174.183 286.466 172.937 285.515 172.013 284.745C169.303 282.49 166.988 279.798 165.165 276.78C163.844 274.597 161.714 267.346 163.286 264.069C164.897 260.709 167.926 258.393 170.385 256.751C171.703 255.87 173.693 254.7 175.747 254.7C176.398 254.7 177.021 254.819 177.601 255.052C178.911 255.58 179.868 256.671 180.636 257.547L188.611 266.639C190.233 268.488 191.911 270.401 193.276 272.539C193.767 273.308 194.296 274.235 194.498 275.28C194.788 276.784 194.387 278.489 193.34 280.211C191.033 284.006 186.513 286.693 181.251 287.399C180.457 287.506 179.739 287.557 179.057 287.557Z" fill="#E7FFF1"/>
<path d="M175.746 255.474C176.275 255.474 176.8 255.564 177.311 255.77C178.426 256.219 179.261 257.153 180.054 258.057L188.028 267.149C189.658 269.007 191.293 270.873 192.623 272.956C193.112 273.722 193.565 274.534 193.737 275.427C194.028 276.937 193.477 278.495 192.678 279.809C190.279 283.755 185.724 286.018 181.147 286.632C180.457 286.725 179.755 286.784 179.056 286.784C177.98 286.784 176.911 286.644 175.904 286.274C174.644 285.811 173.539 285.009 172.508 284.151C169.866 281.949 167.608 279.323 165.827 276.38C164.607 274.363 162.554 267.381 163.983 264.404C165.412 261.427 168.067 259.229 170.814 257.394C172.292 256.408 174.041 255.474 175.746 255.474ZM175.746 253.926C173.482 253.926 171.357 255.171 169.955 256.107C167.414 257.804 164.281 260.205 162.588 263.734C160.783 267.495 163.304 275.198 164.503 277.181C166.37 280.272 168.741 283.03 171.518 285.34C172.489 286.149 173.805 287.151 175.37 287.727C176.477 288.134 177.683 288.332 179.057 288.332C179.774 288.332 180.525 288.277 181.353 288.166C186.845 287.429 191.573 284.605 194.001 280.613C195.15 278.725 195.584 276.83 195.257 275.134C195.031 273.961 194.458 272.954 193.928 272.123C192.531 269.935 190.834 268 189.192 266.128L181.218 257.037C180.395 256.098 179.371 254.931 177.889 254.334C177.208 254.062 176.48 253.923 175.746 253.926Z" fill="#5B7776"/>
<path d="M163.401 293.695C162.413 293.695 161.445 293.549 160.538 293.399C158.745 293.102 156.677 292.707 154.838 291.769C152.778 290.716 151.27 289.051 150.701 287.199C150.328 285.986 150.343 284.727 150.394 283.436C150.468 281.605 150.586 279.659 151.141 277.769C151.58 276.275 152.498 274.198 154.374 272.792C154.494 272.707 155.395 272.101 156.527 272.101C156.785 272.101 157.038 272.133 157.278 272.197C158.647 272.556 159.644 273.58 160.471 274.51L164.349 279.256L166.104 281.499C167.161 282.849 168.361 284.381 168.951 286.197C169.645 288.329 169.296 290.52 168.04 291.913C167.178 292.869 165.864 293.484 164.34 293.647C164.04 293.679 163.725 293.695 163.401 293.695Z" fill="#E7FFF1"/>
<path d="M156.527 272.874C156.707 272.874 156.894 272.894 157.082 272.944C158.227 273.245 159.107 274.139 159.894 275.023L163.74 279.732L165.495 281.975C166.575 283.354 167.674 284.771 168.216 286.435C168.758 288.099 168.638 290.093 167.466 291.394C166.659 292.289 165.456 292.749 164.258 292.876C163.974 292.906 163.688 292.921 163.401 292.92C162.487 292.92 161.57 292.783 160.665 292.634C158.786 292.323 156.887 291.945 155.191 291.078C153.495 290.211 152.001 288.791 151.441 286.971C151.095 285.845 151.121 284.642 151.168 283.466C151.242 281.62 151.364 279.757 151.885 277.985C152.406 276.213 153.36 274.518 154.839 273.409C154.839 273.409 155.606 272.874 156.527 272.874ZM156.527 271.326C155.608 271.345 154.714 271.628 153.952 272.141L153.931 272.156L153.91 272.172C152.29 273.386 151.076 275.245 150.399 277.55C149.819 279.525 149.697 281.525 149.622 283.404C149.567 284.765 149.553 286.097 149.961 287.426C150.592 289.476 152.241 291.31 154.487 292.457C156.424 293.446 158.562 293.855 160.413 294.161C161.351 294.316 162.355 294.468 163.401 294.468C163.752 294.468 164.096 294.45 164.423 294.416C166.137 294.233 167.626 293.528 168.615 292.431C170.056 290.833 170.467 288.352 169.688 285.957C169.054 284.011 167.81 282.422 166.713 281.021L164.959 278.779L161.05 273.996C160.147 272.98 159.052 271.862 157.475 271.448C157.165 271.367 156.847 271.326 156.527 271.326Z" fill="#5B7776"/>
<path d="M201.928 302.852C201.297 302.852 200.654 302.771 200.017 302.612C198.31 302.185 196.811 301.266 195.697 300.512C194.033 299.388 192.477 298.112 191.048 296.701C188.427 294.109 187.262 291.584 187.584 289.197C187.837 287.322 189.069 285.513 190.965 284.234C192.584 283.141 194.413 282.546 196.183 281.973C196.527 281.812 198.984 280.644 200.165 279.619L200.873 278.96C201.314 278.534 201.771 278.094 202.309 277.722C203.404 276.966 204.761 276.566 206.233 276.566C207.62 276.566 209.041 276.911 210.342 277.564C212.838 278.816 214.688 280.917 216.226 282.789C217.429 284.252 218.779 285.984 219.569 288.024C220.656 290.831 220.577 294.016 219.352 296.765C218.987 297.586 218.592 298.183 218.109 298.642C217.23 299.478 216.079 299.834 215.069 300.072C213.542 300.432 211.98 300.622 210.412 300.637H209.422C208.375 300.637 207.366 300.672 206.531 301.101C206.275 301.231 206.025 301.405 205.76 301.59L205.013 302.077C204.129 302.584 203.062 302.852 201.928 302.852Z" fill="#E7FFF1"/>
<path d="M206.234 277.341C207.524 277.341 208.841 277.677 209.995 278.256C212.261 279.393 214.019 281.322 215.629 283.281C216.898 284.824 218.126 286.441 218.848 288.304C219.853 290.94 219.78 293.867 218.646 296.45C218.379 297.048 218.05 297.631 217.576 298.082C216.853 298.769 215.862 299.09 214.892 299.318C213.421 299.665 211.915 299.848 210.404 299.863L210.095 299.864C209.872 299.864 209.647 299.863 209.422 299.863C208.296 299.863 207.167 299.905 206.178 300.411C205.632 300.692 205.162 301.099 204.629 301.404C203.812 301.873 202.874 302.077 201.928 302.077C201.348 302.077 200.765 302.001 200.205 301.861C198.731 301.492 197.389 300.721 196.131 299.87C194.506 298.773 192.987 297.528 191.592 296.15C189.729 294.307 188 291.898 188.351 289.3C188.598 287.471 189.868 285.907 191.399 284.875C192.93 283.843 194.711 283.262 196.467 282.694C196.467 282.694 199.308 281.387 200.673 280.203C201.373 279.595 201.987 278.885 202.749 278.358C203.773 277.652 204.991 277.341 206.234 277.341ZM206.234 275.793C204.604 275.793 203.095 276.24 201.87 277.086C201.279 277.494 200.8 277.956 200.336 278.403L199.659 279.035C198.71 279.858 196.7 280.878 195.902 281.252C194.173 281.811 192.228 282.449 190.533 283.593C188.455 284.995 187.1 287 186.818 289.094C186.461 291.734 187.701 294.479 190.504 297.251C191.967 298.696 193.561 300.002 195.265 301.153C196.432 301.942 198.006 302.906 199.83 303.363C200.529 303.537 201.235 303.626 201.929 303.626C203.197 303.626 204.397 303.322 205.399 302.748C205.696 302.578 205.966 302.391 206.204 302.225L206.885 301.79C207.567 301.44 208.474 301.411 209.423 301.411L209.755 301.412H210.096C211.83 301.42 213.56 301.223 215.248 300.825C216.358 300.564 217.63 300.166 218.643 299.204C219.202 298.671 219.652 297.996 220.06 297.079C221.367 294.121 221.451 290.765 220.292 287.745C219.459 285.597 218.066 283.807 216.825 282.297C215.12 280.223 213.196 278.13 210.69 276.872C209.282 276.166 207.741 275.793 206.234 275.793Z" fill="#5B7776"/>
<path d="M218.947 280.248C217.798 280.248 216.621 279.84 215.242 278.963L214.237 278.288C213.54 277.807 212.881 277.352 212.164 277.028L211.488 276.748C210.705 276.44 209.818 276.09 209.186 275.34C208.381 274.384 208.166 272.93 208.595 271.352C209.303 268.751 211.253 266.734 212.658 265.443L214.146 264.045L214.224 264C214.878 263.624 215.652 263.412 216.66 263.333L217.461 263.301C220.213 263.301 222.861 264.422 224.544 266.301C226.598 268.593 227.145 272.013 225.874 274.616C225.489 275.405 224.955 276.106 224.484 276.7C223.234 278.282 221.504 280.113 219.201 280.241L218.947 280.248Z" fill="#E7FFF1"/>
<path d="M217.461 264.074C219.893 264.074 222.349 265.009 223.968 266.816C225.751 268.807 226.351 271.873 225.178 274.275C224.835 274.977 224.361 275.606 223.877 276.219C222.655 277.765 221.126 279.358 219.158 279.467L218.947 279.473C217.776 279.473 216.652 278.941 215.657 278.309C214.603 277.638 213.622 276.837 212.483 276.321C211.537 275.893 210.447 275.635 209.779 274.841C209.038 273.961 209.041 272.664 209.343 271.554C209.941 269.356 211.505 267.553 213.183 266.012L214.611 264.67C215.248 264.303 215.989 264.161 216.721 264.103L217.461 264.074ZM217.461 262.526L216.599 262.56C215.472 262.649 214.595 262.893 213.838 263.328L213.682 263.418L213.551 263.542L212.122 264.883C210.659 266.228 208.609 268.353 207.849 271.148C207.352 272.975 207.624 274.684 208.594 275.837C209.352 276.737 210.379 277.142 211.204 277.467L211.844 277.731C212.499 278.027 213.129 278.462 213.797 278.923L214.826 279.614C216.335 280.574 217.644 281.02 218.947 281.02L219.243 281.012C221.855 280.867 223.74 278.887 225.091 277.179C225.586 276.552 226.149 275.812 226.568 274.955C227.974 272.075 227.378 268.304 225.12 265.783C223.265 263.713 220.474 262.526 217.461 262.526Z" fill="#5B7776"/>
<path d="M199.874 276.376C197.702 276.376 196.501 275.216 195.856 274.593C195.379 274.132 195.008 273.616 194.649 273.116L190.727 267.657C189.794 266.359 188.829 265.017 188.16 263.487C187.382 261.707 187.154 259.942 187.503 258.384C187.89 256.653 189.277 255.172 189.336 255.11L189.402 255.04L189.483 254.989C190.695 254.22 192.25 253.813 193.981 253.813H194.129C195.619 253.833 197.055 254.123 198.642 254.472C201.034 254.998 203.164 255.537 205.019 256.8C205.954 257.437 206.771 258.239 207.491 258.947C207.985 259.432 208.6 260.036 208.921 260.84C209.252 261.666 209.215 262.532 209.185 263.227L208.96 267.109C208.887 268.107 208.803 269.006 208.511 269.902C208.281 270.605 207.917 271.315 207.398 272.07C206.047 274.036 204.224 275.432 202.266 275.999C201.39 276.253 200.607 276.376 199.874 276.376Z" fill="#E7FFF1"/>
<path d="M193.981 254.587L194.119 254.588C195.59 254.607 197.04 254.913 198.476 255.228C200.605 255.697 202.783 256.214 204.584 257.44C205.45 258.029 206.203 258.765 206.949 259.499C207.441 259.983 207.946 260.487 208.203 261.128C208.463 261.776 208.442 262.497 208.412 263.193L208.188 267.053C208.124 267.933 208.049 268.822 207.776 269.662C207.546 270.367 207.181 271.021 206.761 271.632C205.617 273.297 203.992 274.694 202.051 275.256C201.209 275.5 200.493 275.602 199.875 275.602C198.151 275.602 197.189 274.804 196.394 274.037C195.969 273.627 195.622 273.144 195.278 272.665L191.355 267.206C190.432 265.922 189.503 264.626 188.87 263.177C188.237 261.728 187.913 260.096 188.258 258.554C188.603 257.012 189.898 255.643 189.898 255.643C191.101 254.879 192.554 254.587 193.981 254.587ZM193.981 253.039C192.104 253.039 190.405 253.488 189.069 254.336L188.907 254.439L188.774 254.578C188.612 254.75 187.173 256.311 186.748 258.216C186.363 259.935 186.607 261.865 187.452 263.797C188.153 265.402 189.142 266.778 190.099 268.109L194.02 273.568C194.381 274.07 194.791 274.641 195.318 275.15C196.395 276.189 197.691 277.15 199.874 277.15C200.681 277.15 201.534 277.017 202.481 276.743C204.611 276.125 206.584 274.622 208.037 272.508C208.598 271.691 208.995 270.917 209.247 270.141C209.592 269.083 209.673 267.975 209.732 267.165L209.958 263.26C209.99 262.532 210.033 261.534 209.639 260.552C209.258 259.599 208.579 258.931 208.034 258.395C207.29 257.664 206.447 256.836 205.455 256.161C203.486 254.82 201.28 254.261 198.809 253.717C197.179 253.358 195.702 253.06 194.139 253.04L193.981 253.039Z" fill="#5B7776"/>
<path d="M192.676 279.791C193.474 278.477 194.026 276.919 193.735 275.409C193.563 274.516 193.11 273.704 192.62 272.938C191.291 270.855 189.655 268.989 188.026 267.131C185.368 264.1 188.42 269.485 187.541 270.304C186.401 271.369 185.185 271.444 183.438 272.053C180.318 273.138 175.687 272.205 172.039 272.813C168.781 273.355 164.605 274.345 165.824 276.362C167.605 279.305 169.863 281.931 172.506 284.133C173.537 284.992 174.642 285.793 175.902 286.256C177.562 286.866 179.391 286.85 181.145 286.615C185.722 286 190.277 283.737 192.676 279.791ZM165.491 281.957L163.737 279.714C162.487 278.118 161.237 276.52 159.89 275.005C159.104 274.121 163.959 280.791 163.984 284.135C164.009 287.479 163.806 288.876 162.085 290.012C160.272 291.206 158.133 289.91 155.094 288.695C152.055 287.48 151.144 282.655 151.091 283.832C150.965 286.643 151.712 289.415 155.188 291.061C157.678 292.241 158.782 292.307 160.662 292.617C161.849 292.814 163.057 292.987 164.255 292.859C165.453 292.731 166.656 292.272 167.462 291.377C168.635 290.077 168.755 288.084 168.213 286.419C167.671 284.754 166.571 283.336 165.491 281.957ZM215.877 283.365C214.252 281.406 213.583 280.892 212.663 280.082C210.751 278.398 218.296 288.773 216.19 290.214C215.421 290.741 213.625 291.988 212.919 292.596C211.541 293.78 203.869 294.47 203.869 294.47C202.096 295.037 198.398 293.963 194.871 291.937C193.259 291.011 188.596 287.556 188.347 289.385C187.993 291.983 189.738 294.391 191.618 296.235C193.027 297.614 194.56 298.859 196.198 299.955C197.469 300.805 198.823 301.576 200.31 301.945C201.797 302.314 203.445 302.244 204.775 301.489C205.313 301.184 205.787 300.776 206.338 300.496C207.627 299.842 209.155 299.962 210.604 299.948C212.129 299.932 213.647 299.749 215.133 299.403C216.111 299.174 217.112 298.853 217.841 298.166C218.32 297.715 218.652 297.132 218.921 296.535C220.067 293.954 220.14 291.023 219.125 288.388C218.397 286.525 217.156 284.907 215.877 283.365ZM224.32 266.999C222.233 265.354 224.216 268.465 223.38 269.719C222.973 270.33 221.557 271.922 220.227 271.428L215.326 271.162C213.388 271.808 210.1 269.55 209.502 271.749C209.2 272.858 208.951 273.87 209.692 274.75C210.361 275.545 211.937 276.031 212.883 276.46C214.022 276.975 214.983 277.879 216.037 278.549C217.091 279.219 218.146 279.465 219.394 279.396C221.362 279.287 222.891 277.694 224.112 276.148C224.597 275.535 225.071 274.906 225.414 274.204C226.587 271.802 226.419 268.654 224.32 266.999ZM191.35 267.187L195.273 272.646C195.618 273.126 195.964 273.608 196.389 274.019C197.468 275.061 198.857 276.16 202.047 275.237C203.987 274.675 205.612 273.278 206.757 271.613C207.176 271.002 207.541 270.348 207.771 269.643C208.044 268.804 208.119 267.914 208.184 267.034L208.407 263.175C208.438 262.478 208.458 261.757 208.198 261.109C207.942 260.468 207.437 259.964 206.944 259.48C206.198 258.746 206.261 258.472 206.159 259.514C205.962 261.515 206.501 261.147 205.399 261.692C204.08 262.344 203.551 261.664 202.309 262.452C202.309 262.452 200.941 263.313 199.725 263.972C198.335 264.725 195.379 266.403 193.798 266.403C192.936 266.404 190.428 265.903 191.35 267.187Z" fill="#94BFAC"/>
<path d="M265.594 20V380H20.0938V20H265.594ZM269.425 0H16.2638C7.33275 0 0.09375 7.239 0.09375 16.169V383.83C0.09375 392.761 7.33275 400 16.2638 400H269.425C278.355 400 285.594 392.761 285.594 383.83V16.169C285.594 7.239 278.354 0 269.425 0Z" fill="#62C15A"/>
<path d="M269.425 10C271.06 10.0021 272.628 10.6527 273.785 11.8092C274.941 12.9656 275.592 14.5335 275.594 16.169V383.83C275.592 385.466 274.941 387.034 273.785 388.19C272.628 389.347 271.06 389.998 269.425 390H16.2638C14.6279 389.998 13.0596 389.348 11.9029 388.191C10.7462 387.034 10.0956 385.466 10.0938 383.83V16.169C10.0959 14.5334 10.7466 12.9653 11.9033 11.8088C13.06 10.6524 14.6281 10.0019 16.2638 10H269.425ZM269.425 0H16.2638C7.33275 0 0.09375 7.239 0.09375 16.169V383.83C0.09375 392.761 7.33275 400 16.2638 400H269.425C278.355 400 285.594 392.761 285.594 383.83V16.169C285.594 7.239 278.354 0 269.425 0Z" fill="#414042"/>
</g>
</g>
<defs>
<radialGradient id="paint0_radial_3331_1956" cx="0" cy="0" r="1" gradientUnits="userSpaceOnUse" gradientTransform="translate(142.844 200) scale(175.249 175.25)">
<stop stop-color="#8AD147"/>
<stop offset="0.5" stop-color="#5FB248"/>
<stop offset="1" stop-color="#399346"/>
</radialGradient>
<radialGradient id="paint1_radial_3331_1956" cx="0" cy="0" r="1" gradientUnits="userSpaceOnUse" gradientTransform="translate(116.377 256.342) rotate(-90) scale(73.3014 89.8319)">
<stop stop-color="#C2E1D8"/>
<stop offset="0.213" stop-color="#B9DAD0"/>
<stop offset="0.56" stop-color="#A1C8BB"/>
<stop offset="0.997" stop-color="#79AA98"/>
<stop offset="1" stop-color="#79AA98"/>
</radialGradient>
<radialGradient id="paint2_radial_3331_1956" cx="0" cy="0" r="1" gradientUnits="userSpaceOnUse" gradientTransform="translate(187.981 278.513) rotate(-90) scale(63.4153 65.4134)">
<stop stop-color="#C2E1D8"/>
<stop offset="0.213" stop-color="#B9DAD0"/>
<stop offset="0.56" stop-color="#A1C8BB"/>
<stop offset="0.997" stop-color="#79AA98"/>
<stop offset="1" stop-color="#79AA98"/>
</radialGradient>
<clipPath id="clip0_3331_1956">
<rect width="292" height="407" fill="white"/>
</clipPath>
</defs>
</svg>
