<svg width="292" height="407" viewBox="0 0 292 407" fill="none" xmlns="http://www.w3.org/2000/svg">
<g clip-path="url(#clip0_930_3363)">
<path d="M16.2642 390C14.6284 389.998 13.0601 389.348 11.9034 388.191C10.7467 387.034 10.0961 385.466 10.0942 383.83V16.169C10.0964 14.5334 10.7471 12.9653 11.9038 11.8088C13.0605 10.6524 14.6286 10.0019 16.2642 10H269.425C271.061 10.0021 272.629 10.6527 273.785 11.8092C274.941 12.9656 275.592 14.5335 275.594 16.169V383.83C275.592 385.466 274.942 387.034 273.785 388.19C272.629 389.347 271.061 389.998 269.425 390H16.2642Z" fill="url(#paint0_radial_930_3363)"/>
<path d="M265.594 20V380H20.0942V20H265.594ZM269.425 0H16.2642C7.33324 0 0.0942383 7.239 0.0942383 16.169V383.83C0.0942383 392.761 7.33324 400 16.2642 400H269.425C278.355 400 285.594 392.761 285.594 383.83V16.169C285.594 7.239 278.354 0 269.425 0Z" fill="#CDEBFF"/>
<path d="M269.425 10C271.061 10.0021 272.629 10.6527 273.785 11.8092C274.941 12.9656 275.592 14.5335 275.594 16.169V383.83C275.592 385.466 274.942 387.034 273.785 388.19C272.629 389.347 271.061 389.998 269.425 390H16.2642C14.6284 389.998 13.0601 389.348 11.9034 388.191C10.7467 387.034 10.0961 385.466 10.0942 383.83V16.169C10.0964 14.5334 10.7471 12.9653 11.9038 11.8088C13.0605 10.6524 14.6286 10.0019 16.2642 10H269.425ZM269.425 0H16.2642C7.33324 0 0.0942383 7.239 0.0942383 16.169V383.83C0.0942383 392.761 7.33324 400 16.2642 400H269.425C278.355 400 285.594 392.761 285.594 383.83V16.169C285.594 7.239 278.354 0 269.425 0Z" fill="#414042"/>
<path d="M51.6211 174.644C51.3436 174.629 51.0813 174.512 50.8843 174.316C50.6873 174.12 50.5694 173.858 50.5531 173.581L50.1271 167.176C50.1141 166.878 50.2129 166.586 50.4041 166.358L71.5051 141.049C71.7191 140.806 72.0311 140.66 72.3591 140.66C72.6901 140.66 73.0051 140.806 73.2231 141.049L94.3351 166.374C94.5591 166.656 94.6411 167.023 94.5591 167.375L93.0321 173.781C92.9061 174.277 92.4721 174.629 91.9641 174.643H51.6211V174.644ZM122.343 151.72C122.057 151.712 121.783 151.599 121.576 151.402C121.369 151.204 121.242 150.936 121.221 150.651L120.804 144.246C120.792 143.97 120.88 143.698 121.051 143.482L142.173 118.126C142.372 117.898 142.653 117.758 142.955 117.736C143.257 117.715 143.555 117.814 143.784 118.012C143.826 118.042 143.866 118.088 143.903 118.126L165.004 143.458C165.226 143.733 165.314 144.093 165.241 144.437L163.712 150.849C163.582 151.338 163.15 151.682 162.642 151.713L122.343 151.72ZM193.194 174.644C192.917 174.629 192.655 174.512 192.458 174.316C192.261 174.12 192.144 173.858 192.128 173.581L191.7 167.176C191.688 166.895 191.776 166.619 191.948 166.397L213.068 141.049C213.29 140.806 213.603 140.66 213.932 140.66C214.264 140.66 214.582 140.806 214.795 141.049L235.899 166.374C236.125 166.649 236.209 167.023 236.121 167.375L234.607 173.781C234.477 174.277 234.042 174.629 233.537 174.643H193.194V174.644Z" fill="#81635E"/>
<path d="M143.027 118.798L157.772 151.912L159.675 151.873L159.247 148.518L159.752 140.231L162.271 140.171L143.027 118.798ZM213.878 141.761L228.623 174.874L230.525 174.828L230.09 171.48L230.591 163.186L233.109 163.126L213.878 141.761ZM72.2935 141.776L87.0405 174.881L88.9415 174.851L88.5045 171.495L89.0045 163.209L91.5255 163.133L72.2935 141.776Z" fill="#715B57"/>
<path d="M213.889 141.775L234.997 167.098L233.461 173.579H193.193L192.765 167.174L213.877 141.843M213.878 139.703C213.556 139.708 213.239 139.781 212.947 139.918C212.656 140.055 212.397 140.253 212.188 140.498L191.08 165.83C190.72 166.258 190.537 166.815 190.568 167.374L190.985 173.78C191.023 174.339 191.272 174.863 191.68 175.245C192.089 175.628 192.627 175.842 193.187 175.843H233.462C233.956 175.84 234.434 175.672 234.821 175.366C235.207 175.06 235.481 174.634 235.598 174.154L237.139 167.749C237.211 167.416 237.208 167.071 237.13 166.739C237.052 166.407 236.901 166.097 236.688 165.83L215.576 140.498C215.366 140.253 215.106 140.055 214.813 139.918C214.52 139.781 214.202 139.708 213.878 139.703ZM72.3143 141.775L93.4263 167.098L91.8993 173.503H51.6213L51.2043 167.098L72.3143 141.766M72.3143 139.634C71.9929 139.635 71.6755 139.706 71.3843 139.842C71.0931 139.978 70.8351 140.176 70.6283 140.422L49.5163 165.753C49.1611 166.188 48.9787 166.738 49.0043 167.298L49.4293 173.702C49.4631 174.251 49.7013 174.767 50.0969 175.149C50.4924 175.531 51.0167 175.751 51.5663 175.765H91.8453C92.3386 175.759 92.8158 175.589 93.202 175.282C93.5882 174.975 93.8616 174.548 93.9793 174.069L95.5083 167.664C95.5807 167.33 95.5779 166.984 95.5003 166.651C95.4226 166.318 95.272 166.006 95.0593 165.738L73.9473 140.414C73.7372 140.169 73.4772 139.971 73.1846 139.834C72.8919 139.697 72.5734 139.624 72.2503 139.619L72.3143 139.634ZM143.039 118.821L164.14 144.152L162.611 150.557H122.343L121.917 144.152L143.027 118.821M143.027 116.688C142.371 116.688 141.75 116.986 141.33 117.482L120.271 142.768C119.91 143.205 119.727 143.762 119.759 144.328L120.176 150.74C120.215 151.297 120.463 151.819 120.872 152.199C121.28 152.58 121.818 152.791 122.376 152.789H162.657C163.149 152.782 163.624 152.612 164.01 152.307C164.395 152.001 164.669 151.577 164.789 151.1L166.318 144.695C166.396 144.361 166.396 144.014 166.317 143.68C166.239 143.346 166.085 143.034 165.867 142.769L144.727 117.452C144.521 117.204 144.263 117.004 143.972 116.866C143.68 116.727 143.362 116.654 143.039 116.65L143.027 116.688Z" fill="#414343"/>
<path d="M119.557 164.845H166.593C167.189 164.845 167.671 165.326 167.671 165.922V211.851C167.671 212.447 167.19 212.928 166.593 212.928H119.557C118.961 212.928 118.477 212.447 118.477 211.851V165.922C118.477 165.326 118.96 164.845 119.557 164.845Z" fill="#CECECE"/>
<path d="M166.604 165.931V211.851H119.566V165.931H166.604ZM166.604 163.798H119.566C119.286 163.798 119.008 163.853 118.749 163.96C118.49 164.067 118.255 164.224 118.057 164.422C117.859 164.62 117.701 164.855 117.594 165.114C117.487 165.373 117.431 165.651 117.431 165.931V211.851C117.431 213.028 118.387 213.984 119.566 213.984H166.604C166.884 213.984 167.162 213.929 167.421 213.822C167.68 213.715 167.916 213.558 168.114 213.36C168.312 213.162 168.47 212.927 168.577 212.668C168.685 212.409 168.74 212.131 168.74 211.851V165.931C168.74 165.65 168.685 165.373 168.577 165.114C168.47 164.855 168.313 164.62 168.114 164.422C167.916 164.223 167.68 164.066 167.421 163.959C167.162 163.852 166.885 163.797 166.604 163.798Z" fill="#414342"/>
<path d="M101.051 283.312C100.768 283.312 100.496 283.199 100.296 282.998C100.096 282.797 99.9835 282.526 99.9835 282.242L97.5815 203.022C97.5755 202.877 97.599 202.733 97.6507 202.598C97.7023 202.462 97.7809 202.339 97.8817 202.235C97.9826 202.131 98.1035 202.048 98.2372 201.993C98.3709 201.937 98.5146 201.909 98.6595 201.91H111.355C111.945 201.91 112.423 202.384 112.423 202.976V212.584H122.962V202.976C122.962 202.383 123.44 201.91 124.03 201.91H136.738C137.326 201.91 137.806 202.384 137.806 202.976V212.584H148.347V202.976C148.347 202.383 148.821 201.91 149.413 201.91H162.121C162.709 201.91 163.187 202.384 163.187 202.976V212.584H173.728V202.976C173.728 202.383 174.206 201.91 174.794 201.91H187.544C187.838 201.91 188.122 202.024 188.324 202.238C188.526 202.452 188.634 202.731 188.622 203.022L186.191 282.264C186.191 282.853 185.71 283.334 185.121 283.334L101.051 283.312Z" fill="#CECECE"/>
<path d="M177.432 201.985L174.894 273.06C174.869 273.548 174.657 274.008 174.303 274.345C173.949 274.682 173.479 274.871 172.99 274.872H101.712V283.227H184.609V274.872H184.192L187.544 201.863L177.432 201.985Z" fill="#ABACAB"/>
<path d="M43.7504 283.335C43.5986 283.335 43.4486 283.303 43.3101 283.241C43.1716 283.179 43.0478 283.088 42.947 282.975C42.8461 282.861 42.7705 282.728 42.7251 282.583C42.6796 282.438 42.6654 282.285 42.6834 282.135L46.7194 189.594L42.8534 184.206C42.7237 184.016 42.6531 183.793 42.6504 183.564V164.125C42.6504 163.536 43.1284 163.063 43.7184 163.063H55.1654C55.7554 163.063 56.2334 163.536 56.2334 164.125V174.375H65.5334V164.125C65.5334 163.536 66.0114 163.063 66.6014 163.063H78.0594C78.2026 163.061 78.3447 163.088 78.477 163.143C78.6092 163.198 78.7288 163.28 78.8284 163.383C79.0284 163.582 79.1394 163.857 79.1374 164.139V174.39H88.4494V164.141C88.4496 163.857 88.5624 163.585 88.7628 163.385C88.9632 163.185 89.235 163.072 89.5184 163.072H101.051C101.334 163.073 101.605 163.186 101.805 163.386C102.005 163.586 102.117 163.858 102.117 164.141V183.541C102.117 183.771 102.042 184.001 101.905 184.184L98.0494 189.595L102.117 282.181C102.129 282.32 102.113 282.461 102.07 282.594C102.026 282.727 101.957 282.851 101.866 282.957C101.775 283.064 101.664 283.151 101.539 283.215C101.414 283.278 101.278 283.316 101.138 283.327C101.11 283.327 101.079 283.335 101.051 283.335H43.7504Z" fill="#CECECE"/>
<path d="M166.593 212.927L163.168 212.568L163.05 201.718H159.92V167.328L166.566 167.424L166.593 212.927Z" fill="#ABACAB"/>
<path d="M187.544 203.006L185.098 282.25H101.028L98.6264 203.029H111.323V213.708H124.031V203.029H136.739V213.708H149.434V203.029H162.145V213.708H174.841V203.029H187.545M187.544 200.893H174.84C173.655 200.893 172.7 201.848 172.7 203.03V211.576H164.319V203.03C164.32 202.749 164.265 202.471 164.157 202.212C164.05 201.952 163.893 201.717 163.694 201.518C163.496 201.32 163.26 201.162 163.001 201.055C162.742 200.948 162.464 200.892 162.183 200.893H149.479C149.199 200.892 148.921 200.948 148.662 201.055C148.402 201.162 148.167 201.32 147.968 201.518C147.77 201.717 147.613 201.952 147.505 202.212C147.398 202.471 147.343 202.749 147.343 203.03V211.576H138.959V203.03C138.96 202.749 138.905 202.471 138.797 202.212C138.69 201.952 138.533 201.717 138.334 201.518C138.136 201.32 137.9 201.162 137.641 201.055C137.382 200.948 137.104 200.892 136.823 200.893H124.117C123.837 200.892 123.559 200.948 123.3 201.055C123.04 201.162 122.805 201.32 122.606 201.518C122.408 201.717 122.251 201.952 122.143 202.212C122.036 202.471 121.981 202.749 121.981 203.03V211.576H113.6V203.03C113.6 202.463 113.375 201.919 112.974 201.518C112.574 201.118 112.03 200.893 111.463 200.893H98.6384C98.0554 200.893 97.4954 201.13 97.0884 201.543C96.6794 201.963 96.4594 202.532 96.4804 203.113L98.9154 282.296C98.9154 283.473 99.8714 284.428 101.052 284.428H185.122C185.688 284.427 186.23 284.203 186.63 283.803C187.029 283.403 187.254 282.861 187.254 282.296L189.692 203.167V202.991C189.693 202.71 189.637 202.432 189.53 202.173C189.423 201.914 189.265 201.678 189.067 201.479C188.869 201.281 188.633 201.124 188.374 201.016C188.115 200.909 187.837 200.854 187.556 200.854L187.544 200.893Z" fill="#414342"/>
<path d="M185.144 283.312C184.989 283.309 184.836 283.275 184.695 283.212C184.553 283.148 184.425 283.057 184.319 282.944C184.217 282.833 184.139 282.702 184.092 282.558C184.044 282.415 184.028 282.263 184.044 282.112L188.11 189.594L184.235 184.206V184.106C184.136 183.943 184.085 183.755 184.086 183.564V164.14C184.086 163.857 184.199 163.586 184.398 163.386C184.598 163.185 184.869 163.072 185.152 163.071H196.603C197.192 163.071 197.669 163.552 197.669 164.14V174.375H206.979V164.14C206.979 163.857 207.092 163.586 207.291 163.386C207.491 163.185 207.762 163.072 208.045 163.071H219.579C219.87 163.071 220.144 163.185 220.351 163.392C220.55 163.59 220.661 163.866 220.657 164.149V174.391H229.96V164.149C229.96 163.561 230.438 163.079 231.03 163.079H242.473C242.763 163.079 243.038 163.193 243.245 163.4C243.444 163.606 243.555 163.874 243.55 164.165V183.565C243.55 183.754 243.505 183.939 243.413 184.107L243.352 184.207L239.431 189.595L243.513 282.189C243.534 282.472 243.443 282.751 243.26 282.967C243.077 283.183 242.816 283.319 242.534 283.344H242.442L185.144 283.312Z" fill="#CECECE"/>
<path d="M72.2931 209.625C70.8299 209.699 69.4533 210.341 68.4562 211.415C67.4591 212.488 66.9202 213.908 66.9541 215.373V227.634H77.8141V215.228C77.8289 214.507 77.7013 213.791 77.4387 213.119C77.1761 212.448 76.7837 211.834 76.2839 211.315C75.7841 210.795 75.1867 210.379 74.526 210.091C73.8652 209.802 73.154 209.647 72.4331 209.633C72.3871 209.625 72.3411 209.625 72.2931 209.625ZM213.663 209.625C212.201 209.702 210.826 210.344 209.83 211.418C208.834 212.491 208.295 213.91 208.328 215.373V227.634H219.197V215.228C219.21 214.506 219.08 213.788 218.816 213.116C218.551 212.444 218.156 211.831 217.655 211.311C217.153 210.792 216.554 210.376 215.891 210.088C215.229 209.8 214.516 209.646 213.794 209.633C213.752 209.625 213.709 209.625 213.663 209.625ZM142.696 175.866C141.402 175.931 140.185 176.499 139.303 177.448C138.421 178.398 137.945 179.654 137.976 180.949V191.734H147.586V180.766C147.6 179.481 147.103 178.242 146.204 177.324C145.305 176.405 144.078 175.88 142.792 175.866H142.696Z" fill="#595959" stroke="#414342" stroke-width="2" stroke-linejoin="round"/>
<path d="M43.0142 274.873L42.5972 283.068H102.471L98.1352 190.397L89.3792 190.229L91.3112 272.885C91.3188 273.138 91.2761 273.391 91.1857 273.629C91.0953 273.866 90.9589 274.084 90.7843 274.268C90.6097 274.453 90.4004 274.601 90.1684 274.705C89.9364 274.808 89.6862 274.865 89.4322 274.872H43.0142V274.873ZM184.235 274.873L183.818 283.068H243.692L239.355 190.397L230.603 190.229L232.544 273.168C232.55 273.386 232.512 273.603 232.434 273.807C232.355 274.011 232.237 274.197 232.087 274.355C231.936 274.513 231.756 274.641 231.556 274.729C231.357 274.818 231.141 274.866 230.923 274.872H184.235V274.873Z" fill="#ABACAB"/>
<path d="M129.616 283.335V252.577C129.616 244.421 135.53 237.693 142.804 237.562H143.016C150.404 237.562 156.427 244.076 156.427 252.087V283.343H155.307L129.616 283.335Z" fill="#595959"/>
<path d="M142.985 238.589C149.799 238.589 155.307 244.612 155.307 252.034V282.212H130.747V252.524C130.747 245.048 136.086 238.711 142.878 238.642H143.069M143.069 236.509H142.834C134.977 236.647 128.581 243.856 128.581 252.6V282.288C128.581 283.504 129.564 284.481 130.78 284.481H155.342C155.63 284.481 155.916 284.425 156.183 284.315C156.449 284.205 156.692 284.044 156.896 283.84C157.1 283.636 157.262 283.394 157.372 283.128C157.482 282.862 157.539 282.576 157.539 282.288V252.034C157.539 243.427 151.039 236.433 143.048 236.433L143.069 236.509Z" fill="#414342"/>
<path d="M163.497 143.732L172.467 142.923L173.002 160.946L167.632 167.329H159.385L163.436 160.541L163.497 143.732Z" fill="black"/>
<path d="M92.9893 163.331L101.777 163.147L102.364 184.022L96.9922 190.405H88.7603L92.7962 183.624L92.9893 163.331Z" fill="#ABACAB"/>
<path d="M118.403 167.299C118.232 167.302 118.063 167.263 117.911 167.186C117.758 167.108 117.627 166.995 117.528 166.856L113.439 161.162C113.309 160.972 113.238 160.748 113.236 160.519V141.089C113.236 140.5 113.714 140.019 114.302 140.019H125.74C126.024 140.019 126.295 140.132 126.496 140.333C126.696 140.533 126.808 140.805 126.808 141.089V151.324H136.108V141.119C136.109 140.835 136.221 140.564 136.421 140.363C136.622 140.163 136.893 140.05 137.176 140.05H148.634C149.223 140.05 149.7 140.53 149.7 141.119V151.362H159.01V141.119C159.01 140.53 159.492 140.05 160.08 140.05H171.538C171.821 140.05 172.096 140.164 172.295 140.363C172.502 140.562 172.616 140.838 172.616 141.128V160.535C172.615 160.726 172.563 160.913 172.467 161.079L172.402 161.17L168.324 166.864C168.223 167.004 168.089 167.118 167.935 167.196C167.781 167.275 167.61 167.316 167.437 167.316L118.403 167.299Z" fill="#CECECE"/>
<path d="M234.371 163.309L243.161 163.126L243.757 184.001L238.384 190.391H230.144L234.179 183.61L234.371 163.309ZM163.635 140.064L172.433 139.881L173.021 160.764L167.651 167.138H159.408L163.455 160.358L163.635 140.064Z" fill="#ABACAB"/>
<path d="M43.7612 164.125H55.2072V175.461H66.6762V164.125H78.1342V175.461H89.6022V164.148H101.05V183.556L96.9612 189.243L101.05 282.235H43.7502L47.8412 189.267L43.7502 183.572V164.126M43.7502 161.992C43.1843 161.992 42.6416 162.217 42.2413 162.617C41.8409 163.017 41.6158 163.559 41.6152 164.125V183.564C41.6172 184.022 41.7622 184.473 42.0322 184.847L45.6842 189.93L41.6252 282.141C41.5952 282.73 41.8032 283.303 42.2032 283.723C42.6202 284.167 43.1992 284.419 43.8052 284.419H101.053C101.659 284.419 102.238 284.167 102.654 283.723C103.053 283.303 103.262 282.73 103.231 282.141L99.1722 189.93L102.824 184.832C103.096 184.465 103.242 184.02 103.241 183.563V164.147C103.241 163.582 103.016 163.039 102.615 162.64C102.215 162.24 101.673 162.015 101.107 162.015H89.6032C89.0374 162.015 88.4947 162.239 88.0943 162.639C87.694 163.039 87.4688 163.581 87.4682 164.147V173.311H80.3232V164.163C80.3254 163.876 80.2698 163.591 80.1597 163.326C80.0495 163.061 79.8872 162.82 79.6822 162.619C79.4818 162.419 79.2438 162.261 78.9819 162.153C78.72 162.045 78.4394 161.99 78.1562 161.991H66.6772C66.1113 161.991 65.5684 162.216 65.1679 162.616C64.7674 163.016 64.542 163.558 64.5412 164.124V173.29H57.3972V164.139C57.3972 162.955 56.4422 161.999 55.2612 161.999H43.8262L43.7502 161.992ZM114.346 141.095H125.793V152.416H137.251V141.095H148.708V152.416H160.177V141.117H171.635V160.517L167.545 166.211H118.424L114.335 160.517V141.095M114.334 138.909C113.768 138.909 113.226 139.133 112.825 139.533C112.425 139.933 112.2 140.475 112.199 141.041V160.479C112.201 160.93 112.348 161.373 112.616 161.748L116.694 167.436C116.893 167.718 117.157 167.947 117.464 168.104C117.771 168.261 118.112 168.341 118.456 168.337H167.579C167.923 168.34 168.263 168.26 168.569 168.103C168.875 167.946 169.139 167.717 169.337 167.436L173.419 161.748C173.687 161.373 173.832 160.931 173.832 160.479V141.117C173.832 139.939 172.877 138.977 171.699 138.977H160.188C159.622 138.979 159.079 139.205 158.678 139.606C158.278 140.007 158.053 140.55 158.052 141.117V150.275H150.908V141.117C150.908 140.55 150.683 140.006 150.283 139.605C149.882 139.204 149.338 138.978 148.771 138.977H137.262C136.695 138.978 136.152 139.204 135.751 139.605C135.35 140.006 135.125 140.55 135.125 141.117V150.275H127.981V141.117C127.981 140.55 127.756 140.007 127.356 139.605C126.955 139.204 126.412 138.978 125.845 138.977H114.408L114.334 138.909ZM185.152 164.11H196.588V175.438H208.046V164.125H219.58V175.461H231.038V164.125H242.489V183.533L238.395 189.22L242.489 282.18H185.145L189.243 189.22L185.165 183.533V164.11M185.152 161.97C184.872 161.971 184.594 162.026 184.335 162.134C184.076 162.242 183.84 162.4 183.642 162.599C183.444 162.798 183.287 163.033 183.181 163.293C183.074 163.553 183.019 163.831 183.02 164.111V183.54C183.02 184 183.165 184.45 183.433 184.825L187.079 189.907L183.02 282.127C183.002 282.407 183.039 282.688 183.129 282.953C183.219 283.219 183.361 283.464 183.546 283.675C183.73 283.885 183.955 284.058 184.207 284.182C184.458 284.306 184.731 284.379 185.011 284.397H242.412C242.693 284.398 242.971 284.344 243.231 284.237C243.49 284.13 243.726 283.973 243.925 283.775C244.124 283.577 244.282 283.341 244.389 283.082C244.497 282.823 244.552 282.545 244.552 282.264C244.552 282.219 244.552 282.173 244.544 282.127L240.489 189.907L244.139 184.809C244.406 184.442 244.552 183.999 244.544 183.539V164.139C244.544 162.955 243.588 161.999 242.412 161.999H230.995C230.714 161.999 230.436 162.055 230.177 162.162C229.917 162.27 229.682 162.427 229.483 162.626C229.285 162.825 229.128 163.061 229.021 163.321C228.914 163.58 228.859 163.858 228.859 164.139V173.297H221.715V164.139C221.715 162.955 220.76 161.999 219.579 161.999H208.06C207.779 161.999 207.501 162.054 207.241 162.162C206.981 162.269 206.745 162.427 206.546 162.626C206.348 162.824 206.19 163.06 206.082 163.32C205.975 163.58 205.919 163.858 205.919 164.139V173.297H198.78V164.139C198.78 162.955 197.825 161.999 196.64 161.999H185.198L185.152 161.97Z" fill="#414342"/>
<path d="M188.11 189.595H239.431M47.2314 189.595H98.5524" stroke="#414342" stroke-width="2" stroke-miterlimit="10"/>
</g>
<defs>
<radialGradient id="paint0_radial_930_3363" cx="0" cy="0" r="1" gradientUnits="userSpaceOnUse" gradientTransform="translate(142.844 200) scale(177.165 177.499)">
<stop stop-color="#A4C7DC"/>
<stop offset="0.495209" stop-color="#85AEC0"/>
<stop offset="1" stop-color="#6696A4"/>
</radialGradient>
<clipPath id="clip0_930_3363">
<rect width="291.969" height="406.205" fill="white"/>
</clipPath>
</defs>
</svg>
