<svg xmlns="http://www.w3.org/2000/svg" width="292" height="407" fill="none" viewBox="0 0 292 407"><g clip-path="url(#clip0_930_3082)"><path fill="url(#paint0_radial_930_3082)" d="M16.2642 390C14.6284 389.998 13.0601 389.348 11.9034 388.191C10.7467 387.034 10.0961 385.466 10.0942 383.83V16.169C10.0964 14.5334 10.7471 12.9653 11.9038 11.8088C13.0605 10.6524 14.6286 10.0019 16.2642 10H269.425C271.061 10.0021 272.629 10.6527 273.785 11.8092C274.941 12.9656 275.592 14.5335 275.594 16.169V383.83C275.592 385.466 274.942 387.034 273.785 388.19C272.629 389.347 271.061 389.998 269.425 390H16.2642Z"/><path fill="url(#paint1_radial_930_3082)" d="M95.7828 149.432C95.5128 149.432 95.2498 149.346 95.0308 149.188C94.8118 149.03 94.6488 148.806 94.5648 148.549L64.0708 56.0488C64.0174 55.8889 63.9964 55.72 64.0089 55.5519C64.0214 55.3839 64.0673 55.22 64.1438 55.0698C64.2328 54.8918 64.4488 54.5738 64.8878 54.4288L128.581 33.4318C128.904 33.3248 129.256 33.3518 129.56 33.5048C129.864 33.6578 130.094 33.9258 130.201 34.2488L160.695 126.749C160.84 127.187 160.712 127.551 160.622 127.728C160.546 127.879 160.442 128.013 160.314 128.123C160.186 128.233 160.038 128.317 159.878 128.369L96.1858 149.367C96.0558 149.409 95.9198 149.431 95.7828 149.432Z"/><path fill="url(#paint2_radial_930_3082)" d="M95.7828 149.432C95.5128 149.432 95.2498 149.346 95.0308 149.188C94.8118 149.03 94.6488 148.806 94.5648 148.549L64.0708 56.0488C64.0174 55.8889 63.9964 55.72 64.0089 55.5519C64.0214 55.3839 64.0673 55.22 64.1438 55.0698C64.2328 54.8918 64.4488 54.5738 64.8878 54.4288L128.581 33.4318C128.904 33.3248 129.256 33.3518 129.56 33.5048C129.864 33.6578 130.094 33.9258 130.201 34.2488L160.695 126.749C160.84 127.187 160.712 127.551 160.622 127.728C160.546 127.879 160.442 128.013 160.314 128.123C160.186 128.233 160.038 128.317 159.878 128.369L96.1858 149.367C96.0558 149.409 95.9198 149.431 95.7828 149.432Z"/><path fill="#66C2E2" d="M127.887 36.8192L157.306 126.056L96.8751 145.979L67.4571 56.7402L127.887 36.8192ZM128.981 30.3662C128.525 30.3662 128.073 30.4391 127.64 30.5822L63.9481 51.5792C63.4139 51.755 62.9195 52.0345 62.4932 52.4015C62.067 52.7685 61.7173 53.2159 61.4641 53.7182C61.2111 54.2202 61.0591 54.7682 61.0171 55.3292C60.9754 55.8902 61.0448 56.454 61.2211 56.9882L91.7151 149.487C91.8912 150.021 92.1708 150.516 92.538 150.942C92.9052 151.368 93.3528 151.717 93.8551 151.97C94.8691 152.482 96.0451 152.569 97.1241 152.214L160.816 131.216C161.35 131.04 161.844 130.761 162.27 130.394C162.697 130.027 163.046 129.58 163.299 129.077C163.553 128.575 163.705 128.028 163.746 127.467C163.788 126.906 163.719 126.342 163.543 125.808L133.049 33.3092C132.767 32.4531 132.221 31.7079 131.491 31.1792C130.761 30.6512 129.882 30.3662 128.981 30.3662Z"/><path fill="#414042" d="M128.982 33.3652C129.252 33.3652 129.515 33.4512 129.734 33.6102C129.953 33.7692 130.115 33.9922 130.2 34.2492L160.694 126.748C160.839 127.186 160.711 127.55 160.621 127.727C160.545 127.878 160.44 128.012 160.312 128.122C160.185 128.232 160.036 128.316 159.876 128.368L96.1841 149.366C96.0238 149.419 95.8545 149.44 95.6861 149.427C95.5179 149.415 95.3538 149.369 95.2031 149.293C95.0524 149.217 94.9181 149.112 94.8081 148.984C94.6981 148.856 94.6141 148.707 94.5621 148.547L64.0701 56.0492C64.0171 55.8892 63.9961 55.7202 64.0081 55.5522C64.0201 55.3842 64.0661 55.2202 64.1431 55.0702C64.2321 54.8922 64.4481 54.5742 64.8881 54.4292L128.579 33.4322C128.709 33.3882 128.845 33.3662 128.982 33.3652ZM128.981 30.3662C128.525 30.3662 128.073 30.4391 127.64 30.5822L63.9481 51.5792C63.4139 51.755 62.9195 52.0345 62.4932 52.4015C62.067 52.7685 61.7173 53.2159 61.4641 53.7182C61.2111 54.2202 61.0591 54.7682 61.0171 55.3292C60.9754 55.8902 61.0448 56.454 61.2211 56.9882L91.7151 149.487C91.8912 150.021 92.1708 150.516 92.538 150.942C92.9052 151.368 93.3528 151.717 93.8551 151.97C94.8691 152.482 96.0451 152.569 97.1241 152.214L160.816 131.216C161.35 131.04 161.844 130.761 162.27 130.394C162.697 130.027 163.046 129.58 163.299 129.077C163.553 128.575 163.705 128.028 163.746 127.467C163.788 126.906 163.719 126.342 163.543 125.808L133.049 33.3092C132.767 32.4531 132.221 31.7079 131.491 31.1792C130.761 30.6512 129.882 30.3662 128.981 30.3662Z"/><path fill="url(#paint3_linear_930_3082)" d="M116.953 114.184C116.527 114.184 116.101 114.141 115.683 114.055C113.346 113.571 111.51 111.945 110.771 109.706C110.032 107.467 110.542 105.066 112.133 103.286C112.881 102.454 113.834 101.831 114.897 101.481C115.96 101.131 117.096 101.064 118.192 101.289C120.529 101.773 122.365 103.399 123.104 105.638C123.843 107.877 123.333 110.278 121.742 112.058C121.138 112.729 120.399 113.265 119.574 113.632C118.749 113.998 117.856 114.186 116.953 114.184Z"/><path fill="#413C25" d="M116.924 102.16C117.281 102.16 117.638 102.195 117.991 102.268C118.949 102.459 119.839 102.901 120.57 103.549C121.301 104.196 121.847 105.026 122.153 105.953C122.459 106.881 122.513 107.873 122.31 108.828C122.107 109.784 121.654 110.668 120.998 111.391C120.486 111.955 119.862 112.406 119.165 112.715C118.469 113.024 117.716 113.183 116.954 113.183C116.598 113.183 116.24 113.148 115.888 113.075C114.93 112.884 114.04 112.442 113.309 111.795C112.578 111.147 112.032 110.317 111.726 109.39C111.42 108.462 111.366 107.47 111.569 106.515C111.772 105.56 112.225 104.675 112.881 103.952C113.904 102.807 115.404 102.16 116.924 102.16ZM116.924 100.16C115.88 100.158 114.848 100.376 113.894 100.8C112.94 101.223 112.086 101.844 111.389 102.62C109.556 104.67 108.971 107.436 109.823 110.019C110.675 112.602 112.79 114.475 115.482 115.033C116.749 115.292 118.063 115.216 119.292 114.811C120.521 114.406 121.623 113.686 122.489 112.724C124.322 110.673 124.907 107.907 124.055 105.324C123.203 102.741 121.088 100.868 118.397 100.31C117.916 100.21 117.421 100.16 116.924 100.16Z"/><path fill="url(#paint4_linear_930_3082)" d="M108.76 97.7536C108.241 97.7536 107.791 97.4216 107.64 96.9266C106.43 92.9596 108.054 88.3916 109.977 85.4386C112.197 82.0336 113.147 78.8646 112.519 76.9616C111.984 75.3366 110.84 74.5136 109.12 74.5136C108.394 74.5136 107.579 74.6596 106.7 74.9506C103.693 75.9416 102.115 78.1746 101.878 81.7736C101.858 82.0676 101.729 82.3426 101.514 82.5446C101.3 82.7465 101.017 82.8594 100.723 82.8606H100.617L92.166 81.1126C91.89 81.0516 91.645 80.8946 91.475 80.6696C91.305 80.4446 91.221 80.1656 91.238 79.8846C91.741 72.7776 96.386 67.1016 103.664 64.7016C105.546 64.0806 107.437 63.7656 109.287 63.7656C111.218 63.7656 113.158 64.1086 115.053 64.7856C118.798 66.1216 121.375 68.8576 122.712 72.9186C124.557 78.5116 122.09 83.1046 120.108 86.7946C118.708 89.4016 117.499 91.6536 118.059 93.5716C118.146 93.8603 118.116 94.1715 117.975 94.4382C117.835 94.7049 117.595 94.9058 117.308 94.9976L108.974 97.7456L108.76 97.7536Z"/><path fill="#413C25" d="M109.285 64.7676C111.121 64.7676 112.93 65.0916 114.715 65.7286C118.194 66.9696 120.523 69.4766 121.76 73.2326C124.758 82.3206 115.524 88.4716 117.096 93.8536C117.108 93.8926 117.105 93.9346 117.086 93.9706C117.067 94.0066 117.035 94.0346 116.997 94.0476L108.81 96.7466C108.788 96.7536 108.766 96.7566 108.743 96.7546C108.721 96.7528 108.699 96.7467 108.679 96.7366C108.659 96.7266 108.642 96.7126 108.627 96.6956C108.612 96.6786 108.601 96.6586 108.595 96.6376C107.496 93.0366 109.029 88.7266 110.814 85.9866C112.627 83.2046 114.361 79.3576 113.468 76.6506C112.782 74.5706 111.237 73.5156 109.119 73.5156C108.29 73.5156 107.373 73.6766 106.386 74.0016C102.992 75.1206 101.142 77.7166 100.878 81.7096C100.876 81.7506 100.858 81.7886 100.829 81.8166C100.8 81.8447 100.761 81.8608 100.721 81.8616C100.71 81.8616 100.7 81.8596 100.688 81.8576L92.3659 80.1336C92.3259 80.1246 92.2909 80.1016 92.2669 80.0696C92.2429 80.0376 92.2309 79.9976 92.2329 79.9566C92.7209 73.0606 97.3729 67.8286 103.974 65.6516C105.773 65.0606 107.541 64.7676 109.285 64.7676ZM109.285 62.7676C107.329 62.7676 105.331 63.0986 103.348 63.7526C95.6719 66.2836 90.7709 72.2886 90.2379 79.8156C90.1993 80.333 90.3482 80.847 90.6574 81.2636C90.9667 81.6803 91.4155 81.9717 91.9219 82.0846L100.282 83.8156L100.483 83.8576L100.721 83.8616C101.269 83.8596 101.796 83.6496 102.195 83.2746C102.594 82.8996 102.837 82.3866 102.874 81.8406C103.085 78.6506 104.4 76.7626 107.013 75.9016C107.79 75.6456 108.499 75.5156 109.119 75.5156C110.412 75.5156 111.167 76.0586 111.569 77.2766C112.094 78.8696 111.163 81.7886 109.139 84.8946C107.092 88.0366 105.371 92.9246 106.682 97.2216C106.816 97.6666 107.091 98.0566 107.465 98.3336C107.839 98.6106 108.293 98.7576 108.758 98.7556C108.983 98.7556 109.206 98.7216 109.42 98.6516L117.624 95.9476C118.157 95.7752 118.601 95.4007 118.861 94.9046C119.121 94.4084 119.177 93.8304 119.017 93.2936C118.571 91.7686 119.691 89.6846 120.987 87.2706C123.06 83.4116 125.64 78.6086 123.66 72.6066C122.221 68.2386 119.437 65.2916 115.387 63.8456C113.43 63.1382 111.366 62.7735 109.285 62.7676Z"/><path fill="url(#paint5_radial_930_3082)" d="M155.919 149.432C155.649 149.432 155.386 149.346 155.167 149.188C154.948 149.029 154.785 148.806 154.701 148.549L124.207 56.0488C124.154 55.8888 124.133 55.7199 124.145 55.5518C124.158 55.3838 124.204 55.2201 124.28 55.0698C124.369 54.8918 124.585 54.5738 125.024 54.4288L188.717 33.4318C189.04 33.3248 189.392 33.3518 189.696 33.5048C189.847 33.5805 189.981 33.6852 190.091 33.8129C190.201 33.9405 190.285 34.0887 190.337 34.2488L220.831 126.749C220.976 127.188 220.848 127.551 220.758 127.728C220.683 127.879 220.578 128.013 220.45 128.123C220.323 128.233 220.174 128.317 220.014 128.369L156.322 149.367C156.192 149.409 156.056 149.431 155.919 149.432Z"/><path fill="url(#paint6_radial_930_3082)" d="M155.919 149.432C155.649 149.432 155.386 149.346 155.167 149.188C154.948 149.029 154.785 148.806 154.701 148.549L124.207 56.0488C124.154 55.8888 124.133 55.7199 124.145 55.5518C124.158 55.3838 124.204 55.2201 124.28 55.0698C124.369 54.8918 124.585 54.5738 125.024 54.4288L188.717 33.4318C189.04 33.3248 189.392 33.3518 189.696 33.5048C189.847 33.5805 189.981 33.6852 190.091 33.8129C190.201 33.9405 190.285 34.0887 190.337 34.2488L220.831 126.749C220.976 127.188 220.848 127.551 220.758 127.728C220.683 127.879 220.578 128.013 220.45 128.123C220.323 128.233 220.174 128.317 220.014 128.369L156.322 149.367C156.192 149.409 156.056 149.431 155.919 149.432Z"/><path fill="#66C2E2" d="M188.025 36.8192L217.443 126.056L157.012 145.979L127.593 56.7402L188.025 36.8192ZM189.118 30.3662C188.662 30.3662 188.209 30.4391 187.777 30.5822L124.085 51.5792C123.55 51.7552 123.056 52.0345 122.63 52.4012C122.203 52.7683 121.854 53.2159 121.601 53.7182C121.348 54.2202 121.196 54.7682 121.154 55.3292C121.112 55.8902 121.182 56.4539 121.358 56.9882L151.852 149.487C152.208 150.566 152.978 151.459 153.992 151.97C155.006 152.481 156.182 152.569 157.261 152.214L220.952 131.216C221.486 131.04 221.98 130.761 222.407 130.394C222.832 130.027 223.182 129.579 223.436 129.077C223.689 128.575 223.841 128.028 223.883 127.467C223.925 126.906 223.856 126.342 223.68 125.808L193.185 33.3092C192.903 32.4532 192.358 31.7082 191.628 31.1792C190.898 30.6502 190.019 30.3662 189.118 30.3662Z"/><path fill="#414042" d="M189.118 33.3652C189.388 33.3652 189.651 33.4512 189.87 33.6102C190.089 33.7687 190.252 33.9924 190.336 34.2492L220.831 126.749C220.884 126.909 220.904 127.078 220.892 127.245C220.88 127.412 220.834 127.577 220.758 127.727C220.682 127.878 220.577 128.012 220.449 128.122C220.321 128.232 220.172 128.316 220.012 128.368L156.321 149.367C156.16 149.42 155.991 149.441 155.823 149.428C155.655 149.415 155.491 149.37 155.341 149.294C155.19 149.218 155.056 149.113 154.946 148.985C154.836 148.857 154.752 148.709 154.7 148.548L124.207 56.0492C124.153 55.8893 124.132 55.7205 124.145 55.5524C124.157 55.3843 124.203 55.2204 124.28 55.0702C124.369 54.8922 124.585 54.5742 125.025 54.4292L188.717 33.4322C188.848 33.3882 188.983 33.3662 189.118 33.3652ZM189.118 30.3662C188.662 30.3662 188.209 30.4391 187.777 30.5822L124.085 51.5792C123.55 51.7552 123.056 52.0345 122.63 52.4012C122.203 52.7683 121.854 53.2159 121.601 53.7182C121.348 54.2202 121.196 54.7682 121.154 55.3292C121.112 55.8902 121.182 56.4539 121.358 56.9882L151.852 149.487C152.208 150.566 152.978 151.459 153.992 151.97C155.006 152.481 156.182 152.569 157.261 152.214L220.952 131.216C221.486 131.04 221.98 130.761 222.407 130.394C222.832 130.027 223.182 129.579 223.436 129.077C223.689 128.575 223.841 128.028 223.883 127.467C223.925 126.906 223.856 126.342 223.68 125.808L193.185 33.3092C192.903 32.4532 192.358 31.7082 191.628 31.1792C190.898 30.6502 190.019 30.3662 189.118 30.3662Z"/><path fill="url(#paint7_linear_930_3082)" d="M177.09 114.184C176.663 114.184 176.238 114.141 175.82 114.055C173.483 113.571 171.647 111.945 170.908 109.706C170.169 107.467 170.679 105.066 172.27 103.286C173.018 102.454 173.971 101.831 175.033 101.481C176.096 101.131 177.232 101.064 178.329 101.289C180.666 101.773 182.502 103.399 183.241 105.638C183.98 107.877 183.47 110.278 181.879 112.058C181.275 112.729 180.536 113.266 179.711 113.632C178.886 113.998 177.993 114.186 177.09 114.184Z"/><path fill="#413C25" d="M177.061 102.16C177.418 102.16 177.775 102.195 178.128 102.268C179.085 102.459 179.975 102.901 180.706 103.549C181.438 104.196 181.984 105.026 182.29 105.953C182.595 106.881 182.65 107.873 182.447 108.828C182.244 109.784 181.791 110.668 181.135 111.391C180.623 111.955 179.999 112.406 179.302 112.715C178.606 113.024 177.852 113.183 177.091 113.183C176.735 113.183 176.377 113.148 176.025 113.075C175.067 112.884 174.177 112.442 173.446 111.795C172.715 111.147 172.168 110.317 171.863 109.39C171.557 108.462 171.503 107.47 171.706 106.515C171.909 105.56 172.361 104.675 173.018 103.952C174.041 102.807 175.541 102.16 177.061 102.16ZM177.061 100.16C176.017 100.158 174.985 100.376 174.031 100.8C173.077 101.223 172.223 101.844 171.526 102.62C169.693 104.67 169.108 107.436 169.96 110.019C170.812 112.602 172.927 114.475 175.619 115.033C176.887 115.292 178.2 115.216 179.429 114.811C180.658 114.406 181.76 113.686 182.626 112.724C184.459 110.673 185.044 107.907 184.192 105.324C183.34 102.741 181.225 100.868 178.534 100.31C178.053 100.21 177.557 100.16 177.061 100.16Z"/><path fill="url(#paint8_linear_930_3082)" d="M168.893 97.7536C168.374 97.7536 167.924 97.4216 167.773 96.9266C166.563 92.9596 168.187 88.3916 170.11 85.4386C172.33 82.0336 173.28 78.8646 172.652 76.9616C172.116 75.3366 170.973 74.5136 169.253 74.5136C168.526 74.5136 167.712 74.6596 166.833 74.9506C163.826 75.9416 162.248 78.1746 162.011 81.7736C161.991 82.0673 161.861 82.3426 161.647 82.5446C161.433 82.7466 161.15 82.8596 160.856 82.8606H160.75L152.299 81.1126C152.023 81.0516 151.778 80.8946 151.608 80.6696C151.438 80.4446 151.354 80.1656 151.371 79.8846C151.874 72.7776 156.519 67.1016 163.797 64.7016C165.679 64.0806 167.57 63.7656 169.42 63.7656C171.351 63.7656 173.291 64.1086 175.186 64.7856C178.931 66.1216 181.508 68.8576 182.845 72.9186C184.69 78.5116 182.223 83.1046 180.241 86.7946C178.841 89.4016 177.632 91.6536 178.192 93.5716C178.278 93.8606 178.248 94.1716 178.108 94.4376C177.968 94.7036 177.728 94.9056 177.441 94.9976L169.107 97.7456L168.893 97.7536Z"/><path fill="#413C25" d="M169.422 64.7676C171.258 64.7676 173.067 65.0916 174.852 65.7286C178.331 66.9696 180.66 69.4766 181.897 73.2326C184.894 82.3206 175.661 88.4716 177.233 93.8536C177.245 93.8926 177.242 93.9346 177.223 93.9706C177.204 94.0066 177.173 94.0346 177.134 94.0476L168.947 96.7466C168.926 96.7536 168.903 96.7566 168.881 96.7546C168.858 96.753 168.836 96.7469 168.816 96.7366C168.796 96.7266 168.779 96.7126 168.764 96.6956C168.749 96.6786 168.739 96.6586 168.732 96.6376C167.633 93.0366 169.166 88.7266 170.951 85.9866C172.764 83.2046 174.498 79.3576 173.605 76.6506C172.919 74.5706 171.374 73.5156 169.256 73.5156C168.427 73.5156 167.51 73.6766 166.523 74.0016C163.129 75.1206 161.279 77.7166 161.015 81.7096C161.013 81.7506 160.996 81.7886 160.966 81.8166C160.937 81.8447 160.898 81.8608 160.858 81.8616C160.847 81.8616 160.837 81.8596 160.825 81.8576L152.503 80.1336C152.463 80.1246 152.428 80.1016 152.404 80.0696C152.379 80.0372 152.367 79.9971 152.37 79.9566C152.858 73.0606 157.51 67.8286 164.111 65.6516C165.91 65.0606 167.678 64.7676 169.422 64.7676ZM169.422 62.7676C167.466 62.7676 165.468 63.0986 163.485 63.7526C155.809 66.2836 150.908 72.2886 150.375 79.8156C150.336 80.3329 150.485 80.8469 150.794 81.2636C151.103 81.6806 151.552 81.9716 152.059 82.0846L160.419 83.8156L160.62 83.8576L160.858 83.8616C161.406 83.8596 161.933 83.6496 162.332 83.2746C162.731 82.8996 162.974 82.3866 163.011 81.8406C163.222 78.6506 164.537 76.7626 167.15 75.9016C167.927 75.6456 168.636 75.5156 169.256 75.5156C170.548 75.5156 171.304 76.0586 171.706 77.2766C172.231 78.8696 171.3 81.7886 169.276 84.8946C167.229 88.0366 165.508 92.9246 166.819 97.2216C166.953 97.6666 167.228 98.0566 167.602 98.3336C167.976 98.6106 168.43 98.7576 168.895 98.7556C169.12 98.7556 169.343 98.7216 169.557 98.6516L177.761 95.9476C178.294 95.7757 178.739 95.4016 178.999 94.9056C179.259 94.4095 179.315 93.8311 179.154 93.2946C178.708 91.7686 179.828 89.6836 181.124 87.2706C183.197 83.4116 185.776 78.6086 183.797 72.6076C182.358 68.2386 179.574 65.2916 175.524 63.8456C173.567 63.1382 171.503 62.7735 169.422 62.7676Z"/><path fill="#FBFBF9" d="M201.326 338.308C176.407 338.308 165.33 335.197 164.288 327.905C163.851 324.847 163.991 319.814 164.139 314.485L164.291 306.499C164.291 298.5 173.754 282.295 187.238 280.257L188.426 280.077L188.9 280.716C189.569 280.973 192.328 281.782 201.255 282.169C210.447 281.772 213.192 280.926 213.808 280.682L214.307 280.09L215.413 280.257C228.897 282.295 238.36 298.5 238.36 306.499C238.36 309.021 238.437 311.801 238.512 314.487C238.66 319.815 238.8 324.848 238.364 327.904C237.323 335.196 226.246 338.308 201.326 338.308Z"/><path fill="#47412A" d="M215.115 282.234C227.391 284.089 236.361 299.076 236.361 306.499C236.361 313.922 237.013 323.221 236.384 327.622C235.689 332.492 228.216 336.309 201.326 336.309C174.436 336.309 166.964 332.493 166.268 327.622C165.64 323.221 166.291 313.917 166.291 306.499C166.291 299.081 175.261 284.09 187.537 282.234C187.537 282.234 188.572 283.628 201.255 284.171C213.941 283.627 215.115 282.234 215.115 282.234ZM189.317 277.919L186.941 278.278C172.877 280.404 162.293 296.863 162.293 306.498C162.293 308.992 162.216 311.756 162.142 314.429C161.992 319.846 161.85 324.962 162.31 328.187C163.54 336.796 174.844 340.308 201.328 340.308C227.812 340.308 239.117 336.796 240.346 328.187C240.806 324.962 240.664 319.847 240.513 314.432L240.362 306.498C240.362 296.863 229.778 280.404 215.714 278.278L213.501 277.943L212.649 278.954C211.635 279.231 208.65 279.843 201.257 280.166C194.174 279.855 191.2 279.282 190.12 279L189.317 277.919Z"/><path fill="#FBFBF9" d="M201.031 284.232C199.487 284.232 195.729 284.199 194.188 283.89C187.265 282.509 171.158 276.194 171.158 247.448C171.158 226.525 181.737 215.002 200.945 215.002C220.358 215.002 231.492 226.828 231.492 247.448C231.492 274.324 218.421 282.135 207.456 283.954C206.231 284.158 203.333 284.232 201.031 284.232Z"/><path fill="#47412A" d="M200.945 217.001C222.259 217.001 229.492 231.135 229.492 247.447C229.492 270.422 219.922 279.857 207.129 281.98C206.154 282.143 203.61 282.231 201.03 282.231C198.342 282.231 195.614 282.135 194.58 281.928C183.435 279.705 173.157 270.044 173.157 247.447C173.158 231.135 179.725 217.001 200.945 217.001ZM200.945 213.001C180.447 213.001 169.158 225.234 169.158 247.447C169.158 277.674 186.39 284.374 193.799 285.851C195.449 286.182 199.039 286.231 201.031 286.231C202.512 286.231 206.137 286.202 207.79 285.925C219.513 283.98 233.493 275.724 233.493 247.446C233.493 225.556 221.63 213.001 200.945 213.001Z"/><path fill="#FBFBF9" d="M84.6414 338.308C59.7214 338.308 48.6444 335.197 47.6034 327.904C47.1664 324.848 47.3074 319.815 47.4554 314.487L47.6074 306.499C47.6074 298.5 57.0704 282.295 70.5544 280.257L71.7424 280.077L72.2164 280.716C72.8844 280.974 75.6434 281.782 84.5714 282.169C93.7634 281.772 96.5074 280.926 97.1234 280.682L97.6224 280.09L98.7284 280.257C112.212 282.295 121.675 298.5 121.675 306.499C121.675 309.021 121.752 311.799 121.827 314.485C121.975 319.814 122.115 324.847 121.678 327.904C120.636 335.196 109.56 338.308 84.6414 338.308Z"/><path fill="#47412A" d="M98.4298 282.234C110.706 284.089 119.676 299.076 119.676 306.499C119.676 313.922 120.327 323.221 119.699 327.622C119.003 332.492 111.531 336.309 84.6408 336.309C57.7508 336.309 50.2778 332.493 49.5828 327.622C48.9548 323.221 49.6058 313.917 49.6058 306.499C49.6058 299.081 58.5758 284.09 70.8518 282.234C70.8518 282.234 71.8858 283.628 84.5708 284.171C97.2558 283.627 98.4298 282.234 98.4298 282.234ZM72.6318 277.919L70.2548 278.278C56.1908 280.404 45.6068 296.863 45.6068 306.498C45.6068 308.993 45.5298 311.758 45.4558 314.432C45.3048 319.847 45.1628 324.962 45.6228 328.187C46.8518 336.796 58.1568 340.308 84.6408 340.308C111.125 340.308 122.429 336.796 123.659 328.187C124.119 324.962 123.977 319.846 123.827 314.429L123.676 306.498C123.676 296.863 113.092 280.404 99.0278 278.278L96.8148 277.943L95.9628 278.954C94.9488 279.231 91.9648 279.843 84.5708 280.166C77.4888 279.856 74.5138 279.282 73.4338 279L72.6318 277.919Z"/><path fill="#FBFBF9" d="M84.3422 284.232C82.7982 284.232 79.0402 284.199 77.4992 283.89C70.5762 282.509 54.4702 276.194 54.4702 247.448C54.4702 226.525 65.0492 215.002 84.2572 215.002C103.671 215.002 114.805 226.828 114.805 247.448C114.805 274.324 101.734 282.135 90.7692 283.954C89.5422 284.158 86.6452 284.232 84.3422 284.232Z"/><path fill="#47412A" d="M84.2572 217.001C105.571 217.001 112.805 231.135 112.805 247.447C112.805 270.422 103.234 279.857 90.4422 281.98C89.4672 282.143 86.9232 282.231 84.3432 282.231C81.6552 282.231 78.9272 282.135 77.8932 281.928C66.7482 279.705 56.4712 270.044 56.4712 247.447C56.4702 231.135 63.0372 217.001 84.2572 217.001ZM84.2572 213.001C63.7592 213.001 52.4702 225.234 52.4702 247.447C52.4702 277.674 69.7012 284.374 77.1102 285.851C78.7612 286.182 82.3502 286.231 84.3422 286.231C85.8232 286.231 89.4482 286.202 91.1012 285.925C102.824 283.98 116.805 275.724 116.805 247.446C116.805 225.556 104.941 213.001 84.2572 213.001Z"/><path fill="#FBFBF9" d="M142.887 367.838C117.968 367.838 106.891 364.727 105.849 357.436C105.413 354.378 105.553 349.345 105.701 344.016L105.852 336.03C105.852 328.03 115.315 311.825 128.799 309.788L129.987 309.608L130.461 310.247C131.13 310.504 133.889 311.313 142.817 311.7C152.01 311.303 154.754 310.457 155.37 310.213L155.869 309.621L156.975 309.788C170.459 311.825 179.922 328.03 179.922 336.03C179.922 338.552 179.999 341.332 180.074 344.018C180.222 349.346 180.362 354.379 179.926 357.435C178.883 364.727 167.807 367.838 142.887 367.838Z"/><path fill="#47412A" d="M156.679 311.765C168.955 313.619 177.925 328.607 177.925 336.03C177.925 343.453 178.577 352.752 177.948 357.153C177.252 362.022 169.78 365.839 142.89 365.839C116 365.839 108.528 362.023 107.832 357.153C107.204 352.752 107.855 343.448 107.855 336.03C107.855 328.612 116.826 313.62 129.101 311.765C129.101 311.765 130.136 313.159 142.82 313.702C155.504 313.158 156.679 311.765 156.679 311.765ZM130.88 307.45L128.504 307.809C114.44 309.934 103.856 326.393 103.856 336.029C103.856 338.523 103.779 341.287 103.705 343.96C103.555 349.377 103.413 354.492 103.873 357.718C105.103 366.326 116.408 369.838 142.891 369.838C169.374 369.838 180.679 366.326 181.909 357.718C182.369 354.493 182.227 349.378 182.076 343.963L181.925 336.029C181.925 326.393 171.341 309.934 157.277 307.809L155.064 307.475L154.212 308.485C153.199 308.762 150.214 309.374 142.82 309.697C135.737 309.386 132.762 308.813 131.682 308.531L130.88 307.45Z"/><path fill="#FBFBF9" d="M142.592 313.763C141.048 313.763 137.29 313.73 135.749 313.421C128.826 312.04 112.72 305.725 112.72 276.979C112.72 256.056 123.299 244.533 142.507 244.533C161.92 244.533 173.054 256.359 173.054 276.979C173.054 303.855 159.983 311.666 149.018 313.485C147.792 313.69 144.894 313.763 142.592 313.763Z"/><path fill="#47412A" d="M142.507 246.532C163.821 246.532 171.054 260.665 171.054 276.978C171.054 299.952 161.484 309.388 148.691 311.511C147.716 311.674 145.172 311.762 142.592 311.762C139.904 311.762 137.176 311.666 136.142 311.459C124.997 309.236 114.72 299.574 114.72 276.978C114.72 260.665 121.287 246.532 142.507 246.532ZM142.507 242.532C122.009 242.532 110.72 254.765 110.72 276.978C110.72 307.205 127.951 313.905 135.36 315.382C137.011 315.713 140.6 315.762 142.592 315.762C144.073 315.762 147.697 315.733 149.35 315.456C161.073 313.511 175.054 305.255 175.054 276.977C175.054 255.087 163.191 242.532 142.507 242.532Z"/><path fill="url(#paint9_linear_930_3082)" d="M62.353 180.861C62.3536 181.827 62.7367 182.753 63.4185 183.437C64.1004 184.12 65.0254 184.506 65.991 184.509H71.977V201.92C71.978 202.762 72.313 203.569 72.908 204.164C73.503 204.759 74.311 205.095 75.153 205.095H91.8C92.642 205.095 93.449 204.76 94.045 204.164C94.641 203.568 94.975 202.762 94.976 201.92V184.509H100.962C101.928 184.507 102.854 184.121 103.536 183.437C104.218 182.753 104.601 181.827 104.6 180.861C104.6 179.985 104.289 179.164 103.7 178.489L86.215 158.441C85.874 158.051 85.453 157.738 84.981 157.524C84.5089 157.309 83.9962 157.198 83.4775 157.198C82.9588 157.198 82.4461 157.309 81.974 157.524C81.502 157.738 81.081 158.051 80.74 158.441L63.254 178.489C62.6737 179.143 62.3525 179.987 62.353 180.861Z"/><path fill="url(#paint10_linear_930_3082)" d="M62.353 180.861C62.3536 181.827 62.7367 182.753 63.4185 183.437C64.1004 184.12 65.0254 184.506 65.991 184.509H71.977V201.92C71.978 202.762 72.313 203.569 72.908 204.164C73.503 204.759 74.311 205.095 75.153 205.095H91.8C92.642 205.095 93.449 204.76 94.045 204.164C94.641 203.568 94.975 202.762 94.976 201.92V184.509H100.962C101.928 184.507 102.854 184.121 103.536 183.437C104.218 182.753 104.601 181.827 104.6 180.861C104.6 179.985 104.289 179.164 103.7 178.489L86.215 158.441C85.874 158.051 85.453 157.738 84.981 157.524C84.5089 157.309 83.9962 157.198 83.4775 157.198C82.9588 157.198 82.4461 157.309 81.974 157.524C81.502 157.738 81.081 158.051 80.74 158.441L63.254 178.489C62.6737 179.143 62.3525 179.987 62.353 180.861Z"/><path fill="#162F0D" d="M104.003 180.904C104.003 180.283 103.791 179.649 103.318 179.108L85.8324 159.061C85.5734 158.765 85.2544 158.527 84.8964 158.364C84.5384 158.201 84.1484 158.116 83.7554 158.116C83.3624 158.116 82.9724 158.201 82.6144 158.364C82.2564 158.527 81.9364 158.765 81.6784 159.061L64.1924 179.11C63.7524 179.605 63.5084 180.243 63.5084 180.905C63.5084 182.328 64.6224 183.678 66.2704 183.678H73.1324V201.963C73.1326 202.573 73.375 203.158 73.8064 203.589C74.2374 204.021 74.8224 204.263 75.4324 204.263H92.0794C92.6894 204.263 93.2744 204.021 93.7054 203.589C94.1367 203.158 94.3792 202.573 94.3794 201.963V183.676H101.242C102.889 183.676 104.003 182.326 104.003 180.904ZM105.755 180.904C105.755 183.398 103.729 185.428 101.242 185.428H96.1314V201.963C96.1304 203.037 95.7034 204.067 94.9434 204.827C94.1834 205.587 93.1534 206.014 92.0794 206.015H75.4314C74.3574 206.014 73.3264 205.587 72.5674 204.827C71.8084 204.067 71.3804 203.037 71.3794 201.963V185.428H66.2694C63.7804 185.428 61.7554 183.399 61.7554 180.904C61.7591 179.819 62.1556 178.772 62.8714 177.957L80.3574 157.91C80.7804 157.425 81.3034 157.036 81.8894 156.77C82.4754 156.504 83.1114 156.366 83.7554 156.366C84.3994 156.366 85.0354 156.504 85.6214 156.77C86.2074 157.036 86.7294 157.425 87.1534 157.91L104.64 177.957C105.355 178.773 105.751 179.82 105.755 180.904Z"/><path fill="url(#paint11_linear_930_3082)" d="M120.853 180.861C120.854 181.827 121.237 182.753 121.918 183.436C122.6 184.12 123.525 184.506 124.49 184.509H130.477V201.92C130.477 202.337 130.559 202.75 130.719 203.135C130.879 203.52 131.113 203.87 131.408 204.164C132.003 204.76 132.811 205.095 133.653 205.095H150.3C151.142 205.095 151.949 204.76 152.545 204.164C153.14 203.569 153.475 202.762 153.476 201.92V184.509H159.462C160.428 184.507 161.354 184.121 162.036 183.437C162.718 182.753 163.101 181.827 163.1 180.861C163.1 179.985 162.789 179.164 162.2 178.489L144.714 158.441C144.373 158.05 143.952 157.737 143.48 157.523C143.007 157.308 142.495 157.198 141.976 157.198C141.458 157.198 140.945 157.309 140.473 157.524C140.001 157.739 139.58 158.051 139.238 158.441L121.752 178.489C121.172 179.143 120.852 179.987 120.853 180.861Z"/><path fill="url(#paint12_linear_930_3082)" d="M120.853 180.861C120.854 181.827 121.237 182.753 121.918 183.436C122.6 184.12 123.525 184.506 124.49 184.509H130.477V201.92C130.477 202.337 130.559 202.75 130.719 203.135C130.879 203.52 131.113 203.87 131.408 204.164C132.003 204.76 132.811 205.095 133.653 205.095H150.3C151.142 205.095 151.949 204.76 152.545 204.164C153.14 203.569 153.475 202.762 153.476 201.92V184.509H159.462C160.428 184.507 161.354 184.121 162.036 183.437C162.718 182.753 163.101 181.827 163.1 180.861C163.1 179.985 162.789 179.164 162.2 178.489L144.714 158.441C144.373 158.05 143.952 157.737 143.48 157.523C143.007 157.308 142.495 157.198 141.976 157.198C141.458 157.198 140.945 157.309 140.473 157.524C140.001 157.739 139.58 158.051 139.238 158.441L121.752 178.489C121.172 179.143 120.852 179.987 120.853 180.861Z"/><path fill="#162F0D" d="M162.503 180.904C162.503 180.283 162.291 179.649 161.818 179.108L144.332 159.061C144.074 158.765 143.755 158.527 143.396 158.364C143.038 158.201 142.649 158.116 142.255 158.116C141.861 158.116 141.472 158.201 141.114 158.364C140.756 158.527 140.437 158.765 140.178 159.061L122.692 179.11C122.252 179.605 122.009 180.243 122.007 180.905C122.007 182.328 123.122 183.678 124.769 183.678H131.631V201.963C131.632 202.573 131.874 203.158 132.305 203.589C132.736 204.021 133.321 204.263 133.931 204.263H150.579C151.189 204.263 151.774 204.021 152.205 203.589C152.637 203.158 152.879 202.573 152.879 201.963V183.676H159.742C161.389 183.676 162.503 182.326 162.503 180.904ZM164.255 180.904C164.255 183.398 162.229 185.428 159.742 185.428H154.631V201.963C154.63 203.037 154.203 204.067 153.443 204.827C152.683 205.587 151.653 206.014 150.579 206.015H133.931C132.857 206.014 131.827 205.587 131.067 204.827C130.307 204.067 129.88 203.037 129.879 201.963V185.428H124.769C122.28 185.428 120.255 183.399 120.255 180.904C120.259 179.819 120.656 178.772 121.371 177.957L138.857 157.91C139.28 157.425 139.803 157.036 140.389 156.77C140.975 156.504 141.611 156.366 142.255 156.366C142.899 156.366 143.535 156.504 144.121 156.77C144.707 157.036 145.23 157.425 145.653 157.91L163.14 177.957C163.855 178.773 164.251 179.82 164.255 180.904Z"/><path fill="url(#paint13_linear_930_3082)" d="M179.353 180.861C179.354 181.827 179.737 182.753 180.418 183.436C181.1 184.12 182.025 184.506 182.99 184.509H188.977V201.92C188.977 202.337 189.059 202.75 189.219 203.135C189.379 203.52 189.613 203.87 189.908 204.164C190.503 204.76 191.311 205.095 192.153 205.095H208.8C209.642 205.095 210.449 204.76 211.045 204.164C211.64 203.569 211.975 202.762 211.976 201.92V184.509H217.962C218.928 184.507 219.854 184.121 220.536 183.437C221.218 182.753 221.601 181.827 221.6 180.861C221.6 179.985 221.289 179.164 220.7 178.489L203.214 158.441C202.873 158.05 202.452 157.737 201.98 157.523C201.507 157.308 200.995 157.198 200.476 157.198C199.958 157.198 199.445 157.309 198.973 157.524C198.501 157.739 198.08 158.051 197.738 158.441L180.252 178.489C179.672 179.143 179.352 179.987 179.353 180.861Z"/><path fill="url(#paint14_linear_930_3082)" d="M179.353 180.861C179.354 181.827 179.737 182.753 180.418 183.436C181.1 184.12 182.025 184.506 182.99 184.509H188.977V201.92C188.977 202.337 189.059 202.75 189.219 203.135C189.379 203.52 189.613 203.87 189.908 204.164C190.503 204.76 191.311 205.095 192.153 205.095H208.8C209.642 205.095 210.449 204.76 211.045 204.164C211.64 203.569 211.975 202.762 211.976 201.92V184.509H217.962C218.928 184.507 219.854 184.121 220.536 183.437C221.218 182.753 221.601 181.827 221.6 180.861C221.6 179.985 221.289 179.164 220.7 178.489L203.214 158.441C202.873 158.05 202.452 157.737 201.98 157.523C201.507 157.308 200.995 157.198 200.476 157.198C199.958 157.198 199.445 157.309 198.973 157.524C198.501 157.739 198.08 158.051 197.738 158.441L180.252 178.489C179.672 179.143 179.352 179.987 179.353 180.861Z"/><path fill="#162F0D" d="M221.003 180.904C221.003 180.283 220.791 179.649 220.318 179.108L202.832 159.061C202.574 158.765 202.255 158.527 201.896 158.364C201.538 158.201 201.149 158.116 200.755 158.116C200.361 158.116 199.972 158.201 199.614 158.364C199.256 158.527 198.937 158.765 198.678 159.061L181.192 179.11C180.752 179.605 180.509 180.243 180.507 180.905C180.507 182.328 181.622 183.678 183.269 183.678H190.131V201.963C190.132 202.573 190.374 203.158 190.805 203.589C191.236 204.021 191.821 204.263 192.431 204.263H209.079C209.689 204.263 210.274 204.021 210.705 203.589C211.137 203.158 211.379 202.573 211.379 201.963V183.676H218.242C219.889 183.676 221.003 182.326 221.003 180.904ZM222.755 180.904C222.755 183.398 220.729 185.428 218.242 185.428H213.131V201.963C213.13 203.037 212.703 204.067 211.943 204.827C211.183 205.587 210.153 206.014 209.079 206.015H192.431C191.357 206.014 190.327 205.587 189.567 204.827C188.807 204.067 188.38 203.037 188.379 201.963V185.428H183.269C180.78 185.428 178.755 183.399 178.755 180.904C178.759 179.819 179.156 178.772 179.871 177.957L197.357 157.91C197.78 157.425 198.303 157.036 198.889 156.77C199.475 156.504 200.111 156.366 200.755 156.366C201.399 156.366 202.035 156.504 202.621 156.77C203.207 157.036 203.73 157.425 204.153 157.91L221.64 177.957C222.355 178.773 222.751 179.82 222.755 180.904Z"/><path fill="#E1EF74" d="M265.594 20V380H20.0942V20H265.594ZM269.425 0H16.2642C7.33324 0 0.0942383 7.239 0.0942383 16.169V383.83C0.0942383 392.761 7.33324 400 16.2642 400H269.425C278.355 400 285.594 392.761 285.594 383.83V16.169C285.594 7.239 278.354 0 269.425 0Z"/><path fill="#414042" d="M269.425 10C271.061 10.0021 272.629 10.6527 273.785 11.8092C274.941 12.9656 275.592 14.5335 275.594 16.169V383.83C275.592 385.466 274.942 387.034 273.785 388.19C272.629 389.347 271.061 389.998 269.425 390H16.2642C14.6284 389.998 13.0601 389.348 11.9034 388.191C10.7467 387.034 10.0961 385.466 10.0942 383.83V16.169C10.0964 14.5334 10.7471 12.9653 11.9038 11.8088C13.0605 10.6524 14.6286 10.0019 16.2642 10H269.425ZM269.425 0H16.2642C7.33324 0 0.0942383 7.239 0.0942383 16.169V383.83C0.0942383 392.761 7.33324 400 16.2642 400H269.425C278.355 400 285.594 392.761 285.594 383.83V16.169C285.594 7.239 278.354 0 269.425 0Z"/></g><defs><radialGradient id="paint0_radial_930_3082" cx="0" cy="0" r="1" gradientTransform="translate(142.845 200) scale(177.165 177.5)" gradientUnits="userSpaceOnUse"><stop stop-color="#E5ECAC"/><stop offset=".5" stop-color="#BDD26F"/><stop offset="1" stop-color="#98C52F"/></radialGradient><radialGradient id="paint1_radial_930_3082" cx="0" cy="0" r="1" gradientTransform="translate(1869.91 -6553.84) rotate(-90) scale(5169.03 5827.98)" gradientUnits="userSpaceOnUse"><stop stop-color="#32B4BA"/><stop offset=".163" stop-color="#30ABBA"/><stop offset=".429" stop-color="#2B93BA"/><stop offset=".762" stop-color="#236BBA"/><stop offset="1" stop-color="#1D4BBA"/></radialGradient><radialGradient id="paint2_radial_930_3082" cx="0" cy="0" r="1" gradientTransform="matrix(-0.00958801 -50.0582 61.5953 -0.00829134 112.381 91.3995)" gradientUnits="userSpaceOnUse"><stop stop-color="#32B4BA"/><stop offset=".163" stop-color="#30ABBA"/><stop offset=".429" stop-color="#2B93BA"/><stop offset=".762" stop-color="#236BBA"/><stop offset="1" stop-color="#1D4BBA"/></radialGradient><linearGradient id="paint3_linear_930_3082" x1="1633.56" x2="1633.56" y1="1609.75" y2="1440.11" gradientUnits="userSpaceOnUse"><stop stop-color="#70AEFE"/><stop offset=".16" stop-color="#83BCFE"/><stop offset=".527" stop-color="#ABD7FE"/><stop offset=".82" stop-color="#C3E9FE"/><stop offset="1" stop-color="#CCEFFE"/></linearGradient><linearGradient id="paint4_linear_930_3082" x1="3546.2" x2="3546.2" y1="3441.76" y2="2286.61" gradientUnits="userSpaceOnUse"><stop stop-color="#70AEFE"/><stop offset=".16" stop-color="#83BCFE"/><stop offset=".527" stop-color="#ABD7FE"/><stop offset=".82" stop-color="#C3E9FE"/><stop offset="1" stop-color="#CCEFFE"/></linearGradient><radialGradient id="paint5_radial_930_3082" cx="0" cy="0" r="1" gradientTransform="translate(1930.05 -6553.84) rotate(-90) scale(5169.03 5827.98)" gradientUnits="userSpaceOnUse"><stop stop-color="#32B4BA"/><stop offset=".163" stop-color="#30ABBA"/><stop offset=".429" stop-color="#2B93BA"/><stop offset=".762" stop-color="#236BBA"/><stop offset="1" stop-color="#1D4BBA"/></radialGradient><radialGradient id="paint6_radial_930_3082" cx="0" cy="0" r="1" gradientTransform="matrix(-0.009588 -50.0582 61.5952 -0.00829134 172.517 91.3995)" gradientUnits="userSpaceOnUse"><stop stop-color="#32B4BA"/><stop offset=".163" stop-color="#30ABBA"/><stop offset=".429" stop-color="#2B93BA"/><stop offset=".762" stop-color="#236BBA"/><stop offset="1" stop-color="#1D4BBA"/></radialGradient><linearGradient id="paint7_linear_930_3082" x1="2475.35" x2="2475.35" y1="1609.75" y2="1440.11" gradientUnits="userSpaceOnUse"><stop stop-color="#70AEFE"/><stop offset=".16" stop-color="#83BCFE"/><stop offset=".527" stop-color="#ABD7FE"/><stop offset=".82" stop-color="#C3E9FE"/><stop offset="1" stop-color="#CCEFFE"/></linearGradient><linearGradient id="paint8_linear_930_3082" x1="5538.16" x2="5538.16" y1="3441.76" y2="2286.61" gradientUnits="userSpaceOnUse"><stop stop-color="#70AEFE"/><stop offset=".16" stop-color="#83BCFE"/><stop offset=".527" stop-color="#ABD7FE"/><stop offset=".82" stop-color="#C3E9FE"/><stop offset="1" stop-color="#CCEFFE"/></linearGradient><linearGradient id="paint9_linear_930_3082" x1="4334.67" x2="2797.42" y1="8543.92" y2="9326.92" gradientUnits="userSpaceOnUse"><stop stop-color="#4CE02D"/><stop offset=".094" stop-color="#52E733"/><stop offset=".17" stop-color="#44D626"/><stop offset=".341" stop-color="#3AC91D"/><stop offset=".525" stop-color="#37C41A"/><stop offset=".731" stop-color="#32BD15"/><stop offset="1" stop-color="#30BB13"/></linearGradient><linearGradient id="paint10_linear_930_3082" x1="76.847" x2="101.678" y1="161.458" y2="194.744" gradientUnits="userSpaceOnUse"><stop stop-color="#55EC36"/><stop offset=".195" stop-color="#45D727"/><stop offset=".419" stop-color="#39C71C"/><stop offset=".671" stop-color="#32BD15"/><stop offset="1" stop-color="#30BA13"/></linearGradient><linearGradient id="paint11_linear_930_3082" x1="4393.17" x2="2855.92" y1="8543.92" y2="9326.92" gradientUnits="userSpaceOnUse"><stop stop-color="#4CE02D"/><stop offset=".094" stop-color="#52E733"/><stop offset=".17" stop-color="#44D626"/><stop offset=".341" stop-color="#3AC91D"/><stop offset=".525" stop-color="#37C41A"/><stop offset=".731" stop-color="#32BD15"/><stop offset="1" stop-color="#30BB13"/></linearGradient><linearGradient id="paint12_linear_930_3082" x1="135.347" x2="160.178" y1="161.458" y2="194.744" gradientUnits="userSpaceOnUse"><stop stop-color="#55EC36"/><stop offset=".195" stop-color="#45D727"/><stop offset=".419" stop-color="#39C71C"/><stop offset=".671" stop-color="#32BD15"/><stop offset="1" stop-color="#30BA13"/></linearGradient><linearGradient id="paint13_linear_930_3082" x1="4451.67" x2="2914.42" y1="8543.92" y2="9326.92" gradientUnits="userSpaceOnUse"><stop stop-color="#4CE02D"/><stop offset=".094" stop-color="#52E733"/><stop offset=".17" stop-color="#44D626"/><stop offset=".341" stop-color="#3AC91D"/><stop offset=".525" stop-color="#37C41A"/><stop offset=".731" stop-color="#32BD15"/><stop offset="1" stop-color="#30BB13"/></linearGradient><linearGradient id="paint14_linear_930_3082" x1="193.847" x2="218.678" y1="161.458" y2="194.744" gradientUnits="userSpaceOnUse"><stop stop-color="#55EC36"/><stop offset=".195" stop-color="#45D727"/><stop offset=".419" stop-color="#39C71C"/><stop offset=".671" stop-color="#32BD15"/><stop offset="1" stop-color="#30BA13"/></linearGradient><clipPath id="clip0_930_3082"><rect width="291.969" height="406.205" fill="#fff"/></clipPath></defs></svg>