<svg xmlns="http://www.w3.org/2000/svg" width="292" height="407" fill="none" viewBox="0 0 292 407"><g clip-path="url(#clip0_3331_1598)"><mask id="mask0_3331_1598" width="292" height="407" x="0" y="0" maskUnits="userSpaceOnUse" style="mask-type:luminance"><path fill="#fff" d="M291.969 0H0V406.205H291.969V0Z"/></mask><g mask="url(#mask0_3331_1598)"><path fill="url(#paint0_radial_3331_1598)" d="M16.2638 390C14.6279 389.998 13.0596 389.348 11.9029 388.191C10.7462 387.034 10.0956 385.466 10.0938 383.83V16.169C10.0959 14.5334 10.7466 12.9653 11.9033 11.8088C13.06 10.6524 14.6281 10.0019 16.2638 10H269.425C271.06 10.0021 272.628 10.6527 273.785 11.8092C274.941 12.9656 275.592 14.5335 275.594 16.169V383.83C275.592 385.466 274.941 387.034 273.785 388.19C272.628 389.347 271.06 389.998 269.425 390H16.2638Z"/><path fill="#000" stroke="#413C25" d="M151.234 139.106C151.122 139.096 151.019 139.044 150.943 138.961C150.868 138.878 150.826 138.77 150.826 138.658V126.924C150.826 126.806 150.872 126.693 150.954 126.609H150.955L182.762 94.1491C190.296 86.6131 194.238 79.9581 194.238 74.3811C194.238 70.2271 192.946 66.8071 190.564 64.4251C188.182 62.0431 184.764 60.7501 180.61 60.7501C176.866 60.7501 173.619 61.6561 170.855 63.5111C168.091 65.3661 165.849 68.1441 164.065 71.8381C164.038 71.8942 163.999 71.944 163.952 71.9841C163.905 72.0244 163.85 72.0546 163.79 72.0727C163.731 72.0907 163.669 72.0963 163.607 72.0891C163.545 72.0817 163.486 72.0616 163.432 72.0301L150.785 64.5991C150.688 64.5422 150.616 64.4509 150.582 64.3434C150.549 64.2358 150.558 64.1198 150.606 64.0181C156.254 52.0841 167.13 45.2461 180.481 45.2461C188.749 45.2461 195.77 47.8341 201.38 52.9251L201.384 52.9291C207.179 58.0631 210.136 65.0891 210.136 73.8591C210.136 83.0941 204.927 93.1991 194.492 103.895L175.512 122.879L174.658 123.732H175.865H211.379C211.499 123.732 211.613 123.78 211.698 123.864C211.782 123.948 211.83 124.063 211.83 124.182V138.655C211.83 138.714 211.818 138.773 211.796 138.828C211.773 138.882 211.74 138.932 211.698 138.974C211.656 139.015 211.606 139.049 211.551 139.071C211.497 139.094 211.438 139.105 211.379 139.105H151.276H151.234V139.106Z" opacity=".3"/><path fill="#344E33" d="M178.579 43.7984C186.66 43.7984 193.571 46.2744 199.175 51.3594C204.914 56.4444 207.784 63.3554 207.784 71.9604C207.784 81.2174 202.567 91.1254 192.266 101.683L171.669 122.283H209.477V136.756H149.375V125.022L181.186 92.5584C188.877 84.8664 192.787 78.0874 192.787 72.4794C192.787 63.6154 187.052 58.3994 178.709 58.3994C171.015 58.3994 165.408 62.1814 161.758 69.7414L149.111 62.3114C154.849 50.1884 165.93 43.7984 178.579 43.7984ZM178.579 41.8984C164.656 41.8984 153.289 49.0424 147.394 61.4994C147.191 61.9285 147.155 62.4179 147.295 62.8715C147.435 63.3251 147.739 63.71 148.149 63.9504L160.797 71.3814C161.023 71.5144 161.275 71.5994 161.536 71.6294C161.796 71.6602 162.06 71.6367 162.312 71.5602C162.563 71.4838 162.795 71.3562 162.995 71.1854C163.194 71.0144 163.356 70.8044 163.47 70.5674C166.807 63.6574 171.792 60.2984 178.71 60.2984C186.222 60.2984 190.888 64.9664 190.888 72.4784C190.888 77.5084 187.068 83.9874 179.843 91.2144L148.018 123.692C147.67 124.047 147.475 124.524 147.476 125.021V136.755C147.476 137.259 147.676 137.743 148.032 138.099C148.388 138.455 148.872 138.655 149.376 138.655H209.478C209.981 138.655 210.465 138.455 210.821 138.098C211.177 137.742 211.377 137.259 211.378 136.755V122.282C211.377 121.779 211.177 121.296 210.821 120.939C210.465 120.582 209.981 120.382 209.478 120.382H176.257L193.61 103.026C204.282 92.0874 209.685 81.6414 209.685 71.9594C209.685 62.7834 206.573 55.3724 200.437 49.9354C194.562 44.6084 187.203 41.8984 178.579 41.8984Z"/><path fill="#F2FFF2" stroke="#283B28" d="M149.332 137.206C149.22 137.195 149.116 137.144 149.04 137.061C148.965 136.978 148.923 136.87 148.923 136.758V125.024C148.923 124.906 148.969 124.793 149.052 124.709L180.859 92.2487C188.394 84.7127 192.336 78.0577 192.336 72.4817C192.336 68.3277 191.044 64.9077 188.662 62.5257C186.28 60.1437 182.861 58.8507 178.707 58.8507C174.963 58.8507 171.717 59.7567 168.953 61.6117C166.189 63.4667 163.946 66.2447 162.163 69.9387C162.136 69.9947 162.097 70.0447 162.05 70.0847C162.003 70.1247 161.948 70.1557 161.888 70.1737C161.828 70.1917 161.766 70.1967 161.705 70.1897C161.643 70.1823 161.583 70.1622 161.53 70.1307L148.882 62.6997C148.784 62.6428 148.712 62.5515 148.679 62.444C148.646 62.3364 148.654 62.2204 148.703 62.1187C154.352 50.1847 165.228 43.3467 178.578 43.3467C186.847 43.3467 193.868 45.9347 199.477 51.0257L199.482 51.0297C205.277 56.1637 208.233 63.1897 208.233 71.9597C208.233 81.1947 203.025 91.2987 192.59 101.995L173.609 120.979L172.756 121.832H173.963H209.477C209.596 121.832 209.71 121.879 209.795 121.964C209.88 122.048 209.927 122.163 209.927 122.282V136.755C209.927 136.874 209.88 136.989 209.795 137.073C209.71 137.157 209.596 137.205 209.477 137.205H149.373L149.332 137.206Z"/><path fill="#000" d="M101.382 122.594C101.126 122.594 100.881 122.492 100.7 122.311C100.519 122.13 100.418 121.885 100.418 121.629V100.099H78.8859C78.6299 100.099 78.3849 99.9967 78.2039 99.8157C78.0229 99.6347 77.9219 99.3897 77.9219 99.1337V85.5577C77.9219 85.3017 78.0239 85.0567 78.2039 84.8757C78.3839 84.6947 78.6299 84.5937 78.8859 84.5937H100.418V63.0607C100.418 62.8047 100.519 62.5597 100.7 62.3787C100.881 62.1977 101.126 62.0967 101.382 62.0967H114.96C115.216 62.0967 115.461 62.1987 115.642 62.3787C115.823 62.5587 115.924 62.8047 115.924 63.0607V84.5937H137.456C137.711 84.5937 137.957 84.6957 138.138 84.8757C138.318 85.057 138.419 85.3021 138.42 85.5577V99.1337C138.419 99.3893 138.318 99.6344 138.138 99.8157C137.957 99.9967 137.711 100.099 137.456 100.099H115.924V121.629C115.924 121.885 115.823 122.13 115.642 122.311C115.461 122.492 115.216 122.594 114.96 122.594H101.382Z" opacity=".3"/><path fill="#000" d="M114.96 63.0599V85.5579H137.455V99.1349H114.96V121.629H101.382V99.1349H78.886V85.5579H101.382V63.0599H114.96ZM114.96 61.1309H101.382C100.87 61.1309 100.379 61.3339 100.018 61.6959C99.6564 62.0577 99.4531 62.5483 99.453 63.0599V83.6289H78.886C78.3745 83.6291 77.884 83.8324 77.5223 84.1941C77.1606 84.5558 76.9573 85.0463 76.957 85.5579V99.1349C76.957 99.6459 77.16 100.137 77.522 100.498C77.8838 100.86 78.3745 101.063 78.886 101.063H99.453V121.629C99.4531 122.14 99.6564 122.631 100.018 122.993C100.379 123.355 100.87 123.558 101.382 123.558H114.96C115.472 123.558 115.962 123.354 116.324 122.993C116.685 122.631 116.889 122.14 116.889 121.629V101.063H137.455C137.967 101.063 138.457 100.86 138.819 100.498C139.181 100.137 139.384 99.6459 139.384 99.1349V85.5579C139.384 85.0463 139.18 84.5558 138.819 84.1941C138.457 83.8324 137.967 83.6291 137.455 83.6289H116.889V63.0599C116.889 62.5483 116.685 62.0578 116.324 61.6961C115.962 61.3344 115.472 61.1311 114.96 61.1309Z" opacity=".3"/><path fill="#F2FFF2" d="M99.4522 120.665C99.1972 120.665 98.9512 120.563 98.7702 120.382C98.5892 120.201 98.4882 119.956 98.4882 119.7V98.17H76.9572C76.7012 98.17 76.4562 98.069 76.2752 97.888C76.0942 97.707 75.9932 97.461 75.9932 97.206V83.63C75.9932 83.374 76.0952 83.129 76.2752 82.948C76.4552 82.767 76.7012 82.666 76.9572 82.666H98.4882V61.132C98.4882 60.876 98.5902 60.631 98.7702 60.45C98.9502 60.269 99.1962 60.168 99.4522 60.168H113.03C113.286 60.168 113.531 60.27 113.712 60.45C113.893 60.63 113.995 60.876 113.995 61.132V82.665H135.526C135.782 82.665 136.027 82.767 136.208 82.947C136.389 83.127 136.49 83.373 136.49 83.629V97.205C136.49 97.46 136.389 97.706 136.208 97.887C136.027 98.068 135.782 98.169 135.526 98.169H113.995V119.699C113.995 119.955 113.893 120.2 113.712 120.381C113.531 120.562 113.286 120.664 113.03 120.664L99.4522 120.665Z"/><path fill="#283B28" d="M113.034 61.1321V83.6291H135.53V97.2051H113.034V119.7H99.4563V97.2051H76.9603V83.6291H99.4563V61.1321H113.034ZM113.034 59.2031H99.4563C98.9447 59.2034 98.4542 59.4067 98.0925 59.7684C97.7308 60.1301 97.5275 60.6206 97.5273 61.1321V81.7011H76.9603C76.4487 81.7014 75.9582 81.9047 75.5965 82.2664C75.2348 82.6281 75.0315 83.1186 75.0312 83.6301V97.2061C75.0312 97.7181 75.2343 98.2091 75.5963 98.5701C75.9581 98.9318 76.4487 99.135 76.9603 99.1351H97.5273V119.701C97.5275 120.213 97.7308 120.703 98.0925 121.065C98.4542 121.427 98.9447 121.63 99.4563 121.63H113.034C113.546 121.63 114.036 121.427 114.398 121.065C114.76 120.703 114.963 120.213 114.963 119.701V99.1351H135.53C136.042 99.1349 136.532 98.9315 136.894 98.5698C137.256 98.2081 137.459 97.7176 137.459 97.2061V83.6291C137.459 83.1176 137.256 82.6271 136.894 82.2654C136.532 81.9037 136.042 81.7004 135.53 81.7001H114.963V61.1321C114.963 60.6206 114.76 60.1301 114.398 59.7684C114.036 59.4067 113.546 59.2034 113.034 59.2031Z"/><path fill="url(#paint1_linear_3331_1598)" d="M118.281 347.615V170.17L142.407 158.586L166.595 170.212V347.615L142.407 359.219L118.281 347.615Z"/><path fill="#000" d="M142.409 159.255L165.896 170.546V347.271L142.409 358.541L118.984 347.271V170.525L142.409 159.255ZM142.409 157.898L141.708 158.232L118.283 169.502L117.582 169.847V347.939L118.283 348.283L141.708 359.554L142.409 359.898L143.11 359.554L166.597 348.283L167.298 347.939V169.878L166.597 169.534L143.11 158.232L142.409 157.898Z"/><path fill="#4F4F4F" d="M142.409 163.305L161.689 172.572V345.238L142.409 354.494L123.191 345.248V172.551L142.409 163.305ZM142.409 159.246L118.984 170.526V347.273L142.409 358.543L165.896 347.273V170.547L142.409 159.256V159.246Z"/><path fill="#62C15A" d="M265.594 20V380H20.0938V20H265.594ZM269.425 0H16.2638C7.33275 0 0.09375 7.239 0.09375 16.169V383.83C0.09375 392.761 7.33275 400 16.2638 400H269.425C278.355 400 285.594 392.761 285.594 383.83V16.169C285.594 7.239 278.354 0 269.425 0Z"/><path fill="#414042" d="M269.425 10C271.06 10.0021 272.628 10.6527 273.785 11.8092C274.941 12.9656 275.592 14.5335 275.594 16.169V383.83C275.592 385.466 274.941 387.034 273.785 388.19C272.628 389.347 271.06 389.998 269.425 390H16.2638C14.6279 389.998 13.0596 389.348 11.9029 388.191C10.7462 387.034 10.0956 385.466 10.0938 383.83V16.169C10.0959 14.5334 10.7466 12.9653 11.9033 11.8088C13.06 10.6524 14.6281 10.0019 16.2638 10H269.425ZM269.425 0H16.2638C7.33275 0 0.09375 7.239 0.09375 16.169V383.83C0.09375 392.761 7.33275 400 16.2638 400H269.425C278.355 400 285.594 392.761 285.594 383.83V16.169C285.594 7.239 278.354 0 269.425 0Z"/></g></g><defs><radialGradient id="paint0_radial_3331_1598" cx="0" cy="0" r="1" gradientTransform="translate(142.844 200) scale(175.249 175.25)" gradientUnits="userSpaceOnUse"><stop stop-color="#8AD147"/><stop offset=".5" stop-color="#5FB248"/><stop offset="1" stop-color="#399346"/></radialGradient><linearGradient id="paint1_linear_3331_1598" x1="118.281" x2="166.595" y1="258.893" y2="258.893" gradientUnits="userSpaceOnUse"><stop offset=".15" stop-color="#D5D5D5"/><stop offset=".5" stop-color="#5E5E5E"/><stop offset=".85" stop-color="#D5D5D5"/></linearGradient><clipPath id="clip0_3331_1598"><rect width="292" height="407" fill="#fff"/></clipPath></defs></svg>