<svg xmlns="http://www.w3.org/2000/svg" width="292" height="407" fill="none" viewBox="0 0 292 407"><g clip-path="url(#clip0_930_3609)"><path fill="url(#paint0_radial_930_3609)" d="M16.2638 390C14.6279 389.998 13.0596 389.348 11.9029 388.191C10.7462 387.034 10.0956 385.466 10.0938 383.83V16.169C10.0959 14.5334 10.7466 12.9653 11.9033 11.8088C13.06 10.6524 14.6281 10.0019 16.2638 10H269.425C271.06 10.0021 272.628 10.6527 273.785 11.8092C274.941 12.9656 275.592 14.5335 275.594 16.169V383.83C275.592 385.466 274.941 387.034 273.785 388.19C272.628 389.347 271.06 389.998 269.425 390H16.2638Z"/><path fill="#F6FAF6" d="M89.2525 346.171C66.2815 346.171 56.0705 343.302 55.1115 336.581C54.7085 333.763 54.8385 329.125 54.9745 324.213L55.1145 316.85C55.1145 309.477 63.8375 294.539 76.2665 292.661L77.3615 292.495L77.7985 293.084C78.4144 293.322 80.9575 294.066 89.1875 294.423C97.6604 294.057 100.189 293.277 100.757 293.053L101.217 292.507L102.237 292.661C114.666 294.539 123.389 309.477 123.389 316.85C123.389 319.175 123.46 321.736 123.529 324.211C123.666 329.124 123.795 333.762 123.392 336.581C122.431 343.302 112.222 346.171 89.2525 346.171Z"/><path fill="#223948" d="M101.965 294.485C113.281 296.194 121.549 310.009 121.549 316.851C121.549 323.693 122.149 332.265 121.571 336.322C120.929 340.811 114.042 344.329 89.2552 344.329C64.4682 344.329 57.5802 340.812 56.9392 336.322C56.3602 332.265 56.9602 323.689 56.9602 316.851C56.9602 310.013 65.2292 296.195 76.5442 294.485C76.5442 294.485 77.4972 295.769 89.1902 296.269C100.883 295.768 101.965 294.485 101.965 294.485ZM78.1852 290.507L75.9942 290.838C63.0302 292.798 53.2742 307.969 53.2742 316.85C53.2742 319.15 53.2032 321.699 53.1352 324.164C52.9962 329.155 52.8652 333.87 53.2892 336.843C54.4222 344.778 64.8432 348.015 89.2552 348.015C113.667 348.015 124.087 344.778 125.221 336.843C125.645 333.87 125.514 329.154 125.376 324.161L125.237 316.85C125.237 307.969 115.481 292.798 102.516 290.838L100.476 290.529L99.6912 291.461C98.7562 291.716 96.0062 292.281 89.1902 292.578C82.6622 292.293 79.9202 291.763 78.9242 291.503L78.1852 290.507Z"/><path fill="#F6FAF6" d="M88.9813 296.327C87.5583 296.327 84.0943 296.296 82.6733 296.012C76.2923 294.738 61.4453 288.918 61.4453 262.42C61.4453 243.134 71.1973 232.512 88.9023 232.512C106.797 232.512 117.061 243.413 117.061 262.42C117.061 287.194 105.012 294.394 94.9043 296.071C93.7733 296.259 91.1033 296.327 88.9813 296.327Z"/><path fill="#223948" d="M88.9026 234.355C108.55 234.355 115.219 247.383 115.219 262.418C115.219 283.596 106.396 292.293 94.6046 294.25C93.7056 294.4 91.3606 294.481 88.9826 294.481C86.5046 294.481 83.9906 294.393 83.0366 294.202C72.7636 292.153 63.2906 283.248 63.2906 262.418C63.2896 247.383 69.3416 234.355 88.9026 234.355ZM88.9026 230.667C70.0076 230.667 59.6016 241.943 59.6016 262.418C59.6016 290.28 75.4846 296.457 82.3146 297.819C83.8366 298.124 87.1446 298.169 88.9806 298.169C90.3456 298.169 93.6876 298.142 95.2106 297.887C106.017 296.094 118.904 288.484 118.904 262.417C118.904 242.24 107.969 230.667 88.9026 230.667Z"/><path fill="#F6FAF6" d="M196.747 346.171C173.776 346.171 163.565 343.302 162.606 336.581C162.204 333.763 162.334 329.125 162.47 324.213L162.61 316.85C162.61 309.477 171.332 294.539 183.762 292.661L184.857 292.495L185.294 293.084C185.91 293.322 188.453 294.066 196.682 294.423C205.156 294.057 207.685 293.277 208.253 293.053L208.712 292.507L209.733 292.661C222.162 294.539 230.885 309.477 230.885 316.85C230.885 319.175 230.956 321.736 231.025 324.211C231.161 329.124 231.29 333.762 230.887 336.581C229.927 343.302 219.717 346.171 196.747 346.171Z"/><path fill="#223948" d="M209.453 294.485C220.769 296.194 229.037 310.009 229.037 316.851C229.037 323.693 229.638 332.265 229.059 336.322C228.417 340.811 221.53 344.329 196.743 344.329C171.956 344.329 165.068 340.812 164.427 336.322C163.848 332.265 164.448 323.689 164.448 316.851C164.448 310.013 172.716 296.195 184.032 294.485C184.032 294.485 184.985 295.769 196.678 296.269C208.371 295.768 209.453 294.485 209.453 294.485ZM185.673 290.507L183.482 290.838C170.518 292.798 160.762 307.969 160.762 316.85C160.762 319.15 160.691 321.699 160.623 324.164C160.483 329.155 160.353 333.87 160.776 336.843C161.91 344.778 172.33 348.015 196.743 348.015C221.156 348.015 231.575 344.778 232.709 336.843C233.133 333.87 233.002 329.154 232.864 324.161L232.725 316.85C232.725 307.969 222.969 292.798 210.004 290.838L207.964 290.529L207.179 291.461C206.245 291.716 203.494 292.281 196.678 292.578C190.151 292.293 187.407 291.763 186.412 291.503L185.673 290.507Z"/><path fill="#F6FAF6" d="M196.469 296.327C195.046 296.327 191.582 296.296 190.161 296.012C183.781 294.738 168.934 288.918 168.934 262.42C168.934 243.134 178.685 232.512 196.391 232.512C214.287 232.512 224.55 243.413 224.55 262.42C224.55 287.194 212.501 294.394 202.394 296.071C201.263 296.259 198.592 296.327 196.469 296.327Z"/><path fill="#223948" d="M196.395 234.355C216.042 234.355 222.71 247.383 222.71 262.418C222.71 283.596 213.887 292.293 202.096 294.25C201.198 294.4 198.852 294.481 196.474 294.481C193.997 294.481 191.482 294.393 190.528 294.202C180.255 292.153 170.782 283.248 170.782 262.418C170.781 247.383 176.834 234.355 196.395 234.355ZM196.395 230.667C177.5 230.667 167.094 241.943 167.094 262.418C167.094 290.28 182.977 296.457 189.807 297.819C191.329 298.124 194.637 298.169 196.473 298.169C197.838 298.169 201.18 298.142 202.703 297.887C213.51 296.094 226.398 288.484 226.398 262.417C226.398 242.24 215.461 230.667 196.395 230.667Z"/><path fill="#F6FAF6" d="M143.236 371.05C120.266 371.05 110.055 368.181 109.094 361.461C108.692 358.642 108.821 354.002 108.958 349.09L109.097 341.729C109.097 334.355 117.82 319.418 130.249 317.54L131.345 317.374L131.782 317.963C132.398 318.2 134.941 318.946 143.171 319.303C151.646 318.937 154.175 318.156 154.742 317.931L155.202 317.386L156.222 317.54C168.651 319.418 177.375 334.355 177.375 341.729C177.375 344.054 177.445 346.616 177.515 349.092C177.651 354.003 177.78 358.643 177.378 361.46C176.417 368.181 166.207 371.05 143.236 371.05Z"/><path fill="#223948" d="M155.945 319.365C167.261 321.074 175.53 334.89 175.53 341.731C175.53 348.572 176.13 357.146 175.551 361.203C174.91 365.69 168.022 369.209 143.235 369.209C118.448 369.209 111.56 365.691 110.919 361.203C110.339 357.146 110.94 348.569 110.94 341.731C110.94 334.893 119.209 321.075 130.524 319.365C130.524 319.365 131.478 320.65 143.17 321.15C154.862 320.649 155.945 319.365 155.945 319.365ZM132.164 315.387L129.974 315.718C117.009 317.677 107.253 332.849 107.253 341.73C107.253 344.029 107.182 346.577 107.114 349.041C106.976 354.035 106.845 358.75 107.269 361.723C108.402 369.658 118.823 372.895 143.236 372.895C167.649 372.895 178.068 369.658 179.202 361.723C179.626 358.751 179.496 354.036 179.356 349.044L179.216 341.73C179.216 332.849 169.46 317.677 156.497 315.718L154.457 315.41L153.671 316.341C152.737 316.597 149.986 317.161 143.17 317.458C136.641 317.172 133.899 316.644 132.903 316.384L132.164 315.387Z"/><path fill="#F6FAF6" d="M142.962 321.204C141.538 321.204 138.074 321.173 136.654 320.889C130.273 319.616 115.426 313.795 115.426 287.297C115.426 268.011 125.177 257.389 142.883 257.389C160.778 257.389 171.041 268.29 171.041 287.297C171.041 312.071 158.993 319.271 148.885 320.948C147.755 321.137 145.084 321.204 142.962 321.204Z"/><path fill="#223948" d="M142.879 259.232C162.526 259.232 169.193 272.259 169.193 287.295C169.193 308.472 160.373 317.171 148.579 319.128C147.681 319.278 145.336 319.359 142.958 319.359C140.48 319.359 137.965 319.271 137.012 319.08C126.739 317.031 117.266 308.124 117.266 287.295C117.266 272.259 123.319 259.232 142.879 259.232ZM142.879 255.544C123.985 255.544 113.578 266.82 113.578 287.295C113.578 315.158 129.462 321.335 136.291 322.696C137.813 323.001 141.121 323.046 142.958 323.046C144.323 323.046 147.663 323.019 149.187 322.764C159.993 320.971 172.881 313.361 172.881 287.294C172.881 267.117 161.946 255.544 142.879 255.544Z"/><path fill="url(#paint1_linear_930_3609)" d="M164.325 197.441C164.323 199.47 162.677 201.123 160.653 201.123H154.61V218.701C154.609 219.551 154.271 220.366 153.67 220.967C153.068 221.568 152.254 221.906 151.404 221.907H134.6C133.75 221.906 132.935 221.568 132.334 220.967C131.733 220.366 131.395 219.551 131.394 218.701V201.123H125.352C124.377 201.121 123.442 200.732 122.754 200.041C122.066 199.351 121.679 198.416 121.68 197.441C121.679 196.558 122.002 195.706 122.588 195.046L140.238 174.806C140.583 174.412 141.008 174.096 141.485 173.88C141.961 173.663 142.478 173.551 143.002 173.551C143.526 173.551 144.043 173.663 144.52 173.88C144.997 174.097 145.422 174.412 145.766 174.806L163.417 195.046C164.002 195.706 164.326 196.558 164.325 197.441Z"/><path fill="#4F0C16" d="M122.562 197.44C122.562 196.813 122.776 196.173 123.253 195.626L140.903 175.388C141.164 175.089 141.486 174.848 141.848 174.684C142.21 174.519 142.603 174.434 143 174.434C143.397 174.434 143.79 174.519 144.152 174.684C144.514 174.848 144.836 175.089 145.097 175.388L162.747 195.629C163.191 196.128 163.437 196.773 163.438 197.441C163.438 198.878 162.313 200.24 160.65 200.24H153.724V218.701C153.724 219.317 153.479 219.907 153.044 220.343C152.609 220.779 152.018 221.023 151.402 221.023H134.598C133.982 221.023 133.392 220.778 132.956 220.343C132.52 219.908 132.276 219.317 132.276 218.701V200.239H125.349C123.686 200.239 122.562 198.876 122.562 197.44ZM120.793 197.44C120.793 198.649 121.273 199.809 122.127 200.665C122.981 201.521 124.14 202.004 125.349 202.008H130.507V218.701C130.509 219.786 130.94 220.825 131.707 221.592C132.474 222.359 133.513 222.79 134.598 222.792H151.402C152.486 222.79 153.526 222.359 154.293 221.592C155.06 220.825 155.491 219.786 155.492 218.701V202.008H160.65C161.859 202.005 163.018 201.522 163.872 200.666C164.727 199.809 165.206 198.649 165.207 197.44C165.203 196.345 164.803 195.288 164.08 194.465L146.43 174.226C146.003 173.737 145.475 173.344 144.884 173.075C144.292 172.806 143.65 172.667 143 172.667C142.35 172.667 141.708 172.806 141.116 173.075C140.524 173.344 139.997 173.736 139.57 174.226L121.919 194.465C121.197 195.288 120.797 196.345 120.793 197.44Z"/><path fill="url(#paint2_linear_930_3609)" d="M222.618 197.441C222.616 199.47 220.97 201.123 218.946 201.123H212.903V218.701C212.902 219.551 212.563 220.366 211.962 220.967C211.361 221.568 210.547 221.906 209.697 221.907H192.893C192.043 221.906 191.228 221.568 190.627 220.967C190.026 220.366 189.688 219.551 189.687 218.701V201.123H183.645C182.67 201.121 181.735 200.732 181.047 200.041C180.359 199.351 179.972 198.416 179.973 197.441C179.971 196.558 180.295 195.706 180.881 195.046L198.531 174.806C198.875 174.412 199.301 174.096 199.778 173.88C200.254 173.663 200.771 173.551 201.295 173.551C201.819 173.551 202.336 173.663 202.813 173.88C203.29 174.097 203.715 174.412 204.059 174.806L221.71 195.046C222.295 195.706 222.619 196.558 222.618 197.441Z"/><path fill="#4F0C16" d="M180.855 197.44C180.855 196.813 181.069 196.173 181.546 195.626L199.196 175.388C199.457 175.089 199.779 174.848 200.141 174.684C200.503 174.519 200.895 174.434 201.293 174.434C201.69 174.434 202.083 174.519 202.445 174.684C202.807 174.848 203.129 175.089 203.39 175.388L221.04 195.629C221.484 196.128 221.73 196.773 221.731 197.441C221.731 198.878 220.606 200.24 218.943 200.24H212.017V218.701C212.017 219.317 211.772 219.907 211.337 220.343C210.902 220.779 210.311 221.023 209.695 221.023H192.891C192.275 221.023 191.685 220.778 191.249 220.343C190.813 219.908 190.569 219.317 190.569 218.701V200.239H183.642C181.979 200.239 180.855 198.876 180.855 197.44ZM179.086 197.44C179.086 198.649 179.566 199.809 180.42 200.665C181.274 201.521 182.433 202.004 183.642 202.008H188.8V218.701C188.802 219.786 189.233 220.825 190 221.592C190.767 222.359 191.806 222.79 192.891 222.792H209.695C210.779 222.79 211.819 222.359 212.586 221.592C213.353 220.825 213.784 219.786 213.785 218.701V202.008H218.943C220.152 202.005 221.311 201.522 222.165 200.666C223.019 199.809 223.499 198.649 223.5 197.44C223.496 196.345 223.096 195.288 222.373 194.465L204.723 174.226C204.296 173.737 203.768 173.344 203.177 173.075C202.585 172.806 201.943 172.667 201.293 172.667C200.643 172.667 200.001 172.806 199.409 173.075C198.817 173.344 198.29 173.736 197.863 174.226L180.212 194.465C179.49 195.288 179.09 196.345 179.086 197.44Z"/><path fill="url(#paint3_linear_930_3609)" d="M106.032 197.441C106.03 199.47 104.384 201.123 102.36 201.123H96.3167V218.701C96.3157 219.551 95.9776 220.366 95.3765 220.967C94.7755 221.568 93.9607 221.906 93.1107 221.907H76.3067C75.4568 221.906 74.6419 221.568 74.0409 220.967C73.4399 220.366 73.1018 219.551 73.1007 218.701V201.123H67.0587C66.0838 201.121 65.1495 200.732 64.461 200.041C63.7726 199.351 63.3862 198.416 63.3867 197.441C63.3856 196.558 63.7087 195.706 64.2947 195.046L81.9447 174.806C82.2887 174.412 82.7137 174.096 83.1907 173.88C83.6677 173.664 84.1847 173.551 84.7087 173.551C85.2327 173.551 85.7497 173.663 86.2267 173.88C86.7037 174.097 87.1287 174.412 87.4727 174.806L105.124 195.046C105.71 195.706 106.033 196.558 106.032 197.441Z"/><path fill="#4F0C16" d="M64.269 197.44C64.269 196.813 64.483 196.173 64.96 195.626L82.61 175.388C82.8711 175.088 83.1933 174.848 83.555 174.684C83.917 174.519 84.31 174.434 84.707 174.434C85.104 174.434 85.497 174.519 85.859 174.684C86.2207 174.848 86.5429 175.088 86.804 175.388L104.454 195.629C104.898 196.128 105.144 196.773 105.145 197.441C105.145 198.878 104.02 200.24 102.357 200.24H95.431V218.701C95.431 219.317 95.186 219.907 94.751 220.343C94.316 220.779 93.725 221.023 93.109 221.023H76.305C75.689 221.023 75.099 220.778 74.663 220.343C74.227 219.908 73.983 219.317 73.983 218.701V200.239H67.055C65.392 200.239 64.269 198.876 64.269 197.44ZM62.5 197.44C62.5005 198.649 62.9803 199.809 63.8343 200.665C64.6883 201.521 65.8468 202.004 67.056 202.008H72.215V218.701C72.216 219.786 72.648 220.825 73.414 221.592C74.1811 222.359 75.2206 222.79 76.305 222.792H93.109C94.1935 222.79 95.233 222.359 96 221.592C96.767 220.825 97.198 219.786 97.199 218.701V202.008H102.356C103.565 202.005 104.724 201.522 105.578 200.666C106.433 199.809 106.913 198.649 106.913 197.44C106.909 196.345 106.509 195.288 105.786 194.465L88.136 174.226C87.7088 173.736 87.1816 173.344 86.59 173.075C85.9983 172.806 85.3559 172.667 84.706 172.667C84.0561 172.667 83.4137 172.806 82.8221 173.075C82.2304 173.344 81.7032 173.736 81.276 174.226L63.625 194.465C62.903 195.289 62.504 196.345 62.5 197.44Z"/><path fill="#000" stroke="#000" stroke-miterlimit="10" stroke-width="2" d="M91.3385 84.4065H200.889C202.992 84.4065 203.727 81.6195 201.901 80.5805L147.764 49.8295C147.145 49.4745 146.385 49.4735 145.761 49.8185L90.3455 80.5705C88.4985 81.5955 89.2245 84.4065 91.3385 84.4065ZM90.4915 92.1175H201.585C201.904 92.1175 202.161 91.8605 202.161 91.5425V88.7525C202.161 88.4365 201.905 88.1775 201.585 88.1775H90.4925C90.1745 88.1775 89.9175 88.4335 89.9175 88.7525V91.5425C89.9175 91.8605 90.1735 92.1175 90.4915 92.1175ZM90.5245 155.786H201.701C201.842 155.783 201.977 155.726 202.076 155.627C202.175 155.527 202.232 155.392 202.233 155.252V152.38C202.234 152.31 202.22 152.24 202.194 152.176C202.167 152.111 202.128 152.052 202.078 152.003C202.029 151.953 201.97 151.914 201.905 151.887C201.841 151.861 201.771 151.847 201.701 151.848H192.971V150.863H196.702C197.367 150.863 197.844 150.223 197.654 149.584L195.617 142.713C195.492 142.291 195.103 142.001 194.662 142.001H192.969V101.527H194.58C195.021 101.527 195.41 101.237 195.535 100.815L197.572 93.9425C197.762 93.3075 197.282 92.6655 196.617 92.6655H192.969V92.4445H100.09V92.6655H96.6085C95.9435 92.6655 95.4665 93.3045 95.6535 93.9425L97.6935 100.815C97.7541 101.02 97.8797 101.2 98.0515 101.329C98.2235 101.457 98.4321 101.526 98.6465 101.527H100.092V142.001H98.7295C98.2885 142.001 97.9005 142.291 97.7755 142.713L95.7385 149.584C95.5475 150.221 96.0265 150.863 96.6925 150.863H100.092V151.848H90.5265C90.2315 151.848 89.9935 152.088 89.9935 152.38V155.252C89.993 155.322 90.0064 155.391 90.0329 155.456C90.0594 155.521 90.0985 155.58 90.148 155.63C90.1975 155.679 90.2563 155.719 90.3211 155.745C90.3859 155.772 90.4544 155.786 90.5245 155.786ZM206.717 159.396H86.3455C86.0515 159.396 85.8125 159.634 85.8125 159.929V162.801C85.8125 163.096 86.0525 163.334 86.3455 163.334H206.717C207.012 163.334 207.249 163.093 207.249 162.801V159.929C207.249 159.86 207.237 159.79 207.21 159.725C207.183 159.659 207.145 159.6 207.095 159.551C207.046 159.501 206.987 159.462 206.921 159.436C206.856 159.409 206.788 159.396 206.717 159.396Z" opacity=".04"/><path fill="#B2925C" stroke="#563E2A" stroke-miterlimit="10" stroke-width="2" d="M87.4059 80.4667H196.955C199.059 80.4667 199.794 77.6797 197.968 76.6417L143.833 45.8907C143.213 45.5367 142.452 45.5347 141.829 45.8797L86.4119 76.6307C84.5649 77.6557 85.2919 80.4667 87.4059 80.4667ZM86.5589 88.1777H197.655C197.972 88.1777 198.229 87.9207 198.229 87.6027V84.8127C198.229 84.4967 197.973 84.2377 197.655 84.2377H86.5589C86.2409 84.2377 85.9839 84.4937 85.9839 84.8127V87.6027C85.9839 87.9207 86.2409 88.1777 86.5589 88.1777ZM86.5919 151.846H197.769C197.909 151.846 198.045 151.789 198.145 151.689C198.245 151.589 198.301 151.455 198.302 151.313V148.441C198.302 148.145 198.061 147.908 197.769 147.908H189.038V146.923H192.769C193.434 146.923 193.911 146.284 193.723 145.645L191.684 138.774C191.561 138.352 191.17 138.062 190.729 138.062H189.037V97.5867H190.648C191.088 97.5867 191.476 97.2967 191.601 96.8747L193.639 90.0017C193.829 89.3667 193.349 88.7247 192.684 88.7247H189.037V88.5037H96.1569V88.7247H92.6759C92.0119 88.7247 91.5339 89.3637 91.7209 90.0017L93.7609 96.8747C93.8221 97.0799 93.9476 97.2601 94.1189 97.3887C94.2909 97.5167 94.4999 97.5867 94.7139 97.5867H96.1589V138.062H94.7959C94.3549 138.062 93.9669 138.352 93.8419 138.774L91.8049 145.645C91.6139 146.282 92.0939 146.923 92.7589 146.923H96.1589V147.908H86.5929C86.2979 147.908 86.0599 148.148 86.0599 148.441V151.313C86.0595 151.383 86.073 151.452 86.0996 151.517C86.1262 151.582 86.1653 151.641 86.2148 151.69C86.2642 151.74 86.323 151.779 86.3878 151.806C86.4525 151.832 86.5219 151.846 86.5919 151.846ZM202.784 155.456H82.4119C82.1179 155.456 81.8789 155.695 81.8789 155.99V158.862C81.8789 159.155 82.1189 159.395 82.4119 159.395H202.784C203.079 159.395 203.316 159.153 203.316 158.862V155.99C203.317 155.919 203.303 155.85 203.276 155.786C203.249 155.722 203.211 155.662 203.161 155.613C203.112 155.563 203.053 155.523 202.988 155.497C202.923 155.47 202.855 155.456 202.784 155.456Z"/><path fill="#45361F" d="M96.1523 88.5039H189.033V151.845H96.1523V88.5039Z"/><path fill="#EDD4A6" d="M96.8667 139.047C95.7517 139.047 94.8438 138.141 94.8438 137.023V98.4058C94.8438 97.2878 95.7517 96.3818 96.8667 96.3818H106.276C107.395 96.3818 108.3 97.2878 108.3 98.4058V137.023C108.3 138.141 107.395 139.047 106.276 139.047H96.8667Z"/><path fill="#77593C" d="M106.273 97.6944C106.367 97.6941 106.459 97.7123 106.546 97.7479C106.632 97.7836 106.711 97.8359 106.777 97.902C106.843 97.968 106.896 98.0465 106.931 98.1329C106.967 98.2193 106.985 98.3119 106.985 98.4054V137.023C106.986 137.117 106.967 137.21 106.932 137.296C106.896 137.383 106.844 137.461 106.777 137.527C106.711 137.594 106.633 137.646 106.546 137.682C106.46 137.717 106.367 137.736 106.273 137.735H96.8653C96.7713 137.735 96.6793 137.716 96.5933 137.68C96.5073 137.644 96.4283 137.592 96.3623 137.526C96.2963 137.46 96.244 137.382 96.2083 137.295C96.1733 137.209 96.1543 137.116 96.1543 137.023V98.4054C96.1542 98.3119 96.1725 98.2193 96.2083 98.1329C96.244 98.0465 96.2965 97.968 96.3626 97.902C96.4288 97.8359 96.5074 97.7836 96.5938 97.7479C96.6802 97.7123 96.7728 97.6941 96.8663 97.6944H106.273ZM106.273 95.0684H96.8653C95.0273 95.0684 93.5273 96.5654 93.5273 98.4054V137.023C93.5273 138.861 95.0243 140.36 96.8653 140.36H106.273C108.112 140.36 109.61 138.861 109.61 137.023V98.4054C109.609 96.5654 108.112 95.0684 106.273 95.0684Z"/><path fill="#EDD4A6" d="M136.906 139.047C135.791 139.047 134.883 138.141 134.883 137.023V98.4058C134.883 97.2878 135.791 96.3818 136.906 96.3818H146.315C147.434 96.3818 148.339 97.2878 148.339 98.4058V137.023C148.339 138.141 147.434 139.047 146.315 139.047H136.906Z"/><path fill="#77593C" d="M146.316 97.6944C146.41 97.6941 146.502 97.7123 146.589 97.7479C146.675 97.7836 146.754 97.8359 146.82 97.902C146.886 97.968 146.939 98.0465 146.974 98.1329C147.01 98.2193 147.028 98.3119 147.028 98.4054V137.023C147.029 137.117 147.01 137.21 146.975 137.296C146.939 137.383 146.887 137.461 146.82 137.527C146.754 137.594 146.676 137.646 146.589 137.682C146.503 137.717 146.41 137.736 146.316 137.735H136.907C136.814 137.735 136.721 137.716 136.634 137.68C136.548 137.644 136.47 137.592 136.404 137.526C136.338 137.46 136.285 137.381 136.25 137.295C136.214 137.209 136.196 137.117 136.196 137.023V98.4054C136.196 98.312 136.214 98.2194 136.25 98.1331C136.286 98.0468 136.338 97.9684 136.404 97.9023C136.47 97.8363 136.549 97.7839 136.635 97.7482C136.721 97.7125 136.814 97.6942 136.907 97.6944H146.316ZM146.316 95.0684H136.907C135.07 95.0684 133.57 96.5654 133.57 98.4054V137.023C133.57 138.861 135.068 140.36 136.907 140.36H146.316C148.155 140.36 149.653 138.861 149.653 137.023V98.4054C149.652 96.5654 148.155 95.0684 146.316 95.0684Z"/><path fill="#EDD4A6" d="M178.918 139.047C177.801 139.047 176.895 138.141 176.895 137.023V98.4058C176.895 97.2878 177.801 96.3818 178.918 96.3818H188.327C189.444 96.3818 190.351 97.2878 190.351 98.4058V137.023C190.351 138.141 189.444 139.047 188.327 139.047H178.918Z"/><path fill="#77593C" d="M188.327 97.6944C188.421 97.694 188.513 97.7121 188.6 97.7476C188.686 97.7832 188.765 97.8355 188.831 97.9016C188.898 97.9677 188.95 98.0462 188.986 98.1327C189.022 98.2191 189.04 98.3118 189.04 98.4054V137.023C189.04 137.416 188.721 137.735 188.327 137.735H178.918C178.825 137.735 178.732 137.716 178.646 137.68C178.56 137.644 178.481 137.592 178.415 137.526C178.349 137.46 178.297 137.382 178.262 137.295C178.226 137.209 178.207 137.117 178.208 137.023V98.4054C178.208 98.312 178.226 98.2196 178.262 98.1333C178.297 98.0471 178.35 97.9687 178.416 97.9027C178.482 97.8366 178.56 97.7842 178.646 97.7485C178.732 97.7128 178.825 97.6944 178.918 97.6944H188.327ZM188.327 95.0684H178.918C178.033 95.0694 177.185 95.4214 176.56 96.047C175.935 96.6726 175.583 97.5207 175.582 98.4054V137.023C175.582 138.861 177.079 140.36 178.918 140.36H188.327C190.167 140.36 191.665 138.861 191.665 137.023V98.4054C191.664 96.5654 190.167 95.0684 188.327 95.0684Z"/><path fill="#EDD4A6" d="M87.4039 81.7776C86.6577 81.7847 85.9309 81.5402 85.3407 81.0835C84.7505 80.6269 84.3314 79.9847 84.1509 79.2606C83.7609 77.7566 84.4119 76.2356 85.7719 75.4806L141.189 44.7296C141.686 44.4526 142.251 44.3086 142.817 44.3086C143.397 44.3086 143.973 44.4596 144.479 44.7466L198.611 75.4976C199.956 76.2616 200.598 77.7796 200.2 79.2756C200.017 79.996 199.597 80.6341 199.008 81.0876C198.419 81.541 197.694 81.7837 196.951 81.7766L87.4039 81.7776Z"/><path fill="#77593C" d="M142.82 45.6231C143.174 45.6224 143.523 45.7141 143.831 45.8891L197.965 76.6401C199.792 77.6781 199.057 80.4661 196.953 80.4661H87.403C85.292 80.4661 84.563 77.6551 86.411 76.6301L141.828 45.8791C142.137 45.7071 142.478 45.6231 142.82 45.6231ZM142.82 42.9971C142.027 42.9971 141.246 43.1991 140.553 43.5831L85.137 74.3351C84.2245 74.8293 83.5055 75.617 83.0962 76.5707C82.687 77.5243 82.6115 78.5882 82.882 79.5901C83.1316 80.5973 83.7136 81.4909 84.5341 82.1262C85.3545 82.7615 86.3653 83.1015 87.403 83.0911H196.955C199.107 83.0911 200.922 81.6941 201.471 79.6131C202.02 77.5321 201.133 75.4211 199.259 74.3571L145.128 43.6061C144.425 43.2071 143.629 42.9971 142.82 42.9971Z"/><path fill="#B2925C" stroke="#563E2A" stroke-miterlimit="10" stroke-width="2" d="M108.839 138.062H94.7894C94.3484 138.062 93.9594 138.352 93.8344 138.774L91.7974 145.644C91.6074 146.282 92.0864 146.923 92.7524 146.923H110.878C111.542 146.923 112.019 146.284 111.831 145.644L109.794 138.774C109.732 138.569 109.606 138.389 109.434 138.26C109.262 138.132 109.054 138.062 108.839 138.062ZM148.715 138.062H134.666C134.225 138.062 133.836 138.352 133.711 138.774L131.673 145.644C131.484 146.282 131.962 146.923 132.628 146.923H150.753C151.418 146.923 151.896 146.284 151.707 145.644L149.67 138.774C149.609 138.568 149.482 138.388 149.311 138.26C149.139 138.132 148.93 138.062 148.715 138.062ZM190.724 138.062H176.674C176.234 138.062 175.846 138.352 175.721 138.774L173.684 145.644C173.493 146.282 173.972 146.923 174.637 146.923H192.763C193.427 146.923 193.906 146.284 193.716 145.644L191.679 138.774C191.617 138.569 191.491 138.389 191.319 138.26C191.148 138.131 190.939 138.061 190.724 138.062ZM108.756 97.5866H94.7074C94.493 97.5861 94.2844 97.5167 94.1124 97.3886C93.9404 97.2606 93.8144 97.0796 93.7534 96.8746L91.7154 90.0016C91.5264 89.3666 92.0054 88.7246 92.6704 88.7246H110.794C111.46 88.7246 111.938 89.3636 111.75 90.0016L109.711 96.8746C109.651 97.0805 109.526 97.2613 109.354 97.3897C109.182 97.5181 108.973 97.5872 108.758 97.5866H108.756ZM148.632 97.5866H134.583C134.368 97.5866 134.16 97.5166 133.988 97.3886C133.816 97.2606 133.689 97.0796 133.628 96.8746L131.59 90.0016C131.401 89.3666 131.88 88.7246 132.543 88.7246H150.668C151.334 88.7246 151.812 89.3636 151.624 90.0016L149.585 96.8746C149.525 97.0806 149.399 97.2606 149.227 97.3886C149.056 97.5173 148.847 97.5868 148.632 97.5866ZM190.641 97.5866H176.592C176.377 97.5866 176.169 97.5166 175.997 97.3886C175.826 97.2602 175.7 97.08 175.638 96.8746L173.599 90.0016C173.41 89.3666 173.889 88.7246 174.554 88.7246H192.677C193.343 88.7246 193.821 89.3636 193.633 90.0016L191.595 96.8746C191.534 97.0806 191.409 97.2606 191.237 97.3886C191.065 97.5169 190.856 97.5863 190.641 97.5866Z"/><path fill="#EDD4A6" d="M86.5599 89.4879C86.0593 89.4873 85.5794 89.2883 85.2254 88.9343C84.8715 88.5804 84.6724 88.1004 84.6719 87.5999V84.8099C84.6724 84.3093 84.8715 83.8294 85.2254 83.4754C85.5794 83.1215 86.0593 82.9224 86.5599 82.9219H197.655C198.155 82.9224 198.635 83.1215 198.989 83.4754C199.343 83.8294 199.542 84.3093 199.543 84.8099V87.5999C199.542 88.1004 199.343 88.5804 198.989 88.9343C198.635 89.2883 198.155 89.4873 197.655 89.4879H86.5599Z"/><path fill="#77593C" d="M197.656 84.2393C197.973 84.2393 198.23 84.4953 198.23 84.8143V87.6043C198.23 87.9213 197.974 88.1793 197.656 88.1793H86.5604C86.4844 88.1793 86.4104 88.1643 86.3404 88.1353C86.2704 88.1063 86.2074 88.0643 86.1544 88.0103C86.1009 87.9567 86.0584 87.8932 86.0294 87.8233C86.0004 87.7533 85.9854 87.6783 85.9854 87.6033V84.8133C85.9854 84.4973 86.2424 84.2383 86.5604 84.2383L197.656 84.2393ZM197.656 81.6133H86.5604C84.7964 81.6133 83.3594 83.0483 83.3594 84.8143V87.6043C83.3594 89.3703 84.7954 90.8053 86.5604 90.8053H197.656C199.419 90.8053 200.855 89.3693 200.855 87.6043V84.8143C200.854 83.0483 199.419 81.6133 197.656 81.6133Z"/><path fill="#EDD4A6" d="M86.5882 153.16C86.0989 153.159 85.63 152.964 85.284 152.618C84.9381 152.272 84.7432 151.803 84.7422 151.314V148.442C84.7432 147.952 84.9381 147.484 85.284 147.138C85.63 146.792 86.0989 146.597 86.5882 146.596H197.766C198.255 146.597 198.724 146.792 199.07 147.138C199.416 147.484 199.611 147.952 199.612 148.442V151.314C199.611 151.803 199.416 152.272 199.07 152.618C198.724 152.964 198.255 153.159 197.766 153.16H86.5882Z"/><path fill="#77593C" d="M197.763 147.907C198.056 147.907 198.296 148.147 198.296 148.44V151.313C198.296 151.607 198.055 151.846 197.763 151.846H86.5838C86.5138 151.846 86.4446 151.832 86.3798 151.805C86.3148 151.778 86.2568 151.739 86.2068 151.69C86.1568 151.641 86.1178 151.581 86.0908 151.517C86.0644 151.452 86.0508 151.383 86.0508 151.313V148.44C86.0508 148.145 86.2898 147.907 86.5838 147.907H197.763ZM197.763 145.281H86.5838C84.8418 145.281 83.4248 146.7 83.4248 148.44V151.313C83.4248 153.054 84.8418 154.471 86.5838 154.471H197.763C199.504 154.471 200.921 153.054 200.921 151.313V148.44C200.921 146.7 199.503 145.281 197.763 145.281Z"/><path fill="#EDD4A6" d="M82.4075 160.707C81.9183 160.706 81.4493 160.511 81.1034 160.165C80.7574 159.819 80.5626 159.35 80.5615 158.861V155.988C80.5628 155.498 80.7578 155.03 81.1037 154.684C81.4497 154.338 81.9184 154.144 82.4075 154.143H202.781C203.798 154.143 204.625 154.97 204.625 155.988V158.861C204.623 159.349 204.429 159.818 204.083 160.164C203.738 160.51 203.269 160.705 202.781 160.707H82.4075Z"/><path fill="#77593C" d="M202.781 155.455C203.075 155.455 203.313 155.694 203.313 155.987V158.861C203.312 159.002 203.256 159.137 203.157 159.237C203.057 159.337 202.923 159.392 202.781 159.393H82.409C82.115 159.393 81.876 159.152 81.876 158.861V155.987C81.876 155.692 82.116 155.455 82.409 155.455H202.781ZM202.781 152.829H82.409C80.667 152.829 79.25 154.246 79.25 155.987V158.861C79.25 160.601 80.668 162.019 82.409 162.019H202.781C203.618 162.019 204.421 161.686 205.013 161.094C205.606 160.501 205.938 159.698 205.939 158.861V155.987C205.938 155.15 205.606 154.347 205.013 153.755C204.421 153.163 203.618 152.83 202.781 152.829Z"/><path fill="#C9A27B" d="M95.4696 77.0214H188.745C188.939 77.0188 189.128 76.9525 189.281 76.8326C189.434 76.7128 189.544 76.5459 189.593 76.3577C189.643 76.1695 189.629 75.9703 189.555 75.7905C189.48 75.6107 189.349 75.4604 189.181 75.3624L143.092 49.1814C142.959 49.1068 142.81 49.0672 142.659 49.0664C142.507 49.0654 142.358 49.1044 142.224 49.1774L95.0396 75.3584C94.2396 75.8034 94.5556 77.0214 95.4696 77.0214Z"/><path fill="#997656" d="M95.4696 77.0214L142.6 51.4164L188.745 77.0214C188.939 77.0188 189.128 76.9525 189.281 76.8326C189.434 76.7128 189.544 76.5459 189.593 76.3577C189.643 76.1695 189.629 75.9703 189.555 75.7905C189.48 75.6107 189.349 75.4604 189.181 75.3624L143.092 49.1814C142.959 49.1068 142.81 49.0672 142.659 49.0664C142.507 49.0654 142.358 49.1044 142.224 49.1774L95.0396 75.3584C94.2396 75.8034 94.5556 77.0214 95.4696 77.0214Z" opacity=".25"/><g opacity=".2"><path fill="#000" d="M124.647 63.1491V42.0471L142.924 31.4961L161.2 42.0471V63.1491L142.924 73.7011L124.647 63.1491Z" opacity=".2"/><path fill="#000" d="M142.924 33.0105L159.889 42.8035V62.3905L142.924 72.1855L125.961 62.3905V42.8035L142.924 33.0105ZM142.924 29.9795L141.612 30.7375L124.649 40.5305L123.336 41.2895V63.9045L124.649 64.6635L141.612 74.4565L142.924 75.2135L144.237 74.4565L161.201 64.6635L162.514 63.9045V41.2885L161.201 40.5295L144.237 30.7365L142.924 29.9795Z" opacity=".2"/></g><path fill="#EDD4A6" d="M123.336 61.8356V40.7346L141.613 30.1836L159.889 40.7346V61.8366L141.613 72.3886L123.336 61.8356Z"/><path fill="#77593C" d="M141.611 31.698L158.575 41.492V61.079L141.611 70.874L124.649 61.079V41.492L141.611 31.698ZM141.611 28.667L140.299 29.425L123.336 39.218L122.023 39.977V62.593L123.336 63.352L140.299 73.145L141.611 73.902L142.925 73.145L159.888 63.352L161.201 62.593V39.977L159.888 39.218L142.925 29.425L141.611 28.667Z"/><path fill="#FFEED2" d="M142.268 63.3928C135.593 63.3928 130.16 57.9588 130.16 51.2838C130.16 44.6088 135.593 39.1758 142.268 39.1758C144.485 39.1714 146.66 39.7775 148.555 40.9278C150.45 42.0781 151.992 43.7281 153.011 45.6968L153.238 46.1328L148.53 48.5828L148.277 48.3558C147.516 47.6668 146.527 47.283 145.5 47.2778C144.391 47.2791 143.327 47.7205 142.542 48.505C141.758 49.2896 141.316 50.3533 141.315 51.4628C141.317 52.5722 141.758 53.6356 142.543 54.4199C143.327 55.2043 144.391 55.6455 145.5 55.6468C146.254 55.6468 146.98 55.4408 147.653 55.0328L147.936 54.8608L152.298 58.0888L152.005 58.4838C149.728 61.5598 146.09 63.3928 142.268 63.3928Z"/><path fill="#77593C" d="M142.272 39.6706C144.397 39.6723 146.482 40.2565 148.298 41.3596C150.115 42.4627 151.595 44.0426 152.577 45.9276L148.609 47.9916C147.783 47.2536 146.7 46.7876 145.504 46.7876C144.264 46.7884 143.075 47.2813 142.198 48.158C141.321 49.0347 140.828 50.2236 140.827 51.4636C140.828 52.7036 141.321 53.8925 142.198 54.7692C143.075 55.6459 144.264 56.1388 145.504 56.1396C146.388 56.1396 147.206 55.8796 147.91 55.4556L151.612 58.1926C149.424 61.1516 145.953 62.9016 142.273 62.9016C135.901 62.9016 130.659 57.6586 130.659 51.2846C130.659 44.9106 135.901 39.6706 142.272 39.6706ZM142.272 38.6856C138.932 38.6909 135.73 40.0201 133.368 42.3819C131.006 44.7437 129.677 47.9455 129.672 51.2856C129.677 54.6259 131.006 57.8279 133.368 60.1899C135.73 62.552 138.932 63.8813 142.272 63.8866C144.242 63.8826 146.183 63.4186 147.942 62.5317C149.701 61.6447 151.229 60.3592 152.403 58.7776L152.988 57.9856L152.195 57.4006L148.494 54.6616L147.963 54.2696L147.398 54.6106C146.802 54.9716 146.166 55.1556 145.501 55.1556C143.465 55.1556 141.81 53.4986 141.81 51.4636C141.812 50.4852 142.202 49.5475 142.893 48.8556C143.585 48.1637 144.523 47.774 145.501 47.7716C146.396 47.7716 147.265 48.1106 147.95 48.7256L148.457 49.1796L149.062 48.8656L153.031 46.8016L153.905 46.3476L153.451 45.4736C151.275 41.2836 146.99 38.6836 142.272 38.6836V38.6856Z"/><path fill="#CDEBFF" d="M265.594 20V380H20.0938V20H265.594ZM269.425 0H16.2638C7.33275 0 0.09375 7.239 0.09375 16.169V383.83C0.09375 392.761 7.33275 400 16.2638 400H269.425C278.355 400 285.594 392.761 285.594 383.83V16.169C285.594 7.239 278.354 0 269.425 0Z"/><path fill="#414042" d="M269.425 10C271.06 10.0021 272.628 10.6527 273.785 11.8092C274.941 12.9656 275.592 14.5335 275.594 16.169V383.83C275.592 385.466 274.941 387.034 273.785 388.19C272.628 389.347 271.06 389.998 269.425 390H16.2638C14.6279 389.998 13.0596 389.348 11.9029 388.191C10.7462 387.034 10.0956 385.466 10.0938 383.83V16.169C10.0959 14.5334 10.7466 12.9653 11.9033 11.8088C13.06 10.6524 14.6281 10.0019 16.2638 10H269.425ZM269.425 0H16.2638C7.33275 0 0.09375 7.239 0.09375 16.169V383.83C0.09375 392.761 7.33275 400 16.2638 400H269.425C278.355 400 285.594 392.761 285.594 383.83V16.169C285.594 7.239 278.354 0 269.425 0Z"/></g><defs><radialGradient id="paint0_radial_930_3609" cx="0" cy="0" r="1" gradientTransform="translate(142.844 200) scale(177.165 177.499)" gradientUnits="userSpaceOnUse"><stop stop-color="#A4C7DC"/><stop offset=".495" stop-color="#85AEC0"/><stop offset="1" stop-color="#6696A4"/></radialGradient><linearGradient id="paint1_linear_930_3609" x1="149.841" x2="124.737" y1="177.807" y2="211.624" gradientUnits="userSpaceOnUse"><stop stop-color="#EC6F66"/><stop offset=".008" stop-color="#EC6D65"/><stop offset=".17" stop-color="#EC504D"/><stop offset=".341" stop-color="#EC393B"/><stop offset=".525" stop-color="#EC292E"/><stop offset=".731" stop-color="#EC1F26"/><stop offset="1" stop-color="#EC1C24"/></linearGradient><linearGradient id="paint2_linear_930_3609" x1="208.134" x2="183.03" y1="177.807" y2="211.624" gradientUnits="userSpaceOnUse"><stop stop-color="#EC6F66"/><stop offset=".008" stop-color="#EC6D65"/><stop offset=".17" stop-color="#EC504D"/><stop offset=".341" stop-color="#EC393B"/><stop offset=".525" stop-color="#EC292E"/><stop offset=".731" stop-color="#EC1F26"/><stop offset="1" stop-color="#EC1C24"/></linearGradient><linearGradient id="paint3_linear_930_3609" x1="91.548" x2="66.444" y1="177.807" y2="211.624" gradientUnits="userSpaceOnUse"><stop stop-color="#EC6F66"/><stop offset=".008" stop-color="#EC6D65"/><stop offset=".17" stop-color="#EC504D"/><stop offset=".341" stop-color="#EC393B"/><stop offset=".525" stop-color="#EC292E"/><stop offset=".731" stop-color="#EC1F26"/><stop offset="1" stop-color="#EC1C24"/></linearGradient><clipPath id="clip0_930_3609"><rect width="291.969" height="406.205" fill="#fff"/></clipPath></defs></svg>