<svg width="292" height="407" viewBox="0 0 292 407" fill="none" xmlns="http://www.w3.org/2000/svg">
<g clip-path="url(#clip0_3331_1533)">
<mask id="mask0_3331_1533" style="mask-type:luminance" maskUnits="userSpaceOnUse" x="0" y="0" width="292" height="407">
<path d="M291.969 0H0V406.205H291.969V0Z" fill="white"/>
</mask>
<g mask="url(#mask0_3331_1533)">
<path d="M16.2638 390C14.6279 389.998 13.0596 389.348 11.9029 388.191C10.7462 387.034 10.0956 385.466 10.0938 383.83V16.169C10.0959 14.5334 10.7466 12.9653 11.9033 11.8088C13.06 10.6524 14.6281 10.0019 16.2638 10H269.425C271.06 10.0021 272.628 10.6527 273.785 11.8092C274.941 12.9656 275.592 14.5335 275.594 16.169V383.83C275.592 385.466 274.941 387.034 273.785 388.19C272.628 389.347 271.06 389.998 269.425 390H16.2638Z" fill="url(#paint0_radial_3331_1533)"/>
<path d="M265.594 20V380H20.0938V20H265.594ZM269.425 0H16.2638C7.33275 0 0.09375 7.239 0.09375 16.169V383.83C0.09375 392.761 7.33275 400 16.2638 400H269.425C278.355 400 285.594 392.761 285.594 383.83V16.169C285.594 7.239 278.354 0 269.425 0Z" fill="#62C15A"/>
<path d="M269.425 10C271.06 10.0021 272.628 10.6527 273.785 11.8092C274.941 12.9656 275.592 14.5335 275.594 16.169V383.83C275.592 385.466 274.941 387.034 273.785 388.19C272.628 389.347 271.06 389.998 269.425 390H16.2638C14.6279 389.998 13.0596 389.348 11.9029 388.191C10.7462 387.034 10.0956 385.466 10.0938 383.83V16.169C10.0959 14.5334 10.7466 12.9653 11.9033 11.8088C13.06 10.6524 14.6281 10.0019 16.2638 10H269.425ZM269.425 0H16.2638C7.33275 0 0.09375 7.239 0.09375 16.169V383.83C0.09375 392.761 7.33275 400 16.2638 400H269.425C278.355 400 285.594 392.761 285.594 383.83V16.169C285.594 7.239 278.354 0 269.425 0Z" fill="#414042"/>
<path d="M52.6207 174.644C52.3431 174.629 52.0807 174.512 51.8837 174.316C51.6867 174.12 51.5688 173.858 51.5528 173.581L51.1267 167.176C51.1138 166.878 51.2122 166.586 51.4027 166.358L72.5037 141.049C72.7187 140.806 73.0287 140.66 73.3577 140.66C73.6887 140.66 74.0037 140.806 74.2217 141.049L95.3337 166.374C95.5577 166.656 95.6407 167.023 95.5577 167.375L94.0317 173.781C93.9718 174.021 93.8351 174.235 93.6423 174.391C93.4496 174.546 93.2113 174.635 92.9637 174.643L52.6207 174.644ZM123.343 151.72C123.056 151.713 122.783 151.599 122.575 151.402C122.368 151.204 122.242 150.936 122.221 150.651L121.805 144.246C121.792 143.97 121.879 143.698 122.051 143.482L143.173 118.126C143.372 117.898 143.653 117.758 143.954 117.736C144.256 117.715 144.554 117.814 144.783 118.012C144.826 118.042 144.865 118.088 144.902 118.126L166.003 143.458C166.225 143.733 166.313 144.093 166.24 144.437L164.711 150.849C164.581 151.338 164.149 151.682 163.641 151.713L123.343 151.72ZM194.193 174.644C193.915 174.628 193.654 174.512 193.457 174.315C193.26 174.119 193.143 173.858 193.127 173.581L192.699 167.176C192.686 166.895 192.774 166.619 192.947 166.397L214.067 141.049C214.289 140.806 214.601 140.66 214.931 140.66C215.263 140.66 215.58 140.806 215.794 141.049L236.898 166.374C237.125 166.649 237.209 167.023 237.121 167.375L235.607 173.781C235.477 174.277 235.042 174.629 234.537 174.643L194.193 174.644Z" fill="#81635E"/>
<path d="M144.027 118.798L158.772 151.912L160.676 151.873L160.247 148.518L160.752 140.231L163.271 140.171L144.027 118.798ZM214.878 141.761L229.623 174.874L231.525 174.828L231.09 171.48L231.591 163.186L234.109 163.126L214.878 141.761ZM73.2927 141.776L88.0387 174.881L89.9408 174.851L89.5037 171.495L90.0037 163.209L92.5247 163.133L73.2927 141.776Z" fill="#715B57"/>
<path d="M214.889 141.775L235.997 167.098L234.461 173.579H194.193L193.765 167.174L214.877 141.843M214.878 139.703C214.556 139.708 214.238 139.781 213.947 139.918C213.655 140.055 213.396 140.253 213.188 140.498L192.08 165.83C191.72 166.262 191.537 166.813 191.568 167.374L191.984 173.78C192.021 174.339 192.27 174.862 192.678 175.245C193.086 175.628 193.625 175.842 194.185 175.843H234.46C234.953 175.84 235.431 175.672 235.818 175.366C236.205 175.06 236.479 174.634 236.597 174.154L238.137 167.749C238.209 167.416 238.206 167.071 238.128 166.739C238.051 166.407 237.9 166.097 237.687 165.83L216.574 140.498C216.364 140.253 216.104 140.055 215.812 139.918C215.519 139.781 215.201 139.708 214.878 139.703ZM73.3138 141.775L94.4248 167.098L92.8988 173.503H52.6207L52.2037 167.098L73.3138 141.766M73.3138 139.634C72.6638 139.634 72.0457 139.925 71.6277 140.422L50.5157 165.753C50.1608 166.188 49.9785 166.738 50.0038 167.298L50.4287 173.702C50.4628 174.251 50.7012 174.767 51.0969 175.149C51.4926 175.531 52.017 175.751 52.5667 175.765H92.8447C93.3382 175.759 93.8154 175.589 94.2018 175.282C94.5882 174.975 94.8618 174.549 94.9798 174.069L96.5088 167.664C96.5808 167.33 96.5779 166.984 96.5003 166.651C96.4226 166.318 96.2722 166.006 96.0597 165.738L74.9477 140.414C74.7377 140.169 74.4778 139.971 74.1854 139.834C73.893 139.697 73.5747 139.624 73.2517 139.619L73.3138 139.634ZM144.039 118.821L165.139 144.152L163.611 150.557H123.343L122.917 144.152L144.027 118.821M144.027 116.688C143.371 116.688 142.75 116.986 142.33 117.482L121.271 142.768C120.909 143.205 120.726 143.762 120.759 144.328L121.175 150.74C121.213 151.297 121.462 151.819 121.87 152.199C122.278 152.579 122.816 152.79 123.374 152.789H163.655C164.147 152.782 164.622 152.612 165.008 152.307C165.393 152.001 165.667 151.577 165.788 151.1L167.317 144.695C167.394 144.361 167.394 144.014 167.316 143.68C167.237 143.346 167.083 143.034 166.866 142.769L145.725 117.452C145.518 117.204 145.26 117.004 144.969 116.866C144.677 116.727 144.359 116.654 144.037 116.65L144.027 116.688Z" fill="#414343"/>
<path d="M120.557 164.845H167.593C168.19 164.845 168.67 165.326 168.67 165.922V211.851C168.67 212.447 168.19 212.928 167.593 212.928H120.557C119.961 212.928 119.477 212.447 119.477 211.851V165.922C119.477 165.326 119.961 164.845 120.557 164.845Z" fill="#CECECE"/>
<path d="M167.604 165.931V211.851H120.566V165.931H167.604ZM167.604 163.798H120.566C120.286 163.798 120.008 163.853 119.749 163.96C119.49 164.067 119.255 164.224 119.056 164.422C118.858 164.62 118.701 164.855 118.594 165.114C118.486 165.373 118.431 165.651 118.431 165.931V211.851C118.431 213.028 119.387 213.984 120.566 213.984H167.604C167.884 213.984 168.162 213.929 168.421 213.822C168.68 213.715 168.915 213.558 169.114 213.36C169.312 213.162 169.469 212.927 169.577 212.668C169.684 212.409 169.74 212.131 169.74 211.851V165.931C169.74 165.651 169.684 165.373 169.577 165.114C169.469 164.855 169.312 164.62 169.114 164.422C168.915 164.224 168.68 164.067 168.421 163.96C168.162 163.853 167.884 163.798 167.604 163.798Z" fill="#414342"/>
<path d="M102.051 283.312C101.767 283.312 101.496 283.199 101.295 282.998C101.095 282.798 100.983 282.526 100.983 282.242L98.5808 203.022C98.5748 202.877 98.5983 202.733 98.6499 202.598C98.7016 202.462 98.7802 202.339 98.881 202.235C98.9819 202.131 99.1028 202.048 99.2365 201.993C99.3702 201.937 99.5139 201.909 99.6587 201.91H112.356C112.946 201.91 113.423 202.384 113.423 202.976V212.584H123.962V202.976C123.962 202.383 124.44 201.91 125.03 201.91H137.738C138.326 201.91 138.806 202.384 138.806 202.976V212.584H149.347V202.976C149.347 202.383 149.821 201.91 150.413 201.91H163.12C163.709 201.91 164.186 202.384 164.186 202.976V212.584H174.727V202.976C174.727 202.383 175.206 201.91 175.793 201.91H188.543C188.688 201.909 188.831 201.937 188.965 201.992C189.099 202.048 189.22 202.13 189.32 202.235C189.421 202.339 189.5 202.462 189.551 202.598C189.603 202.733 189.626 202.877 189.62 203.022L187.189 282.264C187.189 282.853 186.709 283.334 186.119 283.334L102.051 283.312Z" fill="#CECECE"/>
<path d="M178.432 201.985L175.895 273.06C175.869 273.548 175.657 274.008 175.303 274.345C174.949 274.682 174.48 274.871 173.991 274.872H102.713V283.227H185.61V274.872H185.194L188.546 201.863L178.432 201.985Z" fill="#ABACAB"/>
<path d="M44.7497 283.335C44.5981 283.335 44.4481 283.303 44.3097 283.24C44.1714 283.178 44.0477 283.088 43.947 282.974C43.8463 282.861 43.7707 282.727 43.7254 282.583C43.68 282.438 43.6658 282.285 43.6837 282.135L47.7188 189.594L43.8537 184.206C43.7237 184.017 43.653 183.793 43.6507 183.564V164.125C43.6507 163.536 44.1298 163.063 44.7188 163.063H56.1657C56.7557 163.063 57.2337 163.536 57.2337 164.125V174.375H66.5337V164.125C66.5337 163.536 67.0117 163.063 67.6017 163.063H79.0597C79.203 163.061 79.3451 163.088 79.4773 163.143C79.6096 163.198 79.7292 163.28 79.8288 163.383C80.0288 163.582 80.1407 163.857 80.1387 164.139V174.39H89.4497V164.141C89.45 163.857 89.5627 163.585 89.7631 163.385C89.9636 163.185 90.2353 163.072 90.5187 163.072H102.051C102.64 163.072 103.117 163.553 103.117 164.141V183.541C103.117 183.771 103.043 184.001 102.905 184.184L99.0488 189.595L103.117 282.181C103.128 282.32 103.112 282.461 103.069 282.594C103.026 282.728 102.957 282.851 102.866 282.958C102.775 283.064 102.664 283.152 102.539 283.215C102.414 283.278 102.278 283.316 102.138 283.327C102.11 283.327 102.079 283.335 102.05 283.335H44.7497Z" fill="#CECECE"/>
<path d="M167.593 212.927L164.168 212.568L164.051 201.718H160.92V167.328L167.566 167.424L167.593 212.927Z" fill="#ABACAB"/>
<path d="M188.545 203.006L186.099 282.25H102.029L99.6268 203.029H112.323V213.708H125.031V203.029H137.739V213.708H150.434V203.029H163.145V213.708H175.84V203.029H188.545M188.545 200.893H175.84C174.656 200.893 173.7 201.848 173.7 203.03V211.576H165.318V203.03C165.318 202.749 165.263 202.471 165.156 202.212C165.048 201.952 164.891 201.717 164.693 201.518C164.494 201.32 164.259 201.162 164 201.055C163.74 200.948 163.462 200.892 163.182 200.893H150.478C150.197 200.892 149.919 200.947 149.66 201.055C149.4 201.162 149.165 201.319 148.966 201.518C148.768 201.716 148.61 201.952 148.503 202.211C148.396 202.471 148.34 202.749 148.341 203.03V211.576H139.958V203.03C139.958 202.749 139.903 202.471 139.796 202.211C139.688 201.952 139.531 201.716 139.332 201.518C139.134 201.319 138.898 201.162 138.639 201.055C138.379 200.947 138.101 200.892 137.821 200.893H125.115C124.834 200.892 124.556 200.948 124.297 201.055C124.038 201.162 123.802 201.32 123.604 201.518C123.405 201.717 123.248 201.952 123.141 202.212C123.034 202.471 122.978 202.749 122.979 203.03V211.576H114.597V203.03C114.597 202.463 114.372 201.919 113.971 201.518C113.57 201.118 113.027 200.893 112.46 200.893H99.6378C99.0548 200.893 98.4947 201.13 98.0877 201.543C97.6797 201.963 97.4588 202.532 97.4808 203.113L99.9148 282.296C99.9148 283.473 100.871 284.428 102.052 284.428H186.122C186.687 284.428 187.23 284.203 187.63 283.803C188.03 283.403 188.254 282.861 188.255 282.296L190.693 203.167V202.991C190.693 202.71 190.638 202.432 190.53 202.173C190.423 201.914 190.266 201.678 190.067 201.479C189.869 201.281 189.634 201.124 189.374 201.016C189.115 200.909 188.837 200.854 188.557 200.854L188.545 200.893Z" fill="#414342"/>
<path d="M186.145 283.312C185.99 283.309 185.837 283.275 185.695 283.212C185.553 283.148 185.426 283.057 185.32 282.944C185.217 282.833 185.14 282.702 185.092 282.558C185.045 282.415 185.029 282.263 185.045 282.112L189.11 189.594L185.235 184.206V184.106C185.136 183.943 185.085 183.755 185.087 183.564V164.14C185.087 163.857 185.199 163.586 185.399 163.386C185.599 163.185 185.87 163.072 186.153 163.071H197.603C198.192 163.071 198.669 163.552 198.669 164.14V174.375H207.979V164.14C207.979 163.857 208.091 163.586 208.291 163.386C208.491 163.185 208.762 163.072 209.045 163.071H220.58C220.87 163.071 221.144 163.185 221.351 163.392C221.55 163.59 221.661 163.866 221.657 164.149V174.391H230.961V164.149C230.961 163.561 231.438 163.079 232.03 163.079H243.472C243.614 163.079 243.755 163.107 243.887 163.161C244.018 163.215 244.138 163.296 244.238 163.397C244.338 163.498 244.418 163.618 244.471 163.75C244.525 163.882 244.551 164.023 244.55 164.165V183.565C244.55 183.754 244.504 183.939 244.412 184.107L244.35 184.207L240.429 189.595L244.511 282.189C244.532 282.472 244.441 282.751 244.258 282.967C244.074 283.183 243.814 283.319 243.532 283.344H243.44L186.145 283.312Z" fill="#CECECE"/>
<path d="M73.2927 209.625C71.8295 209.699 70.4529 210.341 69.4558 211.415C68.4587 212.488 67.9198 213.908 67.9537 215.373V227.634H78.8137V215.228C78.8283 214.507 78.7006 213.791 78.4379 213.119C78.1753 212.448 77.7827 211.834 77.2829 211.315C76.783 210.795 76.1855 210.379 75.5247 210.091C74.8639 209.802 74.1527 209.647 73.4317 209.633C73.3867 209.625 73.3407 209.625 73.2927 209.625ZM214.663 209.625C213.201 209.702 211.826 210.344 210.83 211.418C209.834 212.491 209.295 213.91 209.328 215.373V227.634H220.197V215.228C220.21 214.506 220.08 213.788 219.816 213.116C219.551 212.444 219.157 211.831 218.655 211.311C218.153 210.791 217.554 210.376 216.891 210.088C216.229 209.8 215.516 209.645 214.794 209.633C214.752 209.625 214.709 209.625 214.663 209.625ZM143.696 175.866C142.402 175.932 141.185 176.499 140.303 177.449C139.421 178.398 138.945 179.654 138.976 180.949V191.734H148.585V180.766C148.599 179.481 148.101 178.242 147.202 177.324C146.303 176.405 145.076 175.88 143.791 175.866H143.696Z" fill="#595959" stroke="#414342" stroke-width="2" stroke-linejoin="round"/>
<path d="M44.0137 274.873L43.5977 283.068H103.471L99.1348 190.397L90.3787 190.229L92.3107 272.885C92.3183 273.138 92.2757 273.391 92.1853 273.629C92.0949 273.866 91.9585 274.084 91.7839 274.268C91.6093 274.453 91.4 274.601 91.168 274.705C90.9359 274.808 90.6857 274.865 90.4317 274.872L44.0137 274.873ZM185.234 274.873L184.818 283.068H244.691L240.354 190.397L231.601 190.229L233.542 273.168C233.547 273.386 233.51 273.603 233.431 273.807C233.353 274.011 233.235 274.197 233.085 274.355C232.934 274.513 232.754 274.64 232.555 274.729C232.355 274.818 232.14 274.866 231.922 274.872L185.234 274.873Z" fill="#ABACAB"/>
<path d="M130.616 283.335V252.577C130.616 244.421 136.53 237.693 143.804 237.562H144.016C151.404 237.562 157.427 244.076 157.427 252.087V283.343H156.307L130.616 283.335Z" fill="#595959"/>
<path d="M143.984 238.589C150.798 238.589 156.306 244.612 156.306 252.034V282.212H131.746V252.524C131.746 245.048 137.085 238.711 143.877 238.642H144.067M144.068 236.509H143.834C135.977 236.647 129.58 243.856 129.58 252.6V282.288C129.58 283.504 130.564 284.481 131.779 284.481H156.342C156.63 284.481 156.916 284.425 157.182 284.315C157.449 284.205 157.691 284.044 157.895 283.84C158.099 283.636 158.261 283.394 158.372 283.128C158.482 282.862 158.539 282.576 158.539 282.288V252.034C158.539 243.427 152.038 236.433 144.048 236.433L144.068 236.509Z" fill="#414342"/>
<path d="M164.497 143.732L173.467 142.923L174.002 160.946L168.633 167.329H160.385L164.436 160.541L164.497 143.732Z" fill="black"/>
<path d="M93.9877 163.331L102.777 163.147L103.363 184.022L97.9917 190.405H89.7598L93.7957 183.624L93.9877 163.331Z" fill="#ABACAB"/>
<path d="M119.402 167.299C119.231 167.302 119.062 167.263 118.909 167.185C118.757 167.108 118.626 166.995 118.527 166.856L114.437 161.162C114.306 160.972 114.236 160.748 114.235 160.519V141.089C114.235 140.5 114.713 140.019 115.3 140.019H126.738C127.33 140.019 127.806 140.5 127.806 141.089V151.324H137.107V141.119C137.107 140.835 137.22 140.564 137.42 140.363C137.62 140.163 137.891 140.05 138.175 140.05H149.633C150.222 140.05 150.699 140.53 150.699 141.119V151.362H160.009V141.119C160.009 140.53 160.491 140.05 161.079 140.05H172.537C172.82 140.05 173.095 140.164 173.294 140.363C173.501 140.562 173.615 140.838 173.615 141.128V160.535C173.613 160.726 173.562 160.913 173.466 161.079L173.402 161.17L169.324 166.864C169.222 167.004 169.089 167.118 168.935 167.196C168.78 167.275 168.61 167.316 168.437 167.316L119.402 167.299Z" fill="#CECECE"/>
<path d="M235.371 163.309L244.16 163.126L244.758 184.001L239.384 190.391H231.144L235.18 183.61L235.371 163.309ZM164.635 140.064L173.433 139.881L174.021 160.764L168.651 167.138H160.408L164.455 160.358L164.635 140.064Z" fill="#ABACAB"/>
<path d="M44.7617 164.125H56.2067V175.461H67.6768V164.125H79.1348V175.461H90.6037V164.148H102.051V183.556L97.9617 189.243L102.051 282.235H44.7497L48.8407 189.267L44.7497 183.572V164.126M44.7497 161.992C43.5697 161.992 42.6147 162.948 42.6147 164.125V183.564C42.6167 184.022 42.7607 184.473 43.0307 184.847L46.6827 189.93L42.6227 282.141C42.5927 282.73 42.8007 283.303 43.1997 283.723C43.6167 284.167 44.1957 284.419 44.8017 284.419H102.05C102.656 284.419 103.236 284.167 103.652 283.723C104.051 283.303 104.259 282.73 104.229 282.141L100.17 189.93L103.821 184.832C104.092 184.464 104.24 184.021 104.238 183.563V164.147C104.237 163.582 104.012 163.039 103.612 162.64C103.212 162.24 102.669 162.015 102.104 162.015H90.6037C89.4237 162.015 88.4678 162.97 88.4678 164.147V173.311H81.3227V164.163C81.3249 163.876 81.2693 163.591 81.1592 163.326C81.0491 163.061 80.8867 162.82 80.6817 162.619C80.4813 162.419 80.2433 162.261 79.9814 162.153C79.7195 162.045 79.4389 161.99 79.1557 161.991H67.6768C67.1108 161.991 66.5679 162.216 66.1674 162.616C65.7669 163.016 65.5415 163.558 65.5407 164.124V173.29H58.3957V164.139C58.3957 162.955 57.4407 161.999 56.2597 161.999H44.8257L44.7497 161.992ZM115.346 141.095H126.793V152.416H138.25V141.095H149.707V152.416H161.176V141.117H172.635V160.517L168.545 166.211H119.424L115.334 160.517V141.095M115.334 138.909C114.768 138.909 114.225 139.133 113.825 139.533C113.424 139.933 113.199 140.475 113.199 141.041V160.479C113.201 160.93 113.348 161.373 113.616 161.748L117.693 167.436C117.892 167.718 118.156 167.947 118.463 168.104C118.77 168.261 119.111 168.341 119.456 168.337H168.579C168.923 168.34 169.263 168.26 169.569 168.103C169.875 167.946 170.139 167.717 170.338 167.436L174.419 161.748C174.688 161.373 174.832 160.931 174.832 160.479V141.117C174.832 139.939 173.877 138.977 172.699 138.977H161.187C160.62 138.979 160.077 139.204 159.676 139.606C159.275 140.007 159.05 140.55 159.05 141.117V150.275H151.907V141.117C151.907 140.55 151.682 140.006 151.281 139.605C150.88 139.204 150.337 138.978 149.77 138.977H138.26C137.693 138.978 137.149 139.204 136.748 139.605C136.348 140.006 136.123 140.55 136.123 141.117V150.275H128.98V141.117C128.98 139.939 128.023 138.977 126.843 138.977H115.405L115.334 138.909ZM186.152 164.11H197.588V175.438H209.045V164.125H220.58V175.461H232.037V164.125H243.488V183.533L239.394 189.22L243.488 282.18H186.144L190.242 189.22L186.164 183.533V164.11M186.152 161.97C185.871 161.97 185.593 162.026 185.334 162.134C185.075 162.242 184.839 162.399 184.641 162.598C184.443 162.797 184.286 163.033 184.179 163.293C184.073 163.552 184.018 163.83 184.019 164.111V183.54C184.019 184 184.164 184.45 184.431 184.825L188.077 189.907L184.018 282.127C183.999 282.407 184.036 282.688 184.127 282.953C184.217 283.219 184.358 283.464 184.543 283.675C184.728 283.885 184.953 284.058 185.204 284.182C185.456 284.306 185.729 284.379 186.009 284.397H243.411C243.692 284.398 243.97 284.344 244.229 284.237C244.489 284.13 244.725 283.973 244.924 283.775C245.123 283.577 245.281 283.342 245.389 283.082C245.496 282.823 245.552 282.545 245.552 282.264C245.552 282.219 245.552 282.173 245.544 282.127L241.488 189.907L245.137 184.809C245.407 184.442 245.55 183.995 245.543 183.539V164.139C245.543 162.955 244.587 161.999 243.41 161.999H231.994C231.713 161.999 231.435 162.054 231.175 162.162C230.916 162.269 230.68 162.427 230.481 162.626C230.283 162.825 230.125 163.061 230.018 163.32C229.911 163.58 229.856 163.858 229.857 164.139V173.297H222.713V164.139C222.713 162.955 221.758 161.999 220.577 161.999H209.057C208.776 161.999 208.497 162.054 208.237 162.162C207.978 162.269 207.742 162.427 207.543 162.626C207.344 162.824 207.186 163.06 207.079 163.32C206.971 163.58 206.916 163.858 206.916 164.139V173.297H199.777V164.139C199.777 162.955 198.822 161.999 197.636 161.999H186.194L186.152 161.97Z" fill="#414342"/>
<path d="M189.109 189.595H240.431M48.2307 189.595H99.5518" stroke="#414342" stroke-width="2" stroke-miterlimit="10"/>
</g>
</g>
<defs>
<radialGradient id="paint0_radial_3331_1533" cx="0" cy="0" r="1" gradientUnits="userSpaceOnUse" gradientTransform="translate(142.844 200) scale(175.249 175.25)">
<stop stop-color="#8AD147"/>
<stop offset="0.5" stop-color="#5FB248"/>
<stop offset="1" stop-color="#399346"/>
</radialGradient>
<clipPath id="clip0_3331_1533">
<rect width="292" height="407" fill="white"/>
</clipPath>
</defs>
</svg>
