<svg width="292" height="407" viewBox="0 0 292 407" fill="none" xmlns="http://www.w3.org/2000/svg">
<g clip-path="url(#clip0_3331_1999)">
<mask id="mask0_3331_1999" style="mask-type:luminance" maskUnits="userSpaceOnUse" x="0" y="0" width="292" height="407">
<path d="M291.969 0H0V406.205H291.969V0Z" fill="white"/>
</mask>
<g mask="url(#mask0_3331_1999)">
<path d="M16.2638 390C14.6279 389.998 13.0596 389.348 11.9029 388.191C10.7462 387.034 10.0956 385.466 10.0938 383.83V16.169C10.0959 14.5334 10.7466 12.9653 11.9033 11.8088C13.06 10.6524 14.6281 10.0019 16.2638 10H269.425C271.06 10.0021 272.628 10.6527 273.785 11.8092C274.941 12.9656 275.592 14.5335 275.594 16.169V383.83C275.592 385.466 274.941 387.034 273.785 388.19C272.628 389.347 271.06 389.998 269.425 390H16.2638Z" fill="url(#paint0_radial_3331_1999)"/>
<path d="M143.938 253.168C143.934 257.623 140.321 261.25 135.878 261.25H122.615V299.826C122.613 301.691 121.871 303.479 120.552 304.798C119.233 306.117 117.444 306.859 115.578 306.861H78.6949C76.8289 306.859 75.0409 306.117 73.7209 304.798C72.4018 303.479 71.6598 301.691 71.6579 299.826V261.25H58.3959C56.2559 261.245 54.2052 260.391 52.6939 258.876C51.1829 257.361 50.3349 255.308 50.3359 253.168C50.3359 251.227 51.0249 249.409 52.3299 247.914L91.0709 203.497C91.8269 202.632 92.7599 201.938 93.8059 201.463C94.8524 200.988 95.9883 200.742 97.1374 200.742C98.2866 200.742 99.4225 200.988 100.469 201.463C101.515 201.938 102.448 202.632 103.204 203.497L141.945 247.914C143.231 249.362 143.939 251.232 143.938 253.168Z" fill="#F2FFF2"/>
<path d="M51.6632 253.264C51.6632 251.888 52.1332 250.483 53.1792 249.283L91.9202 204.87C92.4933 204.212 93.2002 203.685 93.9942 203.324C94.7881 202.963 95.6501 202.777 96.5222 202.776C97.3942 202.776 98.2562 202.963 99.0502 203.324C99.8445 203.685 100.552 204.213 101.125 204.87L139.866 249.289C140.841 250.385 141.38 251.8 141.382 253.266C141.382 256.418 138.913 259.409 135.263 259.409H120.061V299.921C120.061 301.273 119.524 302.568 118.568 303.524C117.612 304.479 116.316 305.016 114.965 305.016H78.0823C76.731 305.016 75.4352 304.479 74.4792 303.524C73.5232 302.568 72.9873 301.273 72.9873 299.921V259.405H57.7803C54.1303 259.405 51.6632 256.414 51.6632 253.264ZM47.7812 253.264C47.7812 258.79 52.2693 263.287 57.7803 263.287H69.1032V299.921C69.1062 302.301 70.0523 304.583 71.7353 306.266C73.419 307.95 75.7015 308.896 78.0823 308.898H114.965C117.345 308.896 119.627 307.949 121.31 306.266C122.994 304.583 123.94 302.301 123.943 299.921V263.287H135.264C140.779 263.287 145.265 258.792 145.265 253.264C145.257 250.861 144.379 248.541 142.792 246.735L104.051 202.319C103.113 201.245 101.956 200.384 100.658 199.793C99.3602 199.202 97.9502 198.898 96.5232 198.898C95.0962 198.898 93.6873 199.203 92.3883 199.793C91.0902 200.384 89.9334 201.245 88.9952 202.319L50.2523 246.735C48.6673 248.542 47.7893 250.861 47.7812 253.264Z" fill="#283B28"/>
<g opacity="0.3">
<path d="M150.845 146.105H150.803C150.691 146.095 150.587 146.043 150.512 145.96C150.437 145.877 150.395 145.769 150.395 145.657V133.923C150.394 133.805 150.44 133.692 150.523 133.608H150.524L182.331 101.148C189.865 93.6111 193.807 86.9571 193.807 81.3801C193.807 77.2261 192.515 73.8061 190.133 71.4241C187.751 69.0421 184.333 67.7491 180.179 67.7491C176.435 67.7491 173.188 68.6551 170.424 70.5101C167.66 72.3651 165.418 75.1431 163.634 78.8371C163.607 78.8932 163.568 78.943 163.521 78.9831C163.474 79.0234 163.419 79.0536 163.359 79.0717C163.3 79.0897 163.237 79.0953 163.176 79.0881C163.114 79.0807 163.054 79.0606 163.001 79.0291L150.354 71.5981C150.257 71.541 150.185 71.4497 150.152 71.3421C150.118 71.2341 150.127 71.1181 150.175 71.0171C155.823 59.0831 166.699 52.2461 180.05 52.2461C188.318 52.2461 195.339 54.8341 200.949 59.9251L200.953 59.9291C206.748 65.0631 209.705 72.0891 209.705 80.8591C209.705 90.0941 204.496 100.199 194.061 110.895L175.081 129.879L174.227 130.732H175.434H210.948C211.068 130.732 211.182 130.78 211.267 130.864C211.351 130.948 211.399 131.063 211.399 131.182V145.655C211.399 145.714 211.387 145.773 211.364 145.828C211.342 145.882 211.308 145.932 211.267 145.974C211.225 146.015 211.175 146.049 211.12 146.071C211.065 146.094 211.007 146.105 210.948 146.105H150.845Z" fill="black"/>
<path d="M150.175 71.0171C150.127 71.1181 150.118 71.2341 150.152 71.3421C150.185 71.4497 150.257 71.541 150.354 71.5981L163.001 79.0291C163.054 79.0606 163.114 79.0807 163.176 79.0881C163.237 79.0953 163.3 79.0897 163.359 79.0717C163.419 79.0536 163.474 79.0234 163.521 78.9831C163.568 78.943 163.607 78.8932 163.634 78.8371C165.418 75.1431 167.66 72.3651 170.424 70.5101C173.188 68.6551 176.435 67.7491 180.179 67.7491C184.333 67.7491 187.751 69.0421 190.133 71.4241C192.515 73.8061 193.807 77.2261 193.807 81.3801C193.807 86.9571 189.865 93.6111 182.331 101.148L150.524 133.608H150.523C150.44 133.692 150.394 133.805 150.395 133.923V145.657C150.395 145.769 150.437 145.877 150.512 145.96C150.587 146.043 150.691 146.095 150.803 146.105H150.845H210.948C211.007 146.105 211.065 146.094 211.12 146.071C211.175 146.049 211.225 146.015 211.267 145.974C211.308 145.932 211.342 145.882 211.364 145.828C211.387 145.773 211.399 145.714 211.399 145.655V131.182C211.399 131.063 211.351 130.948 211.267 130.864C211.182 130.78 211.068 130.732 210.948 130.732H175.434H174.227L175.081 129.879L194.061 110.895C204.496 100.199 209.705 90.0941 209.705 80.8591C209.705 72.0891 206.748 65.0631 200.953 59.9291L200.949 59.9251C195.339 54.8341 188.318 52.2461 180.05 52.2461C166.699 52.2461 155.823 59.0831 150.175 71.0171ZM150.175 71.0171L149.723 70.8041" stroke="#413C25"/>
</g>
<path d="M178.149 50.7984C186.23 50.7984 193.141 53.2744 198.745 58.3594C204.484 63.4444 207.354 70.3554 207.354 78.9604C207.354 88.2174 202.137 98.1254 191.836 108.683L171.239 129.283H209.047V143.756H148.945V132.022L180.756 99.5584C188.447 91.8664 192.357 85.0874 192.357 79.4794C192.357 70.6154 186.622 65.3994 178.279 65.3994C170.585 65.3994 164.978 69.1814 161.328 76.7414L148.681 69.3114C154.419 57.1884 165.5 50.7984 178.149 50.7984ZM178.149 48.8984C164.226 48.8984 152.859 56.0424 146.964 68.4994C146.761 68.9285 146.726 69.4179 146.865 69.8715C147.005 70.3251 147.31 70.71 147.719 70.9504L160.367 78.3814C160.593 78.5144 160.845 78.5994 161.106 78.6294C161.367 78.6602 161.631 78.6367 161.882 78.5602C162.133 78.4838 162.366 78.3562 162.565 78.1854C162.764 78.0144 162.926 77.8044 163.04 77.5674C166.377 70.6574 171.362 67.2984 178.28 67.2984C185.792 67.2984 190.458 71.9664 190.458 79.4784C190.458 84.5084 186.638 90.9874 179.413 98.2144L147.588 130.692C147.24 131.047 147.045 131.524 147.046 132.021V143.755C147.046 144.259 147.246 144.743 147.602 145.099C147.959 145.455 148.442 145.655 148.946 145.655H209.048C209.551 145.655 210.035 145.455 210.391 145.098C210.747 144.742 210.948 144.259 210.948 143.755V129.282C210.948 128.779 210.747 128.296 210.391 127.939C210.035 127.582 209.551 127.382 209.048 127.382H175.827L193.18 110.026C203.852 99.0874 209.255 88.6414 209.255 78.9594C209.255 69.7834 206.143 62.3724 200.007 56.9354C194.132 51.6084 186.773 48.8984 178.149 48.8984Z" fill="#344E33"/>
<path d="M148.942 144.206H148.901C148.79 144.195 148.686 144.144 148.61 144.061C148.534 143.978 148.492 143.87 148.492 143.758V132.024C148.492 131.906 148.539 131.793 148.621 131.709L180.428 99.2487C187.963 91.7127 191.905 85.0577 191.905 79.4817C191.905 75.3277 190.613 71.9077 188.231 69.5257C185.849 67.1437 182.43 65.8507 178.276 65.8507C174.532 65.8507 171.286 66.7567 168.522 68.6117C165.758 70.4667 163.515 73.2447 161.732 76.9387C161.705 76.9947 161.666 77.0447 161.619 77.0847C161.572 77.1247 161.517 77.1557 161.457 77.1737C161.397 77.1917 161.335 77.1967 161.274 77.1897C161.213 77.1823 161.153 77.1622 161.099 77.1307L148.451 69.6997C148.354 69.6427 148.282 69.5515 148.249 69.444C148.216 69.3364 148.224 69.2203 148.272 69.1187C153.921 57.1847 164.797 50.3477 178.147 50.3477C186.416 50.3477 193.437 52.9357 199.046 58.0267L199.051 58.0307C204.846 63.1647 207.802 70.1907 207.802 78.9607C207.802 88.1957 202.594 98.2997 192.159 108.996L173.178 127.98L172.325 128.833H173.532H209.046C209.166 128.833 209.28 128.88 209.364 128.965C209.449 129.049 209.496 129.164 209.496 129.283V143.756C209.496 143.875 209.449 143.99 209.364 144.074C209.279 144.158 209.165 144.206 209.046 144.206H148.942Z" fill="#F2FFF2"/>
<path d="M148.272 69.1187C148.224 69.2203 148.216 69.3364 148.249 69.444C148.282 69.5515 148.354 69.6427 148.451 69.6997L161.099 77.1307C161.153 77.1622 161.213 77.1823 161.274 77.1897C161.335 77.1967 161.397 77.1917 161.457 77.1737C161.517 77.1557 161.572 77.1247 161.619 77.0847C161.666 77.0447 161.705 76.9947 161.732 76.9387C163.515 73.2447 165.758 70.4667 168.522 68.6117C171.286 66.7567 174.532 65.8507 178.276 65.8507C182.43 65.8507 185.849 67.1437 188.231 69.5257C190.613 71.9077 191.905 75.3277 191.905 79.4817C191.905 85.0577 187.963 91.7127 180.428 99.2487L148.621 131.709C148.539 131.793 148.492 131.906 148.492 132.024V143.758C148.492 143.87 148.534 143.978 148.61 144.061C148.686 144.144 148.79 144.195 148.901 144.206H148.942H209.046C209.165 144.206 209.279 144.158 209.364 144.074C209.449 143.99 209.496 143.875 209.496 143.756V129.283C209.496 129.164 209.449 129.049 209.364 128.965C209.28 128.88 209.166 128.833 209.046 128.833H173.532H172.325L173.178 127.98L192.159 108.996C202.594 98.2997 207.802 88.1957 207.802 78.9607C207.802 70.1907 204.846 63.1647 199.051 58.0307L199.046 58.0267C193.437 52.9357 186.416 50.3477 178.147 50.3477C164.797 50.3477 153.921 57.1847 148.272 69.1187ZM148.272 69.1187L147.82 68.9057" stroke="#283B28"/>
<path opacity="0.3" d="M120.563 127.283C120.251 127.283 119.958 127.134 119.774 126.881L107.041 109.321L94.2014 126.884C94.1114 127.008 93.9924 127.109 93.8554 127.178C93.7184 127.247 93.5675 127.284 93.4145 127.283H79.6775C79.4975 127.283 79.3215 127.234 79.1675 127.14C79.0135 127.046 78.8895 126.911 78.8085 126.75C78.7275 126.589 78.6915 126.41 78.7065 126.23C78.7215 126.05 78.7855 125.879 78.8915 125.734L98.9684 98.2893L79.9824 72.3713C79.8764 72.2263 79.8114 72.0543 79.7974 71.8753C79.7834 71.6963 79.8184 71.5163 79.8994 71.3553C79.9804 71.1943 80.1054 71.0603 80.2584 70.9663C80.4114 70.8723 80.5884 70.8223 80.7684 70.8223H94.3974C94.5509 70.8226 94.7022 70.8589 94.8391 70.9284C94.976 70.9979 95.0946 71.0985 95.1854 71.2223L106.935 87.3663L118.686 71.2223C118.869 70.9713 119.162 70.8223 119.474 70.8223H133.212C133.392 70.8222 133.568 70.872 133.721 70.9663C133.875 71.0605 133.999 71.1951 134.08 71.3553C134.162 71.5153 134.198 71.695 134.184 71.8742C134.17 72.0535 134.106 72.2252 133.999 72.3703L115.012 98.3983L134.981 125.736C135.088 125.881 135.151 126.053 135.165 126.232C135.18 126.411 135.144 126.591 135.063 126.752C134.982 126.913 134.857 127.047 134.703 127.141C134.551 127.236 134.374 127.285 134.194 127.284L120.563 127.283Z" fill="black"/>
<path opacity="0.3" d="M133.948 72.6404L114.542 99.2414L134.93 127.153H121.301L107.782 108.508L94.154 127.153H80.416L100.914 99.1334L81.506 72.6404H95.135L107.673 89.8664L120.21 72.6404H133.948ZM133.948 70.6924H120.21C119.903 70.6924 119.6 70.7651 119.326 70.9044C119.053 71.0434 118.816 71.2454 118.635 71.4944L107.674 86.5564L96.711 71.4944C96.5302 71.2461 96.2933 71.0441 96.0196 70.9047C95.7459 70.7653 95.4432 70.6926 95.136 70.6924H81.506C81.1462 70.6927 80.7936 70.7925 80.487 70.9809C80.1804 71.1692 79.9319 71.4386 79.769 71.7594C79.6065 72.0804 79.536 72.4402 79.5653 72.7988C79.5946 73.1575 79.7226 73.501 79.935 73.7914L98.501 99.1354L78.844 126.004C78.632 126.294 78.504 126.638 78.475 126.996C78.4462 127.355 78.5171 127.715 78.68 128.035C78.843 128.356 79.091 128.625 79.398 128.814C79.7046 129.003 80.0573 129.102 80.417 129.102H94.155C94.461 129.102 94.763 129.03 95.037 128.891C95.311 128.752 95.547 128.552 95.728 128.304L107.777 111.82L119.726 128.298C119.907 128.547 120.144 128.749 120.418 128.889C120.692 129.029 120.995 129.102 121.303 129.102H134.932C135.292 129.103 135.645 129.003 135.951 128.814C136.258 128.626 136.506 128.357 136.669 128.036C136.832 127.715 136.903 127.356 136.874 126.997C136.845 126.639 136.717 126.296 136.505 126.005L116.957 99.2404L135.524 73.7884C135.736 73.4978 135.864 73.1541 135.893 72.7954C135.921 72.4364 135.85 72.0774 135.687 71.7564C135.524 71.4354 135.276 71.1664 134.969 70.9784C134.662 70.7904 134.31 70.6914 133.95 70.6914L133.948 70.6924Z" fill="black"/>
<path d="M118.613 125.334C118.302 125.334 118.008 125.185 117.824 124.931L105.091 107.371L92.2524 124.934C92.1622 125.058 92.0438 125.159 91.907 125.229C91.7702 125.298 91.6189 125.334 91.4654 125.334H77.7284C77.5484 125.334 77.3724 125.284 77.2184 125.19C77.0646 125.096 76.94 124.961 76.8586 124.801C76.7772 124.64 76.7421 124.46 76.7574 124.28C76.7724 124.101 76.8364 123.929 76.9424 123.784L97.0184 96.3391L78.0334 70.4211C77.9274 70.2761 77.8634 70.1041 77.8484 69.9251C77.8334 69.7461 77.8694 69.5661 77.9504 69.4051C78.0314 69.2441 78.1564 69.1101 78.3094 69.0151C78.4624 68.9201 78.6394 68.8711 78.8194 68.8711H92.4484C92.6019 68.8714 92.7532 68.9078 92.89 68.9772C93.0269 69.0467 93.1455 69.1474 93.2364 69.2711L104.986 85.4151L116.736 69.2711C116.919 69.0201 117.213 68.8711 117.524 68.8711H131.263C131.442 68.8711 131.619 68.9211 131.772 69.0151C131.925 69.1091 132.049 69.2438 132.13 69.4041C132.212 69.5641 132.247 69.7441 132.233 69.9231C132.219 70.1021 132.156 70.2737 132.05 70.4191L113.063 96.4461L133.031 123.784C133.138 123.929 133.202 124.101 133.216 124.28C133.23 124.46 133.195 124.64 133.113 124.8C133.032 124.961 132.908 125.095 132.754 125.189C132.601 125.283 132.424 125.333 132.244 125.333L118.613 125.334Z" fill="#F2FFF2"/>
<path d="M131.261 69.8464L111.854 96.4484L132.243 124.36H118.613L105.094 105.715L91.4663 124.36H77.7283L98.2263 96.3404L78.8183 69.8464H92.4473L104.985 87.0724L117.522 69.8464H131.261ZM131.261 67.8984H117.522C117.215 67.8984 116.913 67.9714 116.639 68.1104C116.365 68.2498 116.128 68.452 115.947 68.7004L104.986 83.7624L94.0233 68.7004C93.8424 68.4522 93.6055 68.2501 93.3318 68.1108C93.0581 67.9714 92.7554 67.8986 92.4483 67.8984H78.8183C78.4585 67.8987 78.1058 67.9986 77.7992 68.1869C77.4927 68.3752 77.2442 68.6447 77.0813 68.9654C76.9188 69.2865 76.8482 69.6462 76.8775 70.0049C76.9068 70.3635 77.0348 70.707 77.2473 70.9974L95.8133 96.3414L76.1563 123.209C75.9441 123.5 75.8165 123.844 75.7876 124.202C75.7586 124.561 75.8295 124.921 75.9923 125.241C76.1553 125.562 76.4038 125.831 76.7103 126.019C77.017 126.207 77.3695 126.307 77.7293 126.308H91.4673C91.7733 126.308 92.0753 126.235 92.3493 126.097C92.6233 125.959 92.8593 125.757 93.0403 125.51L105.09 109.026L117.038 125.503C117.219 125.752 117.456 125.955 117.73 126.095C118.004 126.235 118.308 126.308 118.615 126.308H132.245C132.604 126.308 132.957 126.208 133.264 126.02C133.571 125.832 133.819 125.562 133.982 125.242C134.145 124.921 134.216 124.562 134.187 124.203C134.158 123.844 134.03 123.501 133.818 123.21L114.269 96.4464L132.837 70.9944C133.049 70.7037 133.177 70.36 133.205 70.0014C133.234 69.6424 133.163 69.2834 133 68.9624C132.837 68.6414 132.588 68.3724 132.282 68.1844C131.975 67.9966 131.621 67.8976 131.261 67.8984Z" fill="#283B28"/>
<path d="M218.137 190.345C217.762 190.722 217.316 191.022 216.825 191.225C216.333 191.428 215.806 191.533 215.274 191.532L200.97 191.535C199.897 191.533 198.868 191.107 198.109 190.348C197.35 189.589 196.923 188.561 196.922 187.488V178.735C196.922 177.655 197.341 176.639 198.107 175.871C198.481 175.493 198.927 175.195 199.418 174.992C199.909 174.788 200.435 174.683 200.967 174.685H215.271C216.345 174.685 217.374 175.111 218.134 175.869C218.894 176.627 219.321 177.657 219.323 178.73V187.485C219.325 188.016 219.221 188.543 219.018 189.034C218.814 189.525 218.515 189.971 218.137 190.345Z" fill="#916136"/>
<path d="M198.99 176.817C199.471 176.337 200.123 176.067 200.802 176.065L215.449 176.06C216.856 176.06 218.012 177.215 218.012 178.624L218.015 187.588C218.015 188.293 217.727 188.932 217.258 189.399C216.779 189.879 216.128 190.149 215.449 190.151L200.805 190.152C199.399 190.152 198.242 189.001 198.239 187.59V178.628C198.239 177.921 198.528 177.282 198.99 176.817ZM196.755 174.581C196.221 175.111 195.797 175.741 195.509 176.436C195.221 177.131 195.072 177.877 195.074 178.629L195.077 187.591C195.079 189.109 195.683 190.565 196.756 191.638C197.829 192.711 199.285 193.316 200.804 193.318L215.448 193.316C216.2 193.317 216.946 193.169 217.641 192.88C218.336 192.591 218.966 192.166 219.496 191.632C220.026 191.098 220.453 190.473 220.741 189.778C221.029 189.083 221.176 188.34 221.174 187.588V178.624C221.172 177.106 220.567 175.65 219.493 174.577C218.419 173.504 216.963 172.9 215.445 172.898L200.8 172.901C200.048 172.9 199.304 173.047 198.609 173.336C197.915 173.624 197.285 174.048 196.755 174.581Z" fill="#42250D"/>
<path d="M234.004 234.646C233.665 234.986 233.263 235.256 232.82 235.439C232.377 235.623 231.901 235.717 231.422 235.717L184.839 235.723C184.36 235.725 183.884 235.632 183.441 235.448C182.997 235.265 182.595 234.995 182.257 234.655C181.917 234.317 181.647 233.915 181.464 233.472C181.281 233.029 181.186 232.554 181.187 232.074L181.184 221.594C181.187 220.551 181.613 219.907 181.971 219.549C183.083 218.438 185.106 218.519 186.897 219.743L190.726 222.359C190.818 222.423 190.929 222.457 191.042 222.456L225.218 222.449C225.33 222.449 225.44 222.416 225.533 222.353L229.359 219.733C230.528 218.936 232.27 218.345 233.67 219.084C234.561 219.552 235.073 220.463 235.073 221.582V232.062C235.074 232.542 234.979 233.017 234.796 233.46C234.613 233.903 234.343 234.307 234.004 234.646Z" fill="#916136"/>
<path d="M182.305 220.449C182.927 219.828 184.286 220.104 185.359 220.839L189.297 223.536C189.659 223.782 190.085 223.914 190.522 223.915L225.739 223.907C226.175 223.906 226.6 223.774 226.96 223.529L230.902 220.832C232.341 219.846 234.293 219.678 234.293 221.422L234.296 232.218C234.296 232.817 234.055 233.359 233.662 233.751C233.461 233.953 233.222 234.112 232.959 234.221C232.697 234.331 232.415 234.388 232.13 234.387L184.135 234.396C182.938 234.396 181.969 233.424 181.966 232.227V221.427C181.966 220.983 182.091 220.664 182.305 220.449ZM180.053 218.197C179.472 218.78 178.781 219.81 178.781 221.428V232.227C178.783 233.647 179.348 235.008 180.352 236.011C181.357 237.015 182.718 237.579 184.138 237.579L232.13 237.572C232.833 237.573 233.529 237.435 234.178 237.166C234.828 236.897 235.417 236.502 235.913 236.004C236.411 235.508 236.806 234.917 237.075 234.267C237.344 233.618 237.482 232.921 237.48 232.218L237.477 221.422C237.477 219.685 236.621 218.197 235.183 217.438C233.117 216.347 230.687 217.117 229.102 218.203L225.423 220.722L190.835 220.726L187.153 218.211C184.626 216.481 181.772 216.477 180.053 218.197Z" fill="#42250D"/>
<path d="M200 184.139H216.252V227.007H200V184.139Z" fill="#9B7753"/>
<path d="M201.508 185.493L214.737 185.492L214.746 225.649L201.517 225.65L201.508 185.493ZM198.285 182.268V185.493L198.294 225.652V228.877H201.517L214.746 228.875L217.972 228.874V225.649L217.963 185.49V182.264H214.737L201.508 182.268H198.285Z" fill="#603913"/>
<path d="M210.208 349.319C209.583 349.947 208.659 350.24 207.736 350.109C207.308 350.053 206.9 349.897 206.543 349.654C206.186 349.411 205.892 349.089 205.682 348.712L195.213 329.357L195.195 229.673L221.109 229.668L221.131 329.354L210.664 348.71C210.539 348.934 210.39 349.142 210.208 349.319Z" fill="#636362"/>
<path d="M196.537 230.283L219.769 230.278L219.788 329.767L209.322 349.121C209.272 349.216 209.208 349.302 209.131 349.377C208.565 349.949 207.43 349.862 207.027 349.122L196.555 329.772L196.537 230.283ZM193.391 227.139V230.286L193.41 329.772V330.57L193.791 331.27L204.26 350.62C204.916 351.831 206.098 352.643 207.505 352.849C208.929 353.058 210.374 352.591 211.359 351.603C211.648 351.311 211.9 350.982 212.092 350.619L222.555 331.264L222.93 330.562V329.766L222.915 230.278V227.133H219.768L196.537 227.139H193.391Z" fill="#414042"/>
<path d="M201.594 190.885H211.443V225.41H201.594V190.885Z" fill="#C49A6C"/>
<path d="M217.825 190.031C217.491 190.367 217.094 190.633 216.656 190.815C216.218 190.996 215.749 191.089 215.275 191.088L200.971 191.091C200.014 191.091 199.097 190.71 198.421 190.034C197.745 189.358 197.364 188.441 197.363 187.484V178.732C197.362 178.258 197.455 177.789 197.636 177.352C197.818 176.914 198.084 176.517 198.42 176.183C198.753 175.847 199.15 175.58 199.588 175.398C200.026 175.216 200.494 175.124 200.968 175.126L215.272 175.123C215.746 175.122 216.215 175.215 216.653 175.396C217.091 175.577 217.489 175.842 217.824 176.177C218.16 176.512 218.426 176.909 218.607 177.347C218.788 177.785 218.882 178.254 218.882 178.728L218.885 187.482C218.886 187.956 218.793 188.426 218.611 188.863C218.429 189.3 218.162 189.698 217.825 190.031Z" fill="#633B1A"/>
<path d="M199.2 176.965C199.668 176.496 200.304 176.231 200.967 176.23L215.274 176.227C216.65 176.227 217.777 177.354 217.777 178.732L217.78 187.486C217.78 187.815 217.716 188.14 217.59 188.444C217.464 188.748 217.28 189.024 217.047 189.257C216.814 189.49 216.538 189.674 216.234 189.799C215.93 189.925 215.604 189.989 215.275 189.989L200.971 189.991C200.307 189.989 199.671 189.724 199.202 189.255C198.732 188.786 198.467 188.149 198.465 187.486V178.733C198.465 178.044 198.749 177.42 199.2 176.965ZM197.64 175.406C197.2 175.841 196.852 176.36 196.615 176.933C196.377 177.504 196.256 178.117 196.258 178.736L196.261 187.489C196.259 188.107 196.38 188.721 196.618 189.292C196.855 189.864 197.203 190.383 197.643 190.819C198.078 191.258 198.597 191.606 199.168 191.843C199.739 192.079 200.352 192.201 200.971 192.2L215.275 192.197C215.894 192.198 216.507 192.077 217.079 191.84C217.651 191.603 218.17 191.255 218.607 190.816C219.045 190.38 219.393 189.861 219.629 189.289C219.865 188.717 219.987 188.105 219.986 187.486V178.732C219.986 177.475 219.498 176.294 218.604 175.4C218.167 174.961 217.648 174.614 217.076 174.377C216.504 174.14 215.891 174.019 215.272 174.021L200.968 174.023C199.713 174.023 198.53 174.515 197.64 175.406Z" fill="#42250D"/>
<path d="M233.693 234.334C233.396 234.633 233.043 234.869 232.654 235.031C232.265 235.192 231.848 235.275 231.427 235.275L184.837 235.283C183.981 235.283 183.174 234.95 182.57 234.345C182.271 234.048 182.033 233.694 181.872 233.305C181.71 232.916 181.627 232.498 181.629 232.076V221.597C181.629 220.707 181.983 220.163 182.285 219.862C183.401 218.746 185.329 219.209 186.649 220.108L190.475 222.725C190.642 222.839 190.839 222.9 191.041 222.901L225.22 222.893C225.422 222.893 225.616 222.835 225.782 222.719L229.608 220.102C230.621 219.412 232.237 218.831 233.463 219.479C233.898 219.707 234.629 220.288 234.629 221.586V232.066C234.631 232.487 234.549 232.904 234.389 233.294C234.228 233.683 233.992 234.037 233.693 234.334Z" fill="#633B1A"/>
<path d="M183.062 220.64C183.666 220.036 184.984 220.306 186.025 221.018L189.851 223.636C190.201 223.875 190.614 224.003 191.04 224.003L225.219 223.996C225.641 223.996 226.056 223.866 226.407 223.628L230.233 221.01C231.627 220.054 233.525 219.892 233.525 221.584L233.528 232.062C233.529 232.339 233.475 232.614 233.369 232.869C233.262 233.125 233.106 233.357 232.908 233.551C232.714 233.747 232.482 233.903 232.227 234.009C231.972 234.115 231.697 234.168 231.421 234.167L184.837 234.179C184.561 234.179 184.288 234.125 184.032 234.019C183.776 233.913 183.544 233.757 183.349 233.562C183.154 233.367 182.999 233.134 182.893 232.879C182.787 232.624 182.733 232.349 182.734 232.073L182.73 221.593C182.732 221.158 182.857 220.85 183.062 220.64ZM181.504 219.078C181.057 219.525 180.523 220.324 180.523 221.592L180.526 232.071C180.527 233.215 180.982 234.311 181.791 235.119C182.192 235.52 182.667 235.837 183.19 236.054C183.713 236.271 184.274 236.382 184.84 236.382L231.422 236.375C231.989 236.377 232.551 236.266 233.074 236.049C233.598 235.833 234.073 235.515 234.473 235.113C234.873 234.711 235.194 234.237 235.41 233.713C235.626 233.189 235.738 232.628 235.736 232.061L235.733 221.582C235.733 220.21 235.093 219.085 233.979 218.496C232.316 217.622 230.312 218.278 228.986 219.186L225.188 221.784L191.072 221.791L187.273 219.194C185.214 217.787 182.842 217.738 181.504 219.078Z" fill="#42250D"/>
<path d="M215.345 217.677V216.116C215.345 216.116 212.485 215.224 208.13 215.225C203.769 215.227 200.956 216.119 200.956 216.119L200.959 217.681C200.959 217.681 204.928 216.786 208.13 216.786C211.332 216.786 215.345 217.677 215.345 217.677ZM215.345 208.376V206.814C215.345 206.814 212.485 205.923 208.124 205.925C203.763 205.927 200.956 206.817 200.956 206.817L200.953 208.378C200.953 208.378 204.927 207.484 208.127 207.484C211.327 207.484 215.345 208.376 215.345 208.376ZM215.344 199.925V198.365C215.344 198.365 212.484 197.474 208.125 197.474C203.766 197.474 200.954 198.369 200.954 198.369V199.93C200.954 199.93 204.928 199.037 208.125 199.036C211.322 199.035 215.344 199.925 215.344 199.925Z" fill="#603913"/>
<path d="M207.049 348.762L196.761 329.75L196.746 244.167L219.574 244.166L219.586 329.746L209.308 348.763C208.864 349.584 207.493 349.583 207.049 348.762Z" fill="#939598"/>
<path d="M208.178 349.377C207.724 349.377 207.274 349.171 207.052 348.762L196.761 329.75L196.746 244.167L208.159 244.164C208.161 244.166 208.631 349.377 208.178 349.377Z" fill="#BCBEC0"/>
<path d="M195.648 243.386L220.467 243.322" stroke="#414042" stroke-width="3" stroke-miterlimit="10"/>
<path d="M230.09 221.896C230.096 221.659 230.044 221.424 229.94 221.21L226.407 223.628C226.058 223.867 225.645 223.995 225.222 223.995L222.878 223.997C222.549 224.2 222.17 224.307 221.784 224.308L187.605 224.314C187.181 224.314 186.767 224.186 186.417 223.947L182.746 221.439L182.734 221.593L182.737 232.073C182.737 232.349 182.791 232.623 182.897 232.879C183.003 233.135 183.158 233.367 183.354 233.563C183.55 233.758 183.782 233.913 184.037 234.019C184.293 234.125 184.567 234.179 184.844 234.179L229.078 234.167C229.387 233.981 229.643 233.719 229.821 233.405C229.999 233.091 230.091 232.737 230.091 232.376L230.09 221.896ZM199.785 176.542C199.388 176.755 199.056 177.07 198.824 177.456C198.592 177.842 198.468 178.284 198.466 178.734L198.469 187.487C198.471 188.15 198.736 188.785 199.205 189.254C199.674 189.723 200.309 189.987 200.972 189.989H213.023C213.42 189.776 213.753 189.461 213.985 189.075C214.217 188.689 214.341 188.247 214.343 187.797L214.34 179.042C214.338 178.379 214.073 177.744 213.604 177.275C213.135 176.807 212.499 176.543 211.836 176.541L199.785 176.542Z" fill="#916136"/>
<path d="M200.58 177.821L207.975 177.82C208.29 177.831 208.587 177.964 208.806 178.19C209.025 178.416 209.146 178.719 209.146 179.033C209.146 179.348 209.024 179.65 208.806 179.877C208.587 180.103 208.29 180.236 207.975 180.247L200.583 180.248C200.261 180.248 199.952 180.12 199.724 179.892C199.496 179.664 199.367 179.355 199.367 179.033C199.367 178.368 199.912 177.821 200.58 177.821ZM191.003 227.897L209.842 227.894C210.154 227.878 210.447 227.744 210.662 227.518C210.877 227.292 210.997 226.992 210.997 226.68C210.997 226.368 210.877 226.068 210.662 225.842C210.447 225.616 210.154 225.481 209.842 225.465L191.002 225.467C190.68 225.469 190.372 225.598 190.145 225.825C189.918 226.053 189.79 226.362 189.789 226.683C189.79 227.005 189.919 227.313 190.146 227.54C190.374 227.767 190.682 227.895 191.003 227.897Z" fill="#B78358"/>
<path d="M265.594 20V380H20.0938V20H265.594ZM269.425 0H16.2638C7.33275 0 0.09375 7.239 0.09375 16.169V383.83C0.09375 392.761 7.33275 400 16.2638 400H269.425C278.355 400 285.594 392.761 285.594 383.83V16.169C285.594 7.239 278.354 0 269.425 0Z" fill="#62C15A"/>
<path d="M269.425 10C271.06 10.0021 272.628 10.6527 273.785 11.8092C274.941 12.9656 275.592 14.5335 275.594 16.169V383.83C275.592 385.466 274.941 387.034 273.785 388.19C272.628 389.347 271.06 389.998 269.425 390H16.2638C14.6279 389.998 13.0596 389.348 11.9029 388.191C10.7462 387.034 10.0956 385.466 10.0938 383.83V16.169C10.0959 14.5334 10.7466 12.9653 11.9033 11.8088C13.06 10.6524 14.6281 10.0019 16.2638 10H269.425ZM269.425 0H16.2638C7.33275 0 0.09375 7.239 0.09375 16.169V383.83C0.09375 392.761 7.33275 400 16.2638 400H269.425C278.355 400 285.594 392.761 285.594 383.83V16.169C285.594 7.239 278.354 0 269.425 0Z" fill="#414042"/>
</g>
</g>
<defs>
<radialGradient id="paint0_radial_3331_1999" cx="0" cy="0" r="1" gradientUnits="userSpaceOnUse" gradientTransform="translate(142.844 200) scale(175.249 175.25)">
<stop stop-color="#8AD147"/>
<stop offset="0.5" stop-color="#5FB248"/>
<stop offset="1" stop-color="#399346"/>
</radialGradient>
<clipPath id="clip0_3331_1999">
<rect width="292" height="407" fill="white"/>
</clipPath>
</defs>
</svg>
