<svg width="292" height="407" viewBox="0 0 292 407" fill="none" xmlns="http://www.w3.org/2000/svg">
<g clip-path="url(#clip0_930_3478)">
<path d="M16.2642 390C14.6284 389.998 13.0601 389.348 11.9034 388.191C10.7467 387.034 10.0961 385.466 10.0942 383.83V16.169C10.0964 14.5334 10.7471 12.9653 11.9038 11.8088C13.0605 10.6524 14.6286 10.0019 16.2642 10H269.425C271.061 10.0021 272.629 10.6527 273.785 11.8092C274.941 12.9656 275.592 14.5335 275.594 16.169V383.83C275.592 385.466 274.942 387.034 273.785 388.19C272.629 389.347 271.061 389.998 269.425 390H16.2642Z" fill="url(#paint0_radial_930_3478)"/>
<path d="M186.895 368.095C167.32 368.095 158.619 365.651 157.801 359.924C157.458 357.522 157.568 353.569 157.684 349.383L157.803 343.11C157.803 336.826 165.236 324.096 175.828 322.496L176.761 322.355L177.134 322.857C177.659 323.059 179.827 323.694 186.84 323.998C194.061 323.686 196.217 323.022 196.7 322.83L197.092 322.365L197.961 322.496C208.553 324.096 215.987 336.826 215.987 343.11C215.987 345.091 216.047 347.274 216.106 349.384C216.222 353.57 216.332 357.523 215.99 359.924C215.17 365.651 206.47 368.095 186.895 368.095Z" fill="#F6FAF6"/>
<path d="M197.726 324.05C207.369 325.506 214.415 337.28 214.415 343.111C214.415 348.937 214.927 356.246 214.433 359.703C213.887 363.527 208.017 366.526 186.895 366.526C165.773 366.526 159.902 363.528 159.356 359.703C158.862 356.246 159.374 348.937 159.374 343.111C159.374 337.28 166.421 325.507 176.063 324.05C176.063 324.05 176.876 325.145 186.84 325.572C196.803 325.144 197.726 324.05 197.726 324.05ZM177.46 320.661L175.594 320.943C164.546 322.612 156.232 335.541 156.232 343.11C156.232 345.069 156.172 347.24 156.114 349.34C155.996 353.595 155.884 357.613 156.246 360.147C157.212 366.908 166.092 369.667 186.895 369.667C207.698 369.667 216.579 366.908 217.545 360.147C217.906 357.613 217.795 353.596 217.676 349.342L217.557 343.11C217.557 335.541 209.243 322.612 198.196 320.943L196.457 320.68L195.788 321.474C194.992 321.691 192.648 322.172 186.84 322.426C181.276 322.181 178.939 321.731 178.09 321.51L177.46 320.661Z" fill="#223948"/>
<path d="M186.465 326.048C185.252 326.048 182.3 326.022 181.09 325.779C175.652 324.694 163 319.734 163 297.154C163 280.718 171.31 271.667 186.398 271.667C201.648 271.667 210.394 280.956 210.394 297.154C210.394 318.265 200.126 324.401 191.513 325.829C190.55 325.991 188.273 326.048 186.465 326.048Z" fill="#F6FAF6"/>
<path d="M186.594 272.809C203.337 272.809 209.019 283.911 209.019 296.725C209.019 314.771 201.501 322.183 191.452 323.851C190.686 323.979 188.688 324.048 186.661 324.048C184.55 324.048 182.407 323.972 181.595 323.81C172.84 322.064 164.767 314.474 164.767 296.725C164.767 283.911 169.926 272.809 186.594 272.809ZM186.594 269.667C170.493 269.667 161.625 279.276 161.625 296.725C161.625 320.468 175.16 325.731 180.98 326.891C182.277 327.151 185.096 327.19 186.661 327.19C187.825 327.19 190.671 327.167 191.97 326.95C201.178 325.422 212.161 318.937 212.161 296.724C212.161 279.529 202.842 269.667 186.594 269.667Z" fill="#223948"/>
<path d="M140.591 320.534C140.588 316.709 137.485 313.593 133.668 313.593H122.277V280.46C122.275 278.858 121.638 277.322 120.505 276.189C119.372 275.056 117.835 274.419 116.233 274.417H84.5533C82.951 274.419 81.4148 275.056 80.2817 276.189C79.1486 277.322 78.5112 278.858 78.5093 280.46V313.593H67.1183C65.2805 313.597 63.5195 314.331 62.2216 315.632C60.9238 316.933 60.195 318.696 60.1953 320.534C60.1953 322.201 60.7873 323.764 61.9073 325.047L95.1823 363.198C95.8313 363.941 96.6323 364.536 97.5313 364.945C98.4299 365.353 99.4054 365.564 100.392 365.564C101.379 365.564 102.355 365.353 103.253 364.945C104.152 364.536 104.953 363.941 105.603 363.198L138.878 325.047C139.982 323.803 140.592 322.197 140.59 320.534H140.591Z" fill="url(#paint1_linear_930_3478)"/>
<path d="M61.335 320.451C61.335 321.633 61.739 322.84 62.637 323.871L95.912 362.018C96.4046 362.582 97.0122 363.035 97.694 363.345C98.3759 363.656 99.1166 363.816 99.866 363.816C100.615 363.816 101.356 363.656 102.038 363.345C102.72 363.034 103.327 362.582 103.819 362.018L137.094 323.866C137.932 322.925 138.395 321.71 138.397 320.45C138.397 317.742 136.276 315.174 133.141 315.174H120.083V280.377C120.082 279.217 119.621 278.104 118.801 277.283C117.98 276.462 116.867 276.001 115.706 276.001H84.026C82.865 276.001 81.752 276.462 80.931 277.283C80.11 278.104 79.649 279.217 79.649 280.377V315.177H66.589C63.455 315.177 61.335 317.746 61.335 320.451ZM58 320.451C58 315.705 61.855 311.843 66.588 311.843H76.314V280.377C76.316 278.333 77.129 276.373 78.575 274.928C80.021 273.483 81.981 272.669 84.025 272.667H115.705C117.749 272.669 119.709 273.482 121.155 274.928C122.601 276.373 123.414 278.333 123.416 280.377V311.843H133.14C137.877 311.843 141.73 315.704 141.73 320.451C141.723 322.516 140.969 324.508 139.606 326.059L106.331 364.208C105.526 365.131 104.532 365.871 103.416 366.378C102.301 366.885 101.09 367.147 99.865 367.147C98.64 367.147 97.4292 366.885 96.314 366.378C95.199 365.871 94.205 365.131 93.399 364.208L60.122 326.059C58.761 324.508 58.008 322.516 58 320.451Z" fill="#162F0D"/>
<g opacity="0.3">
<path opacity="0.3" d="M108.118 54.1051V76.1291H130.143V89.4221H108.118V111.447H94.8244V89.4221H72.7984V76.1301H94.8244V54.1051H108.118ZM108.118 52.2061H94.8244C94.3208 52.2063 93.838 52.4065 93.4819 52.7626C93.1258 53.1186 92.9257 53.6015 92.9254 54.1051V74.2301H72.7984C72.2948 74.2303 71.812 74.4305 71.4559 74.7866C71.0998 75.1426 70.8997 75.6255 70.8994 76.1291V89.4221C70.8997 89.9256 71.0998 90.4085 71.4559 90.7646C71.812 91.1206 72.2948 91.3208 72.7984 91.3211H92.9254V111.446C92.9257 111.95 93.1258 112.432 93.4819 112.789C93.838 113.145 94.3208 113.345 94.8244 113.345H108.118C108.622 113.345 109.105 113.145 109.461 112.789C109.818 112.433 110.018 111.95 110.018 111.446V91.3211H130.143C130.647 91.3211 131.13 91.1211 131.487 90.7651C131.843 90.4088 132.043 89.9257 132.043 89.4221V76.1301C132.043 75.6264 131.843 75.1433 131.487 74.7871C131.13 74.4311 130.647 74.2311 130.143 74.2311H110.018V54.1051C110.018 53.6011 109.818 53.1181 109.461 52.7621C109.105 52.406 108.622 52.2061 108.118 52.2061Z" fill="#413C25"/>
<path opacity="0.3" d="M108.118 54.1051V76.1291H130.143V89.4221H108.118V111.447H94.8244V89.4221H72.7984V76.1301H94.8244V54.1051H108.118ZM108.118 52.2061H94.8244C94.3208 52.2063 93.838 52.4065 93.4819 52.7626C93.1258 53.1186 92.9257 53.6015 92.9254 54.1051V74.2301H72.7984C72.2948 74.2303 71.812 74.4305 71.4559 74.7866C71.0998 75.1426 70.8997 75.6255 70.8994 76.1291V89.4221C70.8997 89.9256 71.0998 90.4085 71.4559 90.7646C71.812 91.1206 72.2948 91.3208 72.7984 91.3211H92.9254V111.446C92.9257 111.95 93.1258 112.432 93.4819 112.789C93.838 113.145 94.3208 113.345 94.8244 113.345H108.118C108.622 113.345 109.105 113.145 109.461 112.789C109.818 112.433 110.018 111.95 110.018 111.446V91.3211H130.143C130.647 91.3211 131.13 91.1211 131.487 90.7651C131.843 90.4088 132.043 89.9257 132.043 89.4221V76.1301C132.043 75.6264 131.843 75.1433 131.487 74.7871C131.13 74.4311 130.647 74.2311 130.143 74.2311H110.018V54.1051C110.018 53.6011 109.818 53.1181 109.461 52.7621C109.105 52.406 108.622 52.2061 108.118 52.2061Z" fill="#413C25"/>
</g>
<g opacity="0.3">
<path opacity="0.3" d="M176.356 130.667C176.1 130.667 175.855 130.566 175.674 130.385C175.493 130.204 175.391 129.959 175.391 129.703V54.1736L157.849 59.1486C157.603 59.2186 157.34 59.1876 157.117 59.0626C156.894 58.9376 156.729 58.7306 156.659 58.4846L152.931 45.4386C152.864 45.2024 152.89 44.9498 153.002 44.7316C153.115 44.5136 153.306 44.3466 153.538 44.2646L178.031 35.6146C178.134 35.5786 178.243 35.5596 178.352 35.5596H191.664C191.92 35.5596 192.165 35.6616 192.346 35.8416C192.527 36.0216 192.628 36.2676 192.628 36.5236V129.702C192.628 129.958 192.527 130.203 192.346 130.384C192.165 130.565 191.92 130.666 191.664 130.666H176.356V130.667Z" fill="black"/>
<path opacity="0.3" d="M176.356 130.667C176.1 130.667 175.855 130.566 175.674 130.385C175.493 130.204 175.391 129.959 175.391 129.703V54.1736L157.849 59.1486C157.603 59.2186 157.34 59.1876 157.117 59.0626C156.894 58.9376 156.729 58.7306 156.659 58.4846L152.931 45.4386C152.864 45.2024 152.89 44.9498 153.002 44.7316C153.115 44.5136 153.306 44.3466 153.538 44.2646L178.031 35.6146C178.134 35.5786 178.243 35.5596 178.352 35.5596H191.664C191.92 35.5596 192.165 35.6616 192.346 35.8416C192.527 36.0216 192.628 36.2676 192.628 36.5236V129.702C192.628 129.958 192.527 130.203 192.346 130.384C192.165 130.565 191.92 130.666 191.664 130.666H176.356V130.667Z" fill="black"/>
<path opacity="0.3" d="M191.664 36.5247V129.702H176.355V52.8977L157.587 58.2217L153.859 45.1757L178.352 36.5257L191.664 36.5247ZM191.664 34.5957H178.352C178.133 34.5957 177.916 34.6337 177.71 34.7057L153.216 43.3557C152.753 43.5196 152.37 43.8537 152.145 44.2902C151.919 44.7266 151.869 45.2324 152.004 45.7047L155.732 58.7507C155.873 59.2417 156.202 59.6568 156.649 59.9052C157.095 60.1535 157.621 60.2148 158.113 60.0757L174.426 55.4487V129.701C174.426 130.212 174.629 130.703 174.991 131.064C175.353 131.426 175.843 131.629 176.355 131.63H191.663C192.174 131.629 192.665 131.426 193.026 131.064C193.388 130.703 193.592 130.212 193.592 129.701V36.5247C193.592 36.0134 193.388 35.523 193.027 35.1613C192.665 34.7997 192.175 34.5962 191.664 34.5957Z" fill="black"/>
</g>
<path d="M174.426 128.739C174.17 128.739 173.925 128.637 173.744 128.456C173.563 128.275 173.462 128.03 173.462 127.774V52.2449L155.919 57.2199C155.674 57.2899 155.41 57.2589 155.187 57.1339C154.964 57.0089 154.799 56.8019 154.729 56.5559L151.002 43.5099C150.935 43.2739 150.96 43.0209 151.073 42.8029C151.186 42.5849 151.377 42.4179 151.608 42.3359L176.101 33.6849C176.204 33.649 176.312 33.6304 176.422 33.6299H189.734C189.99 33.6299 190.235 33.7319 190.416 33.9119C190.597 34.0919 190.699 34.3379 190.699 34.5939V127.772C190.699 128.028 190.597 128.273 190.416 128.454C190.235 128.635 189.99 128.737 189.734 128.737H174.426V128.739Z" fill="#F6FAF6"/>
<path d="M189.734 34.596V127.774H174.426V50.969L155.657 56.293L151.929 43.247L176.422 34.597L189.734 34.596ZM189.734 32.667H176.422C176.203 32.6672 175.986 32.7044 175.78 32.777L151.287 41.427C150.823 41.591 150.44 41.925 150.215 42.361C149.99 42.797 149.939 43.304 150.074 43.776L153.802 56.822C153.943 57.3129 154.273 57.7281 154.719 57.9764C155.165 58.2248 155.692 58.2861 156.183 58.147L172.497 53.52V127.773C172.497 128.285 172.7 128.775 173.062 129.137C173.423 129.499 173.914 129.702 174.426 129.702H189.733C190.245 129.702 190.735 129.498 191.097 129.137C191.458 128.775 191.662 128.285 191.662 127.773V34.596C191.662 34.084 191.459 33.594 191.097 33.232C190.735 32.8706 190.245 32.6674 189.734 32.667Z" fill="#223948"/>
<path d="M92.9252 110.497C92.6733 110.497 92.4316 110.397 92.2535 110.219C92.0753 110.04 91.9752 109.799 91.9752 109.547V88.4719H70.8992C70.6473 88.4719 70.4056 88.3718 70.2275 88.1936C70.0493 88.0155 69.9492 87.7738 69.9492 87.5219V74.2299C69.9492 74.1051 69.9738 73.9816 70.0215 73.8663C70.0693 73.7511 70.1393 73.6463 70.2275 73.5581C70.3157 73.4699 70.4204 73.3999 70.5357 73.3522C70.6509 73.3045 70.7745 73.2799 70.8992 73.2799H91.9752V52.2049C91.9752 51.9529 92.0753 51.7113 92.2535 51.5331C92.4316 51.355 92.6733 51.2549 92.9252 51.2549H106.219C106.471 51.2549 106.713 51.355 106.891 51.5331C107.069 51.7113 107.169 51.9529 107.169 52.2049V73.2789H128.245C128.497 73.2791 128.738 73.3794 128.916 73.5575C129.094 73.7356 129.194 73.9771 129.194 74.2289V87.5219C129.194 87.7737 129.094 88.0151 128.916 88.1933C128.738 88.3714 128.497 88.4716 128.245 88.4719H107.169V109.547C107.169 109.799 107.069 110.04 106.891 110.219C106.713 110.397 106.471 110.497 106.219 110.497H92.9252Z" fill="#F6FAF6"/>
<path d="M106.22 52.2056V74.2296H128.245V87.5226H106.22V109.547H92.925V87.5236H70.899V74.2306H92.925V52.2056H106.22ZM106.22 50.3066H92.925C92.4214 50.3069 91.9386 50.5071 91.5825 50.8631C91.2264 51.2192 91.0263 51.7021 91.026 52.2056V72.3306H70.899C70.3954 72.3309 69.9126 72.5311 69.5565 72.8871C69.2004 73.2432 69.0003 73.7261 69 74.2296V87.5226C69.0003 88.0262 69.2004 88.5091 69.5565 88.8651C69.9126 89.2212 70.3954 89.4214 70.899 89.4216H91.026V109.547C91.026 110.05 91.226 110.533 91.582 110.89C91.938 111.247 92.421 111.447 92.925 111.447H106.22C106.724 111.447 107.207 111.247 107.563 110.89C107.919 110.533 108.119 110.05 108.119 109.547V89.4226H128.245C128.749 89.4224 129.231 89.2222 129.588 88.8661C129.944 88.5101 130.144 88.0272 130.144 87.5236V74.2306C130.144 73.7271 129.944 73.2442 129.588 72.8881C129.231 72.5321 128.749 72.3319 128.245 72.3316H108.119V52.2056C108.119 51.7021 107.919 51.2192 107.562 50.8631C107.206 50.5071 106.724 50.3069 106.22 50.3066Z" fill="#223948"/>
<path d="M69.6118 256.091C69.2018 256.21 68.7616 256.164 68.3848 255.964C68.1995 255.866 68.0353 255.732 67.9018 255.571C67.7683 255.409 67.668 255.223 67.6068 255.023L39.7428 163.883C39.4848 163.04 39.9518 162.138 40.8078 161.877L104.532 142.394C105.388 142.133 106.304 142.611 106.562 143.454L134.426 234.595C134.684 235.438 134.192 236.347 133.336 236.609L69.6118 256.091Z" fill="url(#paint2_radial_930_3478)"/>
<path d="M104.286 145.179L131.574 234.435L69.8632 253.302L42.5752 164.046L104.286 145.179ZM103.726 139.928L40.0522 159.395C37.7882 160.088 36.5472 162.419 37.2302 164.65L65.0942 255.791C65.7762 258.022 68.1332 259.253 70.3722 258.569L134.096 239.086C136.36 238.394 137.618 236.03 136.943 233.824L109.079 142.684C108.397 140.452 106.015 139.229 103.775 139.913L103.726 139.928Z" fill="#C99EE8"/>
<path d="M104.509 142.4C105.365 142.139 106.281 142.617 106.539 143.46L134.403 234.601C134.661 235.444 134.169 236.353 133.314 236.615L69.6152 256.089C69.2054 256.208 68.7652 256.163 68.3882 255.963C68.0132 255.763 67.7342 255.425 67.6102 255.021L39.7462 163.881C39.4882 163.038 39.9552 162.136 40.8112 161.875L104.535 142.392L104.509 142.4ZM103.776 139.913L40.0522 159.395C37.7882 160.088 36.5472 162.419 37.2302 164.65L65.0942 255.791C65.7762 258.022 68.1332 259.253 70.3722 258.569L134.096 239.086C136.36 238.394 137.618 236.03 136.943 233.824L109.079 142.684C108.397 140.452 106.016 139.229 103.776 139.913Z" fill="#414042"/>
<path d="M61.173 199.88C61.099 199.897 61.022 199.888 60.955 199.853C60.888 199.818 60.837 199.76 60.81 199.69L60.194 198.075C60.167 198 60.17 197.917 60.203 197.844L63.723 189.645C63.7405 189.604 63.7668 189.568 63.8 189.539C63.833 189.51 63.872 189.488 63.915 189.475C63.958 189.462 64.003 189.458 64.047 189.464C64.091 189.47 64.134 189.484 64.172 189.507L71.678 194.339C71.718 194.365 71.7512 194.401 71.775 194.443C71.799 194.485 71.813 194.531 71.816 194.579L71.921 196.35C71.9238 196.417 71.9048 196.482 71.867 196.538C71.829 196.594 71.774 196.636 71.71 196.658L61.173 199.88Z" fill="#81635E"/>
<path d="M63.9901 189.765L71.4971 194.597L71.6021 196.368L61.0821 199.584L60.4691 197.968L63.9901 189.763V189.765ZM63.8211 189.213C63.7371 189.239 63.6601 189.283 63.5951 189.341C63.5301 189.399 63.4781 189.471 63.4431 189.551L59.9221 197.757C59.8637 197.897 59.8595 198.053 59.9101 198.196L60.5261 199.811C60.5786 199.95 60.6814 200.064 60.8141 200.13C60.9482 200.196 61.1019 200.211 61.2461 200.171L71.7661 196.955C71.8941 196.914 72.0061 196.832 72.0831 196.722C72.1599 196.613 72.1979 196.481 72.1911 196.347L72.0861 194.576C72.0791 194.484 72.0511 194.396 72.0051 194.316C71.9583 194.237 71.8945 194.169 71.8181 194.117L64.3111 189.283C64.2365 189.237 64.153 189.207 64.0661 189.195C63.9787 189.183 63.8897 189.19 63.8051 189.215L63.8211 189.213Z" fill="#414342"/>
<path d="M77.8397 188.329C77.7648 188.35 77.6848 188.343 77.6147 188.309C77.5447 188.275 77.4907 188.216 77.4627 188.144L76.8497 186.528C76.8248 186.458 76.8263 186.381 76.8537 186.311L80.3757 178.099C80.3937 178.058 80.4207 178.022 80.4547 177.992C80.4885 177.963 80.528 177.941 80.5707 177.928C80.6134 177.915 80.6583 177.911 80.7027 177.916C80.7471 177.922 80.7898 177.937 80.8277 177.961L88.3317 182.795C88.3708 182.822 88.4036 182.856 88.4277 182.897C88.4517 182.937 88.4657 182.983 88.4697 183.03L88.5747 184.801C88.5767 184.867 88.5577 184.933 88.5197 184.988C88.4817 185.044 88.4271 185.086 88.3637 185.109L77.8397 188.329Z" fill="#81635E"/>
<path d="M80.6558 178.207L88.1598 183.042L88.2648 184.813L77.7478 188.028L77.1318 186.413L80.6528 178.207H80.6558ZM80.4848 177.658C80.4002 177.685 80.3225 177.729 80.2568 177.788C80.1908 177.847 80.1388 177.919 80.1038 177.999L76.5938 186.19C76.534 186.331 76.5301 186.489 76.5828 186.632L77.1958 188.248C77.25 188.389 77.3559 188.503 77.4918 188.568C77.6288 188.634 77.7857 188.646 77.9308 188.6L88.4508 185.384C88.5784 185.343 88.6893 185.262 88.7668 185.152C88.8435 185.044 88.8818 184.912 88.8758 184.779L88.7708 183.008C88.7649 182.916 88.7375 182.827 88.6908 182.747C88.6438 182.667 88.5798 182.6 88.5018 182.549L80.9868 177.72C80.9135 177.672 80.8305 177.641 80.7438 177.629C80.6567 177.617 80.5679 177.623 80.4838 177.649L80.4848 177.658Z" fill="#414342"/>
<path d="M98.1533 188.573C98.0793 188.591 98.0023 188.581 97.9353 188.547C97.8683 188.513 97.8173 188.454 97.7903 188.384L97.1743 186.769C97.1493 186.697 97.1503 186.62 97.1773 186.548L100.699 178.339C100.718 178.299 100.745 178.263 100.778 178.234C100.811 178.205 100.851 178.182 100.894 178.168C100.937 178.154 100.982 178.152 101.026 178.157C101.07 178.162 101.113 178.178 101.151 178.201L108.655 183.033C108.695 183.06 108.728 183.095 108.752 183.137C108.776 183.179 108.79 183.226 108.792 183.274L108.9 185.044C108.903 185.111 108.884 185.177 108.846 185.232C108.808 185.287 108.753 185.329 108.689 185.352L98.1533 188.573Z" fill="#81635E"/>
<path d="M100.969 178.46L108.475 183.291L108.584 185.082L98.0662 188.298L97.4502 186.683L100.971 178.477L100.969 178.46ZM100.803 177.927C100.719 177.954 100.642 177.997 100.577 178.056C100.512 178.115 100.46 178.186 100.425 178.265L96.9042 186.471C96.8442 186.611 96.8402 186.768 96.8922 186.911L97.5052 188.527C97.5592 188.667 97.6652 188.782 97.8012 188.848C97.9372 188.914 98.0952 188.926 98.2412 188.881L108.761 185.665C108.889 185.624 109 185.543 109.078 185.434C109.155 185.324 109.193 185.193 109.186 185.06L109.084 183.288C109.076 183.197 109.048 183.108 109.002 183.028C108.956 182.948 108.892 182.881 108.815 182.829L101.308 177.995C101.234 177.949 101.15 177.919 101.063 177.907C100.976 177.895 100.888 177.902 100.803 177.927Z" fill="#414342"/>
<g style="mix-blend-mode:darken" opacity="0.063">
<path d="M63.9844 189.768L70.4414 197.111L70.9354 196.951L70.5574 196.123L70.0364 193.95L70.6884 193.729L63.9844 189.768Z" fill="#414342"/>
</g>
<path d="M90.4332 188.173L78.1472 191.93C77.9912 191.977 77.9032 192.14 77.9502 192.293L81.5642 204.115C81.6112 204.269 81.7752 204.354 81.9312 204.307L94.2172 200.551C94.3732 200.503 94.4612 200.34 94.4142 200.187L90.8002 188.365C90.7532 188.212 90.5892 188.126 90.4332 188.173Z" fill="#CECECE"/>
<path d="M90.5214 188.453L94.1354 200.272L81.8494 204.029L78.2354 192.209L90.5214 188.453ZM90.3534 187.903L78.0674 191.66C77.9194 191.705 77.7954 191.806 77.7224 191.941C77.6862 192.007 77.6637 192.08 77.6562 192.156C77.6486 192.231 77.6562 192.307 77.6784 192.38L81.2924 204.199C81.3145 204.271 81.3508 204.338 81.3992 204.396C81.4477 204.455 81.5072 204.503 81.5744 204.538C81.7114 204.608 81.8708 204.623 82.0184 204.578L94.3044 200.822C94.4524 200.777 94.5764 200.676 94.6494 200.541C94.6857 200.474 94.7083 200.401 94.7161 200.326C94.7238 200.25 94.7164 200.174 94.6944 200.102L91.0814 188.283C91.0592 188.21 91.0229 188.143 90.9745 188.085C90.926 188.026 90.8665 187.978 90.7994 187.944C90.6624 187.872 90.503 187.858 90.3554 187.903H90.3534Z" fill="#414342"/>
<path d="M82.6353 223.901C82.5988 223.912 82.5604 223.916 82.5223 223.913C82.4842 223.91 82.4471 223.899 82.4133 223.881C82.3453 223.846 82.2943 223.785 82.2723 223.712L75.4103 203.511C75.3976 203.475 75.3925 203.436 75.3953 203.398C75.3983 203.359 75.4093 203.321 75.4263 203.287C75.4441 203.251 75.4689 203.22 75.4993 203.195C75.5303 203.17 75.5653 203.151 75.6033 203.139L78.9193 202.126C78.9558 202.114 78.9942 202.11 79.0323 202.114C79.0704 202.117 79.1074 202.128 79.1413 202.146C79.2093 202.181 79.2603 202.242 79.2823 202.315L80.0383 204.789L82.7913 203.947L82.0353 201.474C82.0133 201.401 82.0213 201.322 82.0573 201.254C82.0933 201.186 82.1563 201.136 82.2303 201.113L85.5493 200.099C85.5858 200.087 85.6242 200.083 85.6623 200.087C85.7004 200.09 85.7374 200.101 85.7713 200.119C85.8393 200.154 85.8903 200.215 85.9123 200.288L86.6683 202.762L89.4213 201.92L88.6653 199.447C88.6433 199.374 88.6513 199.295 88.6873 199.227C88.7233 199.159 88.7863 199.109 88.8603 199.087L92.1793 198.072C92.2533 198.049 92.3333 198.057 92.4013 198.092C92.4687 198.127 92.5193 198.188 92.5423 198.261L93.2983 200.735L96.0513 199.894L95.2953 197.42C95.2733 197.347 95.2813 197.268 95.3173 197.2C95.3533 197.132 95.4163 197.082 95.4903 197.06L98.8203 196.042C98.8583 196.03 98.8983 196.026 98.9373 196.03C98.9763 196.034 99.0153 196.045 99.0493 196.065C99.0836 196.083 99.1136 196.108 99.1373 196.139C99.1611 196.169 99.1785 196.204 99.1883 196.241L104.789 216.834C104.811 216.906 104.803 216.985 104.766 217.053C104.729 217.121 104.668 217.171 104.594 217.194L82.6353 223.901Z" fill="#CECECE"/>
<path d="M98.9049 196.324L104.503 216.917L82.5449 223.631L75.6829 203.43L78.9989 202.416L79.8389 205.165L83.1579 204.15L82.3179 201.402L85.6369 200.387L86.4769 203.136L89.7929 202.122L88.9529 199.373L92.2719 198.358L93.1119 201.107L96.4279 200.093L95.5879 197.345L98.9069 196.33L98.9049 196.324ZM98.7389 195.78L95.4199 196.795C95.2719 196.84 95.1479 196.941 95.0749 197.076C95.0386 197.142 95.0159 197.215 95.0082 197.291C95.0005 197.366 95.0079 197.442 95.0299 197.515L95.7019 199.714L93.5129 200.383L92.8409 198.184C92.8187 198.112 92.7823 198.044 92.7339 197.986C92.6855 197.928 92.626 197.881 92.5589 197.846C92.422 197.775 92.2626 197.76 92.1149 197.805L88.7959 198.82C88.6479 198.865 88.5239 198.966 88.4509 199.102C88.4149 199.168 88.3925 199.241 88.3849 199.316C88.3774 199.392 88.3848 199.467 88.4069 199.54L89.0789 201.739L86.8899 202.409L86.2179 200.21C86.1958 200.137 86.1594 200.07 86.111 200.012C86.0626 199.954 86.0031 199.906 85.9359 199.871C85.799 199.8 85.6396 199.785 85.4919 199.83L82.1729 200.845C82.0255 200.89 81.9016 200.991 81.8279 201.127C81.7919 201.193 81.7695 201.266 81.7619 201.341C81.7544 201.417 81.7618 201.492 81.7839 201.565L82.4559 203.764L80.2669 204.434L79.5949 202.235C79.5728 202.162 79.5364 202.095 79.488 202.037C79.4396 201.979 79.3801 201.931 79.3129 201.896C79.1769 201.825 79.0169 201.81 78.8689 201.856L75.5189 202.88C75.4431 202.902 75.3727 202.939 75.3119 202.99C75.2514 203.04 75.2014 203.101 75.1649 203.171C75.1283 203.24 75.1063 203.316 75.1003 203.394C75.0943 203.472 75.1044 203.55 75.1299 203.624L81.9969 223.811C82.0192 223.883 82.0556 223.95 82.104 224.008C82.1524 224.066 82.2119 224.114 82.2789 224.149C82.4159 224.22 82.5753 224.235 82.7229 224.19L104.681 217.476C104.829 217.431 104.953 217.33 105.026 217.195C105.099 217.06 105.115 216.902 105.071 216.756L99.4799 196.194L99.4659 196.147C99.4437 196.075 99.4073 196.007 99.3589 195.949C99.3105 195.891 99.251 195.844 99.1839 195.809C99.047 195.738 98.8876 195.723 98.7399 195.768L98.7409 195.78H98.7389Z" fill="#414342"/>
<path d="M67.6733 228.482C67.6333 228.495 67.5923 228.499 67.5513 228.494C67.5103 228.489 67.4703 228.476 67.4353 228.455C67.4003 228.434 67.3693 228.405 67.3463 228.372C67.3233 228.339 67.3073 228.3 67.3003 228.26L61.0723 204.117L59.6383 203.038C59.5893 203 59.5533 202.948 59.5353 202.889L58.9013 200.814L58.0063 197.887C57.9843 197.814 57.9923 197.735 58.0283 197.667C58.0643 197.599 58.1273 197.549 58.2013 197.527L61.1913 196.612C61.2653 196.59 61.3453 196.597 61.4133 196.633C61.4813 196.669 61.5323 196.729 61.5543 196.802L62.3613 199.441L64.7903 198.698L63.9833 196.059C63.9613 195.986 63.9693 195.908 64.0053 195.84C64.0413 195.772 64.1043 195.722 64.1783 195.699L67.1713 194.784C67.2086 194.773 67.2476 194.769 67.2863 194.772C67.3253 194.776 67.3623 194.787 67.3973 194.805C67.4323 194.823 67.4613 194.847 67.4853 194.877C67.5093 194.907 67.5273 194.94 67.5383 194.976L68.3453 197.614L70.7773 196.871L69.9703 194.232C69.9483 194.159 69.9563 194.08 69.9923 194.013C70.0283 193.946 70.0913 193.895 70.1653 193.872L73.1773 192.951C73.2512 192.929 73.3307 192.936 73.3993 192.971C73.4673 193.007 73.5183 193.068 73.5403 193.141L75.0673 198.135C75.0853 198.195 75.0833 198.258 75.0623 198.317L74.4813 200.018L82.8303 223.525C82.8452 223.562 82.852 223.601 82.8503 223.641C82.8483 223.681 82.8383 223.72 82.8213 223.756C82.8043 223.792 82.7783 223.824 82.7483 223.85C82.7175 223.876 82.6818 223.895 82.6433 223.907L67.6773 228.482H67.6733Z" fill="#CECECE"/>
<path d="M58.2925 197.798L61.2825 196.884L62.1745 199.8L65.1695 198.884L64.2775 195.968L67.2705 195.053L68.1625 197.969L71.1575 197.053L70.2675 194.143L73.2575 193.229L74.1505 196.15L74.7835 198.223L74.1635 200.015L82.5495 223.623L67.5835 228.199L61.3355 203.942L59.8195 202.804L59.1845 200.726L58.2895 197.799L58.2925 197.798ZM58.1215 197.249C57.9735 197.294 57.8495 197.395 57.7765 197.531C57.7403 197.597 57.7177 197.67 57.71 197.745C57.7023 197.82 57.7096 197.896 57.7315 197.969L58.6265 200.897L59.2605 202.972C59.2975 203.09 59.3705 203.194 59.4705 203.268L60.8245 204.285L67.0215 228.347C67.0403 228.422 67.0744 228.493 67.1217 228.555C67.169 228.617 67.2285 228.669 67.2965 228.707C67.3675 228.747 67.4465 228.772 67.5275 228.781C67.6089 228.79 67.6913 228.782 67.7695 228.758L82.7215 224.187C82.7995 224.163 82.8725 224.123 82.9345 224.07C82.9965 224.017 83.0485 223.953 83.0845 223.88C83.1205 223.807 83.1395 223.734 83.1445 223.656C83.149 223.578 83.1374 223.5 83.1105 223.427L74.7935 200.014L75.3465 198.411C75.3883 198.295 75.3915 198.169 75.3555 198.051L73.8275 193.054C73.8054 192.981 73.769 192.914 73.7206 192.856C73.6722 192.798 73.6127 192.75 73.5455 192.715C73.4095 192.644 73.2495 192.629 73.1015 192.675L70.0975 193.593C69.9495 193.638 69.8255 193.739 69.7525 193.875C69.7163 193.941 69.6937 194.014 69.686 194.089C69.6783 194.164 69.6856 194.24 69.7075 194.313L70.4285 196.672L68.5625 197.242L67.8425 194.886C67.8201 194.812 67.7831 194.744 67.7335 194.685C67.6845 194.626 67.6225 194.577 67.5535 194.542C67.4852 194.506 67.4104 194.484 67.3335 194.477C67.2563 194.469 67.1784 194.478 67.1045 194.502L64.1065 195.418C63.9591 195.463 63.8352 195.564 63.7615 195.7C63.7253 195.766 63.7027 195.839 63.695 195.914C63.6873 195.989 63.6946 196.065 63.7165 196.138L64.4375 198.497L62.5715 199.067L61.8515 196.712C61.8294 196.639 61.793 196.572 61.7446 196.514C61.6962 196.456 61.6367 196.408 61.5695 196.373C61.4326 196.302 61.2732 196.287 61.1255 196.332L58.1385 197.246L58.1185 197.249H58.1215Z" fill="#414342"/>
<path d="M104.601 217.186C104.56 217.198 104.518 217.201 104.476 217.197C104.434 217.192 104.394 217.179 104.357 217.159C104.32 217.139 104.291 217.11 104.267 217.077C104.243 217.044 104.227 217.006 104.219 216.966L98.0008 192.827L96.5638 191.749L96.5558 191.724C96.5178 191.689 96.4888 191.645 96.4738 191.596L95.8398 189.523L94.9448 186.596C94.9228 186.523 94.9308 186.444 94.9668 186.376C95.0028 186.308 95.0658 186.258 95.1398 186.236L98.1298 185.322C98.1663 185.311 98.2047 185.306 98.2428 185.31C98.2809 185.313 98.318 185.324 98.3518 185.342C98.4198 185.377 98.4708 185.438 98.4928 185.511L99.2988 188.147L101.732 187.404L100.926 184.768C100.904 184.695 100.912 184.616 100.948 184.548C100.985 184.48 101.047 184.43 101.121 184.407L104.133 183.487C104.17 183.475 104.209 183.471 104.248 183.474C104.287 183.478 104.325 183.489 104.359 183.508C104.393 183.527 104.423 183.55 104.447 183.579C104.471 183.608 104.489 183.642 104.5 183.678L105.305 186.314L107.735 185.571L106.929 182.935C106.907 182.862 106.915 182.783 106.951 182.716C106.987 182.649 107.05 182.598 107.124 182.575L110.114 181.661C110.151 181.649 110.19 181.645 110.229 181.649C110.268 181.653 110.305 181.664 110.34 181.682C110.373 181.7 110.403 181.724 110.427 181.753C110.451 181.782 110.469 181.816 110.48 181.853L112.007 186.847C112.022 186.896 112.024 186.948 112.014 186.998L112.005 187.028L111.405 188.729L119.757 212.237C119.772 212.274 119.779 212.314 119.777 212.353C119.775 212.392 119.766 212.432 119.748 212.468C119.73 212.504 119.705 212.536 119.674 212.562C119.643 212.588 119.607 212.607 119.569 212.619L104.601 217.186Z" fill="#CECECE"/>
<path d="M95.2186 186.503L98.2056 185.59L99.0976 188.506L102.091 187.591L101.201 184.68L104.213 183.759L105.104 186.676L108.097 185.761L107.205 182.844L110.195 181.93L111.722 186.925L111.102 188.716L119.485 212.317L104.508 216.896L98.2636 192.641L96.7506 191.502L96.1166 189.429L95.2216 186.502L95.2186 186.503ZM95.0506 185.953C94.9031 185.998 94.7793 186.099 94.7056 186.235C94.6696 186.301 94.6471 186.374 94.6396 186.449C94.632 186.524 94.6395 186.6 94.6616 186.673L95.5566 189.601L96.1906 191.676C96.2276 191.794 96.3006 191.898 96.4006 191.973L97.7516 192.99L103.949 217.052C103.967 217.128 104.001 217.2 104.048 217.263C104.095 217.326 104.156 217.379 104.225 217.418C104.294 217.457 104.371 217.481 104.45 217.49C104.529 217.499 104.609 217.49 104.686 217.467L119.641 212.894C119.717 212.871 119.787 212.833 119.849 212.782C119.91 212.73 119.96 212.667 119.995 212.596C120.03 212.525 120.051 212.448 120.056 212.369C120.059 212.29 120.047 212.211 120.019 212.138L111.702 188.725L112.255 187.122C112.296 187.006 112.298 186.88 112.261 186.763L111.628 184.69L110.743 181.796L110.734 181.768C110.711 181.695 110.675 181.628 110.627 181.57C110.578 181.512 110.519 181.464 110.452 181.43C110.315 181.359 110.156 181.344 110.009 181.389L107.027 182.301C106.879 182.346 106.755 182.447 106.682 182.582C106.609 182.717 106.593 182.875 106.637 183.021L107.358 185.379L105.492 185.95L104.771 183.591C104.748 183.518 104.712 183.451 104.664 183.393C104.615 183.335 104.556 183.287 104.489 183.253C104.352 183.182 104.193 183.167 104.046 183.212L101.036 184.132C100.888 184.177 100.764 184.278 100.691 184.414C100.618 184.549 100.602 184.707 100.646 184.853L101.367 187.211L99.5016 187.781L98.7806 185.423C98.7584 185.35 98.7221 185.283 98.6737 185.225C98.6253 185.167 98.5657 185.119 98.4986 185.084C98.3615 185.013 98.2021 184.998 98.0546 185.044L95.0646 185.958L95.0506 185.953Z" fill="#414342"/>
<path d="M74.6579 200.138L61.2539 204.236M98.1719 192.993L111.241 188.997" stroke="#414342" stroke-width="0.5" stroke-miterlimit="10"/>
<path d="M69.327 207.232C68.9513 207.366 68.6423 207.641 68.465 207.998C68.2889 208.353 68.2598 208.762 68.384 209.137L69.349 212.292L72.186 211.425L71.209 208.231C71.1548 208.042 71.063 207.865 70.939 207.711C70.8139 207.557 70.659 207.43 70.4836 207.337C70.3082 207.243 70.1158 207.187 69.918 207.169C69.719 207.151 69.518 207.172 69.327 207.232ZM106.248 195.943C105.872 196.079 105.563 196.354 105.387 196.71C105.211 197.064 105.182 197.473 105.306 197.848L106.271 201.004L109.11 200.136L108.133 196.942C108.079 196.752 107.987 196.575 107.862 196.422C107.737 196.269 107.582 196.142 107.407 196.049C107.231 195.956 107.038 195.898 106.839 195.88C106.64 195.862 106.439 195.884 106.248 195.943ZM85.056 192.919C84.7246 193.039 84.452 193.282 84.295 193.597C84.1396 193.911 84.1137 194.272 84.223 194.604L85.072 197.38L87.582 196.613L86.719 193.79C86.6696 193.624 86.5873 193.469 86.477 193.334C86.366 193.2 86.2294 193.089 86.075 193.008C85.9197 192.927 85.7497 192.877 85.575 192.862C85.4 192.847 85.224 192.866 85.056 192.919Z" fill="#595959" stroke="#414342" stroke-width="0.5" stroke-linejoin="round"/>
<g style="mix-blend-mode:darken" opacity="0.063">
<path d="M66.8135 226.365L67.3495 228.507L82.9875 223.726L74.5625 200.219L72.2625 200.874L79.2725 221.997C79.2947 222.063 79.3032 222.133 79.2975 222.202C79.2918 222.272 79.2721 222.34 79.2395 222.402C79.207 222.465 79.1624 222.52 79.1085 222.564C79.0542 222.609 78.9917 222.643 78.9245 222.663L66.8135 226.365ZM103.699 215.087L104.235 217.229L119.873 212.448L111.448 188.941L109.148 189.596L116.182 210.79C116.201 210.847 116.208 210.907 116.203 210.967C116.199 211.027 116.183 211.085 116.154 211.138C116.126 211.192 116.088 211.239 116.04 211.277C115.994 211.316 115.94 211.346 115.882 211.363L103.699 215.087Z" fill="#414342"/>
</g>
<g style="mix-blend-mode:darken" opacity="0.063">
<path d="M94.4465 200.372L93.2905 200.731L92.4055 197.948L91.5885 198.198L88.8825 189.347L90.8965 188.732L94.4465 200.372ZM96.1855 196.867L101.116 215.365C101.148 215.493 101.129 215.629 101.064 215.743C100.998 215.858 100.89 215.945 100.763 215.984L82.1445 221.676L82.8015 223.825L104.453 217.206L103.796 215.056L103.688 215.09L98.8165 196.029L96.1855 196.867Z" fill="#414342"/>
</g>
<path d="M90.0969 221.627L90.0129 221.352L87.6769 213.711C87.0349 211.611 88.0509 209.407 89.9399 208.793L89.9959 208.776C91.9259 208.186 94.0119 209.382 94.6419 211.443L97.1019 219.489L96.8089 219.578L90.0969 221.627Z" fill="#595959"/>
<path d="M90.0678 209.041C91.8468 208.497 93.7598 209.607 94.3448 211.518L96.7198 219.285L90.3048 221.247L87.9688 213.605C87.3808 211.681 88.2758 209.622 90.0448 209.063L90.0948 209.048L90.0678 209.041ZM89.9258 208.498L89.8648 208.517C87.8228 209.18 86.7198 211.547 87.4078 213.798L89.7438 221.439C89.7669 221.514 89.8044 221.583 89.8544 221.643C89.9043 221.703 89.9657 221.752 90.0348 221.788C90.1759 221.861 90.3398 221.876 90.4918 221.83L96.9068 219.868C97.0588 219.822 97.1868 219.717 97.2628 219.578C97.3 219.51 97.3232 219.434 97.3311 219.357C97.339 219.279 97.3314 219.201 97.3088 219.126L94.9278 211.34C94.2508 209.124 92.0018 207.843 89.9148 208.481L89.9258 208.498Z" fill="#414342"/>
<g style="mix-blend-mode:darken" opacity="0.063">
<path d="M87.9609 182.988L90.2399 182.062L91.7979 186.66L90.8979 188.732L88.7449 189.391L89.2679 187.319L87.9609 182.988ZM71.0859 193.661L73.3669 192.912L75.1629 198.24L74.2629 200.312L72.1129 200.969L72.6339 198.901L71.0859 193.661Z" fill="#414342"/>
</g>
<path d="M78.0395 192.654C77.9945 192.668 77.9475 192.671 77.9015 192.663C77.8557 192.655 77.8125 192.637 77.7755 192.609L76.2595 191.47C76.2105 191.432 76.1745 191.38 76.1565 191.321L75.5215 189.246L74.6265 186.319C74.6045 186.246 74.6125 186.167 74.6485 186.099C74.6845 186.031 74.7475 185.981 74.8215 185.959L77.8085 185.045C77.8825 185.023 77.9625 185.03 78.0305 185.066C78.0985 185.102 78.1495 185.162 78.1715 185.235L78.9775 187.871L81.4065 187.128L80.6035 184.501C80.5815 184.428 80.5895 184.349 80.6255 184.281C80.6615 184.213 80.7245 184.163 80.7985 184.14L83.7915 183.226C83.828 183.214 83.8664 183.21 83.9045 183.214C83.9426 183.217 83.9796 183.228 84.0135 183.246C84.0815 183.281 84.1325 183.342 84.1545 183.415L84.9605 186.051L87.3925 185.308L86.5865 182.672C86.5645 182.599 86.5725 182.52 86.6085 182.452C86.6445 182.384 86.7075 182.334 86.7815 182.311L89.7745 181.396C89.8111 181.385 89.8494 181.381 89.8875 181.384C89.9255 181.387 89.9625 181.398 89.9965 181.416C90.0305 181.434 90.0615 181.458 90.0865 181.487C90.1115 181.516 90.1295 181.551 90.1405 181.588L91.6675 186.582C91.6825 186.632 91.6835 186.684 91.6715 186.734L91.6625 186.764L91.0445 188.555C91.0295 188.599 91.0035 188.639 90.9695 188.672C90.9355 188.705 90.8935 188.728 90.8485 188.741L78.0395 192.654Z" fill="#CECECE"/>
<path d="M74.9142 186.234L77.9042 185.32L78.7952 188.234L81.7882 187.319L80.8972 184.405L83.8902 183.49L84.7812 186.404L87.7762 185.488L86.8872 182.58L89.8802 181.665L90.7722 184.584L91.4062 186.66L90.7862 188.451L77.9562 192.374L76.4402 191.235L75.8062 189.16L74.9122 186.235L74.9142 186.234ZM74.7392 185.672C74.5912 185.717 74.4672 185.818 74.3942 185.953C74.3581 186.019 74.3356 186.092 74.328 186.168C74.3205 186.243 74.328 186.319 74.3502 186.392L75.2452 189.319L75.8802 191.395C75.9171 191.512 75.9903 191.615 76.0892 191.688L77.6022 192.828C77.6762 192.884 77.7632 192.922 77.8562 192.937C77.9488 192.952 78.0437 192.946 78.1332 192.918L90.9632 188.996C91.0532 188.969 91.1362 188.921 91.2042 188.857C91.2722 188.793 91.3232 188.712 91.3532 188.624L91.9712 186.833C92.0122 186.717 92.0152 186.591 91.9802 186.473L90.4572 181.49C90.4351 181.417 90.3988 181.35 90.3503 181.292C90.3019 181.233 90.2424 181.185 90.1752 181.151C90.0383 181.079 89.8789 181.065 89.7312 181.11L86.7242 182.03C86.5762 182.075 86.4522 182.176 86.3792 182.311C86.3431 182.377 86.3206 182.45 86.313 182.526C86.3055 182.601 86.313 182.677 86.3352 182.75L87.0562 185.108L85.1902 185.679L84.4692 183.32C84.4242 183.174 84.3232 183.053 84.1872 182.981C84.0502 182.91 83.8908 182.895 83.7432 182.941L80.7362 183.86C80.5888 183.905 80.465 184.006 80.3912 184.142C80.3551 184.208 80.3326 184.281 80.325 184.357C80.3175 184.432 80.325 184.508 80.3472 184.581L81.0682 186.939L79.2022 187.509L78.4812 185.151C78.4591 185.078 78.4228 185.011 78.3743 184.953C78.3259 184.894 78.2664 184.846 78.1992 184.812C78.0622 184.741 77.9028 184.726 77.7552 184.772L74.7682 185.685L74.7422 185.672H74.7392Z" fill="#414342"/>
<g style="mix-blend-mode:darken" opacity="0.063">
<path d="M108.012 182.366L110.293 181.618L112.092 186.944L111.192 189.016L109.039 189.675L109.56 187.607L108.012 182.366ZM87.7113 182.031L89.9953 181.281L91.7923 186.611L90.8913 188.681L88.7383 189.339L89.2613 187.271L87.7113 182.031ZM80.6523 178.203L87.1103 185.549L87.6033 185.386L87.2283 184.557L86.7073 182.384L87.3603 182.167L80.6523 178.203ZM100.965 178.455L107.422 185.801L107.916 185.638L107.537 184.81L107.016 182.637L107.669 182.419L100.965 178.455Z" fill="#414342"/>
</g>
<path d="M126.65 256.091C126.24 256.21 125.8 256.164 125.423 255.964C125.238 255.866 125.074 255.732 124.94 255.571C124.807 255.409 124.707 255.223 124.646 255.023L96.7818 163.883C96.5238 163.04 96.9908 162.138 97.8468 161.877L161.571 142.394C162.427 142.133 163.343 142.611 163.601 143.454L191.465 234.595C191.723 235.438 191.231 236.347 190.376 236.609L126.65 256.091Z" fill="url(#paint3_radial_930_3478)"/>
<path d="M161.321 145.179L188.61 234.435L126.898 253.302L99.6104 164.046L161.321 145.179ZM160.761 139.928L97.0873 159.395C94.8233 160.088 93.5823 162.419 94.2653 164.65L122.129 255.791C122.812 258.022 125.169 259.253 127.408 258.569L191.132 239.086C193.396 238.394 194.654 236.03 193.979 233.824L166.115 142.684C165.433 140.452 163.051 139.229 160.812 139.913L160.761 139.928Z" fill="#C99EE8"/>
<path d="M161.544 142.4C162.4 142.139 163.316 142.617 163.574 143.46L191.439 234.601C191.559 235.013 191.512 235.455 191.308 235.832C191.104 236.209 190.759 236.49 190.349 236.615L126.65 256.089C126.241 256.208 125.8 256.163 125.423 255.963C125.048 255.763 124.768 255.425 124.645 255.021L96.7813 163.881C96.5233 163.038 96.9904 162.136 97.8464 161.875L161.571 142.392L161.544 142.4ZM160.812 139.913L97.0873 159.395C94.8233 160.088 93.5823 162.419 94.2653 164.65L122.129 255.791C122.812 258.022 125.169 259.253 127.408 258.569L191.132 239.086C193.396 238.394 194.654 236.03 193.979 233.824L166.115 142.684C165.433 140.452 163.051 139.229 160.812 139.913Z" fill="#414042"/>
<path d="M118.211 199.879C118.137 199.896 118.06 199.887 117.993 199.852C117.926 199.817 117.875 199.759 117.848 199.689L117.232 198.074C117.206 197.999 117.209 197.916 117.241 197.843L120.761 189.644C120.779 189.603 120.805 189.567 120.838 189.538C120.872 189.508 120.911 189.486 120.954 189.473C120.996 189.46 121.041 189.457 121.085 189.463C121.13 189.468 121.172 189.483 121.21 189.506L128.716 194.338C128.756 194.364 128.789 194.4 128.813 194.442C128.837 194.484 128.85 194.53 128.854 194.578L128.959 196.349C128.962 196.416 128.943 196.482 128.905 196.537C128.867 196.592 128.812 196.635 128.748 196.657L118.211 199.879Z" fill="#81635E"/>
<path d="M121.029 189.765L128.536 194.597L128.641 196.368L118.121 199.584L117.508 197.968L121.028 189.763L121.029 189.765ZM120.86 189.213C120.777 189.24 120.7 189.284 120.635 189.342C120.57 189.4 120.518 189.471 120.482 189.551L116.961 197.757C116.903 197.897 116.899 198.053 116.949 198.196L117.565 199.811C117.618 199.95 117.72 200.064 117.853 200.13C117.987 200.196 118.141 200.211 118.285 200.171L128.805 196.955C128.934 196.914 129.045 196.832 129.122 196.722C129.199 196.612 129.236 196.48 129.23 196.347L129.124 194.576C129.117 194.484 129.089 194.396 129.043 194.316C128.997 194.236 128.932 194.169 128.856 194.117L121.348 189.283C121.274 189.237 121.191 189.207 121.104 189.195C121.017 189.183 120.928 189.19 120.843 189.215L120.86 189.213Z" fill="#414342"/>
<path d="M134.879 188.329C134.804 188.35 134.723 188.343 134.653 188.309C134.584 188.275 134.53 188.216 134.502 188.144L133.889 186.528C133.864 186.458 133.865 186.381 133.892 186.311L137.414 178.099C137.432 178.058 137.459 178.022 137.493 177.992C137.527 177.962 137.566 177.941 137.609 177.928C137.652 177.915 137.697 177.911 137.741 177.916C137.786 177.922 137.828 177.937 137.866 177.961L145.37 182.795C145.41 182.822 145.443 182.856 145.467 182.897C145.491 182.938 145.505 182.983 145.509 183.03L145.614 184.801C145.617 184.867 145.598 184.933 145.56 184.988C145.522 185.043 145.467 185.086 145.404 185.109L134.879 188.329Z" fill="#81635E"/>
<path d="M137.695 178.208L145.199 183.043L145.305 184.814L134.787 188.03L134.172 186.415L137.692 178.209L137.695 178.208ZM137.524 177.659C137.44 177.686 137.362 177.73 137.296 177.789C137.231 177.848 137.179 177.92 137.144 178.001L133.634 186.191C133.574 186.332 133.57 186.49 133.622 186.634L134.235 188.249C134.289 188.39 134.396 188.505 134.532 188.57C134.669 188.635 134.826 188.647 134.971 188.602L145.492 185.385C145.62 185.344 145.731 185.263 145.808 185.153C145.885 185.044 145.923 184.913 145.917 184.78L145.811 183.009C145.805 182.917 145.778 182.828 145.732 182.748C145.685 182.669 145.62 182.601 145.543 182.55L138.028 177.722C137.955 177.674 137.872 177.643 137.785 177.63C137.698 177.617 137.609 177.625 137.524 177.65V177.659Z" fill="#414342"/>
<path d="M155.188 188.574C155.114 188.592 155.036 188.582 154.969 188.547C154.902 188.512 154.851 188.454 154.825 188.384L154.209 186.769C154.184 186.698 154.185 186.62 154.212 186.549L157.734 178.34C157.754 178.3 157.781 178.264 157.814 178.234C157.847 178.205 157.886 178.183 157.929 178.169C157.972 178.156 158.017 178.152 158.061 178.158C158.106 178.163 158.148 178.178 158.186 178.202L165.69 183.034C165.73 183.06 165.763 183.096 165.787 183.138C165.811 183.18 165.825 183.226 165.827 183.274L165.935 185.044C165.938 185.111 165.919 185.177 165.881 185.232C165.843 185.287 165.788 185.33 165.725 185.352L155.188 188.574Z" fill="#81635E"/>
<path d="M158.008 178.46L165.515 183.292L165.623 185.083L155.106 188.298L154.49 186.683L158.01 178.478L158.008 178.46ZM157.842 177.928C157.759 177.954 157.682 177.997 157.616 178.056C157.551 178.114 157.5 178.186 157.464 178.266L153.943 186.472C153.883 186.612 153.879 186.769 153.931 186.911L154.544 188.527C154.598 188.668 154.705 188.783 154.841 188.848C154.979 188.913 155.135 188.926 155.281 188.882L165.801 185.665C165.929 185.625 166.041 185.543 166.118 185.434C166.195 185.325 166.233 185.193 166.226 185.061L166.124 183.289C166.117 183.197 166.089 183.108 166.042 183.029C165.996 182.949 165.932 182.881 165.855 182.83L158.348 177.996C158.274 177.949 158.19 177.919 158.103 177.908C158.016 177.897 157.927 177.903 157.842 177.928Z" fill="#414342"/>
<g style="mix-blend-mode:darken" opacity="0.063">
<path d="M121.023 189.767L127.48 197.11L127.974 196.95L127.596 196.122L127.075 193.949L127.727 193.729L121.023 189.767Z" fill="#414342"/>
</g>
<path d="M147.468 188.173L135.182 191.929C135.026 191.977 134.938 192.139 134.985 192.293L138.6 204.115C138.646 204.268 138.811 204.354 138.966 204.306L151.252 200.55C151.407 200.503 151.496 200.34 151.449 200.186L147.834 188.364C147.787 188.211 147.623 188.125 147.468 188.173Z" fill="#CECECE"/>
<path d="M147.557 188.454L151.17 200.273L138.884 204.029L135.271 192.21L147.557 188.454ZM147.388 187.904L135.103 191.66C134.955 191.705 134.831 191.807 134.758 191.942C134.685 192.077 134.668 192.235 134.713 192.38L138.326 204.2C138.371 204.345 138.473 204.467 138.609 204.538C138.746 204.609 138.905 204.624 139.052 204.579L151.338 200.823C151.486 200.778 151.61 200.676 151.683 200.541C151.756 200.406 151.772 200.248 151.728 200.102L148.114 188.283C148.092 188.21 148.056 188.143 148.007 188.085C147.959 188.027 147.899 187.979 147.832 187.944C147.695 187.873 147.536 187.859 147.388 187.904Z" fill="#414342"/>
<path d="M139.674 223.902C139.6 223.925 139.52 223.917 139.452 223.882C139.384 223.847 139.333 223.785 139.311 223.712L132.449 203.512C132.436 203.475 132.431 203.437 132.434 203.398C132.437 203.359 132.448 203.322 132.466 203.287C132.484 203.252 132.509 203.221 132.539 203.196C132.569 203.171 132.605 203.151 132.643 203.14L135.959 202.126C136.033 202.103 136.113 202.111 136.181 202.146C136.249 202.181 136.3 202.243 136.322 202.316L137.079 204.789L139.831 203.948L139.075 201.474C139.053 201.401 139.061 201.322 139.097 201.255C139.133 201.188 139.196 201.137 139.27 201.114L142.589 200.099C142.663 200.077 142.743 200.084 142.811 200.119C142.879 200.155 142.93 200.216 142.952 200.289L143.708 202.763L146.461 201.921L145.705 199.447C145.694 199.411 145.69 199.373 145.694 199.335C145.698 199.297 145.709 199.261 145.727 199.228C145.763 199.16 145.826 199.11 145.9 199.087L149.219 198.072C149.292 198.05 149.372 198.057 149.44 198.093C149.508 198.129 149.559 198.189 149.581 198.262L150.338 200.736L153.091 199.894L152.334 197.42C152.312 197.347 152.32 197.269 152.357 197.201C152.375 197.167 152.4 197.137 152.429 197.113C152.459 197.089 152.493 197.071 152.529 197.06L155.859 196.042C155.897 196.03 155.937 196.026 155.977 196.03C156.056 196.038 156.128 196.078 156.177 196.139C156.201 196.17 156.218 196.204 156.228 196.242L161.829 216.834C161.851 216.907 161.843 216.986 161.806 217.053C161.769 217.12 161.708 217.172 161.634 217.194L139.674 223.902Z" fill="#CECECE"/>
<path d="M155.944 196.325L161.542 216.918L139.584 223.631L132.722 203.431L136.038 202.417L136.878 205.166L140.197 204.151L139.357 201.402L142.676 200.387L143.516 203.136L146.832 202.122L145.992 199.374L149.311 198.359L150.151 201.108L153.467 200.094L152.627 197.345L155.946 196.33L155.944 196.325ZM155.778 195.781L152.459 196.795C152.312 196.84 152.188 196.942 152.114 197.077C152.041 197.212 152.025 197.37 152.069 197.516L152.742 199.715L150.552 200.384L149.88 198.185C149.858 198.113 149.822 198.045 149.773 197.987C149.725 197.929 149.666 197.881 149.598 197.846C149.461 197.775 149.302 197.761 149.154 197.806L145.835 198.82C145.688 198.865 145.564 198.967 145.49 199.102C145.417 199.237 145.401 199.395 145.445 199.541L146.118 201.74L143.928 202.409L143.256 200.21C143.234 200.138 143.198 200.07 143.15 200.012C143.101 199.954 143.042 199.906 142.974 199.871C142.837 199.8 142.678 199.786 142.53 199.831L139.211 200.846C139.063 200.891 138.939 200.992 138.866 201.127C138.793 201.262 138.777 201.42 138.821 201.566L139.494 203.765L137.304 204.434L136.632 202.235C136.587 202.089 136.486 201.968 136.35 201.896C136.213 201.825 136.054 201.811 135.906 201.856L132.556 202.88C132.481 202.903 132.411 202.94 132.35 202.99C132.289 203.04 132.239 203.102 132.203 203.171C132.168 203.241 132.145 203.317 132.138 203.395C132.132 203.473 132.143 203.551 132.168 203.624L139.035 223.811C139.058 223.883 139.094 223.951 139.142 224.009C139.191 224.067 139.25 224.115 139.317 224.15C139.454 224.221 139.614 224.235 139.761 224.19L161.719 217.477C161.867 217.432 161.991 217.33 162.064 217.195C162.137 217.06 162.153 216.902 162.109 216.757L156.518 196.195L156.503 196.148C156.481 196.076 156.445 196.008 156.396 195.95C156.348 195.892 156.289 195.844 156.221 195.809C156.084 195.738 155.925 195.724 155.777 195.769L155.778 195.781Z" fill="#414342"/>
<path d="M124.708 228.483C124.669 228.495 124.627 228.499 124.586 228.494C124.544 228.49 124.505 228.476 124.47 228.455C124.435 228.434 124.404 228.406 124.381 228.372C124.358 228.338 124.342 228.3 124.335 228.26L118.107 204.118L116.673 203.038C116.624 203 116.588 202.949 116.57 202.89L115.935 200.815L115.04 197.887C115.018 197.814 115.026 197.735 115.062 197.668C115.098 197.601 115.161 197.55 115.235 197.527L118.225 196.613C118.299 196.59 118.379 196.598 118.447 196.633C118.514 196.669 118.565 196.73 118.588 196.803L119.394 199.441L121.824 198.699L121.017 196.06C120.995 195.987 121.003 195.908 121.039 195.841C121.075 195.774 121.138 195.722 121.212 195.7L124.205 194.785C124.242 194.773 124.281 194.769 124.32 194.773C124.358 194.776 124.396 194.787 124.431 194.806C124.464 194.824 124.494 194.848 124.518 194.877C124.542 194.906 124.56 194.94 124.571 194.976L125.378 197.615L127.81 196.871L127.003 194.233C126.981 194.159 126.988 194.08 127.025 194.013C127.062 193.946 127.124 193.895 127.198 193.873L130.21 192.952C130.246 192.94 130.284 192.936 130.323 192.94C130.361 192.943 130.398 192.954 130.432 192.972C130.5 193.007 130.551 193.068 130.573 193.141L132.1 198.136C132.117 198.195 132.116 198.259 132.095 198.318L131.514 200.019L139.862 223.525C139.877 223.562 139.884 223.602 139.882 223.641C139.88 223.68 139.87 223.72 139.853 223.756C139.836 223.792 139.81 223.824 139.779 223.85C139.748 223.876 139.712 223.895 139.674 223.907L124.708 228.483Z" fill="#CECECE"/>
<path d="M115.331 197.797L118.321 196.883L119.213 199.8L122.208 198.884L121.317 195.967L124.309 195.052L125.201 197.969L128.196 197.053L127.306 194.142L130.296 193.228L131.189 196.15L131.823 198.222L131.203 200.014L139.589 223.623L124.623 228.198L118.375 203.942L116.859 202.803L116.223 200.725L115.328 197.798L115.331 197.797ZM115.16 197.248C115.013 197.294 114.889 197.395 114.815 197.53C114.779 197.597 114.756 197.67 114.749 197.745C114.741 197.821 114.749 197.897 114.771 197.969L115.666 200.896L116.3 202.971C116.337 203.089 116.41 203.193 116.51 203.268L117.864 204.285L124.061 228.346C124.08 228.422 124.115 228.493 124.162 228.555C124.209 228.617 124.268 228.669 124.336 228.707C124.407 228.747 124.485 228.772 124.567 228.78C124.648 228.789 124.731 228.782 124.809 228.758L139.761 224.186C139.918 224.136 140.048 224.026 140.125 223.88C140.16 223.81 140.18 223.734 140.185 223.656C140.189 223.578 140.178 223.5 140.151 223.427L131.834 200.013L132.387 198.411C132.429 198.295 132.432 198.168 132.396 198.05L130.868 193.053C130.823 192.907 130.722 192.786 130.586 192.714C130.449 192.643 130.29 192.629 130.142 192.674L127.138 193.592C126.991 193.638 126.867 193.739 126.793 193.874C126.72 194.009 126.704 194.167 126.748 194.313L127.47 196.671L125.604 197.241L124.883 194.886C124.86 194.813 124.823 194.744 124.774 194.685C124.724 194.626 124.664 194.577 124.595 194.541C124.527 194.505 124.452 194.483 124.375 194.477C124.298 194.471 124.221 194.478 124.147 194.501L121.148 195.418C121.001 195.463 120.877 195.564 120.803 195.699C120.767 195.766 120.744 195.839 120.737 195.914C120.729 195.99 120.737 196.066 120.759 196.138L121.48 198.496L119.614 199.067L118.894 196.711C118.872 196.639 118.835 196.572 118.787 196.513C118.738 196.455 118.678 196.407 118.611 196.372C118.475 196.301 118.316 196.287 118.168 196.332L115.181 197.245L115.16 197.248Z" fill="#414342"/>
<path d="M161.64 217.187C161.599 217.199 161.557 217.202 161.515 217.197C161.473 217.192 161.433 217.179 161.396 217.159C161.36 217.139 161.33 217.111 161.306 217.078C161.283 217.045 161.266 217.007 161.258 216.967L155.04 192.828L153.603 191.749L153.596 191.724C153.557 191.69 153.529 191.645 153.514 191.596L152.88 189.524L151.985 186.596C151.963 186.523 151.971 186.444 152.008 186.377C152.026 186.344 152.05 186.314 152.08 186.29C152.109 186.266 152.143 186.247 152.18 186.236L155.17 185.322C155.244 185.299 155.324 185.307 155.392 185.342C155.46 185.377 155.511 185.439 155.533 185.512L156.339 188.148L158.771 187.404L157.965 184.768C157.943 184.695 157.951 184.616 157.987 184.549C158.023 184.482 158.086 184.431 158.16 184.408L161.172 183.487C161.209 183.475 161.248 183.471 161.287 183.475C161.326 183.478 161.364 183.49 161.398 183.508C161.432 183.526 161.461 183.55 161.486 183.579C161.51 183.609 161.528 183.642 161.539 183.678L162.345 186.314L164.774 185.572L163.968 182.936C163.946 182.863 163.954 182.784 163.99 182.716C164.027 182.649 164.089 182.598 164.163 182.576L167.153 181.662C167.19 181.65 167.229 181.646 167.268 181.649C167.307 181.652 167.344 181.664 167.379 181.683C167.414 181.702 167.442 181.725 167.466 181.754C167.49 181.783 167.508 181.817 167.519 181.853L169.046 186.847C169.061 186.896 169.063 186.948 169.053 186.999L169.044 187.028L168.444 188.73L176.796 212.237C176.811 212.274 176.818 212.314 176.816 212.354C176.814 212.394 176.805 212.433 176.787 212.469C176.769 212.505 176.744 212.537 176.714 212.562C176.683 212.588 176.647 212.608 176.608 212.62L161.64 217.187Z" fill="#CECECE"/>
<path d="M152.258 186.503L155.245 185.59L156.137 188.506L159.13 187.592L158.24 184.681L161.252 183.76L162.143 186.676L165.136 185.761L164.244 182.845L167.234 181.931L168.761 186.925L168.141 188.717L176.524 212.317L161.547 216.896L155.303 192.642L153.79 191.502L153.156 189.43L152.261 186.503H152.258ZM152.09 185.954C151.942 185.999 151.818 186.1 151.745 186.235C151.672 186.37 151.656 186.528 151.7 186.674L152.595 189.601L153.23 191.676C153.267 191.794 153.341 191.898 153.44 191.973L154.791 192.991L160.988 217.052C161.006 217.129 161.04 217.201 161.087 217.264C161.135 217.326 161.195 217.379 161.264 217.418C161.333 217.457 161.41 217.482 161.489 217.49C161.569 217.498 161.649 217.49 161.725 217.467L176.68 212.895C176.756 212.872 176.827 212.833 176.888 212.782C176.949 212.731 176.999 212.668 177.034 212.597C177.07 212.526 177.091 212.449 177.095 212.37C177.099 212.291 177.086 212.213 177.059 212.139L168.741 188.725L169.294 187.123C169.335 187.006 169.337 186.88 169.3 186.763L168.667 184.691L167.782 181.796L167.773 181.769C167.751 181.696 167.715 181.629 167.666 181.571C167.618 181.512 167.558 181.465 167.491 181.43C167.355 181.359 167.196 181.344 167.048 181.39L164.066 182.301C163.918 182.346 163.794 182.448 163.721 182.583C163.648 182.718 163.632 182.876 163.676 183.022L164.397 185.38L162.532 185.95L161.81 183.592C161.788 183.519 161.752 183.452 161.703 183.394C161.655 183.335 161.595 183.288 161.528 183.253C161.392 183.182 161.233 183.168 161.085 183.213L158.075 184.133C157.927 184.178 157.803 184.279 157.73 184.414C157.694 184.48 157.671 184.553 157.664 184.629C157.656 184.704 157.664 184.78 157.686 184.853L158.407 187.211L156.541 187.782L155.82 185.424C155.798 185.351 155.761 185.284 155.713 185.226C155.664 185.167 155.604 185.119 155.537 185.085C155.4 185.014 155.241 184.999 155.094 185.044L152.104 185.958L152.09 185.954Z" fill="#414342"/>
<path d="M131.693 200.138L118.289 204.236M155.211 192.994L168.28 188.998" stroke="#414342" stroke-width="0.5" stroke-miterlimit="10"/>
<path d="M126.366 207.232C125.989 207.368 125.68 207.643 125.504 207.999C125.328 208.353 125.299 208.762 125.423 209.137L126.388 212.293L129.224 211.426L128.248 208.232C128.194 208.042 128.102 207.865 127.978 207.712C127.853 207.558 127.698 207.431 127.523 207.338C127.348 207.245 127.155 207.188 126.956 207.169C126.757 207.151 126.557 207.173 126.366 207.232Z" fill="#595959" stroke="#414342" stroke-width="0.5" stroke-linejoin="round"/>
<path d="M163.287 195.944C162.911 196.08 162.603 196.355 162.427 196.71C162.251 197.065 162.221 197.475 162.345 197.849L163.31 201.004L166.149 200.136L165.173 196.942C165.118 196.752 165.025 196.576 164.9 196.422C164.775 196.269 164.621 196.142 164.446 196.049C164.27 195.956 164.077 195.899 163.878 195.881C163.679 195.863 163.478 195.885 163.287 195.944Z" fill="#595959" stroke="#414342" stroke-width="0.5" stroke-linejoin="round"/>
<path d="M142.095 192.919C141.763 193.04 141.49 193.283 141.334 193.598C141.179 193.911 141.153 194.273 141.263 194.605L142.111 197.381L144.622 196.613L143.759 193.791C143.71 193.624 143.628 193.469 143.517 193.335C143.406 193.2 143.269 193.089 143.115 193.008C142.96 192.927 142.79 192.878 142.615 192.862C142.44 192.846 142.263 192.866 142.095 192.919Z" fill="#595959" stroke="#414342" stroke-width="0.5" stroke-linejoin="round"/>
<g style="mix-blend-mode:darken" opacity="0.063">
<path d="M123.848 226.367L124.384 228.508L140.022 223.727L131.597 200.22L129.297 200.876L136.307 221.999C136.329 222.065 136.337 222.134 136.332 222.204C136.326 222.273 136.306 222.341 136.274 222.403C136.242 222.465 136.197 222.52 136.143 222.565C136.088 222.61 136.025 222.644 135.958 222.664L123.848 226.367Z" fill="#414342"/>
</g>
<g style="mix-blend-mode:darken" opacity="0.063">
<path d="M160.734 215.088L161.27 217.229L176.908 212.448L168.483 188.942L166.183 189.597L173.217 210.791C173.236 210.847 173.243 210.907 173.239 210.967C173.235 211.027 173.217 211.085 173.189 211.139C173.16 211.193 173.122 211.24 173.075 211.278C173.029 211.317 172.975 211.346 172.917 211.363L160.734 215.088Z" fill="#414342"/>
</g>
<g style="mix-blend-mode:darken" opacity="0.063">
<path d="M151.485 200.372L150.329 200.732L149.445 197.949L148.628 198.198L145.922 189.348L147.936 188.732L151.485 200.372Z" fill="#414342"/>
</g>
<g style="mix-blend-mode:darken" opacity="0.063">
<path d="M153.225 196.867L158.154 215.365C158.186 215.493 158.167 215.629 158.102 215.743C158.036 215.858 157.928 215.945 157.801 215.984L139.184 221.676L139.841 223.825L161.493 217.206L160.835 215.056L160.727 215.09L155.857 196.029L153.225 196.867Z" fill="#414342"/>
</g>
<path d="M147.136 221.626L147.052 221.352L144.716 213.71C144.074 211.61 145.089 209.406 146.979 208.793L147.034 208.776C148.964 208.186 151.05 209.381 151.68 211.443L154.14 219.488L153.847 219.578L147.136 221.626Z" fill="#595959"/>
<path d="M147.107 209.043C148.886 208.499 150.799 209.609 151.384 211.519L153.758 219.287L147.344 221.248L145.007 213.607C144.419 211.683 145.315 209.624 147.083 209.065L147.133 209.05L147.107 209.043ZM146.965 208.5L146.904 208.519C144.862 209.182 143.759 211.548 144.447 213.799L146.783 221.44C146.829 221.591 146.934 221.716 147.074 221.789C147.215 221.863 147.379 221.878 147.531 221.831L153.946 219.87C154.098 219.823 154.226 219.719 154.301 219.58C154.376 219.441 154.393 219.278 154.347 219.128L151.966 211.341C151.289 209.126 149.04 207.845 146.954 208.482L146.965 208.5Z" fill="#414342"/>
<g style="mix-blend-mode:darken" opacity="0.063">
<path d="M145 182.988L147.279 182.062L148.837 186.66L147.937 188.732L145.783 189.391L146.306 187.319L145 182.988ZM128.125 193.661L130.406 192.912L132.202 198.24L131.302 200.312L129.151 200.969L129.672 198.901L128.125 193.661Z" fill="#414342"/>
</g>
<path d="M135.078 192.654C135.033 192.668 134.986 192.671 134.94 192.663C134.894 192.655 134.851 192.637 134.814 192.609L133.298 191.47C133.249 191.432 133.213 191.38 133.195 191.321L132.56 189.246L131.665 186.319C131.643 186.245 131.65 186.166 131.687 186.099C131.724 186.032 131.786 185.981 131.86 185.959L134.847 185.045C134.921 185.023 135.001 185.03 135.069 185.066C135.137 185.102 135.188 185.162 135.21 185.235L136.016 187.871L138.445 187.128L137.642 184.501C137.62 184.427 137.627 184.348 137.664 184.281C137.701 184.213 137.763 184.163 137.837 184.14L140.829 183.226C140.865 183.214 140.903 183.21 140.942 183.214C140.98 183.217 141.017 183.228 141.051 183.246C141.119 183.281 141.17 183.342 141.192 183.415L141.998 186.051L144.43 185.308L143.624 182.672C143.602 182.599 143.61 182.52 143.647 182.452C143.684 182.384 143.745 182.334 143.819 182.311L146.812 181.396C146.848 181.385 146.887 181.381 146.925 181.384C146.963 181.387 147 181.398 147.034 181.416C147.069 181.433 147.099 181.458 147.124 181.487C147.149 181.516 147.167 181.551 147.178 181.588L148.705 186.582C148.72 186.631 148.721 186.684 148.709 186.734L148.7 186.764L148.082 188.555C148.067 188.599 148.042 188.639 148.007 188.672C147.972 188.705 147.932 188.728 147.886 188.741L135.078 192.654Z" fill="#CECECE"/>
<path d="M131.953 186.234L134.942 185.32L135.833 188.233L138.826 187.318L137.935 184.405L140.928 183.49L141.818 186.403L144.814 185.488L143.925 182.58L146.917 181.665L147.81 184.584L148.444 186.659L147.824 188.451L134.994 192.373L133.478 191.235L132.844 189.159L131.95 186.235L131.953 186.234ZM131.778 185.671C131.631 185.716 131.506 185.817 131.432 185.953C131.396 186.019 131.374 186.093 131.366 186.168C131.359 186.243 131.366 186.319 131.388 186.392L132.283 189.319L132.917 191.394C132.955 191.511 133.028 191.614 133.126 191.688L134.639 192.827C134.714 192.883 134.801 192.921 134.893 192.937C134.986 192.952 135.081 192.946 135.17 192.917L148 188.995C148.09 188.968 148.173 188.921 148.24 188.856C148.308 188.791 148.359 188.712 148.389 188.623L149.007 186.833C149.048 186.716 149.051 186.59 149.016 186.472L147.492 181.489C147.47 181.417 147.434 181.349 147.385 181.291C147.337 181.233 147.277 181.185 147.21 181.15C147.073 181.079 146.914 181.065 146.766 181.11L143.76 182.029C143.613 182.074 143.488 182.175 143.414 182.311C143.378 182.377 143.356 182.45 143.348 182.525C143.341 182.601 143.348 182.677 143.37 182.749L144.091 185.108L142.225 185.678L141.504 183.32C141.482 183.248 141.446 183.18 141.397 183.122C141.349 183.064 141.289 183.016 141.222 182.981C141.086 182.91 140.926 182.895 140.778 182.941L137.771 183.86C137.624 183.905 137.5 184.006 137.426 184.141C137.39 184.207 137.368 184.281 137.36 184.356C137.353 184.431 137.36 184.507 137.382 184.58L138.103 186.938L136.237 187.509L135.516 185.15C135.471 185.005 135.37 184.883 135.234 184.812C135.097 184.741 134.938 184.726 134.79 184.771L131.803 185.685L131.778 185.671Z" fill="#414342"/>
<g style="mix-blend-mode:darken" opacity="0.063">
<path d="M165.051 182.367L167.332 181.618L169.132 186.944L168.231 189.017L166.078 189.675L166.599 187.607L165.051 182.367ZM144.746 182.031L147.03 181.282L148.827 186.611L147.925 188.681L145.772 189.34L146.296 187.271L144.746 182.031ZM137.691 178.204L144.149 185.55L144.642 185.387L144.267 184.558L143.746 182.385L144.399 182.167L137.691 178.204ZM158.004 178.456L164.462 185.802L164.955 185.639L164.576 184.811L164.055 182.638L164.709 182.42L158.004 178.456Z" fill="#414342"/>
</g>
<path d="M181.693 256.091C181.283 256.21 180.843 256.164 180.466 255.964C180.281 255.866 180.117 255.732 179.984 255.571C179.851 255.409 179.75 255.223 179.689 255.023L151.824 163.883C151.567 163.04 152.034 162.138 152.889 161.877L216.613 142.394C217.469 142.133 218.385 142.611 218.643 143.454L246.507 234.595C246.765 235.438 246.273 236.347 245.418 236.609L181.693 256.091Z" fill="url(#paint4_radial_930_3478)"/>
<path d="M216.364 145.179L243.653 234.435L181.941 253.302L154.653 164.046L216.364 145.179ZM215.804 139.928L152.13 159.395C149.866 160.088 148.626 162.419 149.308 164.65L177.172 255.791C177.855 258.022 180.212 259.253 182.451 258.569L246.175 239.086C248.439 238.394 249.697 236.03 249.022 233.824L221.158 142.684C220.476 140.452 218.094 139.229 215.855 139.913L215.804 139.928Z" fill="#C99EE8"/>
<path d="M216.587 142.4C217.443 142.139 218.359 142.617 218.617 143.46L246.481 234.601C246.739 235.444 246.247 236.353 245.392 236.615L181.693 256.089C181.283 256.208 180.843 256.163 180.466 255.963C180.091 255.763 179.811 255.425 179.688 255.021L151.824 163.881C151.566 163.038 152.033 162.136 152.888 161.875L216.613 142.392L216.587 142.4ZM215.855 139.913L152.13 159.395C149.866 160.088 148.626 162.419 149.308 164.65L177.172 255.791C177.855 258.022 180.212 259.253 182.451 258.569L246.175 239.086C248.439 238.394 249.697 236.03 249.022 233.824L221.158 142.684C220.476 140.452 218.094 139.229 215.855 139.913Z" fill="#414042"/>
<path d="M173.254 199.879C173.18 199.896 173.103 199.887 173.036 199.852C172.969 199.817 172.918 199.759 172.891 199.689L172.275 198.074C172.249 197.999 172.252 197.916 172.284 197.843L175.804 189.644C175.822 189.603 175.848 189.567 175.881 189.538C175.915 189.508 175.954 189.486 175.997 189.473C176.039 189.46 176.084 189.457 176.128 189.463C176.173 189.468 176.215 189.483 176.253 189.506L183.759 194.338C183.799 194.364 183.832 194.4 183.856 194.442C183.88 194.484 183.893 194.53 183.897 194.578L184.002 196.349C184.005 196.416 183.986 196.482 183.948 196.537C183.91 196.592 183.855 196.635 183.791 196.657L173.254 199.879Z" fill="#81635E"/>
<path d="M176.072 189.765L183.579 194.597L183.684 196.368L173.164 199.584L172.551 197.968L176.071 189.763L176.072 189.765ZM175.903 189.213C175.82 189.24 175.743 189.284 175.678 189.342C175.613 189.4 175.561 189.471 175.525 189.551L172.004 197.757C171.946 197.897 171.941 198.053 171.992 198.196L172.608 199.811C172.661 199.95 172.763 200.064 172.896 200.13C173.03 200.196 173.184 200.211 173.328 200.171L183.848 196.955C183.977 196.914 184.088 196.832 184.165 196.722C184.242 196.612 184.279 196.48 184.273 196.347L184.167 194.576C184.16 194.484 184.132 194.396 184.086 194.316C184.04 194.236 183.975 194.169 183.899 194.117L176.391 189.283C176.317 189.237 176.234 189.207 176.147 189.195C176.06 189.183 175.971 189.19 175.886 189.215L175.903 189.213Z" fill="#414342"/>
<path d="M189.922 188.329C189.847 188.35 189.766 188.343 189.696 188.309C189.627 188.275 189.573 188.216 189.545 188.144L188.932 186.528C188.907 186.458 188.908 186.381 188.935 186.311L192.457 178.099C192.475 178.058 192.502 178.022 192.536 177.992C192.57 177.962 192.609 177.941 192.652 177.928C192.695 177.915 192.74 177.911 192.784 177.916C192.829 177.922 192.871 177.937 192.909 177.961L200.413 182.795C200.453 182.822 200.486 182.856 200.51 182.897C200.534 182.938 200.548 182.983 200.552 183.03L200.657 184.801C200.66 184.867 200.641 184.933 200.603 184.988C200.565 185.043 200.51 185.086 200.447 185.109L189.922 188.329Z" fill="#81635E"/>
<path d="M192.738 178.208L200.242 183.043L200.348 184.814L189.83 188.03L189.215 186.415L192.735 178.209L192.738 178.208ZM192.567 177.659C192.483 177.686 192.405 177.73 192.339 177.789C192.274 177.848 192.222 177.92 192.187 178.001L188.677 186.191C188.617 186.332 188.613 186.49 188.665 186.634L189.278 188.249C189.332 188.39 189.439 188.505 189.575 188.57C189.712 188.635 189.869 188.647 190.014 188.602L200.535 185.385C200.663 185.344 200.774 185.263 200.851 185.153C200.928 185.044 200.966 184.913 200.96 184.78L200.854 183.009C200.848 182.917 200.821 182.828 200.775 182.748C200.728 182.669 200.663 182.601 200.586 182.55L193.071 177.722C192.998 177.674 192.915 177.643 192.828 177.63C192.741 177.617 192.652 177.625 192.567 177.65V177.659Z" fill="#414342"/>
<path d="M210.231 188.574C210.157 188.592 210.079 188.582 210.012 188.547C209.945 188.512 209.894 188.454 209.868 188.384L209.252 186.769C209.227 186.698 209.228 186.62 209.255 186.549L212.777 178.34C212.797 178.3 212.824 178.264 212.857 178.234C212.89 178.205 212.929 178.183 212.972 178.169C213.015 178.156 213.06 178.152 213.104 178.158C213.149 178.163 213.191 178.178 213.229 178.202L220.733 183.034C220.773 183.06 220.806 183.096 220.83 183.138C220.854 183.18 220.868 183.226 220.87 183.274L220.978 185.044C220.981 185.111 220.962 185.177 220.924 185.232C220.886 185.287 220.831 185.33 220.768 185.352L210.231 188.574Z" fill="#81635E"/>
<path d="M213.051 178.46L220.558 183.292L220.666 185.083L210.148 188.298L209.533 186.683L213.053 178.478L213.051 178.46ZM212.885 177.928C212.802 177.954 212.724 177.997 212.659 178.056C212.594 178.114 212.543 178.186 212.507 178.266L208.986 186.472C208.926 186.612 208.922 186.769 208.974 186.911L209.587 188.527C209.641 188.668 209.748 188.783 209.884 188.848C210.021 188.913 210.178 188.926 210.324 188.882L220.844 185.665C220.972 185.625 221.084 185.543 221.161 185.434C221.238 185.325 221.276 185.193 221.269 185.061L221.167 183.289C221.16 183.197 221.132 183.108 221.085 183.029C221.039 182.949 220.975 182.881 220.898 182.83L213.391 177.996C213.317 177.949 213.233 177.919 213.146 177.908C213.059 177.897 212.97 177.903 212.885 177.928Z" fill="#414342"/>
<g style="mix-blend-mode:darken" opacity="0.063">
<path d="M176.066 189.767L182.523 197.11L183.017 196.95L182.639 196.122L182.118 193.949L182.77 193.729L176.066 189.767Z" fill="#414342"/>
</g>
<path d="M202.511 188.173L190.225 191.929C190.069 191.977 189.981 192.139 190.028 192.293L193.643 204.115C193.689 204.268 193.854 204.354 194.009 204.306L206.295 200.55C206.45 200.503 206.539 200.34 206.492 200.186L202.877 188.364C202.83 188.211 202.666 188.125 202.511 188.173Z" fill="#CECECE"/>
<path d="M202.6 188.454L206.213 200.273L193.927 204.029L190.314 192.21L202.6 188.454ZM202.431 187.904L190.146 191.66C189.998 191.705 189.874 191.806 189.8 191.942C189.764 192.008 189.742 192.081 189.734 192.156C189.727 192.232 189.734 192.308 189.756 192.38L193.369 204.2C193.414 204.345 193.516 204.467 193.652 204.538C193.789 204.609 193.948 204.624 194.095 204.579L206.381 200.823C206.529 200.778 206.653 200.676 206.726 200.541C206.799 200.406 206.815 200.248 206.771 200.102L203.157 188.283C203.135 188.21 203.099 188.143 203.05 188.085C203.002 188.027 202.942 187.979 202.875 187.944C202.738 187.873 202.579 187.859 202.431 187.904Z" fill="#414342"/>
<path d="M194.713 223.902C194.639 223.925 194.559 223.917 194.491 223.882C194.423 223.847 194.372 223.785 194.35 223.712L187.488 203.512C187.475 203.475 187.471 203.437 187.474 203.398C187.477 203.359 187.487 203.322 187.505 203.287C187.523 203.252 187.548 203.221 187.578 203.196C187.608 203.171 187.644 203.151 187.682 203.14L190.998 202.126C191.072 202.103 191.152 202.111 191.22 202.146C191.288 202.181 191.34 202.243 191.362 202.316L192.118 204.789L194.87 203.948L194.114 201.474C194.092 201.401 194.1 201.322 194.136 201.255C194.172 201.188 194.235 201.137 194.309 201.114L197.628 200.099C197.701 200.077 197.781 200.084 197.85 200.119C197.918 200.155 197.969 200.216 197.991 200.289L198.747 202.763L201.5 201.921L200.744 199.447C200.732 199.411 200.728 199.373 200.732 199.335C200.736 199.297 200.747 199.261 200.766 199.228C200.802 199.16 200.865 199.11 200.939 199.087L204.258 198.072C204.331 198.05 204.411 198.057 204.479 198.093C204.547 198.129 204.598 198.189 204.62 198.262L205.377 200.736L208.13 199.894L207.373 197.42C207.351 197.347 207.359 197.269 207.396 197.201C207.433 197.133 207.495 197.083 207.569 197.06L210.898 196.042C210.936 196.03 210.976 196.026 211.016 196.03C211.094 196.038 211.166 196.078 211.216 196.139C211.24 196.17 211.257 196.204 211.267 196.242L216.868 216.834C216.89 216.907 216.882 216.986 216.845 217.053C216.808 217.12 216.747 217.172 216.673 217.194L194.713 223.902Z" fill="#CECECE"/>
<path d="M210.987 196.325L216.585 216.918L194.627 223.631L187.765 203.431L191.081 202.417L191.921 205.166L195.24 204.151L194.4 201.402L197.719 200.387L198.559 203.136L201.875 202.122L201.035 199.374L204.354 198.359L205.194 201.108L208.51 200.094L207.67 197.345L210.989 196.33L210.987 196.325ZM210.821 195.781L207.502 196.795C207.355 196.84 207.231 196.942 207.157 197.077C207.084 197.212 207.068 197.37 207.112 197.516L207.785 199.715L205.595 200.384L204.923 198.185C204.901 198.113 204.865 198.045 204.816 197.987C204.768 197.929 204.709 197.881 204.641 197.846C204.504 197.775 204.345 197.761 204.197 197.806L200.878 198.82C200.731 198.865 200.607 198.967 200.533 199.102C200.46 199.237 200.444 199.395 200.488 199.541L201.161 201.74L198.971 202.409L198.299 200.21C198.277 200.138 198.241 200.07 198.192 200.012C198.144 199.954 198.085 199.906 198.017 199.871C197.88 199.8 197.721 199.786 197.573 199.831L194.254 200.846C194.106 200.891 193.982 200.992 193.909 201.127C193.836 201.262 193.82 201.42 193.864 201.566L194.537 203.765L192.347 204.434L191.675 202.235C191.63 202.089 191.529 201.968 191.393 201.896C191.256 201.825 191.097 201.811 190.949 201.856L187.599 202.88C187.524 202.903 187.454 202.94 187.393 202.99C187.332 203.04 187.282 203.102 187.246 203.171C187.21 203.241 187.188 203.317 187.181 203.395C187.175 203.473 187.186 203.551 187.211 203.624L194.078 223.811C194.101 223.883 194.137 223.951 194.185 224.009C194.234 224.067 194.293 224.115 194.36 224.15C194.497 224.221 194.657 224.235 194.804 224.19L216.762 217.477C216.91 217.432 217.034 217.33 217.107 217.195C217.18 217.06 217.196 216.902 217.152 216.757L211.561 196.195L211.546 196.148C211.524 196.076 211.488 196.008 211.439 195.95C211.391 195.892 211.332 195.844 211.264 195.809C211.127 195.738 210.968 195.724 210.82 195.769L210.821 195.781Z" fill="#414342"/>
<path d="M179.751 228.483C179.712 228.495 179.67 228.499 179.629 228.494C179.587 228.49 179.548 228.476 179.513 228.455C179.478 228.434 179.447 228.406 179.424 228.372C179.401 228.338 179.385 228.3 179.378 228.26L173.15 204.118L171.716 203.038C171.667 203 171.631 202.949 171.612 202.89L170.978 200.815L170.083 197.887C170.061 197.814 170.069 197.735 170.105 197.668C170.141 197.601 170.204 197.55 170.278 197.527L173.268 196.613C173.342 196.59 173.422 196.598 173.49 196.633C173.557 196.669 173.608 196.73 173.631 196.803L174.437 199.441L176.867 198.699L176.06 196.06C176.038 195.987 176.046 195.908 176.082 195.841C176.118 195.774 176.181 195.722 176.255 195.7L179.248 194.785C179.285 194.773 179.324 194.769 179.363 194.773C179.401 194.776 179.439 194.787 179.474 194.806C179.507 194.824 179.537 194.848 179.561 194.877C179.585 194.906 179.603 194.94 179.614 194.976L180.421 197.615L182.853 196.871L182.046 194.233C182.024 194.159 182.031 194.08 182.068 194.013C182.105 193.946 182.167 193.895 182.241 193.873L185.253 192.952C185.289 192.94 185.327 192.936 185.366 192.94C185.404 192.943 185.441 192.954 185.475 192.972C185.543 193.007 185.594 193.068 185.616 193.141L187.143 198.136C187.16 198.195 187.159 198.259 187.138 198.318L186.557 200.019L194.905 223.525C194.92 223.562 194.927 223.602 194.925 223.641C194.923 223.68 194.913 223.72 194.896 223.756C194.879 223.792 194.853 223.824 194.822 223.85C194.791 223.876 194.755 223.895 194.717 223.907L179.751 228.483Z" fill="#CECECE"/>
<path d="M170.37 197.797L173.36 196.883L174.252 199.8L177.247 198.884L176.356 195.967L179.348 195.052L180.24 197.969L183.235 197.053L182.345 194.142L185.335 193.228L186.228 196.15L186.862 198.222L186.242 200.014L194.628 223.623L179.662 228.198L173.414 203.942L171.898 202.803L171.262 200.725L170.367 197.798L170.37 197.797ZM170.199 197.248C170.052 197.294 169.928 197.395 169.854 197.53C169.818 197.597 169.796 197.67 169.788 197.745C169.78 197.821 169.788 197.897 169.81 197.969L170.705 200.896L171.339 202.971C171.376 203.089 171.449 203.193 171.549 203.268L172.903 204.285L179.1 228.346C179.119 228.422 179.153 228.493 179.2 228.555C179.248 228.617 179.307 228.669 179.375 228.707C179.446 228.747 179.524 228.772 179.606 228.78C179.688 228.789 179.77 228.782 179.848 228.758L194.8 224.186C194.957 224.136 195.088 224.026 195.164 223.88C195.199 223.81 195.219 223.734 195.224 223.656C195.228 223.578 195.217 223.5 195.19 223.427L186.873 200.013L187.426 198.411C187.468 198.295 187.471 198.168 187.435 198.05L185.907 193.053C185.862 192.907 185.761 192.786 185.625 192.714C185.488 192.643 185.329 192.629 185.181 192.674L182.177 193.592C182.03 193.638 181.906 193.739 181.832 193.874C181.759 194.009 181.743 194.167 181.787 194.313L182.508 196.671L180.643 197.241L179.922 194.886C179.9 194.813 179.862 194.744 179.813 194.685C179.764 194.626 179.703 194.577 179.634 194.541C179.566 194.505 179.491 194.483 179.414 194.477C179.337 194.471 179.26 194.478 179.186 194.501L176.187 195.418C176.04 195.463 175.916 195.564 175.842 195.699C175.806 195.766 175.784 195.839 175.776 195.914C175.768 195.99 175.776 196.066 175.798 196.138L176.519 198.496L174.653 199.067L173.933 196.711C173.911 196.639 173.874 196.572 173.826 196.513C173.777 196.455 173.718 196.407 173.65 196.372C173.514 196.301 173.355 196.287 173.207 196.332L170.22 197.245L170.199 197.248Z" fill="#414342"/>
<path d="M216.679 217.187C216.638 217.199 216.596 217.202 216.554 217.197C216.512 217.192 216.472 217.179 216.435 217.159C216.4 217.139 216.369 217.111 216.345 217.078C216.322 217.045 216.305 217.007 216.297 216.967L210.079 192.828L208.642 191.749L208.635 191.724C208.596 191.69 208.568 191.645 208.553 191.596L207.919 189.524L207.024 186.596C207.002 186.523 207.01 186.444 207.047 186.377C207.065 186.344 207.089 186.314 207.119 186.29C207.148 186.266 207.182 186.247 207.219 186.236L210.209 185.322C210.283 185.299 210.363 185.307 210.431 185.342C210.499 185.377 210.55 185.439 210.572 185.512L211.378 188.148L213.81 187.404L213.004 184.768C212.982 184.695 212.99 184.616 213.026 184.549C213.062 184.482 213.125 184.431 213.199 184.408L216.211 183.487C216.248 183.475 216.287 183.471 216.326 183.475C216.365 183.478 216.403 183.49 216.437 183.508C216.471 183.526 216.5 183.55 216.525 183.579C216.549 183.609 216.567 183.642 216.578 183.678L217.384 186.314L219.813 185.572L219.007 182.936C218.985 182.863 218.993 182.784 219.029 182.716C219.066 182.649 219.128 182.598 219.202 182.576L222.192 181.662C222.229 181.65 222.268 181.646 222.307 181.649C222.346 181.652 222.383 181.664 222.418 181.683C222.453 181.702 222.481 181.725 222.505 181.754C222.529 181.783 222.547 181.817 222.558 181.853L224.085 186.847C224.1 186.896 224.102 186.948 224.092 186.999L224.083 187.028L223.483 188.73L231.835 212.237C231.85 212.274 231.857 212.314 231.855 212.354C231.853 212.394 231.844 212.433 231.826 212.469C231.808 212.505 231.783 212.537 231.753 212.562C231.722 212.588 231.686 212.608 231.647 212.62L216.679 217.187Z" fill="#CECECE"/>
<path d="M207.301 186.503L210.288 185.59L211.18 188.506L214.173 187.592L213.283 184.681L216.295 183.76L217.186 186.676L220.179 185.761L219.287 182.845L222.277 181.931L223.804 186.925L223.184 188.717L231.567 212.317L216.59 216.896L210.346 192.642L208.833 191.502L208.199 189.43L207.304 186.503H207.301ZM207.133 185.954C206.985 185.999 206.861 186.1 206.788 186.235C206.715 186.37 206.699 186.528 206.743 186.674L207.638 189.601L208.273 191.676C208.31 191.794 208.384 191.898 208.483 191.973L209.834 192.991L216.031 217.052C216.049 217.129 216.083 217.201 216.13 217.264C216.178 217.326 216.238 217.379 216.307 217.418C216.376 217.457 216.453 217.482 216.532 217.49C216.612 217.498 216.692 217.49 216.768 217.467L231.723 212.895C231.799 212.872 231.87 212.833 231.931 212.782C231.992 212.731 232.042 212.668 232.077 212.597C232.113 212.526 232.133 212.449 232.138 212.37C232.142 212.291 232.129 212.213 232.102 212.139L223.784 188.725L224.337 187.123C224.378 187.006 224.38 186.88 224.343 186.763L223.71 184.691L222.825 181.796L222.816 181.769C222.794 181.696 222.758 181.629 222.709 181.571C222.661 181.512 222.601 181.465 222.534 181.43C222.398 181.359 222.239 181.344 222.091 181.39L219.109 182.301C218.961 182.346 218.837 182.448 218.764 182.583C218.691 182.718 218.675 182.876 218.719 183.022L219.44 185.38L217.575 185.95L216.853 183.592C216.831 183.519 216.795 183.452 216.746 183.394C216.698 183.335 216.638 183.288 216.571 183.253C216.435 183.182 216.276 183.168 216.128 183.213L213.118 184.133C212.97 184.178 212.846 184.279 212.773 184.414C212.7 184.549 212.684 184.707 212.728 184.853L213.45 187.211L211.584 187.782L210.863 185.424C210.841 185.351 210.804 185.284 210.756 185.226C210.707 185.167 210.647 185.119 210.58 185.085C210.443 185.014 210.284 184.999 210.137 185.044L207.147 185.958L207.133 185.954Z" fill="#414342"/>
<path d="M186.736 200.138L173.332 204.236M210.254 192.994L223.323 188.998" stroke="#414342" stroke-width="0.5" stroke-miterlimit="10"/>
<path d="M181.405 207.232C181.028 207.368 180.719 207.643 180.543 207.999C180.367 208.353 180.338 208.762 180.462 209.137L181.427 212.293L184.263 211.426L183.287 208.232C183.233 208.042 183.141 207.865 183.017 207.712C182.892 207.558 182.737 207.431 182.562 207.338C182.387 207.245 182.194 207.188 181.995 207.169C181.796 207.151 181.596 207.173 181.405 207.232Z" fill="#595959" stroke="#414342" stroke-width="0.5" stroke-linejoin="round"/>
<path d="M218.33 195.944C217.954 196.08 217.646 196.355 217.47 196.71C217.294 197.065 217.264 197.475 217.388 197.849L218.353 201.004L221.192 200.136L220.216 196.942C220.161 196.752 220.068 196.576 219.943 196.422C219.818 196.269 219.664 196.142 219.489 196.049C219.313 195.956 219.12 195.899 218.921 195.881C218.722 195.863 218.521 195.885 218.33 195.944Z" fill="#595959" stroke="#414342" stroke-width="0.5" stroke-linejoin="round"/>
<path d="M197.137 192.919C196.805 193.04 196.532 193.283 196.376 193.598C196.221 193.911 196.195 194.273 196.305 194.605L197.153 197.381L199.664 196.613L198.801 193.791C198.752 193.624 198.67 193.469 198.559 193.335C198.448 193.2 198.311 193.089 198.157 193.008C198.002 192.927 197.832 192.878 197.657 192.862C197.482 192.846 197.305 192.866 197.137 192.919Z" fill="#595959" stroke="#414342" stroke-width="0.5" stroke-linejoin="round"/>
<g style="mix-blend-mode:darken" opacity="0.063">
<path d="M178.891 226.367L179.427 228.508L195.065 223.727L186.64 200.22L184.34 200.876L191.35 221.999C191.372 222.065 191.38 222.134 191.375 222.204C191.369 222.273 191.349 222.341 191.317 222.403C191.285 222.465 191.24 222.52 191.186 222.565C191.131 222.61 191.068 222.644 191.001 222.664L178.891 226.367Z" fill="#414342"/>
</g>
<g style="mix-blend-mode:darken" opacity="0.063">
<path d="M215.776 215.088L216.312 217.229L231.95 212.448L223.525 188.942L221.225 189.597L228.259 210.791C228.278 210.847 228.285 210.907 228.281 210.967C228.277 211.027 228.259 211.085 228.231 211.139C228.203 211.193 228.164 211.24 228.117 211.278C228.071 211.317 228.017 211.346 227.959 211.363L215.776 215.088Z" fill="#414342"/>
</g>
<g style="mix-blend-mode:darken" opacity="0.063">
<path d="M206.528 200.372L205.372 200.732L204.488 197.949L203.671 198.198L200.965 189.348L202.979 188.732L206.528 200.372Z" fill="#414342"/>
</g>
<g style="mix-blend-mode:darken" opacity="0.063">
<path d="M208.264 196.867L213.193 215.365C213.225 215.493 213.206 215.629 213.141 215.743C213.075 215.858 212.967 215.945 212.84 215.984L194.223 221.676L194.88 223.825L216.532 217.206L215.874 215.056L215.766 215.09L210.896 196.029L208.264 196.867Z" fill="#414342"/>
</g>
<path d="M202.179 221.626L202.095 221.352L199.759 213.71C199.117 211.61 200.132 209.406 202.022 208.793L202.077 208.776C204.007 208.186 206.093 209.381 206.723 211.443L209.183 219.488L208.89 219.578L202.179 221.626Z" fill="#595959"/>
<path d="M202.15 209.043C203.929 208.499 205.842 209.609 206.427 211.519L208.801 219.287L202.387 221.248L200.05 213.607C199.462 211.683 200.357 209.624 202.126 209.065L202.176 209.05L202.15 209.043ZM202.008 208.5L201.947 208.519C199.905 209.182 198.802 211.548 199.49 213.799L201.826 221.44C201.872 221.591 201.977 221.716 202.117 221.789C202.258 221.863 202.422 221.878 202.574 221.831L208.989 219.87C209.141 219.823 209.269 219.719 209.344 219.58C209.419 219.441 209.436 219.278 209.39 219.128L207.009 211.341C206.332 209.126 204.083 207.845 201.997 208.482L202.008 208.5Z" fill="#414342"/>
<g style="mix-blend-mode:darken" opacity="0.063">
<path d="M200.039 182.988L202.318 182.062L203.876 186.66L202.976 188.732L200.822 189.391L201.345 187.319L200.039 182.988ZM183.168 193.661L185.449 192.912L187.245 198.24L186.345 200.312L184.194 200.969L184.715 198.901L183.168 193.661Z" fill="#414342"/>
</g>
<path d="M190.117 192.654C190.072 192.668 190.025 192.671 189.979 192.663C189.933 192.655 189.89 192.637 189.853 192.609L188.337 191.47C188.288 191.432 188.252 191.38 188.234 191.321L187.599 189.246L186.704 186.319C186.682 186.245 186.69 186.166 186.726 186.099C186.763 186.032 186.825 185.981 186.899 185.959L189.886 185.045C189.96 185.023 190.04 185.03 190.108 185.066C190.176 185.102 190.227 185.162 190.249 185.235L191.055 187.871L193.484 187.128L192.681 184.501C192.658 184.428 192.667 184.349 192.703 184.281C192.74 184.213 192.802 184.163 192.876 184.14L195.868 183.226C195.904 183.214 195.943 183.21 195.981 183.214C196.019 183.217 196.056 183.228 196.09 183.246C196.158 183.281 196.209 183.342 196.231 183.415L197.037 186.051L199.469 185.308L198.663 182.672C198.641 182.599 198.649 182.52 198.686 182.452C198.723 182.384 198.784 182.334 198.858 182.311L201.851 181.396C201.887 181.385 201.926 181.381 201.964 181.384C202.002 181.387 202.039 181.398 202.073 181.416C202.108 181.433 202.138 181.458 202.163 181.487C202.188 181.516 202.206 181.551 202.217 181.588L203.744 186.582C203.759 186.631 203.76 186.684 203.748 186.734L203.739 186.764L203.121 188.555C203.106 188.599 203.081 188.639 203.046 188.672C203.011 188.705 202.971 188.728 202.925 188.741L190.117 192.654Z" fill="#CECECE"/>
<path d="M186.996 186.234L189.985 185.32L190.876 188.233L193.869 187.318L192.978 184.405L195.971 183.49L196.861 186.403L199.857 185.488L198.968 182.58L201.96 181.665L202.853 184.584L203.487 186.659L202.867 188.451L190.037 192.373L188.521 191.235L187.887 189.159L186.993 186.235L186.996 186.234ZM186.821 185.671C186.673 185.716 186.549 185.817 186.475 185.953C186.439 186.019 186.417 186.093 186.409 186.168C186.402 186.243 186.409 186.319 186.431 186.392L187.326 189.319L187.96 191.394C187.998 191.511 188.071 191.614 188.169 191.688L189.682 192.827C189.757 192.883 189.844 192.921 189.936 192.937C190.029 192.952 190.124 192.946 190.213 192.917L203.043 188.995C203.133 188.968 203.215 188.921 203.283 188.856C203.351 188.791 203.402 188.712 203.432 188.623L204.05 186.833C204.091 186.716 204.094 186.59 204.059 186.472L202.535 181.489C202.513 181.417 202.477 181.349 202.428 181.291C202.38 181.233 202.32 181.185 202.253 181.15C202.116 181.079 201.957 181.065 201.809 181.11L198.803 182.029C198.655 182.074 198.531 182.175 198.457 182.311C198.421 182.377 198.399 182.45 198.391 182.525C198.384 182.601 198.391 182.677 198.413 182.749L199.134 185.108L197.268 185.678L196.547 183.32C196.525 183.248 196.489 183.18 196.44 183.122C196.392 183.064 196.332 183.016 196.265 182.981C196.129 182.91 195.969 182.895 195.821 182.941L192.814 183.86C192.667 183.905 192.543 184.006 192.469 184.141C192.433 184.207 192.411 184.281 192.403 184.356C192.396 184.431 192.403 184.507 192.425 184.58L193.146 186.938L191.28 187.509L190.559 185.15C190.514 185.005 190.413 184.883 190.277 184.812C190.14 184.741 189.981 184.726 189.833 184.771L186.846 185.685L186.821 185.671Z" fill="#414342"/>
<g style="mix-blend-mode:darken" opacity="0.063">
<path d="M220.094 182.367L222.375 181.618L224.175 186.944L223.274 189.017L221.121 189.675L221.642 187.607L220.094 182.367ZM199.789 182.031L202.073 181.282L203.87 186.611L202.968 188.681L200.815 189.34L201.339 187.271L199.789 182.031ZM192.734 178.204L199.192 185.55L199.685 185.387L199.31 184.558L198.789 182.385L199.442 182.167L192.734 178.204ZM213.047 178.456L219.505 185.802L219.998 185.639L219.619 184.811L219.098 182.638L219.752 182.42L213.047 178.456Z" fill="#414342"/>
</g>
<path d="M265.594 20V380H20.0942V20H265.594ZM269.425 0H16.2642C7.33324 0 0.0942383 7.239 0.0942383 16.169V383.83C0.0942383 392.761 7.33324 400 16.2642 400H269.425C278.355 400 285.594 392.761 285.594 383.83V16.169C285.594 7.239 278.354 0 269.425 0Z" fill="#CDEBFF"/>
<path d="M269.425 10C271.061 10.0021 272.629 10.6527 273.785 11.8092C274.941 12.9656 275.592 14.5335 275.594 16.169V383.83C275.592 385.466 274.942 387.034 273.785 388.19C272.629 389.347 271.061 389.998 269.425 390H16.2642C14.6284 389.998 13.0601 389.348 11.9034 388.191C10.7467 387.034 10.0961 385.466 10.0942 383.83V16.169C10.0964 14.5334 10.7471 12.9653 11.9038 11.8088C13.0605 10.6524 14.6286 10.0019 16.2642 10H269.425ZM269.425 0H16.2642C7.33324 0 0.0942383 7.239 0.0942383 16.169V383.83C0.0942383 392.761 7.33324 400 16.2642 400H269.425C278.355 400 285.594 392.761 285.594 383.83V16.169C285.594 7.239 278.354 0 269.425 0Z" fill="#414042"/>
</g>
<defs>
<radialGradient id="paint0_radial_930_3478" cx="0" cy="0" r="1" gradientUnits="userSpaceOnUse" gradientTransform="translate(142.844 200) scale(177.165 177.499)">
<stop stop-color="#A4C7DC"/>
<stop offset="0.495209" stop-color="#85AEC0"/>
<stop offset="1" stop-color="#6696A4"/>
</radialGradient>
<linearGradient id="paint1_linear_930_3478" x1="87.7772" y1="282.523" x2="135.031" y2="345.866" gradientUnits="userSpaceOnUse">
<stop stop-color="#55EC36"/>
<stop offset="0.195" stop-color="#45D727"/>
<stop offset="0.419" stop-color="#39C71C"/>
<stop offset="0.671" stop-color="#32BD15"/>
<stop offset="1" stop-color="#30BA13"/>
</linearGradient>
<radialGradient id="paint2_radial_930_3478" cx="0" cy="0" r="1" gradientUnits="userSpaceOnUse" gradientTransform="translate(87.0831 199.239) rotate(90) scale(49.0963 60.3783)">
<stop stop-color="#C889BA"/>
<stop offset="0.207" stop-color="#BF83BA"/>
<stop offset="0.544" stop-color="#A774BA"/>
<stop offset="0.967" stop-color="#7F5CBA"/>
<stop offset="1" stop-color="#7C5ABA"/>
</radialGradient>
<radialGradient id="paint3_radial_930_3478" cx="0" cy="0" r="1" gradientUnits="userSpaceOnUse" gradientTransform="translate(144.122 199.239) rotate(90) scale(49.0963 60.3783)">
<stop stop-color="#C889BA"/>
<stop offset="0.207" stop-color="#BF83BA"/>
<stop offset="0.544" stop-color="#A774BA"/>
<stop offset="0.967" stop-color="#7F5CBA"/>
<stop offset="1" stop-color="#7C5ABA"/>
</radialGradient>
<radialGradient id="paint4_radial_930_3478" cx="0" cy="0" r="1" gradientUnits="userSpaceOnUse" gradientTransform="translate(199.165 199.239) rotate(90) scale(49.0963 60.378)">
<stop stop-color="#C889BA"/>
<stop offset="0.207" stop-color="#BF83BA"/>
<stop offset="0.544" stop-color="#A774BA"/>
<stop offset="0.967" stop-color="#7F5CBA"/>
<stop offset="1" stop-color="#7C5ABA"/>
</radialGradient>
<clipPath id="clip0_930_3478">
<rect width="291.969" height="406.205" fill="white"/>
</clipPath>
</defs>
</svg>
