<svg xmlns="http://www.w3.org/2000/svg" width="292" height="407" fill="none" viewBox="0 0 292 407"><g clip-path="url(#clip0_930_3056)"><path fill="url(#paint0_radial_930_3056)" d="M16.2642 390C14.6284 389.998 13.0601 389.348 11.9034 388.191C10.7467 387.034 10.0961 385.466 10.0942 383.83V16.169C10.0964 14.5334 10.7471 12.9653 11.9038 11.8088C13.0605 10.6524 14.6286 10.0019 16.2642 10H269.425C271.061 10.0021 272.629 10.6527 273.785 11.8092C274.941 12.9656 275.592 14.5335 275.594 16.169V383.83C275.592 385.466 274.942 387.034 273.785 388.19C272.629 389.347 271.061 389.998 269.425 390H16.2642Z"/><path fill="#E1EF74" d="M265.594 20V380H20.0942V20H265.594ZM269.425 0H16.2642C7.33324 0 0.0942383 7.239 0.0942383 16.169V383.83C0.0942383 392.761 7.33324 400 16.2642 400H269.425C278.355 400 285.594 392.761 285.594 383.83V16.169C285.594 7.239 278.354 0 269.425 0Z"/><path fill="#414042" d="M269.425 10C271.061 10.0021 272.629 10.6527 273.785 11.8092C274.941 12.9656 275.592 14.5335 275.594 16.169V383.83C275.592 385.466 274.942 387.034 273.785 388.19C272.629 389.347 271.061 389.998 269.425 390H16.2642C14.6284 389.998 13.0601 389.348 11.9034 388.191C10.7467 387.034 10.0961 385.466 10.0942 383.83V16.169C10.0964 14.5334 10.7471 12.9653 11.9038 11.8088C13.0605 10.6524 14.6286 10.0019 16.2642 10H269.425ZM269.425 0H16.2642C7.33324 0 0.0942383 7.239 0.0942383 16.169V383.83C0.0942383 392.761 7.33324 400 16.2642 400H269.425C278.355 400 285.594 392.761 285.594 383.83V16.169C285.594 7.239 278.354 0 269.425 0Z"/><path fill="#81635E" d="M51.6211 174.643C51.3435 174.628 51.0811 174.511 50.8841 174.315C50.687 174.119 50.5692 173.857 50.5531 173.58L50.1271 167.175C50.1142 166.877 50.2126 166.585 50.4031 166.357L71.5041 141.048C71.7191 140.805 72.0291 140.659 72.3581 140.659C72.6891 140.659 73.0041 140.805 73.2221 141.048L94.3341 166.373C94.5581 166.655 94.6411 167.022 94.5581 167.374L93.0321 173.78C92.9722 174.02 92.8354 174.234 92.6427 174.39C92.4499 174.545 92.2117 174.634 91.9641 174.642H51.6211V174.643ZM122.343 151.719C122.057 151.712 121.783 151.598 121.576 151.401C121.368 151.203 121.242 150.935 121.221 150.65L120.805 144.245C120.792 143.969 120.879 143.697 121.051 143.481L142.173 118.125C142.372 117.897 142.653 117.757 142.955 117.735C143.256 117.714 143.554 117.813 143.783 118.011C143.826 118.041 143.865 118.087 143.902 118.125L165.003 143.457C165.225 143.732 165.313 144.092 165.24 144.436L163.711 150.848C163.581 151.337 163.149 151.681 162.641 151.712L122.343 151.719ZM193.193 174.643C192.916 174.627 192.654 174.511 192.457 174.314C192.261 174.118 192.143 173.857 192.127 173.58L191.699 167.175C191.687 166.894 191.775 166.618 191.947 166.396L213.067 141.048C213.289 140.805 213.601 140.659 213.931 140.659C214.263 140.659 214.58 140.805 214.794 141.048L235.898 166.373C236.125 166.648 236.209 167.022 236.121 167.374L234.607 173.78C234.477 174.276 234.042 174.628 233.537 174.642H193.193V174.643Z"/><path fill="#715B57" d="M143.027 118.797L157.772 151.911L159.676 151.872L159.247 148.517L159.752 140.23L162.271 140.17L143.027 118.797ZM213.878 141.76L228.623 174.873L230.525 174.827L230.09 171.479L230.591 163.185L233.109 163.125L213.878 141.76ZM72.2935 141.775L87.0395 174.88L88.9415 174.85L88.5045 171.494L89.0045 163.208L91.5255 163.132L72.2935 141.775Z"/><path fill="#414343" d="M213.889 141.774L234.997 167.097L233.461 173.578H193.193L192.765 167.173L213.877 141.842M213.878 139.702C213.556 139.707 213.239 139.78 212.947 139.917C212.656 140.054 212.397 140.252 212.188 140.497L191.08 165.829C190.72 166.261 190.538 166.813 190.568 167.373L190.984 173.779C191.022 174.338 191.27 174.861 191.679 175.244C192.087 175.627 192.625 175.841 193.185 175.842H233.46C233.954 175.839 234.432 175.671 234.819 175.365C235.206 175.059 235.48 174.633 235.597 174.153L237.137 167.748C237.21 167.415 237.207 167.07 237.129 166.738C237.051 166.406 236.9 166.096 236.687 165.829L215.574 140.497C215.364 140.252 215.105 140.054 214.812 139.917C214.52 139.78 214.201 139.707 213.878 139.702ZM72.3143 141.774L93.4253 167.097L91.8993 173.502H51.6213L51.2043 167.097L72.3143 141.765M72.3143 139.633C71.6643 139.633 71.0463 139.924 70.6283 140.421L49.5163 165.752C49.1613 166.187 48.979 166.737 49.0043 167.297L49.4293 173.701C49.4633 174.25 49.7017 174.766 50.0974 175.148C50.4931 175.53 51.0175 175.75 51.5673 175.764H91.8453C92.3387 175.758 92.816 175.588 93.2023 175.281C93.5887 174.974 93.8623 174.548 93.9803 174.068L95.5093 167.663C95.5813 167.329 95.5784 166.983 95.5008 166.65C95.4231 166.317 95.2727 166.005 95.0603 165.737L73.9483 140.413C73.7382 140.168 73.4783 139.97 73.1859 139.833C72.8935 139.696 72.5752 139.623 72.2523 139.618L72.3143 139.633ZM143.039 118.82L164.139 144.151L162.611 150.556H122.343L121.917 144.151L143.027 118.82M143.027 116.687C142.371 116.687 141.75 116.985 141.33 117.481L120.271 142.767C119.91 143.204 119.727 143.761 119.759 144.327L120.175 150.739C120.214 151.296 120.462 151.818 120.87 152.198C121.279 152.578 121.816 152.789 122.374 152.788H162.655C163.147 152.781 163.623 152.611 164.008 152.306C164.394 152 164.668 151.576 164.788 151.099L166.317 144.694C166.395 144.36 166.394 144.013 166.316 143.679C166.238 143.345 166.084 143.033 165.866 142.768L144.725 117.451C144.519 117.203 144.261 117.003 143.969 116.865C143.678 116.726 143.36 116.653 143.037 116.649L143.027 116.687Z"/><path fill="#CECECE" d="M119.557 164.844H166.593C167.19 164.844 167.67 165.325 167.67 165.921V211.85C167.67 212.446 167.19 212.927 166.593 212.927H119.557C118.961 212.927 118.477 212.446 118.477 211.85V165.921C118.477 165.325 118.961 164.844 119.557 164.844Z"/><path fill="#414342" d="M166.604 165.93V211.85H119.566V165.93H166.604ZM166.604 163.797H119.566C119.286 163.797 119.008 163.852 118.749 163.959C118.49 164.066 118.255 164.223 118.057 164.421C117.859 164.619 117.701 164.854 117.594 165.113C117.487 165.372 117.431 165.65 117.431 165.93V211.85C117.431 213.027 118.387 213.983 119.566 213.983H166.604C166.884 213.983 167.162 213.928 167.421 213.821C167.68 213.714 167.916 213.557 168.114 213.359C168.312 213.161 168.47 212.926 168.577 212.667C168.685 212.408 168.74 212.13 168.74 211.85V165.93C168.74 165.65 168.685 165.372 168.577 165.113C168.47 164.854 168.312 164.619 168.114 164.421C167.916 164.223 167.68 164.066 167.421 163.959C167.162 163.852 166.884 163.797 166.604 163.797Z"/><path fill="#CECECE" d="M101.051 283.311C100.768 283.311 100.496 283.198 100.296 282.997C100.096 282.797 99.9835 282.525 99.9835 282.241L97.5815 203.021C97.5755 202.876 97.599 202.732 97.6507 202.597C97.7023 202.461 97.7809 202.338 97.8817 202.234C97.9826 202.13 98.1035 202.047 98.2372 201.992C98.3709 201.936 98.5146 201.908 98.6595 201.909H111.356C111.946 201.909 112.423 202.383 112.423 202.975V212.583H122.962V202.975C122.962 202.382 123.44 201.909 124.03 201.909H136.738C137.326 201.909 137.806 202.383 137.806 202.975V212.583H148.347V202.975C148.347 202.382 148.821 201.909 149.413 201.909H162.12C162.709 201.909 163.186 202.383 163.186 202.975V212.583H173.727V202.975C173.727 202.382 174.206 201.909 174.793 201.909H187.543C187.688 201.908 187.832 201.936 187.966 201.991C188.099 202.047 188.22 202.129 188.321 202.234C188.422 202.338 188.501 202.461 188.552 202.597C188.603 202.732 188.627 202.877 188.62 203.021L186.189 282.263C186.189 282.852 185.709 283.333 185.119 283.333L101.051 283.311Z"/><path fill="#ABACAB" d="M177.432 201.984L174.895 273.059C174.87 273.547 174.658 274.007 174.304 274.344C173.95 274.681 173.48 274.87 172.991 274.871H101.713V283.226H184.61V274.871H184.194L187.546 201.862L177.432 201.984Z"/><path fill="#CECECE" d="M43.7504 283.334C43.5987 283.334 43.4487 283.302 43.3104 283.239C43.172 283.177 43.0484 283.087 42.9476 282.973C42.8469 282.86 42.7714 282.726 42.726 282.582C42.6806 282.437 42.6664 282.284 42.6844 282.134L46.7194 189.593L42.8544 184.205C42.7243 184.016 42.6536 183.792 42.6514 183.563V164.124C42.6514 163.535 43.1304 163.062 43.7194 163.062H55.1664C55.7564 163.062 56.2344 163.535 56.2344 164.124V174.374H65.5344V164.124C65.5344 163.535 66.0124 163.062 66.6024 163.062H78.0604C78.2036 163.06 78.3457 163.087 78.478 163.142C78.6102 163.197 78.7298 163.279 78.8294 163.382C79.0294 163.581 79.1414 163.856 79.1394 164.138V174.389H88.4504V164.14C88.4506 163.856 88.5633 163.584 88.7638 163.384C88.9642 163.184 89.2359 163.071 89.5194 163.071H101.051C101.64 163.071 102.117 163.552 102.117 164.14V183.54C102.117 183.77 102.043 184 101.905 184.183L98.0494 189.594L102.117 282.18C102.129 282.319 102.113 282.46 102.07 282.593C102.027 282.727 101.958 282.85 101.867 282.957C101.776 283.063 101.664 283.151 101.539 283.214C101.414 283.277 101.278 283.315 101.138 283.326C101.11 283.326 101.079 283.334 101.05 283.334H43.7504Z"/><path fill="#ABACAB" d="M166.593 212.926L163.168 212.567L163.051 201.717H159.92V167.327L166.566 167.423L166.593 212.926Z"/><path fill="#414342" d="M187.545 203.005L185.099 282.249H101.029L98.6275 203.028H111.323V213.707H124.031V203.028H136.739V213.707H149.434V203.028H162.145V213.707H174.84V203.028H187.545M187.545 200.892H174.84C173.656 200.892 172.7 201.847 172.7 203.029V211.575H164.318V203.029C164.319 202.748 164.264 202.47 164.156 202.211C164.049 201.951 163.892 201.716 163.693 201.517C163.495 201.319 163.26 201.161 163 201.054C162.741 200.947 162.463 200.891 162.182 200.892H149.478C149.198 200.891 148.92 200.946 148.66 201.054C148.401 201.161 148.165 201.318 147.967 201.517C147.768 201.715 147.611 201.951 147.504 202.21C147.396 202.47 147.341 202.748 147.341 203.029V211.575H138.958V203.029C138.959 202.748 138.904 202.47 138.796 202.21C138.689 201.951 138.532 201.715 138.333 201.517C138.135 201.318 137.899 201.161 137.64 201.054C137.38 200.946 137.102 200.891 136.821 200.892H124.115C123.835 200.891 123.557 200.947 123.298 201.054C123.038 201.161 122.803 201.319 122.604 201.517C122.406 201.716 122.249 201.951 122.142 202.211C122.034 202.47 121.979 202.748 121.979 203.029V211.575H113.597V203.029C113.597 202.462 113.372 201.918 112.972 201.517C112.571 201.117 112.027 200.892 111.46 200.892H98.6385C98.0555 200.892 97.4955 201.129 97.0885 201.542C96.6805 201.962 96.4595 202.531 96.4815 203.112L98.9155 282.295C98.9155 283.472 99.8715 284.427 101.052 284.427H185.122C185.688 284.427 186.23 284.202 186.63 283.802C187.03 283.402 187.255 282.86 187.255 282.295L189.693 203.166V202.99C189.694 202.709 189.638 202.431 189.531 202.172C189.424 201.913 189.267 201.677 189.068 201.479C188.87 201.28 188.634 201.123 188.375 201.015C188.116 200.908 187.838 200.853 187.557 200.853L187.545 200.892Z"/><path fill="#CECECE" d="M185.145 283.311C184.99 283.308 184.837 283.274 184.695 283.211C184.554 283.147 184.426 283.056 184.32 282.943C184.218 282.832 184.14 282.701 184.093 282.557C184.045 282.414 184.029 282.262 184.045 282.111L188.11 189.593L184.235 184.205V184.105C184.137 183.942 184.085 183.754 184.087 183.563V164.139C184.087 163.856 184.2 163.585 184.399 163.385C184.599 163.184 184.87 163.071 185.153 163.07H196.603C197.192 163.07 197.669 163.551 197.669 164.139V174.374H206.979V164.139C206.979 163.856 207.092 163.585 207.291 163.385C207.491 163.184 207.762 163.071 208.045 163.07H219.58C219.87 163.07 220.144 163.184 220.351 163.391C220.55 163.589 220.661 163.865 220.657 164.148V174.39H229.961V164.148C229.961 163.56 230.438 163.078 231.03 163.078H242.472C242.615 163.078 242.756 163.106 242.887 163.16C243.019 163.215 243.138 163.295 243.238 163.396C243.339 163.497 243.418 163.617 243.471 163.749C243.525 163.881 243.552 164.022 243.55 164.164V183.564C243.55 183.753 243.504 183.938 243.412 184.106L243.35 184.206L239.429 189.594L243.511 282.188C243.532 282.471 243.441 282.75 243.258 282.966C243.075 283.182 242.814 283.318 242.532 283.343H242.44L185.145 283.311Z"/><path fill="#595959" stroke="#414342" stroke-linejoin="round" stroke-width="2" d="M72.2931 209.624C70.8299 209.698 69.4533 210.34 68.4562 211.414C67.4591 212.487 66.9202 213.908 66.9541 215.372V227.633H77.8141V215.227C77.8287 214.506 77.701 213.79 77.4383 213.118C77.1757 212.447 76.7831 211.833 76.2833 211.314C75.7834 210.794 75.1859 210.378 74.5251 210.09C73.8643 209.801 73.1531 209.646 72.4321 209.632C72.3871 209.624 72.3411 209.624 72.2931 209.624ZM213.663 209.624C212.201 209.701 210.826 210.343 209.83 211.417C208.834 212.49 208.295 213.909 208.328 215.372V227.633H219.197V215.227C219.21 214.505 219.081 213.787 218.816 213.115C218.551 212.443 218.157 211.83 217.655 211.31C217.153 210.79 216.554 210.375 215.892 210.087C215.229 209.799 214.516 209.644 213.794 209.632C213.752 209.624 213.709 209.624 213.663 209.624ZM142.696 175.865C141.402 175.931 140.185 176.498 139.303 177.448C138.422 178.397 137.946 179.653 137.976 180.948V191.733H147.585V180.765C147.599 179.48 147.102 178.241 146.203 177.323C145.304 176.404 144.077 175.879 142.791 175.865H142.696Z"/><path fill="#ABACAB" d="M43.0141 274.872L42.5981 283.067H102.471L98.1351 190.396L89.3791 190.228L91.3111 272.884C91.3187 273.138 91.2761 273.39 91.1857 273.628C91.0953 273.865 90.9589 274.083 90.7843 274.267C90.6097 274.452 90.4004 274.6 90.1684 274.704C89.9363 274.807 89.6861 274.864 89.4321 274.871H43.0141V274.872ZM184.234 274.872L183.818 283.067H243.691L239.354 190.396L230.601 190.228L232.542 273.167C232.548 273.385 232.51 273.602 232.432 273.806C232.353 274.01 232.236 274.196 232.085 274.354C231.935 274.512 231.755 274.639 231.555 274.728C231.355 274.817 231.14 274.865 230.922 274.871H184.234V274.872Z"/><path fill="#595959" d="M129.616 283.334V252.576C129.616 244.42 135.53 237.693 142.804 237.562H143.016C150.404 237.562 156.427 244.075 156.427 252.086V283.342H155.307L129.616 283.334Z"/><path fill="#414342" d="M142.984 238.588C149.798 238.588 155.306 244.611 155.306 252.033V282.211H130.746V252.523C130.746 245.047 136.085 238.71 142.877 238.641H143.067M143.068 236.508H142.834C134.977 236.646 128.58 243.855 128.58 252.599V282.287C128.58 283.503 129.564 284.48 130.779 284.48H155.342C155.63 284.48 155.916 284.424 156.183 284.314C156.449 284.204 156.692 284.043 156.896 283.839C157.1 283.635 157.262 283.393 157.372 283.127C157.482 282.861 157.539 282.575 157.539 282.287V252.033C157.539 243.426 151.038 236.432 143.048 236.432L143.068 236.508Z"/><path fill="#000" d="M163.497 143.731L172.467 142.922L173.002 160.945L167.633 167.328H159.385L163.436 160.54L163.497 143.731Z"/><path fill="#ABACAB" d="M92.9883 163.33L101.777 163.146L102.363 184.021L96.9922 190.404H88.7603L92.7962 183.623L92.9883 163.33Z"/><path fill="#CECECE" d="M118.402 167.298C118.231 167.301 118.062 167.262 117.91 167.185C117.757 167.107 117.626 166.994 117.527 166.855L113.437 161.161C113.307 160.971 113.237 160.747 113.235 160.518V141.088C113.235 140.499 113.713 140.018 114.3 140.018H125.738C126.33 140.018 126.806 140.499 126.806 141.088V151.323H136.107V141.118C136.108 140.834 136.22 140.563 136.42 140.362C136.621 140.162 136.892 140.049 137.175 140.049H148.633C149.222 140.049 149.699 140.529 149.699 141.118V151.361H159.009V141.118C159.009 140.529 159.491 140.049 160.079 140.049H171.537C171.82 140.049 172.095 140.163 172.294 140.362C172.501 140.561 172.615 140.837 172.615 141.127V160.534C172.614 160.725 172.562 160.912 172.466 161.078L172.402 161.169L168.324 166.863C168.223 167.003 168.09 167.117 167.935 167.195C167.781 167.274 167.61 167.315 167.437 167.315L118.402 167.298Z"/><path fill="#ABACAB" d="M234.371 163.308L243.16 163.125L243.758 184L238.384 190.39H230.144L234.18 183.609L234.371 163.308ZM163.635 140.063L172.433 139.88L173.021 160.763L167.651 167.137H159.408L163.455 160.357L163.635 140.063Z"/><path fill="#414342" d="M43.7622 164.124H55.2072V175.46H66.6772V164.124H78.1352V175.46H89.6042V164.147H101.051V183.555L96.9622 189.242L101.051 282.234H43.7502L47.8412 189.266L43.7502 183.571V164.125M43.7502 161.991C42.5702 161.991 41.6152 162.947 41.6152 164.124V183.563C41.6172 184.021 41.7612 184.472 42.0312 184.846L45.6832 189.929L41.6232 282.14C41.5932 282.729 41.8012 283.302 42.2002 283.722C42.6172 284.166 43.1962 284.418 43.8022 284.418H101.05C101.656 284.418 102.236 284.166 102.652 283.722C103.051 283.302 103.259 282.729 103.229 282.14L99.1702 189.929L102.821 184.831C103.092 184.463 103.24 184.02 103.238 183.562V164.146C103.238 163.581 103.013 163.038 102.612 162.639C102.212 162.239 101.67 162.014 101.104 162.014H89.6042C88.4242 162.014 87.4682 162.969 87.4682 164.146V173.31H80.3232V164.162C80.3254 163.875 80.2698 163.59 80.1597 163.325C80.0495 163.06 79.8872 162.819 79.6822 162.618C79.4818 162.418 79.2438 162.26 78.9819 162.152C78.72 162.044 78.4394 161.989 78.1562 161.99H66.6772C66.1113 161.99 65.5684 162.215 65.1679 162.615C64.7674 163.015 64.542 163.557 64.5412 164.123V173.289H57.3962V164.138C57.3962 162.954 56.4412 161.998 55.2602 161.998H43.8262L43.7502 161.991ZM114.346 141.094H125.793V152.415H137.25V141.094H148.707V152.415H160.176V141.116H171.635V160.516L167.545 166.21H118.424L114.334 160.516V141.094M114.334 138.908C113.768 138.908 113.226 139.132 112.825 139.532C112.425 139.932 112.2 140.474 112.199 141.04V160.478C112.201 160.929 112.348 161.372 112.616 161.747L116.693 167.435C116.892 167.717 117.157 167.946 117.464 168.103C117.771 168.26 118.111 168.34 118.456 168.336H167.579C167.923 168.339 168.263 168.259 168.57 168.102C168.876 167.945 169.14 167.716 169.338 167.435L173.419 161.747C173.688 161.372 173.832 160.93 173.832 160.478V141.116C173.832 139.938 172.877 138.976 171.699 138.976H160.187C159.62 138.978 159.077 139.204 158.677 139.605C158.276 140.006 158.051 140.549 158.05 141.116V150.274H150.907V141.116C150.907 140.549 150.682 140.005 150.281 139.604C149.881 139.203 149.337 138.977 148.77 138.976H137.26C136.693 138.977 136.15 139.203 135.749 139.604C135.348 140.005 135.123 140.549 135.123 141.116V150.274H127.98V141.116C127.98 139.938 127.023 138.976 125.843 138.976H114.405L114.334 138.908ZM185.152 164.109H196.588V175.437H208.045V164.124H219.58V175.46H231.037V164.124H242.488V183.532L238.394 189.219L242.488 282.179H185.144L189.242 189.219L185.164 183.532V164.109M185.152 161.969C184.872 161.969 184.594 162.025 184.334 162.133C184.075 162.241 183.84 162.399 183.642 162.597C183.444 162.796 183.287 163.032 183.18 163.292C183.073 163.551 183.018 163.829 183.019 164.11V183.539C183.019 183.999 183.164 184.449 183.431 184.824L187.077 189.906L183.018 282.126C183 282.406 183.037 282.687 183.127 282.952C183.217 283.218 183.359 283.463 183.544 283.674C183.728 283.884 183.953 284.057 184.205 284.181C184.456 284.305 184.729 284.378 185.009 284.396H242.411C242.692 284.397 242.97 284.343 243.23 284.236C243.49 284.129 243.726 283.972 243.925 283.774C244.124 283.576 244.281 283.341 244.389 283.081C244.497 282.822 244.552 282.544 244.552 282.263C244.552 282.218 244.552 282.172 244.544 282.126L240.488 189.906L244.137 184.808C244.408 184.441 244.55 183.995 244.543 183.538V164.138C244.543 162.954 243.587 161.998 242.41 161.998H230.994C230.713 161.998 230.435 162.053 230.176 162.161C229.916 162.268 229.68 162.426 229.482 162.625C229.283 162.824 229.126 163.06 229.019 163.319C228.912 163.579 228.857 163.857 228.857 164.138V173.296H221.713V164.138C221.713 162.954 220.758 161.998 219.577 161.998H208.057C207.776 161.998 207.498 162.053 207.238 162.161C206.978 162.268 206.742 162.426 206.543 162.625C206.345 162.823 206.187 163.059 206.079 163.319C205.972 163.579 205.916 163.857 205.916 164.138V173.296H198.777V164.138C198.777 162.954 197.822 161.998 196.636 161.998H185.194L185.152 161.969Z"/><path stroke="#414342" stroke-miterlimit="10" stroke-width="2" d="M188.109 189.594H239.431M47.2314 189.594H98.5524"/></g><defs><radialGradient id="paint0_radial_930_3056" cx="0" cy="0" r="1" gradientTransform="translate(142.845 200) scale(177.165 177.5)" gradientUnits="userSpaceOnUse"><stop stop-color="#E5ECAC"/><stop offset=".5" stop-color="#BDD26F"/><stop offset="1" stop-color="#98C52F"/></radialGradient><clipPath id="clip0_930_3056"><rect width="291.969" height="406.205" fill="#fff"/></clipPath></defs></svg>