<svg xmlns="http://www.w3.org/2000/svg" width="292" height="407" fill="none" viewBox="0 0 292 407"><g clip-path="url(#clip0_930_3294)"><path fill="url(#paint0_radial_930_3294)" d="M16.2642 390C14.6284 389.998 13.0601 389.348 11.9034 388.191C10.7467 387.034 10.0961 385.466 10.0942 383.83V16.169C10.0964 14.5334 10.7471 12.9653 11.9038 11.8088C13.0605 10.6524 14.6286 10.0019 16.2642 10H269.425C271.061 10.0021 272.629 10.6527 273.785 11.8092C274.941 12.9656 275.592 14.5335 275.594 16.169V383.83C275.592 385.466 274.942 387.034 273.785 388.19C272.629 389.347 271.061 389.998 269.425 390H16.2642Z"/><path fill="#E1EF74" d="M265.594 20V380H20.0942V20H265.594ZM269.425 0H16.2642C7.33324 0 0.0942383 7.239 0.0942383 16.169V383.83C0.0942383 392.761 7.33324 400 16.2642 400H269.425C278.355 400 285.594 392.761 285.594 383.83V16.169C285.594 7.239 278.354 0 269.425 0Z"/><path fill="#414042" d="M269.425 10C271.061 10.0021 272.629 10.6527 273.785 11.8092C274.941 12.9656 275.592 14.5335 275.594 16.169V383.83C275.592 385.466 274.942 387.034 273.785 388.19C272.629 389.347 271.061 389.998 269.425 390H16.2642C14.6284 389.998 13.0601 389.348 11.9034 388.191C10.7467 387.034 10.0961 385.466 10.0942 383.83V16.169C10.0964 14.5334 10.7471 12.9653 11.9038 11.8088C13.0605 10.6524 14.6286 10.0019 16.2642 10H269.425ZM269.425 0H16.2642C7.33324 0 0.0942383 7.239 0.0942383 16.169V383.83C0.0942383 392.761 7.33324 400 16.2642 400H269.425C278.355 400 285.594 392.761 285.594 383.83V16.169C285.594 7.239 278.354 0 269.425 0Z"/><path fill="#FBFBF9" d="M201.203 330.411C176.284 330.411 165.207 327.3 164.165 320.008C163.728 316.95 163.868 311.917 164.016 306.588L164.168 298.602C164.168 290.603 173.631 274.398 187.115 272.36L188.303 272.18L188.777 272.819C189.446 273.076 192.205 273.885 201.132 274.272C210.324 273.875 213.069 273.029 213.685 272.785L214.184 272.193L215.29 272.36C228.774 274.398 238.237 290.603 238.237 298.602C238.237 301.124 238.314 303.904 238.389 306.59C238.537 311.918 238.677 316.951 238.241 320.007C237.2 327.299 226.123 330.411 201.203 330.411Z"/><path fill="#47412A" d="M214.993 274.336C227.269 276.191 236.239 291.178 236.239 298.601C236.239 306.024 236.891 315.323 236.262 319.724C235.567 324.594 228.094 328.411 201.204 328.411C174.314 328.411 166.842 324.595 166.146 319.724C165.518 315.323 166.169 306.019 166.169 298.601C166.169 291.183 175.139 276.192 187.415 274.336C187.415 274.336 188.45 275.73 201.133 276.273C213.819 275.729 214.993 274.336 214.993 274.336ZM189.195 270.021L186.819 270.38C172.755 272.506 162.171 288.965 162.171 298.6C162.171 301.094 162.094 303.858 162.02 306.531C161.87 311.948 161.728 317.064 162.188 320.289C163.418 328.898 174.722 332.41 201.206 332.41C227.69 332.41 238.995 328.898 240.224 320.289C240.684 317.064 240.542 311.949 240.391 306.534L240.24 298.6C240.24 288.965 229.656 272.506 215.592 270.38L213.379 270.045L212.527 271.056C211.513 271.333 208.528 271.945 201.135 272.268C194.052 271.957 191.078 271.384 189.998 271.102L189.195 270.021Z"/><path fill="#FBFBF9" d="M200.908 276.334C199.364 276.334 195.606 276.301 194.065 275.992C187.142 274.611 171.035 268.296 171.035 239.55C171.035 218.627 181.614 207.104 200.822 207.104C220.235 207.104 231.369 218.93 231.369 239.55C231.369 266.426 218.298 274.238 207.333 276.057C206.108 276.261 203.21 276.334 200.908 276.334Z"/><path fill="#47412A" d="M200.822 209.104C222.136 209.104 229.369 223.238 229.369 239.55C229.369 262.525 219.799 271.96 207.006 274.083C206.031 274.246 203.487 274.334 200.907 274.334C198.219 274.334 195.491 274.238 194.457 274.031C183.312 271.808 173.034 262.147 173.034 239.55C173.035 223.238 179.602 209.104 200.822 209.104ZM200.822 205.104C180.324 205.104 169.035 217.337 169.035 239.55C169.035 269.777 186.267 276.477 193.676 277.954C195.326 278.285 198.916 278.334 200.908 278.334C202.389 278.334 206.014 278.305 207.667 278.028C219.39 276.083 233.37 267.827 233.37 239.549C233.37 217.659 221.507 205.104 200.822 205.104Z"/><path fill="#FBFBF9" d="M84.5189 330.411C59.5989 330.411 48.5219 327.3 47.4809 320.007C47.0439 316.951 47.1849 311.918 47.3329 306.59L47.4849 298.602C47.4849 290.603 56.9479 274.398 70.4319 272.36L71.6199 272.18L72.0939 272.819C72.7619 273.077 75.5209 273.885 84.4489 274.272C93.6409 273.875 96.3849 273.029 97.0009 272.785L97.4999 272.193L98.6059 272.36C112.09 274.398 121.553 290.603 121.553 298.602C121.553 301.124 121.63 303.902 121.705 306.588C121.853 311.917 121.993 316.95 121.556 320.007C120.514 327.299 109.438 330.411 84.5189 330.411Z"/><path fill="#47412A" d="M98.3072 274.336C110.583 276.191 119.553 291.178 119.553 298.601C119.553 306.024 120.204 315.323 119.576 319.724C118.88 324.594 111.408 328.411 84.5182 328.411C57.6282 328.411 50.1552 324.595 49.4602 319.724C48.8322 315.323 49.4832 306.019 49.4832 298.601C49.4832 291.183 58.4532 276.192 70.7292 274.336C70.7292 274.336 71.7632 275.73 84.4482 276.273C97.1332 275.729 98.3072 274.336 98.3072 274.336ZM72.5092 270.021L70.1322 270.38C56.0682 272.506 45.4842 288.965 45.4842 298.6C45.4842 301.095 45.4072 303.86 45.3332 306.534C45.1822 311.949 45.0402 317.064 45.5002 320.289C46.7292 328.898 58.0342 332.41 84.5182 332.41C111.002 332.41 122.306 328.898 123.536 320.289C123.996 317.064 123.854 311.948 123.704 306.531L123.553 298.6C123.553 288.965 112.969 272.506 98.9052 270.38L96.6922 270.045L95.8402 271.056C94.8262 271.333 91.8422 271.945 84.4482 272.268C77.3662 271.958 74.3912 271.384 73.3112 271.102L72.5092 270.021Z"/><path fill="#FBFBF9" d="M84.2197 276.334C82.6757 276.334 78.9177 276.301 77.3767 275.992C70.4537 274.611 54.3477 268.296 54.3477 239.55C54.3477 218.627 64.9267 207.104 84.1347 207.104C103.549 207.104 114.683 218.93 114.683 239.55C114.683 266.426 101.612 274.238 90.6467 276.057C89.4197 276.261 86.5227 276.334 84.2197 276.334Z"/><path fill="#47412A" d="M84.1347 209.104C105.449 209.104 112.683 223.238 112.683 239.55C112.683 262.525 103.112 271.96 90.3197 274.083C89.3447 274.246 86.8007 274.334 84.2207 274.334C81.5327 274.334 78.8047 274.238 77.7707 274.031C66.6257 271.808 56.3487 262.147 56.3487 239.55C56.3477 223.238 62.9147 209.104 84.1347 209.104ZM84.1347 205.104C63.6367 205.104 52.3477 217.337 52.3477 239.55C52.3477 269.777 69.5787 276.477 76.9877 277.954C78.6387 278.285 82.2277 278.334 84.2197 278.334C85.7007 278.334 89.3257 278.305 90.9787 278.028C102.702 276.083 116.683 267.827 116.683 239.549C116.683 217.659 104.819 205.104 84.1347 205.104Z"/><path fill="#FBFBF9" d="M142.765 359.941C117.846 359.941 106.769 356.83 105.727 349.539C105.291 346.481 105.431 341.448 105.579 336.119L105.73 328.133C105.73 320.133 115.193 303.928 128.677 301.891L129.865 301.711L130.339 302.35C131.008 302.607 133.767 303.416 142.695 303.803C151.888 303.406 154.632 302.56 155.248 302.316L155.747 301.724L156.853 301.891C170.337 303.928 179.8 320.133 179.8 328.133C179.8 330.655 179.877 333.435 179.952 336.121C180.1 341.449 180.24 346.482 179.804 349.538C178.761 356.83 167.685 359.941 142.765 359.941Z"/><path fill="#47412A" d="M156.556 303.868C168.832 305.722 177.802 320.71 177.802 328.133C177.802 335.556 178.454 344.855 177.825 349.256C177.129 354.125 169.657 357.942 142.767 357.942C115.877 357.942 108.405 354.126 107.709 349.256C107.081 344.855 107.732 335.551 107.732 328.133C107.732 320.715 116.703 305.723 128.978 303.868C128.978 303.868 130.013 305.262 142.697 305.805C155.381 305.261 156.556 303.868 156.556 303.868ZM130.757 299.553L128.381 299.912C114.317 302.037 103.733 318.496 103.733 328.132C103.733 330.626 103.656 333.39 103.582 336.063C103.432 341.48 103.29 346.595 103.75 349.821C104.98 358.429 116.285 361.941 142.768 361.941C169.251 361.941 180.556 358.429 181.786 349.821C182.246 346.596 182.104 341.481 181.953 336.066L181.802 328.132C181.802 318.496 171.218 302.037 157.154 299.912L154.941 299.578L154.089 300.588C153.076 300.865 150.091 301.477 142.697 301.8C135.614 301.489 132.639 300.916 131.559 300.634L130.757 299.553Z"/><path fill="#FBFBF9" d="M142.47 305.866C140.926 305.866 137.168 305.833 135.627 305.524C128.704 304.143 112.598 297.828 112.598 269.082C112.598 248.159 123.177 236.636 142.385 236.636C161.798 236.636 172.932 248.462 172.932 269.082C172.932 295.958 159.861 303.769 148.896 305.588C147.67 305.793 144.772 305.866 142.47 305.866Z"/><path fill="#47412A" d="M142.385 238.635C163.699 238.635 170.932 252.768 170.932 269.081C170.932 292.055 161.362 301.491 148.569 303.614C147.594 303.777 145.05 303.865 142.47 303.865C139.782 303.865 137.054 303.769 136.02 303.562C124.875 301.339 114.598 291.677 114.598 269.081C114.598 252.768 121.165 238.635 142.385 238.635ZM142.385 234.635C121.887 234.635 110.598 246.868 110.598 269.081C110.598 299.308 127.829 306.008 135.238 307.485C136.889 307.816 140.478 307.865 142.47 307.865C143.951 307.865 147.575 307.836 149.228 307.559C160.951 305.614 174.932 297.358 174.932 269.08C174.932 247.19 163.069 234.635 142.385 234.635Z"/><path fill="url(#paint1_linear_930_3294)" d="M62.7852 167.599C62.7857 168.564 63.1688 169.49 63.8507 170.174C64.5325 170.858 65.4575 171.243 66.4232 171.247H72.4092V188.658C72.4102 189.5 72.7452 190.307 73.3402 190.902C73.9352 191.497 74.7432 191.833 75.5852 191.833H92.2322C93.0742 191.833 93.8812 191.498 94.4772 190.902C95.0732 190.306 95.4072 189.5 95.4082 188.658V171.247H101.394C102.36 171.244 103.286 170.858 103.968 170.175C104.65 169.491 105.033 168.565 105.032 167.599C105.032 166.723 104.721 165.902 104.132 165.227L86.6472 145.179C86.3062 144.789 85.8852 144.476 85.4132 144.262C84.941 144.047 84.4284 143.936 83.9097 143.936C83.391 143.936 82.8783 144.047 82.4062 144.262C81.9342 144.476 81.5132 144.789 81.1722 145.179L63.6862 165.227C63.1059 165.88 62.7846 166.724 62.7852 167.599Z"/><path fill="url(#paint2_linear_930_3294)" d="M62.7852 167.599C62.7857 168.564 63.1688 169.49 63.8507 170.174C64.5325 170.858 65.4575 171.243 66.4232 171.247H72.4092V188.658C72.4102 189.5 72.7452 190.307 73.3402 190.902C73.9352 191.497 74.7432 191.833 75.5852 191.833H92.2322C93.0742 191.833 93.8812 191.498 94.4772 190.902C95.0732 190.306 95.4072 189.5 95.4082 188.658V171.247H101.394C102.36 171.244 103.286 170.858 103.968 170.175C104.65 169.491 105.033 168.565 105.032 167.599C105.032 166.723 104.721 165.902 104.132 165.227L86.6472 145.179C86.3062 144.789 85.8852 144.476 85.4132 144.262C84.941 144.047 84.4284 143.936 83.9097 143.936C83.391 143.936 82.8783 144.047 82.4062 144.262C81.9342 144.476 81.5132 144.789 81.1722 145.179L63.6862 165.227C63.1059 165.88 62.7846 166.724 62.7852 167.599Z"/><path fill="#162F0D" d="M104.436 167.642C104.436 167.021 104.224 166.387 103.751 165.846L86.2645 145.799C86.0055 145.503 85.6865 145.265 85.3285 145.102C84.9705 144.939 84.5805 144.854 84.1875 144.854C83.7945 144.854 83.4045 144.939 83.0465 145.102C82.6885 145.265 82.3685 145.503 82.1105 145.799L64.6245 165.848C64.1845 166.343 63.9405 166.981 63.9405 167.643C63.9405 169.066 65.0545 170.416 66.7025 170.416H73.5645V188.701C73.5647 189.31 73.8071 189.895 74.2385 190.327C74.6695 190.759 75.2545 191.001 75.8645 191.001H92.5115C93.1215 191.001 93.7065 190.759 94.1375 190.327C94.5689 189.895 94.8113 189.31 94.8115 188.701V170.414H101.674C103.321 170.414 104.436 169.064 104.436 167.642ZM106.188 167.642C106.188 170.136 104.161 172.166 101.674 172.166H96.5635V188.701C96.5625 189.775 96.1355 190.805 95.3755 191.565C94.6155 192.325 93.5855 192.752 92.5115 192.753H75.8635C74.7895 192.752 73.7585 192.325 72.9995 191.565C72.2405 190.805 71.8125 189.775 71.8115 188.701V172.166H66.7015C64.2125 172.166 62.1875 170.137 62.1875 167.642C62.1912 166.557 62.5877 165.51 63.3035 164.695L80.7895 144.648C81.2125 144.163 81.7355 143.774 82.3215 143.508C82.9075 143.242 83.5435 143.104 84.1875 143.104C84.8315 143.104 85.4675 143.242 86.0535 143.508C86.6395 143.774 87.1615 144.163 87.5855 144.648L105.073 164.695C105.787 165.51 106.183 166.557 106.188 167.642Z"/><path fill="url(#paint3_linear_930_3294)" d="M121.285 167.599C121.286 168.564 121.669 169.49 122.35 170.174C123.032 170.857 123.957 171.243 124.922 171.247H130.909V188.658C130.909 189.074 130.991 189.487 131.151 189.872C131.311 190.257 131.545 190.607 131.84 190.902C132.435 191.498 133.243 191.833 134.085 191.833H150.732C151.574 191.833 152.381 191.498 152.977 190.902C153.572 190.306 153.907 189.499 153.908 188.658V171.247H159.894C160.86 171.244 161.786 170.858 162.468 170.175C163.15 169.491 163.533 168.565 163.532 167.599C163.532 166.723 163.221 165.902 162.632 165.227L145.146 145.179C144.805 144.788 144.384 144.475 143.912 144.26C143.44 144.046 142.927 143.935 142.408 143.936C141.89 143.936 141.377 144.047 140.905 144.262C140.433 144.477 140.012 144.789 139.67 145.179L122.184 165.227C121.604 165.881 121.284 166.724 121.285 167.599Z"/><path fill="url(#paint4_linear_930_3294)" d="M121.285 167.599C121.286 168.564 121.669 169.49 122.35 170.174C123.032 170.857 123.957 171.243 124.922 171.247H130.909V188.658C130.909 189.074 130.991 189.487 131.151 189.872C131.311 190.257 131.545 190.607 131.84 190.902C132.435 191.498 133.243 191.833 134.085 191.833H150.732C151.574 191.833 152.381 191.498 152.977 190.902C153.572 190.306 153.907 189.499 153.908 188.658V171.247H159.894C160.86 171.244 161.786 170.858 162.468 170.175C163.15 169.491 163.533 168.565 163.532 167.599C163.532 166.723 163.221 165.902 162.632 165.227L145.146 145.179C144.805 144.788 144.384 144.475 143.912 144.26C143.44 144.046 142.927 143.935 142.408 143.936C141.89 143.936 141.377 144.047 140.905 144.262C140.433 144.477 140.012 144.789 139.67 145.179L122.184 165.227C121.604 165.881 121.284 166.724 121.285 167.599Z"/><path fill="#162F0D" d="M162.936 167.642C162.936 167.021 162.724 166.387 162.251 165.846L144.764 145.799C144.506 145.502 144.187 145.264 143.829 145.102C143.471 144.939 143.081 144.854 142.688 144.854C142.294 144.854 141.904 144.939 141.546 145.102C141.188 145.264 140.869 145.502 140.611 145.799L123.124 165.848C122.685 166.342 122.441 166.981 122.439 167.643C122.439 169.066 123.555 170.416 125.201 170.416H132.064V188.701C132.064 189.31 132.306 189.895 132.738 190.327C133.169 190.759 133.753 191.001 134.363 191.001H151.012C151.622 191.001 152.206 190.759 152.637 190.327C153.069 189.895 153.311 189.31 153.311 188.701V170.414H160.174C161.821 170.414 162.936 169.064 162.936 167.642ZM164.688 167.642C164.688 170.136 162.661 172.166 160.174 172.166H155.064V188.701C155.063 189.775 154.636 190.805 153.876 191.565C153.116 192.325 152.086 192.752 151.012 192.753H134.363C133.289 192.752 132.259 192.325 131.499 191.565C130.739 190.805 130.312 189.775 130.311 188.701V172.166H125.201C122.712 172.166 120.688 170.137 120.688 167.642C120.691 166.557 121.088 165.51 121.803 164.695L139.29 144.648C139.713 144.163 140.236 143.774 140.822 143.508C141.408 143.242 142.044 143.104 142.688 143.104C143.331 143.104 143.967 143.242 144.553 143.508C145.139 143.774 145.662 144.163 146.085 144.648L163.572 164.695C164.287 165.51 164.683 166.557 164.688 167.642Z"/><path fill="url(#paint5_linear_930_3294)" d="M179.785 167.599C179.786 168.564 180.169 169.49 180.85 170.174C181.532 170.857 182.457 171.243 183.422 171.247H189.409V188.658C189.409 189.074 189.491 189.487 189.651 189.872C189.811 190.257 190.045 190.607 190.34 190.902C190.935 191.498 191.743 191.833 192.585 191.833H209.232C210.074 191.833 210.881 191.498 211.477 190.902C212.072 190.306 212.407 189.499 212.408 188.658V171.247H218.394C219.36 171.244 220.286 170.858 220.968 170.175C221.65 169.491 222.033 168.565 222.032 167.599C222.032 166.723 221.721 165.902 221.132 165.227L203.646 145.179C203.305 144.788 202.884 144.475 202.412 144.26C201.94 144.046 201.427 143.935 200.908 143.936C200.39 143.936 199.877 144.047 199.405 144.262C198.933 144.477 198.512 144.789 198.17 145.179L180.684 165.227C180.104 165.881 179.784 166.724 179.785 167.599Z"/><path fill="url(#paint6_linear_930_3294)" d="M179.785 167.599C179.786 168.564 180.169 169.49 180.85 170.174C181.532 170.857 182.457 171.243 183.422 171.247H189.409V188.658C189.409 189.074 189.491 189.487 189.651 189.872C189.811 190.257 190.045 190.607 190.34 190.902C190.935 191.498 191.743 191.833 192.585 191.833H209.232C210.074 191.833 210.881 191.498 211.477 190.902C212.072 190.306 212.407 189.499 212.408 188.658V171.247H218.394C219.36 171.244 220.286 170.858 220.968 170.175C221.65 169.491 222.033 168.565 222.032 167.599C222.032 166.723 221.721 165.902 221.132 165.227L203.646 145.179C203.305 144.788 202.884 144.475 202.412 144.26C201.94 144.046 201.427 143.935 200.908 143.936C200.39 143.936 199.877 144.047 199.405 144.262C198.933 144.477 198.512 144.789 198.17 145.179L180.684 165.227C180.104 165.881 179.784 166.724 179.785 167.599Z"/><path fill="#162F0D" d="M221.436 167.642C221.436 167.021 221.224 166.387 220.751 165.846L203.264 145.799C203.006 145.502 202.687 145.264 202.329 145.102C201.971 144.939 201.581 144.854 201.188 144.854C200.794 144.854 200.404 144.939 200.046 145.102C199.688 145.264 199.369 145.502 199.111 145.799L181.624 165.848C181.185 166.342 180.941 166.981 180.939 167.643C180.939 169.066 182.055 170.416 183.702 170.416H190.564V188.701C190.564 189.31 190.806 189.895 191.238 190.327C191.669 190.759 192.253 191.001 192.863 191.001H209.512C210.122 191.001 210.706 190.759 211.137 190.327C211.569 189.895 211.811 189.31 211.811 188.701V170.414H218.674C220.321 170.414 221.436 169.064 221.436 167.642ZM223.188 167.642C223.188 170.136 221.161 172.166 218.674 172.166H213.564V188.701C213.563 189.775 213.136 190.805 212.376 191.565C211.616 192.325 210.586 192.752 209.512 192.753H192.863C191.789 192.752 190.759 192.325 189.999 191.565C189.239 190.805 188.812 189.775 188.811 188.701V172.166H183.702C181.213 172.166 179.188 170.137 179.188 167.642C179.191 166.557 179.588 165.51 180.303 164.695L197.79 144.648C198.213 144.163 198.736 143.774 199.322 143.508C199.908 143.242 200.544 143.104 201.188 143.104C201.831 143.104 202.467 143.242 203.053 143.508C203.639 143.774 204.162 144.163 204.585 144.648L222.072 164.695C222.787 165.51 223.183 166.557 223.188 167.642Z"/><path fill="#E5DCC7" d="M61.3405 45.7305L111.562 46.1905C111.562 46.1905 118.383 46.1895 119.562 50.1175C120.927 54.6625 117.916 56.4565 117.916 56.4565L104.945 56.7535C104.945 56.7535 101.814 65.5845 106.233 85.8015C108.137 94.5135 106.149 108.09 102.842 114.824C98.4734 123.716 91.8134 124.946 91.8134 124.946C91.8134 124.946 89.5325 126.009 83.6555 125.121C77.7785 124.233 37.0234 119.114 37.0234 119.114C37.0234 119.114 27.6194 117.327 32.6864 106.926C36.0734 99.9755 44.6215 101.533 44.6215 101.533L49.4335 101.795C49.4335 101.795 51.8724 90.4745 49.8354 80.4365C48.0194 71.4895 43.5184 51.6405 61.3405 45.7305Z"/><path stroke="#605745" stroke-miterlimit="10" stroke-width="2.5" d="M61.3405 45.7305L111.562 46.1905C111.562 46.1905 118.383 46.1895 119.562 50.1175C120.927 54.6625 117.916 56.4565 117.916 56.4565L104.945 56.7535C104.945 56.7535 101.814 65.5845 106.233 85.8015C108.137 94.5135 106.149 108.09 102.842 114.824C98.4734 123.716 91.8134 124.946 91.8134 124.946C91.8134 124.946 89.5325 126.009 83.6555 125.121C77.7785 124.233 37.0234 119.114 37.0234 119.114C37.0234 119.114 27.6194 117.327 32.6864 106.926C36.0734 99.9755 44.6215 101.533 44.6215 101.533L49.4335 101.795C49.4335 101.795 51.8724 90.4745 49.8354 80.4365C48.0194 71.4895 43.5184 51.6405 61.3405 45.7305V45.7305Z"/><path fill="#E5DCC7" d="M43.5514 102.312L92.0254 105.91C92.0254 105.91 83.4444 106.229 81.1094 112.443C79.0234 117.991 82.7494 120.99 82.7494 120.99L32.7734 114.954C32.7734 114.954 30.7414 111.925 34.0754 106.362C37.2284 101.1 43.3704 102.678 43.5514 102.312Z"/><path fill="#A09680" d="M50.3293 102.703L94.0123 106.978C94.0123 106.978 93.5253 106.431 92.0593 105.867C91.0033 105.716 50.5613 101.862 50.5613 101.862L50.3293 102.703ZM104.026 55.7223C104.026 55.7223 107.154 46.9613 111.766 47.1213C114.005 47.1993 117.78 47.4803 118.828 50.9793C119.658 53.7483 117.797 55.5813 117.797 55.5813L104.026 55.7223ZM32.7773 114.953L82.7533 120.989C82.7533 120.989 84.0963 122.565 85.9493 123.121C88.7073 123.951 91.0223 124.244 91.0223 124.244C91.0223 124.244 88.6994 125.227 81.2184 123.997C73.7374 122.767 36.5013 118.206 36.5013 118.206C36.5013 118.206 32.9443 116.802 32.7773 114.953Z"/><path fill="#A09680" d="M80.6484 115.057L95.6174 116.412C95.6174 116.412 97.3744 106.315 91.6694 106.043C85.9644 105.771 81.2144 109.879 80.6484 115.057Z"/><path fill="#A09680" d="M82.7555 120.992C82.7555 120.992 81.8435 120.54 81.1205 118.422C80.3975 116.304 80.6525 115.058 80.6525 115.058L82.5755 115.098C82.5755 115.098 83.3925 120.248 86.5345 121.487C88.0375 122.082 90.2185 123.091 93.0925 121.779C97.2155 119.898 100.582 115.493 101.91 111.271C104.058 102.353 104.385 101.41 104.571 95.7013C104.814 88.2623 98.5505 65.9083 102.961 54.7853C106.123 46.8163 110.248 47.3533 110.248 47.3533C110.248 47.3533 101.149 51.9283 102.916 71.1993C102.916 71.1993 103.713 80.9823 104.754 84.6663C105.529 87.4083 107.277 97.9073 103.464 110.204C99.3445 123.478 91.2105 124.169 91.2105 124.169C87.6705 124.097 85.8795 124.387 82.7555 120.992Z"/><path fill="#F2DE9C" d="M124.725 129.813C118.146 129.813 111.873 129.295 109.875 128.922C106.784 128.343 100.658 125.566 97.3777 120.576C95.3567 117.502 94.7457 114.118 95.5607 110.518C95.6907 109.939 95.8577 109.395 96.0577 108.905L114.524 49.3134C114.597 49.0769 114.737 48.8663 114.926 48.7064C115.183 48.4904 121.305 43.3964 128.686 42.1014C131.383 41.6284 133.574 41.3994 135.386 41.3994C138.018 41.3994 139.95 41.8504 142.056 42.9564C144.4 44.1874 147.351 44.8124 150.828 44.8124L151.592 44.8024L152.156 44.7954C156.281 44.7954 165.921 45.9034 167.803 47.2424C169.16 48.2094 168.655 49.7764 168.121 51.4364C167.411 53.6454 166.221 57.3414 166.819 63.3544C167.674 71.9394 165.178 79.7274 164.112 83.0534L163.752 84.2304C163.76 84.4344 163.828 85.0804 163.894 85.7064C164.275 89.3104 165.066 96.8104 163.766 101.377C162.271 106.64 161.908 111.138 161.905 111.183C161.892 111.354 161.844 111.521 161.765 111.675C161.685 111.828 161.577 111.964 161.445 112.074C161.313 112.185 161.16 112.268 160.996 112.318C160.832 112.369 160.659 112.386 160.487 112.369C160.433 112.365 155.381 111.859 148.992 111.09C145.186 123.757 144 125.394 143.533 125.929C143.296 126.265 143.016 126.567 142.699 126.829C140.292 128.81 134.243 129.815 124.722 129.815L124.725 129.813Z"/><path fill="#77491B" d="M135.379 42.6895C138.126 42.6895 139.82 43.2425 141.448 44.0985C143.903 45.3875 147.062 46.1025 150.821 46.1025L151.619 46.0915L152.149 46.0845C156.52 46.0845 165.62 47.2765 167.048 48.2925C168.536 49.3535 164.497 53.1305 165.527 63.4785C166.557 73.8265 162.5 83.1775 162.455 84.1285C162.41 85.0795 164.074 95.5525 162.518 101.02C160.962 106.487 160.611 111.081 160.611 111.081L148.061 109.672C146.215 115.878 143.7 123.791 142.513 125.122C142.334 125.386 142.119 125.623 141.874 125.826C139.345 127.906 131.859 128.518 124.716 128.518C118.254 128.518 112.074 128.016 110.103 127.648C106.001 126.881 94.4529 121.219 96.8119 110.802C96.9198 110.302 97.0714 109.813 97.2649 109.341L115.751 49.6935C115.751 49.6935 121.778 44.6225 128.902 43.3725C131.611 42.8975 133.693 42.6885 135.379 42.6895ZM135.379 40.1035C133.492 40.1025 131.227 40.3395 128.455 40.8255C120.735 42.1795 114.353 47.4895 114.086 47.7145C113.707 48.0337 113.427 48.4551 113.28 48.9285L94.8309 108.468C94.604 109.042 94.4231 109.633 94.2899 110.237C93.4089 114.13 94.0999 117.952 96.2899 121.283C99.7909 126.609 106.329 129.573 109.629 130.191C111.979 130.63 118.415 131.104 124.718 131.104C139.53 131.104 142.531 128.635 143.518 127.824C143.897 127.513 144.233 127.155 144.542 126.733C145.135 126.045 146.34 124.267 149.913 112.499L160.355 113.653C160.698 113.687 161.044 113.652 161.374 113.552C161.703 113.45 162.009 113.284 162.273 113.062C162.537 112.84 162.755 112.57 162.912 112.263C163.069 111.956 163.164 111.622 163.191 111.279C163.194 111.236 163.551 106.851 165.007 101.726C166.375 96.9195 165.566 89.2515 165.177 85.5665L165.054 84.3505L165.34 83.4425C166.43 80.0405 168.983 72.0725 168.102 63.2205C167.531 57.4765 168.625 54.0765 169.348 51.8275C169.909 50.0865 170.676 47.7005 168.553 46.1855C166.112 44.4505 155.293 43.4975 152.152 43.4975L151.554 43.5055L150.825 43.5155C147.605 43.5155 144.78 42.9245 142.654 41.8085C140.374 40.6135 138.2 40.1035 135.379 40.1035Z"/><path fill="#9E7B44" d="M129.988 106.948C129.988 106.948 140.353 119.042 141.938 124.973C142.911 128.627 150.263 101.985 150.263 101.985L129.988 106.948Z"/><path fill="#BC995B" d="M96.8107 110.801C98.1227 104.998 102.856 104.735 115.936 105.06C129.016 105.385 130.042 106.054 133.524 107.675C137.006 109.296 146.692 121.866 141.873 125.826C137.054 129.786 114.25 128.423 110.103 127.648C106.001 126.88 94.4517 121.218 96.8107 110.801Z"/><path fill="#9E7B44" d="M126.601 105.733L127.144 105.782L128.344 105.886L125.353 105.508L125.875 105.607L126.601 105.733ZM112.506 126.577C106.377 125.94 101.707 122.263 97.2852 117.63C99.6942 123.708 107.007 127.07 110.099 127.649C114.006 128.379 134.47 129.631 140.854 126.459C132.497 128.257 123.691 127.741 112.506 126.577Z"/><path fill="#F2DE9C" d="M96.8125 110.8L115.749 49.6924C115.749 49.6924 121.777 44.6214 128.9 43.3714C136.023 42.1214 138.818 42.7164 141.447 44.0964C144.076 45.4764 147.506 46.1974 151.618 46.0894C155.73 45.9814 165.558 47.2314 167.048 48.2904C168.538 49.3494 164.496 53.1284 165.526 63.4764C166.556 73.8244 162.499 83.1754 162.453 84.1264C162.407 85.0774 164.072 95.5494 162.516 101.017C160.96 106.485 160.609 111.077 160.609 111.077C160.609 111.077 133.523 108.37 124.405 105.815C118.944 104.285 101.867 104.623 96.8115 110.799L96.8125 110.8Z"/><path fill="#BC995B" d="M139.472 72.2746C138.064 82.8706 134.976 105.18 134.188 107.782C134.644 107.883 144.691 109.309 145.979 109.49C146.04 109.343 138.58 104.628 139.547 84.5806C139.64 82.6356 139.405 76.2516 139.472 72.2746ZM167.041 48.2926C165.552 47.2336 155.726 45.9836 151.612 46.0916C147.498 46.1996 144.068 45.4786 141.441 44.0986L141.109 43.9316C141.157 44.1636 142.338 54.5176 142.358 60.6506C142.678 66.1156 143.602 79.8176 144.266 81.0756C144.821 76.5286 143.785 66.7406 145.377 56.6616C146.217 51.3446 144.931 46.8876 147.153 47.3706C149.506 47.2136 152.784 47.0886 154.919 47.3996C157.979 47.8436 163.717 47.3986 165.828 49.4636C165.98 49.6136 166.072 50.0896 165.475 53.9966C164.833 58.1906 164.985 62.6416 165.562 64.0386L165.519 63.4786C164.49 53.1306 168.528 49.3536 167.041 48.2926ZM161.377 83.0196C160.769 87.6146 162.807 91.7916 159.072 102.042C157.871 105.344 156.943 102.308 156.614 93.3566C156.442 94.5556 155.844 100.938 155.618 104.485C155.924 106.627 155.7 108.59 155.282 110.472L160.602 111.08C160.602 111.08 160.826 106.41 162.509 101.021C163.92 96.4986 162.685 86.7006 162.685 86.7006C162.685 86.7006 162.32 84.4506 162.601 83.5826C163.104 82.0256 164.27 78.3626 164.951 74.6496C162.878 79.5806 161.569 81.5696 161.377 83.0196Z" opacity=".5"/><path fill="#9E7B44" d="M99.9755 117.525C99.9755 117.525 103.984 122.762 110.708 124.573C117.432 126.384 131.525 126.254 136.439 125.543C141.353 124.832 112.906 127.999 99.9755 117.525ZM98.8115 113.517C98.8115 113.517 102.823 106.667 116.526 107.117C134.241 107.698 135.986 112.548 135.986 112.548C135.986 112.548 113.941 102.656 98.8115 113.517Z"/><path fill="#9E7B44" d="M102.328 113.496C102.328 113.496 108.771 109.251 119.761 110.027C130.751 110.803 135.554 113.651 136.571 114.293C139.028 115.845 141.723 121.186 140.191 122.44C138.769 123.603 129.412 124.413 120.925 123.215C109.934 121.663 107.09 119.336 107.09 119.336C107.09 119.336 115.577 121.534 122.671 121.922C127.088 122.164 136.377 123.021 137.412 119.724C138.249 117.054 132.434 113.906 125.387 112.418C119.971 111.276 108.791 111.647 102.328 113.496ZM102.619 114.745C101.585 116.556 107.59 118.738 118.006 120.047C130.354 121.598 135.333 120.564 135.656 119.271C135.979 117.978 135.438 117.399 129.449 115.134C122.273 112.417 103.653 112.935 102.619 114.745ZM138.604 125.046C138.604 125.046 141.19 124.098 141.492 122.676C141.794 121.254 142.828 125.434 138.604 125.046Z"/><path fill="#C9C9C9" d="M180.552 121.049C179.528 121.049 178.492 121.002 177.471 120.906C175.333 120.708 173.22 120.298 171.164 119.683C171.028 119.683 170.894 119.664 170.764 119.625C170.689 119.604 168.894 119.078 166.408 117.843L166.212 117.745L165.585 117.419C163.862 116.52 162.227 115.463 160.701 114.26L159.747 113.484L159.662 113.41L159.31 113.107C155.398 109.65 152.354 105.496 151.515 104.307C146.597 97.5503 144.543 89.1173 145.744 80.5783C148.185 63.2343 163.086 50.1543 180.405 50.1543C181.436 50.1546 182.466 50.2023 183.492 50.2973C186.328 50.5583 189.117 51.1928 191.787 52.1843C192.337 52.2923 193.267 52.6203 195.455 53.8013C195.582 53.8704 195.707 53.9411 195.832 54.0133L196.097 54.1633C196.645 54.4743 197.186 54.7987 197.718 55.1363C197.924 55.2709 198.13 55.4066 198.335 55.5433L198.876 55.9073C200.241 56.8587 201.542 57.899 202.77 59.0213L203.237 58.9363C207.658 57.9733 212.288 57.4853 216.997 57.4853C222.595 57.4853 227.953 58.1713 232.922 59.5243C244.32 62.6263 251.505 68.7163 252.187 75.8373C252.513 77.0493 252.547 79.8023 252.551 80.6673C252.536 82.3766 252.492 84.0855 252.419 85.7933C252.413 85.9263 252.39 86.0563 252.349 86.1803C252.015 88.7143 250.84 91.1583 248.848 93.4553C248.825 95.2833 248.727 97.6853 248.722 97.7973C248.716 97.9287 248.693 98.0588 248.653 98.1843C248.263 101.141 246.744 103.956 244.134 106.556C237.594 113.07 225.1 117.115 211.525 117.115C207.086 117.115 202.762 116.679 198.665 115.817C193.143 119.241 186.892 121.049 180.552 121.049Z"/><path fill="#444" d="M180.405 51.6101L183.357 51.7461C186.111 51.9986 188.819 52.6208 191.407 53.5961C191.927 53.6661 192.996 54.1281 194.765 55.0831L195.301 55.3861L195.402 55.4441L196.937 56.3651L197.41 56.6761L198.041 57.1001C199.555 58.1564 200.987 59.3254 202.326 60.5971L203.516 60.3651C207.793 59.4331 212.376 58.9411 216.997 58.9411C222.267 58.9411 227.584 59.5801 232.54 60.9291C243.708 63.9691 250.238 69.8511 250.752 76.1171C250.981 76.7081 251.091 78.9681 251.096 80.6741C251.102 82.4911 250.967 85.7351 250.967 85.7351L250.94 85.7221C250.688 88.1381 249.531 90.5761 247.399 92.9001C247.394 94.7451 247.269 97.7391 247.269 97.7391L247.243 97.7241C246.968 100.359 245.627 103.021 243.109 105.53C236.653 111.96 224.225 115.665 211.524 115.665C207.1 115.665 202.64 115.217 198.391 114.274C193.145 117.651 186.988 119.599 180.551 119.599C179.575 119.599 178.592 119.554 177.604 119.463C175.337 119.253 173.099 118.793 170.933 118.094L171.168 118.233C171.168 118.233 169.452 117.737 167.055 116.545L166.857 116.446L166.264 116.137C164.619 115.28 163.057 114.271 161.601 113.123C161.291 112.881 160.986 112.634 160.686 112.38L160.636 112.335L160.275 112.024C156.47 108.663 153.509 104.618 152.703 103.473C148.178 97.2581 145.99 89.2581 147.183 80.7851C149.528 64.1231 164.077 51.6101 180.405 51.6101ZM180.405 48.7031C171.771 48.7031 163.331 51.9191 156.639 57.7591C149.913 63.6291 145.532 71.6621 144.306 80.3771C143.052 89.2831 145.196 98.0851 150.341 105.164C151.221 106.41 154.338 110.654 158.351 114.199C158.476 114.311 158.606 114.421 158.735 114.53L158.784 114.574L158.808 114.595C159.137 114.874 159.472 115.146 159.813 115.411C161.409 116.667 163.118 117.771 164.918 118.711L165.54 119.034L165.567 119.046L165.627 119.076L165.762 119.144C168.363 120.439 170.281 120.999 170.361 121.022C170.542 121.075 170.728 121.109 170.916 121.126C173.011 121.741 175.162 122.152 177.337 122.353C178.402 122.452 179.484 122.503 180.552 122.503C186.975 122.503 193.305 120.726 198.933 117.356C202.96 118.162 207.19 118.569 211.526 118.569C225.47 118.569 238.358 114.361 245.161 107.586C247.972 104.785 249.626 101.725 250.078 98.4831C250.133 98.2801 250.165 98.0711 250.175 97.8571L250.294 93.9961C252.24 91.6301 253.409 89.1051 253.777 86.4741C253.831 86.2731 253.863 86.0651 253.871 85.8541C253.878 85.7191 254.01 82.5241 254.004 80.6641C253.999 78.9971 253.925 76.8771 253.625 75.6041C252.831 67.8981 245.261 61.3771 233.305 58.1231C228.212 56.7361 222.725 56.0331 216.998 56.0331C212.283 56.0331 207.642 56.5131 203.201 57.4581C202.087 56.4774 200.918 55.5606 199.701 54.7121C199.515 54.5826 199.328 54.456 199.139 54.3321L199.019 54.2531L198.9 54.1741L198.513 53.9191C197.963 53.5711 197.405 53.2351 196.838 52.9131L196.719 52.8461L196.557 52.7541L196.145 52.5231C194.03 51.3811 192.956 50.9551 192.192 50.7851C189.433 49.7711 186.554 49.1211 183.627 48.8521C182.556 48.7531 181.481 48.7041 180.405 48.7031Z"/><path fill="#6D6D6D" d="M243.105 105.532C233.964 114.635 212.854 118.285 195.952 113.683C184.834 110.656 178.306 104.813 177.742 98.5779C177.448 95.3339 178.769 91.9839 181.896 88.8679C191.036 79.7649 212.146 76.1149 229.049 80.7169C245.952 85.3189 252.245 96.4289 243.105 105.532Z"/><path fill="#6D6D6D" d="M177.535 90.7519C177.276 91.1409 177.453 93.4559 177.449 95.2719C177.445 97.0879 177.838 99.3599 177.838 99.3599C177.838 99.3599 178.552 99.9429 179.395 97.6069C180.238 95.2709 177.973 90.0919 177.535 90.7519ZM247.008 88.0259C247.268 88.4149 247.392 90.8599 247.398 92.6769L247.268 97.7379C247.268 97.7379 246.425 97.3489 245.583 95.0119C244.741 92.6749 246.569 87.3669 247.008 88.0259Z"/><path fill="#C9C9C9" d="M242.891 97.7457C233.75 106.85 212.64 110.499 195.738 105.898C178.836 101.297 172.542 90.1857 181.682 81.0827C190.822 71.9797 211.931 68.3297 228.835 72.9317C245.739 77.5337 252.031 88.6437 242.891 97.7457Z"/><path fill="#C9C9C9" stroke="#6D6D6D" stroke-miterlimit="10" stroke-width="3.066" d="M238.058 95.2078C230.434 102.194 212.742 104.913 198.543 101.28C184.344 97.6468 179.012 89.0388 186.637 82.0528C194.262 75.0668 211.952 72.3478 226.152 75.9788C240.352 79.6098 245.681 88.2218 238.058 95.2078Z"/><path fill="#6D6D6D" d="M242.948 97.7594C233.794 106.878 212.646 110.534 195.715 105.925C178.784 101.316 172.479 90.1864 181.634 81.0674C190.789 71.9484 211.936 68.2924 228.868 72.9014C245.8 77.5104 252.105 88.6394 242.948 97.7594Z" opacity=".8"/><path fill="#6D6D6D" d="M246.804 93.5272C237.665 102.63 216.553 106.279 199.651 101.677C188.534 98.6502 182.006 92.8062 181.441 86.5722C181.148 83.3282 182.468 79.9772 185.596 76.8622C194.735 67.7582 215.845 64.1092 232.749 68.7112C249.653 73.3132 255.944 84.4212 246.804 93.5272Z"/><path fill="#6D6D6D" d="M181.234 78.7479C180.975 79.1379 181.153 81.4519 181.148 83.2679C181.143 85.0839 181.537 87.3559 181.537 87.3559C181.537 87.3559 182.25 87.9399 183.095 85.6039C183.94 83.2679 181.673 78.0889 181.234 78.7479ZM250.707 76.0219C250.967 76.4109 251.092 78.8559 251.098 80.6719L250.967 85.7329C250.967 85.7329 250.126 85.3439 249.282 83.0079C248.438 80.6719 250.269 75.3639 250.707 76.0219Z"/><path fill="#A8A8A8" d="M246.589 85.7424C237.45 94.8454 216.34 98.4944 199.436 93.8934C182.532 89.2924 176.242 78.1814 185.381 69.0784C194.52 59.9754 215.631 56.3254 232.534 60.9284C249.437 65.5314 255.729 76.6394 246.589 85.7424Z"/><path fill="#A8A8A8" stroke="#6D6D6D" stroke-miterlimit="10" stroke-width="1.1" d="M241.756 83.2089C234.134 90.1959 216.442 92.9139 202.242 89.2819C188.042 85.6499 182.712 77.0399 190.335 70.0539C197.958 63.0679 215.652 60.3479 229.851 63.9809C244.05 67.6139 249.38 76.2219 241.756 83.2089Z"/><path fill="#444" d="M202.586 114.97C202.586 114.97 205.454 112.511 207.633 107.996C208.275 106.666 212.543 103.636 212.543 103.636L214.975 96.2503C220.386 75.1353 204.054 60.2773 204.054 60.2773C204.054 60.2773 194.786 61.5163 187.49 67.1943C187.49 67.1943 184.152 69.6733 182.329 73.3883C181.565 74.9463 181.425 76.6473 181.222 78.7493C181.124 79.7543 181.194 84.4353 181.194 84.4353C181.194 84.4353 177.889 100.299 178.44 101.504C178.44 101.504 191.023 114.144 202.586 114.97Z" opacity=".8"/><path fill="#6D6D6D" d="M213.772 90.4264C211.287 108.082 195.092 121.083 177.6 119.46C160.108 117.837 147.941 102.209 150.427 84.5524C152.913 66.8954 169.107 53.8954 186.6 55.5164C204.093 57.1374 216.258 72.7674 213.772 90.4264Z"/><path fill="#6D6D6D" d="M152.487 103.148C152.487 103.148 155.808 108.068 160.285 112.023C165.439 116.576 171.179 118.233 171.179 118.233C171.179 118.233 158.97 111.12 152.487 103.148ZM212.315 75.2677C212.315 75.2677 207.576 61.9917 194.773 55.0827C181.97 48.1737 205.591 66.9257 212.315 75.2677Z"/><path fill="#C9C9C9" d="M210.528 86.6549C208.042 104.312 191.847 117.311 174.354 115.691C156.861 114.071 144.695 98.4399 147.181 80.7819C149.667 63.1239 165.862 50.1249 183.354 51.7459C200.846 53.3669 213.012 68.9959 210.528 86.6549Z"/><path fill="#C9C9C9" stroke="#6D6D6D" stroke-miterlimit="10" stroke-width="1.1" d="M204.638 86.1093C202.616 100.479 189.436 111.059 175.199 109.738C160.962 108.417 151.063 95.6993 153.086 81.3293C155.109 66.9593 168.287 56.3793 182.524 57.7003C196.761 59.0213 206.659 71.7403 204.638 86.1093Z"/><path fill="#EFEFEF" d="M168.71 71.7307C181.532 68.7247 194.928 68.0557 208.229 69.5347C203.941 59.8817 194.8 52.8627 183.391 51.8047C166.611 50.2487 151.033 62.1497 147.597 78.7097C154.404 75.7157 161.588 73.4007 168.71 71.7307Z" opacity=".4"/></g><defs><radialGradient id="paint0_radial_930_3294" cx="0" cy="0" r="1" gradientTransform="translate(142.845 200) scale(177.165 177.5)" gradientUnits="userSpaceOnUse"><stop stop-color="#E5ECAC"/><stop offset=".5" stop-color="#BDD26F"/><stop offset="1" stop-color="#98C52F"/></radialGradient><linearGradient id="paint1_linear_930_3294" x1="4335.1" x2="2797.85" y1="8530.65" y2="9313.66" gradientUnits="userSpaceOnUse"><stop stop-color="#4CE02D"/><stop offset=".094" stop-color="#52E733"/><stop offset=".17" stop-color="#44D626"/><stop offset=".341" stop-color="#3AC91D"/><stop offset=".525" stop-color="#37C41A"/><stop offset=".731" stop-color="#32BD15"/><stop offset="1" stop-color="#30BB13"/></linearGradient><linearGradient id="paint2_linear_930_3294" x1="77.279" x2="102.111" y1="148.195" y2="181.481" gradientUnits="userSpaceOnUse"><stop stop-color="#55EC36"/><stop offset=".195" stop-color="#45D727"/><stop offset=".419" stop-color="#39C71C"/><stop offset=".671" stop-color="#32BD15"/><stop offset="1" stop-color="#30BA13"/></linearGradient><linearGradient id="paint3_linear_930_3294" x1="4393.6" x2="2856.35" y1="8530.65" y2="9313.66" gradientUnits="userSpaceOnUse"><stop stop-color="#4CE02D"/><stop offset=".094" stop-color="#52E733"/><stop offset=".17" stop-color="#44D626"/><stop offset=".341" stop-color="#3AC91D"/><stop offset=".525" stop-color="#37C41A"/><stop offset=".731" stop-color="#32BD15"/><stop offset="1" stop-color="#30BB13"/></linearGradient><linearGradient id="paint4_linear_930_3294" x1="135.779" x2="160.611" y1="148.195" y2="181.481" gradientUnits="userSpaceOnUse"><stop stop-color="#55EC36"/><stop offset=".195" stop-color="#45D727"/><stop offset=".419" stop-color="#39C71C"/><stop offset=".671" stop-color="#32BD15"/><stop offset="1" stop-color="#30BA13"/></linearGradient><linearGradient id="paint5_linear_930_3294" x1="4452.1" x2="2914.85" y1="8530.65" y2="9313.66" gradientUnits="userSpaceOnUse"><stop stop-color="#4CE02D"/><stop offset=".094" stop-color="#52E733"/><stop offset=".17" stop-color="#44D626"/><stop offset=".341" stop-color="#3AC91D"/><stop offset=".525" stop-color="#37C41A"/><stop offset=".731" stop-color="#32BD15"/><stop offset="1" stop-color="#30BB13"/></linearGradient><linearGradient id="paint6_linear_930_3294" x1="194.279" x2="219.111" y1="148.195" y2="181.481" gradientUnits="userSpaceOnUse"><stop stop-color="#55EC36"/><stop offset=".195" stop-color="#45D727"/><stop offset=".419" stop-color="#39C71C"/><stop offset=".671" stop-color="#32BD15"/><stop offset="1" stop-color="#30BA13"/></linearGradient><clipPath id="clip0_930_3294"><rect width="291.969" height="406.205" fill="#fff"/></clipPath></defs></svg>