<svg xmlns="http://www.w3.org/2000/svg" width="292" height="407" fill="none" viewBox="0 0 292 407"><g clip-path="url(#clip0_930_3432)"><path fill="url(#paint0_radial_930_3432)" d="M16.2642 390C14.6284 389.998 13.0601 389.348 11.9034 388.191C10.7467 387.034 10.0961 385.466 10.0942 383.83V16.169C10.0964 14.5334 10.7471 12.9653 11.9038 11.8088C13.0605 10.6524 14.6286 10.0019 16.2642 10H269.425C271.061 10.0021 272.629 10.6527 273.785 11.8092C274.941 12.9656 275.592 14.5335 275.594 16.169V383.83C275.592 385.466 274.942 387.034 273.785 388.19C272.629 389.347 271.061 389.998 269.425 390H16.2642Z"/><path fill="#919191" d="M77.1019 111.989C76.6443 112.45 76.0994 112.817 75.4989 113.066C74.8989 113.315 74.2549 113.443 73.6039 113.441L56.1229 113.445C54.8114 113.444 53.5539 112.923 52.6264 111.996C51.6989 111.068 51.1772 109.811 51.1759 108.5L51.1719 97.8016C51.1719 96.4826 51.6889 95.2406 52.6249 94.3006C53.0829 93.8396 53.6269 93.4736 54.2269 93.2246C54.8269 92.9756 55.4699 92.8486 56.1199 92.8496H73.5999C74.9119 92.8496 76.1699 93.3706 77.0989 94.2966C78.0279 95.2226 78.5499 96.4826 78.5509 97.7946L78.5549 108.495C78.5549 109.812 78.0379 111.054 77.1019 111.989Z"/><path fill="#515151" d="M53.7031 95.46C53.9931 95.168 54.3381 94.938 54.7181 94.78C55.0981 94.622 55.5051 94.54 55.9161 94.54L73.8171 94.534C75.5371 94.534 76.9471 95.944 76.9471 97.668L76.9511 108.624C76.9471 109.454 76.6161 110.248 76.0291 110.834C75.4421 111.42 74.6471 111.751 73.8171 111.755L55.9201 111.756C55.0902 111.753 54.2951 111.422 53.7075 110.836C53.1199 110.25 52.7874 109.456 52.7821 108.626V97.672C52.7821 96.806 53.1371 96.027 53.7031 95.46ZM50.9661 92.725C50.3131 93.372 49.7961 94.143 49.4431 94.992C49.0901 95.841 48.9111 96.752 48.9141 97.672L48.9181 108.626C48.9201 110.481 49.6591 112.261 50.9711 113.572C52.2831 114.883 54.0621 115.622 55.9171 115.624L73.8141 115.623C75.6791 115.623 77.4391 114.89 78.7611 113.563C79.4139 112.917 79.9316 112.147 80.2839 111.299C80.6362 110.451 80.8161 109.541 80.8131 108.622L80.8091 97.666C80.8081 95.81 80.0701 94.03 78.7571 92.718C77.4441 91.406 75.6661 90.668 73.8101 90.667L55.9131 90.671C54.9936 90.6691 54.0829 90.8497 53.2338 91.2023C52.3846 91.5548 51.6138 92.0724 50.9661 92.725Z"/><path fill="#919191" d="M96.4954 166.134C96.0824 166.55 95.5904 166.88 95.0494 167.104C94.508 167.329 93.9276 167.444 93.3414 167.444L36.4084 167.451C35.8214 167.453 35.2414 167.338 34.6994 167.115C34.1571 166.891 33.6645 166.562 33.2504 166.147C32.8356 165.733 32.507 165.241 32.2834 164.699C32.0594 164.158 31.9449 163.578 31.9464 162.993L31.9424 150.183C31.9464 148.908 32.4624 148.121 32.9014 147.684C34.2614 146.326 36.7354 146.426 38.9244 147.919L43.6034 151.117C43.7155 151.195 43.8488 151.237 43.9854 151.237L85.7584 151.229C85.8959 151.23 86.0305 151.189 86.1444 151.112L90.8194 147.91C92.2484 146.936 94.3784 146.213 96.0874 147.118C97.1764 147.69 97.8034 148.802 97.8034 150.171V162.978C97.8034 163.564 97.6884 164.145 97.4634 164.686C97.239 165.228 96.9101 165.72 96.4954 166.134Z"/><path fill="#515151" d="M33.307 148.782C34.068 148.023 35.726 148.36 37.038 149.258L41.855 152.556C42.295 152.854 42.821 153.018 43.353 153.018L86.389 153.009C86.9235 153.008 87.4454 152.846 87.887 152.545L92.704 149.248C94.459 148.043 96.851 147.84 96.851 149.972L96.855 163.165C96.8552 163.513 96.7864 163.858 96.6525 164.18C96.5186 164.502 96.3224 164.794 96.075 165.04C95.83 165.286 95.538 165.482 95.216 165.615C94.894 165.748 94.55 165.817 94.202 165.815L35.547 165.828C34.8445 165.828 34.1708 165.548 33.674 165.052C33.177 164.556 32.898 163.882 32.898 163.18L32.894 149.98C32.892 149.435 33.048 149.047 33.307 148.782ZM30.555 146.031C29.841 146.745 28.999 148.005 28.999 149.981V163.18C29.001 164.915 29.692 166.577 30.92 167.805C32.1478 169.031 33.8119 169.719 35.547 169.72L94.202 169.711C95.0613 169.712 95.9123 169.543 96.706 169.214C97.5009 168.886 98.223 168.405 98.8308 167.797C99.4385 167.189 99.9199 166.467 100.247 165.672C100.576 164.877 100.745 164.026 100.743 163.166L100.739 149.974C100.739 147.85 99.693 146.031 97.933 145.103C95.407 143.772 92.439 144.714 90.505 146.04L86.006 149.118L43.735 149.122L39.235 146.049C36.146 143.934 32.658 143.928 30.555 146.031Z"/><path fill="#A4A4A4" d="M54.9336 104.404H74.7966V156.797H54.9336V104.404Z"/><path fill="#676767" d="M56.7818 106.059L72.9478 106.057L72.9588 155.137L56.7888 155.139L56.7818 106.059ZM52.8398 102.119V106.059L52.8508 155.14V159.084H56.7888L72.9588 159.083L76.9008 159.08V155.137L76.8898 106.055V102.113H72.9478L56.7818 102.119H52.8398Z"/><path fill="#898989" d="M67.4075 306.286C66.6465 307.055 65.5155 307.413 64.3875 307.252C63.8655 307.182 63.3669 306.992 62.9315 306.696C62.4965 306.4 62.1365 306.006 61.8805 305.545L49.0855 281.888L49.0635 160.054L80.7365 160.048L80.7595 281.885L67.9685 305.544C67.8205 305.818 67.6305 306.068 67.4075 306.286Z"/><path fill="#676767" d="M50.7024 160.805L79.0964 160.799L79.1184 282.394L66.3274 306.049C66.2675 306.163 66.1904 306.27 66.0974 306.361C65.4014 307.059 64.0134 306.953 63.5214 306.05L50.7264 282.4L50.7024 160.805ZM46.8564 156.96V160.809L46.8784 282.4L46.8824 283.374L47.3454 284.232L60.1404 307.88C60.9424 309.359 62.3884 310.351 64.1044 310.604C64.9546 310.733 65.8231 310.663 66.6414 310.399C67.4596 310.135 68.2049 309.683 68.8184 309.081C69.1714 308.726 69.4754 308.323 69.7134 307.878L82.4994 284.225L82.9624 283.367V282.393L82.9434 160.799V156.955H79.0954L50.7014 156.96H46.8564Z"/><path fill="#E4E4E4" d="M56.8828 112.652H68.9208V154.847H56.8828V112.652Z"/><path fill="#E4E4E4" d="M76.7229 111.609C76.3143 112.02 75.8283 112.346 75.2929 112.568C74.7576 112.79 74.1836 112.904 73.6039 112.904L56.1229 112.907C54.9539 112.906 53.8339 112.44 53.0069 111.614C52.1799 110.788 51.7159 109.666 51.7149 108.498L51.7109 97.8007C51.7109 96.6237 52.1699 95.5187 53.0039 94.6847C53.4109 94.2737 53.8969 93.9467 54.4319 93.7247C54.967 93.5033 55.5408 93.3904 56.1199 93.3927L73.6009 93.3887C74.1804 93.3866 74.7544 93.4994 75.2899 93.7207C75.8259 93.9407 76.3119 94.2647 76.7219 94.6747C77.1315 95.0843 77.4563 95.5706 77.6779 96.1057C77.8993 96.6409 78.0128 97.2145 78.0119 97.7937L78.0159 108.495C78.0159 109.668 77.5569 110.775 76.7229 111.609Z"/><path fill="#515151" d="M53.9584 95.6361C54.2413 95.3512 54.5777 95.1252 54.9484 94.9711C55.3191 94.8165 55.7167 94.7366 56.1184 94.7361L73.6034 94.7331C74.414 94.7363 75.1904 95.0599 75.7633 95.6333C76.3362 96.2068 76.659 96.9835 76.6614 97.7941L76.6654 108.494C76.6626 109.305 76.3394 110.081 75.7664 110.654C75.1934 111.227 74.4164 111.549 73.6064 111.551L56.1254 111.553C55.3142 111.552 54.5366 111.229 53.9624 110.656C53.3884 110.083 53.0644 109.306 53.0604 108.494V97.7951C53.0604 96.9521 53.4064 96.1891 53.9584 95.6361ZM52.0504 93.7291C51.5134 94.2631 51.0884 94.8961 50.7984 95.5951C50.5084 96.2941 50.3614 97.0421 50.3634 97.8001V108.498C50.3585 109.256 50.5042 110.007 50.792 110.708C51.0798 111.409 51.504 112.046 52.04 112.581C52.576 113.117 53.2131 113.541 53.9143 113.828C54.6154 114.115 55.3667 114.261 56.1244 114.255L73.6054 114.251C75.1424 114.251 76.5864 113.653 77.6754 112.563C78.2109 112.03 78.6356 111.395 78.925 110.697C79.2143 109.999 79.3627 109.25 79.3614 108.494V97.7941C79.3632 97.0378 79.215 96.2887 78.9254 95.5901C78.6364 94.8911 78.2104 94.2561 77.6744 93.7221C77.1384 93.1881 76.5044 92.7621 75.8054 92.4731C75.1064 92.1841 74.3564 92.0371 73.6004 92.0381L56.1194 92.0401C55.3634 92.0391 54.6134 92.1871 53.9154 92.4781C53.2174 92.7691 52.5824 93.1941 52.0494 93.7301L52.0504 93.7291Z"/><path fill="#E4E4E4" d="M96.1153 165.751C95.7522 166.116 95.3202 166.406 94.8444 166.604C94.3684 166.801 93.8584 166.903 93.3434 166.902L36.4084 166.911C35.3614 166.911 34.3754 166.502 33.6364 165.762C33.2717 165.399 32.9825 164.967 32.7854 164.492C32.5884 164.016 32.4874 163.507 32.4894 162.991L32.4854 150.182C32.4854 149.097 32.9213 148.43 33.2873 148.065C34.6523 146.699 37.0103 147.265 38.6203 148.363L43.2994 151.562C43.5029 151.702 43.7442 151.777 43.9914 151.777L85.7644 151.768C86.0124 151.768 86.2494 151.696 86.4524 151.555L91.1273 148.356C92.3663 147.513 94.3414 146.804 95.8373 147.595C96.3694 147.874 97.2624 148.584 97.2624 150.171V162.977C97.2624 164.025 96.8553 165.012 96.1153 165.751Z"/><path fill="#515151" d="M34.2329 149.016C34.9699 148.278 36.5799 148.608 37.8499 149.479L42.5289 152.676C42.9559 152.969 43.4619 153.128 43.9779 153.128L85.7549 153.116C86.2725 153.116 86.7781 152.96 87.2049 152.667L91.8839 149.47C93.5889 148.3 95.9059 148.103 95.9059 150.171L95.9099 162.976C95.9099 163.688 95.6229 164.334 95.1559 164.796C94.9178 165.036 94.6344 165.226 94.3221 165.356C94.0098 165.485 93.6749 165.551 93.3369 165.55L36.4019 165.563C36.064 165.563 35.7295 165.496 35.4173 165.367C35.1052 165.238 34.8217 165.048 34.5829 164.809C34.1009 164.327 33.8299 163.673 33.8289 162.991L33.8249 150.18C33.8249 149.651 33.9769 149.273 34.2329 149.016ZM32.3249 147.108C31.7779 147.655 31.1289 148.632 31.1289 150.18L31.1329 162.991C31.1339 164.388 31.6899 165.728 32.6779 166.716C33.6659 167.704 35.0069 168.258 36.4039 168.258L93.3369 168.249C94.7469 168.249 96.0699 167.701 97.0639 166.707C98.0579 165.713 98.6089 164.387 98.6089 162.976L98.6049 150.171C98.6049 148.492 97.8219 147.12 96.4599 146.397C94.4299 145.331 91.9789 146.132 90.3579 147.242L85.7169 150.417L44.0209 150.424L39.3759 147.252C36.8559 145.528 33.9609 145.472 32.3249 147.108Z"/><path fill="#676767" d="M73.6926 145.396V143.488C73.6926 143.488 70.1986 142.399 64.8706 142.4C59.5426 142.401 56.1046 143.492 56.1046 143.492L56.1086 145.4C56.1086 145.4 60.9586 144.307 64.8706 144.307C68.7766 144.307 73.6926 145.396 73.6926 145.396ZM73.6926 134.028V132.118C73.6926 132.118 70.1946 131.028 64.8686 131.03C59.5426 131.032 56.1066 132.121 56.1066 132.121L56.1026 134.029C56.1026 134.029 60.9606 132.936 64.8686 132.936C68.7766 132.936 73.6926 134.028 73.6926 134.028ZM73.6886 123.699V121.79C73.6886 121.79 70.1946 120.703 64.8666 120.703C59.5386 120.703 56.1006 121.796 56.1006 121.796V123.703C56.1006 123.703 60.9586 122.614 64.8666 122.611C68.7746 122.608 73.6886 123.699 73.6886 123.699Z"/><path fill="#BBB" d="M63.5451 305.607L50.9721 282.37L50.9531 177.771L78.8511 177.768L78.8701 282.363L66.3041 305.607C65.7611 306.612 64.0881 306.608 63.5451 305.607Z"/><path fill="#E4E4E4" d="M64.9221 306.358C64.3681 306.358 63.8181 306.107 63.5451 305.607L50.9721 282.371L50.9531 177.772L64.9051 177.77L64.9221 306.358Z"/><path stroke="#676767" stroke-miterlimit="10" stroke-width="3" d="M49.6172 176.815L79.9492 176.736"/><path fill="#E4E4E4" d="M91.711 150.552C91.719 150.263 91.658 149.976 91.532 149.715L87.212 152.668C86.7859 152.962 86.2805 153.119 85.763 153.118L82.899 153.122C82.496 153.368 82.034 153.5 81.561 153.502L39.784 153.51C39.267 153.508 38.762 153.352 38.335 153.06L33.851 149.993C33.847 150.054 33.832 150.115 33.832 150.182L33.836 162.992C33.836 163.33 33.903 163.664 34.033 163.977C34.1633 164.289 34.3532 164.573 34.592 164.812C34.831 165.05 35.115 165.24 35.428 165.369C35.7404 165.498 36.0751 165.564 36.413 165.564L90.477 165.551C91.216 165.099 91.716 164.292 91.716 163.361L91.711 150.552ZM54.675 95.1202C54.1893 95.3798 53.7829 95.7662 53.499 96.2382C53.215 96.7092 53.064 97.2492 53.061 97.8002L53.065 108.498C53.065 110.181 54.442 111.556 56.126 111.553H70.854C71.813 111.035 72.468 110.035 72.468 108.876L72.464 98.1762C72.4611 97.3654 72.1376 96.5888 71.5642 96.0156C70.9907 95.4425 70.2138 95.1196 69.403 95.1172L54.675 95.1202Z"/><path fill="#F7F7F7" d="M55.6441 96.6846L64.6841 96.6836C64.9755 96.6875 65.2593 96.7767 65.5005 96.9403C65.7417 97.1038 65.9296 97.3345 66.041 97.6037C66.1524 97.873 66.1825 98.169 66.1274 98.4551C66.0723 98.7412 65.9345 99.0049 65.7311 99.2136C65.4531 99.4909 65.0768 99.6472 64.6841 99.6486L55.6441 99.6506C55.2511 99.6496 54.8741 99.4936 54.5961 99.2146C54.3181 98.9356 54.1621 98.5586 54.1611 98.1666C54.1611 97.3526 54.8271 96.6846 55.6441 96.6846ZM43.9361 157.886L66.9631 157.883C67.3571 157.882 67.7341 157.725 68.0121 157.446C68.2901 157.167 68.4461 156.79 68.4461 156.396C68.4445 156.003 68.2878 155.626 68.0101 155.349C67.7321 155.073 67.3561 154.916 66.9631 154.915L43.9361 154.917C43.543 154.918 43.1666 155.076 42.8888 155.354C42.611 155.632 42.4544 156.008 42.4531 156.402C42.4547 156.795 42.6114 157.171 42.8892 157.449C43.1669 157.727 43.5432 157.884 43.9361 157.886Z"/><path fill="#916136" d="M234.103 111.99C233.644 112.451 233.099 112.817 232.498 113.066C231.898 113.315 231.254 113.442 230.604 113.44L213.121 113.444C211.809 113.443 210.551 112.922 209.624 111.994C208.696 111.067 208.174 109.81 208.172 108.499V97.7996C208.172 96.4796 208.685 95.2376 209.622 94.3006C210.079 93.8391 210.624 93.4733 211.224 93.2246C211.824 92.9759 212.467 92.8484 213.117 92.8496H230.599C231.911 92.8497 233.17 93.3709 234.098 94.2986C235.027 95.2246 235.549 96.4826 235.551 97.7946V108.495C235.553 109.144 235.427 109.788 235.179 110.389C234.93 110.989 234.564 111.532 234.103 111.99Z"/><path fill="#42250D" d="M210.697 95.457C211.285 94.8697 212.081 94.5392 212.912 94.538L230.814 94.532C231.644 94.5367 232.438 94.8686 233.025 95.4556C233.611 96.0426 233.942 96.8373 233.946 97.667L233.95 108.621C233.95 109.033 233.868 109.44 233.71 109.82C233.551 110.2 233.318 110.545 233.025 110.834C232.439 111.421 231.643 111.751 230.814 111.753L212.915 111.756C212.085 111.752 211.29 111.421 210.703 110.835C210.116 110.248 209.784 109.454 209.779 108.624V97.67C209.779 97.2589 209.861 96.8519 210.018 96.4722C210.176 96.0925 210.406 95.7475 210.697 95.457ZM207.965 92.723C207.312 93.3704 206.794 94.1412 206.441 94.9907C206.088 95.8401 205.908 96.7512 205.91 97.671L205.915 108.625C205.916 110.481 206.655 112.259 207.967 113.572C209.279 114.885 211.058 115.622 212.913 115.624L230.812 115.622C231.732 115.623 232.643 115.442 233.492 115.089C234.341 114.736 235.112 114.217 235.759 113.564C236.413 112.917 236.929 112.147 237.281 111.298C237.634 110.45 237.814 109.54 237.811 108.621V97.667C237.809 95.8108 237.07 94.0314 235.757 92.7191C234.444 91.4068 232.664 90.6688 230.808 90.667L212.91 90.671C211.045 90.671 209.287 91.399 207.965 92.723Z"/><path fill="#916136" d="M253.495 166.135C253.081 166.55 252.589 166.879 252.047 167.104C251.505 167.329 250.925 167.444 250.338 167.443L193.405 167.451C192.819 167.454 192.237 167.339 191.696 167.115C191.154 166.891 190.662 166.561 190.248 166.145C189.833 165.732 189.504 165.24 189.279 164.699C189.055 164.158 188.94 163.577 188.941 162.991L188.938 150.182C188.941 148.908 189.462 148.12 189.9 147.683C191.259 146.326 193.731 146.424 195.92 147.919L200.6 151.117C200.713 151.194 200.848 151.236 200.985 151.236L242.756 151.227C242.893 151.228 243.028 151.186 243.142 151.109L247.817 147.908C249.246 146.932 251.376 146.211 253.087 147.114C254.175 147.686 254.802 148.799 254.802 150.167V162.976C254.803 163.562 254.687 164.143 254.463 164.685C254.238 165.227 253.909 165.719 253.495 166.135Z"/><path fill="#42250D" d="M190.307 148.784C191.067 148.024 192.728 148.362 194.039 149.261L198.854 152.557C199.297 152.857 199.819 153.019 200.351 153.019L243.392 153.01C243.924 153.01 244.443 152.848 244.886 152.548L249.704 149.252C251.461 148.047 253.848 147.842 253.848 149.973L253.851 163.167C253.852 163.515 253.784 163.86 253.651 164.182C253.518 164.504 253.323 164.796 253.077 165.042C252.831 165.287 252.539 165.483 252.217 165.617C251.896 165.75 251.552 165.819 251.204 165.819L192.544 165.83C191.081 165.83 189.896 164.642 189.893 163.179V149.979C189.893 149.436 190.046 149.047 190.307 148.784ZM187.555 146.032C186.844 146.744 186 148.002 186 149.98V163.179C186.002 164.914 186.693 166.578 187.921 167.805C189.148 169.031 190.813 169.72 192.548 169.721L251.204 169.712C252.063 169.713 252.914 169.545 253.708 169.215C254.501 168.886 255.222 168.403 255.828 167.795C256.437 167.188 256.92 166.467 257.249 165.673C257.577 164.878 257.745 164.027 257.743 163.167L257.739 149.973C257.739 147.849 256.693 146.032 254.935 145.103C252.411 143.77 249.441 144.712 247.504 146.04L243.006 149.117L200.733 149.123L196.232 146.049C193.144 143.935 189.657 143.929 187.555 146.032Z"/><path fill="#9B7753" d="M211.93 104.404H231.792V156.799H211.93V104.404Z"/><path fill="#603913" d="M213.775 106.059L229.944 106.056L229.954 155.138L213.787 155.139L213.775 106.059ZM209.836 102.117V106.059L209.848 155.142V159.083H213.787L229.954 159.081L233.898 159.078V155.138L233.886 106.055V102.111H229.944L213.775 102.117H209.836Z"/><path fill="#636362" d="M224.413 306.29C223.647 307.058 222.518 307.416 221.39 307.256C220.867 307.186 220.368 306.996 219.933 306.7C219.496 306.404 219.135 306.009 218.88 305.548L206.084 281.892L206.062 160.057L237.735 160.051L237.761 281.889L224.97 305.546C224.817 305.82 224.634 306.074 224.413 306.29Z"/><path fill="#414042" d="M207.704 160.805L236.099 160.799L236.121 282.396L223.329 306.05C223.269 306.167 223.191 306.273 223.097 306.364C222.404 307.063 221.017 306.956 220.525 306.052L207.726 282.402L207.704 160.805ZM203.859 156.962V160.809L203.881 282.402V283.377L204.348 284.233L217.143 307.883C217.945 309.364 219.39 310.355 221.108 310.607C222.85 310.862 224.616 310.291 225.82 309.083C226.173 308.728 226.48 308.325 226.715 307.882L239.503 284.226L239.961 283.368V282.394L239.943 160.799V156.955H236.097L207.704 156.962H203.859Z"/><path fill="#C49A6C" d="M213.879 112.648H225.918V154.847H213.879V112.648Z"/><path fill="#633B1A" d="M233.72 111.608C233.311 112.018 232.826 112.345 232.291 112.566C231.756 112.787 231.182 112.902 230.603 112.901L213.12 112.904C211.951 112.903 210.83 112.438 210.004 111.612C209.178 110.785 208.713 109.664 208.711 108.495V97.7977C208.705 96.9246 208.961 96.0697 209.446 95.3434C209.93 94.6171 210.622 94.0526 211.43 93.7227C211.965 93.5014 212.538 93.3886 213.117 93.3907L230.6 93.3867C231.179 93.3857 231.752 93.4987 232.288 93.7187C232.823 93.9398 233.31 94.2643 233.719 94.6737C234.546 95.5013 235.011 96.6229 235.012 97.7927L235.016 108.491C235.017 109.072 234.904 109.645 234.681 110.18C234.459 110.715 234.132 111.201 233.72 111.608Z"/><path fill="#42250D" d="M210.956 95.6371C211.528 95.0631 212.305 94.7401 213.115 94.7381L230.602 94.7331C231.413 94.736 232.19 95.0595 232.763 95.6329C233.336 96.2064 233.659 96.9833 233.661 97.7941L233.664 108.494C233.664 109.335 233.318 110.098 232.762 110.655C232.19 111.229 231.413 111.552 230.603 111.553L213.121 111.556C212.309 111.553 211.532 111.23 210.958 110.656C210.384 110.082 210.061 109.306 210.057 108.494V97.7971C210.057 96.9541 210.405 96.1931 210.956 95.6371ZM209.049 93.7311C208.511 94.2641 208.087 94.8981 207.796 95.5961C207.505 96.2941 207.358 97.0441 207.359 97.8011L207.364 108.499C207.362 109.255 207.51 110.005 207.8 110.703C208.09 111.402 208.515 112.036 209.052 112.569C209.585 113.106 210.219 113.531 210.918 113.82C211.617 114.109 212.365 114.259 213.121 114.257L230.603 114.252C232.139 114.252 233.587 113.655 234.675 112.565C235.211 112.031 235.636 111.398 235.926 110.699C236.216 110 236.362 109.251 236.361 108.495V97.7951C236.361 96.2601 235.764 94.8161 234.672 93.7241C234.139 93.1881 233.504 92.7636 232.804 92.4751C232.105 92.1858 231.356 92.0377 230.599 92.0391L213.118 92.0411C212.362 92.0399 211.613 92.1888 210.915 92.479C210.216 92.7693 209.582 93.1942 209.049 93.7311Z"/><path fill="#633B1A" d="M253.119 165.755C252.755 166.119 252.324 166.409 251.848 166.606C251.372 166.803 250.863 166.904 250.348 166.904L193.405 166.914C192.891 166.915 192.381 166.815 191.905 166.618C191.429 166.421 190.997 166.132 190.634 165.767C190.268 165.405 189.979 164.972 189.781 164.496C189.584 164.02 189.483 163.51 189.484 162.995V150.187C189.484 149.099 189.916 148.434 190.286 148.067C191.651 146.701 194.007 147.269 195.62 148.367L200.296 151.566C200.499 151.705 200.741 151.78 200.988 151.78L242.761 151.771C243.007 151.772 243.248 151.698 243.45 151.559L248.126 148.36C249.364 147.517 251.338 146.806 252.837 147.599C253.369 147.877 254.261 148.587 254.261 150.173V162.981C254.265 163.497 254.165 164.007 253.969 164.483C253.773 164.959 253.484 165.391 253.119 165.755Z"/><path fill="#42250D" d="M191.235 149.016C191.974 148.278 193.584 148.608 194.858 149.479L199.533 152.678C199.961 152.971 200.466 153.127 200.985 153.127L242.76 153.118C243.276 153.118 243.783 152.959 244.213 152.669L248.889 149.47C250.593 148.3 252.912 148.102 252.912 150.17L252.916 162.976C252.916 163.687 252.629 164.335 252.158 164.797C251.921 165.036 251.637 165.226 251.326 165.356C251.015 165.486 250.679 165.552 250.341 165.549L193.405 165.564C193.068 165.564 192.733 165.497 192.42 165.369C192.108 165.239 191.825 165.048 191.587 164.809C191.347 164.57 191.158 164.287 191.03 163.974C190.9 163.662 190.834 163.328 190.834 162.99L190.831 150.182C190.832 149.65 190.985 149.274 191.235 149.016ZM189.331 147.107C188.785 147.653 188.133 148.63 188.133 150.179L188.136 162.988C188.137 164.386 188.694 165.725 189.682 166.713C190.171 167.202 190.752 167.59 191.392 167.855C192.031 168.12 192.717 168.256 193.409 168.256L250.343 168.247C251.035 168.249 251.721 168.114 252.361 167.85C253.001 167.586 253.583 167.197 254.071 166.706C254.561 166.216 254.951 165.635 255.216 164.995C255.481 164.355 255.617 163.668 255.615 162.975L255.611 150.168C255.611 148.49 254.829 147.117 253.468 146.397C251.435 145.328 248.986 146.13 247.365 147.239L242.723 150.414L201.025 150.424L196.383 147.249C193.866 145.529 190.966 145.47 189.331 147.107Z"/><path fill="#603913" d="M230.688 145.396V143.488C230.688 143.488 227.193 142.399 221.87 142.4C216.54 142.402 213.102 143.493 213.102 143.493L213.106 145.402C213.106 145.402 217.956 144.307 221.87 144.307C225.778 144.307 230.688 145.396 230.688 145.396ZM230.688 134.028V132.12C230.688 132.12 227.193 131.03 221.863 131.033C216.533 131.036 213.102 132.123 213.102 132.123L213.098 134.03C213.098 134.03 217.955 132.937 221.866 132.937C225.777 132.937 230.688 134.028 230.688 134.028ZM230.687 123.7V121.793C230.687 121.793 227.192 120.703 221.864 120.703C216.536 120.703 213.1 121.798 213.1 121.798V123.706C213.1 123.706 217.956 122.615 221.864 122.612C225.772 122.609 230.687 123.7 230.687 123.7Z"/><path fill="#939598" d="M220.545 305.61L207.972 282.373L207.953 177.772L235.854 177.771L235.869 282.367L223.307 305.611C222.764 306.615 221.088 306.613 220.545 305.61Z"/><path fill="#BCBEC0" d="M221.925 306.361C221.371 306.361 220.821 306.108 220.549 305.609L207.972 282.373L207.953 177.771L221.902 177.768C221.905 177.77 222.479 306.361 221.925 306.361Z"/><path stroke="#414042" stroke-miterlimit="10" stroke-width="3" d="M206.621 176.819L236.954 176.74"/><path fill="#916136" d="M248.714 150.552C248.722 150.263 248.659 149.974 248.533 149.714L244.214 152.669C243.787 152.961 243.283 153.118 242.765 153.118L239.899 153.12C239.497 153.368 239.035 153.499 238.563 153.5L196.789 153.507C196.272 153.507 195.762 153.351 195.337 153.058L190.851 149.993L190.836 150.182L190.839 162.99C190.839 163.329 190.905 163.664 191.035 163.976C191.165 164.289 191.354 164.572 191.593 164.812C191.833 165.051 192.117 165.24 192.429 165.37C192.742 165.499 193.077 165.565 193.415 165.565L247.479 165.55C247.856 165.323 248.169 165.002 248.385 164.618C248.602 164.235 248.717 163.802 248.717 163.361V150.552H248.714ZM211.676 95.1192C211.191 95.3802 210.784 95.7652 210.5 96.2362C210.217 96.7082 210.066 97.2478 210.064 97.7982L210.067 108.495C210.067 110.179 211.443 111.556 213.127 111.553H227.856C228.81 111.034 229.468 110.034 229.468 108.874L229.464 98.1742C229.464 96.4932 228.089 95.1152 226.405 95.1172L211.676 95.1182V95.1192Z"/><path fill="#B78358" d="M212.643 96.6856L221.681 96.6836C222.066 96.6976 222.429 96.8596 222.697 97.1366C222.965 97.4136 223.112 97.7826 223.112 98.1676C223.112 98.5526 222.963 98.9216 222.697 99.1976C222.431 99.4736 222.066 99.6366 221.681 99.6506L212.646 99.6526C212.252 99.6516 211.874 99.4956 211.596 99.2166C211.458 99.0789 211.348 98.9152 211.274 98.735C211.199 98.5548 211.161 98.3616 211.161 98.1666C211.161 97.3536 211.825 96.6856 212.643 96.6856ZM200.938 157.889L223.963 157.885C224.343 157.867 224.702 157.701 224.965 157.425C225.228 157.149 225.375 156.783 225.375 156.401C225.375 156.019 225.228 155.654 224.965 155.377C224.702 155.1 224.343 154.936 223.963 154.917L200.935 154.919C200.543 154.922 200.166 155.08 199.888 155.357C199.61 155.634 199.454 156.012 199.453 156.405C199.455 156.798 199.612 157.175 199.89 157.453C200.168 157.731 200.545 157.887 200.938 157.889Z"/><path fill="#F6FAF6" d="M144.301 170.578C142.831 170.579 141.421 171.163 140.38 172.201C139.339 173.24 138.752 174.648 138.746 176.118V185.233H112.234C110.952 185.234 109.723 185.744 108.816 186.651C107.91 187.558 107.4 188.787 107.398 190.069V215.419C107.4 216.701 107.91 217.93 108.816 218.837C109.723 219.744 110.952 220.254 112.234 220.255H138.746V229.37C138.752 230.84 139.339 232.249 140.38 233.287C141.421 234.325 142.831 234.909 144.301 234.91C145.635 234.91 146.885 234.436 147.912 233.539L178.44 206.913C179.034 206.393 179.511 205.753 179.838 205.033C180.165 204.314 180.333 203.534 180.333 202.744C180.333 201.954 180.164 201.173 179.838 200.454C179.512 199.735 179.034 199.094 178.44 198.575L147.912 171.948C146.917 171.064 145.632 170.577 144.301 170.578Z"/><path fill="#223948" d="M144.237 233.999C145.182 233.999 146.148 233.676 146.973 232.957L177.498 206.33C177.949 205.936 178.311 205.45 178.56 204.905C178.808 204.359 178.937 203.766 178.937 203.167C178.937 202.568 178.808 201.975 178.56 201.429C178.311 200.884 177.949 200.398 177.498 200.004L146.969 173.377C146.216 172.707 145.243 172.337 144.235 172.335C142.069 172.335 140.013 174.032 140.013 176.541V186.99H112.17C111.71 186.99 111.255 187.08 110.83 187.256C110.405 187.432 110.018 187.69 109.693 188.015C109.368 188.34 109.11 188.727 108.934 189.152C108.758 189.577 108.668 190.032 108.668 190.492V215.842C108.668 216.302 108.758 216.757 108.934 217.182C109.11 217.607 109.368 217.994 109.693 218.319C110.018 218.644 110.405 218.902 110.83 219.078C111.255 219.254 111.71 219.344 112.17 219.344H140.016V229.795C140.016 232.303 142.072 233.999 144.237 233.999ZM144.237 236.667C140.439 236.667 137.348 233.582 137.348 229.795V222.012H112.17C110.534 222.011 108.966 221.36 107.809 220.203C106.652 219.046 106.002 217.478 106 215.842V190.492C106.002 188.856 106.652 187.288 107.809 186.131C108.966 184.974 110.534 184.323 112.17 184.322H137.348V176.541C137.352 174.717 138.08 172.968 139.371 171.68C140.663 170.391 142.413 169.667 144.237 169.667C145.889 169.672 147.483 170.276 148.724 171.367L179.25 197.993C179.989 198.637 180.581 199.433 180.986 200.325C181.392 201.218 181.602 202.187 181.602 203.167C181.602 204.147 181.392 205.116 180.986 206.009C180.581 206.901 179.989 207.697 179.25 208.341L148.724 234.969C147.482 236.058 145.888 236.661 144.237 236.667Z"/><path fill="#CDEBFF" d="M265.594 20V380H20.0942V20H265.594ZM269.425 0H16.2642C7.33324 0 0.0942383 7.239 0.0942383 16.169V383.83C0.0942383 392.761 7.33324 400 16.2642 400H269.425C278.355 400 285.594 392.761 285.594 383.83V16.169C285.594 7.239 278.354 0 269.425 0Z"/><path fill="#414042" d="M269.425 10C271.061 10.0021 272.629 10.6527 273.785 11.8092C274.941 12.9656 275.592 14.5335 275.594 16.169V383.83C275.592 385.466 274.942 387.034 273.785 388.19C272.629 389.347 271.061 389.998 269.425 390H16.2642C14.6284 389.998 13.0601 389.348 11.9034 388.191C10.7467 387.034 10.0961 385.466 10.0942 383.83V16.169C10.0964 14.5334 10.7471 12.9653 11.9038 11.8088C13.0605 10.6524 14.6286 10.0019 16.2642 10H269.425ZM269.425 0H16.2642C7.33324 0 0.0942383 7.239 0.0942383 16.169V383.83C0.0942383 392.761 7.33324 400 16.2642 400H269.425C278.355 400 285.594 392.761 285.594 383.83V16.169C285.594 7.239 278.354 0 269.425 0Z"/></g><defs><radialGradient id="paint0_radial_930_3432" cx="0" cy="0" r="1" gradientTransform="translate(142.844 200) scale(177.165 177.499)" gradientUnits="userSpaceOnUse"><stop stop-color="#A4C7DC"/><stop offset=".495" stop-color="#85AEC0"/><stop offset="1" stop-color="#6696A4"/></radialGradient><clipPath id="clip0_930_3432"><rect width="291.969" height="406.205" fill="#fff"/></clipPath></defs></svg>