<svg width="292" height="407" viewBox="0 0 292 407" fill="none" xmlns="http://www.w3.org/2000/svg">
<g clip-path="url(#clip0_930_3389)">
<path d="M16.2642 390C14.6284 389.998 13.0601 389.348 11.9034 388.191C10.7467 387.034 10.0961 385.466 10.0942 383.83V16.169C10.0964 14.5334 10.7471 12.9653 11.9038 11.8088C13.0605 10.6524 14.6286 10.0019 16.2642 10H269.425C271.061 10.0021 272.629 10.6527 273.785 11.8092C274.941 12.9656 275.592 14.5335 275.594 16.169V383.83C275.592 385.466 274.942 387.034 273.785 388.19C272.629 389.347 271.061 389.998 269.425 390H16.2642Z" fill="url(#paint0_radial_930_3389)"/>
<g opacity="0.3">
<path opacity="0.3" d="M148.261 125.247C148.009 125.247 147.768 125.147 147.59 124.969C147.411 124.791 147.311 124.549 147.311 124.298V112.568C147.311 112.319 147.409 112.08 147.583 111.903L179.382 79.4519C186.9 71.9329 190.708 65.4059 190.708 60.0449C190.708 51.9489 185.68 46.9199 177.584 46.9199C170.267 46.9199 165.005 50.4539 161.496 57.7219C161.439 57.8399 161.358 57.9449 161.258 58.0309C161.158 58.1169 161.042 58.1799 160.917 58.2179C160.791 58.2559 160.659 58.2675 160.529 58.2519C160.398 58.2359 160.273 58.1939 160.16 58.1269L147.517 50.6979C147.312 50.5778 147.16 50.3856 147.09 50.1589C147.021 49.9319 147.038 49.6879 147.139 49.4729C152.87 37.3659 163.919 30.4219 177.455 30.4219C185.833 30.4219 192.975 33.0479 198.683 38.2269C204.596 43.4659 207.599 50.6339 207.599 59.5239C207.599 68.9459 202.289 79.1659 191.817 89.8999L172.842 108.878H208.343C208.595 108.878 208.836 108.978 209.014 109.156C209.192 109.335 209.292 109.576 209.292 109.828V124.296C209.292 124.547 209.192 124.789 209.014 124.967C208.836 125.145 208.595 125.245 208.343 125.245H148.261V125.247Z" fill="#223948"/>
<path opacity="0.3" d="M177.53 32.3219C185.608 32.3219 192.517 34.7969 198.119 39.8799C203.856 44.9639 206.724 51.8719 206.724 60.4739C206.724 69.7279 201.509 79.6319 191.212 90.1869L170.623 110.779H208.416V125.246H148.336V113.517L180.136 81.0648C187.824 73.3749 191.733 66.5989 191.733 60.9939C191.733 52.1329 186 46.9189 177.66 46.9189C169.969 46.9189 164.364 50.6999 160.715 58.2569L148.072 50.8289C153.808 38.7099 164.886 32.3229 177.53 32.3229V32.3219ZM177.53 30.4229C163.612 30.4229 152.249 37.5649 146.356 50.0169C146.153 50.4459 146.118 50.9353 146.258 51.3889C146.397 51.8419 146.702 52.2269 147.111 52.4669L159.754 59.8959C159.981 60.0289 160.232 60.1129 160.493 60.1439C160.754 60.1749 161.018 60.1509 161.269 60.0749C161.52 59.9989 161.752 59.8709 161.952 59.6999C162.152 59.5289 162.313 59.3189 162.427 59.0829C165.762 52.1759 170.745 48.8179 177.661 48.8179C185.17 48.8179 189.835 53.4839 189.835 60.9939C189.835 66.0229 186.016 72.4989 178.794 79.7229L146.98 112.189C146.632 112.544 146.438 113.021 146.438 113.518V125.247C146.438 125.751 146.638 126.234 146.994 126.59C147.35 126.947 147.834 127.147 148.337 127.147H208.417C208.921 127.147 209.404 126.947 209.76 126.59C210.116 126.234 210.316 125.751 210.316 125.247V110.78C210.316 110.276 210.116 109.793 209.76 109.437C209.404 109.08 208.921 108.88 208.417 108.88H175.209L192.556 91.5309C203.223 80.5959 208.624 70.1539 208.624 60.4749C208.624 51.3019 205.514 43.8949 199.38 38.4599C193.507 33.1339 186.151 30.4249 177.53 30.4249V30.4229ZM91.9848 109.254C91.7328 109.254 91.4918 109.154 91.3138 108.975C91.1359 108.797 91.0359 108.556 91.0358 108.304V87.2279H69.9588C69.7068 87.2279 69.4652 87.1278 69.287 86.9496C69.1089 86.7714 69.0088 86.5298 69.0088 86.2779V72.9849C69.0088 72.7329 69.1089 72.4913 69.287 72.3131C69.4652 72.1349 69.7068 72.0349 69.9588 72.0349H91.0348V50.9599C91.0348 50.7079 91.1349 50.4663 91.313 50.2881C91.4912 50.1099 91.7328 50.0099 91.9848 50.0099H105.28C105.532 50.0101 105.773 50.1103 105.951 50.2885C106.129 50.4666 106.229 50.7081 106.229 50.9599V72.0339H127.305C127.557 72.0341 127.798 72.1343 127.976 72.3125C128.154 72.4906 128.254 72.7321 128.254 72.9839V86.2769C128.254 86.5286 128.154 86.7701 127.976 86.9482C127.798 87.1264 127.557 87.2266 127.305 87.2269H106.229V108.302C106.229 108.554 106.129 108.795 105.951 108.973C105.773 109.151 105.532 109.252 105.28 109.252H91.9848V109.253V109.254Z" fill="#223948"/>
<path opacity="0.3" d="M106.436 51.0396V73.0636H128.461V86.3566H106.436V108.382H93.1418V86.3566H71.1158V73.0646H93.1418V51.0396H106.436ZM106.436 49.1406H93.1418C92.6382 49.1409 92.1554 49.341 91.7993 49.6971C91.4432 50.0532 91.2431 50.5361 91.2428 51.0396V71.1646H71.1158C70.6122 71.1649 70.1294 71.365 69.7733 71.7211C69.4172 72.0772 69.2171 72.5601 69.2168 73.0636V86.3566C69.2171 86.8602 69.4172 87.3431 69.7733 87.6991C70.1294 88.0552 70.6122 88.2554 71.1158 88.2556H91.2428V108.381C91.2431 108.884 91.4432 109.367 91.7993 109.723C92.1554 110.079 92.6382 110.279 93.1418 110.28H106.436C106.939 110.28 107.423 110.08 107.779 109.724C108.136 109.368 108.336 108.885 108.336 108.381V88.2556H128.461C128.965 88.2556 129.448 88.0556 129.805 87.6996C130.161 87.3433 130.361 86.8603 130.361 86.3566V73.0646C130.361 72.561 130.161 72.0779 129.805 71.7216C129.448 71.3656 128.965 71.1656 128.461 71.1656H108.336V51.0396C108.336 50.5356 108.136 50.0526 107.779 49.6966C107.423 49.3406 106.939 49.1406 106.436 49.1406Z" fill="#223948"/>
<path opacity="0.3" d="M177.53 32.3219C185.608 32.3219 192.517 34.7969 198.119 39.8799C203.856 44.9639 206.724 51.8719 206.724 60.4739C206.724 69.7279 201.509 79.6319 191.212 90.1869L170.623 110.779H208.416V125.246H148.336V113.517L180.136 81.0648C187.824 73.3749 191.733 66.5989 191.733 60.9939C191.733 52.1329 186 46.9189 177.66 46.9189C169.969 46.9189 164.364 50.6999 160.715 58.2569L148.072 50.8289C153.808 38.7099 164.886 32.3229 177.53 32.3229V32.3219ZM177.53 30.4229C163.612 30.4229 152.249 37.5649 146.356 50.0169C146.153 50.4459 146.118 50.9353 146.258 51.3889C146.397 51.8419 146.702 52.2269 147.111 52.4669L159.754 59.8959C159.981 60.0289 160.232 60.1129 160.493 60.1439C160.754 60.1749 161.018 60.1509 161.269 60.0749C161.52 59.9989 161.752 59.8709 161.952 59.6999C162.152 59.5289 162.313 59.3189 162.427 59.0829C165.762 52.1759 170.745 48.8179 177.661 48.8179C185.17 48.8179 189.835 53.4839 189.835 60.9939C189.835 66.0229 186.016 72.4989 178.794 79.7229L146.98 112.189C146.632 112.544 146.438 113.021 146.438 113.518V125.247C146.438 125.751 146.638 126.234 146.994 126.59C147.35 126.947 147.834 127.147 148.337 127.147H208.417C208.921 127.147 209.404 126.947 209.76 126.59C210.116 126.234 210.316 125.751 210.316 125.247V110.78C210.316 110.276 210.116 109.793 209.76 109.437C209.404 109.08 208.921 108.88 208.417 108.88H175.209L192.556 91.5309C203.223 80.5959 208.624 70.1539 208.624 60.4749C208.624 51.3019 205.514 43.8949 199.38 38.4599C193.507 33.1339 186.151 30.4249 177.53 30.4249V30.4229ZM91.9848 109.254C91.7328 109.254 91.4918 109.154 91.3138 108.975C91.1359 108.797 91.0359 108.556 91.0358 108.304V87.2279H69.9588C69.7068 87.2279 69.4652 87.1278 69.287 86.9496C69.1089 86.7714 69.0088 86.5298 69.0088 86.2779V72.9849C69.0088 72.7329 69.1089 72.4913 69.287 72.3131C69.4652 72.1349 69.7068 72.0349 69.9588 72.0349H91.0348V50.9599C91.0348 50.7079 91.1349 50.4663 91.313 50.2881C91.4912 50.1099 91.7328 50.0099 91.9848 50.0099H105.28C105.532 50.0101 105.773 50.1103 105.951 50.2885C106.129 50.4666 106.229 50.7081 106.229 50.9599V72.0339H127.305C127.557 72.0341 127.798 72.1343 127.976 72.3125C128.154 72.4906 128.254 72.7321 128.254 72.9839V86.2769C128.254 86.5286 128.154 86.7701 127.976 86.9482C127.798 87.1264 127.557 87.2266 127.305 87.2269H106.229V108.302C106.229 108.554 106.129 108.795 105.951 108.973C105.773 109.151 105.532 109.252 105.28 109.252H91.9848V109.253V109.254Z" fill="#223948"/>
<path opacity="0.3" d="M106.436 51.0396V73.0636H128.461V86.3566H106.436V108.382H93.1418V86.3566H71.1158V73.0646H93.1418V51.0396H106.436ZM106.436 49.1406H93.1418C92.6382 49.1409 92.1554 49.341 91.7993 49.6971C91.4432 50.0532 91.2431 50.5361 91.2428 51.0396V71.1646H71.1158C70.6122 71.1649 70.1294 71.365 69.7733 71.7211C69.4172 72.0772 69.2171 72.5601 69.2168 73.0636V86.3566C69.2171 86.8602 69.4172 87.3431 69.7733 87.6991C70.1294 88.0552 70.6122 88.2554 71.1158 88.2556H91.2428V108.381C91.2431 108.884 91.4432 109.367 91.7993 109.723C92.1554 110.079 92.6382 110.279 93.1418 110.28H106.436C106.939 110.28 107.423 110.08 107.779 109.724C108.136 109.368 108.336 108.885 108.336 108.381V88.2556H128.461C128.965 88.2556 129.448 88.0556 129.805 87.6996C130.161 87.3433 130.361 86.8603 130.361 86.3566V73.0646C130.361 72.561 130.161 72.0779 129.805 71.7216C129.448 71.3656 128.965 71.1656 128.461 71.1656H108.336V51.0396C108.336 50.5356 108.136 50.0526 107.779 49.6966C107.423 49.3406 106.939 49.1406 106.436 49.1406Z" fill="#223948"/>
</g>
<path d="M147.593 124.377C147.341 124.377 147.1 124.277 146.922 124.098C146.744 123.919 146.643 123.679 146.643 123.427V111.697C146.643 111.448 146.741 111.21 146.915 111.033L178.714 78.5808C186.232 71.0618 190.04 64.5348 190.04 59.1738C190.04 51.0778 185.012 46.0478 176.916 46.0478C169.599 46.0478 164.337 49.5818 160.828 56.8498C160.771 56.9678 160.69 57.0728 160.59 57.1588C160.49 57.2448 160.374 57.3078 160.249 57.3458C160.123 57.3838 159.991 57.3954 159.861 57.3798C159.73 57.3638 159.605 57.3218 159.492 57.2548L146.849 49.8268C146.644 49.7068 146.492 49.5138 146.423 49.2878C146.354 49.0618 146.37 48.8168 146.472 48.6018C152.202 36.4948 163.251 29.5508 176.787 29.5508C185.165 29.5508 192.307 32.1768 198.015 37.3568C203.928 42.5958 206.931 49.7638 206.931 58.6538C206.931 68.0758 201.622 78.2958 191.149 89.0298L172.174 108.009H207.675C207.927 108.009 208.168 108.109 208.347 108.287C208.525 108.465 208.625 108.707 208.625 108.959V123.426C208.625 123.678 208.524 123.919 208.346 124.098C208.168 124.276 207.926 124.376 207.675 124.376L147.593 124.377Z" fill="#F6FAF6"/>
<path d="M176.786 30.5015C184.864 30.5015 191.773 32.9765 197.376 38.0605C203.113 43.1445 205.981 50.0525 205.981 58.6545C205.981 67.9085 200.766 77.8125 190.468 88.3675L169.879 108.959H207.673V123.427H147.593V111.697L179.392 79.2455C187.081 71.5555 190.99 64.7795 190.99 59.1735C190.99 50.3135 185.257 45.0985 176.916 45.0985C169.226 45.0985 163.621 48.8795 159.972 56.4365L147.329 49.0085C153.065 36.8895 164.142 30.5025 176.786 30.5025V30.5015ZM176.786 28.6025C162.869 28.6025 151.506 35.7445 145.613 48.1965C145.41 48.6255 145.375 49.1145 145.514 49.5685C145.654 50.0219 145.959 50.4065 146.368 50.6465L159.011 58.0755C159.238 58.2085 159.489 58.2925 159.75 58.3235C160.011 58.3544 160.275 58.3309 160.526 58.2545C160.778 58.1787 161.01 58.0513 161.21 57.8805C161.409 57.7097 161.571 57.4992 161.684 57.2625C165.019 50.3555 170.002 46.9975 176.917 46.9975C184.427 46.9975 189.091 51.6635 189.091 59.1735C189.091 64.2025 185.273 70.6775 178.05 77.9025L146.237 110.369C145.889 110.724 145.695 111.201 145.695 111.697V123.427C145.696 123.93 145.896 124.413 146.252 124.769C146.608 125.125 147.091 125.325 147.594 125.326H207.674C208.178 125.325 208.661 125.125 209.017 124.769C209.373 124.413 209.573 123.93 209.573 123.427V108.96C209.573 108.456 209.373 107.973 209.017 107.616C208.661 107.26 208.178 107.06 207.674 107.06H174.465L191.812 89.7095C202.48 78.7745 207.881 68.3325 207.881 58.6535C207.881 49.4805 204.771 42.0735 198.637 36.6375C192.764 31.3115 185.408 28.6025 176.786 28.6025Z" fill="#223948"/>
<path d="M91.2426 107.432C90.9907 107.432 90.749 107.332 90.5709 107.154C90.3927 106.976 90.2926 106.734 90.2926 106.482V85.4074H69.2166C68.9647 85.4074 68.723 85.3073 68.5449 85.1292C68.3667 84.951 68.2666 84.7094 68.2666 84.4574V71.1654C68.2666 71.0407 68.2912 70.9171 68.3389 70.8019C68.3867 70.6866 68.4566 70.5819 68.5449 70.4937C68.6331 70.4055 68.7378 70.3355 68.8531 70.2877C68.9683 70.24 69.0919 70.2154 69.2166 70.2154H90.2926V49.1404C90.2926 48.8885 90.3927 48.6468 90.5709 48.4687C90.749 48.2905 90.9907 48.1904 91.2426 48.1904H104.537C104.789 48.1904 105.03 48.2905 105.208 48.4687C105.387 48.6468 105.487 48.8885 105.487 49.1404V70.2144H126.563C126.814 70.2147 127.056 70.3149 127.234 70.493C127.412 70.6712 127.512 70.9126 127.512 71.1644V84.4574C127.512 84.7092 127.412 84.9507 127.234 85.1288C127.056 85.307 126.814 85.4072 126.563 85.4074H105.487V106.482C105.487 106.734 105.387 106.976 105.208 107.154C105.03 107.332 104.789 107.432 104.537 107.432H91.2426Z" fill="#F6FAF6"/>
<path d="M104.537 49.1412V71.1652H126.562V84.4582H104.537V106.482H91.2424V84.4592H69.2164V71.1662H91.2424V49.1412H104.537ZM104.537 47.2422H91.2424C90.7388 47.2425 90.256 47.4426 89.8999 47.7987C89.5438 48.1548 89.3436 48.6376 89.3434 49.1412V69.2662H69.2164C68.7128 69.2665 68.23 69.4666 67.8739 69.8227C67.5178 70.1788 67.3176 70.6616 67.3174 71.1652V84.4582C67.3176 84.9618 67.5178 85.4446 67.8739 85.8007C68.23 86.1568 68.7128 86.3569 69.2164 86.3572H89.3434V106.482C89.3434 106.986 89.5434 107.469 89.8994 107.825C90.2554 108.182 90.7384 108.382 91.2424 108.382H104.537C105.041 108.382 105.524 108.182 105.88 107.825C106.236 107.469 106.436 106.986 106.436 106.482V86.3582H126.562C127.066 86.3579 127.549 86.1578 127.905 85.8017C128.261 85.4456 128.461 84.9628 128.461 84.4592V71.1662C128.461 70.6626 128.261 70.1798 127.905 69.8237C127.549 69.4676 127.066 69.2675 126.562 69.2672H106.436V49.1412C106.436 48.6376 106.236 48.1548 105.88 47.7987C105.524 47.4426 105.041 47.2425 104.537 47.2422Z" fill="#223948"/>
<path d="M116.9 199.534C116.897 195.889 113.941 192.921 110.306 192.921H99.4554V161.36C99.4534 159.833 98.8464 158.37 97.7674 157.291C96.6884 156.212 95.2244 155.605 93.6984 155.603H63.5204C61.9934 155.605 60.5304 156.212 59.4514 157.291C58.3718 158.37 57.7647 159.833 57.7634 161.36V192.921H46.9124C45.1614 192.925 43.4835 193.623 42.247 194.863C41.0106 196.103 40.3166 197.783 40.3174 199.534C40.3174 201.122 40.8814 202.61 41.9484 203.832L73.6454 240.174C74.264 240.882 75.0269 241.449 75.8829 241.838C76.7389 242.226 77.6682 242.428 78.6084 242.428C79.5487 242.428 80.4782 242.226 81.3344 241.838C82.1904 241.449 82.9534 240.882 83.5724 240.174L115.269 203.832C116.322 202.647 116.902 201.118 116.9 199.534Z" fill="url(#paint1_linear_930_3389)"/>
<path d="M42.4944 200.122C42.4944 201.248 42.8784 202.397 43.7354 203.379L75.4324 239.717C75.9013 240.254 76.4799 240.686 77.1294 240.982C77.7794 241.277 78.4844 241.43 79.1984 241.43C79.9124 241.43 80.6174 241.277 81.2674 240.982C81.9169 240.686 82.4955 240.254 82.9644 239.717L114.661 203.374C115.459 202.477 115.9 201.319 115.901 200.12C115.901 197.541 113.881 195.094 110.895 195.094H98.4564V161.948C98.4561 160.842 98.0168 159.782 97.235 159C96.4533 158.218 95.393 157.779 94.2874 157.779H64.1084C63.0028 157.779 61.9426 158.218 61.1608 159C60.379 159.782 59.9397 160.842 59.9394 161.948V195.097H47.4984C44.5124 195.097 42.4944 197.544 42.4944 200.122ZM39.3184 200.122C39.3184 195.601 42.9904 191.921 47.4994 191.921H56.7634V161.948C56.7654 160 57.5404 158.133 58.9174 156.756C60.2948 155.38 62.1614 154.605 64.1084 154.603H94.2854C96.2334 154.605 98.1004 155.38 99.4764 156.756C100.854 158.132 101.629 160 101.63 161.948V191.921H110.893C115.405 191.921 119.076 195.599 119.076 200.122C119.069 202.088 118.35 203.986 117.052 205.464L85.3554 241.804C84.5884 242.683 83.6414 243.387 82.5794 243.87C81.5174 244.353 80.3634 244.603 79.1964 244.603C78.0294 244.603 76.8764 244.353 75.8134 243.87C74.7513 243.387 73.8048 242.682 73.0374 241.804L41.3384 205.464C40.0414 203.985 39.3234 202.088 39.3164 200.122H39.3184Z" fill="#162F0D"/>
<path d="M100.357 350.935C82.5912 350.935 74.6942 348.718 73.9522 343.518C73.6412 341.34 73.7412 337.752 73.8462 333.953L73.9542 328.258C73.9542 322.556 80.7002 311.003 90.3132 309.55L91.1602 309.422L91.4982 309.877C91.9742 310.061 93.9412 310.637 100.306 310.913C106.86 310.63 108.816 310.027 109.255 309.853L109.611 309.431L110.399 309.55C120.012 311.003 126.759 322.556 126.759 328.258C126.759 330.056 126.814 332.037 126.867 333.952C126.973 337.751 127.072 341.339 126.761 343.518C126.018 348.717 118.123 350.935 100.357 350.935Z" fill="#F6FAF6"/>
<path d="M110.187 310.959C118.939 312.281 125.334 322.966 125.334 328.258C125.334 333.55 125.798 340.179 125.351 343.317C124.854 346.789 119.527 349.51 100.357 349.51C81.1875 349.51 75.8595 346.789 75.3635 343.317C74.9155 340.179 75.3795 333.546 75.3795 328.258C75.3795 322.97 81.7745 312.282 90.5265 310.959C90.5265 310.959 91.2635 311.953 100.307 312.34C109.35 311.952 110.187 310.959 110.187 310.959ZM91.7955 307.883L90.1005 308.139C80.0735 309.654 72.5285 321.388 72.5285 328.257C72.5285 330.036 72.4735 332.007 72.4205 333.913C72.3125 337.774 72.2115 341.42 72.5395 343.719C73.4155 349.857 81.4755 352.361 100.356 352.361C119.237 352.361 127.296 349.857 128.173 343.719C128.501 341.42 128.399 337.773 128.293 333.911L128.185 328.257C128.185 321.388 120.639 309.654 110.613 308.139L109.035 307.9L108.428 308.621C107.705 308.818 105.577 309.254 100.306 309.485C95.2575 309.264 93.1365 308.854 92.3665 308.653L91.7955 307.883Z" fill="#223948"/>
<path d="M100.146 312.384C99.0446 312.384 96.3656 312.36 95.2666 312.14C90.3306 311.155 78.8486 306.653 78.8486 286.16C78.8486 271.244 86.3906 263.029 100.085 263.029C113.926 263.029 121.864 271.46 121.864 286.16C121.864 305.32 112.545 310.889 104.728 312.186C103.853 312.331 101.788 312.384 100.146 312.384Z" fill="#F6FAF6"/>
<path d="M100.085 264.455C115.28 264.455 120.438 274.531 120.438 286.16C120.438 302.539 113.614 309.266 104.495 310.779C103.8 310.895 101.986 310.958 100.147 310.958C98.2298 310.958 96.2848 310.89 95.5478 310.742C87.6028 309.157 80.2758 302.27 80.2758 286.16C80.2748 274.531 84.9568 264.455 100.085 264.455ZM100.085 261.603C85.4718 261.603 77.4238 270.324 77.4238 286.16C77.4238 307.709 89.7078 312.486 94.9898 313.539C96.1668 313.775 98.7258 313.81 100.146 313.81C101.202 313.81 103.786 313.789 104.964 313.591C113.322 312.205 123.289 306.319 123.289 286.159C123.289 270.554 114.831 261.603 100.085 261.603Z" fill="#223948"/>
<path d="M183.494 350.935C165.728 350.935 157.831 348.718 157.089 343.518C156.777 341.34 156.878 337.752 156.983 333.953L157.092 328.258C157.092 322.556 163.838 311.003 173.451 309.55L174.298 309.422L174.636 309.877C175.112 310.061 177.079 310.637 183.444 310.913C189.997 310.63 191.954 310.027 192.393 309.853L192.748 309.431L193.537 309.55C203.15 311.003 209.896 322.556 209.896 328.258C209.896 330.056 209.951 332.037 210.005 333.952C210.11 337.751 210.21 341.339 209.899 343.518C209.156 348.717 201.259 350.935 183.494 350.935Z" fill="#F6FAF6"/>
<path d="M193.324 310.959C202.076 312.281 208.471 322.966 208.471 328.258C208.471 333.55 208.935 340.179 208.487 343.317C207.991 346.789 202.664 349.51 183.494 349.51C164.324 349.51 158.995 346.789 158.5 343.317C158.052 340.179 158.516 333.546 158.516 328.258C158.516 322.97 164.911 312.282 173.663 310.959C173.663 310.959 174.4 311.953 183.444 312.34C192.487 311.952 193.324 310.959 193.324 310.959ZM174.932 307.883L173.237 308.139C163.211 309.654 155.665 321.388 155.665 328.257C155.665 330.036 155.61 332.007 155.558 333.913C155.45 337.774 155.349 341.42 155.677 343.719C156.553 349.857 164.612 352.361 183.494 352.361C202.376 352.361 210.434 349.857 211.311 343.719C211.638 341.42 211.537 337.773 211.43 333.911L211.323 328.257C211.323 321.388 203.777 309.654 193.75 308.139L192.173 307.9L191.565 308.621C190.842 308.818 188.715 309.254 183.444 309.485C178.395 309.264 176.274 308.854 175.504 308.653L174.932 307.883Z" fill="#223948"/>
<path d="M183.285 312.384C182.185 312.384 179.505 312.36 178.407 312.14C173.471 311.155 161.989 306.653 161.989 286.16C161.989 271.244 169.531 263.029 183.225 263.029C197.066 263.029 205.003 271.46 205.003 286.16C205.003 305.32 195.685 310.889 187.867 312.186C186.993 312.331 184.927 312.384 183.285 312.384Z" fill="#F6FAF6"/>
<path d="M183.225 264.455C198.42 264.455 203.577 274.531 203.577 286.16C203.577 302.539 196.754 309.266 187.634 310.779C186.939 310.895 185.126 310.958 183.286 310.958C181.37 310.958 179.425 310.89 178.688 310.742C170.742 309.157 163.416 302.27 163.416 286.16C163.415 274.531 168.097 264.455 183.225 264.455ZM183.225 261.603C168.611 261.603 160.563 270.324 160.563 286.16C160.563 307.709 172.848 312.486 178.13 313.539C179.307 313.775 181.865 313.81 183.285 313.81C184.341 313.81 186.926 313.789 188.104 313.591C196.462 312.205 206.429 306.319 206.429 286.159C206.429 270.554 197.971 261.603 183.225 261.603Z" fill="#223948"/>
<path d="M142.107 370.177C124.342 370.177 116.445 367.959 115.702 362.761C115.391 360.581 115.491 356.993 115.596 353.194L115.704 347.5C115.704 341.797 122.45 330.244 132.063 328.792L132.91 328.664L133.248 329.119C133.725 329.302 135.692 329.879 142.057 330.155C148.611 329.872 150.568 329.269 151.007 329.095L151.363 328.673L152.151 328.792C161.764 330.244 168.511 341.797 168.511 347.5C168.511 349.298 168.566 351.28 168.619 353.195C168.725 356.993 168.824 360.582 168.513 362.76C167.77 367.959 159.873 370.177 142.107 370.177Z" fill="#F6FAF6"/>
<path d="M151.938 330.202C160.69 331.523 167.085 342.209 167.085 347.501C167.085 352.793 167.55 359.422 167.101 362.56C166.605 366.031 161.278 368.752 142.107 368.752C122.936 368.752 117.61 366.032 117.114 362.56C116.666 359.422 117.13 352.789 117.13 347.501C117.13 342.213 123.526 331.524 132.277 330.202C132.277 330.202 133.015 331.196 142.058 331.583C151.1 331.195 151.938 330.202 151.938 330.202ZM133.545 327.125L131.851 327.381C121.825 328.896 114.279 340.63 114.279 347.5C114.279 349.278 114.224 351.248 114.171 353.154C114.064 357.016 113.963 360.663 114.291 362.962C115.168 369.099 123.228 371.603 142.108 371.603C160.988 371.603 169.048 369.099 169.925 362.962C170.253 360.663 170.152 357.017 170.044 353.156L169.937 347.5C169.937 340.63 162.391 328.896 152.364 327.381L150.787 327.143L150.179 327.863C149.457 328.061 147.329 328.497 142.058 328.727C137.008 328.506 134.887 328.097 134.117 327.896L133.545 327.125Z" fill="#223948"/>
<path d="M141.896 331.625C140.795 331.625 138.116 331.602 137.017 331.382C132.082 330.397 120.599 325.895 120.599 305.401C120.599 290.485 128.141 282.27 141.835 282.27C155.675 282.27 163.613 290.701 163.613 305.401C163.613 324.562 154.295 330.13 146.477 331.427C145.603 331.573 143.537 331.625 141.896 331.625Z" fill="#F6FAF6"/>
<path d="M141.835 283.695C157.031 283.695 162.187 293.771 162.187 305.401C162.187 321.78 155.365 328.507 146.244 330.02C145.549 330.136 143.735 330.199 141.896 330.199C139.98 330.199 138.035 330.131 137.298 329.983C129.352 328.398 122.025 321.51 122.025 305.401C122.025 293.771 126.707 283.695 141.835 283.695ZM141.835 280.844C127.222 280.844 119.173 289.565 119.173 305.401C119.173 326.95 131.458 331.727 136.74 332.78C137.917 333.016 140.476 333.051 141.896 333.051C142.952 333.051 145.536 333.03 146.714 332.833C155.072 331.446 165.039 325.56 165.039 305.4C165.039 289.794 156.582 280.844 141.835 280.844Z" fill="#223948"/>
<path d="M151.108 246.537C150.772 246.639 150.409 246.604 150.099 246.439C149.789 246.274 149.557 245.993 149.454 245.658L126.387 170.207C126.284 169.871 126.32 169.508 126.484 169.198C126.649 168.888 126.93 168.657 127.266 168.554L179.219 152.67C179.555 152.568 179.917 152.603 180.227 152.768C180.381 152.849 180.517 152.96 180.627 153.094C180.738 153.228 180.821 153.382 180.872 153.549L203.94 229C204.042 229.336 204.007 229.698 203.842 230.008C203.677 230.318 203.396 230.55 203.061 230.653L151.108 246.537Z" fill="url(#paint2_radial_930_3389)"/>
<path d="M179.059 154.961L201.646 228.84L151.265 244.243L128.678 170.364L179.059 154.961ZM178.59 150.616L126.637 166.5C126.201 166.634 125.796 166.851 125.445 167.141C125.093 167.431 124.802 167.787 124.588 168.19C124.374 168.592 124.241 169.033 124.198 169.486C124.154 169.94 124.2 170.398 124.333 170.833L147.401 246.284C147.671 247.164 148.278 247.901 149.091 248.333C149.903 248.765 150.854 248.857 151.734 248.587L203.687 232.704C204.123 232.571 204.528 232.354 204.88 232.064C205.232 231.774 205.523 231.418 205.737 231.015C205.951 230.613 206.083 230.172 206.127 229.719C206.171 229.265 206.125 228.807 205.991 228.371L182.923 152.92C182.79 152.485 182.572 152.079 182.282 151.728C181.993 151.376 181.636 151.085 181.234 150.871C180.832 150.657 180.391 150.524 179.937 150.481C179.484 150.437 179.026 150.483 178.59 150.616Z" fill="#66C2E2"/>
<path d="M179.218 152.669C179.384 152.618 179.559 152.601 179.732 152.617C179.905 152.634 180.073 152.685 180.226 152.766C180.536 152.931 180.768 153.212 180.871 153.547L203.939 228.998C204.041 229.334 204.006 229.697 203.841 230.007C203.676 230.317 203.395 230.549 203.059 230.652L151.107 246.535C150.771 246.638 150.409 246.603 150.098 246.438C149.788 246.273 149.556 245.992 149.453 245.656L126.386 170.205C126.283 169.869 126.319 169.507 126.483 169.197C126.647 168.887 126.929 168.655 127.265 168.552L179.218 152.669ZM178.59 150.616L126.637 166.5C126.201 166.634 125.796 166.851 125.445 167.141C125.093 167.431 124.802 167.787 124.588 168.19C124.374 168.592 124.241 169.033 124.198 169.486C124.154 169.94 124.2 170.398 124.333 170.833L147.401 246.284C147.671 247.164 148.278 247.901 149.091 248.333C149.903 248.765 150.854 248.857 151.734 248.587L203.687 232.704C204.123 232.571 204.528 232.354 204.88 232.064C205.232 231.774 205.523 231.418 205.737 231.015C205.951 230.613 206.083 230.172 206.127 229.719C206.171 229.265 206.125 228.807 205.991 228.371L182.923 152.92C182.79 152.485 182.572 152.079 182.282 151.728C181.993 151.376 181.636 151.085 181.234 150.871C180.832 150.657 180.391 150.524 179.937 150.481C179.484 150.437 179.026 150.483 178.59 150.616Z" fill="#414042"/>
<path d="M170.027 217.647C169.198 217.901 168.324 217.934 167.498 217.744C165.709 217.332 164.326 216.053 163.796 214.321C163.266 212.589 163.698 210.755 164.951 209.414C165.529 208.794 166.273 208.333 167.102 208.079C167.923 207.826 168.795 207.793 169.632 207.983C171.42 208.395 172.804 209.674 173.333 211.406C173.862 213.138 173.431 214.972 172.179 216.313C171.591 216.938 170.849 217.398 170.027 217.647Z" fill="url(#paint3_linear_930_3389)"/>
<path d="M167.258 208.592C167.988 208.367 168.765 208.337 169.511 208.505C170.283 208.676 170.997 209.049 171.578 209.587C172.159 210.124 172.587 210.806 172.819 211.562C173.05 212.319 173.076 213.124 172.895 213.894C172.713 214.665 172.331 215.373 171.786 215.947C171.261 216.508 170.594 216.913 169.87 217.134C169.139 217.359 168.362 217.389 167.617 217.221C166.844 217.05 166.131 216.676 165.55 216.139C164.969 215.602 164.541 214.921 164.31 214.164C164.078 213.407 164.052 212.603 164.233 211.832C164.415 211.062 164.797 210.354 165.342 209.78C165.865 209.223 166.526 208.813 167.258 208.592ZM166.944 207.566C166.025 207.847 165.2 208.359 164.558 209.047C163.173 210.531 162.696 212.561 163.282 214.478C163.868 216.395 165.399 217.811 167.377 218.267C168.306 218.48 169.274 218.446 170.186 218.167C171.097 217.889 171.919 217.375 172.57 216.679C173.955 215.196 174.431 213.166 173.845 211.249C173.259 209.332 171.729 207.915 169.751 207.46C168.834 207.248 167.863 207.285 166.944 207.566Z" fill="#223948"/>
<path d="M162.329 204.383C162.243 204.409 162.153 204.418 162.064 204.409C161.975 204.4 161.888 204.373 161.81 204.33C161.732 204.287 161.662 204.229 161.606 204.159C161.55 204.089 161.508 204.009 161.484 203.923C160.598 200.78 161.966 197.195 163.541 194.888C165.445 192.101 166.284 189.464 165.785 187.833C164.947 185.09 162.281 185.457 160.766 185.92C158.194 186.706 156.814 188.564 156.547 191.599C156.536 191.732 156.486 191.858 156.402 191.962C156.318 192.066 156.205 192.141 156.078 192.18C155.967 192.214 155.849 192.218 155.736 192.192L149.027 190.648C148.868 190.611 148.728 190.518 148.633 190.386C148.538 190.254 148.493 190.092 148.508 189.93C149.031 184.297 152.821 179.87 158.647 178.089C161.724 177.148 164.767 177.236 167.691 178.351C170.615 179.466 172.601 181.67 173.587 184.897C174.948 189.348 172.901 192.968 171.257 195.876C170.047 198.015 169.002 199.862 169.451 201.534C169.497 201.7 169.476 201.877 169.393 202.028C169.31 202.179 169.172 202.292 169.007 202.342L162.329 204.383Z" fill="url(#paint4_linear_930_3389)"/>
<path d="M158.806 178.602C161.817 177.681 164.705 177.786 167.502 178.852C170.299 179.918 172.14 181.991 173.076 185.054C175.343 192.468 167.757 197.286 168.935 201.673C168.945 201.705 168.941 201.739 168.926 201.768C168.911 201.797 168.884 201.818 168.852 201.828L162.173 203.87C162.138 203.881 162.101 203.877 162.068 203.859C162.035 203.841 162.012 203.813 162.002 203.778C161.175 200.843 162.492 197.377 163.986 195.19C165.504 192.969 166.976 189.884 166.3 187.675C165.579 185.315 163.473 184.532 160.611 185.407C157.843 186.253 156.299 188.322 156.015 191.552C156.013 191.578 156.003 191.603 155.986 191.623C155.969 191.643 155.948 191.659 155.923 191.667C155.898 191.675 155.88 191.674 155.859 191.669L149.149 190.125C149.117 190.118 149.089 190.099 149.07 190.072C149.051 190.045 149.042 190.013 149.044 189.98C149.561 184.405 153.421 180.248 158.806 178.602ZM158.492 177.576C155.611 178.457 153.121 180.025 151.293 182.11C149.393 184.277 148.246 186.964 147.976 189.881C147.949 190.173 148.029 190.464 148.2 190.701C148.372 190.938 148.624 191.105 148.909 191.171L155.618 192.715C155.785 192.753 155.959 192.755 156.127 192.721C156.295 192.687 156.455 192.616 156.593 192.515C156.732 192.414 156.848 192.285 156.933 192.135C157.017 191.986 157.069 191.82 157.084 191.649C157.329 188.853 158.585 187.148 160.925 186.433C162.541 185.939 164.607 185.808 165.274 187.989C165.726 189.466 164.913 191.932 163.1 194.584C161.456 196.992 160.033 200.747 160.969 204.068C161.013 204.223 161.087 204.367 161.188 204.493C161.288 204.619 161.412 204.723 161.553 204.8C161.694 204.877 161.85 204.925 162.01 204.942C162.17 204.958 162.332 204.943 162.487 204.896L169.166 202.854C169.463 202.764 169.714 202.561 169.864 202.289C170.014 202.017 170.053 201.697 169.972 201.396C169.579 199.935 170.574 198.176 171.726 196.14C173.421 193.142 175.53 189.411 174.102 184.74C173.064 181.346 170.972 179.028 167.884 177.85C164.846 176.691 161.686 176.599 158.492 177.576Z" fill="#223948"/>
<path d="M191.619 246.537C191.283 246.639 190.921 246.604 190.611 246.439C190.301 246.274 190.069 245.993 189.966 245.658L166.898 170.207C166.796 169.871 166.831 169.508 166.996 169.198C167.162 168.888 167.443 168.657 167.778 168.554L219.73 152.67C220.066 152.568 220.429 152.603 220.739 152.768C220.893 152.849 221.029 152.96 221.14 153.094C221.25 153.228 221.333 153.382 221.384 153.549L244.451 229C244.554 229.336 244.518 229.698 244.354 230.008C244.19 230.318 243.908 230.55 243.572 230.653L191.619 246.537Z" fill="url(#paint5_radial_930_3389)"/>
<path d="M219.57 154.961L242.157 228.84L191.776 244.243L169.189 170.364L219.57 154.961ZM219.101 150.616L167.148 166.5C166.712 166.634 166.307 166.851 165.955 167.141C165.604 167.431 165.313 167.787 165.099 168.19C164.885 168.592 164.752 169.033 164.708 169.486C164.665 169.94 164.711 170.398 164.844 170.833L187.912 246.284C188.181 247.164 188.789 247.901 189.602 248.333C190.414 248.765 191.365 248.857 192.245 248.587L244.198 232.704C245.078 232.435 245.815 231.827 246.247 231.015C246.679 230.202 246.77 229.251 246.501 228.371L223.434 152.92C223.301 152.485 223.083 152.079 222.793 151.728C222.503 151.376 222.147 151.085 221.745 150.871C221.342 150.657 220.902 150.524 220.448 150.481C219.995 150.437 219.537 150.483 219.101 150.616Z" fill="#66C2E2"/>
<path d="M219.728 152.669C219.894 152.618 220.069 152.601 220.242 152.617C220.415 152.634 220.584 152.685 220.737 152.766C221.047 152.932 221.278 153.212 221.382 153.547L244.449 228.998C244.551 229.334 244.516 229.697 244.352 230.007C244.187 230.317 243.906 230.549 243.57 230.652L191.617 246.535C191.281 246.637 190.919 246.602 190.609 246.438C190.299 246.273 190.067 245.992 189.964 245.656L166.896 170.205C166.794 169.869 166.829 169.507 166.994 169.197C167.159 168.887 167.44 168.655 167.775 168.552L219.728 152.669ZM219.101 150.616L167.148 166.5C166.712 166.634 166.307 166.851 165.955 167.141C165.604 167.431 165.313 167.787 165.099 168.19C164.885 168.592 164.752 169.033 164.708 169.486C164.665 169.94 164.711 170.398 164.844 170.833L187.912 246.284C188.181 247.164 188.789 247.901 189.602 248.333C190.414 248.765 191.365 248.857 192.245 248.587L244.198 232.704C245.078 232.435 245.815 231.827 246.247 231.015C246.679 230.202 246.77 229.251 246.501 228.371L223.434 152.92C223.301 152.485 223.083 152.079 222.793 151.728C222.503 151.376 222.147 151.085 221.745 150.871C221.342 150.657 220.902 150.524 220.448 150.481C219.995 150.437 219.537 150.483 219.101 150.616Z" fill="#414042"/>
<path d="M210.543 217.647C209.723 217.9 208.851 217.934 208.013 217.744C206.225 217.332 204.841 216.053 204.312 214.321C203.783 212.589 204.215 210.755 205.467 209.414C206.046 208.794 206.789 208.333 207.618 208.079C208.439 207.826 209.311 207.793 210.148 207.983C211.937 208.395 213.319 209.674 213.849 211.406C214.379 213.138 213.946 214.972 212.694 216.313C212.106 216.938 211.365 217.398 210.543 217.647Z" fill="url(#paint6_linear_930_3389)"/>
<path d="M207.778 208.592C208.502 208.371 209.282 208.333 210.03 208.505C210.803 208.676 211.516 209.049 212.097 209.587C212.678 210.124 213.107 210.806 213.338 211.562C213.569 212.319 213.596 213.124 213.414 213.894C213.233 214.665 212.85 215.373 212.305 215.947C211.781 216.508 211.113 216.913 210.389 217.134C209.665 217.355 208.885 217.393 208.137 217.221C207.364 217.05 206.651 216.676 206.07 216.139C205.489 215.602 205.061 214.921 204.83 214.164C204.598 213.407 204.572 212.603 204.753 211.832C204.935 211.062 205.317 210.354 205.862 209.78C206.385 209.223 207.046 208.813 207.778 208.592ZM207.464 207.566C206.545 207.847 205.72 208.359 205.077 209.047C204.401 209.757 203.927 210.635 203.703 211.59C203.479 212.544 203.513 213.541 203.802 214.478C204.388 216.395 205.919 217.811 207.896 218.267C208.814 218.478 209.784 218.441 210.703 218.16C211.622 217.879 212.447 217.367 213.089 216.679C214.474 215.196 214.951 213.166 214.365 211.249C213.779 209.332 212.248 207.915 210.271 207.46C209.354 207.248 208.383 207.285 207.464 207.566Z" fill="#223948"/>
<path d="M202.847 204.383C202.761 204.409 202.671 204.418 202.582 204.409C202.493 204.4 202.407 204.373 202.328 204.33C202.25 204.287 202.18 204.229 202.124 204.159C202.068 204.089 202.027 204.009 202.002 203.923C201.117 200.78 202.484 197.195 204.06 194.888C205.964 192.101 206.803 189.464 206.304 187.833C205.465 185.09 202.799 185.457 201.285 185.92C198.713 186.706 197.333 188.564 197.066 191.599C197.055 191.732 197.004 191.858 196.92 191.962C196.836 192.066 196.724 192.141 196.596 192.18C196.486 192.214 196.368 192.218 196.255 192.192L189.545 190.648C189.387 190.611 189.247 190.518 189.151 190.386C189.056 190.254 189.012 190.092 189.027 189.93C189.549 184.297 193.339 179.87 199.165 178.089C202.243 177.148 205.286 177.236 208.21 178.351C211.134 179.466 213.119 181.67 214.106 184.897C215.467 189.348 213.42 192.968 211.775 195.876C210.566 198.015 209.521 199.862 209.97 201.534C210.015 201.7 209.995 201.877 209.912 202.028C209.829 202.179 209.69 202.291 209.526 202.342L202.847 204.383Z" fill="url(#paint7_linear_930_3389)"/>
<path d="M199.319 178.602C202.331 177.681 205.219 177.786 208.015 178.852C210.811 179.918 212.654 181.991 213.59 185.054C215.857 192.468 208.271 197.286 209.449 201.673C209.458 201.705 209.455 201.739 209.439 201.768C209.423 201.797 209.397 201.818 209.366 201.828L202.687 203.87C202.652 203.881 202.614 203.877 202.582 203.859C202.55 203.841 202.526 203.813 202.515 203.778C201.689 200.843 203.006 197.377 204.5 195.19C206.017 192.969 207.489 189.884 206.814 187.676C206.092 185.315 203.987 184.532 201.125 185.407C198.356 186.253 196.812 188.322 196.529 191.552C196.527 191.578 196.517 191.603 196.5 191.623C196.484 191.644 196.462 191.659 196.437 191.667C196.416 191.673 196.394 191.674 196.372 191.669L189.663 190.125C189.631 190.118 189.603 190.099 189.583 190.072C189.563 190.045 189.555 190.013 189.558 189.98C190.075 184.405 193.935 180.248 199.319 178.602ZM199.005 177.576C196.125 178.457 193.635 180.025 191.806 182.11C189.907 184.277 188.76 186.964 188.49 189.881C188.464 190.173 188.543 190.464 188.715 190.701C188.886 190.938 189.138 191.105 189.423 191.171L196.131 192.715C196.299 192.753 196.473 192.755 196.641 192.721C196.81 192.687 196.969 192.616 197.107 192.515C197.246 192.414 197.362 192.285 197.446 192.135C197.531 191.986 197.583 191.82 197.597 191.649C197.842 188.853 199.099 187.148 201.438 186.433C203.054 185.939 205.121 185.808 205.788 187.989C206.239 189.466 205.427 191.932 203.614 194.584C201.97 196.992 200.547 200.747 201.482 204.068C201.527 204.223 201.601 204.367 201.701 204.493C201.801 204.619 201.926 204.723 202.067 204.8C202.208 204.877 202.364 204.925 202.524 204.942C202.684 204.959 202.846 204.943 203 204.896L209.679 202.854C209.977 202.764 210.228 202.562 210.378 202.289C210.529 202.017 210.567 201.697 210.486 201.396C210.093 199.935 211.087 198.176 212.239 196.14C213.934 193.142 216.044 189.411 214.616 184.74C213.578 181.346 211.486 179.028 208.398 177.85C205.36 176.691 202.2 176.599 199.005 177.576Z" fill="#223948"/>
<path d="M265.594 20V380H20.0942V20H265.594ZM269.425 0H16.2642C7.33324 0 0.0942383 7.239 0.0942383 16.169V383.83C0.0942383 392.761 7.33324 400 16.2642 400H269.425C278.355 400 285.594 392.761 285.594 383.83V16.169C285.594 7.239 278.354 0 269.425 0Z" fill="#CDEBFF"/>
<path d="M269.425 10C271.061 10.0021 272.629 10.6527 273.785 11.8092C274.941 12.9656 275.592 14.5335 275.594 16.169V383.83C275.592 385.466 274.942 387.034 273.785 388.19C272.629 389.347 271.061 389.998 269.425 390H16.2642C14.6284 389.998 13.0601 389.348 11.9034 388.191C10.7467 387.034 10.0961 385.466 10.0942 383.83V16.169C10.0964 14.5334 10.7471 12.9653 11.9038 11.8088C13.0605 10.6524 14.6286 10.0019 16.2642 10H269.425ZM269.425 0H16.2642C7.33324 0 0.0942383 7.239 0.0942383 16.169V383.83C0.0942383 392.761 7.33324 400 16.2642 400H269.425C278.355 400 285.594 392.761 285.594 383.83V16.169C285.594 7.239 278.354 0 269.425 0Z" fill="#414042"/>
</g>
<defs>
<radialGradient id="paint0_radial_930_3389" cx="0" cy="0" r="1" gradientUnits="userSpaceOnUse" gradientTransform="translate(142.844 200) scale(177.165 177.499)">
<stop stop-color="#A4C7DC"/>
<stop offset="0.495209" stop-color="#85AEC0"/>
<stop offset="1" stop-color="#6696A4"/>
</radialGradient>
<linearGradient id="paint1_linear_930_3389" x1="66.5911" y1="163.324" x2="111.604" y2="223.663" gradientUnits="userSpaceOnUse">
<stop stop-color="#55EC36"/>
<stop offset="0.195" stop-color="#45D727"/>
<stop offset="0.419" stop-color="#39C71C"/>
<stop offset="0.671" stop-color="#32BD15"/>
<stop offset="1" stop-color="#30BA13"/>
</linearGradient>
<radialGradient id="paint2_radial_930_3389" cx="0" cy="0" r="1" gradientTransform="matrix(-0.00769659 -40.5339 49.4444 -0.0067138 165.161 199.603)" gradientUnits="userSpaceOnUse">
<stop stop-color="#32B4BA"/>
<stop offset="0.163" stop-color="#30ABBA"/>
<stop offset="0.429" stop-color="#2B93BA"/>
<stop offset="0.762" stop-color="#236BBA"/>
<stop offset="1" stop-color="#1D4BBA"/>
</radialGradient>
<linearGradient id="paint3_linear_930_3389" x1="1877.35" y1="2409.25" x2="1848.03" y2="2313.57" gradientUnits="userSpaceOnUse">
<stop stop-color="#70AEFE"/>
<stop offset="0.16" stop-color="#83BCFE"/>
<stop offset="0.527" stop-color="#ABD7FE"/>
<stop offset="0.82" stop-color="#C3E9FE"/>
<stop offset="1" stop-color="#CCEFFE"/>
</linearGradient>
<linearGradient id="paint4_linear_930_3389" x1="4425.72" y1="5724.86" x2="4209.44" y2="5055.23" gradientUnits="userSpaceOnUse">
<stop stop-color="#70AEFE"/>
<stop offset="0.16" stop-color="#83BCFE"/>
<stop offset="0.527" stop-color="#ABD7FE"/>
<stop offset="0.82" stop-color="#C3E9FE"/>
<stop offset="1" stop-color="#CCEFFE"/>
</linearGradient>
<radialGradient id="paint5_radial_930_3389" cx="0" cy="0" r="1" gradientTransform="matrix(-0.00769659 -40.5339 49.4444 -0.0067138 205.673 199.603)" gradientUnits="userSpaceOnUse">
<stop stop-color="#32B4BA"/>
<stop offset="0.163" stop-color="#30ABBA"/>
<stop offset="0.429" stop-color="#2B93BA"/>
<stop offset="0.762" stop-color="#236BBA"/>
<stop offset="1" stop-color="#1D4BBA"/>
</radialGradient>
<linearGradient id="paint6_linear_930_3389" x1="2322.17" y1="2409.2" x2="2292.84" y2="2313.52" gradientUnits="userSpaceOnUse">
<stop stop-color="#70AEFE"/>
<stop offset="0.16" stop-color="#83BCFE"/>
<stop offset="0.527" stop-color="#ABD7FE"/>
<stop offset="0.82" stop-color="#C3E9FE"/>
<stop offset="1" stop-color="#CCEFFE"/>
</linearGradient>
<linearGradient id="paint7_linear_930_3389" x1="5500.57" y1="5724.86" x2="5284.27" y2="5055.23" gradientUnits="userSpaceOnUse">
<stop stop-color="#70AEFE"/>
<stop offset="0.16" stop-color="#83BCFE"/>
<stop offset="0.527" stop-color="#ABD7FE"/>
<stop offset="0.82" stop-color="#C3E9FE"/>
<stop offset="1" stop-color="#CCEFFE"/>
</linearGradient>
<clipPath id="clip0_930_3389">
<rect width="291.969" height="406.205" fill="white"/>
</clipPath>
</defs>
</svg>
