<svg xmlns="http://www.w3.org/2000/svg" width="292" height="407" fill="none" viewBox="0 0 292 407"><path fill="url(#paint0_radial_1072_27571)" d="M276 383.83C276 384.64 275.84 385.443 275.53 386.191C275.22 386.94 274.765 387.62 274.192 388.193C273.619 388.766 272.939 389.22 272.191 389.53C271.442 389.84 270.64 390 269.83 390H16.1685C15.3583 390 14.556 389.84 13.8074 389.53C13.0588 389.22 12.3786 388.766 11.8057 388.193C11.2327 387.62 10.7783 386.94 10.4682 386.191C10.1581 385.443 9.99854 384.64 9.99854 383.83V16.17C9.99854 14.5336 10.6486 12.9643 11.8057 11.8072C12.9628 10.6501 14.5321 10 16.1685 10H269.829C271.465 10 273.034 10.6501 274.191 11.8072C275.348 12.9643 275.999 14.5336 275.999 16.17L276 383.83Z"/><path fill="#E1EF74" d="M265 20V380H20V20H265ZM269.268 0H16.107C7.176 0 0 7.239 0 16.169V383.83C0 392.761 7.177 400 16.107 400H269.268C278.198 400 284.999 392.761 284.999 383.83V16.169C284.999 7.239 277.978 0 269.049 0H269.268Z"/><path fill="#414042" d="M268.916 10C272.316 10 275 12.768 275 16.169V383.83C275 387.232 272.67 390 269.269 390H16.107C12.705 390 10 387.232 10 383.83V16.169C10 12.768 12.705 10 16.107 10H269M269.268 0H16.107C7.176 0 0 7.239 0 16.169V383.83C0 392.761 7.177 400 16.107 400H269.268C278.198 400 284.999 392.761 284.999 383.83V16.169C284.999 7.239 277.978 0 269.049 0H269.268Z"/><path stroke="#E5E5E5" stroke-miterlimit="10" stroke-width="4" d="M22.9995 23H261.999V377H22.9995V23Z"/><path fill="#F2DE9C" d="M126.959 277.878C114.237 277.878 102.108 276.877 98.2436 276.154C92.2686 275.036 80.4256 269.667 74.0826 260.019C70.1746 254.075 68.9916 247.533 70.5676 240.573C70.8186 239.451 71.1416 238.4 71.5286 237.453L107.232 122.235C107.373 121.777 107.643 121.37 108.01 121.062C108.507 120.644 120.343 110.796 134.615 108.292C139.829 107.377 144.067 106.932 147.571 106.932C152.658 106.932 156.394 107.804 160.467 109.943C164.998 112.323 170.704 113.53 177.427 113.53C177.914 113.53 178.406 113.523 178.905 113.51C179.251 113.501 179.615 113.496 179.998 113.496C187.973 113.496 206.61 115.638 210.252 118.228C212.873 120.097 211.898 123.128 210.865 126.337C209.491 130.607 207.191 137.754 208.347 149.379C210 165.977 205.175 181.035 203.115 187.466C202.828 188.362 202.506 189.369 202.419 189.742C202.436 190.136 202.567 191.385 202.694 192.596C203.429 199.564 204.959 214.065 202.446 222.893C199.548 233.1 198.854 241.767 198.847 241.853C198.821 242.185 198.729 242.508 198.577 242.805C198.425 243.101 198.215 243.364 197.959 243.577C197.704 243.791 197.408 243.952 197.09 244.05C196.772 244.148 196.437 244.182 196.106 244.149C196.003 244.139 186.235 243.159 173.882 241.675C166.523 266.171 164.23 269.332 163.327 270.367C162.868 271.014 162.326 271.599 161.716 272.106C157.061 275.936 145.366 277.878 126.959 277.878Z"/><path fill="#77491B" d="M147.572 109.432C152.884 109.432 156.157 110.503 159.306 112.156C164.053 114.65 170.16 116.03 177.428 116.03C177.937 116.03 178.451 116.023 178.971 116.009C179.296 116 179.638 115.996 179.998 115.996C188.45 115.996 206.041 118.301 208.803 120.265C211.679 122.316 203.87 129.619 205.861 149.626C207.853 169.632 200.009 187.712 199.921 189.551C199.828 191.395 203.051 211.638 200.043 222.209C197.042 232.776 196.356 241.661 196.356 241.661C196.356 241.661 185.543 240.58 172.091 238.939C168.521 250.938 163.66 266.237 161.365 268.812C161.018 269.321 160.603 269.779 160.13 270.173C155.241 274.194 140.767 275.377 126.958 275.377C114.463 275.377 102.512 274.408 98.7028 273.696C90.7708 272.212 68.4448 261.265 73.0058 241.125C73.2146 240.159 73.5081 239.214 73.8828 238.301L109.619 122.974C109.619 122.974 121.273 113.17 135.047 110.754C140.286 109.835 144.312 109.432 147.572 109.432ZM147.572 104.432C143.922 104.432 139.543 104.889 134.183 105.829C119.256 108.447 106.918 118.712 106.401 119.148C105.668 119.765 105.127 120.579 104.843 121.494L69.1708 236.613C68.7318 237.723 68.3824 238.867 68.1258 240.034C66.4218 247.56 67.7578 254.951 71.9918 261.392C78.7608 271.687 91.4038 277.417 97.7828 278.611C102.326 279.461 114.771 280.378 126.958 280.378C155.595 280.378 161.398 275.605 163.306 274.036C164.052 273.419 164.717 272.711 165.285 271.927C166.43 270.598 168.76 267.164 175.669 244.406C182.392 245.204 189.122 245.948 195.858 246.636C196.521 246.702 197.19 246.636 197.827 246.44C198.464 246.244 199.055 245.922 199.566 245.495C200.076 245.067 200.497 244.541 200.801 243.949C201.106 243.356 201.289 242.709 201.34 242.045C201.346 241.964 202.036 233.486 204.851 223.574C207.496 214.282 205.932 199.457 205.18 192.333C205.09 191.476 204.991 190.533 204.944 189.983C205.072 189.552 205.294 188.858 205.496 188.227C207.603 181.649 212.54 166.244 210.836 149.129C209.731 138.023 211.846 131.45 213.245 127.101C214.329 123.733 215.812 119.121 211.706 116.193C206.986 112.837 186.071 110.995 179.998 110.995C179.592 110.995 179.205 111 178.839 111.01C178.364 111.022 177.894 111.029 177.428 111.029C171.203 111.029 165.74 109.888 161.631 107.729C157.228 105.418 153.024 104.432 147.572 104.432Z"/><path fill="#9E7B44" d="M137.169 233.677C137.169 233.677 157.21 257.061 160.273 268.529C162.155 275.592 176.369 224.082 176.369 224.082C176.369 224.082 138.679 233.208 137.169 233.677Z"/><path fill="#BC995B" d="M73.0041 241.124C75.5411 229.904 84.6921 229.395 109.981 230.022C135.268 230.652 137.254 231.946 143.986 235.08C150.722 238.21 169.447 262.516 160.129 270.173C150.816 277.832 106.72 275.195 98.7021 273.695C90.7701 272.212 68.4441 261.265 73.0041 241.124Z"/><path fill="#9E7B44" d="M130.608 231.323C130.891 231.347 131.235 231.379 131.659 231.42C132.432 231.494 133.206 231.552 133.979 231.621C132.393 231.34 130.512 231.099 128.196 230.889C128.532 230.95 128.868 231.025 129.206 231.081C129.834 231.185 130.284 231.263 130.608 231.323ZM103.356 271.625C91.5063 270.392 82.4773 263.284 73.9263 254.327C78.5843 266.079 92.7233 272.578 98.7013 273.697C106.254 275.11 145.822 277.529 158.165 271.4C142.007 274.875 124.981 273.875 103.356 271.625Z"/><path fill="#F2DE9C" d="M73.0039 241.125L109.617 122.974C109.617 122.974 121.271 113.17 135.045 110.754C148.817 108.337 154.222 109.488 159.304 112.156C164.383 114.824 171.019 116.218 178.969 116.01C186.925 115.801 205.922 118.219 208.801 120.266C211.677 122.317 203.868 129.62 205.859 149.627C207.851 169.633 200.007 187.713 199.919 189.552C199.826 191.396 203.049 211.639 200.041 222.21C197.04 232.777 196.354 241.662 196.354 241.662C196.354 241.662 143.984 236.428 126.354 231.489C115.795 228.53 82.7779 229.186 73.0039 241.125Z"/><path fill="#BC995B" d="M155.501 166.634C152.778 187.121 146.81 230.256 145.284 235.288C146.167 235.48 165.592 238.24 168.084 238.589C168.202 238.305 153.776 229.187 155.646 190.427C155.825 186.668 155.372 174.324 155.501 166.634ZM208.804 120.266C205.925 118.219 186.928 115.8 178.972 116.01C171.022 116.218 164.386 114.825 159.307 112.156C159.094 112.046 158.884 111.938 158.666 111.833C158.759 112.281 161.043 132.301 161.08 144.159C161.699 154.726 163.486 181.217 164.769 183.65C165.842 174.859 163.839 155.934 166.917 136.447C168.542 126.166 166.054 117.549 170.351 118.485C174.9 118.183 181.238 117.941 185.367 118.541C191.283 119.401 202.377 118.54 206.459 122.532C206.754 122.822 206.932 123.742 205.775 131.296C204.536 139.404 204.829 148.009 205.945 150.711C205.916 150.351 205.898 149.992 205.861 149.628C203.872 129.62 211.68 122.317 208.804 120.266ZM197.854 187.409C196.678 196.293 200.618 204.368 193.398 224.185C191.075 230.57 189.282 224.702 188.645 207.394C188.313 209.713 187.157 222.052 186.722 228.911C187.312 233.05 186.879 236.845 186.07 240.486C192.113 241.184 196.357 241.663 196.357 241.663C196.357 241.663 196.79 232.632 200.044 222.211C202.773 213.47 200.384 194.526 200.384 194.526C200.384 194.526 199.679 190.177 200.221 188.497C201.193 185.487 203.447 178.405 204.767 171.225C200.758 180.761 198.225 184.604 197.854 187.409Z" opacity=".5"/><path fill="#9E7B44" d="M79.1055 254.125C79.1055 254.125 86.8555 264.25 99.8555 267.75C112.855 271.25 140.105 271 149.606 269.625C159.106 268.25 104.105 274.375 79.1055 254.125ZM76.8555 246.375C76.8555 246.375 84.6095 233.13 111.105 234C145.356 235.125 148.731 244.5 148.731 244.5C148.731 244.5 106.105 225.375 76.8555 246.375Z"/><path fill="#9E7B44" d="M83.6489 246.333C83.6489 246.333 96.1059 238.125 117.356 239.625C138.606 241.125 147.891 246.633 149.857 247.875C154.607 250.875 159.818 261.202 156.857 263.625C154.107 265.875 136.016 267.441 119.606 265.125C98.3559 262.125 92.8559 257.625 92.8559 257.625C92.8559 257.625 109.266 261.875 122.981 262.625C131.522 263.092 149.482 264.75 151.482 258.375C153.101 253.213 141.856 247.125 128.231 244.25C117.76 242.041 96.1449 242.758 83.6489 246.333Z"/><path fill="#9E7B44" d="M84.2322 248.75C82.2322 252.25 93.8432 256.47 113.982 259C137.857 262 147.483 260 148.108 257.5C148.733 255 147.687 253.881 136.107 249.5C122.232 244.25 86.2322 245.25 84.2322 248.75ZM153.808 268.667C153.808 268.667 158.808 266.834 159.391 264.084C159.974 261.334 161.975 269.417 153.808 268.667Z"/><defs><radialGradient id="paint0_radial_1072_27571" cx="0" cy="0" r="1" gradientTransform="translate(143 200) scale(177.5 177.5)" gradientUnits="userSpaceOnUse"><stop stop-color="#E5ECAC"/><stop offset=".5" stop-color="#BDD26F"/><stop offset="1" stop-color="#98C52F"/></radialGradient></defs></svg>