<svg width="292" height="407" viewBox="0 0 292 407" fill="none" xmlns="http://www.w3.org/2000/svg">
<path d="M276.001 383.83C276.001 385.466 275.351 387.035 274.194 388.193C273.037 389.35 271.468 390 269.832 390H16.17C14.5338 390 12.9647 389.35 11.8078 388.193C10.6509 387.035 10.001 385.466 10.001 383.83V16.17C10.001 14.5338 10.6509 12.9646 11.8078 11.8075C12.9647 10.6504 14.5338 10.0003 16.17 10H269.831C271.467 10.0003 273.036 10.6504 274.193 11.8075C275.35 12.9646 276 14.5338 276 16.17V383.83H276.001Z" fill="url(#paint0_radial_1072_27604)"/>
<path d="M265 20V380H20V20H265ZM269.331 0H16.169C7.239 0 0 7.239 0 16.169V383.83C0 392.761 7.239 400 16.169 400H269.331C278.261 400 285 392.761 285 383.83V16.169C285 7.239 278.011 0 269.081 0H269.331Z" fill="#CDEBFF"/>
<path d="M268.916 10C272.317 10 275 12.768 275 16.169V383.83C275 387.232 272.732 390 269.331 390H16.169C14.5333 389.998 12.9651 389.347 11.8086 388.191C10.652 387.034 10.0016 385.466 10 383.83V16.169C10.0021 14.5335 10.6527 12.9656 11.8092 11.8092C12.9656 10.6527 14.5335 10.0021 16.169 10H269M269.331 0H16.169C7.239 0 0 7.239 0 16.169V383.83C0 392.761 7.239 400 16.169 400H269.331C278.261 400 285 392.761 285 383.83V16.169C285 7.239 278.011 0 269.081 0H269.331Z" fill="#414042"/>
<path d="M23.0005 23H262V377H23.0005V23Z" stroke="#E5E5E5" stroke-width="4" stroke-miterlimit="10"/>
<path d="M111.273 265.725C109.504 265.724 107.736 265.642 105.974 265.479C102.297 265.136 98.6629 264.431 95.1243 263.375C94.8921 263.374 94.6612 263.34 94.4383 263.276C94.3093 263.238 91.2203 262.334 86.9453 260.207L86.6063 260.039C86.2444 259.855 85.884 259.668 85.5253 259.478C82.5629 257.932 79.7511 256.113 77.1263 254.046C76.5701 253.611 76.0227 253.166 75.4843 252.71L75.3953 252.633C75.1733 252.444 74.9553 252.258 74.7373 252.065C68.0123 246.124 62.7703 238.974 61.3233 236.924C52.8623 225.299 49.3283 210.792 51.3953 196.104C55.5953 166.267 81.2283 143.768 111.02 143.768C112.785 143.768 114.571 143.851 116.33 144.014C121.209 144.463 126.007 145.554 130.6 147.26C131.546 147.446 133.145 148.01 136.91 150.041C137.134 150.162 137.35 150.286 137.567 150.41L137.992 150.653C138.596 150.996 139.13 151.308 139.654 151.627C140.034 151.856 140.421 152.095 140.803 152.338C141.026 152.481 141.884 153.049 141.884 153.049C142.189 153.252 142.495 153.454 142.794 153.664C145.142 155.3 147.38 157.089 149.493 159.02C149.761 158.968 150.028 158.919 150.296 158.872C157.903 157.216 165.868 156.376 173.969 156.376C183.598 156.376 192.815 157.556 201.364 159.883C220.971 165.22 233.332 175.697 234.505 187.946C235.065 190.03 235.125 194.767 235.13 196.255C235.139 199.399 234.914 204.843 234.904 205.073C234.894 205.302 234.853 205.526 234.784 205.74C234.209 210.098 232.186 214.303 228.761 218.254C228.722 221.399 228.552 225.529 228.544 225.721C228.534 225.951 228.493 226.175 228.424 226.388C227.754 231.475 225.142 236.319 220.653 240.791C209.402 251.997 187.907 258.957 164.555 258.957C156.918 258.957 149.482 258.206 142.433 256.723C132.933 262.615 122.181 265.725 111.273 265.725Z" fill="#C9C9C9"/>
<path d="M111.022 146.267C112.705 146.267 114.4 146.344 116.101 146.502C120.839 146.936 125.496 148.007 129.948 149.684C130.841 149.804 132.683 150.6 135.725 152.241C136.038 152.41 136.339 152.589 136.647 152.763C136.706 152.795 136.763 152.829 136.822 152.862C137.715 153.367 138.595 153.895 139.461 154.446C139.736 154.622 140.004 154.802 140.275 154.981C140.638 155.223 141.004 155.461 141.36 155.711C143.966 157.527 146.431 159.537 148.733 161.725C149.413 161.579 150.096 161.446 150.78 161.326C158.136 159.721 166.022 158.877 173.971 158.877C183.037 158.877 192.184 159.976 200.709 162.296C219.92 167.525 231.155 177.644 232.039 188.424C232.432 189.44 232.622 193.328 232.631 196.263C232.64 199.387 232.407 204.97 232.407 204.97L232.362 204.946C231.928 209.104 229.938 213.297 226.27 217.294C226.261 220.468 226.047 225.619 226.047 225.619L226.002 225.594C225.528 230.127 223.222 234.705 218.89 239.021C207.782 250.084 186.404 256.458 164.557 256.458C156.946 256.458 149.274 255.684 141.964 254.064C132.94 259.872 122.347 263.225 111.274 263.225C109.594 263.225 107.903 263.147 106.206 262.99C102.306 262.627 98.4578 261.838 94.7303 260.635C94.9853 260.788 95.1353 260.875 95.1353 260.875C95.1353 260.875 92.1823 260.02 88.0603 257.969C87.9453 257.913 87.8323 257.856 87.7183 257.799C87.3763 257.625 87.0359 257.448 86.6973 257.268C83.8678 255.793 81.1824 254.057 78.6763 252.083C78.1435 251.666 77.6191 251.24 77.1033 250.803L77.0143 250.726C76.8059 250.549 76.5992 250.371 76.3943 250.191C69.8503 244.41 64.7553 237.449 63.3673 235.482C55.5853 224.79 51.8213 211.027 53.8723 196.451C57.9083 167.792 82.9343 146.266 111.022 146.267ZM111.022 141.267C96.1703 141.267 81.6513 146.799 70.1403 156.844C58.5683 166.942 51.0333 180.761 48.9223 195.754C46.7663 211.076 50.4533 226.217 59.3033 238.394C60.8183 240.538 66.1873 247.846 73.0853 253.938C73.3133 254.14 73.5433 254.336 73.7733 254.533L73.8603 254.608C74.4203 255.083 75.0023 255.557 75.5973 256.022C78.3435 258.183 81.2849 260.084 84.3833 261.7C84.7303 261.884 85.0993 262.077 85.4583 262.259L85.6033 262.331L85.8773 262.467C90.3073 264.671 93.6063 265.637 93.7443 265.677C94.0613 265.769 94.3823 265.828 94.7003 265.856C98.3051 266.912 102.003 267.619 105.743 267.968C107.576 268.138 109.436 268.224 111.274 268.224C122.322 268.224 133.211 265.168 142.896 259.37C149.822 260.756 157.098 261.457 164.557 261.457C188.546 261.457 210.717 254.217 222.419 242.562C227.26 237.739 230.105 232.469 230.881 226.887C230.973 226.544 231.028 226.188 231.043 225.825C231.05 225.649 231.192 222.203 231.248 219.185C234.594 215.115 236.605 210.774 237.239 206.251C237.332 205.904 237.387 205.544 237.403 205.178C237.413 204.946 237.64 199.447 237.631 196.249C237.622 193.381 237.495 189.734 236.979 187.544C235.612 174.289 222.591 163.07 202.023 157.471C193.261 155.085 183.824 153.876 173.972 153.876C165.859 153.876 157.877 154.701 150.237 156.328C148.321 154.64 146.311 153.063 144.215 151.605C143.915 151.395 143.591 151.18 143.268 150.965L143.046 150.818L142.835 150.678C142.612 150.53 142.389 150.382 142.162 150.237C141.758 149.979 141.35 149.727 140.939 149.48C140.396 149.15 139.847 148.828 139.293 148.515L139.238 148.483L139.105 148.408L138.814 148.242C138.579 148.107 138.344 147.972 138.103 147.842C134.459 145.876 132.609 145.142 131.296 144.85C126.551 143.106 121.599 141.988 116.564 141.524C114.722 141.353 112.873 141.267 111.022 141.267Z" fill="#444444"/>
<path d="M218.89 239.021C203.166 254.681 166.85 260.959 137.774 253.043C118.647 247.836 107.418 237.784 106.447 227.058C105.942 221.477 108.214 215.714 113.594 210.355C129.316 194.694 165.632 188.417 194.71 196.333C223.786 204.248 234.612 223.36 218.89 239.021Z" fill="#6D6D6D"/>
<path d="M106.086 213.599C105.64 214.269 105.946 218.251 105.937 221.375C105.927 224.499 106.606 228.407 106.606 228.407C106.606 228.407 107.834 229.412 109.285 225.393C110.737 221.375 106.842 212.465 106.086 213.599ZM225.6 208.91C226.047 209.579 226.26 213.786 226.271 216.91C226.279 220.035 226.047 225.618 226.047 225.618C226.047 225.618 224.598 224.948 223.148 220.929C221.696 216.91 224.844 207.776 225.6 208.91Z" fill="#6D6D6D"/>
<path d="M218.527 225.629C202.804 241.289 166.488 247.567 137.412 239.651C108.334 231.734 97.5094 212.623 113.232 196.963C128.954 181.303 165.269 175.025 194.348 182.942C223.425 190.857 234.251 209.97 218.527 225.629Z" fill="#C9C9C9"/>
<path d="M210.203 221.267C197.089 233.287 166.655 237.964 142.229 231.714C117.801 225.465 108.63 210.656 121.745 198.638C134.86 186.619 165.292 181.941 189.72 188.19C214.147 194.44 223.318 209.249 210.203 221.267Z" fill="#C9C9C9" stroke="#6D6D6D" stroke-width="3.066" stroke-miterlimit="10"/>
<path opacity="0.8" d="M218.619 225.655C202.87 241.342 166.49 247.63 137.365 239.701C108.237 231.771 97.3927 212.626 113.143 196.939C128.892 181.251 165.27 174.963 194.399 182.893C223.525 190.822 234.369 209.967 218.619 225.655Z" fill="#6D6D6D"/>
<path d="M225.247 218.373C209.524 234.033 173.208 240.311 144.132 232.395C125.006 227.187 113.777 217.135 112.805 206.41C112.3 200.829 114.572 195.065 119.952 189.707C135.674 174.046 171.99 167.769 201.068 175.685C230.145 183.599 240.971 202.711 225.247 218.373Z" fill="#6D6D6D"/>
<path d="M112.447 192.952C112.001 193.622 112.308 197.604 112.298 200.728C112.289 203.852 112.967 207.761 112.967 207.761C112.967 207.761 114.195 208.765 115.646 204.747C117.098 200.728 113.202 191.818 112.447 192.952ZM231.96 188.263C232.407 188.933 232.621 193.139 232.631 196.263C232.64 199.387 232.407 204.97 232.407 204.97C232.407 204.97 230.959 204.3 229.508 200.282C228.057 196.263 231.205 187.129 231.96 188.263Z" fill="#6D6D6D"/>
<path d="M224.886 204.982C209.163 220.641 172.848 226.919 143.771 219.003C114.693 211.087 103.868 191.975 119.591 176.315C135.313 160.655 171.628 154.377 200.707 162.294C229.783 170.209 240.609 189.322 224.886 204.982Z" fill="#A8A8A8"/>
<path d="M216.563 200.619C203.449 212.638 173.015 217.315 148.588 211.066C124.161 204.816 114.99 190.008 128.105 177.99C141.221 165.971 171.655 161.294 196.082 167.543C220.508 173.792 229.677 188.6 216.563 200.619Z" fill="#A8A8A8" stroke="#6D6D6D" stroke-width="3.066" stroke-miterlimit="10"/>
<path opacity="0.8" d="M149.196 255.261C149.197 255.261 154.129 251.029 157.878 243.263C158.983 240.974 166.323 235.764 166.323 235.764C166.323 235.764 169.284 227.831 170.508 223.056C179.816 186.734 151.721 161.173 151.721 161.173C151.721 161.173 135.778 163.304 123.228 173.072C123.228 173.072 117.485 177.335 114.348 183.728C113.033 186.408 112.796 189.335 112.444 192.95C112.276 194.68 112.394 202.731 112.394 202.731C112.394 202.731 106.71 230.022 107.658 232.094C107.658 232.095 129.305 253.841 149.196 255.261Z" fill="#444444"/>
<path d="M168.433 213.041C164.158 243.416 136.299 265.779 106.207 262.989C76.1145 260.197 55.1855 233.312 59.4615 202.936C63.7365 172.558 91.5965 150.197 121.688 152.987C151.779 155.777 172.708 182.663 168.433 213.041Z" fill="#6D6D6D"/>
<path d="M62.98 234.924C62.98 234.924 68.694 243.387 76.396 250.192C85.262 258.024 95.136 260.875 95.136 260.875C95.136 260.875 74.132 248.639 62.98 234.924ZM165.901 186.963C165.901 186.963 157.748 164.124 135.725 152.24C113.702 140.359 154.334 172.612 165.901 186.963Z" fill="#6D6D6D"/>
<path d="M162.847 206.556C158.57 236.93 130.711 259.292 100.619 256.504C70.5269 253.714 49.5979 226.828 53.8729 196.452C58.1489 166.075 86.0089 143.713 116.101 146.502C146.193 149.293 167.121 176.178 162.847 206.556Z" fill="#C9C9C9"/>
<path d="M152.704 205.613C149.224 230.334 126.551 248.534 102.06 246.263C77.5688 243.992 60.5388 222.111 64.0178 197.391C67.4968 172.668 90.1698 154.47 114.66 156.742C139.15 159.012 156.181 180.894 152.704 205.613Z" fill="#C9C9C9" stroke="#6D6D6D" stroke-width="3.166" stroke-miterlimit="10"/>
<path opacity="0.4" d="M90.8479 180.777C112.905 175.607 135.947 174.456 158.831 177C151.454 160.395 135.73 148.32 116.102 146.5C87.2359 143.824 60.4369 164.297 54.5259 192.785C66.2369 187.633 78.5949 183.65 90.8479 180.777Z" fill="#EFEFEF"/>
<defs>
<radialGradient id="paint0_radial_1072_27604" cx="0" cy="0" r="1" gradientUnits="userSpaceOnUse" gradientTransform="translate(143.001 200) scale(177.499 177.499)">
<stop stop-color="#A4C7DC"/>
<stop offset="0.495209" stop-color="#85AEC0"/>
<stop offset="1" stop-color="#6696A4"/>
</radialGradient>
</defs>
</svg>
