<svg width="400" height="400" viewBox="0 0 400 400" fill="none" xmlns="http://www.w3.org/2000/svg">
  <defs>
    <radialGradient id="greenBg" cx="0" cy="0" r="1" gradientUnits="userSpaceOnUse" gradientTransform="translate(200 200) scale(200)">
      <stop stop-color="#8AD147"/>
      <stop offset="0.5" stop-color="#5FB248"/>
      <stop offset="1" stop-color="#399346"/>
    </radialGradient>
  </defs>
  
  <rect width="400" height="400" fill="url(#greenBg)"/>
  
  <g transform="translate(55, 15)">
    <path d="M113.377 115.25L215.416 116.183C215.416 116.183 229.273 116.181 231.668 124.162C234.441 133.397 228.325 137.041 228.325 137.041L201.97 137.645C201.97 137.645 195.608 155.587 204.587 196.663C208.457 214.363 204.417 241.949 197.697 255.63C188.822 273.697 175.289 276.195 175.289 276.195C175.289 276.195 170.657 278.356 158.715 276.55C146.772 274.749 63.9702 264.346 63.9702 264.346C63.9702 264.346 44.8632 260.714 55.1602 239.581C62.0402 225.458 79.4092 228.625 79.4092 228.625L89.1862 229.158C89.1862 229.158 94.1412 206.156 90.0022 185.762C86.3112 167.584 77.1672 127.257 113.377 115.25Z" fill="#E5DCC7" stroke="#605745" stroke-width="5" stroke-miterlimit="10"/>
    <path d="M77.226 230.208L175.712 237.517C175.712 237.517 158.28 238.165 153.533 250.792C149.297 262.062 156.866 268.154 156.866 268.154L55.329 255.891C55.329 255.891 51.201 249.738 57.974 238.434C64.38 227.745 76.857 230.948 77.226 230.208Z" fill="#E5DCC7"/>
    <path d="M90.9894 231.001L179.742 239.688C179.742 239.688 178.752 238.576 175.774 237.431C173.627 237.127 91.4604 229.294 91.4604 229.294L90.9894 231.001ZM200.087 135.55C200.087 135.55 206.441 117.749 215.812 118.075C220.362 118.234 228.032 118.805 230.161 125.913C231.847 131.538 228.066 135.262 228.066 135.262L200.087 135.55ZM55.3284 255.892L156.866 268.155C156.866 268.155 159.595 271.358 163.36 272.488C168.964 274.172 173.667 274.766 173.667 274.766C173.667 274.766 168.946 276.766 153.747 274.266C138.549 271.766 62.8944 262.502 62.8944 262.502C62.8944 262.502 55.6674 259.647 55.3284 255.892Z" fill="#A09680"/>
    <path d="M152.594 256.099L183.005 258.851C183.005 258.851 186.575 238.337 174.986 237.783C163.397 237.228 153.743 245.58 152.594 256.099Z" fill="#A09680"/>
    <path d="M156.866 268.153C156.866 268.153 155.015 267.236 153.545 262.933C152.079 258.628 152.594 256.098 152.594 256.098L156.502 256.18C156.502 256.18 158.162 266.642 164.543 269.161C167.598 270.371 172.03 272.42 177.869 269.755C186.245 265.932 193.084 256.982 195.782 248.404C200.147 230.285 200.81 228.369 201.189 216.772C201.681 201.658 188.957 156.24 197.918 133.642C204.342 117.449 212.724 118.541 212.724 118.541C212.724 118.541 194.237 127.837 197.826 166.99C197.826 166.99 199.445 186.868 201.562 194.352C203.136 199.922 206.687 221.253 198.938 246.236C190.57 273.207 174.045 274.611 174.045 274.611C166.851 274.464 163.213 275.053 156.866 268.153Z" fill="#A09680"/>
  </g>
</svg>