<svg xmlns="http://www.w3.org/2000/svg" xmlns:xlink="http://www.w3.org/1999/xlink" width="350" height="350" transform="matrix(-1.8369701987210297e-16,-1,1,-1.8369701987210297e-16,0,0)" version="1.1" viewBox="-75 -150 500 500"><rect width="50" height="50" x="0" y="0" fill="#0a0"/><rect width="50" height="50" x="75" y="0" fill="#0a0"/><rect width="50" height="50" x="150" y="0" fill="#0a0"/><rect width="50" height="50" x="225" y="0" fill="#0a0"/><rect width="50" height="50" x="300" y="0" fill="#0a0"/><rect width="50" height="50" x="0" y="75" fill="#f7c12a"/><rect width="50" height="50" x="75" y="75" fill="#f7c12a"/><rect width="50" height="50" x="150" y="75" fill="#f7c12a"/><rect width="50" height="50" x="225" y="75" fill="#f7c12a"/><rect width="50" height="50" x="300" y="75" fill="#f7c12a"/><rect width="50" height="50" x="0" y="150" fill="#00a"/><rect width="50" height="50" x="75" y="150" fill="#00a"/><rect width="50" height="50" x="150" y="150" fill="#00a"/><rect width="50" height="50" x="225" y="150" fill="#00a"/><rect width="50" height="50" x="300" y="150" fill="#00a"/></svg>