<?xml version="1.0" encoding="UTF-8" standalone="no"?>
<svg
   width="330"
   height="330"
   viewBox="0 0 33 33"
   version="1.1"
   id="svg5"
   xml:space="preserve"
   xmlns="http://www.w3.org/2000/svg"
   xmlns:svg="http://www.w3.org/2000/svg">
  <defs id="defs2">
    <radialGradient
       id="paint0_angular"
       cx="0"
       cy="0"
       r="1"
       gradientUnits="userSpaceOnUse"
       gradientTransform="matrix(0,24.109,-27.3376,0,39.1306,37.4996)">
      <stop stop-color="#F6FAF6" id="stop193" />
      <stop offset="1" stop-color="#F6FAF6" id="stop195" />
    </radialGradient>
    <radialGradient
       id="paint0_angular-8"
       cx="0"
       cy="0"
       r="1"
       gradientUnits="userSpaceOnUse"
       gradientTransform="matrix(0,24.109,-27.3376,0,39.1306,37.4996)">
      <stop stop-color="#F6FAF6" id="stop193-0" />
      <stop offset="1" stop-color="#F6FAF6" id="stop195-2" />
    </radialGradient>
  </defs>
  <g id="layer1" transform="translate(0, 2.5)">
    <g
       style="fill:none"
       id="g209"
       transform="matrix(0,-0.30630041,0.30493836,0,10.739932,25.933477)">
      <path
         d="m 39.457,61.6086 c -2.295,-0.002 -4.164,-1.863 -4.164,-4.152 v -6.832 H 15.418 c -0.9611,-10e-4 -1.8825,-0.3833 -2.5621,-1.0629 -0.6796,-0.6796 -1.0619,-1.601 -1.0629,-2.5621 v -19 c 0.001,-0.9611 0.3833,-1.8825 1.0629,-2.5621 0.6796,-0.6796 1.601,-1.0618 2.5621,-1.0629 h 19.875 v -6.832 c 0.0026,-1.1024 0.4426,-2.1588 1.2232,-2.9372 0.7807,-0.7784 1.8383,-1.2153 2.9408,-1.2148 1,0 1.937,0.355 2.707,1.027 l 22.885,19.957 c 0.4457,0.3896 0.803,0.8699 1.0478,1.4089 0.2448,0.539 0.3714,1.1241 0.3714,1.7161 0,0.592 -0.1266,1.1771 -0.3714,1.7161 -0.2448,0.539 -0.6021,1.0194 -1.0478,1.4089 l -22.885,19.957 c -0.746,0.6625 -1.7093,1.028 -2.707,1.027 z"
         fill="url(#paint0_angular)"
         id="path189"
         style="fill:url(#paint0_angular-8)" />
      <path
         d="m 39.457,14.3906 c 0.709,0 1.433,0.242 2.051,0.781 l 22.883,19.957 c 0.3387,0.2952 0.6103,0.6596 0.7964,1.0686 0.186,0.409 0.2823,0.8531 0.2823,1.3024 0,0.4494 -0.0963,0.8935 -0.2823,1.3025 -0.1861,0.4089 -0.4577,0.7733 -0.7964,1.0685 l -22.886,19.957 c -0.5645,0.5022 -1.2935,0.78 -2.049,0.781 -1.624,0 -3.165,-1.272 -3.165,-3.152 v -7.832 H 15.418 c -0.6962,0 -1.3639,-0.2765 -1.8562,-0.7688 -0.4923,-0.4923 -0.7688,-1.16 -0.7688,-1.8562 v -19 c 0,-0.6962 0.2765,-1.3638 0.7688,-1.8561 0.4923,-0.4923 1.16,-0.7689 1.8562,-0.7689 h 20.875 v -7.833 c 0,-1.88 1.541,-3.151 3.164,-3.151 z m 0,-2 c -2.847,0 -5.164,2.312 -5.164,5.151 v 5.833 H 15.418 c -1.2263,0.0013 -2.4019,0.489 -3.2689,1.3561 -0.8671,0.8671 -1.3548,2.0427 -1.3561,3.2689 v 19 c 0.0013,1.2262 0.489,2.4019 1.3561,3.2689 0.867,0.8671 2.0426,1.3548 3.2689,1.3561 h 18.875 v 5.832 c 0,2.841 2.316,5.152 5.164,5.152 1.2384,-0.0042 2.4334,-0.4567 3.364,-1.274 l 22.884,-19.957 c 0.5536,-0.4831 0.9973,-1.0791 1.3014,-1.748 0.3041,-0.669 0.4614,-1.3952 0.4614,-2.13 0,-0.7347 -0.1573,-1.461 -0.4614,-2.1299 -0.3041,-0.6689 -0.7478,-1.265 -1.3014,-1.7481 L 42.821,13.6636 c -0.9309,-0.8165 -2.1258,-1.2686 -3.364,-1.273 z"
         fill="#223948"
         id="path191" />
    </g>
    <g
       style="fill:none"
       id="g274"
       transform="matrix(0.18558587,0,0,0.23309744,3.9599224,0.18295713)">
      <path d="m 25.802,11.438 c -0.246,0.247 -0.538,0.444 -0.861,0.577 -0.323,0.133 -0.668,0.202 -1.016,0.201 l -9.377,0.002 C 13.845,12.217 13.17,11.938 12.673,11.44 12.176,10.942 11.895,10.268 11.894,9.565 V 3.827 A 2.64,2.64 0 0 1 12.671,1.95 c 0.246,-0.247 0.538,-0.443 0.86,-0.577 0.322,-0.134 0.667,-0.202 1.015,-0.201 h 9.377 c 0.704,0 1.379,0.279 1.877,0.776 0.498,0.497 0.778,1.172 0.779,1.875 v 5.739 c 10e-4,0.348 -0.067,0.694 -0.2,1.015 -0.133,0.321 -0.329,0.614 -0.577,0.86 z" fill="#916136" id="path211" />
      <path d="m 13.247,2.569 c 0.315,-0.315 0.742,-0.492 1.188,-0.493 l 9.602,-0.003 a 1.69,1.69 0 0 1 1.68,1.681 l 0.002,5.876 a 1.67,1.67 0 0 1 -0.496,1.187 c -0.315,0.315 -0.741,0.492 -1.186,0.493 l -9.6,10e-4 A 1.69,1.69 0 0 1 12.755,9.631 V 3.756 A 1.68,1.68 0 0 1 13.247,2.569 Z M 11.782,1.103 C 11.432,1.45 11.154,1.864 10.965,2.32 10.776,2.776 10.679,3.264 10.68,3.758 l 0.002,5.875 a 3.76,3.76 0 0 0 3.754,3.754 l 9.6,-0.001 a 3.73,3.73 0 0 0 2.654,-1.104 c 0.35,-0.347 0.627,-0.76 0.816,-1.215 0.189,-0.455 0.285,-0.943 0.284,-1.436 V 3.754 A 3.76,3.76 0 0 0 26.688,1.101 3.76,3.76 0 0 0 24.034,0 l -9.6,0.002 c -1,0 -1.943,0.391 -2.652,1.101" fill="#42250d" id="path213" />
      <path d="m 36.204,40.478 c -0.222,0.223 -0.486,0.4 -0.776,0.52 -0.29,0.12 -0.602,0.182 -0.917,0.182 L 3.974,41.184 C 3.659,41.185 3.348,41.124 3.057,41.004 2.766,40.884 2.502,40.707 2.281,40.484 A 2.38,2.38 0 0 1 1.58,38.792 l -0.002,-6.87 c 0.002,-0.684 0.281,-1.106 0.516,-1.341 0.729,-0.728 2.055,-0.675 3.229,0.127 l 2.51,1.715 a 0.36,0.36 0 0 0 0.207,0.064 l 22.404,-0.005 c 0.074,10e-4 0.146,-0.021 0.207,-0.063 l 2.508,-1.717 c 0.766,-0.523 1.908,-0.91 2.826,-0.426 0.584,0.307 0.92,0.904 0.92,1.638 v 6.87 c 0,0.315 -0.062,0.626 -0.182,0.917 -0.12,0.291 -0.297,0.555 -0.519,0.777" fill="#916136" id="path215" />
      <path d="m 2.31,31.172 c 0.408,-0.407 1.299,-0.226 2.002,0.256 l 2.582,1.768 c 0.238,0.161 0.518,0.248 0.803,0.248 l 23.086,-0.005 c 0.285,0 0.564,-0.087 0.801,-0.248 l 2.584,-1.768 c 0.943,-0.646 2.223,-0.756 2.223,0.387 l 0.002,7.077 a 1.41,1.41 0 0 1 -0.416,1.005 c -0.132,0.132 -0.288,0.237 -0.46,0.309 -0.172,0.072 -0.357,0.108 -0.544,0.108 L 3.51,40.315 c -0.785,0 -1.42,-0.637 -1.422,-1.422 v -7.08 c 0,-0.291 0.082,-0.5 0.222,-0.641 z M 0.834,29.696 C 0.453,30.078 0,30.753 0,31.814 v 7.079 c 0.001,0.931 0.371,1.823 1.03,2.481 0.659,0.658 1.551,1.028 2.482,1.028 l 31.461,-0.005 a 3.49,3.49 0 0 0 2.48,-1.028 3.49,3.49 0 0 0 1.027,-2.482 L 38.478,31.81 c 0,-1.139 -0.561,-2.114 -1.504,-2.612 -1.354,-0.715 -2.947,-0.21 -3.986,0.502 L 30.576,31.351 7.902,31.354 5.488,29.705 C 3.832,28.571 1.961,28.568 0.834,29.696" fill="#42250d" id="path217" />
      <path d="M 13.91,7.367 H 24.564 V 35.469 H 13.91 Z" fill="#9b7753" id="path219" />
      <path d="m 14.898,8.258 8.672,-10e-4 0.006,26.325 -8.672,10e-4 z M 12.785,6.144 v 2.114 l 0.006,26.326 v 2.114 h 2.113 l 8.672,-10e-4 2.115,-0.001 V 34.582 L 25.685,8.256 V 6.141 H 23.57 l -8.672,0.003 z" fill="#603913" id="path221" />
      <path d="m 20.604,115.652 c -0.41,0.412 -1.016,0.604 -1.621,0.518 a 1.81,1.81 0 0 1 -1.346,-0.916 l -6.863,-12.688 -0.012,-65.348 16.988,-0.003 0.014,65.349 -6.861,12.689 a 1.73,1.73 0 0 1 -0.299,0.399 z" fill="#636362" id="path223" />
      <path d="m 11.64,37.62 15.23,-0.003 0.012,65.22 -6.861,12.687 c -0.032,0.062 -0.074,0.119 -0.125,0.168 -0.371,0.375 -1.115,0.318 -1.379,-0.167 L 11.652,102.84 Z M 9.578,35.559 v 2.063 L 9.59,102.84 v 0.523 l 0.25,0.459 6.863,12.685 c 0.43,0.794 1.205,1.326 2.127,1.461 0.934,0.137 1.881,-0.169 2.527,-0.817 0.189,-0.191 0.354,-0.407 0.48,-0.645 l 6.859,-12.688 0.246,-0.46 v -0.522 L 28.932,37.617 V 35.555 H 26.869 L 11.64,35.559 Z" fill="#414042" id="path225" />
      <path d="M 14.953,11.789 H 21.41 V 34.422 H 14.953 Z" fill="#c49a6c" id="path227" />
      <path d="m 25.594,11.234 a 2.35,2.35 0 0 1 -1.672,0.693 l -9.377,0.002 c -0.627,0 -1.228,-0.25 -1.672,-0.693 C 12.429,10.793 12.18,10.191 12.18,9.564 V 3.827 c 0,-0.631 0.246,-1.224 0.693,-1.671 0.218,-0.221 0.478,-0.395 0.765,-0.514 0.287,-0.119 0.594,-0.18 0.905,-0.178 L 23.92,1.462 a 2.36,2.36 0 0 1 0.906,0.179 c 0.287,0.119 0.548,0.293 0.768,0.512 0.22,0.219 0.394,0.48 0.513,0.767 0.119,0.287 0.18,0.595 0.18,0.905 l 0.002,5.739 c 10e-4,0.311 -0.06,0.619 -0.18,0.905 -0.12,0.286 -0.294,0.547 -0.515,0.766" fill="#633b1a" id="path229" />
      <path d="M 13.386,2.664 A 1.64,1.64 0 0 1 14.544,2.182 L 23.923,2.18 a 1.65,1.65 0 0 1 1.641,1.642 l 0.002,5.739 a 1.64,1.64 0 0 1 -1.642,1.641 l -9.377,10e-4 A 1.65,1.65 0 0 1 12.904,9.561 V 3.823 A 1.64,1.64 0 0 1 13.386,2.664 Z M 12.363,1.642 C 12.075,1.928 11.847,2.268 11.691,2.643 11.535,3.018 11.456,3.42 11.457,3.825 l 0.002,5.738 a 3.06,3.06 0 0 0 0.906,2.183 c 0.286,0.288 0.626,0.516 1,0.671 0.374,0.155 0.776,0.235 1.182,0.234 l 9.377,-0.002 a 3.07,3.07 0 0 0 2.184,-0.905 3.07,3.07 0 0 0 0.904,-2.183 V 3.822 c 0,-0.824 -0.32,-1.598 -0.906,-2.184 C 25.82,1.351 25.479,1.123 25.104,0.968 24.729,0.813 24.327,0.733 23.922,0.734 l -9.377,0.001 c -0.823,0 -1.598,0.323 -2.182,0.907" fill="#42250d" id="path231" />
      <path d="m 35.998,40.274 c -0.195,0.196 -0.426,0.351 -0.681,0.457 -0.255,0.106 -0.528,0.16 -0.805,0.16 L 3.97,40.896 C 3.409,40.896 2.88,40.678 2.484,40.281 2.288,40.086 2.132,39.855 2.026,39.599 1.92,39.343 1.866,39.07 1.867,38.794 v -6.87 c 0,-0.583 0.232,-0.94 0.43,-1.137 0.732,-0.732 1.996,-0.428 2.861,0.161 l 2.508,1.716 a 0.66,0.66 0 0 0 0.371,0.115 l 22.406,-0.005 a 0.64,0.64 0 0 0 0.369,-0.114 l 2.508,-1.716 c 0.664,-0.452 1.723,-0.833 2.527,-0.408 0.285,0.149 0.764,0.53 0.764,1.381 v 6.87 c 0.001,0.276 -0.052,0.55 -0.157,0.805 -0.105,0.255 -0.26,0.487 -0.456,0.682" fill="#633b1a" id="path233" />
      <path d="m 2.805,31.296 c 0.396,-0.396 1.26,-0.219 1.943,0.248 l 2.508,1.716 c 0.229,0.157 0.5,0.241 0.779,0.241 l 22.406,-0.005 a 1.39,1.39 0 0 0 0.779,-0.241 l 2.508,-1.716 c 0.914,-0.627 2.158,-0.733 2.158,0.376 l 0.002,6.869 c 0,0.381 -0.154,0.728 -0.406,0.976 -0.127,0.129 -0.279,0.231 -0.447,0.3 -0.168,0.069 -0.347,0.105 -0.528,0.104 L 3.969,40.172 A 1.38,1.38 0 0 1 2.994,39.767 1.38,1.38 0 0 1 2.59,38.791 L 2.588,31.921 C 2.589,31.636 2.671,31.434 2.805,31.296 Z M 1.784,30.272 C 1.491,30.565 1.141,31.089 1.141,31.92 l 0.002,6.87 a 2.83,2.83 0 0 0 2.828,2.826 l 30.537,-0.005 a 2.81,2.81 0 0 0 2,-0.827 c 0.263,-0.262 0.472,-0.574 0.614,-0.918 0.142,-0.344 0.215,-0.712 0.214,-1.083 l -0.002,-6.869 c 0,-0.9 -0.42,-1.637 -1.15,-2.023 -1.09,-0.573 -2.404,-0.143 -3.273,0.452 l -2.49,1.703 -22.365,0.005 -2.49,-1.703 C 4.216,29.426 2.661,29.394 1.784,30.272" fill="#42250d" id="path235" />
      <path d="M 23.97,29.353 V 28.33 c 0,0 -1.875,-0.585 -4.73,-0.584 -2.855,0.001 -4.703,0.586 -4.703,0.586 l 0.002,1.024 c 0,0 2.602,-0.587 4.701,-0.587 2.099,0 4.73,0.584 4.73,0.584 z m 0,-6.097 v -1.024 c 0,0 -1.875,-0.584 -4.734,-0.583 -2.859,10e-4 -4.699,0.585 -4.699,0.585 l -0.002,1.023 c 0,0 2.605,-0.586 4.703,-0.586 2.098,0 4.732,0.585 4.732,0.585 z m -10e-4,-5.54 v -1.023 c 0,0 -1.875,-0.584 -4.732,-0.584 -2.857,0 -4.701,0.587 -4.701,0.587 v 1.023 c 0,0 2.605,-0.585 4.701,-0.586 2.096,-10e-4 4.732,0.583 4.732,0.583 z" fill="#603913" id="path237" />
      <path d="m 18.527,115.287 -6.744,-12.463 -0.01,-56.104 14.965,-10e-4 0.008,56.102 -6.738,12.467 c -0.291,0.538 -1.19,0.537 -1.481,-10e-4 z" fill="#939598" id="path239" />
      <path d="m 19.267,115.691 c -0.297,0 -0.592,-0.135 -0.738,-0.403 l -6.746,-12.463 -0.01,-56.104 7.482,-0.002 c 0.001,10e-4 0.309,68.972 0.012,68.972 z" fill="#bcbec0" id="path241" />
      <path d="m 11.059,46.206 16.27,-0.042" stroke="#414042" stroke-width="3" stroke-miterlimit="10" id="path243" />
      <path d="m 33.634,32.12 a 0.97,0.97 0 0 0 -0.098,-0.45 l -2.316,1.585 c -0.229,0.157 -0.5,0.241 -0.777,0.241 l -1.537,10e-4 a 1.37,1.37 0 0 1 -0.717,0.204 L 5.783,33.705 A 1.38,1.38 0 0 1 5.004,33.464 L 2.598,31.82 2.59,31.921 l 0.002,6.87 a 1.38,1.38 0 0 0 0.404,0.977 1.38,1.38 0 0 0 0.977,0.404 L 32.971,40.164 A 1.37,1.37 0 0 0 33.635,38.99 V 32.12 Z M 13.768,2.388 a 1.64,1.64 0 0 0 -0.63,0.599 C 12.986,3.24 12.905,3.529 12.904,3.825 l 0.002,5.738 c 0,0.903 0.738,1.641 1.641,1.64 h 7.9 c 0.512,-0.279 0.865,-0.815 0.865,-1.437 L 23.31,4.027 c 0,-0.902 -0.738,-1.641 -1.641,-1.64 z" fill="#916136" id="path245" />
      <path d="m 14.289,3.228 4.848,-0.001 c 0.206,0.007 0.401,0.094 0.545,0.243 0.144,0.149 0.223,0.346 0.223,0.553 0,0.207 -0.08,0.404 -0.223,0.553 -0.143,0.149 -0.338,0.235 -0.545,0.243 L 14.291,4.82 A 0.8,0.8 0 0 1 13.494,4.023 c 0,-0.436 0.357,-0.794 0.795,-0.794 z m -6.278,32.827 12.35,-0.002 c 0.204,-0.01 0.397,-0.099 0.538,-0.247 0.141,-0.148 0.219,-0.345 0.219,-0.549 0,-0.204 -0.079,-0.401 -0.219,-0.549 -0.14,-0.148 -0.333,-0.236 -0.538,-0.247 L 8.01,34.462 a 0.8,0.8 0 0 0 -0.795,0.797 0.8,0.8 0 0 0 0.796,0.796" fill="#b78358" id="path247" />
    </g>
  </g>
</svg>