<svg xmlns="http://www.w3.org/2000/svg" viewBox="0 0 158 158" height="158" width="158" fill="none">
  <g transform="translate(59.76, 21)">
    <path d="M25.802 11.438c-.246.247-.538.444-.861.577s-.668.202-1.016.201l-9.377.002c-.703-.001-1.378-.28-1.875-.778s-.778-1.172-.779-1.875V3.827a2.64 2.64 0 0 1 .777-1.877c.246-.247.538-.443.86-.577s.667-.202 1.015-.201h9.377c.704 0 1.379.279 1.877.776s.778 1.172.779 1.875v5.739c.001.348-.067.694-.2 1.015s-.329.614-.577.86z" fill="#916136"/>
    <path d="M13.247 2.569c.315-.315.742-.492 1.188-.493l9.602-.003a1.69 1.69 0 0 1 1.68 1.681l.002 5.876a1.67 1.67 0 0 1-.496 1.187c-.315.315-.741.492-1.186.493l-9.6.001a1.69 1.69 0 0 1-1.682-1.68V3.756a1.68 1.68 0 0 1 .492-1.187zm-1.465-1.466c-.35.347-.628.761-.817 1.217s-.286.944-.285 1.438l.002 5.875a3.76 3.76 0 0 0 3.754 3.754l9.6-.001a3.73 3.73 0 0 0 2.654-1.104c.35-.347.627-.76.816-1.215s.285-.943.284-1.436V3.754a3.76 3.76 0 0 0-1.102-2.653A3.76 3.76 0 0 0 24.034 0l-9.6.002c-1 0-1.943.391-2.652 1.101" fill="#42250d"/>
    <path d="M36.204 40.478c-.222.223-.486.4-.776.52s-.602.182-.917.182l-30.537.004c-.315.001-.626-.06-.917-.18s-.555-.297-.776-.52a2.38 2.38 0 0 1-.701-1.692l-.002-6.87c.002-.684.281-1.106.516-1.341.729-.728 2.055-.675 3.229.127l2.51 1.715a.36.36 0 0 0 .207.064l22.404-.005c.074.001.146-.021.207-.063l2.508-1.717c.766-.523 1.908-.91 2.826-.426.584.307.92.904.92 1.638v6.87c0 .315-.062.626-.182.917s-.297.555-.519.777" fill="#916136"/>
    <path d="M2.31 31.172c.408-.407 1.299-.226 2.002.256l2.582 1.768c.238.161.518.248.803.248l23.086-.005c.285 0 .564-.087.801-.248l2.584-1.768c.943-.646 2.223-.756 2.223.387l.002 7.077a1.41 1.41 0 0 1-.416 1.005c-.132.132-.288.237-.46.309s-.357.108-.544.108l-31.463.006c-.785 0-1.42-.637-1.422-1.422v-7.08c0-.291.082-.5.222-.641zM.834 29.696C.453 30.078 0 30.753 0 31.814v7.079c.001.931.371 1.823 1.03 2.481s1.551 1.028 2.482 1.028l31.461-.005a3.49 3.49 0 0 0 2.48-1.028 3.49 3.49 0 0 0 1.027-2.482l-.002-7.077c0-1.139-.561-2.114-1.504-2.612-1.354-.715-2.947-.21-3.986.502l-2.412 1.651-22.674.003-2.414-1.649c-1.656-1.134-3.527-1.137-4.654-.009" fill="#42250d"/>
    <path d="M13.91 7.367h10.654v28.102H13.91z" fill="#9b7753"/>
    <path d="M14.898 8.258l8.672-.001.006 26.325-8.672.001zm-2.113-2.114v2.114l.006 26.326v2.114h2.113l8.672-.001 2.115-.001v-2.114l-.006-26.326V6.141H23.57l-8.672.003z" fill="#603913"/>
    <path d="M20.604 115.652c-.41.412-1.016.604-1.621.518a1.81 1.81 0 0 1-1.346-.916l-6.863-12.688-.012-65.348 16.988-.003.014 65.349-6.861 12.689a1.73 1.73 0 0 1-.299.399z" fill="#636362"/>
    <path d="M11.64 37.62l15.23-.003.012 65.22-6.861 12.687c-.032.062-.074.119-.125.168-.371.375-1.115.318-1.379-.167l-6.865-12.685zm-2.062-2.061v2.063l.012 65.218v.523l.25.459 6.863 12.685c.43.794 1.205 1.326 2.127 1.461.934.137 1.881-.169 2.527-.817.189-.191.354-.407.48-.645l6.859-12.688.246-.46v-.522l-.01-65.219v-2.062h-2.063l-15.229.004z" fill="#414042"/>
    <path d="M14.953 11.789h6.457v22.633h-6.457z" fill="#c49a6c"/>
    <path d="M25.594 11.234a2.35 2.35 0 0 1-1.672.693l-9.377.002c-.627 0-1.228-.25-1.672-.693s-.693-1.045-.693-1.672V3.827c0-.631.246-1.224.693-1.671.218-.221.478-.395.765-.514s.594-.18.905-.178l9.377-.002a2.36 2.36 0 0 1 .906.179c.287.119.548.293.768.512s.394.48.513.767.18.595.18.905l.002 5.739c.001.311-.06.619-.18.905s-.294.547-.515.766" fill="#633b1a"/>
    <path d="M13.386 2.664a1.64 1.64 0 0 1 1.158-.482l9.379-.002a1.65 1.65 0 0 1 1.641 1.642l.002 5.739a1.64 1.64 0 0 1-1.642 1.641l-9.377.001a1.65 1.65 0 0 1-1.643-1.642V3.823a1.64 1.64 0 0 1 .482-1.159zm-1.023-1.022c-.288.286-.516.626-.672 1.001s-.235.777-.234 1.182l.002 5.738a3.06 3.06 0 0 0 .906 2.183c.286.288.626.516 1 .671s.776.235 1.182.234l9.377-.002a3.07 3.07 0 0 0 2.184-.905 3.07 3.07 0 0 0 .904-2.183V3.822c0-.824-.32-1.598-.906-2.184-.286-.287-.627-.515-1.002-.67s-.777-.235-1.182-.234l-9.377.001c-.823 0-1.598.323-2.182.907" fill="#42250d"/>
    <path d="M35.998 40.274c-.195.196-.426.351-.681.457s-.528.16-.805.16l-30.542.005c-.561 0-1.09-.218-1.486-.615-.196-.195-.352-.426-.458-.682s-.16-.529-.159-.805v-6.87c0-.583.232-.94.43-1.137.732-.732 1.996-.428 2.861.161l2.508 1.716a.66.66 0 0 0 .371.115l22.406-.005a.64.64 0 0 0 .369-.114l2.508-1.716c.664-.452 1.723-.833 2.527-.408.285.149.764.53.764 1.381v6.87c.001.276-.052.55-.157.805s-.26.487-.456.682" fill="#633b1a"/>
    <path d="M2.805 31.296c.396-.396 1.26-.219 1.943.248l2.508 1.716c.229.157.5.241.779.241l22.406-.005a1.39 1.39 0 0 0 .779-.241l2.508-1.716c.914-.627 2.158-.733 2.158.376l.002 6.869c0 .381-.154.728-.406.976-.127.129-.279.231-.447.3s-.347.105-.528.104l-30.538.008a1.38 1.38 0 0 1-.975-.405 1.38 1.38 0 0 1-.404-.976l-.002-6.87c.001-.285.083-.487.217-.625zm-1.021-1.024c-.293.293-.643.817-.643 1.648l.002 6.87a2.83 2.83 0 0 0 2.828 2.826l30.537-.005a2.81 2.81 0 0 0 2-.827c.263-.262.472-.574.614-.918s.215-.712.214-1.083l-.002-6.869c0-.9-.42-1.637-1.15-2.023-1.09-.573-2.404-.143-3.273.452l-2.49 1.703-22.365.005-2.49-1.703c-1.35-.922-2.905-.954-3.782-.076" fill="#42250d"/>
    <path d="M23.97 29.353V28.33s-1.875-.585-4.73-.584-4.703.586-4.703.586l.002 1.024s2.602-.587 4.701-.587 4.73.584 4.73.584zm0-6.097v-1.024s-1.875-.584-4.734-.583-4.699.585-4.699.585l-.002 1.023s2.605-.586 4.703-.586 4.732.585 4.732.585zm-.001-5.54v-1.023s-1.875-.584-4.732-.584-4.701.587-4.701.587v1.023s2.605-.585 4.701-.586 4.732.583 4.732.583z" fill="#603913"/>
    <path d="M18.527 115.287l-6.744-12.463-.01-56.104 14.965-.001.008 56.102-6.738 12.467c-.291.538-1.19.537-1.481-.001z" fill="#939598"/>
    <path d="M19.267 115.691c-.297 0-.592-.135-.738-.403l-6.746-12.463-.01-56.104 7.482-.002c.001.001.309 68.972.012 68.972z" fill="#bcbec0"/>
    <path d="M11.059 46.206l16.27-.042" stroke="#414042" stroke-width="3" stroke-miterlimit="10"/>
    <path d="M33.634 32.12a.97.97 0 0 0-.098-.45l-2.316 1.585c-.229.157-.5.241-.777.241l-1.537.001a1.37 1.37 0 0 1-.717.204l-22.406.004a1.38 1.38 0 0 1-.779-.241L2.598 31.82l-.008.101.002 6.87a1.38 1.38 0 0 0 .404.977 1.38 1.38 0 0 0 .977.404l28.998-.008a1.37 1.37 0 0 0 .664-1.174v-6.87zM13.768 2.388a1.64 1.64 0 0 0-.63.599c-.152.253-.233.542-.234.838l.002 5.738c0 .903.738 1.641 1.641 1.64h7.9c.512-.279.865-.815.865-1.437l-.002-5.739c0-.902-.738-1.641-1.641-1.64z" fill="#916136"/>
    <path d="M14.289 3.228l4.848-.001c.206.007.401.094.545.243s.223.346.223.553-.08.404-.223.553-.338.235-.545.243l-4.846.001a.8.8 0 0 1-.797-.797c0-.436.357-.794.795-.794zM8.011 36.055l12.35-.002c.204-.01.397-.099.538-.247s.219-.345.219-.549-.079-.401-.219-.549-.333-.236-.538-.247l-12.351.001a.8.8 0 0 0-.795.797.8.8 0 0 0 .796.796" fill="#b78358"/>
  </g>
</svg>