<svg xmlns="http://www.w3.org/2000/svg" width="340" height="340" viewBox="0 0 340 340" fill="none">
  <g transform="translate(38, 38)">
    <path d="M98.696 225.266c-51.595 0-93.571-41.976-93.571-93.571s41.976-93.57 93.571-93.57 93.571 41.976 93.571 93.57-41.976 93.571-93.571 93.571z" fill="#fff"/>
    <path d="M98.696 43.25c48.847 0 88.446 39.601 88.446 88.445s-39.6 88.446-88.446 88.446-88.446-39.599-88.446-88.446S49.849 43.25 98.696 43.25zm0-10.25C44.275 33 0 77.274 0 131.695s44.275 98.696 98.696 98.696 98.696-44.275 98.696-98.696S153.117 33 98.696 33h0z" fill="#000"/>
    <path d="M98.697 43.215c48.867 0 88.482 39.616 88.482 88.481s-39.615 88.482-88.482 88.482-88.482-39.615-88.482-88.482S49.83 43.215 98.697 43.215zm0-9c-53.752 0-97.482 43.729-97.482 97.481s43.73 97.482 97.482 97.482 97.482-43.73 97.482-97.482-43.73-97.481-97.482-97.481z" fill="black"/>
    <path d="M98.695 55.361c42.09 0 76.333 34.243 76.333 76.334 0 43.518-32.816 76.334-76.333 76.334-42.09 0-76.333-34.243-76.333-76.334s34.243-76.334 76.333-76.334zm0-17.064c-51.581 0-93.398 41.816-93.398 93.398s41.817 93.398 93.398 93.398c54.25 0 93.398-41.815 93.398-93.398s-41.814-93.398-93.398-93.398z" fill="none"/>
    <path d="M92.694 75.507c.306-.304.726-.493 1.188-.493l9.614-.003a1.69 1.69 0 0 1 1.683 1.683l.002 5.886a1.71 1.71 0 0 1-.129.643 1.69 1.69 0 0 1-.366.545c-.304.302-.726.493-1.189.494l-9.612.001c-.924 0-1.684-.756-1.686-1.682v-5.885a1.68 1.68 0 0 1 .495-1.189h0zm-1.469-1.468a3.73 3.73 0 0 0-1.103 2.657l.001 5.885c0 2.074 1.689 3.76 3.761 3.76l9.613-.001c1.003 0 1.946-.394 2.659-1.105a3.73 3.73 0 0 0 .816-1.217c.189-.456.286-.944.285-1.438l-.001-5.886c0-2.072-1.687-3.76-3.761-3.76l-9.613.002c-1.001-.001-1.947.391-2.657 1.103h0zm-9.484 30.113c.409-.407 1.3-.225 2.005.257l2.587 1.77c.236.162.517.25.803.25l23.119-.006c.286 0 .567-.088.804-.249l2.588-1.77c.942-.647 2.227-.758 2.227.388l.002 7.087a1.41 1.41 0 0 1-.105.547 1.42 1.42 0 0 1-.308.464 1.41 1.41 0 0 1-.465.308c-.173.071-.36.107-.547.105l-31.508.008c-.787 0-1.423-.639-1.424-1.425l-.001-7.09c-.001-.292.083-.501.223-.644h0zm-1.48-1.478c-.382.383-.835 1.059-.835 2.121l.001 7.09a3.52 3.52 0 0 0 3.516 3.514l31.508-.005a3.51 3.51 0 0 0 1.345-.267c.426-.176.813-.436 1.139-.762.663-.664 1.029-1.548 1.03-2.486l-.002-7.087c0-1.141-.563-2.118-1.507-2.617-1.356-.715-2.952-.21-3.992.503l-2.417 1.654-22.705.002-2.419-1.651c-1.659-1.135-3.533-1.137-4.662-.009" fill="#42250d"/>
    <path d="M93.356 80.313h10.67v28.146h-10.67V80.313z" fill="#9b7753"/>
    <path d="M94.348 81.205l8.685-.001.005 26.364-8.686.001-.004-26.364h0zm-2.117-2.116v2.116l.005 26.365.001 2.118h2.115l8.686-.001 2.117-.001v-2.118l-.005-26.365v-2.117h-2.117l-8.684.003h-2.117 0z" fill="#603913"/>
    <path d="M100.059 188.762c-.41.412-1.017.604-1.623.517-.586-.086-1.077-.419-1.348-.916l-6.873-12.707-.012-65.446 17.014-.003.014 65.447-6.873 12.708a1.67 1.67 0 0 1-.299.4h0z" fill="#636362"/>
    <path d="M91.085 110.61l15.253-.003.012 65.317-6.871 12.705a.62.62 0 0 1-.125.169c-.372.375-1.117.319-1.382-.168l-6.874-12.703-.013-65.317zm-2.065-2.064v2.066l.01 65.315.001.523.251.461 6.873 12.703c.43.795 1.206 1.328 2.129 1.463.938.137 1.885-.169 2.532-.818.19-.191.354-.408.481-.646l6.869-12.706.247-.46v-.524l-.011-65.316v-2.064h-2.065l-15.254.003H89.02h0z" fill="#414042"/>
    <path d="M94.402 84.746h6.468v22.666h-6.468V84.746z" fill="#c49a6c"/>
    <path d="M105.061 84.182c-.45.448-1.043.695-1.675.695l-9.392.002c-1.305 0-2.368-1.063-2.368-2.369l-.001-5.745c0-.633.248-1.226.695-1.674a2.34 2.34 0 0 1 1.672-.694l9.393-.002a2.35 2.35 0 0 1 .906.179c.288.119.549.294.768.514a2.35 2.35 0 0 1 .696 1.674l.001 5.748c.001.63-.247 1.225-.695 1.672" fill="#633b1a"/>
    <path d="M92.831 75.605c.298-.298.709-.482 1.16-.482l9.394-.002a1.65 1.65 0 0 1 1.643 1.644l.002 5.748c0 .451-.186.861-.484 1.161a1.63 1.63 0 0 1-1.16.481l-9.392.001a1.65 1.65 0 0 1-1.645-1.644v-5.746c-.002-.453.186-.863.482-1.161h0zm-1.026-1.024a3.07 3.07 0 0 0-.907 2.187l.001 5.747a3.07 3.07 0 0 0 .909 2.186 3.08 3.08 0 0 0 2.185.907l9.392-.003c.825 0 1.602-.322 2.187-.906.289-.286.517-.627.673-1.002s.235-.778.233-1.184v-5.748a3.05 3.05 0 0 0-.907-2.188c-.286-.288-.627-.516-1.003-.671s-.777-.235-1.184-.234l-9.393.001a3.08 3.08 0 0 0-2.186.908" fill="#42250d"/>
    <path d="M115.478 113.267a2.09 2.09 0 0 1-.683.457 2.08 2.08 0 0 1-.806.161l-30.585.005c-.277.002-.552-.051-.808-.156a2.09 2.09 0 0 1-.685-.456c-.196-.196-.351-.429-.456-.686s-.158-.531-.156-.808l-.001-6.881c0-.583.234-.941.431-1.137.733-.734 1.998-.43 2.865.161l2.512 1.717c.11.076.238.115.372.116l22.439-.005c.132.001.261-.039.369-.115l2.512-1.717c.664-.454 1.726-.835 2.53-.41.287.15.766.531.766 1.384l.001 6.881c.001.276-.053.551-.159.806a2.09 2.09 0 0 1-.457.683" fill="#633b1a"/>
    <path d="M82.237 104.278c.396-.397 1.261-.219 1.944.248l2.513 1.718c.229.158.501.243.779.243l22.44-.006c.278 0 .551-.085.78-.242l2.511-1.718c.916-.628 2.162-.734 2.162.377l.002 6.88c0 .381-.155.728-.406.977-.128.129-.28.231-.448.3s-.347.105-.529.104l-30.584.008c-.764 0-1.381-.62-1.382-1.383l-.001-6.881c0-.285.083-.487.219-.625h0zm-1.025-1.025c-.293.294-.642.818-.642 1.65l.001 6.881c0 1.562 1.27 2.832 2.832 2.831l30.583-.006c.372.001.741-.071 1.085-.213a2.8 2.8 0 0 0 .92-.613 2.81 2.81 0 0 0 .614-.92c.142-.344.214-.713.212-1.085l-.002-6.88c0-.901-.42-1.64-1.151-2.027-1.09-.573-2.407-.142-3.277.453l-2.495 1.706-22.399.004-2.494-1.705c-1.352-.925-2.908-.956-3.787-.076" fill="#42250d"/>
    <path d="M103.432 102.332v-1.026s-1.876-.585-4.737-.584-4.708.587-4.708.587l.001 1.025s2.605-.587 4.707-.587 4.737.585 4.737.585zm-.001-6.107v-1.026s-1.876-.585-4.738-.584-4.707.586-4.707.586l-.001 1.024s2.608-.586 4.709-.586 4.737.586 4.737.586h0zm-.001-5.549v-1.025s-1.877-.585-4.737-.585-4.709.589-4.709.589l.001 1.023s2.607-.584 4.708-.585 4.737.583 4.737.583z" fill="#603913"/>
    <path d="M97.983 188.395l-6.753-12.482-.011-56.188 14.985-.002.011 56.187-6.752 12.486c-.289.539-1.189.537-1.48-.001" fill="#939598"/>
    <path d="M98.724 188.801c-.298 0-.594-.135-.74-.403l-6.754-12.482-.011-56.188 7.493-.001c.001-.002.309 69.074.012 69.074z" fill="#bcbec0"/>
    <path d="M90.5 119.215l16.294-.043" stroke="#414042" stroke-width="3" stroke-miterlimit="10"/>
    <path d="M113.109 105.102c0-.184-.036-.33-.097-.45l-2.319 1.587c-.23.158-.501.242-.779.242h-1.539c-.216.134-.465.205-.718.206l-22.44.004c-.278 0-.55-.085-.78-.242l-2.409-1.647-.008.102.001 6.881c0 .763.618 1.383 1.383 1.383l29.043-.008a1.38 1.38 0 0 0 .487-.5c.116-.206.178-.438.178-.675l-.002-6.883h0zM93.214 75.326c-.512.279-.866.816-.865 1.439l.001 5.747a1.65 1.65 0 0 0 1.644 1.641h7.913a1.64 1.64 0 0 0 .866-1.438l-.001-5.748a1.65 1.65 0 0 0-1.646-1.643l-7.913.002z" fill="#916136"/>
    <path d="M93.734 76.169l4.856-.001a.8.8 0 0 1 .796.797.8.8 0 0 1-.796.797l-4.855.001a.8.8 0 0 1-.797-.798.8.8 0 0 1 .796-.796h0zm-6.287 32.876l12.368-.001c.212-.001.415-.085.564-.234a.8.8 0 0 0 .234-.564c-.001-.211-.085-.413-.235-.562a.79.79 0 0 0-.563-.234l-12.369.001a.8.8 0 0 0-.798.798c.001.436.36.796.799.796z" fill="#b78358"/><path d="M207.612 179.918c-4.59-.004-8.328-3.726-8.328-8.305v-13.664h-39.752c-1.923-.003-3.766-.767-5.125-2.126a7.26 7.26 0 0 1-2.126-5.125v-38.002a7.26 7.26 0 0 1 2.126-5.124c1.359-1.36 3.202-2.124 5.125-2.126h39.752V91.781c.005-2.205.885-4.318 2.446-5.875s3.677-2.431 5.882-2.43c2 0 3.874.71 5.414 2.054l45.773 39.916c.891.779 1.606 1.74 2.096 2.818a8.31 8.31 0 0 1 .743 3.432c0 1.184-.254 2.354-.743 3.433a8.31 8.31 0 0 1-2.096 2.817l-45.773 39.917a8.14 8.14 0 0 1-5.414 2.054h0z" fill="url(#A)"/><path d="M207.612 85.477c1.418 0 2.866.484 4.103 1.562l45.768 39.916c.678.59 1.221 1.319 1.593 2.137s.565 1.707.565 2.605a6.29 6.29 0 0 1-.565 2.605c-.372.818-.915 1.547-1.593 2.137l-45.774 39.917c-1.13 1.004-2.588 1.56-4.099 1.562-3.248 0-6.33-2.544-6.33-6.305v-15.664h-41.748c-1.393 0-2.728-.554-3.713-1.538s-1.538-2.32-1.538-3.713v-38.002a5.25 5.25 0 0 1 5.251-5.25h41.752V91.779c0-3.76 3.082-6.302 6.328-6.302zm0-4c-5.694 0-10.328 4.624-10.328 10.302v11.667h-37.752c-2.453.002-4.804.978-6.538 2.712a9.26 9.26 0 0 0-2.713 6.538v38.002a9.26 9.26 0 0 0 9.251 9.251h37.752v11.664a10.33 10.33 0 0 0 10.328 10.305 10.25 10.25 0 0 0 6.729-2.548l45.77-39.916c1.107-.967 1.995-2.159 2.603-3.497s.923-2.79.923-4.26a10.3 10.3 0 0 0-.923-4.26 10.29 10.29 0 0 0-2.603-3.496l-45.77-39.918a10.26 10.26 0 0 0-6.729-2.546z" fill="#223948"/>
  </g>
  <defs>
    <radialGradient id="A" cx="0" cy="0" r="1" gradientUnits="userSpaceOnUse" gradientTransform="translate(206.959 131.697) rotate(90) scale(48.2206 54.6782)">
      <stop stop-color="#f6faf6"/>
    </radialGradient>
  </defs>
</svg>